<?xml version="1.0" encoding="UTF-8"?>
<svg xmlns="http://www.w3.org/2000/svg" xmlns:xlink="http://www.w3.org/1999/xlink" version="1.2" >
<font id="Fly Sans Bold Italic">
<font-face  font-family="Fly Sans" units-per-em="1000" ascent="1000" descent="-300" font-style="normal" font-weight="700" font-stretch="normal" slope="-7" cap-height="680" x-height="500" underline-position="-125" underline-thickness="108" />
<missing-glyph  horiz-adv-x="841" d="M706 94 Q655 44 590.5 18 Q526 -8 457 -8 Q391 -8 326 18 Q261 44 211 94 Q160 144 134 209 Q108 274 108 341 Q108 407 134 472 Q160 537 211 588 Q261 638 326 664 Q391 690 457 690 Q524 690 590 664 Q656 638 706 588 Q756 538 782.5 472.5 Q809 407 809 341 Q809 273 782.5 208.5 Q756 144 706 94 Z M694 106 Q743 155 768 216.5 Q793 278 793 341 Q793 404 768 465.5 Q743 527 694 576 Q645 625 583 649.5 Q521 674 457 674 Q394 674 333 649.5 Q272 625 223 576 Q174 527 149 465.5 Q124 404 124 341 Q124 278 149 216.5 Q174 155 223 106 Q272 57 333 32.5 Q394 8 457 8 Q522 8 583.5 32.5 Q645 57 694 106 Z M550 160 L458 252 L366 160 Q355 149 345 148.5 Q335 148 324 160 L273 212 Q263 223 263 232 Q263 241 274 252 L366 344 L274 436 Q262 448 262 457 Q262 466 272 477 L323 529 Q334 541 344 540.5 Q354 540 366 528 L458 436 L550 528 Q562 540 571 540 Q580 540 591 530 L643 479 Q655 468 654.5 458 Q654 448 642 436 L550 344 L642 252 Q653 241 653.5 231 Q654 221 642 210 L590 159 Q579 149 570 149 Q561 149 550 160 Z " />
<glyph glyph-name="Eth" unicode="&#xd0;" horiz-adv-x="648" d="M317 0 L78 0 Q67 0 60.5 7 Q54 14 56 30 L87 281 L45 281 Q29 281 23.5 287.5 Q18 294 19 310 L26 373 Q27 389 35.5 395 Q44 401 60 401 L101 401 L132 650 Q134 666 141.5 673 Q149 680 165 680 L383 680 Q513 680 570 632.5 Q627 585 627 525 Q627 521 626 509.5 Q625 498 624 493 L585 171 Q578 107 520.5 53.5 Q463 0 317 0 Z M234 135 L326 135 Q363 135 391 150.5 Q419 166 423 200 L456 466 Q457 470 457.5 479 Q458 488 458 490 Q458 519 435.5 532 Q413 545 375 545 L285 545 L267 401 L327 401 Q343 401 348.5 395 Q354 389 353 373 L346 310 Q345 294 336.5 287.5 Q328 281 312 281 L252 281 L234 135 Z " />
<glyph glyph-name="eth" unicode="&#xf0;" horiz-adv-x="535" d="M317 575 L349 593 Q342 596 331.5 597 Q321 598 310 598 L209 598 Q197 598 189 604 Q181 610 183 628 L189 679 Q190 695 198.5 701.5 Q207 708 223 708 L324 708 Q380 708 419.5 696.5 Q459 685 484 665 L527 689 Q537 695 548 693 Q559 691 566 678 L575 661 Q581 650 577 640 Q573 630 558 622 L521 601 Q524 591 523.5 576.5 Q523 562 522 552 L472 148 Q463 77 409 34.5 Q355 -8 239 -8 Q137 -8 80 30 Q23 68 23 131 Q23 135 23 138.5 Q23 142 24 148 L49 354 Q58 425 95.5 466.5 Q133 508 211 508 Q266 508 303.5 490 Q341 472 360 456 L368 519 L347 508 Q337 503 326.5 503.5 Q316 504 309 518 L300 536 Q294 548 299.5 558 Q305 568 317 575 Z M324 162 L345 330 Q330 341 304.5 356 Q279 371 251 371 Q223 371 215 357.5 Q207 344 206 329 L187 172 Q186 168 185.5 162 Q185 156 185 155 Q185 134 203 125.5 Q221 117 249 117 Q280 117 300.5 127 Q321 137 324 162 Z " />
<glyph glyph-name="Lslash" unicode="&#x141;" horiz-adv-x="483" d="M414 0 L78 0 Q65 0 60 7.5 Q55 15 56 30 L84 262 L62 253 Q47 247 39 251 Q31 255 26 269 L14 303 Q10 315 15 324.5 Q20 334 35 340 L97 364 L132 650 Q134 666 141.5 673 Q149 680 165 680 L273 680 Q289 680 294 673 Q299 666 297 650 L270 431 L296 441 Q309 446 319 442 Q329 438 333 424 L344 390 Q348 378 343 368.5 Q338 359 323 353 L258 328 L234 135 L430 135 Q446 135 452.5 129 Q459 123 457 107 L447 29 Q445 13 437.5 6.5 Q430 0 414 0 Z " />
<glyph glyph-name="lslash" unicode="&#x142;" horiz-adv-x="333" d="M180 0 L77 0 Q61 0 55.5 7 Q50 14 52 30 L80 262 L57 253 Q42 247 33.5 251 Q25 255 21 269 L12 304 Q9 317 13.5 326.5 Q18 336 32 341 L93 364 L130 669 Q132 685 139.5 692 Q147 699 163 699 L266 699 Q282 699 287 692 Q292 685 290 669 L261 429 L291 441 Q304 446 314 442 Q324 438 328 424 L339 390 Q343 378 338 368.5 Q333 359 318 353 L248 326 L212 30 Q210 14 203 7 Q196 0 180 0 Z " />
<glyph glyph-name="Scaron" unicode="&#x160;" horiz-adv-x="574" d="M391 480 L392 495 L392 501 Q392 532 372.5 545 Q353 558 320 558 Q286 558 262.5 543.5 Q239 529 235 495 L234 485 L234 479 Q234 460 244 452.5 Q254 445 261 442 L422 385 Q471 368 500 332 Q529 296 529 250 Q529 246 528.5 239.5 Q528 233 527 225 L520 163 Q513 99 455.5 45.5 Q398 -8 256 -8 Q128 -8 73.5 39 Q19 86 19 146 Q19 150 19.5 155.5 Q20 161 21 171 L28 230 Q29 246 37 253 Q45 260 61 260 L165 260 Q181 260 186 252 Q191 244 189 230 L184 193 Q183 188 183 183.5 Q183 179 183 175 Q183 146 206.5 134 Q230 122 266 122 Q303 122 329 136.5 Q355 151 360 185 L363 205 L363 210 Q363 235 336.5 248.5 Q310 262 285 272 L148 326 Q118 338 94 368.5 Q70 399 70 442 Q70 446 70.5 453 Q71 460 72 467 L78 517 Q85 581 137.5 634.5 Q190 688 330 688 Q455 688 506 641 Q557 594 557 537 Q557 533 557 528 Q557 523 556 517 L552 480 Q551 464 543 457 Q535 450 519 450 L415 450 Q401 450 395.5 456.5 Q390 463 391 480 Z M335 849 L344 821 L359 849 Q365 859 376.5 868.5 Q388 878 404 878 L483 878 Q499 878 502 869.5 Q505 861 495 849 L413 757 Q402 744 390 735.5 Q378 727 362 727 L304 727 Q288 727 278.5 735.5 Q269 744 261 757 L201 849 Q194 861 199.5 869.5 Q205 878 221 878 L298 878 Q314 878 323 868.5 Q332 859 335 849 Z " />
<glyph glyph-name="scaron" unicode="&#x161;" horiz-adv-x="479" d="M302 352 L303 360 Q304 367 304 369 Q304 371 304 372 Q304 388 288 393 Q272 398 253 398 Q232 398 214.5 393 Q197 388 195 368 L194 359 L194 355 Q194 345 198.5 339 Q203 333 212 330 L346 284 Q389 269 411.5 243.5 Q434 218 434 187 Q434 186 434 183.5 Q434 181 433 176 L426 121 Q420 72 371 32 Q322 -8 208 -8 Q101 -8 53.5 29 Q6 66 6 111 Q6 113 6 117 Q6 121 7 128 L9 149 Q10 163 17.5 169.5 Q25 176 40 176 L132 176 Q146 176 151 170 Q156 164 155 149 L154 135 L154 132 Q154 114 172.5 108.5 Q191 103 213 103 Q235 103 257 109 Q279 115 281 135 L282 144 L282 146 Q282 154 273.5 161 Q265 168 247 175 L112 225 Q83 235 65 261.5 Q47 288 47 320 Q47 323 47 327 Q47 331 48 340 L51 372 Q55 421 100 464.5 Q145 508 260 508 Q361 508 406 467.5 Q451 427 451 381 Q451 379 451 376 Q451 373 450 366 L448 352 Q446 337 439 330.5 Q432 324 417 324 L326 324 Q312 324 306.5 331 Q301 338 302 352 Z M262 679 L271 651 L286 679 Q292 689 303.5 698.5 Q315 708 331 708 L410 708 Q426 708 429 699.5 Q432 691 422 679 L340 587 Q329 574 317 565.5 Q305 557 289 557 L231 557 Q215 557 205.5 565.5 Q196 574 188 587 L128 679 Q121 691 126.5 699.5 Q132 708 148 708 L225 708 Q241 708 250 698.5 Q259 689 262 679 Z " />
<glyph glyph-name="Yacute" unicode="&#xdd;" horiz-adv-x="553" d="M235 650 L282 451 Q285 438 287.5 424 Q290 410 292 391 Q299 410 305.5 424.5 Q312 439 319 451 L427 650 Q434 663 442 671.5 Q450 680 466 680 L574 680 Q590 680 595 672 Q600 664 592 650 L360 252 L332 30 Q330 14 323.5 7 Q317 0 301 0 L193 0 Q177 0 171 7 Q165 14 167 30 L192 232 L58 650 Q54 663 60.5 671.5 Q67 680 83 680 L203 680 Q219 680 225.5 671.5 Q232 663 235 650 Z M503 848 L422 747 Q416 740 406 733.5 Q396 727 380 727 L298 727 Q285 727 281 733.5 Q277 740 286 756 L337 848 Q344 861 355 869.5 Q366 878 382 878 L492 878 Q508 878 510.5 869.5 Q513 861 503 848 Z " />
<glyph glyph-name="yacute" unicode="&#xfd;" horiz-adv-x="493" d="M514 470 L219 -169 Q214 -180 206 -189.5 Q198 -199 182 -199 L106 -199 Q90 -199 82.5 -191.5 Q75 -184 81 -169 L143 -17 L34 470 Q30 485 40.5 492.5 Q51 500 67 500 L168 500 Q184 500 189 491.5 Q194 483 197 470 L232 289 Q236 267 238.5 242 Q241 217 240 192 Q250 222 259.5 247 Q269 272 274 284 L358 470 Q364 484 371.5 492 Q379 500 395 500 L489 500 Q505 500 513 492.5 Q521 485 514 470 Z M445 678 L364 577 Q358 570 348 563.5 Q338 557 322 557 L240 557 Q227 557 223 563.5 Q219 570 228 586 L279 678 Q286 691 297 699.5 Q308 708 324 708 L434 708 Q450 708 452.5 699.5 Q455 691 445 678 Z " />
<glyph glyph-name="Thorn" unicode="&#xde;" horiz-adv-x="590" d="M271 650 L253 500 L328 500 Q456 500 511.5 452 Q567 404 567 347 Q567 346 567 338.5 Q567 331 566 327 L557 250 Q550 186 490.5 133.5 Q431 81 287 81 L202 81 L195 30 Q193 14 186.5 7 Q180 0 164 0 L56 0 Q44 0 36 6 Q28 12 30 30 L106 650 Q108 666 115.5 673 Q123 680 139 680 L247 680 Q263 680 267.5 672 Q272 664 271 650 Z M316 365 L236 365 L218 216 L298 216 Q335 216 364 231.5 Q393 247 397 281 L399 300 L399 310 Q399 339 376 352 Q353 365 316 365 Z " />
<glyph glyph-name="thorn" unicode="&#xfe;" horiz-adv-x="549" d="M290 129 Q318 129 325 142.5 Q332 156 334 171 L354 329 Q355 335 355 338 Q355 341 355 342 Q355 354 348.5 362.5 Q342 371 320 371 Q291 371 261.5 356 Q232 341 216 330 L196 170 Q209 159 235 144 Q261 129 290 129 Z M180 43 L154 -169 Q152 -185 145.5 -192 Q139 -199 123 -199 L20 -199 Q8 -199 0 -193 Q-8 -187 -6 -169 L97 669 Q99 685 106.5 692 Q114 699 130 699 L232 699 Q248 699 253 691 Q258 683 257 669 L231 456 Q254 472 290.5 490 Q327 508 383 508 Q447 508 483 474 Q519 440 519 381 Q519 374 518.5 367.5 Q518 361 517 354 L491 146 Q482 75 445 33.5 Q408 -8 329 -8 Q273 -8 236 9.5 Q199 27 180 43 Z " />
<glyph glyph-name="Zcaron" unicode="&#x17d;" horiz-adv-x="502" d="M121 680 L480 680 Q496 680 502.5 674 Q509 668 507 652 L497 574 Q496 565 491.5 557.5 Q487 550 484 546 L208 135 L431 135 Q447 135 453.5 129 Q460 123 458 107 L448 29 Q446 13 438.5 6.5 Q431 0 415 0 L21 0 Q5 0 -1.5 6.5 Q-8 13 -6 29 L4 107 Q5 114 8 120.5 Q11 127 16 134 L293 545 L105 545 Q89 545 82.5 551.5 Q76 558 78 574 L88 652 Q90 668 97.5 674 Q105 680 121 680 Z M307 849 L316 821 L331 849 Q337 859 348.5 868.5 Q360 878 376 878 L455 878 Q471 878 474 869.5 Q477 861 467 849 L385 757 Q374 744 362 735.5 Q350 727 334 727 L276 727 Q260 727 250.5 735.5 Q241 744 233 757 L173 849 Q166 861 171.5 869.5 Q177 878 193 878 L270 878 Q286 878 295 868.5 Q304 859 307 849 Z " />
<glyph glyph-name="zcaron" unicode="&#x17e;" horiz-adv-x="452" d="M101 500 L406 500 Q422 500 428 494 Q434 488 432 472 L423 400 Q422 394 420.5 388 Q419 382 415 378 L200 130 L380 130 Q396 130 402.5 124 Q409 118 407 102 L398 29 Q396 13 388 6.5 Q380 0 364 0 L21 0 Q5 0 -1 6.5 Q-7 13 -5 29 L4 102 Q5 109 7 114 Q9 119 12 123 L225 370 L85 370 Q69 370 62.5 376.5 Q56 383 58 399 L67 472 Q69 488 77 494 Q85 500 101 500 Z M249 679 L258 651 L273 679 Q279 689 290.5 698.5 Q302 708 318 708 L397 708 Q413 708 416 699.5 Q419 691 409 679 L327 587 Q316 574 304 565.5 Q292 557 276 557 L218 557 Q202 557 192.5 565.5 Q183 574 175 587 L115 679 Q108 691 113.5 699.5 Q119 708 135 708 L212 708 Q228 708 237 698.5 Q246 689 249 679 Z " />
<glyph glyph-name="onehalf" unicode="&#xbd;" horiz-adv-x="861" d="M716 658 L303 22 Q293 6 283 -1 Q273 -8 257 -8 L177 -8 Q164 -8 162.5 2.5 Q161 13 167 22 L579 658 Q586 670 598 679 Q610 688 626 688 L706 688 Q719 688 721.5 679 Q724 670 716 658 Z M98 665 L261 685 Q268 686 273 683 Q278 680 277 667 L244 398 L302 398 Q312 398 316.5 394 Q321 390 320 380 L313 324 Q312 314 306.5 310 Q301 306 291 306 L55 306 Q45 306 41 310 Q37 314 38 324 L45 380 Q46 390 51 394 Q56 398 66 398 L127 398 L149 579 L86 573 Q78 572 73.5 575.5 Q69 579 70 588 L77 644 Q78 654 83.5 659 Q89 664 98 665 Z M636 92 L793 92 Q803 92 806.5 88 Q810 84 809 74 L802 18 Q801 8 796.5 4 Q792 0 782 0 L526 0 Q516 0 512 4 Q508 8 509 18 L520 111 Q522 133 534.5 147.5 Q547 162 566 169 L683 217 Q695 222 702.5 228 Q710 234 712 249 L713 256 Q714 262 714 263.5 Q714 265 714 267 Q714 280 704.5 284.5 Q695 289 682 289 Q663 289 654 283 Q645 277 644 263 L642 247 Q641 237 636.5 233 Q632 229 622 229 L544 229 Q534 229 530.5 233 Q527 237 528 247 L531 276 Q535 313 572 345.5 Q609 378 696 378 Q765 378 798 348 Q831 318 831 283 Q831 280 830.5 275 Q830 270 829 259 L827 243 Q821 197 799.5 178.5 Q778 160 753 150 L647 106 Q640 103 638 100.5 Q636 98 636 94 L636 92 Z " />
<glyph glyph-name="onequarter" unicode="&#xbc;" horiz-adv-x="845" d="M712 658 L299 22 Q289 6 279 -1 Q269 -8 253 -8 L173 -8 Q160 -8 158.5 2.5 Q157 13 163 22 L575 658 Q582 670 594 679 Q606 688 622 688 L702 688 Q715 688 717.5 679 Q720 670 712 658 Z M98 665 L261 685 Q268 686 273 683 Q278 680 277 667 L244 398 L302 398 Q312 398 316.5 394 Q321 390 320 380 L313 324 Q312 314 306.5 310 Q301 306 291 306 L55 306 Q45 306 41 310 Q37 314 38 324 L45 380 Q46 390 51 394 Q56 398 66 398 L127 398 L149 579 L86 573 Q78 572 73.5 575.5 Q69 579 70 588 L77 644 Q78 654 83.5 659 Q89 664 98 665 Z M679 356 L613 173 L680 173 L702 356 Q703 365 707.5 369.5 Q712 374 722 374 L801 374 Q811 374 814.5 369.5 Q818 365 817 356 L776 18 Q775 9 770.5 4.5 Q766 0 756 0 L677 0 Q667 0 663.5 4.5 Q660 9 661 18 L669 86 L500 86 Q490 86 485.5 90.5 Q481 95 482 105 L487 141 Q488 151 490 157.5 Q492 164 494 169 L565 356 Q568 364 574 369 Q580 374 590 374 L667 374 Q677 374 679.5 368.5 Q682 363 679 356 Z " />
<glyph glyph-name="onesuperior" unicode="&#xb9;" horiz-adv-x="350" d="M130 815 L293 835 Q300 836 305 833 Q310 830 309 817 L276 548 L334 548 Q344 548 348.5 544 Q353 540 352 530 L345 474 Q344 464 338.5 460 Q333 456 323 456 L87 456 Q77 456 73 460 Q69 464 70 474 L77 530 Q78 540 83 544 Q88 548 98 548 L159 548 L181 729 L118 723 Q110 722 105.5 725.5 Q101 729 102 738 L109 794 Q110 804 115.5 809 Q121 814 130 815 Z " />
<glyph glyph-name="threequarters" unicode="&#xbe;" horiz-adv-x="846" d="M711 658 L298 22 Q288 6 278 -1 Q268 -8 252 -8 L172 -8 Q159 -8 157.5 2.5 Q156 13 162 22 L574 658 Q581 670 593 679 Q605 688 621 688 L701 688 Q714 688 716.5 679 Q719 670 711 658 Z M182 302 Q115 302 77 330 Q39 358 39 394 Q39 398 39 400.5 Q39 403 40 410 L41 420 Q42 430 47 435 Q52 440 61 440 L138 440 Q148 440 151 435 Q154 430 154 420 L154 409 Q154 396 166 391.5 Q178 387 188 387 Q205 387 215.5 392.5 Q226 398 228 414 L229 422 L229 427 Q229 443 218 449 Q207 455 195 455 L159 455 Q150 455 146 458.5 Q142 462 143 472 L148 517 Q149 526 154 530 Q159 534 168 534 L199 534 Q212 534 226 541.5 Q240 549 240 567 L240 577 Q240 590 230.5 594.5 Q221 599 212 599 Q195 599 187 593.5 Q179 588 176 572 L175 567 Q173 557 168.5 552.5 Q164 548 154 548 L78 548 Q68 548 64.5 552.5 Q61 557 62 567 L64 585 Q68 622 102 653 Q136 684 224 684 Q293 684 325.5 658 Q358 632 358 600 Q358 599 358 596 Q358 593 357 589 L352 550 Q349 528 338.5 517 Q328 506 306 497 Q326 487 335.5 472.5 Q345 458 345 442 Q345 438 345 435 Q345 432 344 425 L341 397 Q337 361 302 331.5 Q267 302 182 302 Z M680 356 L614 173 L681 173 L703 356 Q704 365 708.5 369.5 Q713 374 723 374 L802 374 Q812 374 815.5 369.5 Q819 365 818 356 L777 18 Q776 9 771.5 4.5 Q767 0 757 0 L678 0 Q668 0 664.5 4.5 Q661 9 662 18 L670 86 L501 86 Q491 86 486.5 90.5 Q482 95 483 105 L488 141 Q489 151 491 157.5 Q493 164 495 169 L566 356 Q569 364 575 369 Q581 374 591 374 L668 374 Q678 374 680.5 368.5 Q683 363 680 356 Z " />
<glyph glyph-name="threesuperior" unicode="&#xb3;" horiz-adv-x="350" d="M197 452 Q130 452 92 480 Q54 508 54 544 Q54 548 54 550.5 Q54 553 55 560 L56 570 Q57 580 62 585 Q67 590 76 590 L153 590 Q163 590 166 585 Q169 580 169 570 L169 559 Q169 546 181 541.5 Q193 537 203 537 Q220 537 230.5 542.5 Q241 548 243 564 L244 572 L244 577 Q244 593 233 599 Q222 605 210 605 L174 605 Q165 605 161 608.5 Q157 612 158 622 L163 667 Q164 676 169 680 Q174 684 183 684 L214 684 Q227 684 241 691.5 Q255 699 255 717 L255 727 Q255 740 245.5 744.5 Q236 749 227 749 Q210 749 202 743.5 Q194 738 191 722 L190 717 Q188 707 183.5 702.5 Q179 698 169 698 L93 698 Q83 698 79.5 702.5 Q76 707 77 717 L79 735 Q83 772 117 803 Q151 834 239 834 Q308 834 340.5 808 Q373 782 373 750 Q373 749 373 746 Q373 743 372 739 L367 700 Q364 678 353.5 667 Q343 656 321 647 Q341 637 350.5 622.5 Q360 608 360 592 Q360 588 360 585 Q360 582 359 575 L356 547 Q352 511 317 481.5 Q282 452 197 452 Z " />
<glyph glyph-name="twosuperior" unicode="&#xb2;" horiz-adv-x="350" d="M184 548 L341 548 Q351 548 354.5 544 Q358 540 357 530 L350 474 Q349 464 344.5 460 Q340 456 330 456 L74 456 Q64 456 60 460 Q56 464 57 474 L68 567 Q70 589 82.5 603.5 Q95 618 114 625 L231 673 Q243 678 250.5 684 Q258 690 260 705 L261 712 Q262 718 262 719.5 Q262 721 262 723 Q262 736 252.5 740.5 Q243 745 230 745 Q211 745 202 739 Q193 733 192 719 L190 703 Q189 693 184.5 689 Q180 685 170 685 L92 685 Q82 685 78.5 689 Q75 693 76 703 L79 732 Q83 769 120 801.5 Q157 834 244 834 Q313 834 346 804 Q379 774 379 739 Q379 736 378.5 731 Q378 726 377 715 L375 699 Q369 653 347.5 634.5 Q326 616 301 606 L195 562 Q188 559 186 556.5 Q184 554 184 550 L184 548 Z " />
<glyph glyph-name="brokenbar" unicode="&#xa6;" horiz-adv-x="318" d="M232 650 L232 344 Q232 328 226 321 Q220 314 204 314 L101 314 Q85 314 78.5 321 Q72 328 72 344 L72 650 Q72 666 78.5 673 Q85 680 101 680 L204 680 Q220 680 226 673 Q232 666 232 650 Z M232 125 L232 -181 Q232 -197 226 -204 Q220 -211 204 -211 L101 -211 Q85 -211 78.5 -204 Q72 -197 72 -181 L72 125 Q72 141 78.5 148 Q85 155 101 155 L204 155 Q220 155 226 148 Q232 141 232 125 Z " />
<glyph glyph-name="minus" unicode="&#x2212;" horiz-adv-x="577" d="M114 389 L531 389 Q547 389 554 383 Q561 377 561 361 L561 288 Q561 272 554 265.5 Q547 259 531 259 L114 259 Q98 259 91 265.5 Q84 272 84 288 L84 361 Q84 377 91 383 Q98 389 114 389 Z " />
<glyph glyph-name="multiply" unicode="&#xd7;" horiz-adv-x="476" d="M151 338 L59 430 Q48 441 48 450.5 Q48 460 58 471 L109 523 Q120 534 130 533.5 Q140 533 151 522 L243 430 L336 523 Q347 534 356.5 534.5 Q366 535 377 524 L429 472 Q440 461 439.5 451.5 Q439 442 428 431 L335 338 L428 246 Q439 236 439 225.5 Q439 215 428 204 L377 152 Q367 141 357 142 Q347 143 336 154 L243 247 L151 155 Q140 144 130.5 143 Q121 142 110 153 L58 205 Q47 216 47.5 226 Q48 236 59 247 L151 338 Z " />
<glyph glyph-name="space" unicode="&#x20;" horiz-adv-x="180" d="" />
<glyph glyph-name="exclam" unicode="&#x21;" horiz-adv-x="271" d="M232 390 L195 220 Q191 204 185 197 Q179 190 163 190 L86 190 Q70 190 65 197 Q60 204 61 220 L66 390 L97 650 Q99 666 106.5 673 Q114 680 130 680 L239 680 Q255 680 260 673 Q265 666 263 650 L232 390 Z M195 112 L185 29 Q183 13 176.5 6.5 Q170 0 154 0 L46 0 Q30 0 24 6.5 Q18 13 20 29 L30 112 Q32 128 39.5 135 Q47 142 63 142 L171 142 Q187 142 192 135 Q197 128 195 112 Z " />
<glyph glyph-name="quotedbl" unicode="&#x22;" horiz-adv-x="427" d="M433 650 L401 490 Q398 474 391.5 467 Q385 460 369 460 L296 460 Q280 460 275 467 Q270 474 271 490 L277 650 Q278 666 286 673 Q294 680 310 680 L409 680 Q425 680 430.5 673 Q436 666 433 650 Z M236 650 L204 490 Q201 474 194.5 467 Q188 460 172 460 L99 460 Q83 460 78 467 Q73 474 74 490 L80 650 Q81 666 89 673 Q97 680 113 680 L212 680 Q228 680 233.5 673 Q239 666 236 650 Z " />
<glyph glyph-name="numbersign" unicode="&#x23;" horiz-adv-x="629" d="M276 332 L251 273 L360 273 L385 332 L276 332 Z M56 273 L119 273 L144 332 L114 332 Q98 332 91.5 338.5 Q85 345 87 361 L94 414 Q96 430 103.5 436 Q111 442 127 442 L189 442 L218 512 Q223 525 232.5 533.5 Q242 542 258 542 L333 542 Q349 542 352 533.5 Q355 525 350 512 L321 442 L430 442 L459 512 Q464 525 473.5 533.5 Q483 542 499 542 L574 542 Q590 542 593 533.5 Q596 525 591 512 L562 442 L591 442 Q607 442 613.5 436 Q620 430 618 414 L611 361 Q609 345 601.5 338.5 Q594 332 578 332 L517 332 L492 273 L520 273 Q536 273 542 267 Q548 261 547 245 L541 192 Q540 176 531.5 169.5 Q523 163 507 163 L447 163 L418 92 Q412 77 403.5 69.5 Q395 62 379 62 L304 62 Q291 62 285.5 69.5 Q280 77 286 92 L315 163 L206 163 L177 92 Q171 77 162.5 69.5 Q154 62 138 62 L63 62 Q50 62 44.5 69.5 Q39 77 45 92 L74 163 L43 163 Q27 163 21.5 169.5 Q16 176 17 192 L23 245 Q24 261 32 267 Q40 273 56 273 Z " />
<glyph glyph-name="dollar" unicode="&#x24;" horiz-adv-x="494" d="M269 0 L166 0 Q150 0 144 7 Q138 14 140 30 L147 89 Q83 102 53.5 134 Q24 166 24 201 Q24 203 24 207 Q24 211 25 218 L27 239 Q28 253 35.5 259.5 Q43 266 58 266 L150 266 Q164 266 169 260 Q174 254 173 239 L172 225 L172 222 Q172 204 190.5 198.5 Q209 193 231 193 Q253 193 275 199 Q297 205 299 225 L300 234 L300 236 Q300 244 291.5 251 Q283 258 265 265 L130 315 Q101 325 83 351.5 Q65 378 65 410 Q65 413 65 417 Q65 421 66 430 L69 462 Q73 503 103.5 541 Q134 579 209 592 L216 650 Q218 666 225.5 673 Q233 680 249 680 L352 680 Q368 680 373 673 Q378 666 376 650 L368 586 Q421 570 445 537.5 Q469 505 469 471 Q469 469 469 466 Q469 463 468 456 L466 442 Q464 427 457 420.5 Q450 414 435 414 L344 414 Q330 414 324.5 421 Q319 428 320 442 L321 450 Q322 457 322 459 Q322 461 322 462 Q322 478 306 483 Q290 488 271 488 Q250 488 232.5 483 Q215 478 213 458 L212 449 L212 445 Q212 435 216.5 429 Q221 423 230 420 L364 374 Q407 359 429.5 333.5 Q452 308 452 277 Q452 276 452 273.5 Q452 271 451 266 L444 211 Q440 171 408 137 Q376 103 307 89 L300 30 Q298 14 291.5 7 Q285 0 269 0 Z " />
<glyph glyph-name="percent" unicode="&#x25;" horiz-adv-x="827" d="M692 658 L279 22 Q269 6 259 -1 Q249 -8 233 -8 L153 -8 Q140 -8 138.5 2.5 Q137 13 143 22 L555 658 Q562 670 574 679 Q586 688 602 688 L682 688 Q695 688 697.5 679 Q700 670 692 658 Z M364 571 L346 425 Q342 388 309 355 Q276 322 192 322 Q117 322 80 352 Q43 382 43 417 Q43 420 43 424.5 Q43 429 44 433 L62 581 Q66 618 100.5 651 Q135 684 222 684 Q294 684 329.5 654 Q365 624 365 589 Q365 588 365 583 Q365 578 364 571 Z M163 452 Q162 446 162 444 Q162 442 162 438 Q162 424 171 419 Q180 414 196 414 Q203 414 216 420 Q229 426 231 444 L245 554 Q246 560 246 562.5 Q246 565 246 566 Q246 582 234.5 587 Q223 592 216 592 Q199 592 189 586 Q179 580 177 562 L163 452 Z M794 245 L776 99 Q772 62 739 29 Q706 -4 622 -4 Q547 -4 510 26 Q473 56 473 91 Q473 94 473 98.5 Q473 103 474 107 L492 255 Q496 292 530.5 325 Q565 358 652 358 Q724 358 759.5 328 Q795 298 795 263 Q795 262 795 257 Q795 252 794 245 Z M593 126 Q592 120 592 118 Q592 116 592 112 Q592 98 601 93 Q610 88 626 88 Q633 88 646 94 Q659 100 661 118 L675 228 Q676 234 676 236.5 Q676 239 676 240 Q676 256 664.5 261 Q653 266 646 266 Q629 266 619 260 Q609 254 607 236 L593 126 Z " />
<glyph glyph-name="ampersand" unicode="&#x26;" horiz-adv-x="690" d="M575 163 Q567 99 508.5 45.5 Q450 -8 284 -8 Q137 -8 81.5 36.5 Q26 81 26 140 Q26 144 26.5 151.5 Q27 159 28 166 L37 237 Q42 278 64 305 Q86 332 131 351 Q100 363 86 384.5 Q72 406 72 434 Q72 436 72 441.5 Q72 447 73 451 L82 521 Q90 585 139.5 636.5 Q189 688 332 688 Q457 688 506 642.5 Q555 597 555 539 Q555 538 555 531.5 Q555 525 554 517 L550 481 Q549 465 541.5 458 Q534 451 518 451 L415 451 Q398 451 393.5 459 Q389 467 390 481 L391 493 Q392 500 392 503.5 Q392 507 392 508 Q392 533 373 545.5 Q354 558 321 558 Q284 558 264 542.5 Q244 527 240 493 L238 476 Q237 470 237 467 Q237 464 237 463 Q237 437 258 424 Q279 411 313 411 L656 411 Q673 411 678.5 403.5 Q684 396 683 383 L674 310 Q672 294 664 287.5 Q656 281 640 281 L590 281 L575 163 Z M299 122 Q353 122 383.5 137.5 Q414 153 418 187 L430 281 L287 281 Q247 281 223.5 266 Q200 251 196 217 L193 188 Q192 181 192 178 Q192 175 192 173 Q192 142 228 132 Q264 122 299 122 Z " />
<glyph glyph-name="quotesingle" unicode="&#x27;" horiz-adv-x="230" d="M236 650 L204 490 Q201 474 194.5 467 Q188 460 172 460 L99 460 Q83 460 78 467 Q73 474 74 490 L80 650 Q81 666 89 673 Q97 680 113 680 L212 680 Q228 680 233.5 673 Q239 666 236 650 Z " />
<glyph glyph-name="parenleft" unicode="&#x28;" horiz-adv-x="340" d="M8 -50 L82 552 Q92 637 143.5 672.5 Q195 708 308 708 L339 708 Q350 708 359 702.5 Q368 697 366 679 L357 608 Q355 592 347 585 Q339 578 323 578 L312 578 Q281 578 264.5 568.5 Q248 559 245 534 L174 -44 Q174 -46 173.5 -48 Q173 -50 173 -52 Q173 -72 188 -80 Q203 -88 231 -88 L242 -88 Q254 -88 262 -94 Q270 -100 268 -118 L259 -189 Q257 -205 249.5 -211.5 Q242 -218 226 -218 L217 -218 Q119 -218 62.5 -178 Q6 -138 6 -71 Q6 -66 6.5 -60.5 Q7 -55 8 -50 Z " />
<glyph glyph-name="parenright" unicode="&#x29;" horiz-adv-x="341" d="M323 540 L249 -62 Q239 -147 187.5 -182.5 Q136 -218 23 -218 L-8 -218 Q-19 -218 -28 -212.5 Q-37 -207 -35 -189 L-26 -118 Q-24 -102 -16 -95 Q-8 -88 8 -88 L19 -88 Q50 -88 66.5 -78.5 Q83 -69 86 -44 L157 534 Q157 536 157.5 538 Q158 540 158 542 Q158 562 143 570 Q128 578 100 578 L89 578 Q77 578 69 584 Q61 590 63 608 L72 679 Q74 695 81.5 701.5 Q89 708 105 708 L114 708 Q212 708 268.5 668 Q325 628 325 561 Q325 556 324.5 550.5 Q324 545 323 540 Z " />
<glyph glyph-name="asterisk" unicode="&#x2a;" horiz-adv-x="507" d="M201 288 L226 405 L113 337 Q100 329 90 331.5 Q80 334 75 348 L56 396 Q50 410 54 419 Q58 428 74 435 L179 477 L85 520 Q70 527 68.5 536 Q67 545 76 559 L105 605 Q114 619 124.5 621.5 Q135 624 147 616 L243 548 L249 678 Q250 694 258 701 Q266 708 282 708 L337 708 Q353 708 358.5 701 Q364 694 361 678 L335 553 L440 617 Q454 626 463 623 Q472 620 478 607 L500 559 Q506 546 502.5 536.5 Q499 527 483 520 L375 476 L471 434 Q486 427 486.5 417.5 Q487 408 479 395 L450 348 Q442 335 431.5 332 Q421 329 408 338 L317 401 L313 288 Q312 272 304.5 265 Q297 258 281 258 L226 258 Q210 258 204 265 Q198 272 201 288 Z " />
<glyph glyph-name="plus" unicode="&#x2b;" horiz-adv-x="510" d="M195 143 L195 273 L65 273 Q49 273 42 279.5 Q35 286 35 302 L35 375 Q35 391 42 397 Q49 403 65 403 L195 403 L195 534 Q195 550 201 557 Q207 564 223 564 L296 564 Q312 564 318.5 557 Q325 550 325 534 L325 403 L456 403 Q472 403 479 397 Q486 391 486 375 L486 302 Q486 286 479 279.5 Q472 273 456 273 L325 273 L325 143 Q325 127 318.5 120 Q312 113 296 113 L223 113 Q207 113 201 120 Q195 127 195 143 Z " />
<glyph glyph-name="comma" unicode="&#x2c;" horiz-adv-x="275" d="M39 42 L48 112 Q50 128 57.5 135 Q65 142 81 142 L187 142 Q203 142 208 135 Q213 128 211 112 L201 33 Q192 -35 145 -72.5 Q98 -110 17 -127 Q1 -130 -6.5 -126.5 Q-14 -123 -18 -107 L-34 -39 Q-38 -24 -31.5 -15 Q-25 -6 -9 -2 Q17 5 27 15.5 Q37 26 39 42 Z " />
<glyph glyph-name="hyphen" unicode="&#x2d;" horiz-adv-x="429" d="M80 353 L347 353 Q363 353 370 347 Q377 341 377 325 L377 252 Q377 236 370 229.5 Q363 223 347 223 L80 223 Q64 223 57 229.5 Q50 236 50 252 L50 325 Q50 341 57 347 Q64 353 80 353 Z " />
<glyph glyph-name="period" unicode="&#x2e;" horiz-adv-x="250" d="M186 112 L176 29 Q174 13 167 6.5 Q160 0 144 0 L38 0 Q22 0 16.5 6.5 Q11 13 13 29 L23 112 Q25 128 32.5 135 Q40 142 56 142 L162 142 Q178 142 183 135 Q188 128 186 112 Z " />
<glyph glyph-name="slash" unicode="&#x2f;" horiz-adv-x="408" d="M434 669 L146 -118 Q140 -134 132 -141 Q124 -148 108 -148 L-7 -148 Q-20 -148 -25.5 -140.5 Q-31 -133 -26 -118 L261 669 Q266 684 274 691.5 Q282 699 298 699 L414 699 Q430 699 434.5 691 Q439 683 434 669 Z " />
<glyph glyph-name="zero" unicode="0" horiz-adv-x="591" d="M35 171 L77 517 Q84 581 141 634.5 Q198 688 336 688 Q458 688 513.5 641 Q569 594 569 535 Q569 531 568.5 523.5 Q568 516 567 509 L525 163 Q518 99 460.5 45.5 Q403 -8 265 -8 Q143 -8 88 38.5 Q33 85 33 145 Q33 149 33.5 157 Q34 165 35 171 Z M363 192 L399 480 Q400 486 400.5 491 Q401 496 401 499 Q401 527 380 540 Q359 553 327 553 Q292 553 267.5 537.5 Q243 522 239 488 L204 207 Q203 202 202 193.5 Q201 185 201 182 Q201 153 222.5 140 Q244 127 277 127 Q312 127 335.5 142.5 Q359 158 363 192 Z " />
<glyph glyph-name="one" unicode="1" horiz-adv-x="522" d="M114 647 L380 688 Q390 689 398 685 Q406 681 404 660 L340 135 L459 135 Q475 135 481.5 129 Q488 123 486 107 L476 29 Q474 13 466 6.5 Q458 0 442 0 L34 0 Q18 0 12 6.5 Q6 13 8 29 L18 107 Q20 123 27.5 129 Q35 135 51 135 L175 135 L224 530 L97 512 Q83 510 75.5 515.5 Q68 521 70 537 L80 615 Q82 631 90.5 638 Q99 645 114 647 Z " />
<glyph glyph-name="two" unicode="2" horiz-adv-x="570" d="M202 135 L481 135 Q499 135 504 127.5 Q509 120 508 107 L498 29 Q496 13 488 6.5 Q480 0 464 0 L50 0 Q33 0 28 7.5 Q23 15 24 29 L44 188 Q51 245 76.5 271 Q102 297 151 316 L342 388 Q357 394 366 404.5 Q375 415 379 440 L386 484 Q387 490 387.5 496 Q388 502 388 504 Q388 531 366.5 543.5 Q345 556 313 556 Q278 556 254 540.5 Q230 525 226 491 L221 455 Q219 439 212.5 432 Q206 425 190 425 L87 425 Q70 425 65 433.5 Q60 442 61 455 L69 517 Q77 581 131.5 634.5 Q186 688 323 688 Q444 688 499 641.5 Q554 595 554 535 Q554 528 553.5 522 Q553 516 552 509 L543 441 Q533 362 500 326 Q467 290 426 275 L249 210 Q222 200 214.5 191 Q207 182 205 160 L202 135 Z " />
<glyph glyph-name="three" unicode="3" horiz-adv-x="570" d="M224 411 L285 411 Q322 411 347 426.5 Q372 442 376 476 L378 493 Q379 500 379 503 Q379 506 379 507 Q379 533 360.5 545.5 Q342 558 309 558 Q272 558 251 542.5 Q230 527 227 493 L226 481 Q225 465 217 458 Q209 451 193 451 L90 451 Q74 451 69.5 459.5 Q65 468 66 481 L70 517 Q77 581 128.5 634.5 Q180 688 324 688 Q448 688 496.5 642.5 Q545 597 545 539 Q545 534 544.5 526 Q544 518 543 511 L535 448 Q531 411 511.5 388 Q492 365 453 351 Q488 335 504 309 Q520 283 520 252 Q520 245 519.5 238.5 Q519 232 518 226 L509 156 Q501 92 448 42 Q395 -8 252 -8 Q126 -8 74 38 Q22 84 22 143 Q22 146 22 151 Q22 156 23 163 L27 199 Q28 215 35.5 222 Q43 229 59 229 L162 229 Q181 229 184.5 220.5 Q188 212 187 199 L186 187 Q185 181 185 177 Q185 173 185 172 Q185 147 207 134.5 Q229 122 263 122 Q300 122 323.5 137.5 Q347 153 351 187 L354 217 Q355 225 355 227.5 Q355 230 355 231 Q355 256 334 268.5 Q313 281 279 281 L208 281 Q192 281 186.5 288.5 Q181 296 182 310 L191 383 Q193 399 200.5 405 Q208 411 224 411 Z " />
<glyph glyph-name="four" unicode="4" horiz-adv-x="572" d="M340 650 L202 306 L353 306 L395 650 Q397 666 404.5 673 Q412 680 428 680 L536 680 Q552 680 557 673 Q562 666 560 650 L484 30 Q482 14 475.5 7 Q469 0 453 0 L345 0 Q329 0 323 7 Q317 14 319 30 L337 171 L42 171 Q26 171 19.5 177.5 Q13 184 15 200 L24 271 Q25 283 28 290 Q31 297 33 303 L175 650 Q181 664 190 672 Q199 680 215 680 L323 680 Q339 680 342.5 672 Q346 664 340 650 Z " />
<glyph glyph-name="five" unicode="5" horiz-adv-x="564" d="M139 680 L520 680 Q533 680 541 674.5 Q549 669 547 652 L537 574 Q535 558 527.5 551.5 Q520 545 504 545 L260 545 L248 447 L297 447 Q420 447 472 401 Q524 355 524 295 Q524 291 523.5 283.5 Q523 276 522 268 L509 162 Q501 98 445.5 44.5 Q390 -9 247 -9 Q120 -9 68 37.5 Q16 84 16 143 Q16 148 16 151.5 Q16 155 17 162 L21 198 Q22 214 29.5 221 Q37 228 53 228 L156 228 Q171 228 176.5 221.5 Q182 215 181 198 L180 188 Q180 187 179.5 183 Q179 179 179 174 Q179 148 201.5 134.5 Q224 121 258 121 Q295 121 319 136.5 Q343 152 347 186 L353 236 Q354 248 354.5 254.5 Q355 261 355 263 Q355 291 335.5 304 Q316 317 280 317 L95 317 Q79 317 74.5 324.5 Q70 332 71 347 L108 650 Q110 666 116.5 673 Q123 680 139 680 Z " />
<glyph glyph-name="six" unicode="6" horiz-adv-x="570" d="M34 163 L77 517 Q84 581 137 634.5 Q190 688 328 688 Q447 688 497.5 642.5 Q548 597 548 540 Q548 535 548 530 Q548 525 547 517 L543 487 Q541 471 534 464 Q527 457 511 457 L408 457 Q392 457 386.5 464.5 Q381 472 383 487 L384 493 Q385 497 385 500.5 Q385 504 385 508 Q385 534 366.5 546 Q348 558 317 558 Q282 558 261.5 542.5 Q241 527 237 493 L225 398 Q247 408 272.5 414 Q298 420 326 420 Q425 420 473.5 373 Q522 326 522 269 Q522 266 521.5 256.5 Q521 247 520 240 L511 163 Q504 99 450 45.5 Q396 -8 258 -8 Q137 -8 85 38.5 Q33 85 33 144 Q33 148 33 152.5 Q33 157 34 163 Z M351 187 L355 225 Q356 231 356 234 Q356 237 356 238 Q356 265 336.5 277.5 Q317 290 285 290 Q251 290 230 276 Q209 262 205 231 L201 195 Q200 188 199.5 183.5 Q199 179 199 175 Q199 147 218 134.5 Q237 122 269 122 Q304 122 325.5 137.5 Q347 153 351 187 Z " />
<glyph glyph-name="seven" unicode="7" horiz-adv-x="541" d="M96 680 L542 680 Q558 680 564.5 674 Q571 668 569 652 L559 576 Q558 569 554.5 560.5 Q551 552 548 547 L250 30 Q243 19 234.5 9.5 Q226 0 210 0 L85 0 Q69 0 64 7 Q59 14 68 30 L367 545 L80 545 Q64 545 57.5 551.5 Q51 558 53 574 L63 652 Q65 668 72.5 674 Q80 680 96 680 Z " />
<glyph glyph-name="eight" unicode="8" horiz-adv-x="562" d="M76 458 L83 517 Q90 581 136.5 634.5 Q183 688 321 688 Q440 688 487.5 642 Q535 596 535 538 Q535 534 535 529.5 Q535 525 534 517 L526 451 Q522 413 501 389 Q480 365 445 349 Q477 334 495 309 Q513 284 513 256 Q513 254 513 249 Q513 244 512 238 L503 163 Q496 99 443 45.5 Q390 -8 252 -8 Q130 -8 78.5 38.5 Q27 85 27 145 Q27 149 27 152.5 Q27 156 28 163 L38 246 Q42 285 66 309 Q90 333 129 349 Q102 364 88 387.5 Q74 411 74 438 Q74 441 74.5 446.5 Q75 452 76 458 Z M369 477 L371 493 Q372 500 372 502 Q372 504 372 507 Q372 534 356 546 Q340 558 311 558 Q278 558 261 542.5 Q244 527 240 493 L238 477 Q237 471 237 468 Q237 465 237 463 Q237 436 251.5 424 Q266 412 295 412 Q328 412 346.5 427.5 Q365 443 369 477 Z M344 187 L347 213 Q348 218 348.5 224.5 Q349 231 349 232 Q349 260 330 271.5 Q311 283 279 283 Q244 283 222.5 268.5 Q201 254 197 220 L193 187 Q192 181 192 178.5 Q192 176 192 173 Q192 147 211 134.5 Q230 122 262 122 Q297 122 318.5 137.5 Q340 153 344 187 Z " />
<glyph glyph-name="nine" unicode="9" horiz-adv-x="571" d="M231 493 L227 455 Q226 449 226 446 Q226 443 226 442 Q226 415 245.5 402.5 Q265 390 297 390 Q331 390 352 404 Q373 418 377 449 L381 485 Q382 492 382 496.5 Q382 501 382 505 Q382 533 363 545.5 Q344 558 313 558 Q278 558 256.5 542.5 Q235 527 231 493 Z M548 517 L505 163 Q498 99 446 45.5 Q394 -8 256 -8 Q137 -8 85.5 37.5 Q34 83 34 140 Q34 145 34 150.5 Q34 156 35 163 L39 193 Q41 209 48 216 Q55 223 71 223 L174 223 Q190 223 195.5 215.5 Q201 208 199 193 L198 187 Q197 182 197 179 Q197 176 197 172 Q197 146 215.5 134 Q234 122 265 122 Q300 122 320.5 137.5 Q341 153 345 187 L357 282 Q335 272 309.5 266 Q284 260 256 260 Q157 260 108.5 307 Q60 354 60 411 Q60 415 60.5 424 Q61 433 62 440 L71 517 Q78 581 131 634.5 Q184 688 322 688 Q443 688 496 641.5 Q549 595 549 536 Q549 532 549 528 Q549 524 548 517 Z " />
<glyph glyph-name="colon" unicode="&#x3a;" horiz-adv-x="265" d="M237 470 L227 387 Q225 371 218 364.5 Q211 358 195 358 L89 358 Q73 358 67.5 364.5 Q62 371 64 387 L74 470 Q76 486 83.5 493 Q91 500 107 500 L213 500 Q229 500 234 493 Q239 486 237 470 Z M193 112 L183 29 Q181 13 174 6.5 Q167 0 151 0 L45 0 Q29 0 23.5 6.5 Q18 13 20 29 L30 112 Q32 128 39.5 135 Q47 142 63 142 L169 142 Q185 142 190 135 Q195 128 193 112 Z " />
<glyph glyph-name="semicolon" unicode="&#x3b;" horiz-adv-x="286" d="M256 470 L246 387 Q244 371 237 364.5 Q230 358 214 358 L108 358 Q92 358 86.5 364.5 Q81 371 83 387 L93 470 Q95 486 102.5 493 Q110 500 126 500 L232 500 Q248 500 253 493 Q258 486 256 470 Z M40 42 L49 112 Q51 128 58.5 135 Q66 142 82 142 L188 142 Q204 142 209 135 Q214 128 212 112 L202 33 Q193 -35 146 -72.5 Q99 -110 18 -127 Q2 -130 -5.5 -126.5 Q-13 -123 -17 -107 L-33 -39 Q-37 -24 -30.5 -15 Q-24 -6 -8 -2 Q18 5 28 15.5 Q38 26 40 42 Z " />
<glyph glyph-name="less" unicode="&#x3c;" horiz-adv-x="508" d="M423 419 L193 338 L423 258 Q436 254 444.5 247.5 Q453 241 453 225 L453 127 Q453 111 445.5 101.5 Q438 92 423 98 L65 249 Q54 253 46 259 Q38 265 38 281 L38 396 Q38 412 46 418 Q54 424 65 428 L423 579 Q438 585 445.5 575.5 Q453 566 453 550 L453 452 Q453 436 444.5 429.5 Q436 423 423 419 Z " />
<glyph glyph-name="equal" unicode="&#x3d;" horiz-adv-x="602" d="M93 490 L510 490 Q526 490 533 484 Q540 478 540 462 L540 389 Q540 373 533 366.5 Q526 360 510 360 L93 360 Q77 360 70 366.5 Q63 373 63 389 L63 462 Q63 478 70 484 Q77 490 93 490 Z M93 274 L510 274 Q526 274 533 268 Q540 262 540 246 L540 173 Q540 157 533 150.5 Q526 144 510 144 L93 144 Q77 144 70 150.5 Q63 157 63 173 L63 246 Q63 262 70 268 Q77 274 93 274 Z " />
<glyph glyph-name="greater" unicode="&#x3e;" horiz-adv-x="509" d="M327 338 L97 419 Q84 423 75.5 429.5 Q67 436 67 452 L67 550 Q67 566 74.5 575.5 Q82 585 97 579 L455 428 Q466 424 474 418 Q482 412 482 396 L482 281 Q482 265 474 259 Q466 253 455 249 L97 98 Q82 92 74.5 101.5 Q67 111 67 127 L67 225 Q67 241 75.5 247.5 Q84 254 97 258 L327 338 Z " />
<glyph glyph-name="question" unicode="&#x3f;" horiz-adv-x="535" d="M143 219 L151 284 Q156 324 176 341.5 Q196 359 223 372 L332 424 Q345 430 356 441 Q367 452 371 477 L373 491 Q374 498 374 501.5 Q374 505 374 508 Q374 532 353 544 Q332 556 300 556 Q265 556 240.5 540.5 Q216 525 212 491 L207 455 Q205 439 198.5 432 Q192 425 176 425 L73 425 Q61 425 53 431 Q45 437 47 455 L55 517 Q63 581 118 634.5 Q173 688 311 688 Q433 688 486.5 638.5 Q540 589 540 532 Q540 528 540 523 Q540 518 539 510 L535 476 Q526 399 489.5 365.5 Q453 332 417 317 L355 291 Q330 281 322 272 Q314 263 311 241 L308 219 Q306 203 299.5 196.5 Q293 190 277 190 L169 190 Q153 190 147.5 197.5 Q142 205 143 219 Z M295 112 L285 29 Q283 13 276 6.5 Q269 0 253 0 L145 0 Q132 0 125 5 Q118 10 120 29 L130 112 Q132 128 139.5 135 Q147 142 163 142 L271 142 Q288 142 292 134 Q296 126 295 112 Z " />
<glyph glyph-name="at" unicode="&#x40;" horiz-adv-x="975" d="M603 -162 L437 -162 Q180 -162 100 -96.5 Q20 -31 20 50 Q20 59 20.5 68.5 Q21 78 22 85 L62 417 Q72 506 154.5 585 Q237 664 529 664 Q786 664 866 598.5 Q946 533 946 452 Q946 443 945.5 434 Q945 425 944 417 L918 206 Q909 132 859 82.5 Q809 33 689 33 Q622 33 583 51 Q544 69 528 94 Q508 78 468.5 55.5 Q429 33 369 33 Q312 33 281.5 61.5 Q251 90 251 141 Q251 151 252.5 164 Q254 177 256 187 L280 304 Q295 378 332.5 418 Q370 458 438 458 Q475 458 511 443 Q547 428 569 412 L572 420 Q578 435 584.5 442.5 Q591 450 607 450 L698 450 Q714 450 719 441.5 Q724 433 721 420 L679 238 Q676 224 673.5 210.5 Q671 197 671 186 Q671 169 679 158 Q687 147 709 147 Q741 147 751.5 171.5 Q762 196 766 228 L788 410 Q789 415 789 420.5 Q789 426 789 430 Q789 481 735 509 Q681 537 518 537 Q340 537 281.5 503 Q223 469 216 409 L178 93 Q177 88 177 82 Q177 76 177 72 Q177 21 231 -7 Q285 -35 448 -35 L619 -35 Q637 -35 641.5 -43.5 Q646 -52 645 -65 L637 -133 Q636 -149 627.5 -155.5 Q619 -162 603 -162 Z M428 272 L418 224 Q417 221 416 214.5 Q415 208 415 204 Q415 193 422.5 185 Q430 177 451 177 Q469 177 485.5 181.5 Q502 186 515 192 L515 193 L537 294 Q527 303 511.5 311 Q496 319 478 319 Q452 319 441.5 303 Q431 287 428 272 Z " />
<glyph glyph-name="A" unicode="A" horiz-adv-x="565" d="M325 256 L318 310 Q311 368 311 419.5 Q311 471 312 520 Q301 471 286 412.5 Q271 354 253 310 L231 256 L325 256 Z M279 680 L387 680 Q403 680 410.5 672.5 Q418 665 420 650 L525 30 Q527 16 521.5 8 Q516 0 500 0 L391 0 Q375 0 368 8 Q361 16 359 30 L345 126 L179 126 L141 30 Q136 16 127.5 8 Q119 0 103 0 L0 0 Q-15 0 -19.5 8 Q-24 16 -18 30 L238 650 Q245 666 254 673 Q263 680 279 680 Z " />
<glyph glyph-name="B" unicode="B" horiz-adv-x="599" d="M282 0 L56 0 Q44 0 36 6 Q28 12 30 30 L106 650 Q108 666 115.5 673 Q123 680 139 680 L322 680 Q447 680 504.5 637.5 Q562 595 562 536 Q562 531 561.5 524.5 Q561 518 560 511 L554 464 Q549 424 529 400 Q509 376 473 357 Q513 341 537.5 309 Q562 277 562 243 Q562 240 561.5 234.5 Q561 229 560 223 L552 158 Q544 94 485 47 Q426 0 282 0 Z M314 550 L259 550 L241 406 L293 406 Q327 406 357.5 419 Q388 432 392 467 L394 486 Q395 492 395 496.5 Q395 501 395 503 Q395 531 371.5 540.5 Q348 550 314 550 Z M314 284 L226 284 L208 130 L293 130 Q330 130 359 142 Q388 154 392 188 L395 213 Q396 218 396 222 Q396 226 396 228 Q396 253 375 268.5 Q354 284 314 284 Z " />
<glyph glyph-name="C" unicode="C" horiz-adv-x="576" d="M533 224 L526 163 Q519 99 463.5 45.5 Q408 -8 264 -8 Q137 -8 85 38.5 Q33 85 33 144 Q33 149 33.5 156 Q34 163 35 171 L77 517 Q84 581 139.5 634.5 Q195 688 339 688 Q465 688 517.5 642 Q570 596 570 537 Q570 532 569.5 525 Q569 518 568 510 L563 471 Q561 455 554.5 448 Q548 441 532 441 L429 441 Q413 441 407 449.5 Q401 458 403 471 L405 482 Q406 486 406.5 492 Q407 498 407 501 Q407 528 385.5 540.5 Q364 553 330 553 Q293 553 268 537.5 Q243 522 239 488 L203 201 Q202 195 201.5 189.5 Q201 184 201 182 Q201 153 223 140 Q245 127 279 127 Q316 127 340.5 142.5 Q365 158 369 192 L373 224 Q375 240 382.5 247 Q390 254 406 254 L509 254 Q526 254 530 245.5 Q534 237 533 224 Z " />
<glyph glyph-name="D" unicode="D" horiz-adv-x="621" d="M290 0 L51 0 Q40 0 33.5 7 Q27 14 29 30 L105 650 Q107 666 114.5 673 Q122 680 138 680 L356 680 Q486 680 543 632.5 Q600 585 600 525 Q600 521 599 509.5 Q598 498 597 493 L558 171 Q551 107 493.5 53.5 Q436 0 290 0 Z M348 545 L258 545 L207 135 L299 135 Q336 135 364 150.5 Q392 166 396 200 L429 466 Q430 470 430.5 479 Q431 488 431 490 Q431 519 408.5 532 Q386 545 348 545 Z " />
<glyph glyph-name="E" unicode="E" horiz-adv-x="506" d="M407 0 L55 0 Q39 0 33 7 Q27 14 29 30 L105 650 Q107 666 114.5 673 Q122 680 138 680 L480 680 Q496 680 502.5 674 Q509 668 507 652 L497 574 Q495 558 487.5 551.5 Q480 545 464 545 L258 545 L242 415 L432 415 Q448 415 454 409 Q460 403 458 387 L449 314 Q447 298 439.5 291.5 Q432 285 416 285 L226 285 L207 135 L423 135 Q439 135 445.5 129 Q452 123 450 107 L440 29 Q438 13 430.5 6.5 Q423 0 407 0 Z " />
<glyph glyph-name="F" unicode="F" horiz-adv-x="514" d="M137 680 L502 680 Q518 680 524.5 674 Q531 668 529 652 L519 574 Q517 558 509.5 551.5 Q502 545 486 545 L257 545 L241 415 L454 415 Q470 415 476 409 Q482 403 480 387 L470 309 Q468 293 460 286.5 Q452 280 436 280 L224 280 L193 30 Q191 14 184.5 7 Q178 0 162 0 L54 0 Q38 0 32 7 Q26 14 28 30 L104 650 Q106 666 113.5 673 Q121 680 137 680 Z " />
<glyph glyph-name="G" unicode="G" horiz-adv-x="588" d="M309 370 L521 370 Q539 370 544 362.5 Q549 355 548 342 L526 163 Q518 99 463 45.5 Q408 -8 264 -8 Q137 -8 85 38.5 Q33 85 33 144 Q33 149 33.5 156.5 Q34 164 35 171 L77 517 Q84 581 139.5 634.5 Q195 688 339 688 Q466 688 518 641.5 Q570 595 570 535 Q570 531 569.5 523.5 Q569 516 568 508 L565 481 Q564 465 556.5 458 Q549 451 533 451 L430 451 Q414 451 408.5 459.5 Q403 468 405 481 L406 488 Q407 493 407 497 Q407 501 407 504 Q407 529 386.5 541 Q366 553 332 553 Q296 553 269.5 537.5 Q243 522 239 488 L203 200 Q202 195 201.5 189.5 Q201 184 201 180 Q201 152 221 139.5 Q241 127 277 127 Q317 127 341 142.5 Q365 158 369 192 L374 235 L292 235 Q276 235 270 242 Q264 249 266 264 L276 342 Q278 358 285.5 364 Q293 370 309 370 Z " />
<glyph glyph-name="H" unicode="H" horiz-adv-x="630" d="M269 650 L240 412 L421 412 L450 650 Q452 666 459.5 673 Q467 680 483 680 L591 680 Q607 680 612 673 Q617 666 615 650 L539 30 Q537 14 530.5 7 Q524 0 508 0 L400 0 Q384 0 378 7.5 Q372 15 374 30 L405 277 L224 277 L193 30 Q191 15 184.5 7.5 Q178 0 162 0 L54 0 Q38 0 32 7 Q26 14 28 30 L104 650 Q106 666 113.5 673 Q121 680 137 680 L245 680 Q261 680 266 673 Q271 666 269 650 Z " />
<glyph glyph-name="I" unicode="I" horiz-adv-x="285" d="M270 650 L194 30 Q192 14 185.5 7 Q179 0 163 0 L55 0 Q39 0 33 7 Q27 14 29 30 L105 650 Q107 666 114.5 673 Q122 680 138 680 L246 680 Q262 680 267 673 Q272 666 270 650 Z " />
<glyph glyph-name="J" unicode="J" horiz-adv-x="525" d="M164 229 L160 197 Q159 190 158.5 185 Q158 180 158 177 Q158 152 174.5 139.5 Q191 127 222 127 Q254 127 270 142.5 Q286 158 290 192 L347 650 Q349 666 356 673 Q363 680 379 680 L487 680 Q503 680 508 672 Q513 664 512 650 L452 163 Q444 99 396 45.5 Q348 -8 213 -8 Q94 -8 43.5 38.5 Q-7 85 -7 144 Q-7 149 -6.5 157.5 Q-6 166 -5 171 L2 229 Q4 245 11.5 252 Q19 259 35 259 L140 259 Q156 259 160.5 251 Q165 243 164 229 Z " />
<glyph glyph-name="K" unicode="K" horiz-adv-x="594" d="M382 346 L558 30 Q564 19 560 9.5 Q556 0 540 0 L403 0 Q387 0 378.5 9.5 Q370 19 364 30 L236 275 L224 275 L194 30 Q192 14 185.5 7 Q179 0 163 0 L55 0 Q39 0 33 7 Q27 14 29 30 L105 650 Q107 666 114.5 673 Q122 680 138 680 L246 680 Q262 680 267 673 Q272 666 270 650 L239 395 L246 395 L430 650 Q439 663 452 671.5 Q465 680 481 680 L599 680 Q615 680 616.5 671.5 Q618 663 609 650 L382 346 Z " />
<glyph glyph-name="L" unicode="L" horiz-adv-x="458" d="M270 650 L207 135 L403 135 Q419 135 425.5 129 Q432 123 430 107 L420 29 Q418 13 410.5 6.5 Q403 0 387 0 L51 0 Q38 0 33 7.5 Q28 15 29 30 L105 650 Q107 666 114.5 673 Q122 680 138 680 L246 680 Q262 680 267 673 Q272 666 270 650 Z " />
<glyph glyph-name="M" unicode="M" horiz-adv-x="755" d="M740 650 L664 30 Q662 14 655.5 7 Q649 0 633 0 L530 0 Q514 0 508 7 Q502 14 504 30 L543 348 Q530 314 518.5 286 Q507 258 498 242 L441 133 Q434 118 423.5 110.5 Q413 103 398 103 L316 103 Q298 103 289.5 111.5 Q281 120 277 133 L238 260 Q234 275 230 297 Q226 319 222 345 L183 30 Q181 14 174.5 7 Q168 0 152 0 L54 0 Q38 0 32 7 Q26 14 28 30 L104 650 Q106 666 113.5 673 Q121 680 137 680 L234 680 Q245 680 250.5 675.5 Q256 671 258 664 L356 358 Q362 339 367 320 Q372 301 376 279 Q384 300 393.5 319 Q403 338 413 356 L582 666 Q586 673 593 676.5 Q600 680 611 680 L716 680 Q732 680 737 673 Q742 666 740 650 Z " />
<glyph glyph-name="N" unicode="N" horiz-adv-x="627" d="M612 650 L536 30 Q534 14 527.5 7 Q521 0 505 0 L411 0 Q399 0 393 3.5 Q387 7 384 14 L257 280 Q247 301 238 326.5 Q229 352 225 370 L183 30 Q181 14 174.5 7 Q168 0 152 0 L54 0 Q38 0 32 7 Q26 14 28 30 L104 650 Q106 666 113.5 673 Q121 680 137 680 L231 680 Q241 680 247 677 Q253 674 256 668 L390 385 Q398 368 405 347 Q412 326 416 310 L457 650 Q459 666 466.5 673 Q474 680 490 680 L588 680 Q604 680 609 673 Q614 666 612 650 Z " />
<glyph glyph-name="O" unicode="O" horiz-adv-x="611" d="M35 171 L77 517 Q84 581 144 634.5 Q204 688 348 688 Q475 688 532 641 Q589 594 589 535 Q589 531 588.5 523.5 Q588 516 587 509 L545 163 Q538 99 477.5 45.5 Q417 -8 273 -8 Q146 -8 89.5 38.5 Q33 85 33 145 Q33 149 33.5 156.5 Q34 164 35 171 Z M383 192 L419 479 Q420 486 420.5 491 Q421 496 421 498 Q421 527 397 540 Q373 553 336 553 Q303 553 273 537.5 Q243 522 239 488 L203 201 Q202 195 201.5 189.5 Q201 184 201 182 Q201 153 225.5 140 Q250 127 287 127 Q324 127 351.5 142.5 Q379 158 383 192 Z " />
<glyph glyph-name="P" unicode="P" horiz-adv-x="585" d="M303 231 L218 231 L193 30 Q191 14 184.5 7 Q178 0 162 0 L54 0 Q38 0 32.5 7.5 Q27 15 28 30 L104 650 Q106 666 113.5 673 Q121 680 137 680 L347 680 Q475 680 530 631 Q585 582 585 519 Q585 512 584.5 506 Q584 500 583 488 L573 396 Q565 324 506.5 277.5 Q448 231 303 231 Z M340 545 L257 545 L235 366 L315 366 Q354 366 382 378.5 Q410 391 414 425 L419 466 Q420 473 420 477.5 Q420 482 420 484 Q420 513 402.5 529 Q385 545 340 545 Z " />
<glyph glyph-name="Q" unicode="Q" horiz-adv-x="611" d="M413 -176 Q403 -186 391.5 -187 Q380 -188 371 -178 L203 -3 Q113 10 73 52 Q33 94 33 145 Q33 149 33.5 156.5 Q34 164 35 171 L77 517 Q84 581 144 634.5 Q204 688 348 688 Q475 688 532 641 Q589 594 589 535 Q589 531 588.5 523.5 Q588 516 587 509 L545 163 Q539 114 504.5 70 Q470 26 392 6 L475 -77 Q485 -87 484.5 -97.5 Q484 -108 474 -118 L413 -176 Z M383 192 L419 479 Q420 486 420.5 491 Q421 496 421 498 Q421 527 397 540 Q373 553 336 553 Q303 553 273 537.5 Q243 522 239 488 L203 201 Q202 195 201.5 189.5 Q201 184 201 182 Q201 153 225.5 140 Q250 127 287 127 Q324 127 351.5 142.5 Q379 158 383 192 Z " />
<glyph glyph-name="R" unicode="R" horiz-adv-x="598" d="M342 545 L259 545 L239 386 L319 386 Q358 386 385.5 399.5 Q413 413 418 447 L421 468 Q422 474 422 478.5 Q422 483 422 485 Q422 514 402 529.5 Q382 545 342 545 Z M164 0 L56 0 Q43 0 35.5 6 Q28 12 30 30 L106 650 Q108 666 115.5 673 Q123 680 139 680 L346 680 Q474 680 531 631.5 Q588 583 588 519 Q588 515 587.5 508 Q587 501 586 495 L577 417 Q572 373 544 334 Q516 295 456 273 L523 30 Q527 16 517 8 Q507 0 492 0 L378 0 Q365 0 359 9 Q353 18 350 30 L290 251 L222 251 L195 30 Q194 14 187 7 Q180 0 164 0 Z " />
<glyph glyph-name="S" unicode="S" horiz-adv-x="574" d="M391 480 L392 495 L392 501 Q392 532 372.5 545 Q353 558 320 558 Q286 558 262.5 543.5 Q239 529 235 495 L234 485 L234 479 Q234 460 244 452.5 Q254 445 261 442 L422 385 Q471 368 500 332 Q529 296 529 250 Q529 246 528.5 239.5 Q528 233 527 225 L520 163 Q513 99 455.5 45.5 Q398 -8 256 -8 Q128 -8 73.5 39 Q19 86 19 146 Q19 150 19.5 155.5 Q20 161 21 171 L28 230 Q29 246 37 253 Q45 260 61 260 L165 260 Q181 260 186 252 Q191 244 189 230 L184 193 Q183 188 183 183.5 Q183 179 183 175 Q183 146 206.5 134 Q230 122 266 122 Q303 122 329 136.5 Q355 151 360 185 L363 205 L363 210 Q363 235 336.5 248.5 Q310 262 285 272 L148 326 Q118 338 94 368.5 Q70 399 70 442 Q70 446 70.5 453 Q71 460 72 467 L78 517 Q85 581 137.5 634.5 Q190 688 330 688 Q455 688 506 641 Q557 594 557 537 Q557 533 557 528 Q557 523 556 517 L552 480 Q551 464 543 457 Q535 450 519 450 L415 450 Q401 450 395.5 456.5 Q390 463 391 480 Z " />
<glyph glyph-name="T" unicode="T" horiz-adv-x="498" d="M87 680 L508 680 Q524 680 530.5 674 Q537 668 535 652 L525 574 Q523 558 515.5 551.5 Q508 545 492 545 L364 545 L300 30 Q298 14 291.5 7 Q285 0 269 0 L161 0 Q145 0 139 7 Q133 14 135 30 L199 545 L71 545 Q55 545 48.5 551.5 Q42 558 44 574 L54 652 Q56 668 63.5 674 Q71 680 87 680 Z " />
<glyph glyph-name="U" unicode="U" horiz-adv-x="624" d="M265 650 L211 216 Q210 204 209 197 Q208 190 208 183 Q208 153 233 140 Q258 127 292 127 Q329 127 357 142.5 Q385 158 389 192 L446 650 Q448 666 455 673 Q462 680 478 680 L586 680 Q597 680 605 673.5 Q613 667 611 650 L551 163 Q543 99 485.5 45.5 Q428 -8 282 -8 Q157 -8 98 39.5 Q39 87 39 147 Q39 152 40 161.5 Q41 171 42 178 L100 650 Q102 666 109 673 Q116 680 132 680 L240 680 Q251 680 259 673.5 Q267 667 265 650 Z " />
<glyph glyph-name="V" unicode="V" horiz-adv-x="565" d="M194 0 Q178 0 170 7.5 Q162 15 160 30 L55 650 Q53 664 59 672 Q65 680 81 680 L197 680 Q213 680 219.5 672 Q226 664 228 650 L269 370 Q274 335 274.5 292 Q275 249 274 207 Q284 248 296.5 292 Q309 336 322 370 L432 650 Q438 664 446.5 672 Q455 680 471 680 L581 680 Q597 680 601 672 Q605 664 599 650 L342 30 Q336 15 327 7.5 Q318 0 302 0 L194 0 Z " />
<glyph glyph-name="W" unicode="W" horiz-adv-x="861" d="M567 650 L601 371 Q603 350 604 321 Q605 292 605 261 Q612 292 620 320 Q628 348 636 370 L740 650 Q745 664 754 672 Q763 680 779 680 L874 680 Q890 680 893.5 672 Q897 664 892 650 L660 30 Q654 14 645 7 Q636 0 620 0 L515 0 Q502 0 494 8 Q486 16 485 30 L449 318 Q447 335 446.5 361 Q446 387 447 421 Q440 387 433.5 361.5 Q427 336 420 317 L312 30 Q306 14 297 7 Q288 0 272 0 L167 0 Q154 0 146 8 Q138 16 137 30 L57 650 Q56 664 61.5 672 Q67 680 83 680 L192 680 Q208 680 215 672 Q222 664 223 650 L257 370 Q259 351 260 328 Q261 305 262 280 Q269 304 276.5 327 Q284 350 291 370 L396 650 Q401 664 410 672 Q419 680 435 680 L536 680 Q552 680 559 672 Q566 664 567 650 Z " />
<glyph glyph-name="X" unicode="X" horiz-adv-x="570" d="M380 351 L525 30 Q530 19 526.5 9.5 Q523 0 507 0 L385 0 Q369 0 360 9 Q351 18 346 30 L265 207 L155 30 Q148 18 137 9 Q126 0 110 0 L-8 0 Q-22 0 -23 11.5 Q-24 23 -16 35 L200 354 L69 647 Q63 660 66 670 Q69 680 85 680 L207 680 Q223 680 231.5 671.5 Q240 663 246 650 L317 491 L422 650 Q431 663 442 671.5 Q453 680 469 680 L585 680 Q601 680 602.5 671.5 Q604 663 595 650 L380 351 Z " />
<glyph glyph-name="Y" unicode="Y" horiz-adv-x="553" d="M233 650 L280 451 Q283 438 285.5 424 Q288 410 290 391 Q297 410 303.5 424.5 Q310 439 317 451 L425 650 Q432 663 440 671.5 Q448 680 464 680 L572 680 Q588 680 593 672 Q598 664 590 650 L358 252 L330 30 Q328 14 321.5 7 Q315 0 299 0 L191 0 Q175 0 169 7 Q163 14 165 30 L190 232 L56 650 Q52 663 58.5 671.5 Q65 680 81 680 L201 680 Q217 680 223.5 671.5 Q230 663 233 650 Z " />
<glyph glyph-name="Z" unicode="Z" horiz-adv-x="502" d="M120 680 L479 680 Q495 680 501.5 674 Q508 668 506 652 L496 574 Q495 565 490.5 557.5 Q486 550 483 546 L207 135 L430 135 Q446 135 452.5 129 Q459 123 457 107 L447 29 Q445 13 437.5 6.5 Q430 0 414 0 L20 0 Q4 0 -2.5 6.5 Q-9 13 -7 29 L3 107 Q4 114 7 120.5 Q10 127 15 134 L292 545 L104 545 Q88 545 81.5 551.5 Q75 558 77 574 L87 652 Q89 668 96.5 674 Q104 680 120 680 Z " />
<glyph glyph-name="bracketleft" unicode="&#x5b;" horiz-adv-x="383" d="M-3 -181 L102 669 Q104 685 111 692 Q118 699 134 699 L382 699 Q398 699 404.5 693 Q411 687 409 671 L399 593 Q397 577 389.5 570.5 Q382 564 366 564 L254 564 L175 -76 L287 -76 Q303 -76 309.5 -82.5 Q316 -89 314 -105 L304 -183 Q302 -199 294.5 -205 Q287 -211 271 -211 L23 -211 Q7 -211 1 -204 Q-5 -197 -3 -181 Z " />
<glyph glyph-name="backslash" unicode="&#x5c;" horiz-adv-x="401" d="M163 -118 L69 669 Q68 683 73.5 691 Q79 699 95 699 L205 699 Q221 699 228 691.5 Q235 684 236 669 L330 -118 Q331 -133 323.5 -140.5 Q316 -148 303 -148 L193 -148 Q177 -148 171 -141 Q165 -134 163 -118 Z " />
<glyph glyph-name="bracketright" unicode="&#x5d;" horiz-adv-x="383" d="M376 669 L271 -181 Q269 -197 262 -204 Q255 -211 239 -211 L-9 -211 Q-25 -211 -31.5 -205 Q-38 -199 -36 -183 L-26 -105 Q-24 -89 -16.5 -82.5 Q-9 -76 7 -76 L119 -76 L198 564 L86 564 Q70 564 63.5 570.5 Q57 577 59 593 L69 671 Q71 687 78.5 693 Q86 699 102 699 L350 699 Q366 699 372 692 Q378 685 376 669 Z " />
<glyph glyph-name="asciicircum" unicode="&#x5e;" horiz-adv-x="541" d="M357 295 L276 525 L196 295 Q192 282 185.5 273.5 Q179 265 163 265 L65 265 Q49 265 39.5 272.5 Q30 280 36 295 L187 653 Q191 664 197 672 Q203 680 219 680 L334 680 Q350 680 356 672 Q362 664 366 653 L517 295 Q523 280 513.5 272.5 Q504 265 488 265 L390 265 Q374 265 367.5 273.5 Q361 282 357 295 Z " />
<glyph glyph-name="underscore" unicode="&#x5f;" horiz-adv-x="436" d="M-18 -69 L349 -69 Q365 -69 372 -75 Q379 -81 379 -97 L379 -170 Q379 -186 372 -192.5 Q365 -199 349 -199 L-18 -199 Q-34 -199 -41 -192.5 Q-48 -186 -48 -170 L-48 -97 Q-48 -81 -41 -75 Q-34 -69 -18 -69 Z " />
<glyph glyph-name="grave" unicode="&#x60;" horiz-adv-x="306" d="M187 577 L130 678 Q123 691 128 699.5 Q133 708 149 708 L254 708 Q270 708 278.5 699.5 Q287 691 291 678 L320 586 Q325 570 319 563.5 Q313 557 300 557 L223 557 Q207 557 199 563.5 Q191 570 187 577 Z " />
<glyph glyph-name="a" unicode="a" horiz-adv-x="548" d="M207 329 L187 171 Q186 164 186 161.5 Q186 159 186 157 Q186 146 192.5 137.5 Q199 129 221 129 Q249 129 278.5 144 Q308 159 325 170 L345 330 Q331 341 305 356 Q279 371 251 371 Q224 371 216.5 357.5 Q209 344 207 329 Z M314 47 Q291 31 254.5 11.5 Q218 -8 158 -8 Q93 -8 57.5 26 Q22 60 22 119 Q22 125 22.5 132.5 Q23 140 24 146 L50 354 Q59 425 96 466.5 Q133 508 212 508 Q266 508 303.5 490 Q341 472 360 456 L364 470 Q368 485 374 492.5 Q380 500 396 500 L497 500 Q508 500 516 493.5 Q524 487 522 470 L468 30 Q466 14 458.5 7 Q451 0 435 0 L339 0 Q326 0 320 7 Q314 14 314 30 L314 47 Z " />
<glyph glyph-name="b" unicode="b" horiz-adv-x="548" d="M138 0 L42 0 Q29 0 22.5 8.5 Q16 17 17 30 L95 669 Q97 685 104.5 692 Q112 699 128 699 L231 699 Q248 699 252 690.5 Q256 682 255 669 L229 456 Q252 472 288.5 490 Q325 508 381 508 Q445 508 481 474 Q517 440 517 380 Q517 374 516.5 367.5 Q516 361 515 354 L489 146 Q480 75 440.5 33.5 Q401 -8 324 -8 Q265 -8 229.5 11.5 Q194 31 175 47 L171 30 Q167 14 160.5 7 Q154 0 138 0 Z M331 171 L352 329 Q353 335 353 338 Q353 341 353 342 Q353 354 346.5 362.5 Q340 371 318 371 Q289 371 259.5 356 Q230 341 214 330 L194 170 Q207 159 233 144 Q259 129 288 129 Q316 129 322.5 142.5 Q329 156 331 171 Z " />
<glyph glyph-name="c" unicode="c" horiz-adv-x="500" d="M455 148 Q449 77 396 34.5 Q343 -8 224 -8 Q123 -8 72 29 Q21 66 21 128 Q21 133 21 137 Q21 141 22 148 L47 352 Q56 423 109.5 465.5 Q163 508 279 508 Q383 508 431.5 469.5 Q480 431 480 371 Q480 367 480 363.5 Q480 360 479 350 L478 337 Q477 321 469 314.5 Q461 308 445 308 L351 308 Q337 308 331.5 315 Q326 322 326 335 L326 349 Q326 368 312.5 375.5 Q299 383 271 383 Q240 383 224.5 374 Q209 365 206 340 L186 178 Q185 173 184 164.5 Q183 156 183 152 Q183 133 197 125 Q211 117 239 117 Q270 117 286 126.5 Q302 136 304 161 L305 173 Q306 189 313.5 195.5 Q321 202 337 202 L432 202 Q449 202 453.5 193.5 Q458 185 457 173 L455 148 Z " />
<glyph glyph-name="d" unicode="d" horiz-adv-x="548" d="M207 329 L188 178 Q187 172 186.5 166.5 Q186 161 186 157 Q186 146 192.5 137.5 Q199 129 221 129 Q249 129 278.5 144 Q308 159 325 170 L345 330 Q331 341 305 356 Q279 371 251 371 Q223 371 216 357.5 Q209 344 207 329 Z M314 47 Q291 31 255.5 11.5 Q220 -8 158 -8 Q92 -8 57 26 Q22 60 22 118 Q22 125 22.5 132.5 Q23 140 24 146 L50 354 Q59 425 96 466.5 Q133 508 212 508 Q263 508 302 490 Q341 472 360 456 L386 669 Q388 685 395 692 Q402 699 418 699 L521 699 Q537 699 542 691 Q547 683 546 669 L468 30 Q466 14 458.5 7 Q451 0 435 0 L339 0 Q323 0 318.5 7 Q314 14 314 30 L314 47 Z " />
<glyph glyph-name="e" unicode="e" horiz-adv-x="504" d="M473 352 L460 241 Q459 227 451 220.5 Q443 214 429 214 L186 214 L181 171 Q180 161 179 154 Q178 147 178 146 Q178 127 192 118.5 Q206 110 234 110 Q265 110 280.5 120.5 Q296 131 299 149 L300 155 Q302 170 309.5 177 Q317 184 333 184 L419 184 Q435 184 440.5 176.5 Q446 169 444 155 L443 148 Q433 77 387.5 34.5 Q342 -8 224 -8 Q123 -8 72 29 Q21 66 21 128 Q21 133 21 137 Q21 141 22 148 L47 352 Q56 423 109 465.5 Q162 508 277 508 Q375 508 424.5 471.5 Q474 435 474 373 Q474 368 474 363.5 Q474 359 473 352 Z M203 345 L199 316 L320 316 L323 337 Q324 343 324 347.5 Q324 352 324 353 Q324 371 310 380.5 Q296 390 268 390 Q237 390 221.5 378.5 Q206 367 203 345 Z " />
<glyph glyph-name="f" unicode="f" horiz-adv-x="364" d="M118 498 L124 547 Q133 618 191 660.5 Q249 703 365 703 L381 703 Q397 703 403.5 696.5 Q410 690 408 674 L399 603 Q397 587 389 580 Q381 573 365 573 L354 573 Q323 573 304 563.5 Q285 554 282 529 L278 498 L349 498 Q365 498 371.5 492 Q378 486 376 470 L367 402 Q365 386 357.5 379.5 Q350 373 334 373 L263 373 L196 -169 Q194 -185 187.5 -192 Q181 -199 165 -199 L62 -199 Q46 -199 40 -192 Q34 -185 36 -169 L103 373 L53 373 Q37 373 31 379.5 Q25 386 27 402 L35 463 Q37 479 44 484.5 Q51 490 67 492 L117 498 L118 498 Z " />
<glyph glyph-name="g" unicode="g" horiz-adv-x="548" d="M158 -8 Q93 -8 57.5 26 Q22 60 22 119 Q22 126 22.5 132.5 Q23 139 24 146 L50 354 Q59 425 95.5 466.5 Q132 508 211 508 Q270 508 308 488 Q346 468 365 452 L369 470 Q373 486 379 493 Q385 500 401 500 L496 500 Q512 500 517.5 491.5 Q523 483 522 470 L459 -43 Q450 -114 392.5 -156.5 Q335 -199 213 -199 L70 -199 Q56 -199 49 -191.5 Q42 -184 43 -170 L52 -99 Q54 -83 62 -76 Q70 -69 86 -69 L229 -69 Q262 -69 280 -59.5 Q298 -50 301 -25 L309 43 Q286 27 251.5 9.5 Q217 -8 158 -8 Z M206 329 L188 182 Q187 175 186.5 168 Q186 161 186 157 Q186 146 192.5 137.5 Q199 129 221 129 Q249 129 278.5 144 Q308 159 325 170 L345 330 Q330 341 304.5 356 Q279 371 251 371 Q223 371 215 357.5 Q207 344 206 329 Z " />
<glyph glyph-name="h" unicode="h" horiz-adv-x="551" d="M255 669 L229 458 Q252 474 289.5 491 Q327 508 381 508 Q440 508 478.5 474 Q517 440 517 386 Q517 382 517 379 Q517 376 516 369 L475 30 Q473 14 465.5 7 Q458 0 442 0 L341 0 Q328 0 321 7.5 Q314 15 315 30 L351 328 Q352 335 352 337.5 Q352 340 352 343 Q352 358 344.5 364.5 Q337 371 318 371 Q289 371 259.5 356.5 Q230 342 214 331 L177 30 Q175 14 168 7 Q161 0 145 0 L42 0 Q29 0 22.5 7.5 Q16 15 17 30 L95 669 Q97 685 104.5 692 Q112 699 128 699 L231 699 Q247 699 251.5 691 Q256 683 255 669 Z " />
<glyph glyph-name="i" unicode="i" horiz-adv-x="256" d="M255 669 L245 586 Q243 570 236 563.5 Q229 557 213 557 L110 557 Q94 557 88.5 563.5 Q83 570 85 586 L95 669 Q97 685 104.5 692 Q112 699 128 699 L231 699 Q247 699 252 692 Q257 685 255 669 Z M231 470 L177 30 Q175 14 168 7 Q161 0 145 0 L42 0 Q26 0 20.5 7 Q15 14 17 30 L71 470 Q73 486 80 493 Q87 500 103 500 L206 500 Q222 500 227.5 493 Q233 486 231 470 Z " />
<glyph glyph-name="j" unicode="j" horiz-adv-x="256" d="M255 669 L245 586 Q243 570 236.5 563.5 Q230 557 214 557 L111 557 Q95 557 89 563.5 Q83 570 85 586 L95 669 Q97 685 104.5 692 Q112 699 128 699 L231 699 Q247 699 252 692 Q257 685 255 669 Z M231 470 L168 -43 Q158 -119 101 -159 Q44 -199 -72 -199 L-88 -199 Q-104 -199 -110.5 -192.5 Q-117 -186 -115 -170 L-106 -99 Q-104 -83 -96 -76 Q-88 -69 -72 -69 L-61 -69 Q-31 -69 -12 -59.5 Q7 -50 10 -25 L71 470 Q73 486 80 493 Q87 500 103 500 L206 500 Q222 500 227.5 493 Q233 486 231 470 Z " />
<glyph glyph-name="k" unicode="k" horiz-adv-x="519" d="M145 0 L42 0 Q26 0 20.5 7 Q15 14 17 30 L95 669 Q97 685 104.5 692 Q112 699 128 699 L231 699 Q247 699 252 692 Q257 685 255 669 L215 339 L228 339 L341 470 Q351 481 363 490.5 Q375 500 391 500 L511 500 Q527 500 529.5 490.5 Q532 481 522 470 L352 285 L477 30 Q482 19 478 9.5 Q474 0 458 0 L340 0 Q324 0 315.5 9.5 Q307 19 302 30 L216 219 L200 219 L177 30 Q175 14 168 7 Q161 0 145 0 Z " />
<glyph glyph-name="l" unicode="l" horiz-adv-x="256" d="M255 669 L177 30 Q175 14 168 7 Q161 0 145 0 L42 0 Q26 0 20.5 7 Q15 14 17 30 L95 669 Q97 685 104.5 692 Q112 699 128 699 L231 699 Q247 699 252 692 Q257 685 255 669 Z " />
<glyph glyph-name="m" unicode="m" horiz-adv-x="837" d="M17 30 L71 471 Q73 487 80 493.5 Q87 500 103 500 L199 500 Q215 500 219.5 493.5 Q224 487 224 471 L224 454 Q246 471 280 489.5 Q314 508 375 508 Q417 508 452 490 Q487 472 500 442 Q520 457 556.5 482.5 Q593 508 667 508 Q725 508 764 474.5 Q803 441 803 389 Q803 385 803 380.5 Q803 376 802 369 L761 30 Q759 14 751.5 7 Q744 0 728 0 L627 0 Q614 0 607 7.5 Q600 15 601 30 L636 320 Q637 327 637.5 333 Q638 339 638 343 Q638 358 629.5 364.5 Q621 371 604 371 Q575 371 547.5 357 Q520 343 505 331 L469 30 Q467 14 459.5 7 Q452 0 436 0 L335 0 Q322 0 315 7.5 Q308 15 309 30 L345 328 Q346 335 346 338 Q346 341 346 343 Q346 358 337.5 364.5 Q329 371 312 371 Q283 371 256 357 Q229 343 214 331 L177 30 Q175 14 168 7 Q161 0 145 0 L42 0 Q29 0 22.5 7.5 Q16 15 17 30 Z " />
<glyph glyph-name="n" unicode="n" horiz-adv-x="551" d="M103 500 L199 500 Q215 500 220 493.5 Q225 487 225 471 L225 454 Q247 471 285.5 489.5 Q324 508 381 508 Q440 508 478.5 474 Q517 440 517 386 Q517 382 516.5 374.5 Q516 367 515 360 L475 30 Q473 14 465.5 7 Q458 0 442 0 L341 0 Q328 0 320.5 6 Q313 12 315 30 L350 320 Q351 326 351.5 333 Q352 340 352 343 Q352 358 344.5 364.5 Q337 371 318 371 Q289 371 259.5 356.5 Q230 342 214 331 L177 30 Q175 14 168 7 Q161 0 145 0 L42 0 Q29 0 22 6.5 Q15 13 17 30 L71 471 Q73 487 80 493.5 Q87 500 103 500 Z " />
<glyph glyph-name="o" unicode="o" horiz-adv-x="537" d="M22 148 L47 352 Q56 423 115.5 465.5 Q175 508 291 508 Q392 508 449 471 Q506 434 506 371 Q506 367 506 363 Q506 359 505 352 L480 148 Q471 77 412 34.5 Q353 -8 237 -8 Q135 -8 78 30 Q21 68 21 131 Q21 135 21 138.5 Q21 142 22 148 Z M322 162 L339 300 Q342 323 343 333.5 Q344 344 344 345 Q344 368 324.5 375.5 Q305 383 280 383 Q249 383 229 373.5 Q209 364 206 339 L185 170 Q184 166 184 161.5 Q184 157 184 154 Q184 132 202 124.5 Q220 117 248 117 Q279 117 299 127 Q319 137 322 162 Z " />
<glyph glyph-name="p" unicode="p" horiz-adv-x="548" d="M333 171 L351 322 Q352 329 352.5 334.5 Q353 340 353 344 Q353 355 346.5 363 Q340 371 319 371 Q290 371 260.5 356 Q231 341 215 330 L195 170 Q208 159 234 144 Q260 129 289 129 Q317 129 324.5 142.5 Q332 156 333 171 Z M104 500 L200 500 Q216 500 221 493 Q226 486 226 470 L226 453 Q248 469 286 488.5 Q324 508 381 508 Q446 508 482 474 Q518 440 518 380 Q518 374 517.5 367.5 Q517 361 516 354 L490 146 Q481 75 444 33.5 Q407 -8 328 -8 Q276 -8 237 9.5 Q198 27 179 43 L153 -169 Q151 -185 144.5 -192 Q138 -199 122 -199 L19 -199 Q6 -199 -1.5 -193 Q-9 -187 -7 -169 L72 470 Q74 486 81 493 Q88 500 104 500 Z " />
<glyph glyph-name="q" unicode="q" horiz-adv-x="548" d="M400 500 L496 500 Q512 500 517.5 491.5 Q523 483 522 470 L443 -169 Q441 -185 434 -192 Q427 -199 411 -199 L308 -199 Q292 -199 287 -190.5 Q282 -182 283 -169 L309 43 Q286 27 250.5 9.5 Q215 -8 158 -8 Q93 -8 57.5 26 Q22 60 22 119 Q22 126 22.5 132.5 Q23 139 24 146 L50 354 Q59 425 95.5 466.5 Q132 508 211 508 Q268 508 306.5 488.5 Q345 469 364 453 L368 470 Q372 486 378 493 Q384 500 400 500 Z M206 329 L188 181 Q187 174 186.5 168 Q186 162 186 157 Q186 146 192.5 137.5 Q199 129 221 129 Q249 129 278.5 144 Q308 159 325 170 L345 330 Q330 341 304.5 356 Q279 371 251 371 Q223 371 215 357.5 Q207 344 206 329 Z " />
<glyph glyph-name="r" unicode="r" horiz-adv-x="382" d="M370 508 Q386 508 392.5 501.5 Q399 495 397 479 L387 401 Q385 385 377 379 Q369 373 353 371 Q302 365 265.5 347.5 Q229 330 212 316 L177 30 Q175 14 168 7 Q161 0 145 0 L42 0 Q26 0 20.5 7 Q15 14 17 30 L71 471 Q73 487 80 493.5 Q87 500 103 500 L199 500 Q215 500 220.5 493.5 Q226 487 225 471 L224 443 Q245 464 279 486 Q313 508 370 508 Z " />
<glyph glyph-name="s" unicode="s" horiz-adv-x="479" d="M302 352 L303 360 Q304 367 304 369 Q304 371 304 372 Q304 388 288 393 Q272 398 253 398 Q232 398 214.5 393 Q197 388 195 368 L194 359 L194 355 Q194 345 198.5 339 Q203 333 212 330 L346 284 Q389 269 411.5 243.5 Q434 218 434 187 Q434 186 434 183.5 Q434 181 433 176 L426 121 Q420 72 371 32 Q322 -8 208 -8 Q101 -8 53.5 29 Q6 66 6 111 Q6 113 6 117 Q6 121 7 128 L9 149 Q10 163 17.5 169.5 Q25 176 40 176 L132 176 Q146 176 151 170 Q156 164 155 149 L154 135 L154 132 Q154 114 172.5 108.5 Q191 103 213 103 Q235 103 257 109 Q279 115 281 135 L282 144 L282 146 Q282 154 273.5 161 Q265 168 247 175 L112 225 Q83 235 65 261.5 Q47 288 47 320 Q47 323 47 327 Q47 331 48 340 L51 372 Q55 421 100 464.5 Q145 508 260 508 Q361 508 406 467.5 Q451 427 451 381 Q451 379 451 376 Q451 373 450 366 L448 352 Q446 337 439 330.5 Q432 324 417 324 L326 324 Q312 324 306.5 331 Q301 338 302 352 Z " />
<glyph glyph-name="t" unicode="t" horiz-adv-x="378" d="M254 373 L231 182 Q230 176 230 172 Q230 168 230 165 Q230 146 243.5 138 Q257 130 288 130 L312 130 Q328 130 334 121.5 Q340 113 339 100 L330 29 Q328 13 320.5 6.5 Q313 0 297 0 L247 0 Q149 0 107.5 31 Q66 62 66 124 Q66 131 66.5 140 Q67 149 68 156 L94 373 L50 373 Q34 373 29 380.5 Q24 388 25 402 L32 463 Q33 479 41 484.5 Q49 490 65 492 L109 498 L110 498 L121 589 Q123 605 130.5 612 Q138 619 154 619 L257 619 Q273 619 277.5 611 Q282 603 281 589 L270 498 L351 498 Q367 498 372.5 490.5 Q378 483 377 470 L369 402 Q368 386 359.5 379.5 Q351 373 335 373 L254 373 Z " />
<glyph glyph-name="u" unicode="u" horiz-adv-x="545" d="M311 29 L311 45 Q289 29 253 10.5 Q217 -8 160 -8 Q100 -8 62 26 Q24 60 24 113 Q24 117 24 121 Q24 125 25 131 L67 470 Q69 486 76.5 493 Q84 500 100 500 L201 500 Q213 500 221 494 Q229 488 227 470 L191 172 Q190 165 190 162 Q190 159 190 155 Q190 141 197 135 Q204 129 223 129 Q251 129 278.5 143 Q306 157 322 168 L359 470 Q361 486 368 493 Q375 500 391 500 L494 500 Q511 500 515.5 492 Q520 484 519 470 L465 29 Q463 13 455.5 6.5 Q448 0 432 0 L336 0 Q321 0 316 6.5 Q311 13 311 29 Z " />
<glyph glyph-name="v" unicode="v" horiz-adv-x="494" d="M273 0 L155 0 Q139 0 135 6 Q131 12 128 27 L32 470 Q28 486 38.5 493 Q49 500 65 500 L167 500 Q183 500 188.5 491.5 Q194 483 196 470 L228 292 Q234 260 235 234.5 Q236 209 236 185 Q241 206 249 234.5 Q257 263 270 291 L352 470 Q358 483 365.5 491.5 Q373 500 389 500 L487 500 Q503 500 511 492.5 Q519 485 512 470 L306 27 Q299 12 294 6 Q289 0 273 0 Z " />
<glyph glyph-name="w" unicode="w" horiz-adv-x="745" d="M654 500 L737 500 Q753 500 761.5 493 Q770 486 763 470 L581 27 Q575 12 569.5 6 Q564 0 548 0 L425 0 Q409 0 404 7 Q399 14 398 27 L381 218 Q380 234 379 245.5 Q378 257 378 274 Q374 256 370 245.5 Q366 235 359 218 L278 27 Q272 14 266.5 7 Q261 0 245 0 L125 0 Q109 0 104.5 6.5 Q100 13 98 27 L33 470 Q31 486 40 493 Q49 500 65 500 L161 500 Q177 500 183.5 491.5 Q190 483 191 470 L221 248 Q223 231 223.5 220.5 Q224 210 223 196 Q227 211 231 222.5 Q235 234 241 248 L331 470 Q336 483 343.5 491.5 Q351 500 367 500 L464 500 Q480 500 486.5 491.5 Q493 483 494 470 L514 248 Q515 233 516 221 Q517 209 517 196 Q520 208 523.5 218.5 Q527 229 534 248 L618 470 Q623 483 630.5 491.5 Q638 500 654 500 Z " />
<glyph glyph-name="x" unicode="x" horiz-adv-x="500" d="M176 500 Q192 500 200 491.5 Q208 483 215 470 L272 365 L347 470 Q356 483 367 491.5 Q378 500 394 500 L495 500 Q511 500 513 491 Q515 482 505 470 L333 250 L452 30 Q458 19 453.5 9.5 Q449 0 433 0 L323 0 Q307 0 299 9.5 Q291 19 285 30 L224 143 L140 30 Q132 19 121 9.5 Q110 0 94 0 L-7 0 Q-22 0 -24 9.5 Q-26 19 -17 30 L162 258 L48 470 Q41 482 45.5 491 Q50 500 66 500 L176 500 Z " />
<glyph glyph-name="y" unicode="y" horiz-adv-x="493" d="M511 470 L216 -169 Q211 -180 203 -189.5 Q195 -199 179 -199 L103 -199 Q87 -199 79.5 -191.5 Q72 -184 78 -169 L140 -17 L31 470 Q27 485 37.5 492.5 Q48 500 64 500 L165 500 Q181 500 186 491.5 Q191 483 194 470 L229 289 Q233 267 235.5 242 Q238 217 237 192 Q247 222 256.5 247 Q266 272 271 284 L355 470 Q361 484 368.5 492 Q376 500 392 500 L486 500 Q502 500 510 492.5 Q518 485 511 470 Z " />
<glyph glyph-name="z" unicode="z" horiz-adv-x="452" d="M100 500 L405 500 Q421 500 427 494 Q433 488 431 472 L422 400 Q421 394 419.5 388 Q418 382 414 378 L199 130 L379 130 Q395 130 401.5 124 Q408 118 406 102 L397 29 Q395 13 387 6.5 Q379 0 363 0 L20 0 Q4 0 -2 6.5 Q-8 13 -6 29 L3 102 Q4 109 6 114 Q8 119 11 123 L224 370 L84 370 Q68 370 61.5 376.5 Q55 383 57 399 L66 472 Q68 488 76 494 Q84 500 100 500 Z " />
<glyph glyph-name="braceleft" unicode="&#x7b;" horiz-adv-x="388" d="M107 358 L131 552 Q140 623 197 665.5 Q254 708 367 708 L388 708 Q405 708 410.5 700 Q416 692 415 679 L406 608 Q404 592 396 585 Q388 578 372 578 L361 578 Q330 578 313.5 568.5 Q297 559 294 534 L270 341 Q266 303 250 282.5 Q234 262 207 249 Q228 237 238.5 217 Q249 197 249 175 Q249 174 249 169 Q249 164 248 157 L225 -28 Q224 -39 223.5 -45.5 Q223 -52 223 -56 Q223 -72 237.5 -80 Q252 -88 280 -88 L291 -88 Q309 -88 313.5 -96.5 Q318 -105 317 -118 L308 -189 Q306 -205 298.5 -211.5 Q291 -218 275 -218 L268 -218 Q170 -218 113 -181.5 Q56 -145 56 -75 Q56 -70 56.5 -60.5 Q57 -51 58 -45 L81 140 Q82 146 82 148.5 Q82 151 82 153 Q82 169 67 176.5 Q52 184 24 184 L23 184 Q6 184 1 192.5 Q-4 201 -3 214 L5 284 Q6 300 14.5 307 Q23 314 39 314 L40 314 Q71 314 87.5 323.5 Q104 333 107 358 Z " />
<glyph glyph-name="bar" unicode="&#x7c;" horiz-adv-x="319" d="M236 669 L236 -181 Q236 -197 230 -204 Q224 -211 208 -211 L100 -211 Q84 -211 77.5 -204 Q71 -197 71 -181 L71 669 Q71 685 77.5 692 Q84 699 100 699 L208 699 Q224 699 230 692 Q236 685 236 669 Z " />
<glyph glyph-name="braceright" unicode="&#x7d;" horiz-adv-x="388" d="M321 540 L299 367 Q298 361 297.5 356 Q297 351 297 347 Q297 329 312 321.5 Q327 314 355 314 L356 314 Q373 314 378 305.5 Q383 297 382 284 L374 214 Q373 198 364.5 191 Q356 184 340 184 L339 184 Q308 184 291.5 174.5 Q275 165 272 140 L247 -62 Q238 -133 181 -175.5 Q124 -218 11 -218 L-10 -218 Q-26 -218 -32 -210 Q-38 -202 -37 -189 L-28 -118 Q-26 -102 -18 -95 Q-10 -88 6 -88 L17 -88 Q48 -88 64.5 -78.5 Q81 -69 84 -44 L109 157 Q113 194 129 215 Q145 236 172 249 Q151 260 140.5 280 Q130 300 130 325 Q130 331 131 340.5 Q132 350 133 356 L155 534 Q156 540 156 543 Q156 546 156 548 Q156 564 141 571 Q126 578 98 578 L87 578 Q70 578 65 586.5 Q60 595 61 608 L70 679 Q72 695 79.5 701.5 Q87 708 103 708 L114 708 Q211 708 266.5 670.5 Q322 633 322 564 Q322 560 322 553 Q322 546 321 540 Z " />
<glyph glyph-name="asciitilde" unicode="&#x7e;" horiz-adv-x="499" d="M455 333 L450 287 Q445 237 418.5 213 Q392 189 361 189 Q342 189 324 194 Q306 199 296 203 L207 244 Q196 249 189 251 Q182 253 176 253 Q163 253 158 247.5 Q153 242 153 229 L153 222 Q153 206 144 201 Q135 196 121 196 L69 196 Q54 196 49 205 Q44 214 45 230 L50 286 Q54 335 82 355 Q110 375 138 375 Q151 375 168.5 372 Q186 369 199 363 L287 324 Q300 318 309 315.5 Q318 313 326 313 Q333 313 339.5 317.5 Q346 322 346 333 L346 341 Q346 357 354.5 362 Q363 367 378 367 L430 367 Q446 367 451 358 Q456 349 455 333 Z " />
<glyph glyph-name="Adieresis" unicode="&#xc4;" horiz-adv-x="565" d="M328 256 L321 310 Q314 368 314 419.5 Q314 471 315 520 Q304 471 289 412.5 Q274 354 256 310 L234 256 L328 256 Z M282 680 L390 680 Q406 680 413.5 672.5 Q421 665 423 650 L528 30 Q530 16 524.5 8 Q519 0 503 0 L394 0 Q378 0 371 8 Q364 16 362 30 L348 126 L182 126 L144 30 Q139 16 130.5 8 Q122 0 106 0 L3 0 Q-12 0 -16.5 8 Q-21 16 -15 30 L241 650 Q248 666 257 673 Q266 680 282 680 Z M480 848 L469 756 Q467 740 460 733.5 Q453 727 437 727 L377 727 Q361 727 355.5 733.5 Q350 740 352 756 L363 848 Q365 864 372.5 871 Q380 878 396 878 L456 878 Q472 878 477 871 Q482 864 480 848 Z M325 848 L314 756 Q312 740 305 733.5 Q298 727 282 727 L222 727 Q206 727 200.5 733.5 Q195 740 197 756 L208 848 Q210 864 217.5 871 Q225 878 241 878 L301 878 Q317 878 322 871 Q327 864 325 848 Z " />
<glyph glyph-name="Aring" unicode="&#xc5;" horiz-adv-x="565" d="M328 256 L321 310 Q314 368 314 419.5 Q314 471 315 520 Q304 471 289 412.5 Q274 354 256 310 L234 256 L328 256 Z M282 680 L390 680 Q406 680 413.5 672.5 Q421 665 423 650 L528 30 Q530 16 524.5 8 Q519 0 503 0 L394 0 Q378 0 371 8 Q364 16 362 30 L348 126 L182 126 L144 30 Q139 16 130.5 8 Q122 0 106 0 L3 0 Q-12 0 -16.5 8 Q-21 16 -15 30 L241 650 Q248 666 257 673 Q266 680 282 680 Z M462 819 L458 792 Q454 761 428.5 736.5 Q403 712 333 712 Q273 712 243.5 734 Q214 756 214 784 Q214 787 214 791 Q214 795 215 799 L219 826 Q223 857 249 881.5 Q275 906 347 906 Q407 906 435 884 Q463 862 463 834 Q463 832 463 829 Q463 826 462 819 Z M375 801 L376 809 Q376 809 376.5 813.5 Q377 818 377 822 Q377 835 366 839.5 Q355 844 341 844 Q325 844 313.5 838.5 Q302 833 301 817 L300 808 Q300 808 299.5 804 Q299 800 299 796 Q299 783 310 778 Q321 773 335 773 Q351 773 362 779 Q373 785 375 801 Z " />
<glyph glyph-name="Ccedilla" unicode="&#xc7;" horiz-adv-x="575" d="M392 -112 Q392 -161 364 -186 Q336 -211 292 -211 L167 -211 Q151 -211 144.5 -203 Q138 -195 140 -182 L143 -161 Q145 -145 152.5 -139 Q160 -133 176 -133 L273 -133 Q279 -133 281 -129.5 Q283 -126 283 -122 Q283 -118 280 -115.5 Q277 -113 273 -113 L195 -113 Q173 -113 165 -103 Q157 -93 165 -73 L194 -3 Q107 10 70 52 Q33 94 33 144 Q33 149 33.5 156 Q34 163 35 171 L77 517 Q84 581 139.5 634.5 Q195 688 339 688 Q465 688 517.5 642 Q570 596 570 537 Q570 532 569.5 525 Q569 518 568 510 L563 471 Q561 455 554.5 448 Q548 441 532 441 L429 441 Q413 441 407 449.5 Q401 458 403 471 L405 482 Q406 486 406.5 492 Q407 498 407 501 Q407 528 385.5 540.5 Q364 553 330 553 Q293 553 268 537.5 Q243 522 239 488 L203 201 Q202 195 201.5 189.5 Q201 184 201 182 Q201 153 223 140 Q245 127 279 127 Q316 127 340.5 142.5 Q365 158 369 192 L373 224 Q375 240 382.5 247 Q390 254 406 254 L509 254 Q526 254 530 245.5 Q534 237 533 224 L526 163 Q519 103 470.5 51.5 Q422 0 298 -7 L286 -39 L313 -39 Q350 -39 371 -59 Q392 -79 392 -112 Z " />
<glyph glyph-name="Eacute" unicode="&#xc9;" horiz-adv-x="506" d="M408 0 L56 0 Q40 0 34 7 Q28 14 30 30 L106 650 Q108 666 115.5 673 Q123 680 139 680 L481 680 Q497 680 503.5 674 Q510 668 508 652 L498 574 Q496 558 488.5 551.5 Q481 545 465 545 L259 545 L243 415 L433 415 Q449 415 455 409 Q461 403 459 387 L450 314 Q448 298 440.5 291.5 Q433 285 417 285 L227 285 L208 135 L424 135 Q440 135 446.5 129 Q453 123 451 107 L441 29 Q439 13 431.5 6.5 Q424 0 408 0 Z M470 848 L389 747 Q383 740 373 733.5 Q363 727 347 727 L265 727 Q252 727 248 733.5 Q244 740 253 756 L304 848 Q311 861 322 869.5 Q333 878 349 878 L459 878 Q475 878 477.5 869.5 Q480 861 470 848 Z " />
<glyph glyph-name="Ntilde" unicode="&#xd1;" horiz-adv-x="627" d="M613 650 L537 30 Q535 14 528.5 7 Q522 0 506 0 L412 0 Q400 0 394 3.5 Q388 7 385 14 L258 280 Q248 301 239 326.5 Q230 352 226 370 L184 30 Q182 14 175.5 7 Q169 0 153 0 L55 0 Q39 0 33 7 Q27 14 29 30 L105 650 Q107 666 114.5 673 Q122 680 138 680 L232 680 Q242 680 248 677 Q254 674 257 668 L391 385 Q399 368 406 347 Q413 326 417 310 L458 650 Q460 666 467.5 673 Q475 680 491 680 L589 680 Q605 680 610 673 Q615 666 613 650 Z M322 770 Q315 770 310 766.5 Q305 763 303 757 L301 752 Q295 736 287.5 731.5 Q280 727 266 727 L215 727 Q200 727 195.5 736.5 Q191 746 195 761 L207 810 Q216 845 244 865.5 Q272 886 308 886 Q324 886 340.5 882.5 Q357 879 367 875 L407 859 Q418 855 426.5 851 Q435 847 440 847 Q447 847 452 850.5 Q457 854 460 860 L462 864 Q469 878 475.5 884 Q482 890 497 890 L551 890 Q567 890 571.5 881 Q576 872 572 856 L562 811 Q554 773 529.5 754 Q505 735 472 735 Q443 735 429 737.5 Q415 740 401 745 L358 760 Q347 764 338 767 Q329 770 322 770 Z " />
<glyph glyph-name="Odieresis" unicode="&#xd6;" horiz-adv-x="611" d="M35 171 L77 517 Q84 581 144 634.5 Q204 688 348 688 Q475 688 532 641 Q589 594 589 535 Q589 531 588.5 523.5 Q588 516 587 509 L545 163 Q538 99 477.5 45.5 Q417 -8 273 -8 Q146 -8 89.5 38.5 Q33 85 33 145 Q33 149 33.5 156.5 Q34 164 35 171 Z M383 192 L419 479 Q420 486 420.5 491 Q421 496 421 498 Q421 527 397 540 Q373 553 336 553 Q303 553 273 537.5 Q243 522 239 488 L203 201 Q202 195 201.5 189.5 Q201 184 201 182 Q201 153 225.5 140 Q250 127 287 127 Q324 127 351.5 142.5 Q379 158 383 192 Z M512 848 L501 756 Q499 740 492 733.5 Q485 727 469 727 L409 727 Q393 727 387.5 733.5 Q382 740 384 756 L395 848 Q397 864 404.5 871 Q412 878 428 878 L488 878 Q504 878 509 871 Q514 864 512 848 Z M357 848 L346 756 Q344 740 337 733.5 Q330 727 314 727 L254 727 Q238 727 232.5 733.5 Q227 740 229 756 L240 848 Q242 864 249.5 871 Q257 878 273 878 L333 878 Q349 878 354 871 Q359 864 357 848 Z " />
<glyph glyph-name="Udieresis" unicode="&#xdc;" horiz-adv-x="624" d="M265 650 L211 216 Q210 204 209 197 Q208 190 208 183 Q208 153 233 140 Q258 127 292 127 Q329 127 357 142.5 Q385 158 389 192 L446 650 Q448 666 455 673 Q462 680 478 680 L586 680 Q597 680 605 673.5 Q613 667 611 650 L551 163 Q543 99 485.5 45.5 Q428 -8 282 -8 Q157 -8 98 39.5 Q39 87 39 147 Q39 152 40 161.5 Q41 171 42 178 L100 650 Q102 666 109 673 Q116 680 132 680 L240 680 Q251 680 259 673.5 Q267 667 265 650 Z M514 848 L503 756 Q501 740 494 733.5 Q487 727 471 727 L411 727 Q395 727 389.5 733.5 Q384 740 386 756 L397 848 Q399 864 406.5 871 Q414 878 430 878 L490 878 Q506 878 511 871 Q516 864 514 848 Z M359 848 L348 756 Q346 740 339 733.5 Q332 727 316 727 L256 727 Q240 727 234.5 733.5 Q229 740 231 756 L242 848 Q244 864 251.5 871 Q259 878 275 878 L335 878 Q351 878 356 871 Q361 864 359 848 Z " />
<glyph glyph-name="aacute" unicode="&#xe1;" horiz-adv-x="548" d="M207 329 L187 171 Q186 164 186 161.5 Q186 159 186 157 Q186 146 192.5 137.5 Q199 129 221 129 Q249 129 278.5 144 Q308 159 325 170 L345 330 Q331 341 305 356 Q279 371 251 371 Q224 371 216.5 357.5 Q209 344 207 329 Z M314 47 Q291 31 254.5 11.5 Q218 -8 158 -8 Q93 -8 57.5 26 Q22 60 22 119 Q22 125 22.5 132.5 Q23 140 24 146 L50 354 Q59 425 96 466.5 Q133 508 212 508 Q266 508 303.5 490 Q341 472 360 456 L364 470 Q368 485 374 492.5 Q380 500 396 500 L497 500 Q508 500 516 493.5 Q524 487 522 470 L468 30 Q466 14 458.5 7 Q451 0 435 0 L339 0 Q326 0 320 7 Q314 14 314 30 L314 47 Z M461 678 L380 577 Q374 570 364 563.5 Q354 557 338 557 L256 557 Q243 557 239 563.5 Q235 570 244 586 L295 678 Q302 691 313 699.5 Q324 708 340 708 L450 708 Q466 708 468.5 699.5 Q471 691 461 678 Z " />
<glyph glyph-name="agrave" unicode="&#xe0;" horiz-adv-x="548" d="M207 329 L187 171 Q186 164 186 161.5 Q186 159 186 157 Q186 146 192.5 137.5 Q199 129 221 129 Q249 129 278.5 144 Q308 159 325 170 L345 330 Q331 341 305 356 Q279 371 251 371 Q224 371 216.5 357.5 Q209 344 207 329 Z M314 47 Q291 31 254.5 11.5 Q218 -8 158 -8 Q93 -8 57.5 26 Q22 60 22 119 Q22 125 22.5 132.5 Q23 140 24 146 L50 354 Q59 425 96 466.5 Q133 508 212 508 Q266 508 303.5 490 Q341 472 360 456 L364 470 Q368 485 374 492.5 Q380 500 396 500 L497 500 Q508 500 516 493.5 Q524 487 522 470 L468 30 Q466 14 458.5 7 Q451 0 435 0 L339 0 Q326 0 320 7 Q314 14 314 30 L314 47 Z M240 577 L183 678 Q176 691 181 699.5 Q186 708 202 708 L307 708 Q323 708 331.5 699.5 Q340 691 344 678 L373 586 Q378 570 372 563.5 Q366 557 353 557 L276 557 Q260 557 252 563.5 Q244 570 240 577 Z " />
<glyph glyph-name="acircumflex" unicode="&#xe2;" horiz-adv-x="548" d="M207 329 L187 171 Q186 164 186 161.5 Q186 159 186 157 Q186 146 192.5 137.5 Q199 129 221 129 Q249 129 278.5 144 Q308 159 325 170 L345 330 Q331 341 305 356 Q279 371 251 371 Q224 371 216.5 357.5 Q209 344 207 329 Z M314 47 Q291 31 254.5 11.5 Q218 -8 158 -8 Q93 -8 57.5 26 Q22 60 22 119 Q22 125 22.5 132.5 Q23 140 24 146 L50 354 Q59 425 96 466.5 Q133 508 212 508 Q266 508 303.5 490 Q341 472 360 456 L364 470 Q368 485 374 492.5 Q380 500 396 500 L497 500 Q508 500 516 493.5 Q524 487 522 470 L468 30 Q466 14 458.5 7 Q451 0 435 0 L339 0 Q326 0 320 7 Q314 14 314 30 L314 47 Z M315 614 L300 586 Q294 576 282.5 566.5 Q271 557 255 557 L176 557 Q160 557 157 565.5 Q154 574 164 586 L246 678 Q257 691 269 699.5 Q281 708 297 708 L355 708 Q371 708 380.5 699.5 Q390 691 398 678 L458 586 Q465 574 459.5 565.5 Q454 557 438 557 L361 557 Q345 557 336.5 566 Q328 575 324 586 L315 614 Z " />
<glyph glyph-name="adieresis" unicode="&#xe4;" horiz-adv-x="548" d="M207 329 L187 171 Q186 164 186 161.5 Q186 159 186 157 Q186 146 192.5 137.5 Q199 129 221 129 Q249 129 278.5 144 Q308 159 325 170 L345 330 Q331 341 305 356 Q279 371 251 371 Q224 371 216.5 357.5 Q209 344 207 329 Z M314 47 Q291 31 254.5 11.5 Q218 -8 158 -8 Q93 -8 57.5 26 Q22 60 22 119 Q22 125 22.5 132.5 Q23 140 24 146 L50 354 Q59 425 96 466.5 Q133 508 212 508 Q266 508 303.5 490 Q341 472 360 456 L364 470 Q368 485 374 492.5 Q380 500 396 500 L497 500 Q508 500 516 493.5 Q524 487 522 470 L468 30 Q466 14 458.5 7 Q451 0 435 0 L339 0 Q326 0 320 7 Q314 14 314 30 L314 47 Z M460 678 L449 586 Q447 570 440 563.5 Q433 557 417 557 L357 557 Q341 557 335.5 563.5 Q330 570 332 586 L343 678 Q345 694 352.5 701 Q360 708 376 708 L436 708 Q452 708 457 701 Q462 694 460 678 Z M305 678 L294 586 Q292 570 285 563.5 Q278 557 262 557 L202 557 Q186 557 180.5 563.5 Q175 570 177 586 L188 678 Q190 694 197.5 701 Q205 708 221 708 L281 708 Q297 708 302 701 Q307 694 305 678 Z " />
<glyph glyph-name="atilde" unicode="&#xe3;" horiz-adv-x="548" d="M207 329 L187 171 Q186 164 186 161.5 Q186 159 186 157 Q186 146 192.5 137.5 Q199 129 221 129 Q249 129 278.5 144 Q308 159 325 170 L345 330 Q331 341 305 356 Q279 371 251 371 Q224 371 216.5 357.5 Q209 344 207 329 Z M314 47 Q291 31 254.5 11.5 Q218 -8 158 -8 Q93 -8 57.5 26 Q22 60 22 119 Q22 125 22.5 132.5 Q23 140 24 146 L50 354 Q59 425 96 466.5 Q133 508 212 508 Q266 508 303.5 490 Q341 472 360 456 L364 470 Q368 485 374 492.5 Q380 500 396 500 L497 500 Q508 500 516 493.5 Q524 487 522 470 L468 30 Q466 14 458.5 7 Q451 0 435 0 L339 0 Q326 0 320 7 Q314 14 314 30 L314 47 Z M257 590 Q250 590 245 586.5 Q240 583 238 577 L236 572 Q230 556 222.5 551.5 Q215 547 201 547 L150 547 Q135 547 130.5 556.5 Q126 566 130 581 L142 630 Q151 665 179 685.5 Q207 706 243 706 Q259 706 275.5 702.5 Q292 699 302 695 L342 679 Q353 675 361.5 671 Q370 667 375 667 Q382 667 387 670.5 Q392 674 395 680 L397 684 Q404 698 410.5 704 Q417 710 432 710 L486 710 Q502 710 506.5 701 Q511 692 507 676 L497 631 Q489 593 464.5 574 Q440 555 407 555 Q378 555 364 557.5 Q350 560 336 565 L293 580 Q282 584 273 587 Q264 590 257 590 Z " />
<glyph glyph-name="aring" unicode="&#xe5;" horiz-adv-x="548" d="M207 329 L187 171 Q186 164 186 161.5 Q186 159 186 157 Q186 146 192.5 137.5 Q199 129 221 129 Q249 129 278.5 144 Q308 159 325 170 L345 330 Q331 341 305 356 Q279 371 251 371 Q224 371 216.5 357.5 Q209 344 207 329 Z M314 47 Q291 31 254.5 11.5 Q218 -8 158 -8 Q93 -8 57.5 26 Q22 60 22 119 Q22 125 22.5 132.5 Q23 140 24 146 L50 354 Q59 425 96 466.5 Q133 508 212 508 Q266 508 303.5 490 Q341 472 360 456 L364 470 Q368 485 374 492.5 Q380 500 396 500 L497 500 Q508 500 516 493.5 Q524 487 522 470 L468 30 Q466 14 458.5 7 Q451 0 435 0 L339 0 Q326 0 320 7 Q314 14 314 30 L314 47 Z M440 647 L436 620 Q432 589 406.5 564.5 Q381 540 311 540 Q251 540 221.5 562 Q192 584 192 612 Q192 615 192 619 Q192 623 193 627 L197 654 Q201 685 227 709.5 Q253 734 325 734 Q385 734 413 712 Q441 690 441 662 Q441 660 441 657 Q441 654 440 647 Z M353 629 L354 637 Q354 637 354.5 641.5 Q355 646 355 650 Q355 663 344 667.5 Q333 672 319 672 Q303 672 291.5 666.5 Q280 661 279 645 L278 636 Q278 636 277.5 632 Q277 628 277 624 Q277 611 288 606 Q299 601 313 601 Q329 601 340 607 Q351 613 353 629 Z " />
<glyph glyph-name="ccedilla" unicode="&#xe7;" horiz-adv-x="500" d="M352 -112 Q352 -161 324 -186 Q296 -211 252 -211 L127 -211 Q111 -211 104.5 -203 Q98 -195 100 -182 L103 -161 Q105 -145 112.5 -139 Q120 -133 136 -133 L233 -133 Q239 -133 241 -129.5 Q243 -126 243 -122 Q243 -118 240 -115.5 Q237 -113 233 -113 L155 -113 Q133 -113 125 -103 Q117 -93 125 -73 L154 -2 Q88 9 54.5 43.5 Q21 78 21 128 Q21 133 21 137 Q21 141 22 148 L47 352 Q56 423 109.5 465.5 Q163 508 279 508 Q383 508 431.5 469.5 Q480 431 480 371 Q480 367 480 363.5 Q480 360 479 350 L478 337 Q477 321 469 314.5 Q461 308 445 308 L351 308 Q337 308 331.5 315 Q326 322 326 335 L326 349 Q326 368 312.5 375.5 Q299 383 271 383 Q240 383 224.5 374 Q209 365 206 340 L186 178 Q185 173 184 164.5 Q183 156 183 152 Q183 133 197 125 Q211 117 239 117 Q270 117 286 126.5 Q302 136 304 161 L305 173 Q306 189 313.5 195.5 Q321 202 337 202 L432 202 Q449 202 453.5 193.5 Q458 185 457 173 L455 148 Q450 82 404 40.5 Q358 -1 258 -7 L246 -39 L273 -39 Q310 -39 331 -59 Q352 -79 352 -112 Z " />
<glyph glyph-name="eacute" unicode="&#xe9;" horiz-adv-x="504" d="M473 352 L460 241 Q459 227 451 220.5 Q443 214 429 214 L186 214 L181 171 Q180 161 179 154 Q178 147 178 146 Q178 127 192 118.5 Q206 110 234 110 Q265 110 280.5 120.5 Q296 131 299 149 L300 155 Q302 170 309.5 177 Q317 184 333 184 L419 184 Q435 184 440.5 176.5 Q446 169 444 155 L443 148 Q433 77 387.5 34.5 Q342 -8 224 -8 Q123 -8 72 29 Q21 66 21 128 Q21 133 21 137 Q21 141 22 148 L47 352 Q56 423 109 465.5 Q162 508 277 508 Q375 508 424.5 471.5 Q474 435 474 373 Q474 368 474 363.5 Q474 359 473 352 Z M203 345 L199 316 L320 316 L323 337 Q324 343 324 347.5 Q324 352 324 353 Q324 371 310 380.5 Q296 390 268 390 Q237 390 221.5 378.5 Q206 367 203 345 Z M439 678 L358 577 Q352 570 342 563.5 Q332 557 316 557 L234 557 Q221 557 217 563.5 Q213 570 222 586 L273 678 Q280 691 291 699.5 Q302 708 318 708 L428 708 Q444 708 446.5 699.5 Q449 691 439 678 Z " />
<glyph glyph-name="egrave" unicode="&#xe8;" horiz-adv-x="504" d="M473 352 L460 241 Q459 227 451 220.5 Q443 214 429 214 L186 214 L181 171 Q180 161 179 154 Q178 147 178 146 Q178 127 192 118.5 Q206 110 234 110 Q265 110 280.5 120.5 Q296 131 299 149 L300 155 Q302 170 309.5 177 Q317 184 333 184 L419 184 Q435 184 440.5 176.5 Q446 169 444 155 L443 148 Q433 77 387.5 34.5 Q342 -8 224 -8 Q123 -8 72 29 Q21 66 21 128 Q21 133 21 137 Q21 141 22 148 L47 352 Q56 423 109 465.5 Q162 508 277 508 Q375 508 424.5 471.5 Q474 435 474 373 Q474 368 474 363.5 Q474 359 473 352 Z M203 345 L199 316 L320 316 L323 337 Q324 343 324 347.5 Q324 352 324 353 Q324 371 310 380.5 Q296 390 268 390 Q237 390 221.5 378.5 Q206 367 203 345 Z M211 577 L154 678 Q147 691 152 699.5 Q157 708 173 708 L278 708 Q294 708 302.5 699.5 Q311 691 315 678 L344 586 Q349 570 343 563.5 Q337 557 324 557 L247 557 Q231 557 223 563.5 Q215 570 211 577 Z " />
<glyph glyph-name="ecircumflex" unicode="&#xea;" horiz-adv-x="504" d="M473 352 L460 241 Q459 227 451 220.5 Q443 214 429 214 L186 214 L181 171 Q180 161 179 154 Q178 147 178 146 Q178 127 192 118.5 Q206 110 234 110 Q265 110 280.5 120.5 Q296 131 299 149 L300 155 Q302 170 309.5 177 Q317 184 333 184 L419 184 Q435 184 440.5 176.5 Q446 169 444 155 L443 148 Q433 77 387.5 34.5 Q342 -8 224 -8 Q123 -8 72 29 Q21 66 21 128 Q21 133 21 137 Q21 141 22 148 L47 352 Q56 423 109 465.5 Q162 508 277 508 Q375 508 424.5 471.5 Q474 435 474 373 Q474 368 474 363.5 Q474 359 473 352 Z M203 345 L199 316 L320 316 L323 337 Q324 343 324 347.5 Q324 352 324 353 Q324 371 310 380.5 Q296 390 268 390 Q237 390 221.5 378.5 Q206 367 203 345 Z M292 614 L277 586 Q271 576 259.5 566.5 Q248 557 232 557 L153 557 Q137 557 134 565.5 Q131 574 141 586 L223 678 Q234 691 246 699.5 Q258 708 274 708 L332 708 Q348 708 357.5 699.5 Q367 691 375 678 L435 586 Q442 574 436.5 565.5 Q431 557 415 557 L338 557 Q322 557 313.5 566 Q305 575 301 586 L292 614 Z " />
<glyph glyph-name="edieresis" unicode="&#xeb;" horiz-adv-x="504" d="M473 352 L460 241 Q459 227 451 220.5 Q443 214 429 214 L186 214 L181 171 Q180 161 179 154 Q178 147 178 146 Q178 127 192 118.5 Q206 110 234 110 Q265 110 280.5 120.5 Q296 131 299 149 L300 155 Q302 170 309.5 177 Q317 184 333 184 L419 184 Q435 184 440.5 176.5 Q446 169 444 155 L443 148 Q433 77 387.5 34.5 Q342 -8 224 -8 Q123 -8 72 29 Q21 66 21 128 Q21 133 21 137 Q21 141 22 148 L47 352 Q56 423 109 465.5 Q162 508 277 508 Q375 508 424.5 471.5 Q474 435 474 373 Q474 368 474 363.5 Q474 359 473 352 Z M203 345 L199 316 L320 316 L323 337 Q324 343 324 347.5 Q324 352 324 353 Q324 371 310 380.5 Q296 390 268 390 Q237 390 221.5 378.5 Q206 367 203 345 Z M428 678 L417 586 Q415 570 408 563.5 Q401 557 385 557 L325 557 Q309 557 303.5 563.5 Q298 570 300 586 L311 678 Q313 694 320.5 701 Q328 708 344 708 L404 708 Q420 708 425 701 Q430 694 428 678 Z M273 678 L262 586 Q260 570 253 563.5 Q246 557 230 557 L170 557 Q154 557 148.5 563.5 Q143 570 145 586 L156 678 Q158 694 165.5 701 Q173 708 189 708 L249 708 Q265 708 270 701 Q275 694 273 678 Z " />
<glyph glyph-name="iacute" unicode="&#xed;" horiz-adv-x="257" d="M232 470 L178 30 Q176 14 169 7 Q162 0 146 0 L43 0 Q27 0 21.5 7 Q16 14 18 30 L72 470 Q74 486 81.5 493 Q89 500 105 500 L208 500 Q224 500 229 493 Q234 486 232 470 Z M325 678 L244 577 Q238 570 228 563.5 Q218 557 202 557 L120 557 Q107 557 103 563.5 Q99 570 108 586 L159 678 Q166 691 177 699.5 Q188 708 204 708 L314 708 Q330 708 332.5 699.5 Q335 691 325 678 Z " />
<glyph glyph-name="igrave" unicode="&#xec;" horiz-adv-x="256" d="M232 470 L178 30 Q176 14 169 7 Q162 0 146 0 L43 0 Q27 0 21.5 7 Q16 14 18 30 L72 470 Q74 486 81.5 493 Q89 500 105 500 L208 500 Q224 500 229 493 Q234 486 232 470 Z M89 577 L32 678 Q25 691 30 699.5 Q35 708 51 708 L156 708 Q172 708 180.5 699.5 Q189 691 193 678 L222 586 Q227 570 221 563.5 Q215 557 202 557 L125 557 Q109 557 101 563.5 Q93 570 89 577 Z " />
<glyph glyph-name="icircumflex" unicode="&#xee;" horiz-adv-x="257" d="M232 470 L178 30 Q176 14 169 7 Q162 0 146 0 L43 0 Q27 0 21.5 7 Q16 14 18 30 L72 470 Q74 486 81.5 493 Q89 500 105 500 L208 500 Q224 500 229 493 Q234 486 232 470 Z M173 614 L158 586 Q152 576 140.5 566.5 Q129 557 113 557 L34 557 Q18 557 15 565.5 Q12 574 22 586 L104 678 Q115 691 127 699.5 Q139 708 155 708 L213 708 Q229 708 238.5 699.5 Q248 691 256 678 L316 586 Q323 574 317.5 565.5 Q312 557 296 557 L219 557 Q203 557 194.5 566 Q186 575 182 586 L173 614 Z " />
<glyph glyph-name="idieresis" unicode="&#xef;" horiz-adv-x="257" d="M232 470 L178 30 Q176 14 169 7 Q162 0 146 0 L43 0 Q27 0 21.5 7 Q16 14 18 30 L72 470 Q74 486 81.5 493 Q89 500 105 500 L208 500 Q224 500 229 493 Q234 486 232 470 Z M316 678 L305 586 Q303 570 296 563.5 Q289 557 273 557 L213 557 Q197 557 191.5 563.5 Q186 570 188 586 L199 678 Q201 694 208.5 701 Q216 708 232 708 L292 708 Q308 708 313 701 Q318 694 316 678 Z M161 678 L150 586 Q148 570 141 563.5 Q134 557 118 557 L58 557 Q42 557 36.5 563.5 Q31 570 33 586 L44 678 Q46 694 53.5 701 Q61 708 77 708 L137 708 Q153 708 158 701 Q163 694 161 678 Z " />
<glyph glyph-name="ntilde" unicode="&#xf1;" horiz-adv-x="551" d="M104 500 L200 500 Q216 500 221 493.5 Q226 487 226 471 L226 454 Q248 471 286.5 489.5 Q325 508 382 508 Q441 508 479.5 474 Q518 440 518 386 Q518 382 517.5 374.5 Q517 367 516 360 L476 30 Q474 14 466.5 7 Q459 0 443 0 L342 0 Q329 0 321.5 6 Q314 12 316 30 L351 320 Q352 326 352.5 333 Q353 340 353 343 Q353 358 345.5 364.5 Q338 371 319 371 Q290 371 260.5 356.5 Q231 342 215 331 L178 30 Q176 14 169 7 Q162 0 146 0 L43 0 Q30 0 23 6.5 Q16 13 18 30 L72 471 Q74 487 81 493.5 Q88 500 104 500 Z M260 590 Q253 590 248 586.5 Q243 583 241 577 L239 572 Q233 556 225.5 551.5 Q218 547 204 547 L153 547 Q138 547 133.5 556.5 Q129 566 133 581 L145 630 Q154 665 182 685.5 Q210 706 246 706 Q262 706 278.5 702.5 Q295 699 305 695 L345 679 Q356 675 364.5 671 Q373 667 378 667 Q385 667 390 670.5 Q395 674 398 680 L400 684 Q407 698 413.5 704 Q420 710 435 710 L489 710 Q505 710 509.5 701 Q514 692 510 676 L500 631 Q492 593 467.5 574 Q443 555 410 555 Q381 555 367 557.5 Q353 560 339 565 L296 580 Q285 584 276 587 Q267 590 260 590 Z " />
<glyph glyph-name="oacute" unicode="&#xf3;" horiz-adv-x="537" d="M22 148 L47 352 Q56 423 115.5 465.5 Q175 508 291 508 Q392 508 449 471 Q506 434 506 371 Q506 367 506 363 Q506 359 505 352 L480 148 Q471 77 412 34.5 Q353 -8 237 -8 Q135 -8 78 30 Q21 68 21 131 Q21 135 21 138.5 Q21 142 22 148 Z M322 162 L339 300 Q342 323 343 333.5 Q344 344 344 345 Q344 368 324.5 375.5 Q305 383 280 383 Q249 383 229 373.5 Q209 364 206 339 L185 170 Q184 166 184 161.5 Q184 157 184 154 Q184 132 202 124.5 Q220 117 248 117 Q279 117 299 127 Q319 137 322 162 Z M455 678 L374 577 Q368 570 358 563.5 Q348 557 332 557 L250 557 Q237 557 233 563.5 Q229 570 238 586 L289 678 Q296 691 307 699.5 Q318 708 334 708 L444 708 Q460 708 462.5 699.5 Q465 691 455 678 Z " />
<glyph glyph-name="ograve" unicode="&#xf2;" horiz-adv-x="537" d="M22 148 L47 352 Q56 423 115.5 465.5 Q175 508 291 508 Q392 508 449 471 Q506 434 506 371 Q506 367 506 363 Q506 359 505 352 L480 148 Q471 77 412 34.5 Q353 -8 237 -8 Q135 -8 78 30 Q21 68 21 131 Q21 135 21 138.5 Q21 142 22 148 Z M322 162 L339 300 Q342 323 343 333.5 Q344 344 344 345 Q344 368 324.5 375.5 Q305 383 280 383 Q249 383 229 373.5 Q209 364 206 339 L185 170 Q184 166 184 161.5 Q184 157 184 154 Q184 132 202 124.5 Q220 117 248 117 Q279 117 299 127 Q319 137 322 162 Z M233 577 L176 678 Q169 691 174 699.5 Q179 708 195 708 L300 708 Q316 708 324.5 699.5 Q333 691 337 678 L366 586 Q371 570 365 563.5 Q359 557 346 557 L269 557 Q253 557 245 563.5 Q237 570 233 577 Z " />
<glyph glyph-name="ocircumflex" unicode="&#xf4;" horiz-adv-x="537" d="M22 148 L47 352 Q56 423 115.5 465.5 Q175 508 291 508 Q392 508 449 471 Q506 434 506 371 Q506 367 506 363 Q506 359 505 352 L480 148 Q471 77 412 34.5 Q353 -8 237 -8 Q135 -8 78 30 Q21 68 21 131 Q21 135 21 138.5 Q21 142 22 148 Z M322 162 L339 300 Q342 323 343 333.5 Q344 344 344 345 Q344 368 324.5 375.5 Q305 383 280 383 Q249 383 229 373.5 Q209 364 206 339 L185 170 Q184 166 184 161.5 Q184 157 184 154 Q184 132 202 124.5 Q220 117 248 117 Q279 117 299 127 Q319 137 322 162 Z M312 614 L297 586 Q291 576 279.5 566.5 Q268 557 252 557 L173 557 Q157 557 154 565.5 Q151 574 161 586 L243 678 Q254 691 266 699.5 Q278 708 294 708 L352 708 Q368 708 377.5 699.5 Q387 691 395 678 L455 586 Q462 574 456.5 565.5 Q451 557 435 557 L358 557 Q342 557 333.5 566 Q325 575 321 586 L312 614 Z " />
<glyph glyph-name="odieresis" unicode="&#xf6;" horiz-adv-x="537" d="M22 148 L47 352 Q56 423 115.5 465.5 Q175 508 291 508 Q392 508 449 471 Q506 434 506 371 Q506 367 506 363 Q506 359 505 352 L480 148 Q471 77 412 34.5 Q353 -8 237 -8 Q135 -8 78 30 Q21 68 21 131 Q21 135 21 138.5 Q21 142 22 148 Z M322 162 L339 300 Q342 323 343 333.5 Q344 344 344 345 Q344 368 324.5 375.5 Q305 383 280 383 Q249 383 229 373.5 Q209 364 206 339 L185 170 Q184 166 184 161.5 Q184 157 184 154 Q184 132 202 124.5 Q220 117 248 117 Q279 117 299 127 Q319 137 322 162 Z M453 678 L442 586 Q440 570 433 563.5 Q426 557 410 557 L350 557 Q334 557 328.5 563.5 Q323 570 325 586 L336 678 Q338 694 345.5 701 Q353 708 369 708 L429 708 Q445 708 450 701 Q455 694 453 678 Z M298 678 L287 586 Q285 570 278 563.5 Q271 557 255 557 L195 557 Q179 557 173.5 563.5 Q168 570 170 586 L181 678 Q183 694 190.5 701 Q198 708 214 708 L274 708 Q290 708 295 701 Q300 694 298 678 Z " />
<glyph glyph-name="otilde" unicode="&#xf5;" horiz-adv-x="537" d="M22 148 L47 352 Q56 423 115.5 465.5 Q175 508 291 508 Q392 508 449 471 Q506 434 506 371 Q506 367 506 363 Q506 359 505 352 L480 148 Q471 77 412 34.5 Q353 -8 237 -8 Q135 -8 78 30 Q21 68 21 131 Q21 135 21 138.5 Q21 142 22 148 Z M322 162 L339 300 Q342 323 343 333.5 Q344 344 344 345 Q344 368 324.5 375.5 Q305 383 280 383 Q249 383 229 373.5 Q209 364 206 339 L185 170 Q184 166 184 161.5 Q184 157 184 154 Q184 132 202 124.5 Q220 117 248 117 Q279 117 299 127 Q319 137 322 162 Z M235 590 Q228 590 223 586.5 Q218 583 216 577 L214 572 Q208 556 200.5 551.5 Q193 547 179 547 L128 547 Q113 547 108.5 556.5 Q104 566 108 581 L120 630 Q129 665 157 685.5 Q185 706 221 706 Q237 706 253.5 702.5 Q270 699 280 695 L320 679 Q331 675 339.5 671 Q348 667 353 667 Q360 667 365 670.5 Q370 674 373 680 L375 684 Q382 698 388.5 704 Q395 710 410 710 L464 710 Q480 710 484.5 701 Q489 692 485 676 L475 631 Q467 593 442.5 574 Q418 555 385 555 Q356 555 342 557.5 Q328 560 314 565 L271 580 Q260 584 251 587 Q242 590 235 590 Z " />
<glyph glyph-name="uacute" unicode="&#xfa;" horiz-adv-x="545" d="M311 29 L311 45 Q289 29 253 10.5 Q217 -8 160 -8 Q100 -8 62 26 Q24 60 24 113 Q24 117 24 121 Q24 125 25 131 L67 470 Q69 486 76.5 493 Q84 500 100 500 L201 500 Q213 500 221 494 Q229 488 227 470 L191 172 Q190 165 190 162 Q190 159 190 155 Q190 141 197 135 Q204 129 223 129 Q251 129 278.5 143 Q306 157 322 168 L359 470 Q361 486 368 493 Q375 500 391 500 L494 500 Q511 500 515.5 492 Q520 484 519 470 L465 29 Q463 13 455.5 6.5 Q448 0 432 0 L336 0 Q321 0 316 6.5 Q311 13 311 29 Z M467 678 L386 577 Q380 570 370 563.5 Q360 557 344 557 L262 557 Q249 557 245 563.5 Q241 570 250 586 L301 678 Q308 691 319 699.5 Q330 708 346 708 L456 708 Q472 708 474.5 699.5 Q477 691 467 678 Z " />
<glyph glyph-name="ugrave" unicode="&#xf9;" horiz-adv-x="545" d="M311 29 L311 45 Q289 29 253 10.5 Q217 -8 160 -8 Q100 -8 62 26 Q24 60 24 113 Q24 117 24 121 Q24 125 25 131 L67 470 Q69 486 76.5 493 Q84 500 100 500 L201 500 Q213 500 221 494 Q229 488 227 470 L191 172 Q190 165 190 162 Q190 159 190 155 Q190 141 197 135 Q204 129 223 129 Q251 129 278.5 143 Q306 157 322 168 L359 470 Q361 486 368 493 Q375 500 391 500 L494 500 Q511 500 515.5 492 Q520 484 519 470 L465 29 Q463 13 455.5 6.5 Q448 0 432 0 L336 0 Q321 0 316 6.5 Q311 13 311 29 Z M232 577 L175 678 Q168 691 173 699.5 Q178 708 194 708 L299 708 Q315 708 323.5 699.5 Q332 691 336 678 L365 586 Q370 570 364 563.5 Q358 557 345 557 L268 557 Q252 557 244 563.5 Q236 570 232 577 Z " />
<glyph glyph-name="ucircumflex" unicode="&#xfb;" horiz-adv-x="545" d="M311 29 L311 45 Q289 29 253 10.5 Q217 -8 160 -8 Q100 -8 62 26 Q24 60 24 113 Q24 117 24 121 Q24 125 25 131 L67 470 Q69 486 76.5 493 Q84 500 100 500 L201 500 Q213 500 221 494 Q229 488 227 470 L191 172 Q190 165 190 162 Q190 159 190 155 Q190 141 197 135 Q204 129 223 129 Q251 129 278.5 143 Q306 157 322 168 L359 470 Q361 486 368 493 Q375 500 391 500 L494 500 Q511 500 515.5 492 Q520 484 519 470 L465 29 Q463 13 455.5 6.5 Q448 0 432 0 L336 0 Q321 0 316 6.5 Q311 13 311 29 Z M312 614 L297 586 Q291 576 279.5 566.5 Q268 557 252 557 L173 557 Q157 557 154 565.5 Q151 574 161 586 L243 678 Q254 691 266 699.5 Q278 708 294 708 L352 708 Q368 708 377.5 699.5 Q387 691 395 678 L455 586 Q462 574 456.5 565.5 Q451 557 435 557 L358 557 Q342 557 333.5 566 Q325 575 321 586 L312 614 Z " />
<glyph glyph-name="udieresis" unicode="&#xfc;" horiz-adv-x="545" d="M311 29 L311 45 Q289 29 253 10.5 Q217 -8 160 -8 Q100 -8 62 26 Q24 60 24 113 Q24 117 24 121 Q24 125 25 131 L67 470 Q69 486 76.5 493 Q84 500 100 500 L201 500 Q213 500 221 494 Q229 488 227 470 L191 172 Q190 165 190 162 Q190 159 190 155 Q190 141 197 135 Q204 129 223 129 Q251 129 278.5 143 Q306 157 322 168 L359 470 Q361 486 368 493 Q375 500 391 500 L494 500 Q511 500 515.5 492 Q520 484 519 470 L465 29 Q463 13 455.5 6.5 Q448 0 432 0 L336 0 Q321 0 316 6.5 Q311 13 311 29 Z M454 678 L443 586 Q441 570 434 563.5 Q427 557 411 557 L351 557 Q335 557 329.5 563.5 Q324 570 326 586 L337 678 Q339 694 346.5 701 Q354 708 370 708 L430 708 Q446 708 451 701 Q456 694 454 678 Z M299 678 L288 586 Q286 570 279 563.5 Q272 557 256 557 L196 557 Q180 557 174.5 563.5 Q169 570 171 586 L182 678 Q184 694 191.5 701 Q199 708 215 708 L275 708 Q291 708 296 701 Q301 694 299 678 Z " />
<glyph glyph-name="dagger" unicode="&#x2020;" horiz-adv-x="653" d="M454 669 L376 30 Q374 14 367 7 Q360 0 344 0 L241 0 Q225 0 219.5 7 Q214 14 216 30 L294 669 Q296 685 303.5 692 Q311 699 327 699 L430 699 Q446 699 451 692 Q456 685 454 669 Z M495 520 L627 520 Q643 520 648.5 514 Q654 508 653 492 L645 419 Q644 403 635.5 396.5 Q627 390 611 390 L479 390 Q463 390 457.5 396.5 Q452 403 453 419 L461 492 Q462 508 470.5 514 Q479 520 495 520 Z M83 520 L215 520 Q231 520 236.5 514 Q242 508 241 492 L233 419 Q232 403 223.5 396.5 Q215 390 199 390 L67 390 Q51 390 45.5 396.5 Q40 403 41 419 L49 492 Q50 508 58.5 514 Q67 520 83 520 Z " />
<glyph glyph-name="degree" unicode="&#xb0;" horiz-adv-x="422" d="M58 475 L69 569 Q76 623 113.5 655.5 Q151 688 254 688 Q341 688 380 660.5 Q419 633 419 586 Q419 585 419 579 Q419 573 418 569 L407 475 Q400 421 362.5 388.5 Q325 356 223 356 Q135 356 96 383.5 Q57 411 57 458 Q57 460 57 465.5 Q57 471 58 475 Z M274 481 L284 564 L284 566 Q284 578 270.5 582 Q257 586 244 586 Q231 586 217.5 581.5 Q204 577 203 564 L193 481 L193 479 Q193 466 206 462 Q219 458 232 458 Q246 458 259.5 462.5 Q273 467 274 481 Z " />
<glyph glyph-name="cent" unicode="&#xa2;" horiz-adv-x="511" d="M316 30 Q314 14 307.5 7 Q301 0 285 0 L182 0 Q166 0 160 7 Q154 14 156 30 L163 89 Q100 101 68 135 Q36 169 36 218 Q36 223 36 227 Q36 231 37 238 L62 442 Q69 502 107.5 541.5 Q146 581 225 593 L232 650 Q234 666 241.5 673 Q249 680 265 680 L368 680 Q384 680 389 673 Q394 666 392 650 L384 588 Q441 573 468 539.5 Q495 506 495 461 Q495 457 495 453.5 Q495 450 494 440 L493 427 Q492 411 484 404.5 Q476 398 460 398 L366 398 Q352 398 346.5 405 Q341 412 341 425 L341 439 Q341 458 327.5 465.5 Q314 473 286 473 Q255 473 239.5 464 Q224 455 221 430 L201 268 Q200 263 199 254.5 Q198 246 198 242 Q198 223 212 215 Q226 207 254 207 Q285 207 301 216.5 Q317 226 319 251 L320 263 Q321 279 328.5 285.5 Q336 292 352 292 L447 292 Q464 292 468.5 283.5 Q473 275 472 263 L470 238 Q466 181 431 142 Q396 103 323 89 L316 30 Z " />
<glyph glyph-name="sterling" unicode="&#xa3;" horiz-adv-x="649" d="M300 397 L388 397 Q405 397 410.5 389.5 Q416 382 415 369 L406 296 Q404 280 396 273.5 Q388 267 372 267 L284 267 L267 130 L397 130 Q423 130 435 148 Q447 166 450 197 L451 208 Q452 224 460.5 231 Q469 238 485 238 L582 238 Q599 238 603.5 229.5 Q608 221 607 208 L606 197 Q596 84 548 42 Q500 0 425 0 L32 0 Q16 0 10.5 7.5 Q5 15 6 29 L15 102 Q17 118 24.5 124 Q32 130 48 130 L102 130 L119 267 L65 267 Q48 267 43 274.5 Q38 282 39 296 L48 369 Q50 385 57.5 391 Q65 397 81 397 L135 397 L150 517 Q158 581 212.5 634.5 Q267 688 401 688 Q517 688 569.5 642 Q622 596 622 537 Q622 534 622 528 Q622 522 621 517 L616 481 Q614 465 607.5 458 Q601 451 585 451 L485 451 Q470 451 463.5 459 Q457 467 459 481 L460 488 Q461 492 461 496 Q461 500 461 501 Q461 529 442 541 Q423 553 391 553 Q359 553 337 537.5 Q315 522 311 488 L300 397 Z " />
<glyph glyph-name="section" unicode="&#xa7;" horiz-adv-x="516" d="M448 217 Q446 201 439 194.5 Q432 188 416 188 L326 188 Q314 188 306 194 Q298 200 300 217 L306 268 L306 276 Q306 285 301.5 291.5 Q297 298 282 303 L160 343 Q123 355 93.5 386 Q64 417 64 466 Q64 469 64 474 Q64 479 65 483 L72 535 Q81 602 133.5 645 Q186 688 302 688 Q406 688 455.5 654 Q505 620 505 558 L505 548 L504 530 Q503 514 495 507.5 Q487 501 471 501 L381 501 Q366 501 360.5 507.5 Q355 514 356 530 L357 545 L357 549 Q357 571 342.5 578.5 Q328 586 298 586 Q267 586 250 577.5 Q233 569 230 544 L224 494 L224 489 Q224 474 234.5 466.5 Q245 459 258 455 L376 416 Q420 401 439 374.5 Q458 348 458 309 Q458 303 457.5 297 Q457 291 456 284 L448 217 Z M48 205 L56 272 Q58 288 65 294.5 Q72 301 88 301 L178 301 Q190 301 198 295 Q206 289 204 272 L198 221 L198 213 Q198 204 202.5 197.5 Q207 191 222 186 L344 146 Q381 134 410.5 103 Q440 72 440 23 Q440 20 440 15 Q440 10 439 6 L432 -46 Q423 -113 370.5 -156 Q318 -199 202 -199 Q98 -199 48.5 -165 Q-1 -131 -1 -69 L-1 -59 L0 -41 Q1 -25 9 -18.5 Q17 -12 33 -12 L123 -12 Q138 -12 143.5 -18.5 Q149 -25 148 -41 L147 -56 L147 -60 Q147 -82 161.5 -89.5 Q176 -97 206 -97 Q237 -97 254 -88.5 Q271 -80 274 -55 L280 -5 L280 0 Q280 15 269.5 22.5 Q259 30 246 34 L128 73 Q84 88 65 114.5 Q46 141 46 180 Q46 186 46.5 192 Q47 198 48 205 Z " />
<glyph glyph-name="bullet" unicode="&#x2022;" horiz-adv-x="309" d="M244 352 L225 199 Q223 183 216 176.5 Q209 170 193 170 L87 170 Q71 170 65.5 176.5 Q60 183 62 199 L81 352 Q83 368 90 375 Q97 382 113 382 L219 382 Q235 382 240.5 375 Q246 368 244 352 Z " />
<glyph glyph-name="paragraph" unicode="&#xb6;" horiz-adv-x="680" d="M665 650 L564 -169 Q562 -185 555 -192 Q548 -199 532 -199 L424 -199 Q411 -199 404 -193 Q397 -187 399 -169 L500 650 Q502 666 509 673 Q516 680 532 680 L640 680 Q656 680 661 672 Q666 664 665 650 Z M441 650 L340 -169 Q338 -185 331 -192 Q324 -199 308 -199 L200 -199 Q187 -199 180 -192.5 Q173 -186 175 -169 L230 282 L216 282 Q124 282 81 314 Q38 346 38 397 Q38 401 38 405 Q38 409 39 413 L56 549 Q63 603 102.5 641.5 Q142 680 265 680 L414 680 Q430 680 436 671.5 Q442 663 441 650 Z " />
<glyph glyph-name="germandbls" unicode="&#xdf;" horiz-adv-x="661" d="M429 -8 Q339 -8 302.5 23.5 Q266 55 266 109 Q266 112 266 117 Q266 122 267 129 L268 140 Q269 156 277 162.5 Q285 169 301 169 L371 169 Q388 169 392.5 161.5 Q397 154 396 140 L395 130 L395 123 Q395 106 405.5 98.5 Q416 91 434 91 Q453 91 465 100.5 Q477 110 480 131 L483 154 L483 157 Q483 167 475.5 174 Q468 181 460 185 L361 232 Q332 245 314 269 Q296 293 296 332 Q296 336 296 341.5 Q296 347 297 353 L300 373 Q304 404 321.5 426.5 Q339 449 370 463 L414 483 Q436 493 443 504 Q450 515 451 527 L453 544 L453 551 Q453 573 434 585.5 Q415 598 374 598 Q330 598 309 583.5 Q288 569 285 544 L222 30 Q220 14 213 7 Q206 0 190 0 L87 0 Q71 0 66 7.5 Q61 15 62 30 L104 373 L54 373 Q41 373 33.5 380 Q26 387 28 402 L36 463 Q38 479 45.5 485 Q53 491 68 492 L118 498 L119 498 L126 552 Q135 623 197.5 665.5 Q260 708 384 708 Q491 708 547.5 671.5 Q604 635 604 574 Q604 569 603.5 563 Q603 557 602 552 L597 517 Q593 486 572.5 460 Q552 434 521 420 L448 387 Q439 383 435 378.5 Q431 374 431 369 L431 367 Q431 360 436.5 355.5 Q442 351 449 347 L557 291 Q588 275 609.5 249.5 Q631 224 631 193 Q631 192 631 188 Q631 184 630 177 L626 141 Q619 75 576.5 33.5 Q534 -8 429 -8 Z " />
<glyph glyph-name="registered" unicode="&#xae;" horiz-adv-x="643" d="M605 511 L605 323 Q605 268 561 207 Q517 146 337 146 Q157 146 112.5 207 Q68 268 68 323 L68 511 Q68 566 112.5 627 Q157 688 337 688 Q517 688 561 627 Q605 566 605 511 Z M501 313 L501 521 Q501 556 467 577 Q433 598 337 598 Q241 598 206.5 576.5 Q172 555 172 520 L172 314 Q172 279 206.5 257.5 Q241 236 337 236 Q433 236 467 257 Q501 278 501 313 Z M343 480 L320 480 L320 441 L343 441 Q343 441 352.5 443.5 Q362 446 362 456 L362 464 Q362 476 353 478 Q344 480 343 480 Z M300 280 L234 280 Q224 280 219 285.5 Q214 291 214 301 L214 535 Q214 545 219 550 Q224 555 234 555 L355 555 Q428 555 448.5 527 Q469 499 469 468 L469 453 Q469 434 462.5 415.5 Q456 397 437 384 L468 301 Q471 292 465.5 286 Q460 280 448 280 L378 280 Q369 280 366 285.5 Q363 291 359 301 L334 365 L320 365 L320 301 Q320 291 315 285.5 Q310 280 300 280 Z " />
<glyph glyph-name="copyright" unicode="&#xa9;" horiz-adv-x="786" d="M740 432 L740 249 Q740 160 683.5 76 Q627 -8 399 -8 Q171 -8 114.5 76 Q58 160 58 249 L58 432 Q58 521 114.5 604.5 Q171 688 399 688 Q627 688 683.5 604.5 Q740 521 740 432 Z M625 226 L625 455 Q625 515 571.5 553.5 Q518 592 399 592 Q280 592 226.5 553 Q173 514 173 454 L173 227 Q173 167 226.5 128 Q280 89 399 89 Q518 89 571.5 127.5 Q625 166 625 226 Z M401 545 Q501 545 541.5 507.5 Q582 470 582 399 L582 393 Q582 377 575.5 370.5 Q569 364 553 364 L470 364 Q454 364 447.5 370.5 Q441 377 441 393 L441 396 Q441 421 429 430 Q417 439 401 439 Q384 439 372.5 430 Q361 421 361 396 L361 285 Q361 260 372.5 250.5 Q384 241 401 241 Q417 241 429 250.5 Q441 260 441 285 L441 294 Q441 310 447.5 316.5 Q454 323 470 323 L553 323 Q569 323 575.5 316.5 Q582 310 582 294 L582 280 Q582 209 541 171.5 Q500 134 400 134 Q301 134 260 171.5 Q219 209 219 280 L219 399 Q219 470 260.5 507.5 Q302 545 401 545 Z " />
<glyph glyph-name="trademark" unicode="&#x2122;" horiz-adv-x="896" d="M99 680 L375 680 Q388 680 393 675 Q398 670 397 657 L389 593 Q388 580 381 574.5 Q374 569 361 569 L291 569 L258 297 Q257 284 250.5 278 Q244 272 231 272 L144 272 Q131 272 126.5 278 Q122 284 123 297 L156 569 L85 569 Q72 569 67 574.5 Q62 580 63 593 L71 657 Q72 670 79 675 Q86 680 99 680 Z M884 655 L840 297 Q839 284 832.5 278 Q826 272 813 272 L732 272 Q719 272 714.5 278 Q710 284 711 297 L728 437 Q724 428 720.5 420 Q717 412 714 407 L686 358 Q679 347 671.5 340.5 Q664 334 651 334 L595 334 Q582 334 575 340.5 Q568 347 564 358 L545 409 Q543 416 541 425 Q539 434 539 444 L521 297 Q520 284 514 278 Q508 272 495 272 L418 272 Q405 272 400 278 Q395 284 396 297 L440 655 Q441 668 448 674 Q455 680 468 680 L544 680 Q552 680 556.5 677.5 Q561 675 563 669 L627 517 Q631 509 634 499.5 Q637 490 639 480 Q644 490 649 498.5 Q654 507 658 514 L757 669 Q760 674 766 677 Q772 680 781 680 L863 680 Q876 680 880.5 674 Q885 668 884 655 Z " />
<glyph glyph-name="acute" unicode="&#xb4;" horiz-adv-x="306" d="M350 678 L269 577 Q263 570 253 563.5 Q243 557 227 557 L145 557 Q132 557 128 563.5 Q124 570 133 586 L184 678 Q191 691 202 699.5 Q213 708 229 708 L339 708 Q355 708 357.5 699.5 Q360 691 350 678 Z " />
<glyph glyph-name="dieresis" unicode="&#xa8;" horiz-adv-x="407" d="M422 678 L411 586 Q409 570 402 563.5 Q395 557 379 557 L319 557 Q303 557 297.5 563.5 Q292 570 294 586 L305 678 Q307 694 314.5 701 Q322 708 338 708 L398 708 Q414 708 419 701 Q424 694 422 678 Z M267 678 L256 586 Q254 570 247 563.5 Q240 557 224 557 L164 557 Q148 557 142.5 563.5 Q137 570 139 586 L150 678 Q152 694 159.5 701 Q167 708 183 708 L243 708 Q259 708 264 701 Q269 694 267 678 Z " />
<glyph glyph-name="notequal" unicode="&#x2260;" horiz-adv-x="602" d="M295 95 Q289 79 281 72 Q273 65 257 65 L162 65 Q149 65 143.5 72.5 Q138 80 143 95 L161 144 L93 144 Q77 144 70 150.5 Q63 157 63 173 L63 246 Q63 262 70 268 Q77 274 93 274 L209 274 L240 360 L93 360 Q77 360 70 366.5 Q63 373 63 389 L63 462 Q63 478 70 484 Q77 490 93 490 L288 490 L306 540 Q311 555 319 562.5 Q327 570 343 570 L439 570 Q455 570 459.5 562 Q464 554 459 540 L441 490 L510 490 Q526 490 533 484 Q540 478 540 462 L540 389 Q540 373 533 366.5 Q526 360 510 360 L393 360 L361 274 L510 274 Q526 274 533 268 Q540 262 540 246 L540 173 Q540 157 533 150.5 Q526 144 510 144 L313 144 L295 95 Z " />
<glyph glyph-name="AE" unicode="&#xc6;" horiz-adv-x="821" d="M361 353 L292 256 L384 256 L404 420 Q392 400 380.5 382.5 Q369 365 361 353 Z M-12 0 Q-27 0 -33.5 8.5 Q-40 17 -30 30 L419 651 Q424 658 435.5 669 Q447 680 466 680 L798 680 Q814 680 820.5 674 Q827 668 825 652 L815 576 Q813 560 805.5 553.5 Q798 547 782 547 L576 547 L559 414 L749 414 Q765 414 771.5 408 Q778 402 776 386 L767 315 Q765 299 757.5 292.5 Q750 286 734 286 L544 286 L525 133 L741 133 Q757 133 763.5 127 Q770 121 768 105 L758 29 Q756 13 748.5 6.5 Q741 0 725 0 L382 0 Q366 0 360 7 Q354 14 356 30 L368 126 L199 126 L131 30 Q124 20 114.5 10 Q105 0 92 0 L-12 0 Z " />
<glyph glyph-name="Oslash" unicode="&#xd8;" horiz-adv-x="611" d="M239 488 L208 241 L396 541 Q385 547 369.5 550 Q354 553 336 553 Q303 553 273 537.5 Q243 522 239 488 Z M287 127 Q324 127 351.5 142.5 Q379 158 383 192 L414 439 L227 139 Q238 133 253.5 130 Q269 127 287 127 Z M135 -7 Q125 -23 117 -30 Q109 -37 93 -37 L59 -37 Q48 -37 47 -28 Q46 -19 53 -7 L84 43 Q58 63 45.5 90 Q33 117 33 145 Q33 149 33.5 156.5 Q34 164 35 171 L77 517 Q84 581 144 634.5 Q204 688 348 688 Q387 688 419 683 Q451 678 476 669 L488 688 Q495 700 504 709 Q513 718 528 718 L564 718 Q577 718 577 708 Q577 698 570 688 L538 637 Q564 616 576.5 589.5 Q589 563 589 535 Q589 531 588.5 523.5 Q588 516 587 509 L545 163 Q538 99 477.5 45.5 Q417 -8 273 -8 Q235 -8 203 -3 Q171 2 146 10 L135 -7 Z " />
<glyph glyph-name="infinity" unicode="&#x221e;" horiz-adv-x="410" d="M45 349 L180 484 Q187 491 193 494 Q199 497 205 497 Q211 497 217 494 Q223 491 230 484 L365 349 Q372 342 375 336 Q378 330 378 324 Q378 318 375 312 Q372 306 365 299 L230 164 Q223 157 217 153.5 Q211 150 205 150 Q199 150 193 153.5 Q187 157 180 164 L45 299 Q38 306 34.5 312 Q31 318 31 324 Q31 330 34.5 336 Q38 342 45 349 Z M194 469 L60 335 Q57 332 55.5 329 Q54 326 54 323 Q54 321 55.5 318 Q57 315 59 313 L194 178 Q197 175 199.5 174 Q202 173 205 173 Q208 173 210.5 174 Q213 175 216 178 L351 313 Q353 315 354.5 318 Q356 321 356 323 Q356 326 354.5 329 Q353 332 350 335 L216 469 Q213 472 210.5 473 Q208 474 205 474 Q202 474 199 472.5 Q196 471 194 469 Z " />
<glyph glyph-name="plusminus" unicode="&#xb1;" horiz-adv-x="566" d="M211 237 L211 317 L81 317 Q65 317 58 323.5 Q51 330 51 346 L51 419 Q51 435 58 441 Q65 447 81 447 L211 447 L211 528 Q211 544 217 551 Q223 558 239 558 L312 558 Q328 558 334.5 551 Q341 544 341 528 L341 447 L472 447 Q488 447 495 441 Q502 435 502 419 L502 346 Q502 330 495 323.5 Q488 317 472 317 L341 317 L341 237 Q341 221 334.5 214 Q328 207 312 207 L239 207 Q223 207 217 214 Q211 221 211 237 Z M81 153 L472 153 Q488 153 495 147 Q502 141 502 125 L502 52 Q502 36 495 29.5 Q488 23 472 23 L81 23 Q65 23 58 29.5 Q51 36 51 52 L51 125 Q51 141 58 147 Q65 153 81 153 Z " />
<glyph glyph-name="lessequal" unicode="&#x2264;" horiz-adv-x="526" d="M439 493 L209 432 L439 372 Q452 368 460.5 361.5 Q469 355 469 339 L469 241 Q469 225 462 215.5 Q455 206 439 212 L81 343 Q70 347 62 353 Q54 359 54 375 L54 490 Q54 506 62 512 Q70 518 81 522 L439 653 Q454 658 461.5 649 Q469 640 469 624 L469 526 Q469 510 460.5 503.5 Q452 497 439 493 Z M84 180 L439 180 Q455 180 462 174 Q469 168 469 152 L469 79 Q469 63 462 56.5 Q455 50 439 50 L84 50 Q68 50 61 56.5 Q54 63 54 79 L54 152 Q54 168 61 174 Q68 180 84 180 Z " />
<glyph glyph-name="greaterequal" unicode="&#x2265;" horiz-adv-x="538" d="M330 432 L100 493 Q87 497 78.5 503.5 Q70 510 70 526 L70 624 Q70 640 77.5 649 Q85 658 100 653 L458 522 Q469 518 477 512 Q485 506 485 490 L485 375 Q485 359 477 353 Q469 347 458 343 L100 212 Q84 206 77 215.5 Q70 225 70 241 L70 339 Q70 355 78.5 361.5 Q87 368 100 372 L330 432 Z M100 180 L455 180 Q471 180 478 174 Q485 168 485 152 L485 79 Q485 63 478 56.5 Q471 50 455 50 L100 50 Q84 50 77 56.5 Q70 63 70 79 L70 152 Q70 168 77 174 Q84 180 100 180 Z " />
<glyph glyph-name="yen" unicode="&#xa5;" horiz-adv-x="590" d="M346 30 Q344 14 337.5 7 Q331 0 315 0 L207 0 Q191 0 185 7 Q179 14 181 30 L204 216 L76 216 Q60 216 54.5 222.5 Q49 229 50 245 L55 288 Q56 304 64.5 310 Q73 316 89 316 L179 316 L165 360 L94 360 Q78 360 72.5 366.5 Q67 373 68 389 L73 432 Q74 448 82 454 Q90 460 106 460 L133 460 L72 650 Q68 663 74.5 671.5 Q81 680 97 680 L217 680 Q233 680 239.5 671.5 Q246 663 249 650 L296 451 Q299 438 301.5 424 Q304 410 306 391 Q313 410 319.5 424.5 Q326 439 333 451 L441 650 Q448 663 456 671.5 Q464 680 480 680 L588 680 Q604 680 609 672 Q614 664 606 650 L495 460 L527 460 Q543 460 549 454 Q555 448 554 432 L549 389 Q548 373 539.5 366.5 Q531 360 515 360 L437 360 L411 316 L510 316 Q526 316 531.5 310 Q537 304 536 288 L531 245 Q530 229 521.5 222.5 Q513 216 497 216 L369 216 L346 30 Z " />
<glyph glyph-name="mu" unicode="&#x3bc;" horiz-adv-x="558" d="M320 29 L320 45 Q298 29 262.5 10.5 Q227 -8 172 -8 L168 -8 L157 -169 Q156 -185 148.5 -192 Q141 -199 125 -199 L22 -199 Q6 -199 0.5 -192 Q-5 -185 -3 -169 L76 470 Q78 486 85.5 493 Q93 500 109 500 L210 500 Q222 500 230 494 Q238 488 236 470 L200 172 Q199 167 199 163 Q199 159 199 155 Q199 141 206 135 Q213 129 232 129 Q260 129 287.5 143 Q315 157 331 168 L368 470 Q370 486 377 493 Q384 500 400 500 L503 500 Q520 500 524.5 492 Q529 484 528 470 L474 29 Q472 13 464.5 6.5 Q457 0 441 0 L345 0 Q330 0 325 6.5 Q320 13 320 29 Z " />
<glyph glyph-name="partialdiff" unicode="&#x2202;" horiz-adv-x="410" d="M85 183 L85 470 Q85 483 97.5 484.5 Q110 486 122 479 L339 345 Q349 338 349 327 Q349 316 339 309 L122 175 Q110 168 97.5 168.5 Q85 169 85 183 Z " />
<glyph glyph-name="summation" unicode="&#x2211;" horiz-adv-x="410" d="M325 470 L325 183 Q325 169 312.5 168.5 Q300 168 288 175 L71 309 Q61 316 61 327 Q61 338 71 345 L288 479 Q300 486 312.5 484.5 Q325 483 325 470 Z " />
<glyph glyph-name="product" unicode="&#x220f;" horiz-adv-x="410" d="M350 192 L63 192 Q50 192 48.5 204.5 Q47 217 54 229 L188 446 Q195 456 206 456 Q217 456 224 446 L358 229 Q365 217 364.5 204.5 Q364 192 350 192 Z " />
<glyph glyph-name="pi" unicode="&#x3c0;" horiz-adv-x="347" d="M43 461 L330 461 Q343 461 344.5 448.5 Q346 436 339 424 L205 207 Q198 197 187 197 Q176 197 169 207 L35 424 Q28 436 28.5 448.5 Q29 461 43 461 Z " />
<glyph glyph-name="integral" unicode="&#x222b;" horiz-adv-x="410" d="M20 323 Q20 399 74 453.5 Q128 508 204 508 Q280 508 334.5 453.5 Q389 399 389 323 Q389 247 334.5 193 Q280 139 204 139 Q128 139 74 193 Q20 247 20 323 Z " />
<glyph glyph-name="ordfeminine" unicode="&#xaa;" horiz-adv-x="399" d="M196 572 L187 498 Q186 492 186 489.5 Q186 487 186 483 Q186 474 191 469 Q196 464 206 464 Q221 464 234.5 474.5 Q248 485 252 489 L262 572 Q259 576 248.5 586.5 Q238 597 222 597 Q206 597 201.5 589 Q197 581 196 572 Z M244 409 Q231 399 210.5 387.5 Q190 376 153 376 Q114 376 87 396.5 Q60 417 60 453 Q60 457 60 460 Q60 463 61 469 L77 595 Q82 638 110 663 Q138 688 186 688 Q218 688 239.5 677.5 Q261 667 272 657 L275 665 Q279 674 282 678.5 Q285 683 295 683 L379 683 Q386 683 390.5 679 Q395 675 394 665 L362 399 Q361 389 356 385 Q351 381 342 381 L260 381 Q252 381 248 385 Q244 389 244 399 L244 409 Z " />
<glyph glyph-name="ordmasculine" unicode="&#xba;" horiz-adv-x="373" d="M61 491 L73 587 Q79 633 116.5 660.5 Q154 688 229 688 Q292 688 332 663.5 Q372 639 372 598 Q372 595 371.5 589.5 Q371 584 370 578 L357 476 Q351 430 313 403 Q275 376 201 376 Q138 376 98 400 Q58 424 58 465 Q58 468 59 477 Q60 486 61 491 Z M237 486 L247 571 Q248 577 248 579 Q248 581 248 582 Q248 592 239 594.5 Q230 597 222 597 Q213 597 203.5 594 Q194 591 193 579 L183 494 Q182 488 182 486 Q182 484 182 483 Q182 472 191.5 469 Q201 466 209 466 Q218 466 227 469.5 Q236 473 237 486 Z " />
<glyph glyph-name="Omega" unicode="&#x3a9;" horiz-adv-x="410" d="M62 323 Q62 381 104 423.5 Q146 466 204 466 Q262 466 304.5 423.5 Q347 381 347 323 Q347 265 304.5 223 Q262 181 204 181 Q146 181 104 223 Q62 265 62 323 Z M83 323 Q83 272 118 237 Q153 202 204 202 Q254 202 290 237 Q326 272 326 323 Q326 373 290 409 Q254 445 204 445 Q153 445 118 409 Q83 373 83 323 Z " />
<glyph glyph-name="ae" unicode="&#xe6;" horiz-adv-x="780" d="M748 352 L735 241 Q734 227 726 220.5 Q718 214 704 214 L461 214 L454 156 Q453 151 453 149 Q453 147 453 146 Q453 127 467.5 118.5 Q482 110 510 110 Q541 110 556 120 Q571 130 574 149 L575 155 Q577 171 584.5 177.5 Q592 184 608 184 L694 184 Q707 184 713.5 178 Q720 172 719 155 L718 145 Q711 76 664 34 Q617 -8 501 -8 Q436 -8 391 8 Q346 24 322 52 Q300 34 261 13 Q222 -8 161 -8 Q87 -8 49 24 Q11 56 11 102 Q11 103 11 108.5 Q11 114 12 120 L17 163 Q23 217 65.5 254.5 Q108 292 193 292 L314 292 L320 339 Q321 344 321.5 349 Q322 354 322 356 Q322 375 309.5 384 Q297 393 269 393 Q238 393 223 385 Q208 377 206 354 L205 345 Q204 329 196 322.5 Q188 316 172 316 L81 316 Q68 316 61.5 321.5 Q55 327 56 345 L57 357 Q63 428 115 468 Q167 508 278 508 Q326 508 357.5 497 Q389 486 408 468 Q431 485 466 496.5 Q501 508 553 508 Q651 508 700 471.5 Q749 435 749 373 Q749 369 749 363 Q749 357 748 352 Z M478 345 L474 316 L595 316 L598 337 Q599 341 599 346.5 Q599 352 599 353 Q599 371 585 380.5 Q571 390 543 390 Q512 390 496.5 378.5 Q481 367 478 345 Z M201 116 Q226 116 252 128 Q278 140 297 152 L301 186 L210 186 Q188 186 180.5 176 Q173 166 172 155 L171 142 L171 138 Q171 124 181 120 Q191 116 201 116 Z " />
<glyph glyph-name="oslash" unicode="&#xf8;" horiz-adv-x="537" d="M206 339 L188 195 L310 380 Q303 381 295 382 Q287 383 280 383 Q249 383 229 373.5 Q209 364 206 339 Z M248 117 Q279 117 299 127 Q319 137 322 162 L340 306 L218 119 Q225 118 232.5 117.5 Q240 117 248 117 Z M135 -7 Q125 -23 116.5 -30 Q108 -37 92 -37 L60 -37 Q47 -37 48.5 -26.5 Q50 -16 56 -7 L79 29 Q51 47 36 73 Q21 99 21 131 Q21 135 21 139.5 Q21 144 22 148 L47 352 Q56 423 115.5 465.5 Q175 508 291 508 Q318 508 342 505 Q366 502 386 497 L394 509 Q401 520 410 529.5 Q419 539 433 539 L468 539 Q481 539 481 530 Q481 521 473 509 L449 472 Q477 454 491.5 428 Q506 402 506 371 Q506 367 506 361.5 Q506 356 505 352 L480 148 Q471 77 412 34.5 Q353 -8 237 -8 Q210 -8 186 -5 Q162 -2 141 3 L135 -7 Z " />
<glyph glyph-name="questiondown" unicode="&#xbf;" horiz-adv-x="531" d="M230 388 L240 471 Q242 487 249 493.5 Q256 500 272 500 L380 500 Q393 500 400 495 Q407 490 405 471 L395 388 Q393 372 385.5 365 Q378 358 362 358 L254 358 Q237 358 233 366 Q229 374 230 388 Z M382 281 L374 216 Q369 176 349 158.5 Q329 141 302 128 L193 76 Q180 70 169 59 Q158 48 154 23 L152 9 Q151 2 151 -1.5 Q151 -5 151 -8 Q151 -32 172 -44 Q193 -56 225 -56 Q260 -56 284.5 -40.5 Q309 -25 313 9 L318 45 Q320 61 326.5 68 Q333 75 349 75 L452 75 Q464 75 472 69 Q480 63 478 45 L470 -17 Q462 -81 407 -134.5 Q352 -188 214 -188 Q92 -188 38.5 -138.5 Q-15 -89 -15 -32 Q-15 -28 -15 -23 Q-15 -18 -14 -10 L-10 24 Q-1 101 35.5 134.5 Q72 168 108 183 L170 209 Q195 219 203 228 Q211 237 214 259 L217 281 Q219 297 225.5 303.5 Q232 310 248 310 L356 310 Q372 310 377.5 302.5 Q383 295 382 281 Z " />
<glyph glyph-name="exclamdown" unicode="&#xa1;" horiz-adv-x="263" d="M63 388 L73 471 Q75 487 81.5 493.5 Q88 500 104 500 L212 500 Q228 500 234 493.5 Q240 487 238 471 L228 388 Q226 372 218.5 365 Q211 358 195 358 L87 358 Q71 358 66 365 Q61 372 63 388 Z M26 110 L63 280 Q67 296 73 303 Q79 310 95 310 L172 310 Q188 310 193 303 Q198 296 197 280 L192 110 L161 -150 Q159 -166 151.5 -173 Q144 -180 128 -180 L19 -180 Q3 -180 -2 -173 Q-7 -166 -5 -150 L26 110 Z " />
<glyph glyph-name="logicalnot" unicode="&#xac;" horiz-adv-x="335" d="M39 323 Q39 377 77.5 416 Q116 455 170 455 Q224 455 263 416 Q302 377 302 323 Q302 269 263 230.5 Q224 192 170 192 Q116 192 77.5 230.5 Q39 269 39 323 Z " />
<glyph glyph-name="radical" unicode="&#x221a;" horiz-adv-x="410" d="M110 455 L300 455 Q319 455 327.5 446.5 Q336 438 336 419 L336 229 Q336 210 327.5 201.5 Q319 193 300 193 L110 193 Q91 193 82.5 201.5 Q74 210 74 229 L74 419 Q74 438 82.5 446.5 Q91 455 110 455 Z M300 434 L110 434 Q103 434 98.5 430 Q94 426 94 419 L94 229 Q94 222 98.5 217.5 Q103 213 110 213 L300 213 Q307 213 311 217.5 Q315 222 315 229 L315 419 Q315 426 311 430 Q307 434 300 434 Z " />
<glyph glyph-name="florin" unicode="&#x192;" horiz-adv-x="447" d="M50 -36 L129 317 L82 317 Q66 317 60.5 323.5 Q55 330 57 346 L65 413 Q67 429 74 435.5 Q81 442 97 442 L157 442 L182 552 Q198 623 254.5 665.5 Q311 708 424 708 L455 708 Q471 708 477.5 701.5 Q484 695 482 679 L473 608 Q471 592 463 585 Q455 578 439 578 L415 578 Q384 578 364.5 568.5 Q345 559 339 534 L317 442 L378 442 Q394 442 400 436 Q406 430 405 414 L397 346 Q396 330 387.5 323.5 Q379 317 363 317 L290 317 L207 -54 Q191 -125 134 -167.5 Q77 -210 -36 -210 L-66 -210 Q-82 -210 -88 -203.5 Q-94 -197 -92 -181 L-83 -110 Q-81 -94 -73.5 -87 Q-66 -80 -50 -80 L-27 -80 Q4 -80 24.5 -70.5 Q45 -61 50 -36 Z " />
<glyph glyph-name="approxequal" unicode="&#x2248;" horiz-adv-x="508" d="M462 445 L457 399 Q452 349 425.5 325 Q399 301 368 301 Q349 301 331 306 Q313 311 303 315 L214 356 Q203 361 196 363 Q189 365 183 365 Q170 365 165 359.5 Q160 354 160 341 L160 334 Q160 318 151 313 Q142 308 128 308 L76 308 Q61 308 56 317 Q51 326 52 342 L57 398 Q61 447 89 467 Q117 487 145 487 Q158 487 175.5 484 Q193 481 206 475 L294 436 Q307 430 316 427.5 Q325 425 333 425 Q340 425 346.5 429.5 Q353 434 353 445 L353 453 Q353 469 361.5 474 Q370 479 385 479 L437 479 Q453 479 458 470 Q463 461 462 445 Z M462 243 L457 197 Q452 147 425.5 123 Q399 99 368 99 Q349 99 331 104 Q313 109 303 113 L214 154 Q203 159 196 161 Q189 163 183 163 Q170 163 165 157.5 Q160 152 160 139 L160 132 Q160 116 151 111 Q142 106 128 106 L76 106 Q61 106 56 115 Q51 124 52 140 L57 196 Q61 245 89 265 Q117 285 145 285 Q158 285 175.5 282 Q193 279 206 273 L294 234 Q307 228 316 225.5 Q325 223 333 223 Q340 223 346.5 227.5 Q353 232 353 243 L353 251 Q353 267 361.5 272 Q370 277 385 277 L437 277 Q453 277 458 268 Q463 259 462 243 Z " />
<glyph glyph-name="increment" unicode="&#x394;" horiz-adv-x="410" d="M110 445 L300 445 Q313 445 319.5 438.5 Q326 432 326 419 L326 229 Q326 216 319.5 209.5 Q313 203 300 203 L110 203 Q97 203 90.5 209.5 Q84 216 84 229 L84 419 Q84 432 90.5 438.5 Q97 445 110 445 Z " />
<glyph glyph-name="guillemotleft" unicode="&#xab;" horiz-adv-x="584" d="M412 244 L495 185 Q506 177 513.5 168 Q521 159 520 144 L508 46 Q506 30 496 23.5 Q486 17 475 25 L302 156 Q293 163 286 173 Q279 183 280 196 L292 295 Q293 309 303.5 319 Q314 329 324 335 L529 466 Q541 473 549.5 467 Q558 461 557 445 L545 343 Q544 327 533 318 Q522 309 510 302 L412 244 Z M154 244 L237 185 Q248 177 255.5 168 Q263 159 262 144 L250 46 Q248 30 238 23.5 Q228 17 217 25 L44 156 Q35 163 28 173 Q21 183 22 196 L34 295 Q35 309 45.5 319 Q56 329 66 335 L271 466 Q283 473 291.5 467 Q300 461 299 445 L287 343 Q286 327 275 318 Q264 309 252 302 L154 244 Z " />
<glyph glyph-name="guillemotright" unicode="&#xbb;" horiz-adv-x="582" d="M164 254 L81 313 Q70 321 62.5 330 Q55 339 56 354 L68 452 Q70 468 80 474.5 Q90 481 101 473 L274 342 Q283 335 290 325 Q297 315 296 302 L284 203 Q283 189 272.5 179 Q262 169 252 163 L47 32 Q35 25 26.5 31 Q18 37 19 53 L31 155 Q32 171 43 180 Q54 189 66 196 L164 254 Z M420 254 L337 313 Q326 321 318.5 330 Q311 339 312 354 L324 452 Q326 468 336 474.5 Q346 481 357 473 L530 342 Q539 335 546 325 Q553 315 552 302 L540 203 Q539 189 528.5 179 Q518 169 508 163 L303 32 Q291 25 282.5 31 Q274 37 275 53 L287 155 Q288 171 299 180 Q310 189 322 196 L420 254 Z " />
<glyph glyph-name="ellipsis" unicode="&#x2026;" horiz-adv-x="745" d="M187 112 L177 29 Q175 13 168 6.5 Q161 0 145 0 L39 0 Q23 0 17.5 6.5 Q12 13 14 29 L24 112 Q26 128 33.5 135 Q41 142 57 142 L163 142 Q179 142 184 135 Q189 128 187 112 Z M682 112 L672 29 Q670 13 663 6.5 Q656 0 640 0 L534 0 Q518 0 512.5 6.5 Q507 13 509 29 L519 112 Q521 128 528.5 135 Q536 142 552 142 L658 142 Q674 142 679 135 Q684 128 682 112 Z M435 112 L425 29 Q423 13 416 6.5 Q409 0 393 0 L287 0 Q271 0 265.5 6.5 Q260 13 262 29 L272 112 Q274 128 281.5 135 Q289 142 305 142 L411 142 Q427 142 432 135 Q437 128 435 112 Z " />
<glyph glyph-name="Agrave" unicode="&#xc0;" horiz-adv-x="565" d="M328 256 L321 310 Q314 368 314 419.5 Q314 471 315 520 Q304 471 289 412.5 Q274 354 256 310 L234 256 L328 256 Z M282 680 L390 680 Q406 680 413.5 672.5 Q421 665 423 650 L528 30 Q530 16 524.5 8 Q519 0 503 0 L394 0 Q378 0 371 8 Q364 16 362 30 L348 126 L182 126 L144 30 Q139 16 130.5 8 Q122 0 106 0 L3 0 Q-12 0 -16.5 8 Q-21 16 -15 30 L241 650 Q248 666 257 673 Q266 680 282 680 Z M260 747 L203 848 Q196 861 201 869.5 Q206 878 222 878 L327 878 Q343 878 351.5 869.5 Q360 861 364 848 L393 756 Q398 740 392 733.5 Q386 727 373 727 L296 727 Q280 727 272 733.5 Q264 740 260 747 Z " />
<glyph glyph-name="Atilde" unicode="&#xc3;" horiz-adv-x="565" d="M328 256 L321 310 Q314 368 314 419.5 Q314 471 315 520 Q304 471 289 412.5 Q274 354 256 310 L234 256 L328 256 Z M282 680 L390 680 Q406 680 413.5 672.5 Q421 665 423 650 L528 30 Q530 16 524.5 8 Q519 0 503 0 L394 0 Q378 0 371 8 Q364 16 362 30 L348 126 L182 126 L144 30 Q139 16 130.5 8 Q122 0 106 0 L3 0 Q-12 0 -16.5 8 Q-21 16 -15 30 L241 650 Q248 666 257 673 Q266 680 282 680 Z M259 770 Q252 770 247 766.5 Q242 763 240 757 L238 752 Q232 736 224.5 731.5 Q217 727 203 727 L152 727 Q137 727 132.5 736.5 Q128 746 132 761 L144 810 Q153 845 181 865.5 Q209 886 245 886 Q261 886 277.5 882.5 Q294 879 304 875 L344 859 Q355 855 363.5 851 Q372 847 377 847 Q384 847 389 850.5 Q394 854 397 860 L399 864 Q406 878 412.5 884 Q419 890 434 890 L488 890 Q504 890 508.5 881 Q513 872 509 856 L499 811 Q491 773 466.5 754 Q442 735 409 735 Q380 735 366 737.5 Q352 740 338 745 L295 760 Q284 764 275 767 Q266 770 259 770 Z " />
<glyph glyph-name="Otilde" unicode="&#xd5;" horiz-adv-x="611" d="M35 171 L77 517 Q84 581 144 634.5 Q204 688 348 688 Q475 688 532 641 Q589 594 589 535 Q589 531 588.5 523.5 Q588 516 587 509 L545 163 Q538 99 477.5 45.5 Q417 -8 273 -8 Q146 -8 89.5 38.5 Q33 85 33 145 Q33 149 33.5 156.5 Q34 164 35 171 Z M383 192 L419 479 Q420 486 420.5 491 Q421 496 421 498 Q421 527 397 540 Q373 553 336 553 Q303 553 273 537.5 Q243 522 239 488 L203 201 Q202 195 201.5 189.5 Q201 184 201 182 Q201 153 225.5 140 Q250 127 287 127 Q324 127 351.5 142.5 Q379 158 383 192 Z M308 770 Q301 770 296 766.5 Q291 763 289 757 L287 752 Q281 736 273.5 731.5 Q266 727 252 727 L201 727 Q186 727 181.5 736.5 Q177 746 181 761 L193 810 Q202 845 230 865.5 Q258 886 294 886 Q310 886 326.5 882.5 Q343 879 353 875 L393 859 Q404 855 412.5 851 Q421 847 426 847 Q433 847 438 850.5 Q443 854 446 860 L448 864 Q455 878 461.5 884 Q468 890 483 890 L537 890 Q553 890 557.5 881 Q562 872 558 856 L548 811 Q540 773 515.5 754 Q491 735 458 735 Q429 735 415 737.5 Q401 740 387 745 L344 760 Q333 764 324 767 Q315 770 308 770 Z " />
<glyph glyph-name="OE" unicode="&#x152;" horiz-adv-x="841" d="M382 192 L418 479 Q419 486 419.5 491 Q420 496 420 498 Q420 527 396.5 540 Q373 553 336 553 Q303 553 273 537.5 Q243 522 239 488 L203 201 Q202 195 201.5 189.5 Q201 184 201 182 Q201 153 225.5 140 Q250 127 287 127 Q324 127 351 142.5 Q378 158 382 192 Z M389 0 Q380 0 374.5 2.5 Q369 5 366 9 Q345 1 321 -3.5 Q297 -8 270 -8 Q143 -8 88 38.5 Q33 85 33 145 Q33 149 33.5 156.5 Q34 164 35 171 L77 517 Q84 579 139 634 Q194 689 325 689 Q356 689 386.5 683.5 Q417 678 444 666 Q448 673 455 676.5 Q462 680 472 680 L814 680 Q830 680 836.5 674 Q843 668 841 652 L831 574 Q829 558 821.5 551.5 Q814 545 798 545 L592 545 L576 415 L766 415 Q782 415 788 409 Q794 403 792 387 L783 314 Q781 298 773.5 291.5 Q766 285 750 285 L560 285 L541 135 L757 135 Q773 135 779.5 129 Q786 123 784 107 L774 29 Q772 13 764.5 6.5 Q757 0 741 0 L389 0 Z " />
<glyph glyph-name="oe" unicode="&#x153;" horiz-adv-x="803" d="M524 -8 Q478 -8 442 0 Q406 8 381 23 Q357 8 321.5 0 Q286 -8 237 -8 Q135 -8 78 30 Q21 68 21 131 Q21 135 21 139.5 Q21 144 22 148 L47 352 Q56 423 110.5 465.5 Q165 508 281 508 Q332 508 368.5 498.5 Q405 489 429 471 Q453 487 489 497.5 Q525 508 576 508 Q674 508 723 471.5 Q772 435 772 373 Q772 369 772 365 Q772 361 771 352 L758 241 Q757 227 749 220.5 Q741 214 727 214 L484 214 L477 156 Q476 151 476 149 Q476 147 476 146 Q476 127 490.5 118.5 Q505 110 533 110 Q564 110 579 120 Q594 130 597 149 L598 155 Q600 171 607.5 177.5 Q615 184 631 184 L717 184 Q730 184 736.5 178 Q743 172 742 155 L741 145 Q734 76 687 34 Q640 -8 524 -8 Z M618 316 L622 345 L622 353 Q622 371 608 380.5 Q594 390 566 390 Q535 390 519.5 378.5 Q504 367 501 345 L497 316 L618 316 Z M321 162 L342 328 Q343 335 343 339.5 Q343 344 343 345 Q343 368 324 375.5 Q305 383 280 383 Q249 383 229 373.5 Q209 364 206 339 L185 170 Q184 163 184 159 Q184 155 184 154 Q184 132 202 124.5 Q220 117 248 117 Q279 117 298.5 127 Q318 137 321 162 Z " />
<glyph glyph-name="endash" unicode="&#x2013;" horiz-adv-x="529" d="M80 353 L447 353 Q463 353 470 347 Q477 341 477 325 L477 252 Q477 236 470 229.5 Q463 223 447 223 L80 223 Q64 223 57 229.5 Q50 236 50 252 L50 325 Q50 341 57 347 Q64 353 80 353 Z " />
<glyph glyph-name="emdash" unicode="&#x2014;" horiz-adv-x="840" d="M80 353 L758 353 Q774 353 781 347 Q788 341 788 325 L788 252 Q788 236 781 229.5 Q774 223 758 223 L80 223 Q64 223 57 229.5 Q50 236 50 252 L50 325 Q50 341 57 347 Q64 353 80 353 Z " />
<glyph glyph-name="quotedblleft" unicode="&#x201c;" horiz-adv-x="527" d="M482 594 L473 524 Q471 508 463.5 501 Q456 494 440 494 L334 494 Q318 494 313 501 Q308 508 310 524 L320 603 Q329 671 376 708.5 Q423 746 504 763 Q520 766 527.5 762.5 Q535 759 539 743 L555 675 Q559 660 552.5 651 Q546 642 530 638 Q504 631 494 620.5 Q484 610 482 594 Z M236 594 L227 524 Q225 508 217.5 501 Q210 494 194 494 L88 494 Q72 494 67 501 Q62 508 64 524 L74 603 Q83 671 130 708.5 Q177 746 258 763 Q274 766 281.5 762.5 Q289 759 293 743 L309 675 Q313 660 306.5 651 Q300 642 284 638 Q258 631 248 620.5 Q238 610 236 594 Z " />
<glyph glyph-name="quotedblright" unicode="&#x201d;" horiz-adv-x="523" d="M136 663 L145 733 Q147 749 154.5 756 Q162 763 178 763 L284 763 Q300 763 305 756 Q310 749 308 733 L298 654 Q289 586 242 548.5 Q195 511 114 494 Q98 491 90.5 494.5 Q83 498 79 514 L63 582 Q59 597 65.5 606 Q72 615 88 619 Q114 626 124 636.5 Q134 647 136 663 Z M382 663 L391 733 Q393 749 400.5 756 Q408 763 424 763 L530 763 Q546 763 551 756 Q556 749 554 733 L544 654 Q535 586 488 548.5 Q441 511 360 494 Q344 491 336.5 494.5 Q329 498 325 514 L309 582 Q305 597 311.5 606 Q318 615 334 619 Q360 626 370 636.5 Q380 647 382 663 Z " />
<glyph glyph-name="quoteleft" unicode="&#x2018;" horiz-adv-x="281" d="M236 594 L227 524 Q225 508 217.5 501 Q210 494 194 494 L88 494 Q72 494 67 501 Q62 508 64 524 L74 603 Q83 671 130 708.5 Q177 746 258 763 Q274 766 281.5 762.5 Q289 759 293 743 L309 675 Q313 660 306.5 651 Q300 642 284 638 Q258 631 248 620.5 Q238 610 236 594 Z " />
<glyph glyph-name="quoteright" unicode="&#x2019;" horiz-adv-x="277" d="M136 663 L145 733 Q147 749 154.5 756 Q162 763 178 763 L284 763 Q300 763 305 756 Q310 749 308 733 L298 654 Q289 586 242 548.5 Q195 511 114 494 Q98 491 90.5 494.5 Q83 498 79 514 L63 582 Q59 597 65.5 606 Q72 615 88 619 Q114 626 124 636.5 Q134 647 136 663 Z " />
<glyph glyph-name="divide" unicode="&#xf7;" horiz-adv-x="536" d="M349 512 L349 429 Q349 413 343 406.5 Q337 400 321 400 L215 400 Q199 400 192.5 406.5 Q186 413 186 429 L186 512 Q186 528 192.5 535 Q199 542 215 542 L321 542 Q337 542 343 535 Q349 528 349 512 Z M59 353 L476 353 Q492 353 499 347 Q506 341 506 325 L506 252 Q506 236 499 229.5 Q492 223 476 223 L59 223 Q43 223 36 229.5 Q29 236 29 252 L29 325 Q29 341 36 347 Q43 353 59 353 Z M349 146 L349 63 Q349 47 343 40.5 Q337 34 321 34 L215 34 Q199 34 192.5 40.5 Q186 47 186 63 L186 146 Q186 162 192.5 169 Q199 176 215 176 L321 176 Q337 176 343 169 Q349 162 349 146 Z " />
<glyph glyph-name="lozenge" unicode="&#x25ca;" horiz-adv-x="410" d="M52 342 L187 477 Q191 481 196 483.5 Q201 486 205 486 Q209 486 214 483.5 Q219 481 223 477 L358 342 Q362 338 364.5 333 Q367 328 367 324 Q367 320 364.5 315 Q362 310 358 306 L223 171 Q219 167 214 164.5 Q209 162 205 162 Q201 162 196 164.5 Q191 167 187 171 L52 306 Q48 310 45.5 315 Q43 320 43 324 Q43 328 45.5 333 Q48 338 52 342 Z " />
<glyph glyph-name="ydieresis" unicode="&#xff;" horiz-adv-x="493" d="M514 470 L219 -169 Q214 -180 206 -189.5 Q198 -199 182 -199 L106 -199 Q90 -199 82.5 -191.5 Q75 -184 81 -169 L143 -17 L34 470 Q30 485 40.5 492.5 Q51 500 67 500 L168 500 Q184 500 189 491.5 Q194 483 197 470 L232 289 Q236 267 238.5 242 Q241 217 240 192 Q250 222 259.5 247 Q269 272 274 284 L358 470 Q364 484 371.5 492 Q379 500 395 500 L489 500 Q505 500 513 492.5 Q521 485 514 470 Z M423 678 L412 586 Q410 570 403 563.5 Q396 557 380 557 L320 557 Q304 557 298.5 563.5 Q293 570 295 586 L306 678 Q308 694 315.5 701 Q323 708 339 708 L399 708 Q415 708 420 701 Q425 694 423 678 Z M268 678 L257 586 Q255 570 248 563.5 Q241 557 225 557 L165 557 Q149 557 143.5 563.5 Q138 570 140 586 L151 678 Q153 694 160.5 701 Q168 708 184 708 L244 708 Q260 708 265 701 Q270 694 268 678 Z " />
<glyph glyph-name="Ydieresis" unicode="&#x178;" horiz-adv-x="553" d="M235 650 L282 451 Q285 438 287.5 424 Q290 410 292 391 Q299 410 305.5 424.5 Q312 439 319 451 L427 650 Q434 663 442 671.5 Q450 680 466 680 L574 680 Q590 680 595 672 Q600 664 592 650 L360 252 L332 30 Q330 14 323.5 7 Q317 0 301 0 L193 0 Q177 0 171 7 Q165 14 167 30 L192 232 L58 650 Q54 663 60.5 671.5 Q67 680 83 680 L203 680 Q219 680 225.5 671.5 Q232 663 235 650 Z M477 848 L466 756 Q464 740 457 733.5 Q450 727 434 727 L374 727 Q358 727 352.5 733.5 Q347 740 349 756 L360 848 Q362 864 369.5 871 Q377 878 393 878 L453 878 Q469 878 474 871 Q479 864 477 848 Z M322 848 L311 756 Q309 740 302 733.5 Q295 727 279 727 L219 727 Q203 727 197.5 733.5 Q192 740 194 756 L205 848 Q207 864 214.5 871 Q222 878 238 878 L298 878 Q314 878 319 871 Q324 864 322 848 Z " />
<glyph glyph-name="fraction" unicode="&#x2044;" horiz-adv-x="126" d="M344 658 L-69 22 Q-79 6 -89 -1 Q-99 -8 -115 -8 L-195 -8 Q-208 -8 -209.5 2.5 Q-211 13 -205 22 L207 658 Q214 670 226 679 Q238 688 254 688 L334 688 Q347 688 349.5 679 Q352 670 344 658 Z " />
<glyph glyph-name="currency" unicode="&#xa4;" horiz-adv-x="615" d="M261 384 L250 297 Q247 275 262.5 266.5 Q278 258 305 258 Q332 258 349.5 266.5 Q367 275 370 297 L381 384 Q384 406 368 414 Q352 422 325 422 Q298 422 281 414 Q264 406 261 384 Z M108 84 Q96 73 86.5 72 Q77 71 67 82 L30 122 Q20 133 22.5 142.5 Q25 152 37 163 L114 233 Q110 244 109 257.5 Q108 271 109 285 L123 395 Q125 409 129 422.5 Q133 436 140 447 L80 517 Q70 528 70.5 537.5 Q71 547 84 558 L130 598 Q143 609 152 608 Q161 607 171 596 L239 519 Q259 525 283 528 Q307 531 335 531 Q364 531 389 527.5 Q414 524 434 518 L523 596 Q535 606 544.5 607.5 Q554 609 564 598 L600 558 Q610 547 608 537.5 Q606 528 594 517 L516 448 Q520 436 521.5 422.5 Q523 409 521 395 L507 285 Q506 271 501.5 257.5 Q497 244 490 233 L551 163 Q561 153 560 143 Q559 133 546 122 L501 82 Q488 71 479 72.5 Q470 74 460 84 L391 162 Q370 156 346.5 153 Q323 150 295 150 Q267 150 242 153.5 Q217 157 197 163 L108 84 Z " />
<glyph glyph-name="guilsinglleft" unicode="&#x2039;" horiz-adv-x="326" d="M154 244 L237 185 Q248 177 255.5 168 Q263 159 262 144 L250 46 Q248 30 238 23.5 Q228 17 217 25 L44 156 Q35 163 28 173 Q21 183 22 196 L34 295 Q35 309 45.5 319 Q56 329 66 335 L271 466 Q283 473 291.5 467 Q300 461 299 445 L287 343 Q286 327 275 318 Q264 309 252 302 L154 244 Z " />
<glyph glyph-name="guilsinglright" unicode="&#x203a;" horiz-adv-x="325" d="M162 247 L79 306 Q68 314 60.5 323 Q53 332 54 347 L66 445 Q68 461 78 467.5 Q88 474 99 466 L272 335 Q281 328 288 318 Q295 308 294 295 L282 196 Q281 182 270.5 172 Q260 162 250 156 L45 25 Q33 18 24.5 24 Q16 30 17 46 L29 148 Q30 164 41 173 Q52 182 64 189 L162 247 Z " />
<glyph glyph-name="fi" unicode="&#xfb01;" horiz-adv-x="613" d="M588 470 L534 30 Q532 14 525 7 Q518 0 502 0 L399 0 Q383 0 377.5 7 Q372 14 374 30 L416 373 L263 373 L196 -169 Q194 -185 187.5 -192 Q181 -199 165 -199 L62 -199 Q46 -199 40 -192 Q34 -185 36 -169 L103 373 L53 373 Q37 373 32 379.5 Q27 386 28 402 L35 463 Q36 479 44 484.5 Q52 490 68 492 L117 498 L118 498 L124 543 Q134 614 190.5 656.5 Q247 699 360 699 L586 699 Q602 699 607.5 692.5 Q613 686 612 670 L604 599 Q603 583 594.5 576 Q586 569 570 569 L354 569 Q322 569 304 559.5 Q286 550 282 525 L278 498 L561 498 Q577 498 583.5 492 Q590 486 588 470 Z " />
<glyph glyph-name="fl" unicode="&#xfb02;" horiz-adv-x="613" d="M612 670 L534 30 Q532 14 525 7 Q518 0 502 0 L399 0 Q383 0 377.5 7 Q372 14 374 30 L440 569 L354 569 Q322 569 304 559.5 Q286 550 282 525 L278 498 L349 498 Q365 498 371 492 Q377 486 376 470 L368 402 Q367 386 358.5 379.5 Q350 373 334 373 L263 373 L196 -169 Q194 -185 187.5 -192 Q181 -199 165 -199 L62 -199 Q46 -199 40 -192 Q34 -185 36 -169 L103 373 L53 373 Q37 373 32 379.5 Q27 386 28 402 L35 463 Q36 479 44 484.5 Q52 490 68 492 L117 498 L118 498 L124 543 Q134 614 190.5 656.5 Q247 699 360 699 L586 699 Q602 699 608 692.5 Q614 686 612 670 Z " />
<glyph glyph-name="daggerdbl" unicode="&#x2021;" horiz-adv-x="653" d="M455 669 L377 30 Q375 14 368 7 Q361 0 345 0 L242 0 Q226 0 220.5 7 Q215 14 217 30 L295 669 Q297 685 304.5 692 Q312 699 328 699 L431 699 Q447 699 452 692 Q457 685 455 669 Z M654 492 L646 419 Q645 403 636.5 396.5 Q628 390 612 390 L480 390 Q464 390 458.5 396.5 Q453 403 454 419 L462 492 Q463 508 471.5 514 Q480 520 496 520 L628 520 Q644 520 649.5 514 Q655 508 654 492 Z M50 492 Q51 508 59.5 514 Q68 520 84 520 L216 520 Q232 520 237.5 514 Q243 508 242 492 L234 419 Q233 403 224.5 396.5 Q216 390 200 390 L68 390 Q52 390 46.5 396.5 Q41 403 42 419 L50 492 Z M628 277 L619 204 Q617 188 609.5 181.5 Q602 175 586 175 L454 175 Q438 175 431.5 181.5 Q425 188 427 204 L436 277 Q438 293 446 299 Q454 305 470 305 L602 305 Q618 305 624 299 Q630 293 628 277 Z M24 277 Q26 293 34 299 Q42 305 58 305 L190 305 Q206 305 212 299 Q218 293 216 277 L207 204 Q205 188 197.5 181.5 Q190 175 174 175 L42 175 Q26 175 19.5 181.5 Q13 188 15 204 L24 277 Z " />
<glyph glyph-name="middot" unicode="&#xb7;" horiz-adv-x="265" d="M219 323 L209 240 Q207 224 200 217.5 Q193 211 177 211 L71 211 Q55 211 49.5 217.5 Q44 224 46 240 L56 323 Q58 339 65.5 346 Q73 353 89 353 L195 353 Q211 353 216 346 Q221 339 219 323 Z " />
<glyph glyph-name="quotesinglbase" unicode="&#x201a;" horiz-adv-x="259" d="M38 42 L47 112 Q49 128 56.5 135 Q64 142 80 142 L186 142 Q202 142 207 135 Q212 128 210 112 L200 33 Q191 -35 144 -72.5 Q97 -110 16 -127 Q0 -130 -7.5 -126.5 Q-15 -123 -19 -107 L-35 -39 Q-39 -24 -32.5 -15 Q-26 -6 -10 -2 Q16 5 26 15.5 Q36 26 38 42 Z " />
<glyph glyph-name="quotedblbase" unicode="&#x201e;" horiz-adv-x="505" d="M38 42 L47 112 Q49 128 56.5 135 Q64 142 80 142 L186 142 Q202 142 207 135 Q212 128 210 112 L200 33 Q191 -35 144 -72.5 Q97 -110 16 -127 Q0 -130 -7.5 -126.5 Q-15 -123 -19 -107 L-35 -39 Q-39 -24 -32.5 -15 Q-26 -6 -10 -2 Q16 5 26 15.5 Q36 26 38 42 Z M284 42 L293 112 Q295 128 302.5 135 Q310 142 326 142 L432 142 Q448 142 453 135 Q458 128 456 112 L446 33 Q437 -35 390 -72.5 Q343 -110 262 -127 Q246 -130 238.5 -126.5 Q231 -123 227 -107 L211 -39 Q207 -24 213.5 -15 Q220 -6 236 -2 Q262 5 272 15.5 Q282 26 284 42 Z " />
<glyph glyph-name="perthousand" unicode="&#x2030;" horiz-adv-x="1182" d="M692 658 L279 22 Q269 6 259 -1 Q249 -8 233 -8 L153 -8 Q140 -8 138.5 2.5 Q137 13 143 22 L555 658 Q562 670 574 679 Q586 688 602 688 L682 688 Q695 688 697.5 679 Q700 670 692 658 Z M364 571 L346 425 Q342 388 309 355 Q276 322 192 322 Q117 322 80 352 Q43 382 43 417 Q43 420 43 424.5 Q43 429 44 433 L62 581 Q66 618 100.5 651 Q135 684 222 684 Q294 684 329.5 654 Q365 624 365 589 Q365 588 365 583 Q365 578 364 571 Z M163 452 Q162 446 162 444 Q162 442 162 438 Q162 424 171 419 Q180 414 196 414 Q203 414 216 420 Q229 426 231 444 L245 554 Q246 560 246 562.5 Q246 565 246 566 Q246 582 234.5 587 Q223 592 216 592 Q199 592 189 586 Q179 580 177 562 L163 452 Z M1150 245 L1132 99 Q1128 62 1095 29 Q1062 -4 978 -4 Q903 -4 866 26 Q829 56 829 91 Q829 94 829 98.5 Q829 103 830 107 L848 255 Q852 292 886.5 325 Q921 358 1008 358 Q1080 358 1115.5 328 Q1151 298 1151 263 Q1151 262 1151 257 Q1151 252 1150 245 Z M794 245 L776 99 Q772 62 739 29 Q706 -4 622 -4 Q547 -4 510 26 Q473 56 473 91 Q473 94 473 98.5 Q473 103 474 107 L492 255 Q496 292 530.5 325 Q565 358 652 358 Q724 358 759.5 328 Q795 298 795 263 Q795 262 795 257 Q795 252 794 245 Z M949 126 Q948 120 948 118 Q948 116 948 112 Q948 98 957 93 Q966 88 982 88 Q989 88 1002 94 Q1015 100 1017 118 L1031 228 Q1032 234 1032 236.5 Q1032 239 1032 240 Q1032 256 1020.5 261 Q1009 266 1002 266 Q985 266 975 260 Q965 254 963 236 L949 126 Z M593 126 Q592 120 592 118 Q592 116 592 112 Q592 98 601 93 Q610 88 626 88 Q633 88 646 94 Q659 100 661 118 L675 228 Q676 234 676 236.5 Q676 239 676 240 Q676 256 664.5 261 Q653 266 646 266 Q629 266 619 260 Q609 254 607 236 L593 126 Z " />
<glyph glyph-name="Acircumflex" unicode="&#xc2;" horiz-adv-x="565" d="M328 256 L321 310 Q314 368 314 419.5 Q314 471 315 520 Q304 471 289 412.5 Q274 354 256 310 L234 256 L328 256 Z M282 680 L390 680 Q406 680 413.5 672.5 Q421 665 423 650 L528 30 Q530 16 524.5 8 Q519 0 503 0 L394 0 Q378 0 371 8 Q364 16 362 30 L348 126 L182 126 L144 30 Q139 16 130.5 8 Q122 0 106 0 L3 0 Q-12 0 -16.5 8 Q-21 16 -15 30 L241 650 Q248 666 257 673 Q266 680 282 680 Z M337 784 L322 756 Q316 746 304.5 736.5 Q293 727 277 727 L198 727 Q182 727 179 735.5 Q176 744 186 756 L268 848 Q279 861 291 869.5 Q303 878 319 878 L377 878 Q393 878 402.5 869.5 Q412 861 420 848 L480 756 Q487 744 481.5 735.5 Q476 727 460 727 L383 727 Q367 727 358.5 736 Q350 745 346 756 L337 784 Z " />
<glyph glyph-name="Ecircumflex" unicode="&#xca;" horiz-adv-x="506" d="M408 0 L56 0 Q40 0 34 7 Q28 14 30 30 L106 650 Q108 666 115.5 673 Q123 680 139 680 L481 680 Q497 680 503.5 674 Q510 668 508 652 L498 574 Q496 558 488.5 551.5 Q481 545 465 545 L259 545 L243 415 L433 415 Q449 415 455 409 Q461 403 459 387 L450 314 Q448 298 440.5 291.5 Q433 285 417 285 L227 285 L208 135 L424 135 Q440 135 446.5 129 Q453 123 451 107 L441 29 Q439 13 431.5 6.5 Q424 0 408 0 Z M320 784 L305 756 Q299 746 287.5 736.5 Q276 727 260 727 L181 727 Q165 727 162 735.5 Q159 744 169 756 L251 848 Q262 861 274 869.5 Q286 878 302 878 L360 878 Q376 878 385.5 869.5 Q395 861 403 848 L463 756 Q470 744 464.5 735.5 Q459 727 443 727 L366 727 Q350 727 341.5 736 Q333 745 329 756 L320 784 Z " />
<glyph glyph-name="Aacute" unicode="&#xc1;" horiz-adv-x="565" d="M328 256 L321 310 Q314 368 314 419.5 Q314 471 315 520 Q304 471 289 412.5 Q274 354 256 310 L234 256 L328 256 Z M282 680 L390 680 Q406 680 413.5 672.5 Q421 665 423 650 L528 30 Q530 16 524.5 8 Q519 0 503 0 L394 0 Q378 0 371 8 Q364 16 362 30 L348 126 L182 126 L144 30 Q139 16 130.5 8 Q122 0 106 0 L3 0 Q-12 0 -16.5 8 Q-21 16 -15 30 L241 650 Q248 666 257 673 Q266 680 282 680 Z M506 848 L425 747 Q419 740 409 733.5 Q399 727 383 727 L301 727 Q288 727 284 733.5 Q280 740 289 756 L340 848 Q347 861 358 869.5 Q369 878 385 878 L495 878 Q511 878 513.5 869.5 Q516 861 506 848 Z " />
<glyph glyph-name="Edieresis" unicode="&#xcb;" horiz-adv-x="506" d="M408 0 L56 0 Q40 0 34 7 Q28 14 30 30 L106 650 Q108 666 115.5 673 Q123 680 139 680 L481 680 Q497 680 503.5 674 Q510 668 508 652 L498 574 Q496 558 488.5 551.5 Q481 545 465 545 L259 545 L243 415 L433 415 Q449 415 455 409 Q461 403 459 387 L450 314 Q448 298 440.5 291.5 Q433 285 417 285 L227 285 L208 135 L424 135 Q440 135 446.5 129 Q453 123 451 107 L441 29 Q439 13 431.5 6.5 Q424 0 408 0 Z M464 848 L453 756 Q451 740 444 733.5 Q437 727 421 727 L361 727 Q345 727 339.5 733.5 Q334 740 336 756 L347 848 Q349 864 356.5 871 Q364 878 380 878 L440 878 Q456 878 461 871 Q466 864 464 848 Z M309 848 L298 756 Q296 740 289 733.5 Q282 727 266 727 L206 727 Q190 727 184.5 733.5 Q179 740 181 756 L192 848 Q194 864 201.5 871 Q209 878 225 878 L285 878 Q301 878 306 871 Q311 864 309 848 Z " />
<glyph glyph-name="Egrave" unicode="&#xc8;" horiz-adv-x="506" d="M408 0 L56 0 Q40 0 34 7 Q28 14 30 30 L106 650 Q108 666 115.5 673 Q123 680 139 680 L481 680 Q497 680 503.5 674 Q510 668 508 652 L498 574 Q496 558 488.5 551.5 Q481 545 465 545 L259 545 L243 415 L433 415 Q449 415 455 409 Q461 403 459 387 L450 314 Q448 298 440.5 291.5 Q433 285 417 285 L227 285 L208 135 L424 135 Q440 135 446.5 129 Q453 123 451 107 L441 29 Q439 13 431.5 6.5 Q424 0 408 0 Z M242 747 L185 848 Q178 861 183 869.5 Q188 878 204 878 L309 878 Q325 878 333.5 869.5 Q342 861 346 848 L375 756 Q380 740 374 733.5 Q368 727 355 727 L278 727 Q262 727 254 733.5 Q246 740 242 747 Z " />
<glyph glyph-name="Iacute" unicode="&#xcd;" horiz-adv-x="285" d="M271 650 L195 30 Q193 14 186.5 7 Q180 0 164 0 L56 0 Q40 0 34 7 Q28 14 30 30 L106 650 Q108 666 115.5 673 Q123 680 139 680 L247 680 Q263 680 268 673 Q273 666 271 650 Z M361 848 L280 747 Q274 740 264 733.5 Q254 727 238 727 L156 727 Q143 727 139 733.5 Q135 740 144 756 L195 848 Q202 861 213 869.5 Q224 878 240 878 L350 878 Q366 878 368.5 869.5 Q371 861 361 848 Z " />
<glyph glyph-name="Icircumflex" unicode="&#xce;" horiz-adv-x="285" d="M271 650 L195 30 Q193 14 186.5 7 Q180 0 164 0 L56 0 Q40 0 34 7 Q28 14 30 30 L106 650 Q108 666 115.5 673 Q123 680 139 680 L247 680 Q263 680 268 673 Q273 666 271 650 Z M206 784 L191 756 Q185 746 173.5 736.5 Q162 727 146 727 L67 727 Q51 727 48 735.5 Q45 744 55 756 L137 848 Q148 861 160 869.5 Q172 878 188 878 L246 878 Q262 878 271.5 869.5 Q281 861 289 848 L349 756 Q356 744 350.5 735.5 Q345 727 329 727 L252 727 Q236 727 227.5 736 Q219 745 215 756 L206 784 Z " />
<glyph glyph-name="Idieresis" unicode="&#xcf;" horiz-adv-x="285" d="M271 650 L195 30 Q193 14 186.5 7 Q180 0 164 0 L56 0 Q40 0 34 7 Q28 14 30 30 L106 650 Q108 666 115.5 673 Q123 680 139 680 L247 680 Q263 680 268 673 Q273 666 271 650 Z M348 848 L337 756 Q335 740 328 733.5 Q321 727 305 727 L245 727 Q229 727 223.5 733.5 Q218 740 220 756 L231 848 Q233 864 240.5 871 Q248 878 264 878 L324 878 Q340 878 345 871 Q350 864 348 848 Z M193 848 L182 756 Q180 740 173 733.5 Q166 727 150 727 L90 727 Q74 727 68.5 733.5 Q63 740 65 756 L76 848 Q78 864 85.5 871 Q93 878 109 878 L169 878 Q185 878 190 871 Q195 864 193 848 Z " />
<glyph glyph-name="Igrave" unicode="&#xcc;" horiz-adv-x="285" d="M271 650 L195 30 Q193 14 186.5 7 Q180 0 164 0 L56 0 Q40 0 34 7 Q28 14 30 30 L106 650 Q108 666 115.5 673 Q123 680 139 680 L247 680 Q263 680 268 673 Q273 666 271 650 Z M124 747 L67 848 Q60 861 65 869.5 Q70 878 86 878 L191 878 Q207 878 215.5 869.5 Q224 861 228 848 L257 756 Q262 740 256 733.5 Q250 727 237 727 L160 727 Q144 727 136 733.5 Q128 740 124 747 Z " />
<glyph glyph-name="Oacute" unicode="&#xd3;" horiz-adv-x="611" d="M35 171 L77 517 Q84 581 144 634.5 Q204 688 348 688 Q475 688 532 641 Q589 594 589 535 Q589 531 588.5 523.5 Q588 516 587 509 L545 163 Q538 99 477.5 45.5 Q417 -8 273 -8 Q146 -8 89.5 38.5 Q33 85 33 145 Q33 149 33.5 156.5 Q34 164 35 171 Z M383 192 L419 479 Q420 486 420.5 491 Q421 496 421 498 Q421 527 397 540 Q373 553 336 553 Q303 553 273 537.5 Q243 522 239 488 L203 201 Q202 195 201.5 189.5 Q201 184 201 182 Q201 153 225.5 140 Q250 127 287 127 Q324 127 351.5 142.5 Q379 158 383 192 Z M514 848 L433 747 Q427 740 417 733.5 Q407 727 391 727 L309 727 Q296 727 292 733.5 Q288 740 297 756 L348 848 Q355 861 366 869.5 Q377 878 393 878 L503 878 Q519 878 521.5 869.5 Q524 861 514 848 Z " />
<glyph glyph-name="Ocircumflex" unicode="&#xd4;" horiz-adv-x="611" d="M35 171 L77 517 Q84 581 144 634.5 Q204 688 348 688 Q475 688 532 641 Q589 594 589 535 Q589 531 588.5 523.5 Q588 516 587 509 L545 163 Q538 99 477.5 45.5 Q417 -8 273 -8 Q146 -8 89.5 38.5 Q33 85 33 145 Q33 149 33.5 156.5 Q34 164 35 171 Z M383 192 L419 479 Q420 486 420.5 491 Q421 496 421 498 Q421 527 397 540 Q373 553 336 553 Q303 553 273 537.5 Q243 522 239 488 L203 201 Q202 195 201.5 189.5 Q201 184 201 182 Q201 153 225.5 140 Q250 127 287 127 Q324 127 351.5 142.5 Q379 158 383 192 Z M370 784 L355 756 Q349 746 337.5 736.5 Q326 727 310 727 L231 727 Q215 727 212 735.5 Q209 744 219 756 L301 848 Q312 861 324 869.5 Q336 878 352 878 L410 878 Q426 878 435.5 869.5 Q445 861 453 848 L513 756 Q520 744 514.5 735.5 Q509 727 493 727 L416 727 Q400 727 391.5 736 Q383 745 379 756 L370 784 Z " />
<glyph glyph-name="Ograve" unicode="&#xd2;" horiz-adv-x="611" d="M35 171 L77 517 Q84 581 144 634.5 Q204 688 348 688 Q475 688 532 641 Q589 594 589 535 Q589 531 588.5 523.5 Q588 516 587 509 L545 163 Q538 99 477.5 45.5 Q417 -8 273 -8 Q146 -8 89.5 38.5 Q33 85 33 145 Q33 149 33.5 156.5 Q34 164 35 171 Z M383 192 L419 479 Q420 486 420.5 491 Q421 496 421 498 Q421 527 397 540 Q373 553 336 553 Q303 553 273 537.5 Q243 522 239 488 L203 201 Q202 195 201.5 189.5 Q201 184 201 182 Q201 153 225.5 140 Q250 127 287 127 Q324 127 351.5 142.5 Q379 158 383 192 Z M279 747 L222 848 Q215 861 220 869.5 Q225 878 241 878 L346 878 Q362 878 370.5 869.5 Q379 861 383 848 L412 756 Q417 740 411 733.5 Q405 727 392 727 L315 727 Q299 727 291 733.5 Q283 740 279 747 Z " />
<glyph glyph-name="Uacute" unicode="&#xda;" horiz-adv-x="624" d="M265 650 L211 216 Q210 204 209 197 Q208 190 208 183 Q208 153 233 140 Q258 127 292 127 Q329 127 357 142.5 Q385 158 389 192 L446 650 Q448 666 455 673 Q462 680 478 680 L586 680 Q597 680 605 673.5 Q613 667 611 650 L551 163 Q543 99 485.5 45.5 Q428 -8 282 -8 Q157 -8 98 39.5 Q39 87 39 147 Q39 152 40 161.5 Q41 171 42 178 L100 650 Q102 666 109 673 Q116 680 132 680 L240 680 Q251 680 259 673.5 Q267 667 265 650 Z M526 848 L445 747 Q439 740 429 733.5 Q419 727 403 727 L321 727 Q308 727 304 733.5 Q300 740 309 756 L360 848 Q367 861 378 869.5 Q389 878 405 878 L515 878 Q531 878 533.5 869.5 Q536 861 526 848 Z " />
<glyph glyph-name="Ucircumflex" unicode="&#xdb;" horiz-adv-x="624" d="M265 650 L211 216 Q210 204 209 197 Q208 190 208 183 Q208 153 233 140 Q258 127 292 127 Q329 127 357 142.5 Q385 158 389 192 L446 650 Q448 666 455 673 Q462 680 478 680 L586 680 Q597 680 605 673.5 Q613 667 611 650 L551 163 Q543 99 485.5 45.5 Q428 -8 282 -8 Q157 -8 98 39.5 Q39 87 39 147 Q39 152 40 161.5 Q41 171 42 178 L100 650 Q102 666 109 673 Q116 680 132 680 L240 680 Q251 680 259 673.5 Q267 667 265 650 Z M369 784 L354 756 Q348 746 336.5 736.5 Q325 727 309 727 L230 727 Q214 727 211 735.5 Q208 744 218 756 L300 848 Q311 861 323 869.5 Q335 878 351 878 L409 878 Q425 878 434.5 869.5 Q444 861 452 848 L512 756 Q519 744 513.5 735.5 Q508 727 492 727 L415 727 Q399 727 390.5 736 Q382 745 378 756 L369 784 Z " />
<glyph glyph-name="Ugrave" unicode="&#xd9;" horiz-adv-x="624" d="M265 650 L211 216 Q210 204 209 197 Q208 190 208 183 Q208 153 233 140 Q258 127 292 127 Q329 127 357 142.5 Q385 158 389 192 L446 650 Q448 666 455 673 Q462 680 478 680 L586 680 Q597 680 605 673.5 Q613 667 611 650 L551 163 Q543 99 485.5 45.5 Q428 -8 282 -8 Q157 -8 98 39.5 Q39 87 39 147 Q39 152 40 161.5 Q41 171 42 178 L100 650 Q102 666 109 673 Q116 680 132 680 L240 680 Q251 680 259 673.5 Q267 667 265 650 Z M296 747 L239 848 Q232 861 237 869.5 Q242 878 258 878 L363 878 Q379 878 387.5 869.5 Q396 861 400 848 L429 756 Q434 740 428 733.5 Q422 727 409 727 L332 727 Q316 727 308 733.5 Q300 740 296 747 Z " />
<glyph glyph-name="dotlessi" unicode="&#x131;" horiz-adv-x="256" d="M231 470 L177 30 Q175 14 168 7 Q161 0 145 0 L42 0 Q26 0 20.5 7 Q15 14 17 30 L71 470 Q73 486 80.5 493 Q88 500 104 500 L207 500 Q223 500 228 493 Q233 486 231 470 Z " />
<glyph glyph-name="circumflex" unicode="&#x2c6;" horiz-adv-x="358" d="M256 614 L241 586 Q235 576 223.5 566.5 Q212 557 196 557 L117 557 Q101 557 98 565.5 Q95 574 105 586 L187 678 Q198 691 210 699.5 Q222 708 238 708 L296 708 Q312 708 321.5 699.5 Q331 691 339 678 L399 586 Q406 574 400.5 565.5 Q395 557 379 557 L302 557 Q286 557 277.5 566 Q269 575 265 586 L256 614 Z " />
<glyph glyph-name="tilde" unicode="&#x2dc;" horiz-adv-x="402" d="M217 590 Q210 590 205 586.5 Q200 583 198 577 L196 572 Q190 556 182.5 551.5 Q175 547 161 547 L110 547 Q95 547 90.5 556.5 Q86 566 90 581 L102 630 Q111 665 139 685.5 Q167 706 203 706 Q219 706 235.5 702.5 Q252 699 262 695 L302 679 Q313 675 321.5 671 Q330 667 335 667 Q342 667 347 670.5 Q352 674 355 680 L357 684 Q364 698 370.5 704 Q377 710 392 710 L446 710 Q462 710 466.5 701 Q471 692 467 676 L457 631 Q449 593 424.5 574 Q400 555 367 555 Q338 555 324 557.5 Q310 560 296 565 L253 580 Q242 584 233 587 Q224 590 217 590 Z " />
<glyph glyph-name="overscore" unicode="&#xaf;" horiz-adv-x="401" d="M174 680 L395 680 Q411 680 416.5 674 Q422 668 421 652 L414 589 Q413 573 404.5 566.5 Q396 560 380 560 L159 560 Q143 560 137.5 566.5 Q132 573 133 589 L140 652 Q141 668 149.5 674 Q158 680 174 680 Z " />
<glyph glyph-name="breve" unicode="&#x2d8;" horiz-adv-x="426" d="M185 686 L184 677 Q183 671 183 668.5 Q183 666 183 664 Q183 651 190.5 643.5 Q198 636 215 636 Q234 636 243 645 Q252 654 253 669 L255 686 Q256 699 263 704.5 Q270 710 284 710 L345 710 Q359 710 364.5 704.5 Q370 699 368 686 L366 673 Q356 610 319 576.5 Q282 543 209 543 Q149 543 108.5 571.5 Q68 600 68 652 Q68 658 68.5 663 Q69 668 70 673 L72 686 Q74 699 80.5 704.5 Q87 710 101 710 L162 710 Q176 710 181 704.5 Q186 699 185 686 Z " />
<glyph glyph-name="dotaccent" unicode="&#x2d9;" horiz-adv-x="253" d="M292 678 L282 595 Q280 579 273 572.5 Q266 566 250 566 L144 566 Q128 566 122.5 572.5 Q117 579 119 595 L129 678 Q131 694 138.5 701 Q146 708 162 708 L268 708 Q284 708 289 701 Q294 694 292 678 Z " />
<glyph glyph-name="ring" unicode="&#x2da;" horiz-adv-x="350" d="M374 647 L370 620 Q366 589 340.5 564.5 Q315 540 245 540 Q185 540 155.5 562 Q126 584 126 612 Q126 615 126 619 Q126 623 127 627 L131 654 Q135 685 161 709.5 Q187 734 259 734 Q319 734 347 712 Q375 690 375 662 Q375 660 375 657 Q375 654 374 647 Z M287 629 L288 637 Q288 637 288.5 641.5 Q289 646 289 650 Q289 663 278 667.5 Q267 672 253 672 Q237 672 225.5 666.5 Q214 661 213 645 L212 636 Q212 636 211.5 632 Q211 628 211 624 Q211 611 222 606 Q233 601 247 601 Q263 601 274 607 Q285 613 287 629 Z " />
<glyph glyph-name="cedilla" unicode="&#xb8;" horiz-adv-x="297" d="M150 -39 L177 -39 Q214 -39 235 -59 Q256 -79 256 -112 Q256 -161 228 -186 Q200 -211 156 -211 L31 -211 Q15 -211 8.5 -203 Q2 -195 4 -182 L7 -161 Q9 -145 16.5 -139 Q24 -133 40 -133 L137 -133 Q143 -133 145 -129.5 Q147 -126 147 -122 Q147 -118 144 -115.5 Q141 -113 137 -113 L59 -113 Q37 -113 29 -103 Q21 -93 29 -73 L67 18 Q73 33 82.5 38.5 Q92 44 105 43 L150 40 Q164 39 167.5 27.5 Q171 16 167 6 L150 -39 Z " />
<glyph glyph-name="hungarumlaut" unicode="&#x2dd;" horiz-adv-x="422" d="M296 678 L234 586 Q225 573 216 565 Q207 557 191 557 L116 557 Q100 557 96 564.5 Q92 572 99 586 L146 678 Q153 692 163.5 700 Q174 708 190 708 L280 708 Q296 708 300 699.5 Q304 691 296 678 Z M478 678 L401 586 Q392 576 380.5 566.5 Q369 557 353 557 L278 557 Q262 557 259 564.5 Q256 572 266 586 L328 678 Q338 692 349.5 700 Q361 708 377 708 L467 708 Q483 708 485.5 699.5 Q488 691 478 678 Z " />
<glyph glyph-name="ogonek" unicode="&#x2db;" horiz-adv-x="235" d="M173 -179 L112 -179 Q68 -179 40 -158 Q12 -137 12 -94 Q12 -63 27 -33 Q42 -3 72 34 Q81 45 92 52.5 Q103 60 116 59 L166 54 Q187 52 190 43 Q193 34 180 22 Q159 2 144.5 -19 Q130 -40 130 -56 Q130 -72 139.5 -77 Q149 -82 167 -82 L185 -82 Q201 -82 207 -88 Q213 -94 211 -110 L206 -150 Q204 -166 196.5 -172.5 Q189 -179 173 -179 Z " />
<glyph glyph-name="caron" unicode="&#x2c7;" horiz-adv-x="358" d="M252 679 L261 651 L276 679 Q282 689 293.5 698.5 Q305 708 321 708 L400 708 Q416 708 419 699.5 Q422 691 412 679 L330 587 Q319 574 307 565.5 Q295 557 279 557 L221 557 Q205 557 195.5 565.5 Q186 574 178 587 L118 679 Q111 691 116.5 699.5 Q122 708 138 708 L215 708 Q231 708 240 698.5 Q249 689 252 679 Z " />
<glyph glyph-name="uni00A0" unicode="&#xa0;" horiz-adv-x="180" d="" />
<glyph glyph-name="Amacron" unicode="&#x100;" horiz-adv-x="565" d="M328 256 L321 310 Q314 368 314 419.5 Q314 471 315 520 Q304 471 289 412.5 Q274 354 256 310 L234 256 L328 256 Z M282 680 L390 680 Q406 680 413.5 672.5 Q421 665 423 650 L528 30 Q530 16 524.5 8 Q519 0 503 0 L394 0 Q378 0 371 8 Q364 16 362 30 L348 126 L182 126 L144 30 Q139 16 130.5 8 Q122 0 106 0 L3 0 Q-12 0 -16.5 8 Q-21 16 -15 30 L241 650 Q248 666 257 673 Q266 680 282 680 Z M230 860 L451 860 Q467 860 472.5 854 Q478 848 477 832 L470 769 Q469 753 460.5 746.5 Q452 740 436 740 L215 740 Q199 740 193.5 746.5 Q188 753 189 769 L196 832 Q197 848 205.5 854 Q214 860 230 860 Z " />
<glyph glyph-name="Abreve" unicode="&#x102;" horiz-adv-x="565" d="M328 256 L321 310 Q314 368 314 419.5 Q314 471 315 520 Q304 471 289 412.5 Q274 354 256 310 L234 256 L328 256 Z M282 680 L390 680 Q406 680 413.5 672.5 Q421 665 423 650 L528 30 Q530 16 524.5 8 Q519 0 503 0 L394 0 Q378 0 371 8 Q364 16 362 30 L348 126 L182 126 L144 30 Q139 16 130.5 8 Q122 0 106 0 L3 0 Q-12 0 -16.5 8 Q-21 16 -15 30 L241 650 Q248 666 257 673 Q266 680 282 680 Z M304 871 L303 862 Q302 856 302 853.5 Q302 851 302 849 Q302 836 309.5 828.5 Q317 821 334 821 Q353 821 362 830 Q371 839 372 854 L374 871 Q375 884 382 889.5 Q389 895 403 895 L464 895 Q478 895 483.5 889.5 Q489 884 487 871 L485 858 Q475 795 438 761.5 Q401 728 328 728 Q268 728 227.5 756.5 Q187 785 187 837 Q187 843 187.5 848 Q188 853 189 858 L191 871 Q193 884 199.5 889.5 Q206 895 220 895 L281 895 Q295 895 300 889.5 Q305 884 304 871 Z " />
<glyph glyph-name="Aogonek" unicode="&#x104;" horiz-adv-x="565" d="M279 680 L387 680 Q403 680 410.5 672.5 Q418 665 420 650 L525 30 Q527 16 521.5 8 Q516 0 500 0 L460 0 Q438 0 428.5 -16 Q419 -32 419 -57 Q419 -69 426 -75.5 Q433 -82 449 -82 L472 -82 Q488 -82 496 -88 Q504 -94 502 -110 L497 -150 Q495 -166 484 -172.5 Q473 -179 457 -179 L399 -179 Q374 -179 337 -163.5 Q300 -148 300 -93 Q300 -76 308.5 -39.5 Q317 -3 357 41 L345 126 L179 126 L141 30 Q136 16 127.5 8 Q119 0 103 0 L0 0 Q-15 0 -19.5 8 Q-24 16 -18 30 L238 650 Q245 666 254 673 Q263 680 279 680 Z M325 256 L318 310 Q311 367 310.5 414.5 Q310 462 312 519 Q301 471 285.5 412 Q270 353 253 310 L231 256 L325 256 Z " />
<glyph glyph-name="Aringacute" unicode="&#x1fa;" horiz-adv-x="565" d="M336 712 Q276 712 246.5 734 Q217 756 217 784 Q217 787 217 791 Q217 795 218 799 L222 826 Q226 850 241.5 871 Q257 892 296 901 L314 934 Q321 947 332 955.5 Q343 964 359 964 L469 964 Q485 964 488 955 Q491 946 480 934 L436 886 Q452 876 459 862.5 Q466 849 466 834 Q466 832 466 829 Q466 826 465 819 L461 792 Q457 761 431.5 736.5 Q406 712 336 712 Z M378 801 L379 809 Q379 809 379.5 813.5 Q380 818 380 822 Q380 835 369 839.5 Q358 844 344 844 Q328 844 316.5 838.5 Q305 833 304 817 L303 808 Q303 808 302.5 804 Q302 800 302 796 Q302 783 313 778 Q324 773 338 773 Q354 773 365 779 Q376 785 378 801 Z M325 256 L318 310 Q311 368 311 419.5 Q311 471 312 520 Q301 471 286 412.5 Q271 354 253 310 L231 256 L325 256 Z M279 680 L387 680 Q403 680 410.5 672.5 Q418 665 420 650 L525 30 Q527 16 521.5 8 Q516 0 500 0 L391 0 Q375 0 368 8 Q361 16 359 30 L345 126 L179 126 L141 30 Q136 16 127.5 8 Q119 0 103 0 L0 0 Q-15 0 -19.5 8 Q-24 16 -18 30 L238 650 Q245 666 254 673 Q263 680 279 680 Z " />
<glyph glyph-name="Cacute" unicode="&#x106;" horiz-adv-x="576" d="M533 224 L526 163 Q519 99 463.5 45.5 Q408 -8 264 -8 Q137 -8 85 38.5 Q33 85 33 144 Q33 149 33.5 156 Q34 163 35 171 L77 517 Q84 581 139.5 634.5 Q195 688 339 688 Q465 688 517.5 642 Q570 596 570 537 Q570 532 569.5 525 Q569 518 568 510 L563 471 Q561 455 554.5 448 Q548 441 532 441 L429 441 Q413 441 407 449.5 Q401 458 403 471 L405 482 Q406 486 406.5 492 Q407 498 407 501 Q407 528 385.5 540.5 Q364 553 330 553 Q293 553 268 537.5 Q243 522 239 488 L203 201 Q202 195 201.5 189.5 Q201 184 201 182 Q201 153 223 140 Q245 127 279 127 Q316 127 340.5 142.5 Q365 158 369 192 L373 224 Q375 240 382.5 247 Q390 254 406 254 L509 254 Q526 254 530 245.5 Q534 237 533 224 Z M513 848 L432 747 Q426 740 416 733.5 Q406 727 390 727 L308 727 Q295 727 291 733.5 Q287 740 296 756 L347 848 Q354 861 365 869.5 Q376 878 392 878 L502 878 Q518 878 520.5 869.5 Q523 861 513 848 Z " />
<glyph glyph-name="Ccircumflex" unicode="&#x108;" horiz-adv-x="576" d="M533 224 L526 163 Q519 99 463.5 45.5 Q408 -8 264 -8 Q137 -8 85 38.5 Q33 85 33 144 Q33 149 33.5 156 Q34 163 35 171 L77 517 Q84 581 139.5 634.5 Q195 688 339 688 Q465 688 517.5 642 Q570 596 570 537 Q570 532 569.5 525 Q569 518 568 510 L563 471 Q561 455 554.5 448 Q548 441 532 441 L429 441 Q413 441 407 449.5 Q401 458 403 471 L405 482 Q406 486 406.5 492 Q407 498 407 501 Q407 528 385.5 540.5 Q364 553 330 553 Q293 553 268 537.5 Q243 522 239 488 L203 201 Q202 195 201.5 189.5 Q201 184 201 182 Q201 153 223 140 Q245 127 279 127 Q316 127 340.5 142.5 Q365 158 369 192 L373 224 Q375 240 382.5 247 Q390 254 406 254 L509 254 Q526 254 530 245.5 Q534 237 533 224 Z M357 784 L342 756 Q336 746 324.5 736.5 Q313 727 297 727 L218 727 Q202 727 199 735.5 Q196 744 206 756 L288 848 Q299 861 311 869.5 Q323 878 339 878 L397 878 Q413 878 422.5 869.5 Q432 861 440 848 L500 756 Q507 744 501.5 735.5 Q496 727 480 727 L403 727 Q387 727 378.5 736 Q370 745 366 756 L357 784 Z " />
<glyph glyph-name="Cdotaccent" unicode="&#x10a;" horiz-adv-x="576" d="M533 224 L526 163 Q519 99 463.5 45.5 Q408 -8 264 -8 Q137 -8 85 38.5 Q33 85 33 144 Q33 149 33.5 156 Q34 163 35 171 L77 517 Q84 581 139.5 634.5 Q195 688 339 688 Q465 688 517.5 642 Q570 596 570 537 Q570 532 569.5 525 Q569 518 568 510 L563 471 Q561 455 554.5 448 Q548 441 532 441 L429 441 Q413 441 407 449.5 Q401 458 403 471 L405 482 Q406 486 406.5 492 Q407 498 407 501 Q407 528 385.5 540.5 Q364 553 330 553 Q293 553 268 537.5 Q243 522 239 488 L203 201 Q202 195 201.5 189.5 Q201 184 201 182 Q201 153 223 140 Q245 127 279 127 Q316 127 340.5 142.5 Q365 158 369 192 L373 224 Q375 240 382.5 247 Q390 254 406 254 L509 254 Q526 254 530 245.5 Q534 237 533 224 Z M437 839 L427 756 Q425 740 418 733.5 Q411 727 395 727 L289 727 Q273 727 267.5 733.5 Q262 740 264 756 L274 839 Q276 855 283.5 862 Q291 869 307 869 L413 869 Q429 869 434 862 Q439 855 437 839 Z " />
<glyph glyph-name="Ccaron" unicode="&#x10c;" horiz-adv-x="576" d="M533 224 L526 163 Q519 99 463.5 45.5 Q408 -8 264 -8 Q137 -8 85 38.5 Q33 85 33 144 Q33 149 33.5 156 Q34 163 35 171 L77 517 Q84 581 139.5 634.5 Q195 688 339 688 Q465 688 517.5 642 Q570 596 570 537 Q570 532 569.5 525 Q569 518 568 510 L563 471 Q561 455 554.5 448 Q548 441 532 441 L429 441 Q413 441 407 449.5 Q401 458 403 471 L405 482 Q406 486 406.5 492 Q407 498 407 501 Q407 528 385.5 540.5 Q364 553 330 553 Q293 553 268 537.5 Q243 522 239 488 L203 201 Q202 195 201.5 189.5 Q201 184 201 182 Q201 153 223 140 Q245 127 279 127 Q316 127 340.5 142.5 Q365 158 369 192 L373 224 Q375 240 382.5 247 Q390 254 406 254 L509 254 Q526 254 530 245.5 Q534 237 533 224 Z M354 849 L363 821 L378 849 Q384 859 395.5 868.5 Q407 878 423 878 L502 878 Q518 878 521 869.5 Q524 861 514 849 L432 757 Q421 744 409 735.5 Q397 727 381 727 L323 727 Q307 727 297.5 735.5 Q288 744 280 757 L220 849 Q213 861 218.5 869.5 Q224 878 240 878 L317 878 Q333 878 342 868.5 Q351 859 354 849 Z " />
<glyph glyph-name="Dcaron" unicode="&#x10e;" horiz-adv-x="621" d="M291 0 L52 0 Q41 0 34.5 7 Q28 14 30 30 L106 650 Q108 666 115.5 673 Q123 680 139 680 L357 680 Q487 680 544 632.5 Q601 585 601 525 Q601 521 600 509.5 Q599 498 598 493 L559 171 Q552 107 494.5 53.5 Q437 0 291 0 Z M349 545 L259 545 L208 135 L300 135 Q337 135 365 150.5 Q393 166 397 200 L430 466 Q431 470 431.5 479 Q432 488 432 490 Q432 519 409.5 532 Q387 545 349 545 Z M345 849 L354 821 L369 849 Q375 859 386.5 868.5 Q398 878 414 878 L493 878 Q509 878 512 869.5 Q515 861 505 849 L423 757 Q412 744 400 735.5 Q388 727 372 727 L314 727 Q298 727 288.5 735.5 Q279 744 271 757 L211 849 Q204 861 209.5 869.5 Q215 878 231 878 L308 878 Q324 878 333 868.5 Q342 859 345 849 Z " />
<glyph glyph-name="Emacron" unicode="&#x112;" horiz-adv-x="506" d="M408 0 L56 0 Q40 0 34 7 Q28 14 30 30 L106 650 Q108 666 115.5 673 Q123 680 139 680 L481 680 Q497 680 503.5 674 Q510 668 508 652 L498 574 Q496 558 488.5 551.5 Q481 545 465 545 L259 545 L243 415 L433 415 Q449 415 455 409 Q461 403 459 387 L450 314 Q448 298 440.5 291.5 Q433 285 417 285 L227 285 L208 135 L424 135 Q440 135 446.5 129 Q453 123 451 107 L441 29 Q439 13 431.5 6.5 Q424 0 408 0 Z M217 860 L438 860 Q454 860 459.5 854 Q465 848 464 832 L457 769 Q456 753 447.5 746.5 Q439 740 423 740 L202 740 Q186 740 180.5 746.5 Q175 753 176 769 L183 832 Q184 848 192.5 854 Q201 860 217 860 Z " />
<glyph glyph-name="Ebreve" unicode="&#x114;" horiz-adv-x="506" d="M408 0 L56 0 Q40 0 34 7 Q28 14 30 30 L106 650 Q108 666 115.5 673 Q123 680 139 680 L481 680 Q497 680 503.5 674 Q510 668 508 652 L498 574 Q496 558 488.5 551.5 Q481 545 465 545 L259 545 L243 415 L433 415 Q449 415 455 409 Q461 403 459 387 L450 314 Q448 298 440.5 291.5 Q433 285 417 285 L227 285 L208 135 L424 135 Q440 135 446.5 129 Q453 123 451 107 L441 29 Q439 13 431.5 6.5 Q424 0 408 0 Z M282 871 L281 862 Q280 856 280 853.5 Q280 851 280 849 Q280 836 287.5 828.5 Q295 821 312 821 Q331 821 340 830 Q349 839 350 854 L352 871 Q353 884 360 889.5 Q367 895 381 895 L442 895 Q456 895 461.5 889.5 Q467 884 465 871 L463 858 Q453 795 416 761.5 Q379 728 306 728 Q246 728 205.5 756.5 Q165 785 165 837 Q165 843 165.5 848 Q166 853 167 858 L169 871 Q171 884 177.5 889.5 Q184 895 198 895 L259 895 Q273 895 278 889.5 Q283 884 282 871 Z " />
<glyph glyph-name="Edotaccent" unicode="&#x116;" horiz-adv-x="506" d="M408 0 L56 0 Q40 0 34 7 Q28 14 30 30 L106 650 Q108 666 115.5 673 Q123 680 139 680 L481 680 Q497 680 503.5 674 Q510 668 508 652 L498 574 Q496 558 488.5 551.5 Q481 545 465 545 L259 545 L243 415 L433 415 Q449 415 455 409 Q461 403 459 387 L450 314 Q448 298 440.5 291.5 Q433 285 417 285 L227 285 L208 135 L424 135 Q440 135 446.5 129 Q453 123 451 107 L441 29 Q439 13 431.5 6.5 Q424 0 408 0 Z M404 839 L394 756 Q392 740 385 733.5 Q378 727 362 727 L256 727 Q240 727 234.5 733.5 Q229 740 231 756 L241 839 Q243 855 250.5 862 Q258 869 274 869 L380 869 Q396 869 401 862 Q406 855 404 839 Z " />
<glyph glyph-name="Eogonek" unicode="&#x118;" horiz-adv-x="506" d="M407 0 L376 0 Q357 0 348 -16.5 Q339 -33 339 -57 Q339 -69 346 -75.5 Q353 -82 369 -82 L392 -82 Q408 -82 416 -88 Q424 -94 422 -110 L417 -150 Q415 -166 404 -172.5 Q393 -179 377 -179 L319 -179 Q294 -179 257 -163.5 Q220 -148 220 -93 Q220 -80 224 -55.5 Q228 -31 246 0 L55 0 Q39 0 33 7 Q27 14 29 30 L105 650 Q107 666 114.5 673 Q122 680 138 680 L480 680 Q496 680 502.5 674 Q509 668 507 652 L497 574 Q495 558 487.5 551.5 Q480 545 464 545 L258 545 L242 415 L432 415 Q448 415 454 409 Q460 403 458 387 L449 314 Q447 298 439.5 291.5 Q432 285 416 285 L226 285 L207 135 L423 135 Q439 135 445.5 129 Q452 123 450 107 L440 29 Q438 13 430.5 6.5 Q423 0 407 0 Z " />
<glyph glyph-name="Ecaron" unicode="&#x11a;" horiz-adv-x="506" d="M408 0 L56 0 Q40 0 34 7 Q28 14 30 30 L106 650 Q108 666 115.5 673 Q123 680 139 680 L481 680 Q497 680 503.5 674 Q510 668 508 652 L498 574 Q496 558 488.5 551.5 Q481 545 465 545 L259 545 L243 415 L433 415 Q449 415 455 409 Q461 403 459 387 L450 314 Q448 298 440.5 291.5 Q433 285 417 285 L227 285 L208 135 L424 135 Q440 135 446.5 129 Q453 123 451 107 L441 29 Q439 13 431.5 6.5 Q424 0 408 0 Z M317 849 L326 821 L341 849 Q347 859 358.5 868.5 Q370 878 386 878 L465 878 Q481 878 484 869.5 Q487 861 477 849 L395 757 Q384 744 372 735.5 Q360 727 344 727 L286 727 Q270 727 260.5 735.5 Q251 744 243 757 L183 849 Q176 861 181.5 869.5 Q187 878 203 878 L280 878 Q296 878 305 868.5 Q314 859 317 849 Z " />
<glyph glyph-name="Gcircumflex" unicode="&#x11c;" horiz-adv-x="588" d="M309 370 L521 370 Q539 370 544 362.5 Q549 355 548 342 L526 163 Q518 99 463 45.5 Q408 -8 264 -8 Q137 -8 85 38.5 Q33 85 33 144 Q33 149 33.5 156.5 Q34 164 35 171 L77 517 Q84 581 139.5 634.5 Q195 688 339 688 Q466 688 518 641.5 Q570 595 570 535 Q570 531 569.5 523.5 Q569 516 568 508 L565 481 Q564 465 556.5 458 Q549 451 533 451 L430 451 Q414 451 408.5 459.5 Q403 468 405 481 L406 488 Q407 493 407 497 Q407 501 407 504 Q407 529 386.5 541 Q366 553 332 553 Q296 553 269.5 537.5 Q243 522 239 488 L203 200 Q202 195 201.5 189.5 Q201 184 201 180 Q201 152 221 139.5 Q241 127 277 127 Q317 127 341 142.5 Q365 158 369 192 L374 235 L292 235 Q276 235 270 242 Q264 249 266 264 L276 342 Q278 358 285.5 364 Q293 370 309 370 Z M356 784 L341 756 Q335 746 323.5 736.5 Q312 727 296 727 L217 727 Q201 727 198 735.5 Q195 744 205 756 L287 848 Q298 861 310 869.5 Q322 878 338 878 L396 878 Q412 878 421.5 869.5 Q431 861 439 848 L499 756 Q506 744 500.5 735.5 Q495 727 479 727 L402 727 Q386 727 377.5 736 Q369 745 365 756 L356 784 Z " />
<glyph glyph-name="Gbreve" unicode="&#x11e;" horiz-adv-x="588" d="M309 370 L521 370 Q539 370 544 362.5 Q549 355 548 342 L526 163 Q518 99 463 45.5 Q408 -8 264 -8 Q137 -8 85 38.5 Q33 85 33 144 Q33 149 33.5 156.5 Q34 164 35 171 L77 517 Q84 581 139.5 634.5 Q195 688 339 688 Q466 688 518 641.5 Q570 595 570 535 Q570 531 569.5 523.5 Q569 516 568 508 L565 481 Q564 465 556.5 458 Q549 451 533 451 L430 451 Q414 451 408.5 459.5 Q403 468 405 481 L406 488 Q407 493 407 497 Q407 501 407 504 Q407 529 386.5 541 Q366 553 332 553 Q296 553 269.5 537.5 Q243 522 239 488 L203 200 Q202 195 201.5 189.5 Q201 184 201 180 Q201 152 221 139.5 Q241 127 277 127 Q317 127 341 142.5 Q365 158 369 192 L374 235 L292 235 Q276 235 270 242 Q264 249 266 264 L276 342 Q278 358 285.5 364 Q293 370 309 370 Z M318 871 L317 862 Q316 856 316 853.5 Q316 851 316 849 Q316 836 323.5 828.5 Q331 821 348 821 Q367 821 376 830 Q385 839 386 854 L388 871 Q389 884 396 889.5 Q403 895 417 895 L478 895 Q492 895 497.5 889.5 Q503 884 501 871 L499 858 Q489 795 452 761.5 Q415 728 342 728 Q282 728 241.5 756.5 Q201 785 201 837 Q201 843 201.5 848 Q202 853 203 858 L205 871 Q207 884 213.5 889.5 Q220 895 234 895 L295 895 Q309 895 314 889.5 Q319 884 318 871 Z " />
<glyph glyph-name="Gdotaccent" unicode="&#x120;" horiz-adv-x="588" d="M309 370 L521 370 Q539 370 544 362.5 Q549 355 548 342 L526 163 Q518 99 463 45.5 Q408 -8 264 -8 Q137 -8 85 38.5 Q33 85 33 144 Q33 149 33.5 156.5 Q34 164 35 171 L77 517 Q84 581 139.5 634.5 Q195 688 339 688 Q466 688 518 641.5 Q570 595 570 535 Q570 531 569.5 523.5 Q569 516 568 508 L565 481 Q564 465 556.5 458 Q549 451 533 451 L430 451 Q414 451 408.5 459.5 Q403 468 405 481 L406 488 Q407 493 407 497 Q407 501 407 504 Q407 529 386.5 541 Q366 553 332 553 Q296 553 269.5 537.5 Q243 522 239 488 L203 200 Q202 195 201.5 189.5 Q201 184 201 180 Q201 152 221 139.5 Q241 127 277 127 Q317 127 341 142.5 Q365 158 369 192 L374 235 L292 235 Q276 235 270 242 Q264 249 266 264 L276 342 Q278 358 285.5 364 Q293 370 309 370 Z M432 835 L422 752 Q420 736 413 729.5 Q406 723 390 723 L284 723 Q268 723 262.5 729.5 Q257 736 259 752 L269 835 Q271 851 278.5 858 Q286 865 302 865 L408 865 Q424 865 429 858 Q434 851 432 835 Z " />
<glyph glyph-name="Gcommaaccent" unicode="&#x122;" horiz-adv-x="588" d="M309 370 L521 370 Q539 370 544 362.5 Q549 355 548 342 L526 163 Q518 99 463 45.5 Q408 -8 264 -8 Q137 -8 85 38.5 Q33 85 33 144 Q33 149 33.5 156.5 Q34 164 35 171 L77 517 Q84 581 139.5 634.5 Q195 688 339 688 Q466 688 518 641.5 Q570 595 570 535 Q570 531 569.5 523.5 Q569 516 568 508 L565 481 Q564 465 556.5 458 Q549 451 533 451 L430 451 Q414 451 408.5 459.5 Q403 468 405 481 L406 488 Q407 493 407 497 Q407 501 407 504 Q407 529 386.5 541 Q366 553 332 553 Q296 553 269.5 537.5 Q243 522 239 488 L203 200 Q202 195 201.5 189.5 Q201 184 201 180 Q201 152 221 139.5 Q241 127 277 127 Q317 127 341 142.5 Q365 158 369 192 L374 235 L292 235 Q276 235 270 242 Q264 249 266 264 L276 342 Q278 358 285.5 364 Q293 370 309 370 Z M185 -112 L189 -80 Q191 -64 198.5 -57 Q206 -50 222 -50 L298 -50 Q314 -50 319 -57 Q324 -64 322 -80 L317 -121 Q311 -170 294.5 -199.5 Q278 -229 253 -261 Q243 -274 233 -276 Q223 -278 213 -276 L157 -263 Q143 -260 141 -248.5 Q139 -237 147 -224 Q166 -191 173 -172.5 Q180 -154 185 -112 Z " />
<glyph glyph-name="Hcircumflex" unicode="&#x124;" horiz-adv-x="630" d="M270 650 L241 412 L422 412 L451 650 Q453 666 460.5 673 Q468 680 484 680 L592 680 Q608 680 613 673 Q618 666 616 650 L540 30 Q538 14 531.5 7 Q525 0 509 0 L401 0 Q385 0 379 7.5 Q373 15 375 30 L406 277 L225 277 L194 30 Q192 15 185.5 7.5 Q179 0 163 0 L55 0 Q39 0 33 7 Q27 14 29 30 L105 650 Q107 666 114.5 673 Q122 680 138 680 L246 680 Q262 680 267 673 Q272 666 270 650 Z M368 784 L353 756 Q347 746 335.5 736.5 Q324 727 308 727 L229 727 Q213 727 210 735.5 Q207 744 217 756 L299 848 Q310 861 322 869.5 Q334 878 350 878 L408 878 Q424 878 433.5 869.5 Q443 861 451 848 L511 756 Q518 744 512.5 735.5 Q507 727 491 727 L414 727 Q398 727 389.5 736 Q381 745 377 756 L368 784 Z " />
<glyph glyph-name="Itilde" unicode="&#x128;" horiz-adv-x="285" d="M271 650 L195 30 Q193 14 186.5 7 Q180 0 164 0 L56 0 Q40 0 34 7 Q28 14 30 30 L106 650 Q108 666 115.5 673 Q123 680 139 680 L247 680 Q263 680 268 673 Q273 666 271 650 Z M135 770 Q128 770 123 766.5 Q118 763 116 757 L114 752 Q108 736 100.5 731.5 Q93 727 79 727 L28 727 Q13 727 8.5 736.5 Q4 746 8 761 L20 810 Q29 845 57 865.5 Q85 886 121 886 Q137 886 153.5 882.5 Q170 879 180 875 L220 859 Q231 855 239.5 851 Q248 847 253 847 Q260 847 265 850.5 Q270 854 273 860 L275 864 Q282 878 288.5 884 Q295 890 310 890 L364 890 Q380 890 384.5 881 Q389 872 385 856 L375 811 Q367 773 342.5 754 Q318 735 285 735 Q256 735 242 737.5 Q228 740 214 745 L171 760 Q160 764 151 767 Q142 770 135 770 Z " />
<glyph glyph-name="Imacron" unicode="&#x12a;" horiz-adv-x="285" d="M271 650 L195 30 Q193 14 186.5 7 Q180 0 164 0 L56 0 Q40 0 34 7 Q28 14 30 30 L106 650 Q108 666 115.5 673 Q123 680 139 680 L247 680 Q263 680 268 673 Q273 666 271 650 Z M100 860 L321 860 Q337 860 342.5 854 Q348 848 347 832 L340 769 Q339 753 330.5 746.5 Q322 740 306 740 L85 740 Q69 740 63.5 746.5 Q58 753 59 769 L66 832 Q67 848 75.5 854 Q84 860 100 860 Z " />
<glyph glyph-name="Ibreve" unicode="&#x12c;" horiz-adv-x="285" d="M271 650 L195 30 Q193 14 186.5 7 Q180 0 164 0 L56 0 Q40 0 34 7 Q28 14 30 30 L106 650 Q108 666 115.5 673 Q123 680 139 680 L247 680 Q263 680 268 673 Q273 666 271 650 Z M168 871 L167 862 Q166 856 166 853.5 Q166 851 166 849 Q166 836 173.5 828.5 Q181 821 198 821 Q217 821 226 830 Q235 839 236 854 L238 871 Q239 884 246 889.5 Q253 895 267 895 L328 895 Q342 895 347.5 889.5 Q353 884 351 871 L349 858 Q339 795 302 761.5 Q265 728 192 728 Q132 728 91.5 756.5 Q51 785 51 837 Q51 843 51.5 848 Q52 853 53 858 L55 871 Q57 884 63.5 889.5 Q70 895 84 895 L145 895 Q159 895 164 889.5 Q169 884 168 871 Z " />
<glyph glyph-name="Iogonek" unicode="&#x12e;" horiz-adv-x="286" d="M270 650 L194 30 Q192 14 185.5 7 Q179 0 163 0 L131 0 Q112 0 103 -16.5 Q94 -33 94 -57 Q94 -69 101 -75.5 Q108 -82 124 -82 L147 -82 Q163 -82 171 -88 Q179 -94 177 -110 L172 -150 Q170 -166 159 -172.5 Q148 -179 132 -179 L74 -179 Q49 -179 12 -163.5 Q-25 -148 -25 -93 Q-25 -76 -17 -40.5 Q-9 -5 30 38 L105 650 Q107 666 114.5 673 Q122 680 138 680 L246 680 Q262 680 267 673 Q272 666 270 650 Z " />
<glyph glyph-name="Idot" unicode="&#x130;" horiz-adv-x="285" d="M271 650 L195 30 Q193 14 186.5 7 Q180 0 164 0 L56 0 Q40 0 34 7 Q28 14 30 30 L106 650 Q108 666 115.5 673 Q123 680 139 680 L247 680 Q263 680 268 673 Q273 666 271 650 Z M293 839 L283 756 Q281 740 274 733.5 Q267 727 251 727 L145 727 Q129 727 123.5 733.5 Q118 740 120 756 L130 839 Q132 855 139.5 862 Q147 869 163 869 L269 869 Q285 869 290 862 Q295 855 293 839 Z " />
<glyph glyph-name="Jcircumflex" unicode="&#x134;" horiz-adv-x="525" d="M164 229 L160 197 Q159 190 158.5 185 Q158 180 158 177 Q158 152 174.5 139.5 Q191 127 222 127 Q254 127 270 142.5 Q286 158 290 192 L347 650 Q349 666 356 673 Q363 680 379 680 L487 680 Q503 680 508 672 Q513 664 512 650 L452 163 Q444 99 396 45.5 Q348 -8 213 -8 Q94 -8 43.5 38.5 Q-7 85 -7 144 Q-7 149 -6.5 157.5 Q-6 166 -5 171 L2 229 Q4 245 11.5 252 Q19 259 35 259 L140 259 Q156 259 160.5 251 Q165 243 164 229 Z M442 784 L427 756 Q421 746 409.5 736.5 Q398 727 382 727 L303 727 Q287 727 284 735.5 Q281 744 291 756 L373 848 Q384 861 396 869.5 Q408 878 424 878 L482 878 Q498 878 507.5 869.5 Q517 861 525 848 L585 756 Q592 744 586.5 735.5 Q581 727 565 727 L488 727 Q472 727 463.5 736 Q455 745 451 756 L442 784 Z " />
<glyph glyph-name="Kcommaaccent" unicode="&#x136;" horiz-adv-x="594" d="M383 346 L559 30 Q565 19 561 9.5 Q557 0 541 0 L404 0 Q388 0 379.5 9.5 Q371 19 365 30 L237 275 L225 275 L195 30 Q193 14 186.5 7 Q180 0 164 0 L56 0 Q40 0 34 7 Q28 14 30 30 L106 650 Q108 666 115.5 673 Q123 680 139 680 L247 680 Q263 680 268 673 Q273 666 271 650 L240 395 L247 395 L431 650 Q440 663 453 671.5 Q466 680 482 680 L600 680 Q616 680 617.5 671.5 Q619 663 610 650 L383 346 Z M190 -112 L194 -80 Q196 -64 203.5 -57 Q211 -50 227 -50 L303 -50 Q319 -50 324 -57 Q329 -64 327 -80 L322 -121 Q316 -170 299.5 -199.5 Q283 -229 258 -261 Q248 -274 238 -276 Q228 -278 218 -276 L162 -263 Q148 -260 146 -248.5 Q144 -237 152 -224 Q171 -191 178 -172.5 Q185 -154 190 -112 Z " />
<glyph glyph-name="Lacute" unicode="&#x139;" horiz-adv-x="458" d="M271 650 L208 135 L404 135 Q420 135 426.5 129 Q433 123 431 107 L421 29 Q419 13 411.5 6.5 Q404 0 388 0 L52 0 Q39 0 34 7.5 Q29 15 30 30 L106 650 Q108 666 115.5 673 Q123 680 139 680 L247 680 Q263 680 268 673 Q273 666 271 650 Z M362 848 L281 747 Q275 740 265 733.5 Q255 727 239 727 L157 727 Q144 727 140 733.5 Q136 740 145 756 L196 848 Q203 861 214 869.5 Q225 878 241 878 L351 878 Q367 878 369.5 869.5 Q372 861 362 848 Z " />
<glyph glyph-name="Lcommaaccent" unicode="&#x13b;" horiz-adv-x="458" d="M271 650 L208 135 L404 135 Q420 135 426.5 129 Q433 123 431 107 L421 29 Q419 13 411.5 6.5 Q404 0 388 0 L52 0 Q39 0 34 7.5 Q29 15 30 30 L106 650 Q108 666 115.5 673 Q123 680 139 680 L247 680 Q263 680 268 673 Q273 666 271 650 Z M138 -111 L142 -79 Q144 -63 151.5 -56 Q159 -49 175 -49 L251 -49 Q267 -49 272 -56 Q277 -63 275 -79 L270 -120 Q264 -169 247.5 -198.5 Q231 -228 206 -260 Q196 -273 186 -275 Q176 -277 166 -275 L110 -262 Q96 -259 94 -247.5 Q92 -236 100 -223 Q119 -190 126 -171.5 Q133 -153 138 -111 Z " />
<glyph glyph-name="Lcaron" unicode="&#x13d;" horiz-adv-x="466" d="M271 650 L208 135 L404 135 Q420 135 426.5 129 Q433 123 431 107 L421 29 Q419 13 411.5 6.5 Q404 0 388 0 L52 0 Q39 0 34 7.5 Q29 15 30 30 L106 650 Q108 666 115.5 673 Q123 680 139 680 L247 680 Q263 680 268 673 Q273 666 271 650 Z M359 690 L363 722 Q365 738 372.5 745 Q380 752 396 752 L472 752 Q488 752 493 745 Q498 738 496 722 L491 681 Q485 632 468.5 602.5 Q452 573 427 541 Q417 528 407 526 Q397 524 387 526 L331 539 Q317 542 315 553.5 Q313 565 321 578 Q340 611 347 629.5 Q354 648 359 690 Z " />
<glyph glyph-name="Nacute" unicode="&#x143;" horiz-adv-x="627" d="M613 650 L537 30 Q535 14 528.5 7 Q522 0 506 0 L412 0 Q400 0 394 3.5 Q388 7 385 14 L258 280 Q248 301 239 326.5 Q230 352 226 370 L184 30 Q182 14 175.5 7 Q169 0 153 0 L55 0 Q39 0 33 7 Q27 14 29 30 L105 650 Q107 666 114.5 673 Q122 680 138 680 L232 680 Q242 680 248 677 Q254 674 257 668 L391 385 Q399 368 406 347 Q413 326 417 310 L458 650 Q460 666 467.5 673 Q475 680 491 680 L589 680 Q605 680 610 673 Q615 666 613 650 Z M520 848 L439 747 Q433 740 423 733.5 Q413 727 397 727 L315 727 Q302 727 298 733.5 Q294 740 303 756 L354 848 Q361 861 372 869.5 Q383 878 399 878 L509 878 Q525 878 527.5 869.5 Q530 861 520 848 Z " />
<glyph glyph-name="Ncommaaccent" unicode="&#x145;" horiz-adv-x="627" d="M613 650 L537 30 Q535 14 528.5 7 Q522 0 506 0 L412 0 Q400 0 394 3.5 Q388 7 385 14 L258 280 Q248 301 239 326.5 Q230 352 226 370 L184 30 Q182 14 175.5 7 Q169 0 153 0 L55 0 Q39 0 33 7 Q27 14 29 30 L105 650 Q107 666 114.5 673 Q122 680 138 680 L232 680 Q242 680 248 677 Q254 674 257 668 L391 385 Q399 368 406 347 Q413 326 417 310 L458 650 Q460 666 467.5 673 Q475 680 491 680 L589 680 Q605 680 610 673 Q615 666 613 650 Z M221 -112 L225 -80 Q227 -64 234.5 -57 Q242 -50 258 -50 L334 -50 Q350 -50 355 -57 Q360 -64 358 -80 L353 -121 Q347 -170 330.5 -199.5 Q314 -229 289 -261 Q279 -274 269 -276 Q259 -278 249 -276 L193 -263 Q179 -260 177 -248.5 Q175 -237 183 -224 Q202 -191 209 -172.5 Q216 -154 221 -112 Z " />
<glyph glyph-name="Ncaron" unicode="&#x147;" horiz-adv-x="627" d="M613 650 L537 30 Q535 14 528.5 7 Q522 0 506 0 L412 0 Q400 0 394 3.5 Q388 7 385 14 L258 280 Q248 301 239 326.5 Q230 352 226 370 L184 30 Q182 14 175.5 7 Q169 0 153 0 L55 0 Q39 0 33 7 Q27 14 29 30 L105 650 Q107 666 114.5 673 Q122 680 138 680 L232 680 Q242 680 248 677 Q254 674 257 668 L391 385 Q399 368 406 347 Q413 326 417 310 L458 650 Q460 666 467.5 673 Q475 680 491 680 L589 680 Q605 680 610 673 Q615 666 613 650 Z M367 849 L376 821 L391 849 Q397 859 408.5 868.5 Q420 878 436 878 L515 878 Q531 878 534 869.5 Q537 861 527 849 L445 757 Q434 744 422 735.5 Q410 727 394 727 L336 727 Q320 727 310.5 735.5 Q301 744 293 757 L233 849 Q226 861 231.5 869.5 Q237 878 253 878 L330 878 Q346 878 355 868.5 Q364 859 367 849 Z " />
<glyph glyph-name="Omacron" unicode="&#x14c;" horiz-adv-x="611" d="M35 171 L77 517 Q84 581 144 634.5 Q204 688 348 688 Q475 688 532 641 Q589 594 589 535 Q589 531 588.5 523.5 Q588 516 587 509 L545 163 Q538 99 477.5 45.5 Q417 -8 273 -8 Q146 -8 89.5 38.5 Q33 85 33 145 Q33 149 33.5 156.5 Q34 164 35 171 Z M383 192 L419 479 Q420 486 420.5 491 Q421 496 421 498 Q421 527 397 540 Q373 553 336 553 Q303 553 273 537.5 Q243 522 239 488 L203 201 Q202 195 201.5 189.5 Q201 184 201 182 Q201 153 225.5 140 Q250 127 287 127 Q324 127 351.5 142.5 Q379 158 383 192 Z M267 860 L488 860 Q504 860 509.5 854 Q515 848 514 832 L507 769 Q506 753 497.5 746.5 Q489 740 473 740 L252 740 Q236 740 230.5 746.5 Q225 753 226 769 L233 832 Q234 848 242.5 854 Q251 860 267 860 Z " />
<glyph glyph-name="Obreve" unicode="&#x14e;" horiz-adv-x="611" d="M35 171 L77 517 Q84 581 144 634.5 Q204 688 348 688 Q475 688 532 641 Q589 594 589 535 Q589 531 588.5 523.5 Q588 516 587 509 L545 163 Q538 99 477.5 45.5 Q417 -8 273 -8 Q146 -8 89.5 38.5 Q33 85 33 145 Q33 149 33.5 156.5 Q34 164 35 171 Z M383 192 L419 479 Q420 486 420.5 491 Q421 496 421 498 Q421 527 397 540 Q373 553 336 553 Q303 553 273 537.5 Q243 522 239 488 L203 201 Q202 195 201.5 189.5 Q201 184 201 182 Q201 153 225.5 140 Q250 127 287 127 Q324 127 351.5 142.5 Q379 158 383 192 Z M339 871 L338 862 Q337 856 337 853.5 Q337 851 337 849 Q337 836 344.5 828.5 Q352 821 369 821 Q388 821 397 830 Q406 839 407 854 L409 871 Q410 884 417 889.5 Q424 895 438 895 L499 895 Q513 895 518.5 889.5 Q524 884 522 871 L520 858 Q510 795 473 761.5 Q436 728 363 728 Q303 728 262.5 756.5 Q222 785 222 837 Q222 843 222.5 848 Q223 853 224 858 L226 871 Q228 884 234.5 889.5 Q241 895 255 895 L316 895 Q330 895 335 889.5 Q340 884 339 871 Z " />
<glyph glyph-name="Ohungarumlaut" unicode="&#x150;" horiz-adv-x="611" d="M35 171 L77 517 Q84 581 144 634.5 Q204 688 348 688 Q475 688 532 641 Q589 594 589 535 Q589 531 588.5 523.5 Q588 516 587 509 L545 163 Q538 99 477.5 45.5 Q417 -8 273 -8 Q146 -8 89.5 38.5 Q33 85 33 145 Q33 149 33.5 156.5 Q34 164 35 171 Z M383 192 L419 479 Q420 486 420.5 491 Q421 496 421 498 Q421 527 397 540 Q373 553 336 553 Q303 553 273 537.5 Q243 522 239 488 L203 201 Q202 195 201.5 189.5 Q201 184 201 182 Q201 153 225.5 140 Q250 127 287 127 Q324 127 351.5 142.5 Q379 158 383 192 Z M411 848 L349 756 Q340 743 331 735 Q322 727 306 727 L231 727 Q215 727 211 734.5 Q207 742 214 756 L261 848 Q268 862 278.5 870 Q289 878 305 878 L395 878 Q411 878 415 869.5 Q419 861 411 848 Z M593 848 L516 756 Q507 746 495.5 736.5 Q484 727 468 727 L393 727 Q377 727 374 734.5 Q371 742 381 756 L443 848 Q453 862 464.5 870 Q476 878 492 878 L582 878 Q598 878 600.5 869.5 Q603 861 593 848 Z " />
<glyph glyph-name="Racute" unicode="&#x154;" horiz-adv-x="598" d="M344 545 L261 545 L241 386 L321 386 Q360 386 387.5 399.5 Q415 413 420 447 L423 468 Q424 474 424 478.5 Q424 483 424 485 Q424 514 404 529.5 Q384 545 344 545 Z M166 0 L58 0 Q45 0 37.5 6 Q30 12 32 30 L108 650 Q110 666 117.5 673 Q125 680 141 680 L348 680 Q476 680 533 631.5 Q590 583 590 519 Q590 515 589.5 508 Q589 501 588 495 L579 417 Q574 373 546 334 Q518 295 458 273 L525 30 Q529 16 519 8 Q509 0 494 0 L380 0 Q367 0 361 9 Q355 18 352 30 L292 251 L224 251 L197 30 Q196 14 189 7 Q182 0 166 0 Z M480 848 L399 747 Q393 740 383 733.5 Q373 727 357 727 L275 727 Q262 727 258 733.5 Q254 740 263 756 L314 848 Q321 861 332 869.5 Q343 878 359 878 L469 878 Q485 878 487.5 869.5 Q490 861 480 848 Z " />
<glyph glyph-name="Rcommaaccent" unicode="&#x156;" horiz-adv-x="598" d="M344 545 L261 545 L241 386 L321 386 Q360 386 387.5 399.5 Q415 413 420 447 L423 468 Q424 474 424 478.5 Q424 483 424 485 Q424 514 404 529.5 Q384 545 344 545 Z M166 0 L58 0 Q45 0 37.5 6 Q30 12 32 30 L108 650 Q110 666 117.5 673 Q125 680 141 680 L348 680 Q476 680 533 631.5 Q590 583 590 519 Q590 515 589.5 508 Q589 501 588 495 L579 417 Q574 373 546 334 Q518 295 458 273 L525 30 Q529 16 519 8 Q509 0 494 0 L380 0 Q367 0 361 9 Q355 18 352 30 L292 251 L224 251 L197 30 Q196 14 189 7 Q182 0 166 0 Z M191 -112 L195 -80 Q197 -64 204.5 -57 Q212 -50 228 -50 L304 -50 Q320 -50 325 -57 Q330 -64 328 -80 L323 -121 Q317 -170 300.5 -199.5 Q284 -229 259 -261 Q249 -274 239 -276 Q229 -278 219 -276 L163 -263 Q149 -260 147 -248.5 Q145 -237 153 -224 Q172 -191 179 -172.5 Q186 -154 191 -112 Z " />
<glyph glyph-name="Rcaron" unicode="&#x158;" horiz-adv-x="598" d="M344 545 L261 545 L241 386 L321 386 Q360 386 387.5 399.5 Q415 413 420 447 L423 468 Q424 474 424 478.5 Q424 483 424 485 Q424 514 404 529.5 Q384 545 344 545 Z M166 0 L58 0 Q45 0 37.5 6 Q30 12 32 30 L108 650 Q110 666 117.5 673 Q125 680 141 680 L348 680 Q476 680 533 631.5 Q590 583 590 519 Q590 515 589.5 508 Q589 501 588 495 L579 417 Q574 373 546 334 Q518 295 458 273 L525 30 Q529 16 519 8 Q509 0 494 0 L380 0 Q367 0 361 9 Q355 18 352 30 L292 251 L224 251 L197 30 Q196 14 189 7 Q182 0 166 0 Z M318 849 L327 821 L342 849 Q348 859 359.5 868.5 Q371 878 387 878 L466 878 Q482 878 485 869.5 Q488 861 478 849 L396 757 Q385 744 373 735.5 Q361 727 345 727 L287 727 Q271 727 261.5 735.5 Q252 744 244 757 L184 849 Q177 861 182.5 869.5 Q188 878 204 878 L281 878 Q297 878 306 868.5 Q315 859 318 849 Z " />
<glyph glyph-name="Sacute" unicode="&#x15a;" horiz-adv-x="574" d="M391 480 L392 495 L392 501 Q392 532 372.5 545 Q353 558 320 558 Q286 558 262.5 543.5 Q239 529 235 495 L234 485 L234 479 Q234 460 244 452.5 Q254 445 261 442 L422 385 Q471 368 500 332 Q529 296 529 250 Q529 246 528.5 239.5 Q528 233 527 225 L520 163 Q513 99 455.5 45.5 Q398 -8 256 -8 Q128 -8 73.5 39 Q19 86 19 146 Q19 150 19.5 155.5 Q20 161 21 171 L28 230 Q29 246 37 253 Q45 260 61 260 L165 260 Q181 260 186 252 Q191 244 189 230 L184 193 Q183 188 183 183.5 Q183 179 183 175 Q183 146 206.5 134 Q230 122 266 122 Q303 122 329 136.5 Q355 151 360 185 L363 205 L363 210 Q363 235 336.5 248.5 Q310 262 285 272 L148 326 Q118 338 94 368.5 Q70 399 70 442 Q70 446 70.5 453 Q71 460 72 467 L78 517 Q85 581 137.5 634.5 Q190 688 330 688 Q455 688 506 641 Q557 594 557 537 Q557 533 557 528 Q557 523 556 517 L552 480 Q551 464 543 457 Q535 450 519 450 L415 450 Q401 450 395.5 456.5 Q390 463 391 480 Z M497 848 L416 747 Q410 740 400 733.5 Q390 727 374 727 L292 727 Q279 727 275 733.5 Q271 740 280 756 L331 848 Q338 861 349 869.5 Q360 878 376 878 L486 878 Q502 878 504.5 869.5 Q507 861 497 848 Z " />
<glyph glyph-name="Scircumflex" unicode="&#x15c;" horiz-adv-x="574" d="M391 480 L392 495 L392 501 Q392 532 372.5 545 Q353 558 320 558 Q286 558 262.5 543.5 Q239 529 235 495 L234 485 L234 479 Q234 460 244 452.5 Q254 445 261 442 L422 385 Q471 368 500 332 Q529 296 529 250 Q529 246 528.5 239.5 Q528 233 527 225 L520 163 Q513 99 455.5 45.5 Q398 -8 256 -8 Q128 -8 73.5 39 Q19 86 19 146 Q19 150 19.5 155.5 Q20 161 21 171 L28 230 Q29 246 37 253 Q45 260 61 260 L165 260 Q181 260 186 252 Q191 244 189 230 L184 193 Q183 188 183 183.5 Q183 179 183 175 Q183 146 206.5 134 Q230 122 266 122 Q303 122 329 136.5 Q355 151 360 185 L363 205 L363 210 Q363 235 336.5 248.5 Q310 262 285 272 L148 326 Q118 338 94 368.5 Q70 399 70 442 Q70 446 70.5 453 Q71 460 72 467 L78 517 Q85 581 137.5 634.5 Q190 688 330 688 Q455 688 506 641 Q557 594 557 537 Q557 533 557 528 Q557 523 556 517 L552 480 Q551 464 543 457 Q535 450 519 450 L415 450 Q401 450 395.5 456.5 Q390 463 391 480 Z M344 784 L329 756 Q323 746 311.5 736.5 Q300 727 284 727 L205 727 Q189 727 186 735.5 Q183 744 193 756 L275 848 Q286 861 298 869.5 Q310 878 326 878 L384 878 Q400 878 409.5 869.5 Q419 861 427 848 L487 756 Q494 744 488.5 735.5 Q483 727 467 727 L390 727 Q374 727 365.5 736 Q357 745 353 756 L344 784 Z " />
<glyph glyph-name="Scedilla" unicode="&#x15e;" horiz-adv-x="574" d="M292 -211 L167 -211 Q151 -211 144.5 -203 Q138 -195 140 -182 L143 -161 Q145 -145 152.5 -139 Q160 -133 176 -133 L273 -133 Q279 -133 281 -129.5 Q283 -126 283 -122 Q283 -118 280 -115.5 Q277 -113 273 -113 L195 -113 Q173 -113 165 -103 Q157 -93 165 -73 L194 -4 Q101 8 60 51.5 Q19 95 19 146 Q19 150 19.5 155.5 Q20 161 21 171 L28 230 Q29 246 37 253 Q45 260 61 260 L165 260 Q181 260 186 252 Q191 244 189 230 L184 193 Q183 188 183 183.5 Q183 179 183 175 Q183 146 206.5 134 Q230 122 266 122 Q303 122 329 136.5 Q355 151 360 185 L363 205 L363 210 Q363 235 336.5 248.5 Q310 262 285 272 L148 326 Q118 338 94 368.5 Q70 399 70 442 Q70 446 70.5 453 Q71 460 72 467 L78 517 Q85 581 137.5 634.5 Q190 688 330 688 Q455 688 506 641 Q557 594 557 537 Q557 533 557 528 Q557 523 556 517 L552 480 Q551 464 543 457 Q535 450 519 450 L415 450 Q401 450 395.5 456.5 Q390 463 391 480 L392 495 L392 501 Q392 532 372.5 545 Q353 558 320 558 Q286 558 262.5 543.5 Q239 529 235 495 L234 485 L234 479 Q234 460 244 452.5 Q254 445 261 442 L422 385 Q471 368 500 332 Q529 296 529 250 Q529 246 528.5 239.5 Q528 233 527 225 L520 163 Q513 104 464.5 53 Q416 2 298 -6 L286 -39 L313 -39 Q350 -39 371 -59 Q392 -79 392 -112 Q392 -161 364 -186 Q336 -211 292 -211 Z " />
<glyph glyph-name="Scommaaccent" unicode="&#x218;" horiz-adv-x="574" d="M391 480 L392 495 L392 501 Q392 532 372.5 545 Q353 558 320 558 Q286 558 262.5 543.5 Q239 529 235 495 L234 485 L234 479 Q234 460 244 452.5 Q254 445 261 442 L422 385 Q471 368 500 332 Q529 296 529 250 Q529 246 528.5 239.5 Q528 233 527 225 L520 163 Q513 99 455.5 45.5 Q398 -8 256 -8 Q128 -8 73.5 39 Q19 86 19 146 Q19 150 19.5 155.5 Q20 161 21 171 L28 230 Q29 246 37 253 Q45 260 61 260 L165 260 Q181 260 186 252 Q191 244 189 230 L184 193 Q183 188 183 183.5 Q183 179 183 175 Q183 146 206.5 134 Q230 122 266 122 Q303 122 329 136.5 Q355 151 360 185 L363 205 L363 210 Q363 235 336.5 248.5 Q310 262 285 272 L148 326 Q118 338 94 368.5 Q70 399 70 442 Q70 446 70.5 453 Q71 460 72 467 L78 517 Q85 581 137.5 634.5 Q190 688 330 688 Q455 688 506 641 Q557 594 557 537 Q557 533 557 528 Q557 523 556 517 L552 480 Q551 464 543 457 Q535 450 519 450 L415 450 Q401 450 395.5 456.5 Q390 463 391 480 Z M178 -112 L182 -80 Q184 -64 191.5 -57 Q199 -50 215 -50 L291 -50 Q307 -50 312 -57 Q317 -64 315 -80 L310 -121 Q304 -170 287.5 -199.5 Q271 -229 246 -261 Q236 -274 226 -276 Q216 -278 206 -276 L150 -263 Q136 -260 134 -248.5 Q132 -237 140 -224 Q159 -191 166 -172.5 Q173 -154 178 -112 Z " />
<glyph glyph-name="Tcommaaccent" unicode="&#x162;" horiz-adv-x="498" d="M88 680 L509 680 Q525 680 531.5 674 Q538 668 536 652 L526 574 Q524 558 516.5 551.5 Q509 545 493 545 L365 545 L301 30 Q299 14 292.5 7 Q286 0 270 0 L162 0 Q146 0 140 7 Q134 14 136 30 L200 545 L72 545 Q56 545 49.5 551.5 Q43 558 45 574 L55 652 Q57 668 64.5 674 Q72 680 88 680 Z M130 -112 L134 -80 Q136 -64 143.5 -57 Q151 -50 167 -50 L243 -50 Q259 -50 264 -57 Q269 -64 267 -80 L262 -121 Q256 -170 239.5 -199.5 Q223 -229 198 -261 Q188 -274 178 -276 Q168 -278 158 -276 L102 -263 Q88 -260 86 -248.5 Q84 -237 92 -224 Q111 -191 118 -172.5 Q125 -154 130 -112 Z " />
<glyph glyph-name="Tcaron" unicode="&#x164;" horiz-adv-x="498" d="M88 680 L509 680 Q525 680 531.5 674 Q538 668 536 652 L526 574 Q524 558 516.5 551.5 Q509 545 493 545 L365 545 L301 30 Q299 14 292.5 7 Q286 0 270 0 L162 0 Q146 0 140 7 Q134 14 136 30 L200 545 L72 545 Q56 545 49.5 551.5 Q43 558 45 574 L55 652 Q57 668 64.5 674 Q72 680 88 680 Z M298 849 L307 821 L322 849 Q328 859 339.5 868.5 Q351 878 367 878 L446 878 Q462 878 465 869.5 Q468 861 458 849 L376 757 Q365 744 353 735.5 Q341 727 325 727 L267 727 Q251 727 241.5 735.5 Q232 744 224 757 L164 849 Q157 861 162.5 869.5 Q168 878 184 878 L261 878 Q277 878 286 868.5 Q295 859 298 849 Z " />
<glyph glyph-name="Utilde" unicode="&#x168;" horiz-adv-x="624" d="M265 650 L211 216 Q210 204 209 197 Q208 190 208 183 Q208 153 233 140 Q258 127 292 127 Q329 127 357 142.5 Q385 158 389 192 L446 650 Q448 666 455 673 Q462 680 478 680 L586 680 Q597 680 605 673.5 Q613 667 611 650 L551 163 Q543 99 485.5 45.5 Q428 -8 282 -8 Q157 -8 98 39.5 Q39 87 39 147 Q39 152 40 161.5 Q41 171 42 178 L100 650 Q102 666 109 673 Q116 680 132 680 L240 680 Q251 680 259 673.5 Q267 667 265 650 Z M312 770 Q305 770 300 766.5 Q295 763 293 757 L291 752 Q285 736 277.5 731.5 Q270 727 256 727 L205 727 Q190 727 185.5 736.5 Q181 746 185 761 L197 810 Q206 845 234 865.5 Q262 886 298 886 Q314 886 330.5 882.5 Q347 879 357 875 L397 859 Q408 855 416.5 851 Q425 847 430 847 Q437 847 442 850.5 Q447 854 450 860 L452 864 Q459 878 465.5 884 Q472 890 487 890 L541 890 Q557 890 561.5 881 Q566 872 562 856 L552 811 Q544 773 519.5 754 Q495 735 462 735 Q433 735 419 737.5 Q405 740 391 745 L348 760 Q337 764 328 767 Q319 770 312 770 Z " />
<glyph glyph-name="Umacron" unicode="&#x16a;" horiz-adv-x="624" d="M265 650 L211 216 Q210 204 209 197 Q208 190 208 183 Q208 153 233 140 Q258 127 292 127 Q329 127 357 142.5 Q385 158 389 192 L446 650 Q448 666 455 673 Q462 680 478 680 L586 680 Q597 680 605 673.5 Q613 667 611 650 L551 163 Q543 99 485.5 45.5 Q428 -8 282 -8 Q157 -8 98 39.5 Q39 87 39 147 Q39 152 40 161.5 Q41 171 42 178 L100 650 Q102 666 109 673 Q116 680 132 680 L240 680 Q251 680 259 673.5 Q267 667 265 650 Z M270 860 L491 860 Q507 860 512.5 854 Q518 848 517 832 L510 769 Q509 753 500.5 746.5 Q492 740 476 740 L255 740 Q239 740 233.5 746.5 Q228 753 229 769 L236 832 Q237 848 245.5 854 Q254 860 270 860 Z " />
<glyph glyph-name="Ubreve" unicode="&#x16c;" horiz-adv-x="624" d="M265 650 L211 216 Q210 204 209 197 Q208 190 208 183 Q208 153 233 140 Q258 127 292 127 Q329 127 357 142.5 Q385 158 389 192 L446 650 Q448 666 455 673 Q462 680 478 680 L586 680 Q597 680 605 673.5 Q613 667 611 650 L551 163 Q543 99 485.5 45.5 Q428 -8 282 -8 Q157 -8 98 39.5 Q39 87 39 147 Q39 152 40 161.5 Q41 171 42 178 L100 650 Q102 666 109 673 Q116 680 132 680 L240 680 Q251 680 259 673.5 Q267 667 265 650 Z M341 871 L340 862 Q339 856 339 853.5 Q339 851 339 849 Q339 836 346.5 828.5 Q354 821 371 821 Q390 821 399 830 Q408 839 409 854 L411 871 Q412 884 419 889.5 Q426 895 440 895 L501 895 Q515 895 520.5 889.5 Q526 884 524 871 L522 858 Q512 795 475 761.5 Q438 728 365 728 Q305 728 264.5 756.5 Q224 785 224 837 Q224 843 224.5 848 Q225 853 226 858 L228 871 Q230 884 236.5 889.5 Q243 895 257 895 L318 895 Q332 895 337 889.5 Q342 884 341 871 Z " />
<glyph glyph-name="Uring" unicode="&#x16e;" horiz-adv-x="624" d="M265 650 L211 216 Q210 204 209 197 Q208 190 208 183 Q208 153 233 140 Q258 127 292 127 Q329 127 357 142.5 Q385 158 389 192 L446 650 Q448 666 455 673 Q462 680 478 680 L586 680 Q597 680 605 673.5 Q613 667 611 650 L551 163 Q543 99 485.5 45.5 Q428 -8 282 -8 Q157 -8 98 39.5 Q39 87 39 147 Q39 152 40 161.5 Q41 171 42 178 L100 650 Q102 666 109 673 Q116 680 132 680 L240 680 Q251 680 259 673.5 Q267 667 265 650 Z M494 819 L490 792 Q486 761 460.5 736.5 Q435 712 365 712 Q305 712 275.5 734 Q246 756 246 784 Q246 787 246 791 Q246 795 247 799 L251 826 Q255 857 281 881.5 Q307 906 379 906 Q439 906 467 884 Q495 862 495 834 Q495 832 495 829 Q495 826 494 819 Z M407 801 L408 809 Q408 809 408.5 813.5 Q409 818 409 822 Q409 835 398 839.5 Q387 844 373 844 Q357 844 345.5 838.5 Q334 833 333 817 L332 808 Q332 808 331.5 804 Q331 800 331 796 Q331 783 342 778 Q353 773 367 773 Q383 773 394 779 Q405 785 407 801 Z " />
<glyph glyph-name="Uhungarumlaut" unicode="&#x170;" horiz-adv-x="624" d="M265 650 L211 216 Q210 204 209 197 Q208 190 208 183 Q208 153 233 140 Q258 127 292 127 Q329 127 357 142.5 Q385 158 389 192 L446 650 Q448 666 455 673 Q462 680 478 680 L586 680 Q597 680 605 673.5 Q613 667 611 650 L551 163 Q543 99 485.5 45.5 Q428 -8 282 -8 Q157 -8 98 39.5 Q39 87 39 147 Q39 152 40 161.5 Q41 171 42 178 L100 650 Q102 666 109 673 Q116 680 132 680 L240 680 Q251 680 259 673.5 Q267 667 265 650 Z M416 848 L354 756 Q345 743 336 735 Q327 727 311 727 L236 727 Q220 727 216 734.5 Q212 742 219 756 L266 848 Q273 862 283.5 870 Q294 878 310 878 L400 878 Q416 878 420 869.5 Q424 861 416 848 Z M598 848 L521 756 Q512 746 500.5 736.5 Q489 727 473 727 L398 727 Q382 727 379 734.5 Q376 742 386 756 L448 848 Q458 862 469.5 870 Q481 878 497 878 L587 878 Q603 878 605.5 869.5 Q608 861 598 848 Z " />
<glyph glyph-name="Uogonek" unicode="&#x172;" horiz-adv-x="624" d="M265 650 L211 216 Q210 204 209 197 Q208 190 208 183 Q208 153 233 140 Q258 127 292 127 Q329 127 357 142.5 Q385 158 389 192 L446 650 Q448 666 455 673 Q462 680 478 680 L586 680 Q597 680 605 673.5 Q613 667 611 650 L551 163 Q547 135 535 107 Q523 79 498 55 Q477 36 455.5 7.5 Q434 -21 434 -57 Q434 -69 441 -75.5 Q448 -82 464 -82 L487 -82 Q503 -82 511 -88 Q519 -94 517 -110 L512 -150 Q510 -166 499 -172.5 Q488 -179 472 -179 L414 -179 Q389 -179 352 -163.5 Q315 -148 315 -93 Q315 -80 318.5 -57 Q322 -34 338 -5 Q325 -6 311 -7 Q297 -8 282 -8 Q157 -8 98 39.5 Q39 87 39 147 Q39 152 40 161.5 Q41 171 42 178 L100 650 Q102 666 109 673 Q116 680 132 680 L240 680 Q251 680 259 673.5 Q267 667 265 650 Z " />
<glyph glyph-name="Wcircumflex" unicode="&#x174;" horiz-adv-x="861" d="M568 650 L602 371 Q604 350 605 321 Q606 292 606 261 Q613 292 621 320 Q629 348 637 370 L741 650 Q746 664 755 672 Q764 680 780 680 L875 680 Q891 680 894.5 672 Q898 664 893 650 L661 30 Q655 14 646 7 Q637 0 621 0 L516 0 Q503 0 495 8 Q487 16 486 30 L450 318 Q448 335 447.5 361 Q447 387 448 421 Q441 387 434.5 361.5 Q428 336 421 317 L313 30 Q307 14 298 7 Q289 0 273 0 L168 0 Q155 0 147 8 Q139 16 138 30 L58 650 Q57 664 62.5 672 Q68 680 84 680 L193 680 Q209 680 216 672 Q223 664 224 650 L258 370 Q260 351 261 328 Q262 305 263 280 Q270 304 277.5 327 Q285 350 292 370 L397 650 Q402 664 411 672 Q420 680 436 680 L537 680 Q553 680 560 672 Q567 664 568 650 Z M499 784 L484 756 Q478 746 466.5 736.5 Q455 727 439 727 L360 727 Q344 727 341 735.5 Q338 744 348 756 L430 848 Q441 861 453 869.5 Q465 878 481 878 L539 878 Q555 878 564.5 869.5 Q574 861 582 848 L642 756 Q649 744 643.5 735.5 Q638 727 622 727 L545 727 Q529 727 520.5 736 Q512 745 508 756 L499 784 Z " />
<glyph glyph-name="Wgrave" unicode="&#x1e80;" horiz-adv-x="861" d="M568 650 L602 371 Q604 350 605 321 Q606 292 606 261 Q613 292 621 320 Q629 348 637 370 L741 650 Q746 664 755 672 Q764 680 780 680 L875 680 Q891 680 894.5 672 Q898 664 893 650 L661 30 Q655 14 646 7 Q637 0 621 0 L516 0 Q503 0 495 8 Q487 16 486 30 L450 318 Q448 335 447.5 361 Q447 387 448 421 Q441 387 434.5 361.5 Q428 336 421 317 L313 30 Q307 14 298 7 Q289 0 273 0 L168 0 Q155 0 147 8 Q139 16 138 30 L58 650 Q57 664 62.5 672 Q68 680 84 680 L193 680 Q209 680 216 672 Q223 664 224 650 L258 370 Q260 351 261 328 Q262 305 263 280 Q270 304 277.5 327 Q285 350 292 370 L397 650 Q402 664 411 672 Q420 680 436 680 L537 680 Q553 680 560 672 Q567 664 568 650 Z M411 747 L354 848 Q347 861 352 869.5 Q357 878 373 878 L478 878 Q494 878 502.5 869.5 Q511 861 515 848 L544 756 Q549 740 543 733.5 Q537 727 524 727 L447 727 Q431 727 423 733.5 Q415 740 411 747 Z " />
<glyph glyph-name="Wacute" unicode="&#x1e82;" horiz-adv-x="861" d="M568 650 L602 371 Q604 350 605 321 Q606 292 606 261 Q613 292 621 320 Q629 348 637 370 L741 650 Q746 664 755 672 Q764 680 780 680 L875 680 Q891 680 894.5 672 Q898 664 893 650 L661 30 Q655 14 646 7 Q637 0 621 0 L516 0 Q503 0 495 8 Q487 16 486 30 L450 318 Q448 335 447.5 361 Q447 387 448 421 Q441 387 434.5 361.5 Q428 336 421 317 L313 30 Q307 14 298 7 Q289 0 273 0 L168 0 Q155 0 147 8 Q139 16 138 30 L58 650 Q57 664 62.5 672 Q68 680 84 680 L193 680 Q209 680 216 672 Q223 664 224 650 L258 370 Q260 351 261 328 Q262 305 263 280 Q270 304 277.5 327 Q285 350 292 370 L397 650 Q402 664 411 672 Q420 680 436 680 L537 680 Q553 680 560 672 Q567 664 568 650 Z M654 848 L573 747 Q567 740 557 733.5 Q547 727 531 727 L449 727 Q436 727 432 733.5 Q428 740 437 756 L488 848 Q495 861 506 869.5 Q517 878 533 878 L643 878 Q659 878 661.5 869.5 Q664 861 654 848 Z " />
<glyph glyph-name="Wdieresis" unicode="&#x1e84;" horiz-adv-x="861" d="M568 650 L602 371 Q604 350 605 321 Q606 292 606 261 Q613 292 621 320 Q629 348 637 370 L741 650 Q746 664 755 672 Q764 680 780 680 L875 680 Q891 680 894.5 672 Q898 664 893 650 L661 30 Q655 14 646 7 Q637 0 621 0 L516 0 Q503 0 495 8 Q487 16 486 30 L450 318 Q448 335 447.5 361 Q447 387 448 421 Q441 387 434.5 361.5 Q428 336 421 317 L313 30 Q307 14 298 7 Q289 0 273 0 L168 0 Q155 0 147 8 Q139 16 138 30 L58 650 Q57 664 62.5 672 Q68 680 84 680 L193 680 Q209 680 216 672 Q223 664 224 650 L258 370 Q260 351 261 328 Q262 305 263 280 Q270 304 277.5 327 Q285 350 292 370 L397 650 Q402 664 411 672 Q420 680 436 680 L537 680 Q553 680 560 672 Q567 664 568 650 Z M635 848 L624 756 Q622 740 615 733.5 Q608 727 592 727 L532 727 Q516 727 510.5 733.5 Q505 740 507 756 L518 848 Q520 864 527.5 871 Q535 878 551 878 L611 878 Q627 878 632 871 Q637 864 635 848 Z M480 848 L469 756 Q467 740 460 733.5 Q453 727 437 727 L377 727 Q361 727 355.5 733.5 Q350 740 352 756 L363 848 Q365 864 372.5 871 Q380 878 396 878 L456 878 Q472 878 477 871 Q482 864 480 848 Z " />
<glyph glyph-name="Ycircumflex" unicode="&#x176;" horiz-adv-x="553" d="M235 650 L282 451 Q285 438 287.5 424 Q290 410 292 391 Q299 410 305.5 424.5 Q312 439 319 451 L427 650 Q434 663 442 671.5 Q450 680 466 680 L574 680 Q590 680 595 672 Q600 664 592 650 L360 252 L332 30 Q330 14 323.5 7 Q317 0 301 0 L193 0 Q177 0 171 7 Q165 14 167 30 L192 232 L58 650 Q54 663 60.5 671.5 Q67 680 83 680 L203 680 Q219 680 225.5 671.5 Q232 663 235 650 Z M346 784 L331 756 Q325 746 313.5 736.5 Q302 727 286 727 L207 727 Q191 727 188 735.5 Q185 744 195 756 L277 848 Q288 861 300 869.5 Q312 878 328 878 L386 878 Q402 878 411.5 869.5 Q421 861 429 848 L489 756 Q496 744 490.5 735.5 Q485 727 469 727 L392 727 Q376 727 367.5 736 Q359 745 355 756 L346 784 Z " />
</font>
</svg>
