<?xml version="1.0" encoding="UTF-8"?>
<svg xmlns="http://www.w3.org/2000/svg" xmlns:xlink="http://www.w3.org/1999/xlink" version="1.2" >
<font id="Fly Sans Light Regular">
<font-face  font-family="Fly Sans" units-per-em="1000" ascent="700" descent="-300" font-style="normal" font-weight="300" font-stretch="normal" cap-height="680" x-height="493" underline-position="-125" underline-thickness="37" />
<missing-glyph  horiz-adv-x="862" d="M679 94 Q628 44 563.5 18 Q499 -8 430 -8 Q364 -8 299 18 Q234 44 184 94 Q133 144 107 209 Q81 274 81 341 Q81 407 107 472 Q133 537 184 588 Q234 638 299 664 Q364 690 430 690 Q497 690 563 664 Q629 638 679 588 Q729 538 755.5 472.5 Q782 407 782 341 Q782 273 755.5 208.5 Q729 144 679 94 Z M667 106 Q716 155 741 216.5 Q766 278 766 341 Q766 404 741 465.5 Q716 527 667 576 Q618 625 556 649.5 Q494 674 430 674 Q367 674 306 649.5 Q245 625 196 576 Q147 527 122 465.5 Q97 404 97 341 Q97 278 122 216.5 Q147 155 196 106 Q245 57 306 32.5 Q367 8 430 8 Q495 8 556.5 32.5 Q618 57 667 106 Z M554 188 L431 311 L309 189 Q305 185 301 184.5 Q297 184 292 189 L278 203 Q274 207 274 211.5 Q274 216 278 220 L400 342 L278 465 Q274 469 274 473 Q274 477 278 481 L293 496 Q297 500 301 500 Q305 500 309 496 L431 373 L555 496 Q559 500 563 500 Q567 500 571 496 L586 481 Q591 476 590.5 472.5 Q590 469 586 465 L463 342 L585 219 Q589 215 589.5 211 Q590 207 585 202 L571 188 Q567 184 562.5 184 Q558 184 554 188 Z " />
<glyph glyph-name="Eth" unicode="&#xd0;" horiz-adv-x="605" d="M313 0 L115 0 Q109 0 106.5 3 Q104 6 104 12 L104 324 L31 324 Q25 324 22 326.5 Q19 329 19 336 L19 354 Q19 360 22 362.5 Q25 365 31 365 L104 365 L104 668 Q104 674 107 677 Q110 680 115 680 L313 680 Q432 680 477 638.5 Q522 597 522 539 L522 141 Q522 83 477 41.5 Q432 0 313 0 Z M157 46 L313 46 Q400 46 434.5 74.5 Q469 103 469 149 L469 531 Q469 577 434.5 605.5 Q400 634 313 634 L157 634 L157 365 L300 365 Q306 365 309 362.5 Q312 360 312 354 L312 336 Q312 329 309 326.5 Q306 324 300 324 L157 324 L157 46 Z " />
<glyph glyph-name="eth" unicode="&#xf0;" horiz-adv-x="514" d="M278 603 L360 638 Q347 651 322 658.5 Q297 666 257 666 L169 666 Q163 666 160 668.5 Q157 671 157 678 L157 693 Q157 699 160 701.5 Q163 704 169 704 L257 704 Q313 704 349 692.5 Q385 681 404 661 L457 685 Q461 687 466 686 Q471 685 473 681 L477 673 Q479 669 477.5 664.5 Q476 660 471 658 L422 636 Q428 624 430.5 610.5 Q433 597 433 581 L433 115 Q433 61 394 26.5 Q355 -8 255 -8 Q154 -8 114 26.5 Q74 61 74 115 L74 378 Q74 432 107 466.5 Q140 501 211 501 Q274 501 318 479 Q362 457 384 440 L384 573 Q384 583 381.5 592.5 Q379 602 374 611 L292 576 Q287 574 283 574.5 Q279 575 276 580 L272 587 Q270 591 271.5 596 Q273 601 278 603 Z M384 119 L384 395 Q367 408 325.5 431.5 Q284 455 224 455 Q172 455 149 430.5 Q126 406 126 372 L126 119 Q126 82 154 58.5 Q182 35 255 35 Q328 35 356 58.5 Q384 82 384 119 Z " />
<glyph glyph-name="Lslash" unicode="&#x141;" horiz-adv-x="485" d="M452 0 L113 0 Q109 0 106 3 Q103 6 103 12 L103 308 L47 285 Q42 283 37.5 284.5 Q33 286 31 292 L27 303 Q26 307 27 311.5 Q28 316 33 318 L103 347 L103 668 Q103 674 106 677 Q109 680 115 680 L145 680 Q151 680 153.5 677 Q156 674 156 668 L156 369 L225 397 Q230 399 234 397.5 Q238 396 240 391 L246 379 Q248 375 245.5 370.5 Q243 366 238 364 L156 330 L156 46 L452 46 Q458 46 461 43.5 Q464 41 464 34 L464 12 Q464 5 461 2.5 Q458 0 452 0 Z " />
<glyph glyph-name="lslash" unicode="&#x142;" horiz-adv-x="257" d="M142 0 L113 0 Q107 0 104 3 Q101 6 101 12 L101 311 L39 285 Q34 283 29.5 284.5 Q25 286 23 292 L19 303 Q18 307 19 311.5 Q20 316 25 318 L101 349 L101 687 Q101 693 104 696 Q107 699 113 699 L142 699 Q148 699 150.5 696 Q153 693 153 687 L153 371 L217 397 Q222 399 226 397.5 Q230 396 232 391 L238 379 Q240 375 237.5 370.5 Q235 366 230 364 L153 332 L153 12 Q153 6 150.5 3 Q148 0 142 0 Z " />
<glyph glyph-name="Scaron" unicode="&#x160;" horiz-adv-x="550" d="M422 498 L422 541 Q422 586 391 614.5 Q360 643 274 643 Q187 643 155.5 614.5 Q124 586 124 541 L124 504 Q124 466 145.5 446.5 Q167 427 188 419 L380 346 Q417 332 448.5 302 Q480 272 480 221 L480 133 Q480 75 435.5 33.5 Q391 -8 272 -8 Q154 -8 109.5 33.5 Q65 75 65 133 L65 185 Q65 192 67.5 195 Q70 198 76 198 L105 198 Q112 198 114.5 195 Q117 192 117 185 L117 139 Q117 94 150.5 65.5 Q184 37 272 37 Q359 37 393 65.5 Q427 94 427 139 L427 210 Q427 250 400 271 Q373 292 344 303 L159 375 Q128 387 100 416.5 Q72 446 72 493 L72 547 Q72 605 114 646.5 Q156 688 273 688 Q390 688 432 646.5 Q474 605 474 547 L474 498 Q474 492 471.5 489 Q469 486 463 486 L434 486 Q427 486 424.5 489 Q422 492 422 498 Z M219 866 L279 774 L340 866 Q344 871 348 874.5 Q352 878 356 878 L380 878 Q386 878 388 874.5 Q390 871 386 866 L307 751 Q304 747 299.5 743.5 Q295 740 289 740 L269 740 Q263 740 259 743.5 Q255 747 251 752 L173 866 Q169 871 171 874.5 Q173 878 179 878 L202 878 Q208 878 212 874.5 Q216 871 219 866 Z " />
<glyph glyph-name="scaron" unicode="&#x161;" horiz-adv-x="471" d="M179 696 L240 604 L300 696 Q304 701 308 704.5 Q312 708 317 708 L340 708 Q346 708 348 704.5 Q350 701 346 696 L268 581 Q265 577 260 573.5 Q255 570 249 570 L229 570 Q223 570 219 573.5 Q215 577 211 582 L133 696 Q129 701 131 704.5 Q133 708 139 708 L163 708 Q168 708 172 704.5 Q176 701 179 696 Z M355 361 L355 392 Q355 423 325.5 442 Q296 461 233 461 Q171 461 142.5 442 Q114 423 114 392 L114 361 Q114 336 133 320 Q152 304 170 299 L326 250 Q361 239 385.5 216 Q410 193 410 159 L410 100 Q410 56 368 24 Q326 -8 233 -8 Q140 -8 99 24 Q58 56 58 100 L58 128 Q58 133 60.5 136 Q63 139 69 139 L96 139 Q101 139 103.5 136 Q106 133 106 128 L106 102 Q106 71 138 51.5 Q170 32 233 32 Q297 32 329.5 51.5 Q362 71 362 102 L362 147 Q362 172 343 186 Q324 200 299 208 L143 257 Q118 265 91.5 290 Q65 315 65 352 L65 392 Q65 436 103.5 468.5 Q142 501 234 501 Q325 501 364 468.5 Q403 436 403 392 L403 361 Q403 355 400.5 352.5 Q398 350 391 350 L365 350 Q360 350 357.5 352.5 Q355 355 355 361 Z " />
<glyph glyph-name="Yacute" unicode="&#xdd;" horiz-adv-x="516" d="M84 668 L246 360 Q249 355 253 345 Q257 335 260 327 Q261 331 265.5 340.5 Q270 350 275 360 L439 668 Q442 673 445 676.5 Q448 680 454 680 L483 680 Q490 680 493 677.5 Q496 675 492 668 L287 282 L287 12 Q287 6 284.5 3 Q282 0 275 0 L245 0 Q239 0 236.5 3 Q234 6 234 12 L234 276 L28 668 Q25 674 27.5 677 Q30 680 36 680 L69 680 Q76 680 78.5 677 Q81 674 84 668 Z M373 866 L292 747 Q291 745 287.5 742.5 Q284 740 278 740 L253 740 Q248 740 245.5 743 Q243 746 247 751 L320 868 Q323 872 326 875 Q329 878 335 878 L367 878 Q374 878 375.5 874.5 Q377 871 373 866 Z " />
<glyph glyph-name="yacute" unicode="&#xfd;" horiz-adv-x="439" d="M83 481 L206 120 Q211 105 215 89.5 Q219 74 220 68 Q223 80 226.5 93 Q230 106 234 118 L358 481 Q359 486 362.5 489.5 Q366 493 372 493 L400 493 Q406 493 408 489.5 Q410 486 409 481 L178 -196 Q177 -201 173.5 -204.5 Q170 -208 164 -208 L141 -208 Q135 -208 133 -204.5 Q131 -201 132 -196 L196 -2 L30 481 Q29 486 31 489.5 Q33 493 39 493 L69 493 Q75 493 78.5 489.5 Q82 486 83 481 Z M329 696 L248 577 Q247 575 243.5 572.5 Q240 570 234 570 L209 570 Q204 570 201.5 572.5 Q199 575 203 581 L275 698 Q278 702 281.5 705 Q285 708 291 708 L323 708 Q330 708 331.5 704.5 Q333 701 329 696 Z " />
<glyph glyph-name="Thorn" unicode="&#xde;" horiz-adv-x="571" d="M149 668 L149 493 L302 493 Q422 493 466.5 451.5 Q511 410 511 352 L511 245 Q511 187 466.5 145.5 Q422 104 302 104 L149 104 L149 12 Q149 6 146.5 3 Q144 0 138 0 L108 0 Q102 0 99 3 Q96 6 96 12 L96 668 Q96 674 99 677 Q102 680 108 680 L138 680 Q144 680 146.5 677 Q149 674 149 668 Z M302 448 L149 448 L149 149 L302 149 Q389 149 423.5 178 Q458 207 458 253 L458 344 Q458 390 423.5 419 Q389 448 302 448 Z " />
<glyph glyph-name="thorn" unicode="&#xfe;" horiz-adv-x="519" d="M394 121 L394 372 Q394 406 371 430.5 Q348 455 295 455 Q235 455 193.5 431.5 Q152 408 136 395 L136 97 Q152 84 193.5 61 Q235 38 295 38 Q348 38 371 62.5 Q394 87 394 121 Z M136 687 L136 440 Q157 457 201 479 Q245 501 308 501 Q379 501 412.5 466.5 Q446 432 446 378 L446 115 Q446 61 412.5 26.5 Q379 -8 308 -8 Q245 -8 201 13.5 Q157 35 136 52 L136 -196 Q136 -202 133 -205 Q130 -208 124 -208 L95 -208 Q89 -208 86.5 -205 Q84 -202 84 -196 L84 687 Q84 693 86.5 696 Q89 699 95 699 L124 699 Q130 699 133 696 Q136 693 136 687 Z " />
<glyph glyph-name="CR" unicode="&#xd;" d="" />
<glyph glyph-name="Zcaron" unicode="&#x17d;" horiz-adv-x="472" d="M175 881 L236 789 L296 881 Q300 886 304 889.5 Q308 893 313 893 L336 893 Q342 893 344 889.5 Q346 886 342 881 L264 766 Q261 762 256 758.5 Q251 755 245 755 L225 755 Q219 755 215 758.5 Q211 762 207 767 L129 881 Q125 886 127 889.5 Q129 893 135 893 L159 893 Q164 893 168 889.5 Q172 886 175 881 Z M65 680 L412 680 Q419 680 422 677.5 Q425 675 425 668 L425 647 Q425 644 424 641 Q423 638 422 637 L99 46 L428 46 Q434 46 436.5 43.5 Q439 41 439 34 L439 12 Q439 5 436.5 2.5 Q434 0 428 0 L47 0 Q40 0 37.5 2.5 Q35 5 35 12 L35 34 Q35 36 35.5 38.5 Q36 41 37 43 L358 634 L65 634 Q58 634 55.5 636.5 Q53 639 53 646 L53 668 Q53 675 55.5 677.5 Q58 680 65 680 Z " />
<glyph glyph-name="zcaron" unicode="&#x17e;" horiz-adv-x="426" d="M161 696 L222 604 L282 696 Q286 701 290 704.5 Q294 708 299 708 L322 708 Q328 708 330 704.5 Q332 701 328 696 L250 581 Q247 577 242 573.5 Q237 570 231 570 L211 570 Q205 570 201 573.5 Q197 577 193 582 L115 696 Q111 701 113 704.5 Q115 708 121 708 L145 708 Q150 708 154 704.5 Q158 701 161 696 Z M63 493 L363 493 Q369 493 372 490 Q375 487 375 481 L375 462 Q375 459 374 456.5 Q373 454 372 452 L103 44 L375 44 Q381 44 384 41.5 Q387 39 387 32 L387 12 Q387 6 384 3 Q381 0 375 0 L51 0 Q45 0 42 3 Q39 6 39 12 L39 32 Q39 35 40 37.5 Q41 40 42 42 L309 449 L63 449 Q57 449 54 451.5 Q51 454 51 461 L51 481 Q51 487 54 490 Q57 493 63 493 Z " />
<glyph glyph-name="onehalf" unicode="&#xbd;" horiz-adv-x="737" d="M498 36 L673 36 Q677 36 679 34 Q681 32 681 28 L681 8 Q681 4 679 2 Q677 0 673 0 L462 0 Q458 0 456 2 Q454 4 454 8 L454 108 Q454 136 473 150 Q492 164 506 168 L601 197 Q611 200 623.5 208.5 Q636 217 636 236 L636 292 Q636 315 621.5 329.5 Q607 344 564 344 Q520 344 505.5 329.5 Q491 315 491 292 L491 267 Q491 263 489 260.5 Q487 258 483 258 L457 258 Q453 258 451.5 260.5 Q450 263 450 267 L450 296 Q450 330 474.5 354 Q499 378 566 378 Q633 378 656 354 Q679 330 679 296 L679 234 Q679 203 660 188 Q641 173 627 169 L532 139 Q517 135 507.5 128 Q498 121 498 104 L498 36 Z M65 654 L185 680 Q189 681 191.5 679.5 Q194 678 194 673 L194 342 L281 342 Q285 342 287 340 Q289 338 289 334 L289 314 Q289 310 287 308 Q285 306 281 306 L64 306 Q60 306 58 308 Q56 310 56 314 L56 334 Q56 338 58 340 Q60 342 64 342 L151 342 L151 638 L65 617 Q61 616 59 618 Q57 620 57 624 L57 643 Q57 648 59 650.5 Q61 653 65 654 Z M555 676 L247 4 Q244 -3 240 -5.5 Q236 -8 230 -8 L207 -8 Q202 -8 201 -4 Q200 0 201 4 L510 676 Q512 681 516.5 684.5 Q521 688 527 688 L549 688 Q554 688 555.5 684 Q557 680 555 676 Z " />
<glyph glyph-name="onequarter" unicode="&#xbc;" horiz-adv-x="723" d="M542 366 L466 153 L612 153 L612 366 Q612 370 614 372 Q616 374 621 374 L647 374 Q651 374 653 372 Q655 370 655 366 L655 8 Q655 4 653 2 Q651 0 647 0 L621 0 Q616 0 614 2 Q612 4 612 8 L612 118 L430 118 Q426 118 423.5 120 Q421 122 421 126 L421 139 Q421 142 421.5 144.5 Q422 147 423 150 L499 366 Q500 370 503 372 Q506 374 510 374 L535 374 Q540 374 541.5 372 Q543 370 542 366 Z M65 654 L185 680 Q189 681 191.5 679.5 Q194 678 194 673 L194 342 L281 342 Q285 342 287 340 Q289 338 289 334 L289 314 Q289 310 287 308 Q285 306 281 306 L64 306 Q60 306 58 308 Q56 310 56 314 L56 334 Q56 338 58 340 Q60 342 64 342 L151 342 L151 638 L65 617 Q61 616 59 618 Q57 620 57 624 L57 643 Q57 648 59 650.5 Q61 653 65 654 Z M558 676 L250 4 Q247 -3 243 -5.5 Q239 -8 233 -8 L210 -8 Q205 -8 204 -4 Q203 0 204 4 L513 676 Q515 681 519.5 684.5 Q524 688 530 688 L552 688 Q557 688 558.5 684 Q560 680 558 676 Z " />
<glyph glyph-name="onesuperior" unicode="&#xb9;" horiz-adv-x="307" d="M54 804 L174 830 Q178 831 180.5 829.5 Q183 828 183 823 L183 492 L270 492 Q274 492 276 490 Q278 488 278 484 L278 464 Q278 460 276 458 Q274 456 270 456 L53 456 Q49 456 47 458 Q45 460 45 464 L45 484 Q45 488 47 490 Q49 492 53 492 L140 492 L140 788 L54 767 Q50 766 48 768 Q46 770 46 774 L46 793 Q46 798 48 800.5 Q50 803 54 804 Z " />
<glyph glyph-name="threequarters" unicode="&#xbe;" horiz-adv-x="723" d="M543 366 L467 153 L613 153 L613 366 Q613 370 615 372 Q617 374 622 374 L648 374 Q652 374 654 372 Q656 370 656 366 L656 8 Q656 4 654 2 Q652 0 648 0 L622 0 Q617 0 615 2 Q613 4 613 8 L613 118 L431 118 Q427 118 424.5 120 Q422 122 422 126 L422 139 Q422 142 422.5 144.5 Q423 147 424 150 L500 366 Q501 370 504 372 Q507 374 511 374 L536 374 Q541 374 542.5 372 Q544 370 543 366 Z M546 676 L238 4 Q235 -3 231 -5.5 Q227 -8 221 -8 L198 -8 Q193 -8 192 -4 Q191 0 192 4 L501 676 Q503 681 507.5 684.5 Q512 688 518 688 L540 688 Q545 688 546.5 684 Q548 680 546 676 Z M243 386 L243 437 Q243 461 228.5 474.5 Q214 488 171 488 L122 488 Q118 488 116 489.5 Q114 491 114 495 L114 512 Q114 516 116 517.5 Q118 519 122 519 L168 519 Q211 519 224.5 533 Q238 547 238 572 L238 600 Q238 624 224 637.5 Q210 651 169 651 Q127 651 112.5 637.5 Q98 624 98 600 L98 594 Q98 590 96 588 Q94 586 90 586 L65 586 Q60 586 58.5 588 Q57 590 57 594 L57 604 Q57 638 80 661 Q103 684 169 684 Q235 684 257.5 661.5 Q280 639 280 606 L280 566 Q280 543 270.5 527.5 Q261 512 233 504 Q264 497 274.5 480.5 Q285 464 285 441 L285 380 Q285 347 260 324.5 Q235 302 170 302 Q105 302 79.5 325 Q54 348 54 382 L54 393 Q54 397 56 399 Q58 401 62 401 L88 401 Q92 401 94 399 Q96 397 96 393 L96 386 Q96 362 112 348.5 Q128 335 170 335 Q212 335 227.5 348.5 Q243 362 243 386 Z " />
<glyph glyph-name="threesuperior" unicode="&#xb3;" horiz-adv-x="307" d="M224 536 L224 587 Q224 611 209.5 624.5 Q195 638 152 638 L103 638 Q99 638 97 639.5 Q95 641 95 645 L95 662 Q95 666 97 667.5 Q99 669 103 669 L149 669 Q192 669 205.5 683 Q219 697 219 722 L219 750 Q219 774 205 787.5 Q191 801 150 801 Q108 801 93.5 787.5 Q79 774 79 750 L79 744 Q79 740 77 738 Q75 736 71 736 L46 736 Q41 736 39.5 738 Q38 740 38 744 L38 754 Q38 788 61 811 Q84 834 150 834 Q216 834 238.5 811.5 Q261 789 261 756 L261 716 Q261 693 251.5 677.5 Q242 662 214 654 Q245 647 255.5 630.5 Q266 614 266 591 L266 530 Q266 497 241 474.5 Q216 452 151 452 Q86 452 60.5 475 Q35 498 35 532 L35 543 Q35 547 37 549 Q39 551 43 551 L69 551 Q73 551 75 549 Q77 547 77 543 L77 536 Q77 512 93 498.5 Q109 485 151 485 Q193 485 208.5 498.5 Q224 512 224 536 Z " />
<glyph glyph-name="twosuperior" unicode="&#xb2;" horiz-adv-x="307" d="M87 492 L262 492 Q266 492 268 490 Q270 488 270 484 L270 464 Q270 460 268 458 Q266 456 262 456 L51 456 Q47 456 45 458 Q43 460 43 464 L43 564 Q43 592 62 606 Q81 620 95 624 L190 653 Q200 656 212.5 664.5 Q225 673 225 692 L225 748 Q225 771 210.5 785.5 Q196 800 153 800 Q109 800 94.5 785.5 Q80 771 80 748 L80 723 Q80 719 78 716.5 Q76 714 72 714 L46 714 Q42 714 40.5 716.5 Q39 719 39 723 L39 752 Q39 786 63.5 810 Q88 834 155 834 Q222 834 245 810 Q268 786 268 752 L268 690 Q268 659 249 644 Q230 629 216 625 L121 595 Q106 591 96.5 584 Q87 577 87 560 L87 492 Z " />
<glyph glyph-name="brokenbar" unicode="&#xa6;" horiz-adv-x="229" d="M140 668 L140 326 Q140 320 137.5 317 Q135 314 129 314 L100 314 Q94 314 91 317 Q88 320 88 326 L88 668 Q88 674 91 677 Q94 680 100 680 L129 680 Q135 680 137.5 677 Q140 674 140 668 Z M140 143 L140 -199 Q140 -205 137.5 -208 Q135 -211 129 -211 L100 -211 Q94 -211 91 -208 Q88 -205 88 -199 L88 143 Q88 149 91 152 Q94 155 100 155 L129 155 Q135 155 137.5 152 Q140 149 140 143 Z " />
<glyph glyph-name="minus" unicode="&#x2212;" horiz-adv-x="590" d="M97 358 L493 358 Q499 358 502 355.5 Q505 353 505 346 L505 325 Q505 319 502 316 Q499 313 493 313 L97 313 Q90 313 87.5 316 Q85 319 85 325 L85 346 Q85 353 87.5 355.5 Q90 358 97 358 Z " />
<glyph glyph-name="multiply" unicode="&#xd7;" horiz-adv-x="458" d="M352 185 L229 307 L107 185 Q102 180 98 180.5 Q94 181 90 185 L75 200 Q71 204 71 208.5 Q71 213 75 217 L198 339 L75 462 Q71 466 70.5 469.5 Q70 473 74 477 L89 493 Q93 497 97 497 Q101 497 106 492 L229 370 L352 494 Q356 498 360.5 498 Q365 498 369 493 L383 478 Q387 474 387 470 Q387 466 383 462 L260 339 L382 217 Q387 212 387 208 Q387 204 382 199 L368 185 Q364 181 360 181 Q356 181 352 185 Z " />
<glyph glyph-name="space" unicode="&#x20;" horiz-adv-x="232" d="" />
<glyph glyph-name="exclam" unicode="&#x21;" horiz-adv-x="221" d="M138 390 L133 169 Q133 163 130 160 Q127 157 121 157 L100 157 Q94 157 91.5 160 Q89 163 89 169 L83 390 L83 668 Q83 674 85.5 677 Q88 680 95 680 L126 680 Q133 680 135.5 677 Q138 674 138 668 L138 390 Z M137 89 L137 12 Q137 5 134 2.5 Q131 0 125 0 L95 0 Q89 0 86.5 2.5 Q84 5 84 12 L84 89 Q84 95 86.5 98 Q89 101 95 101 L125 101 Q131 101 134 98 Q137 95 137 89 Z " />
<glyph glyph-name="quotedbl" unicode="&#x22;" horiz-adv-x="322" d="M247 495 Q247 488 244 485 Q241 482 235 482 L215 482 Q209 482 206 485 Q203 488 203 495 L199 668 Q199 674 201.5 677 Q204 680 210 680 L239 680 Q246 680 248.5 677 Q251 674 251 668 L247 495 Z M118 495 Q118 488 115.5 485 Q113 482 107 482 L87 482 Q81 482 78 485 Q75 488 75 495 L71 668 Q71 674 73.5 677 Q76 680 82 680 L112 680 Q118 680 120.5 677 Q123 674 123 668 L118 495 Z " />
<glyph glyph-name="numbersign" unicode="&#x23;" horiz-adv-x="575" d="M228 389 L195 270 L355 270 L389 389 L228 389 Z M65 270 L150 270 L183 389 L105 389 Q99 389 96 392 Q93 395 93 401 L93 417 Q93 423 96 426 Q99 429 105 429 L194 429 L222 530 Q223 535 227 538.5 Q231 542 237 542 L259 542 Q266 542 267.5 538 Q269 534 268 530 L240 429 L400 429 L429 530 Q430 535 433.5 538.5 Q437 542 443 542 L465 542 Q472 542 473.5 538 Q475 534 474 530 L445 429 L513 429 Q519 429 522 426 Q525 423 525 417 L525 401 Q525 395 522 392 Q519 389 513 389 L434 389 L401 270 L473 270 Q479 270 481.5 267.5 Q484 265 484 258 L484 242 Q484 236 481.5 233 Q479 230 473 230 L390 230 L363 131 Q362 125 358 122 Q354 119 348 119 L325 119 Q320 119 318 122.5 Q316 126 317 131 L345 230 L184 230 L156 131 Q155 125 151.5 122 Q148 119 142 119 L120 119 Q114 119 112 122.5 Q110 126 111 131 L139 230 L65 230 Q59 230 56 233 Q53 236 53 242 L53 258 Q53 265 56 267.5 Q59 270 65 270 Z " />
<glyph glyph-name="dollar" unicode="&#x24;" horiz-adv-x="476" d="M256 0 L227 0 Q221 0 218 3 Q215 6 215 12 L215 86 Q134 90 97.5 120.5 Q61 151 61 193 L61 221 Q61 226 63.5 229 Q66 232 72 232 L99 232 Q104 232 106.5 229 Q109 226 109 221 L109 195 Q109 164 141 144.5 Q173 125 236 125 Q300 125 332.5 144.5 Q365 164 365 195 L365 240 Q365 265 346 279 Q327 293 302 301 L146 350 Q121 358 94.5 383 Q68 408 68 445 L68 485 Q68 526 101.5 557.5 Q135 589 215 593 L215 668 Q215 674 218 677 Q221 680 227 680 L256 680 Q262 680 264.5 677 Q267 674 267 668 L267 593 Q342 587 374 556 Q406 525 406 485 L406 454 Q406 448 403.5 445.5 Q401 443 394 443 L368 443 Q363 443 360.5 445.5 Q358 448 358 454 L358 485 Q358 516 328.5 535 Q299 554 236 554 Q174 554 145.5 535 Q117 516 117 485 L117 454 Q117 429 136 413 Q155 397 173 392 L329 343 Q364 332 388.5 309 Q413 286 413 252 L413 193 Q413 153 378.5 122.5 Q344 92 267 86 L267 12 Q267 6 264.5 3 Q262 0 256 0 Z " />
<glyph glyph-name="percent" unicode="&#x25;" horiz-adv-x="719" d="M534 676 L226 4 Q223 -3 219 -5.5 Q215 -8 209 -8 L186 -8 Q181 -8 180 -4 Q179 0 180 4 L489 676 Q491 681 495.5 684.5 Q500 688 506 688 L528 688 Q533 688 534.5 684 Q536 680 534 676 Z M58 411 L58 601 Q58 635 82 659.5 Q106 684 174 684 Q243 684 267 659.5 Q291 635 291 601 L291 411 Q291 378 267 353.5 Q243 329 174 329 Q106 329 82 353.5 Q58 378 58 411 Z M248 417 L248 595 Q248 620 232.5 634 Q217 648 174 648 Q131 648 115.5 634 Q100 620 100 595 L100 417 Q100 393 115.5 379 Q131 365 174 365 Q217 365 232.5 379 Q248 393 248 417 Z M428 79 L428 269 Q428 302 452.5 326.5 Q477 351 545 351 Q614 351 637.5 326.5 Q661 302 661 269 L661 79 Q661 45 637.5 20.5 Q614 -4 545 -4 Q477 -4 452.5 20.5 Q428 45 428 79 Z M618 85 L618 263 Q618 288 602.5 301.5 Q587 315 545 315 Q502 315 486.5 301.5 Q471 288 471 263 L471 85 Q471 60 486.5 46 Q502 32 545 32 Q587 32 602.5 46 Q618 60 618 85 Z " />
<glyph glyph-name="ampersand" unicode="&#x26;" horiz-adv-x="641" d="M512 131 Q512 73 463 32.5 Q414 -8 293 -8 Q172 -8 123.5 32 Q75 72 75 130 L75 247 Q75 290 93.5 320 Q112 350 170 363 Q116 376 98.5 404.5 Q81 433 81 476 L81 550 Q81 608 119.5 648 Q158 688 271 688 Q386 688 424.5 647.5 Q463 607 463 549 L463 530 Q463 524 460.5 521 Q458 518 451 518 L422 518 Q416 518 413.5 521 Q411 524 411 530 L411 543 Q411 588 383 615.5 Q355 643 272 643 Q189 643 161.5 615.5 Q134 588 134 543 L134 483 Q134 437 160 411 Q186 385 273 385 L591 385 Q597 385 600 382 Q603 379 603 373 L603 351 Q603 345 600 342.5 Q597 340 591 340 L512 340 L512 131 Z M294 37 Q382 37 421.5 64.5 Q461 92 461 137 L461 340 L267 340 Q180 340 153.5 313.5 Q127 287 127 241 L127 137 Q127 92 166 64.5 Q205 37 294 37 Z " />
<glyph glyph-name="quotesingle" unicode="&#x27;" horiz-adv-x="194" d="M123 668 L118 495 Q118 488 115.5 485 Q113 482 107 482 L87 482 Q81 482 78 485 Q75 488 75 495 L71 668 Q71 674 73.5 677 Q76 680 82 680 L112 680 Q118 680 120.5 677 Q123 674 123 668 Z " />
<glyph glyph-name="parenleft" unicode="&#x28;" horiz-adv-x="305" d="M80 -95 L80 585 Q80 639 119.5 673.5 Q159 708 259 708 L265 708 Q271 708 274 705.5 Q277 703 277 696 L277 675 Q277 669 274 666 Q271 663 265 663 L259 663 Q186 663 160 640 Q134 617 134 580 L134 -90 Q134 -127 160 -150 Q186 -173 259 -173 L265 -173 Q271 -173 274 -176 Q277 -179 277 -185 L277 -206 Q277 -213 274 -215.5 Q271 -218 265 -218 L259 -218 Q159 -218 119.5 -183.5 Q80 -149 80 -95 Z " />
<glyph glyph-name="parenright" unicode="&#x29;" horiz-adv-x="304" d="M224 585 L224 -95 Q224 -149 184.5 -183.5 Q145 -218 45 -218 L40 -218 Q33 -218 30.5 -215.5 Q28 -213 28 -206 L28 -185 Q28 -179 30.5 -176 Q33 -173 40 -173 L45 -173 Q118 -173 144 -150 Q170 -127 170 -90 L170 580 Q170 617 144 640 Q118 663 45 663 L40 663 Q33 663 30.5 666 Q28 669 28 675 L28 696 Q28 703 30.5 705.5 Q33 708 40 708 L45 708 Q145 708 184.5 673.5 Q224 639 224 585 Z " />
<glyph glyph-name="asterisk" unicode="&#x2a;" horiz-adv-x="444" d="M215 368 Q209 368 206.5 371 Q204 374 204 381 L207 512 L95 439 Q89 435 85 436 Q81 437 78 443 L71 457 Q68 462 69 466 Q70 470 76 473 L190 538 L76 604 Q70 607 69 611 Q68 615 71 620 L78 633 Q81 639 85.5 640.5 Q90 642 95 638 L208 564 L204 698 Q204 705 206.5 707.5 Q209 710 216 710 L231 710 Q237 710 239.5 707 Q242 704 242 698 L238 564 L351 638 Q356 642 360.5 640.5 Q365 639 368 633 L375 620 Q378 615 377 611 Q376 607 370 604 L255 538 L370 473 Q376 470 376.5 466 Q377 462 375 457 L368 443 Q365 437 361 436 Q357 435 351 439 L238 511 L242 381 Q242 374 239.5 371 Q237 368 231 368 L215 368 Z " />
<glyph glyph-name="plus" unicode="&#x2b;" horiz-adv-x="515" d="M234 144 L234 317 L62 317 Q55 317 52.5 319.5 Q50 322 50 328 L50 350 Q50 356 52.5 359 Q55 362 62 362 L234 362 L234 535 Q234 541 237 544 Q240 547 246 547 L266 547 Q273 547 275.5 544 Q278 541 278 535 L278 362 L453 362 Q459 362 462 359 Q465 356 465 350 L465 328 Q465 322 462 319.5 Q459 317 453 317 L278 317 L278 144 Q278 137 275.5 134.5 Q273 132 266 132 L246 132 Q240 132 237 134.5 Q234 137 234 144 Z " />
<glyph glyph-name="comma" unicode="&#x2c;" horiz-adv-x="201" d="M75 30 L75 89 Q75 95 78 98 Q81 101 87 101 L117 101 Q123 101 125.5 98 Q128 95 128 89 L128 28 Q128 -13 107 -42 Q86 -71 40 -86 Q35 -87 31 -86 Q27 -85 25 -79 L18 -58 Q16 -52 17.5 -48.5 Q19 -45 25 -43 Q54 -30 64.5 -12.5 Q75 5 75 30 Z " />
<glyph glyph-name="hyphen" unicode="&#x2d;" horiz-adv-x="432" d="M82 311 L350 311 Q357 311 359.5 308.5 Q362 306 362 300 L362 279 Q362 273 359.5 270 Q357 267 350 267 L82 267 Q76 267 73 270 Q70 273 70 279 L70 300 Q70 306 73 308.5 Q76 311 82 311 Z " />
<glyph glyph-name="period" unicode="&#x2e;" horiz-adv-x="200" d="M126 89 L126 12 Q126 5 123.5 2.5 Q121 0 115 0 L85 0 Q79 0 76 2.5 Q73 5 73 12 L73 89 Q73 95 76 98 Q79 101 85 101 L115 101 Q121 101 123.5 98 Q126 95 126 89 Z " />
<glyph glyph-name="slash" unicode="&#x2f;" horiz-adv-x="349" d="M312 687 L92 -136 Q91 -142 87.5 -145 Q84 -148 78 -148 L46 -148 Q40 -148 38 -144.5 Q36 -141 37 -136 L257 687 Q258 693 262 696 Q266 699 272 699 L304 699 Q310 699 311.5 696 Q313 693 312 687 Z " />
<glyph glyph-name="zero" unicode="0" horiz-adv-x="559" d="M81 133 L81 547 Q81 605 121 646.5 Q161 688 279 688 Q398 688 438 646.5 Q478 605 478 547 L478 133 Q478 75 438 33.5 Q398 -8 279 -8 Q161 -8 121 33.5 Q81 75 81 133 Z M425 141 L425 539 Q425 585 395.5 613.5 Q366 642 279 642 Q192 642 163 613.5 Q134 585 134 539 L134 141 Q134 95 163 66.5 Q192 38 279 38 Q366 38 395.5 66.5 Q425 95 425 141 Z " />
<glyph glyph-name="one" unicode="1" horiz-adv-x="494" d="M69 628 L277 682 Q281 683 284.5 681 Q288 679 288 672 L288 46 L454 46 Q460 46 463 43.5 Q466 41 466 34 L466 12 Q466 5 463 2.5 Q460 0 454 0 L68 0 Q62 0 59.5 2.5 Q57 5 57 12 L57 34 Q57 41 59.5 43.5 Q62 46 68 46 L235 46 L235 625 L69 580 Q64 579 61 581 Q58 583 58 590 L58 613 Q58 620 61 623.5 Q64 627 69 628 Z " />
<glyph glyph-name="two" unicode="2" horiz-adv-x="535" d="M133 46 L454 46 Q460 46 462.5 43.5 Q465 41 465 34 L465 12 Q465 5 462.5 2.5 Q460 0 454 0 L91 0 Q85 0 82 2.5 Q79 5 79 12 L79 198 Q79 249 113 271 Q147 293 168 299 L347 352 Q361 356 385.5 372.5 Q410 389 410 426 L410 540 Q410 586 381.5 614.5 Q353 643 266 643 Q179 643 151 614.5 Q123 586 123 540 L123 491 Q123 484 120.5 481 Q118 478 112 478 L83 478 Q76 478 73.5 481 Q71 484 71 491 L71 547 Q71 605 109.5 646.5 Q148 688 266 688 Q385 688 424 646.5 Q463 605 463 547 L463 427 Q463 370 430 344 Q397 318 375 312 L204 263 Q185 258 159 243 Q133 228 133 193 L133 46 Z " />
<glyph glyph-name="three" unicode="3" horiz-adv-x="532" d="M171 385 L259 385 Q346 385 372 411 Q398 437 398 483 L398 543 Q398 588 370.5 615.5 Q343 643 260 643 Q176 643 148.5 615.5 Q121 588 121 543 L121 530 Q121 524 118 521 Q115 518 109 518 L80 518 Q74 518 71.5 521 Q69 524 69 530 L69 549 Q69 607 107.5 647.5 Q146 688 260 688 Q374 688 412 648 Q450 608 450 550 L450 476 Q450 433 432.5 404.5 Q415 376 361 363 Q419 350 437.5 320 Q456 290 456 247 L456 130 Q456 72 416 32 Q376 -8 261 -8 Q145 -8 104.5 32.5 Q64 73 64 131 L64 150 Q64 156 66.5 159 Q69 162 75 162 L104 162 Q110 162 113 159 Q116 156 116 150 L116 137 Q116 92 146 64.5 Q176 37 260 37 Q344 37 374 64.5 Q404 92 404 137 L404 241 Q404 287 378 313.5 Q352 340 265 340 L171 340 Q165 340 162 342.5 Q159 345 159 351 L159 373 Q159 379 162 382 Q165 385 171 385 Z " />
<glyph glyph-name="four" unicode="4" horiz-adv-x="522" d="M244 668 L96 270 L384 270 L384 668 Q384 674 386.5 677 Q389 680 396 680 L426 680 Q432 680 434.5 677 Q437 674 437 668 L437 12 Q437 6 434.5 3 Q432 0 426 0 L396 0 Q389 0 386.5 3 Q384 6 384 12 L384 224 L52 224 Q46 224 43 227 Q40 230 40 236 L40 250 Q40 257 41 262 Q42 267 45 274 L190 668 Q192 674 195.5 677 Q199 680 205 680 L235 680 Q242 680 244 676.5 Q246 673 244 668 Z " />
<glyph glyph-name="five" unicode="5" horiz-adv-x="515" d="M95 680 L419 680 Q426 680 429 677.5 Q432 675 432 668 L432 646 Q432 639 429 636.5 Q426 634 419 634 L136 634 L136 409 L255 409 Q350 409 398.5 375.5 Q447 342 447 282 L447 131 Q447 72 410.5 32 Q374 -8 258 -8 Q142 -8 105.5 32 Q69 72 69 131 L69 150 Q69 156 72 159 Q75 162 81 162 L110 162 Q116 162 119 159 Q122 156 122 150 L122 137 Q122 91 147 64 Q172 37 258 37 Q344 37 369 64 Q394 91 394 137 L394 275 Q394 307 366.5 335.5 Q339 364 255 364 L95 364 Q89 364 86 366.5 Q83 369 83 376 L83 668 Q83 674 86 677 Q89 680 95 680 Z " />
<glyph glyph-name="six" unicode="6" horiz-adv-x="543" d="M81 133 L81 553 Q81 603 118 645.5 Q155 688 274 688 Q392 688 428.5 645 Q465 602 465 553 L465 537 Q465 531 462 528 Q459 525 453 525 L424 525 Q418 525 415.5 528 Q413 531 413 537 L413 547 Q413 583 386.5 613 Q360 643 274 643 Q187 643 160 614 Q133 585 133 547 L133 347 Q148 372 183.5 387 Q219 402 282 402 Q395 402 433.5 361 Q472 320 472 261 L472 133 Q472 75 433.5 33.5 Q395 -8 276 -8 Q158 -8 119.5 33.5 Q81 75 81 133 Z M419 139 L419 255 Q419 301 391 329 Q363 357 276 357 Q194 357 163.5 331.5 Q133 306 133 264 L133 139 Q133 94 161 65.5 Q189 37 276 37 Q363 37 391 65.5 Q419 94 419 139 Z " />
<glyph glyph-name="seven" unicode="7" horiz-adv-x="490" d="M45 680 L449 680 Q455 680 457.5 677.5 Q460 675 460 668 L460 646 Q460 644 459.5 640.5 Q459 637 458 635 L198 12 Q196 7 192.5 3.5 Q189 0 183 0 L148 0 Q141 0 139 3 Q137 6 139 12 L400 634 L45 634 Q39 634 36 636.5 Q33 639 33 646 L33 668 Q33 675 36 677.5 Q39 680 45 680 Z " />
<glyph glyph-name="eight" unicode="8" horiz-adv-x="540" d="M82 482 L82 547 Q82 605 116.5 646.5 Q151 688 270 688 Q388 688 423 646.5 Q458 605 458 547 L458 482 Q458 439 439 408 Q420 377 362 364 Q422 351 443.5 320 Q465 289 465 246 L465 133 Q465 75 426.5 33.5 Q388 -8 270 -8 Q151 -8 113 33.5 Q75 75 75 133 L75 246 Q75 289 96 320 Q117 351 176 364 Q119 377 100.5 408 Q82 439 82 482 Z M406 489 L406 541 Q406 586 381.5 614.5 Q357 643 270 643 Q183 643 158.5 614.5 Q134 586 134 541 L134 489 Q134 443 158.5 414.5 Q183 386 270 386 Q357 386 381.5 414.5 Q406 443 406 489 Z M412 139 L412 239 Q412 285 384.5 313.5 Q357 342 270 342 Q183 342 155.5 313.5 Q128 285 128 239 L128 139 Q128 94 155.5 65.5 Q183 37 270 37 Q357 37 384.5 65.5 Q412 94 412 139 Z " />
<glyph glyph-name="nine" unicode="9" horiz-adv-x="543" d="M409 541 Q409 586 381.5 614.5 Q354 643 267 643 Q180 643 151.5 614.5 Q123 586 123 541 L123 425 Q123 379 151.5 351 Q180 323 267 323 Q350 323 379.5 349 Q409 375 409 418 L409 541 Z M462 547 L462 127 Q462 77 425 34.5 Q388 -8 270 -8 Q151 -8 115 35 Q79 78 79 127 L79 143 Q79 149 81.5 152 Q84 155 90 155 L119 155 Q125 155 127.5 152 Q130 149 130 143 L130 133 Q130 97 156.5 67 Q183 37 270 37 Q356 37 382.5 66 Q409 95 409 133 L409 332 Q395 307 359.5 292.5 Q324 278 261 278 Q148 278 109.5 319 Q71 360 71 419 L71 547 Q71 605 109.5 646.5 Q148 688 267 688 Q385 688 423.5 646.5 Q462 605 462 547 Z " />
<glyph glyph-name="colon" unicode="&#x3a;" horiz-adv-x="210" d="M131 480 L131 403 Q131 397 128.5 394 Q126 391 120 391 L90 391 Q84 391 81 394 Q78 397 78 403 L78 480 Q78 487 81 490 Q84 493 90 493 L120 493 Q126 493 128.5 490 Q131 487 131 480 Z M131 89 L131 12 Q131 5 128.5 2.5 Q126 0 120 0 L90 0 Q84 0 81 2.5 Q78 5 78 12 L78 89 Q78 95 81 98 Q84 101 90 101 L120 101 Q126 101 128.5 98 Q131 95 131 89 Z " />
<glyph glyph-name="semicolon" unicode="&#x3b;" horiz-adv-x="238" d="M151 480 L151 403 Q151 397 148.5 394 Q146 391 140 391 L110 391 Q104 391 101 394 Q98 397 98 403 L98 480 Q98 487 101 490 Q104 493 110 493 L140 493 Q146 493 148.5 490 Q151 487 151 480 Z M98 30 L98 89 Q98 95 101 98 Q104 101 110 101 L140 101 Q146 101 148.5 98 Q151 95 151 89 L151 28 Q151 -13 130 -42 Q109 -71 63 -86 Q58 -87 54 -86 Q50 -85 48 -79 L40 -58 Q38 -53 40 -49 Q42 -45 48 -43 Q77 -30 87.5 -12.5 Q98 5 98 30 Z " />
<glyph glyph-name="less" unicode="&#x3c;" horiz-adv-x="501" d="M411 478 L100 340 L411 203 Q416 201 419.5 198 Q423 195 423 189 L423 160 Q423 154 419.5 151.5 Q416 149 411 151 L59 311 Q55 313 51.5 315.5 Q48 318 48 325 L48 356 Q48 362 51.5 365 Q55 368 59 370 L411 530 Q416 532 419.5 529.5 Q423 527 423 521 L423 492 Q423 486 419.5 483 Q416 480 411 478 Z " />
<glyph glyph-name="equal" unicode="&#x3d;" horiz-adv-x="584" d="M93 442 L490 442 Q497 442 499.5 439 Q502 436 502 430 L502 409 Q502 403 499.5 400 Q497 397 490 397 L93 397 Q87 397 84 400 Q81 403 81 409 L81 430 Q81 436 84 439 Q87 442 93 442 Z M93 271 L490 271 Q497 271 499.5 268.5 Q502 266 502 259 L502 238 Q502 232 499.5 229 Q497 226 490 226 L93 226 Q87 226 84 229 Q81 232 81 238 L81 259 Q81 266 84 268.5 Q87 271 93 271 Z " />
<glyph glyph-name="greater" unicode="&#x3e;" horiz-adv-x="498" d="M398 340 L87 478 Q82 480 79 483 Q76 486 76 491 L76 521 Q76 528 79 530.5 Q82 533 87 531 L439 370 Q443 368 446.5 365 Q450 362 450 357 L450 324 Q450 317 446.5 315 Q443 313 439 311 L87 150 Q82 148 79 150.5 Q76 153 76 160 L76 189 Q76 195 79 198 Q82 201 87 203 L398 340 Z " />
<glyph glyph-name="question" unicode="&#x3f;" horiz-adv-x="502" d="M212 169 L212 250 Q212 295 237.5 317 Q263 339 279 347 L343 379 Q356 386 376.5 405 Q397 424 397 461 L397 540 Q397 586 365.5 614.5 Q334 643 247 643 Q160 643 129 614.5 Q98 586 98 540 L98 491 Q98 484 95 481 Q92 478 86 478 L58 478 Q51 478 48.5 481 Q46 484 46 491 L46 547 Q46 605 87.5 646.5 Q129 688 247 688 Q366 688 408 646.5 Q450 605 450 547 L450 463 Q450 407 420.5 378.5 Q391 350 370 340 L317 314 Q301 307 283 289 Q265 271 265 239 L265 169 Q265 162 262.5 159.5 Q260 157 254 157 L224 157 Q218 157 215 159.5 Q212 162 212 169 Z M265 89 L265 12 Q265 5 262.5 2.5 Q260 0 254 0 L224 0 Q218 0 215 2.5 Q212 5 212 12 L212 89 Q212 95 215 98 Q218 101 224 101 L254 101 Q260 101 262.5 98 Q265 95 265 89 Z " />
<glyph glyph-name="at" unicode="&#x40;" horiz-adv-x="790" d="M581 -113 L395 -113 Q202 -113 140.5 -65 Q79 -17 79 48 L79 455 Q79 521 140.5 568.5 Q202 616 395 616 Q588 616 649.5 568.5 Q711 521 711 455 L711 156 Q711 102 684.5 67.5 Q658 33 595 33 Q552 33 527.5 50.5 Q503 68 494 98 Q474 81 431.5 57 Q389 33 332 33 Q263 33 238 67 Q213 101 218 155 L236 335 Q241 390 271.5 424.5 Q302 459 370 459 Q420 459 457 438 Q494 417 514 400 L520 439 Q521 445 524 448 Q527 451 533 451 L557 451 Q564 451 566 448 Q568 445 567 439 L540 164 Q536 125 549.5 99 Q563 73 599 73 Q633 73 646.5 98 Q660 123 660 162 L660 454 Q660 506 605.5 539.5 Q551 573 395 573 Q239 573 184.5 539 Q130 505 130 454 L130 50 Q130 -2 184.5 -35.5 Q239 -69 395 -69 L581 -69 Q587 -69 590 -72 Q593 -75 593 -81 L593 -101 Q593 -107 590 -110 Q587 -113 581 -113 Z M286 327 L269 162 Q265 125 283.5 103.5 Q302 82 350 82 Q396 82 433.5 103 Q471 124 487 135 Q487 139 487 143.5 Q487 148 488 153 L509 356 Q493 369 461.5 390.5 Q430 412 382 412 Q330 412 310 386.5 Q290 361 286 327 Z " />
<glyph glyph-name="A" unicode="A" horiz-adv-x="525" d="M370 249 L287 517 Q278 545 271 577.5 Q264 610 262 624 Q260 611 252.5 575 Q245 539 239 519 L154 249 L370 249 Z M248 680 L279 680 Q285 680 289 677 Q293 674 294 668 L497 12 Q499 6 496.5 3 Q494 0 488 0 L457 0 Q451 0 447.5 3 Q444 6 443 12 L382 206 L141 206 L82 12 Q81 6 77.5 3 Q74 0 68 0 L39 0 Q33 0 30.5 3 Q28 6 30 12 L233 668 Q234 674 238 677 Q242 680 248 680 Z " />
<glyph glyph-name="B" unicode="B" horiz-adv-x="578" d="M303 0 L108 0 Q102 0 99 3 Q96 6 96 12 L96 668 Q96 674 99 677 Q102 680 108 680 L277 680 Q397 680 441.5 640.5 Q486 601 486 543 L486 475 Q486 433 464.5 402.5 Q443 372 391 356 Q454 343 483 311 Q512 279 512 232 L512 140 Q512 81 467.5 40.5 Q423 0 303 0 Z M277 635 L149 635 L149 373 L288 373 Q368 373 400.5 401.5 Q433 430 433 476 L433 536 Q433 582 398.5 608.5 Q364 635 277 635 Z M303 330 L149 330 L149 45 L303 45 Q391 45 425 73 Q459 101 459 147 L459 229 Q459 273 425 301.5 Q391 330 303 330 Z " />
<glyph glyph-name="C" unicode="C" horiz-adv-x="548" d="M493 198 L493 133 Q493 75 451 33.5 Q409 -8 289 -8 Q169 -8 127 33.5 Q85 75 85 133 L85 547 Q85 605 127 646.5 Q169 688 289 688 Q409 688 451 646.5 Q493 605 493 547 L493 495 Q493 488 490.5 485 Q488 482 482 482 L453 482 Q447 482 444 485 Q441 488 441 495 L441 539 Q441 585 408.5 613.5 Q376 642 289 642 Q202 642 170 613.5 Q138 585 138 539 L138 141 Q138 95 170 66.5 Q202 38 289 38 Q376 38 408.5 66.5 Q441 95 441 141 L441 198 Q441 204 444 206.5 Q447 209 453 209 L482 209 Q488 209 490.5 206.5 Q493 204 493 198 Z " />
<glyph glyph-name="D" unicode="D" horiz-adv-x="598" d="M305 0 L107 0 Q101 0 98.5 3 Q96 6 96 12 L96 668 Q96 674 99 677 Q102 680 107 680 L305 680 Q424 680 469 638.5 Q514 597 514 539 L514 141 Q514 83 469 41.5 Q424 0 305 0 Z M305 634 L149 634 L149 46 L305 46 Q392 46 426.5 74.5 Q461 103 461 149 L461 531 Q461 577 426.5 605.5 Q392 634 305 634 Z " />
<glyph glyph-name="E" unicode="E" horiz-adv-x="523" d="M461 0 L107 0 Q102 0 99 3 Q96 6 96 12 L96 668 Q96 674 99 677 Q102 680 108 680 L449 680 Q455 680 458 677.5 Q461 675 461 668 L461 646 Q461 639 458 636.5 Q455 634 449 634 L149 634 L149 380 L431 380 Q437 380 440 377.5 Q443 375 443 368 L443 347 Q443 341 440 338 Q437 335 431 335 L149 335 L149 46 L461 46 Q467 46 470 43.5 Q473 41 473 34 L473 12 Q473 5 470 2.5 Q467 0 461 0 Z " />
<glyph glyph-name="F" unicode="F" horiz-adv-x="533" d="M108 680 L475 680 Q481 680 484 677.5 Q487 675 487 668 L487 646 Q487 639 484 636.5 Q481 634 475 634 L149 634 L149 378 L457 378 Q463 378 466 375.5 Q469 373 469 366 L469 344 Q469 338 466 335 Q463 332 457 332 L149 332 L149 12 Q149 6 146.5 3 Q144 0 138 0 L108 0 Q102 0 99 3 Q96 6 96 12 L96 668 Q96 674 99 677 Q102 680 108 680 Z " />
<glyph glyph-name="G" unicode="G" horiz-adv-x="570" d="M298 319 L481 319 Q488 319 490.5 316 Q493 313 493 307 L493 133 Q493 75 451 33.5 Q409 -8 289 -8 Q169 -8 127 33.5 Q85 75 85 133 L85 547 Q85 605 127 646.5 Q169 688 289 688 Q409 688 451 646.5 Q493 605 493 547 L493 497 Q493 491 490.5 488 Q488 485 482 485 L453 485 Q447 485 444 488 Q441 491 441 497 L441 539 Q441 585 408.5 613.5 Q376 642 289 642 Q202 642 170 613.5 Q138 585 138 539 L138 141 Q138 95 170 66.5 Q202 38 289 38 Q376 38 408.5 66 Q441 94 441 139 L441 273 L298 273 Q292 273 289 275.5 Q286 278 286 285 L286 307 Q286 313 289 316 Q292 319 298 319 Z " />
<glyph glyph-name="H" unicode="H" horiz-adv-x="610" d="M149 668 L149 386 L461 386 L461 668 Q461 674 463.5 677 Q466 680 472 680 L503 680 Q509 680 511.5 677 Q514 674 514 668 L514 12 Q514 6 511.5 3 Q509 0 503 0 L472 0 Q466 0 463.5 3 Q461 6 461 12 L461 340 L149 340 L149 12 Q149 6 146.5 3 Q144 0 138 0 L108 0 Q102 0 99 3 Q96 6 96 12 L96 668 Q96 674 99 677 Q102 680 108 680 L138 680 Q144 680 146.5 677 Q149 674 149 668 Z " />
<glyph glyph-name="I" unicode="I" horiz-adv-x="245" d="M149 668 L149 12 Q149 6 146.5 3 Q144 0 138 0 L108 0 Q102 0 99 3 Q96 6 96 12 L96 668 Q96 674 99 677 Q102 680 108 680 L138 680 Q144 680 146.5 677 Q149 674 149 668 Z " />
<glyph glyph-name="J" unicode="J" horiz-adv-x="492" d="M85 174 L85 141 Q85 95 111.5 66.5 Q138 38 216 38 Q294 38 320 66.5 Q346 95 346 141 L346 668 Q346 674 349 677 Q352 680 358 680 L388 680 Q394 680 397 677 Q400 674 400 668 L400 133 Q400 75 363 33.5 Q326 -8 216 -8 Q107 -8 69.5 33.5 Q32 75 32 133 L32 174 Q32 181 35 183.5 Q38 186 44 186 L73 186 Q80 186 82.5 183.5 Q85 181 85 174 Z " />
<glyph glyph-name="K" unicode="K" horiz-adv-x="540" d="M229 345 L518 12 Q522 8 519.5 4 Q517 0 512 0 L471 0 Q464 0 460 4 Q456 8 452 12 L183 320 L149 320 L149 12 Q149 6 146.5 3 Q144 0 138 0 L108 0 Q102 0 99 3 Q96 6 96 12 L96 668 Q96 674 99 677 Q102 680 108 680 L138 680 Q144 680 146.5 677 Q149 674 149 668 L149 361 L183 361 L429 669 Q433 673 438 676.5 Q443 680 449 680 L483 680 Q489 680 491 676.5 Q493 673 489 668 L229 345 Z " />
<glyph glyph-name="L" unicode="L" horiz-adv-x="478" d="M149 668 L149 46 L445 46 Q451 46 454 43.5 Q457 41 457 34 L457 12 Q457 5 454 2.5 Q451 0 445 0 L106 0 Q102 0 99 3 Q96 6 96 12 L96 668 Q96 674 99 677 Q102 680 108 680 L138 680 Q144 680 146.5 677 Q149 674 149 668 Z " />
<glyph glyph-name="M" unicode="M" horiz-adv-x="720" d="M624 668 L624 12 Q624 6 621.5 3 Q619 0 613 0 L584 0 Q578 0 575 3 Q572 6 572 12 L572 566 Q570 558 564 541 Q558 524 554 513 L390 116 Q388 110 384 107 Q380 104 374 104 L346 104 Q340 104 336.5 107 Q333 110 331 116 L161 520 Q159 524 154.5 537.5 Q150 551 146 565 L146 12 Q146 6 143.5 3 Q141 0 135 0 L108 0 Q102 0 99 3 Q96 6 96 12 L96 668 Q96 674 99 677 Q102 680 108 680 L135 680 Q139 680 142 678.5 Q145 677 146 673 L344 206 Q348 197 352 184.5 Q356 172 360 159 Q362 166 367.5 181.5 Q373 197 377 205 L573 674 Q574 677 577 678.5 Q580 680 584 680 L613 680 Q619 680 621.5 677 Q624 674 624 668 Z " />
<glyph glyph-name="N" unicode="N" horiz-adv-x="609" d="M513 668 L513 12 Q513 6 510.5 3 Q508 0 502 0 L475 0 Q471 0 468 1.5 Q465 3 464 6 L178 515 Q171 527 162 545 Q153 563 146 576 L146 12 Q146 6 143.5 3 Q141 0 135 0 L108 0 Q102 0 99 3 Q96 6 96 12 L96 668 Q96 674 99 677 Q102 680 108 680 L135 680 Q139 680 141.5 678.5 Q144 677 145 675 L434 162 Q444 144 453 126.5 Q462 109 463 105 L463 668 Q463 674 466 677 Q469 680 475 680 L502 680 Q508 680 510.5 677 Q513 674 513 668 Z " />
<glyph glyph-name="O" unicode="O" horiz-adv-x="587" d="M85 133 L85 547 Q85 605 129.5 646.5 Q174 688 293 688 Q413 688 458 646.5 Q503 605 503 547 L503 133 Q503 75 458 33.5 Q413 -8 293 -8 Q174 -8 129.5 33.5 Q85 75 85 133 Z M449 141 L449 539 Q449 585 414.5 613.5 Q380 642 293 642 Q206 642 172 613.5 Q138 585 138 539 L138 141 Q138 95 172 66.5 Q206 38 293 38 Q380 38 414.5 66.5 Q449 95 449 141 Z " />
<glyph glyph-name="P" unicode="P" horiz-adv-x="565" d="M302 269 L149 269 L149 12 Q149 6 146.5 3 Q144 0 138 0 L108 0 Q102 0 99 3 Q96 6 96 12 L96 668 Q96 674 99 677 Q102 680 107 680 L302 680 Q422 680 466.5 638.5 Q511 597 511 539 L511 410 Q511 352 466.5 310.5 Q422 269 302 269 Z M302 634 L149 634 L149 315 L302 315 Q389 315 423.5 343.5 Q458 372 458 418 L458 531 Q458 577 423.5 605.5 Q389 634 302 634 Z " />
<glyph glyph-name="Q" unicode="Q" horiz-adv-x="587" d="M478 -169 Q475 -173 470.5 -173.5 Q466 -174 462 -170 L288 -8 Q172 -7 128.5 34.5 Q85 76 85 133 L85 547 Q85 605 129.5 646.5 Q174 688 293 688 Q413 688 458 646.5 Q503 605 503 547 L503 133 Q503 82 470 43.5 Q437 5 350 -5 L493 -136 Q497 -140 497.5 -144 Q498 -148 494 -152 L478 -169 Z M449 140 L449 540 Q449 586 414.5 614.5 Q380 643 293 643 Q206 643 172 614.5 Q138 586 138 540 L138 140 Q138 94 172 65.5 Q206 37 293 37 Q380 37 414.5 65.5 Q449 94 449 140 Z " />
<glyph glyph-name="R" unicode="R" horiz-adv-x="583" d="M302 634 L149 634 L149 327 L302 327 Q389 327 423.5 355.5 Q458 384 458 430 L458 531 Q458 577 423.5 605.5 Q389 634 302 634 Z M149 12 Q149 6 146.5 3 Q144 0 138 0 L108 0 Q102 0 99 3 Q96 6 96 12 L96 668 Q96 674 99 677 Q102 680 107 680 L302 680 Q422 680 466.5 638.5 Q511 597 511 539 L511 423 Q511 375 483.5 338.5 Q456 302 384 289 L520 12 Q522 7 519 3.5 Q516 0 509 0 L475 0 Q468 0 465 3.5 Q462 7 460 12 L330 283 Q323 282 316 282 Q309 282 302 282 L149 282 L149 12 Z " />
<glyph glyph-name="S" unicode="S" horiz-adv-x="548" d="M422 498 L422 541 Q422 586 391 614.5 Q360 643 274 643 Q187 643 155.5 614.5 Q124 586 124 541 L124 504 Q124 466 145.5 446.5 Q167 427 188 419 L380 346 Q417 332 448.5 302 Q480 272 480 221 L480 133 Q480 75 435.5 33.5 Q391 -8 272 -8 Q154 -8 109.5 33.5 Q65 75 65 133 L65 185 Q65 192 67.5 195 Q70 198 76 198 L105 198 Q112 198 114.5 195 Q117 192 117 185 L117 139 Q117 94 150.5 65.5 Q184 37 272 37 Q359 37 393 65.5 Q427 94 427 139 L427 210 Q427 250 400 271 Q373 292 344 303 L159 375 Q128 387 100 416.5 Q72 446 72 493 L72 547 Q72 605 114 646.5 Q156 688 273 688 Q390 688 432 646.5 Q474 605 474 547 L474 498 Q474 492 471.5 489 Q469 486 463 486 L434 486 Q427 486 424.5 489 Q422 492 422 498 Z " />
<glyph glyph-name="T" unicode="T" horiz-adv-x="488" d="M36 680 L452 680 Q458 680 461 677.5 Q464 675 464 668 L464 646 Q464 639 461 636.5 Q458 634 452 634 L270 634 L270 12 Q270 6 267.5 3 Q265 0 259 0 L229 0 Q223 0 220 3 Q217 6 217 12 L217 634 L36 634 Q29 634 26.5 636.5 Q24 639 24 646 L24 668 Q24 675 26.5 677.5 Q29 680 36 680 Z " />
<glyph glyph-name="U" unicode="U" horiz-adv-x="603" d="M146 668 L146 141 Q146 95 180 66.5 Q214 38 301 38 Q388 38 423 66.5 Q458 95 458 141 L458 668 Q458 674 460.5 677 Q463 680 469 680 L499 680 Q506 680 508.5 677 Q511 674 511 668 L511 133 Q511 75 466 33.5 Q421 -8 301 -8 Q182 -8 137.5 33.5 Q93 75 93 133 L93 668 Q93 674 95.5 677 Q98 680 105 680 L134 680 Q141 680 143.5 677 Q146 674 146 668 Z " />
<glyph glyph-name="V" unicode="V" horiz-adv-x="525" d="M279 0 L248 0 Q242 0 238 3 Q234 6 233 12 L30 668 Q28 675 30.5 677.5 Q33 680 39 680 L72 680 Q78 680 81.5 677 Q85 674 86 668 L242 163 Q246 147 253 119.5 Q260 92 264 68 Q265 80 272.5 110 Q280 140 287 161 L444 668 Q445 674 448 677 Q451 680 458 680 L488 680 Q494 680 496.5 677.5 Q499 675 497 668 L294 12 Q293 6 289 3 Q285 0 279 0 Z " />
<glyph glyph-name="W" unicode="W" horiz-adv-x="807" d="M434 668 L562 162 Q566 143 571.5 119 Q577 95 578 88 Q579 95 584.5 119 Q590 143 594 162 L724 668 Q725 674 728 677 Q731 680 738 680 L764 680 Q770 680 772 677.5 Q774 675 773 668 L607 12 Q606 6 602 3 Q598 0 592 0 L562 0 Q556 0 552 3 Q548 6 547 12 L417 526 Q414 539 409.5 561 Q405 583 404 591 Q403 583 398 560.5 Q393 538 390 526 L260 12 Q259 6 255 3 Q251 0 244 0 L214 0 Q209 0 205 3 Q201 6 200 12 L34 668 Q33 675 35 677.5 Q37 680 43 680 L73 680 Q80 680 83 677 Q86 674 87 668 L216 162 Q220 148 225 122.5 Q230 97 231 91 Q232 98 238 122.5 Q244 147 248 162 L377 668 Q378 674 381.5 677 Q385 680 391 680 L420 680 Q426 680 429.5 677 Q433 674 434 668 Z " />
<glyph glyph-name="X" unicode="X" horiz-adv-x="524" d="M293 344 L491 12 Q494 8 492.5 4 Q491 0 484 0 L449 0 Q442 0 437.5 4 Q433 8 431 12 L260 297 L95 12 Q92 8 88.5 4 Q85 0 78 0 L44 0 Q38 0 36.5 4 Q35 8 38 13 L232 346 L42 667 Q39 672 40 676 Q41 680 47 680 L83 680 Q89 680 93.5 676.5 Q98 673 101 668 L267 390 L425 668 Q428 673 432 676.5 Q436 680 443 680 L476 680 Q482 680 483 676.5 Q484 673 481 668 L293 344 Z " />
<glyph glyph-name="Y" unicode="Y" horiz-adv-x="516" d="M83 668 L245 360 Q248 355 252 345 Q256 335 259 327 Q260 331 264.5 340.5 Q269 350 274 360 L438 668 Q441 673 444 676.5 Q447 680 453 680 L482 680 Q489 680 492 677.5 Q495 675 491 668 L286 282 L286 12 Q286 6 283.5 3 Q281 0 274 0 L244 0 Q238 0 235.5 3 Q233 6 233 12 L233 276 L27 668 Q24 674 26.5 677 Q29 680 35 680 L68 680 Q75 680 77.5 677 Q80 674 83 668 Z " />
<glyph glyph-name="Z" unicode="Z" horiz-adv-x="475" d="M65 680 L412 680 Q419 680 422 677.5 Q425 675 425 668 L425 647 Q425 644 424 641 Q423 638 422 637 L99 46 L428 46 Q434 46 436.5 43.5 Q439 41 439 34 L439 12 Q439 5 436.5 2.5 Q434 0 428 0 L47 0 Q40 0 37.5 2.5 Q35 5 35 12 L35 34 Q35 36 35.5 38.5 Q36 41 37 43 L358 634 L65 634 Q58 634 55.5 636.5 Q53 639 53 646 L53 668 Q53 675 55.5 677.5 Q58 680 65 680 Z " />
<glyph glyph-name="bracketleft" unicode="&#x5b;" horiz-adv-x="308" d="M83 -199 L83 687 Q83 694 86 696.5 Q89 699 95 699 L269 699 Q275 699 278 696.5 Q281 694 281 687 L281 665 Q281 658 278 655.5 Q275 653 269 653 L136 653 L136 -165 L269 -165 Q275 -165 278 -167.5 Q281 -170 281 -177 L281 -199 Q281 -206 278 -208.5 Q275 -211 269 -211 L95 -211 Q89 -211 86 -208.5 Q83 -206 83 -199 Z " />
<glyph glyph-name="backslash" unicode="&#x5c;" horiz-adv-x="349" d="M257 -136 L37 687 Q36 693 38 696 Q40 699 46 699 L78 699 Q84 699 87.5 696 Q91 693 92 687 L312 -136 Q313 -141 311 -144.5 Q309 -148 304 -148 L272 -148 Q266 -148 262 -145 Q258 -142 257 -136 Z " />
<glyph glyph-name="bracketright" unicode="&#x5d;" horiz-adv-x="308" d="M225 687 L225 -199 Q225 -206 222 -208.5 Q219 -211 213 -211 L39 -211 Q32 -211 29.5 -208.5 Q27 -206 27 -199 L27 -177 Q27 -170 29.5 -167.5 Q32 -165 39 -165 L172 -165 L172 653 L39 653 Q32 653 29.5 655.5 Q27 658 27 665 L27 687 Q27 694 29.5 696.5 Q32 699 39 699 L213 699 Q219 699 222 696.5 Q225 694 225 687 Z " />
<glyph glyph-name="asciicircum" unicode="&#x5e;" horiz-adv-x="483" d="M380 317 L242 627 L104 317 Q102 312 99 308.5 Q96 305 91 305 L62 305 Q56 305 53 308.5 Q50 312 52 317 L213 669 Q215 673 217.5 676.5 Q220 680 226 680 L258 680 Q263 680 266 676.5 Q269 673 271 669 L432 317 Q434 312 431.5 308.5 Q429 305 423 305 L394 305 Q388 305 385 308.5 Q382 312 380 317 Z " />
<glyph glyph-name="underscore" unicode="&#x5f;" horiz-adv-x="380" d="M12 -88 L369 -88 Q375 -88 377.5 -90.5 Q380 -93 380 -99 L380 -120 Q380 -127 377.5 -129.5 Q375 -132 369 -132 L12 -132 Q6 -132 3 -129.5 Q0 -127 0 -120 L0 -99 Q0 -93 3 -90.5 Q6 -88 12 -88 Z " />
<glyph glyph-name="grave" unicode="&#x60;" horiz-adv-x="336" d="M185 577 L104 696 Q100 701 101.5 704.5 Q103 708 110 708 L142 708 Q149 708 152 705 Q155 702 158 698 L230 581 Q234 575 231.5 572.5 Q229 570 225 570 L200 570 Q193 570 189.5 572 Q186 574 185 577 Z " />
<glyph glyph-name="a" unicode="a" horiz-adv-x="498" d="M208 36 Q267 36 308 59 Q349 82 366 95 L366 233 L194 233 Q151 233 131 211 Q111 189 111 153 L111 114 Q111 79 134.5 57.5 Q158 36 208 36 Z M69 360 L69 378 Q69 432 106.5 466.5 Q144 501 243 501 Q344 501 380.5 466.5 Q417 432 417 378 L417 12 Q417 6 414.5 3 Q412 0 406 0 L381 0 Q375 0 372 3 Q369 6 369 12 L367 52 Q345 35 302 13.5 Q259 -8 197 -8 Q128 -8 94 25.5 Q60 59 60 108 L60 159 Q60 208 91.5 241.5 Q123 275 185 275 L366 275 L366 374 Q366 410 341 434 Q316 458 243 458 Q169 458 143.5 435 Q118 412 118 375 L118 360 Q118 353 115.5 350.5 Q113 348 106 348 L80 348 Q74 348 71.5 350.5 Q69 353 69 360 Z " />
<glyph glyph-name="b" unicode="b" horiz-adv-x="519" d="M120 0 L95 0 Q89 0 86 3 Q83 6 83 12 L83 687 Q83 693 86 696 Q89 699 95 699 L124 699 Q130 699 132.5 696 Q135 693 135 687 L135 440 Q157 457 200.5 479 Q244 501 308 501 Q379 501 412 466.5 Q445 432 445 378 L445 115 Q445 61 412 26.5 Q379 -8 308 -8 Q243 -8 199.5 14 Q156 36 134 53 L132 12 Q132 6 129.5 3 Q127 0 120 0 Z M393 122 L393 371 Q393 405 370 429 Q347 453 295 453 Q235 453 193.5 430 Q152 407 135 393 L135 98 Q152 85 193.5 62 Q235 39 295 39 Q347 39 370 63.5 Q393 88 393 122 Z " />
<glyph glyph-name="c" unicode="c" horiz-adv-x="478" d="M249 501 Q350 501 387 466 Q424 431 424 377 L424 358 Q424 351 421.5 348.5 Q419 346 413 346 L386 346 Q380 346 377 348.5 Q374 351 374 358 L374 374 Q374 411 348.5 434 Q323 457 250 457 Q177 457 151 434 Q125 411 125 374 L125 119 Q125 82 151 59 Q177 36 250 36 Q323 36 348.5 59 Q374 82 374 119 L374 143 Q374 150 377 152.5 Q380 155 386 155 L413 155 Q419 155 421.5 152.5 Q424 150 424 143 L424 115 Q424 61 386.5 26.5 Q349 -8 249 -8 Q148 -8 111 26.5 Q74 61 74 115 L74 377 Q74 431 111.5 466 Q149 501 249 501 Z " />
<glyph glyph-name="d" unicode="d" horiz-adv-x="519" d="M126 371 L126 122 Q126 88 149 63.5 Q172 39 224 39 Q284 39 325.5 62 Q367 85 384 98 L384 393 Q367 407 325.5 430 Q284 453 224 453 Q172 453 149 429 Q126 405 126 371 Z M387 12 L385 53 Q363 36 319 14 Q275 -8 211 -8 Q140 -8 107 26.5 Q74 61 74 115 L74 378 Q74 432 107 466.5 Q140 501 211 501 Q274 501 318 479 Q362 457 384 440 L384 687 Q384 693 386.5 696 Q389 699 395 699 L424 699 Q430 699 433 696 Q436 693 436 687 L436 12 Q436 6 433 3 Q430 0 424 0 L399 0 Q392 0 389.5 3 Q387 6 387 12 Z " />
<glyph glyph-name="e" unicode="e" horiz-adv-x="494" d="M427 377 L427 253 Q427 248 424.5 245 Q422 242 416 242 L125 242 L125 118 Q125 81 150.5 58 Q176 35 251 35 Q326 35 352 58 Q378 81 378 118 L378 139 Q378 145 380.5 148 Q383 151 390 151 L415 151 Q421 151 424 148 Q427 145 427 139 L427 115 Q427 61 389 26.5 Q351 -8 250 -8 Q149 -8 111.5 26.5 Q74 61 74 115 L74 377 Q74 431 112 466 Q150 501 251 501 Q352 501 389.5 466 Q427 431 427 377 Z M125 375 L125 282 L378 282 L378 375 Q378 411 351 434.5 Q324 458 251 458 Q178 458 151.5 434.5 Q125 411 125 375 Z " />
<glyph glyph-name="f" unicode="f" horiz-adv-x="306" d="M96 491 L106 491 L106 582 Q106 636 145 670.5 Q184 705 285 705 L290 705 Q296 705 299 702.5 Q302 700 302 693 L302 673 Q302 666 299 663 Q296 660 290 660 L285 660 Q212 660 185 637 Q158 614 158 577 L158 491 L274 491 Q280 491 283 488.5 Q286 486 286 480 L286 460 Q286 453 283 450.5 Q280 448 274 448 L158 448 L158 12 Q158 6 155.5 3 Q153 0 146 0 L118 0 Q112 0 109 3 Q106 6 106 12 L106 448 L41 448 Q35 448 32 450.5 Q29 453 29 460 L29 476 Q29 483 32 485.5 Q35 488 41 488 L96 491 Z " />
<glyph glyph-name="g" unicode="g" horiz-adv-x="519" d="M211 -8 Q140 -8 107 26.5 Q74 61 74 115 L74 378 Q74 432 107 466.5 Q140 501 211 501 Q275 501 319 478.5 Q363 456 385 439 L387 480 Q387 487 389.5 490 Q392 493 399 493 L424 493 Q430 493 433 490 Q436 487 436 480 L436 -84 Q436 -138 396.5 -173 Q357 -208 257 -208 L122 -208 Q116 -208 113 -205 Q110 -202 110 -196 L110 -175 Q110 -169 113 -166 Q116 -163 122 -163 L257 -163 Q330 -163 357 -140 Q384 -117 384 -80 L384 52 Q362 35 318 13.5 Q274 -8 211 -8 Z M126 371 L126 122 Q126 88 149 63.5 Q172 39 224 39 Q284 39 325.5 62 Q367 85 384 98 L384 393 Q367 407 325.5 430 Q284 453 224 453 Q172 453 149 429 Q126 405 126 371 Z " />
<glyph glyph-name="h" unicode="h" horiz-adv-x="526" d="M135 687 L135 440 Q157 458 200.5 479.5 Q244 501 308 501 Q377 501 411 467 Q445 433 445 381 L445 12 Q445 6 442.5 3 Q440 0 434 0 L405 0 Q399 0 396 3 Q393 6 393 12 L393 371 Q393 408 370 431 Q347 454 295 454 Q235 454 193.5 431 Q152 408 135 394 L135 12 Q135 6 132.5 3 Q130 0 124 0 L95 0 Q89 0 86 3 Q83 6 83 12 L83 687 Q83 693 86 696 Q89 699 95 699 L124 699 Q130 699 132.5 696 Q135 693 135 687 Z " />
<glyph glyph-name="i" unicode="i" horiz-adv-x="218" d="M135 687 L135 592 Q135 586 132.5 583 Q130 580 124 580 L95 580 Q89 580 86 583 Q83 586 83 592 L83 687 Q83 693 86 696 Q89 699 95 699 L124 699 Q130 699 132.5 696 Q135 693 135 687 Z M135 480 L135 12 Q135 6 132.5 3 Q130 0 124 0 L95 0 Q89 0 86 3 Q83 6 83 12 L83 480 Q83 487 86 490 Q89 493 95 493 L124 493 Q130 493 132.5 490 Q135 487 135 480 Z " />
<glyph glyph-name="j" unicode="j" horiz-adv-x="218" d="M135 687 L135 592 Q135 586 132.5 583 Q130 580 124 580 L95 580 Q89 580 86 583 Q83 586 83 592 L83 687 Q83 693 86 696 Q89 699 95 699 L124 699 Q130 699 132.5 696 Q135 693 135 687 Z M135 480 L135 -84 Q135 -138 96 -173 Q57 -208 -44 -208 L-49 -208 Q-55 -208 -58 -205 Q-61 -202 -61 -196 L-61 -175 Q-61 -169 -58 -166 Q-55 -163 -49 -163 L-44 -163 Q29 -163 56 -140 Q83 -117 83 -80 L83 480 Q83 487 85.5 490 Q88 493 95 493 L123 493 Q129 493 132 490 Q135 487 135 480 Z " />
<glyph glyph-name="k" unicode="k" horiz-adv-x="456" d="M215 281 L438 12 Q442 8 440 4 Q438 0 433 0 L396 0 Q389 0 384.5 3.5 Q380 7 376 12 L172 257 L136 257 L136 12 Q136 6 133 3 Q130 0 124 0 L95 0 Q89 0 86.5 3 Q84 6 84 12 L84 687 Q84 693 86.5 696 Q89 699 95 699 L124 699 Q130 699 133 696 Q136 693 136 687 L136 298 L172 298 L354 481 Q358 485 362.5 489 Q367 493 374 493 L407 493 Q413 493 414.5 489 Q416 485 412 481 L215 281 Z " />
<glyph glyph-name="l" unicode="l" horiz-adv-x="218" d="M135 687 L135 12 Q135 6 132.5 3 Q130 0 124 0 L95 0 Q89 0 86 3 Q83 6 83 12 L83 687 Q83 693 86 696 Q89 699 95 699 L124 699 Q130 699 132.5 696 Q135 693 135 687 Z " />
<glyph glyph-name="m" unicode="m" horiz-adv-x="824" d="M95 493 L120 493 Q127 493 129.5 490 Q132 487 132 481 L133 440 Q154 457 196 479 Q238 501 302 501 Q353 501 384.5 482 Q416 463 429 432 Q448 448 491 474.5 Q534 501 606 501 Q675 501 709 467 Q743 433 743 381 L743 12 Q743 6 740.5 3 Q738 0 731 0 L703 0 Q697 0 694 3 Q691 6 691 12 L691 371 Q691 408 668 431 Q645 454 593 454 Q531 454 491.5 430 Q452 406 438 393 Q439 388 439 381.5 Q439 375 439 371 L439 12 Q439 6 436.5 3 Q434 0 428 0 L399 0 Q393 0 390 3 Q387 6 387 12 L387 371 Q387 408 364 431 Q341 454 289 454 Q229 454 190 431 Q151 408 135 394 L135 12 Q135 6 132.5 3 Q130 0 124 0 L95 0 Q89 0 86 3 Q83 6 83 12 L83 481 Q83 487 86 490 Q89 493 95 493 Z " />
<glyph glyph-name="n" unicode="n" horiz-adv-x="526" d="M95 493 L120 493 Q127 493 129.5 490 Q132 487 132 481 L134 439 Q156 457 200 479 Q244 501 308 501 Q377 501 411 467 Q445 433 445 381 L445 12 Q445 6 442.5 3 Q440 0 434 0 L405 0 Q399 0 396 3 Q393 6 393 12 L393 371 Q393 408 370 431 Q347 454 295 454 Q235 454 193.5 431 Q152 408 135 394 L135 12 Q135 6 132.5 3 Q130 0 124 0 L95 0 Q89 0 86 3 Q83 6 83 12 L83 481 Q83 487 86 490 Q89 493 95 493 Z " />
<glyph glyph-name="o" unicode="o" horiz-adv-x="508" d="M73 115 L73 377 Q73 431 113.5 466 Q154 501 254 501 Q354 501 394.5 466 Q435 431 435 377 L435 115 Q435 61 394.5 26.5 Q354 -8 254 -8 Q154 -8 113.5 26.5 Q73 61 73 115 Z M383 119 L383 374 Q383 411 355 434 Q327 457 254 457 Q181 457 153 434 Q125 411 125 374 L125 119 Q125 82 153 59 Q181 36 254 36 Q327 36 355 59 Q383 82 383 119 Z " />
<glyph glyph-name="p" unicode="p" horiz-adv-x="519" d="M393 122 L393 371 Q393 405 370 429 Q347 453 295 453 Q235 453 193.5 430 Q152 407 135 393 L135 98 Q152 85 193.5 62 Q235 39 295 39 Q347 39 370 63.5 Q393 88 393 122 Z M95 493 L120 493 Q127 493 129.5 490 Q132 487 132 480 L134 439 Q156 456 199.5 478.5 Q243 501 308 501 Q379 501 412 466.5 Q445 432 445 378 L445 115 Q445 61 412 26.5 Q379 -8 308 -8 Q245 -8 201 13.5 Q157 35 135 52 L135 -196 Q135 -202 132.5 -205 Q130 -208 124 -208 L95 -208 Q89 -208 86 -205 Q83 -202 83 -196 L83 480 Q83 487 86 490 Q89 493 95 493 Z " />
<glyph glyph-name="q" unicode="q" horiz-adv-x="519" d="M385 439 L387 480 Q387 487 389.5 490 Q392 493 399 493 L424 493 Q430 493 433 490 Q436 487 436 480 L436 -196 Q436 -202 433 -205 Q430 -208 424 -208 L395 -208 Q389 -208 386.5 -205 Q384 -202 384 -196 L384 52 Q362 35 318 13.5 Q274 -8 211 -8 Q140 -8 107 26.5 Q74 61 74 115 L74 378 Q74 432 107 466.5 Q140 501 211 501 Q275 501 319 478.5 Q363 456 385 439 Z M126 371 L126 122 Q126 88 149 63.5 Q172 39 224 39 Q284 39 325.5 62 Q367 85 384 98 L384 393 Q367 407 325.5 430 Q284 453 224 453 Q172 453 149 429 Q126 405 126 371 Z " />
<glyph glyph-name="r" unicode="r" horiz-adv-x="335" d="M303 500 Q309 500 312.5 497.5 Q316 495 316 489 L316 465 Q316 458 312.5 455.5 Q309 453 303 453 Q248 453 201 426 Q154 399 135 383 L135 12 Q135 6 132.5 3 Q130 0 124 0 L95 0 Q89 0 86 3 Q83 6 83 12 L83 481 Q83 487 86 490 Q89 493 95 493 L120 493 Q127 493 129.5 490 Q132 487 132 481 L135 427 Q157 446 202.5 473 Q248 500 303 500 Z " />
<glyph glyph-name="s" unicode="s" horiz-adv-x="470" d="M355 361 L355 392 Q355 423 325.5 442 Q296 461 233 461 Q171 461 142.5 442 Q114 423 114 392 L114 361 Q114 336 133 320 Q152 304 170 299 L326 250 Q361 239 385.5 216 Q410 193 410 159 L410 100 Q410 56 368 24 Q326 -8 233 -8 Q140 -8 99 24 Q58 56 58 100 L58 128 Q58 133 60.5 136 Q63 139 69 139 L96 139 Q101 139 103.5 136 Q106 133 106 128 L106 102 Q106 71 138 51.5 Q170 32 233 32 Q297 32 329.5 51.5 Q362 71 362 102 L362 147 Q362 172 343 186 Q324 200 299 208 L143 257 Q118 265 91.5 290 Q65 315 65 352 L65 392 Q65 436 103.5 468.5 Q142 501 234 501 Q325 501 364 468.5 Q403 436 403 392 L403 361 Q403 355 400.5 352.5 Q398 350 391 350 L365 350 Q360 350 357.5 352.5 Q355 355 355 361 Z " />
<glyph glyph-name="t" unicode="t" horiz-adv-x="323" d="M155 491 L273 491 Q279 491 282 488.5 Q285 486 285 480 L285 460 Q285 453 282 450.5 Q279 448 273 448 L155 448 L155 128 Q155 90 181.5 67.5 Q208 45 281 45 L297 45 Q303 45 306 42 Q309 39 309 33 L309 12 Q309 5 306 2.5 Q303 0 297 0 L275 0 Q174 0 138.5 33.5 Q103 67 103 123 L103 448 L39 448 Q33 448 30 450.5 Q27 453 27 460 L27 476 Q27 483 30 485.5 Q33 488 39 488 L93 491 L103 491 L103 599 Q103 606 105.5 609 Q108 612 114 612 L143 612 Q150 612 152.5 609 Q155 606 155 599 L155 491 Z " />
<glyph glyph-name="u" unicode="u" horiz-adv-x="520" d="M387 12 L385 52 Q365 35 323 13.5 Q281 -8 218 -8 Q149 -8 115 26 Q81 60 81 111 L81 480 Q81 487 83.5 490 Q86 493 92 493 L121 493 Q127 493 130 490 Q133 487 133 480 L133 122 Q133 85 156 62 Q179 39 231 39 Q290 39 329 61.5 Q368 84 385 98 L385 480 Q385 487 387.5 490 Q390 493 396 493 L425 493 Q431 493 433.5 490 Q436 487 436 480 L436 12 Q436 5 433.5 2.5 Q431 0 425 0 L399 0 Q393 0 390 2.5 Q387 5 387 12 Z " />
<glyph glyph-name="v" unicode="v" horiz-adv-x="439" d="M235 0 L203 0 Q197 0 194.5 2.5 Q192 5 190 11 L30 481 Q29 486 31.5 489.5 Q34 493 40 493 L71 493 Q76 493 79.5 489.5 Q83 486 84 481 L207 120 Q213 103 216 91 Q219 79 221 67 Q223 79 225.5 90 Q228 101 235 120 L359 481 Q360 486 363.5 489.5 Q367 493 372 493 L400 493 Q407 493 409 489.5 Q411 486 410 481 L248 11 Q246 5 243.5 2.5 Q241 0 235 0 Z " />
<glyph glyph-name="w" unicode="w" horiz-adv-x="662" d="M631 481 L500 11 Q499 5 496 2.5 Q493 0 487 0 L454 0 Q448 0 445 3 Q442 6 441 11 L344 377 Q340 391 337 405 Q334 419 333 424 Q332 417 329 402.5 Q326 388 322 376 L218 11 Q217 6 214 3 Q211 0 205 0 L172 0 Q167 0 164 3 Q161 6 160 11 L33 481 Q32 486 34.5 489.5 Q37 493 43 493 L72 493 Q78 493 81.5 489.5 Q85 486 86 481 L186 109 Q190 95 191.5 85.5 Q193 76 194 69 Q195 77 198 87 Q201 97 204 109 L307 481 Q308 486 311.5 489.5 Q315 493 320 493 L353 493 Q358 493 361.5 489.5 Q365 486 366 481 L464 109 Q467 96 469.5 87 Q472 78 473 71 Q474 80 476 88 Q478 96 482 109 L583 481 Q584 486 587.5 489.5 Q591 493 597 493 L621 493 Q628 493 630 489.5 Q632 486 631 481 Z " />
<glyph glyph-name="x" unicode="x" horiz-adv-x="456" d="M259 249 L422 12 Q425 8 423 4 Q421 0 415 0 L382 0 Q375 0 371 4 Q367 8 364 12 L226 212 L91 12 Q88 8 84 4 Q80 0 73 0 L45 0 Q38 0 36.5 4 Q35 8 38 12 L200 250 L42 481 Q38 486 40 489.5 Q42 493 47 493 L81 493 Q88 493 92 489 Q96 485 99 481 L233 287 L363 481 Q366 485 370 489 Q374 493 380 493 L409 493 Q415 493 417 489.5 Q419 486 415 481 L259 249 Z " />
<glyph glyph-name="y" unicode="y" horiz-adv-x="439" d="M83 481 L206 120 Q211 105 215 89.5 Q219 74 220 68 Q223 80 226.5 93 Q230 106 234 118 L358 481 Q359 486 362.5 489.5 Q366 493 372 493 L400 493 Q406 493 408 489.5 Q410 486 409 481 L178 -196 Q177 -201 173.5 -204.5 Q170 -208 164 -208 L141 -208 Q135 -208 133 -204.5 Q131 -201 132 -196 L196 -2 L30 481 Q29 486 31 489.5 Q33 493 39 493 L69 493 Q75 493 78.5 489.5 Q82 486 83 481 Z " />
<glyph glyph-name="z" unicode="z" horiz-adv-x="426" d="M63 493 L363 493 Q369 493 372 490 Q375 487 375 481 L375 462 Q375 459 374 456.5 Q373 454 372 452 L103 44 L375 44 Q381 44 384 41.5 Q387 39 387 32 L387 12 Q387 6 384 3 Q381 0 375 0 L51 0 Q45 0 42 3 Q39 6 39 12 L39 32 Q39 35 40 37.5 Q41 40 42 42 L309 449 L63 449 Q57 449 54 451.5 Q51 454 51 461 L51 481 Q51 487 54 490 Q57 493 63 493 Z " />
<glyph glyph-name="braceleft" unicode="&#x7b;" horiz-adv-x="369" d="M145 354 L145 585 Q145 639 184 673.5 Q223 708 324 708 L329 708 Q335 708 338 705.5 Q341 703 341 696 L341 675 Q341 669 338 666 Q335 663 329 663 L324 663 Q251 663 224.5 640 Q198 617 198 580 L198 350 Q198 309 176.5 283.5 Q155 258 112 248 Q155 239 176.5 213 Q198 187 198 147 L198 -90 Q198 -127 224.5 -150 Q251 -173 324 -173 L329 -173 Q335 -173 338 -176 Q341 -179 341 -185 L341 -206 Q341 -213 338 -215.5 Q335 -218 329 -218 L324 -218 Q223 -218 184 -183.5 Q145 -149 145 -95 L145 143 Q145 180 119.5 203 Q94 226 28 226 L27 226 Q21 226 18 228.5 Q15 231 15 238 L15 259 Q15 265 18 268 Q21 271 27 271 L28 271 Q94 271 119.5 294 Q145 317 145 354 Z " />
<glyph glyph-name="bar" unicode="&#x7c;" horiz-adv-x="219" d="M136 687 L136 -199 Q136 -205 133.5 -208 Q131 -211 125 -211 L95 -211 Q88 -211 85.5 -208 Q83 -205 83 -199 L83 687 Q83 693 85.5 696 Q88 699 95 699 L125 699 Q131 699 133.5 696 Q136 693 136 687 Z " />
<glyph glyph-name="braceright" unicode="&#x7d;" horiz-adv-x="369" d="M224 585 L224 354 Q224 317 249.5 294 Q275 271 341 271 L342 271 Q348 271 351 268 Q354 265 354 259 L354 238 Q354 231 351 228.5 Q348 226 342 226 L341 226 Q275 226 249.5 203 Q224 180 224 143 L224 -95 Q224 -149 185 -183.5 Q146 -218 45 -218 L40 -218 Q34 -218 31 -215.5 Q28 -213 28 -206 L28 -185 Q28 -179 31 -176 Q34 -173 40 -173 L45 -173 Q118 -173 144.5 -150 Q171 -127 171 -90 L171 147 Q171 187 192.5 213 Q214 239 257 248 Q214 258 192.5 283.5 Q171 309 171 350 L171 580 Q171 617 144.5 640 Q118 663 45 663 L40 663 Q34 663 31 666 Q28 669 28 675 L28 696 Q28 703 31 705.5 Q34 708 40 708 L45 708 Q146 708 185 673.5 Q224 639 224 585 Z " />
<glyph glyph-name="asciitilde" unicode="&#x7e;" horiz-adv-x="470" d="M187 280 Q180 284 169.5 288 Q159 292 151 292 Q132 292 125.5 283 Q119 274 119 249 L119 229 Q119 223 115.5 220.5 Q112 218 106 218 L90 218 Q84 218 82 221.5 Q80 225 80 232 L80 253 Q80 300 100 318.5 Q120 337 147 337 Q159 337 172 332.5 Q185 328 196 322 L280 276 Q289 271 300 266.5 Q311 262 321 262 Q340 262 346 271.5 Q352 281 352 306 L352 325 Q352 331 355.5 333.5 Q359 336 364 336 L381 336 Q387 336 389 333 Q391 330 391 323 L391 301 Q391 252 371.5 234.5 Q352 217 326 217 Q316 217 300 221.5 Q284 226 271 233 L187 280 Z " />
<glyph glyph-name="Adieresis" unicode="&#xc4;" horiz-adv-x="525" d="M371 249 L288 517 Q279 545 272 577.5 Q265 610 263 624 Q261 611 253.5 575 Q246 539 240 519 L155 249 L371 249 Z M249 680 L280 680 Q286 680 290 677 Q294 674 295 668 L498 12 Q500 6 497.5 3 Q495 0 489 0 L458 0 Q452 0 448.5 3 Q445 6 444 12 L383 206 L142 206 L83 12 Q82 6 78.5 3 Q75 0 69 0 L40 0 Q34 0 31.5 3 Q29 6 31 12 L234 668 Q235 674 239 677 Q243 680 249 680 Z M332 857 L332 759 Q332 753 329.5 750 Q327 747 321 747 L303 747 Q297 747 294 750 Q291 753 291 759 L291 857 Q291 863 294 866 Q297 869 303 869 L321 869 Q327 869 329.5 866 Q332 863 332 857 Z M234 857 L234 759 Q234 753 231.5 750 Q229 747 223 747 L205 747 Q199 747 196 750 Q193 753 193 759 L193 857 Q193 863 196 866 Q199 869 205 869 L223 869 Q229 869 231.5 866 Q234 863 234 857 Z " />
<glyph glyph-name="Aring" unicode="&#xc5;" horiz-adv-x="525" d="M371 249 L288 517 Q279 545 272 577.5 Q265 610 263 624 Q261 611 253.5 575 Q246 539 240 519 L155 249 L371 249 Z M249 680 L280 680 Q286 680 290 677 Q294 674 295 668 L498 12 Q500 6 497.5 3 Q495 0 489 0 L458 0 Q452 0 448.5 3 Q445 6 444 12 L383 206 L142 206 L83 12 Q82 6 78.5 3 Q75 0 69 0 L40 0 Q34 0 31.5 3 Q29 6 31 12 L234 668 Q235 674 239 677 Q243 680 249 680 Z M354 811 L354 796 Q354 765 332.5 744 Q311 723 262 723 Q213 723 192 744 Q171 765 171 796 L171 811 Q171 842 192 863 Q213 884 262 884 Q311 884 332.5 863 Q354 842 354 811 Z M320 800 L320 807 Q320 826 306.5 840 Q293 854 262 854 Q231 854 218 840 Q205 826 205 807 L205 800 Q205 781 218 767 Q231 753 262 753 Q293 753 306.5 767 Q320 781 320 800 Z " />
<glyph glyph-name="Ccedilla" unicode="&#xc7;" horiz-adv-x="549" d="M392 -132 Q392 -176 365.5 -193.5 Q339 -211 310 -211 L192 -211 Q186 -211 183 -208.5 Q180 -206 180 -199 L180 -188 Q180 -182 183 -179 Q186 -176 192 -176 L304 -176 Q319 -176 335.5 -168 Q352 -160 352 -132 Q352 -104 335.5 -96.5 Q319 -89 304 -89 L245 -89 Q234 -89 231 -84.5 Q228 -80 229 -74 L248 -6 Q153 1 119 40.5 Q85 80 85 133 L85 547 Q85 605 127 646.5 Q169 688 289 688 Q409 688 451 646.5 Q493 605 493 547 L493 495 Q493 488 490.5 485 Q488 482 482 482 L453 482 Q447 482 444 485 Q441 488 441 495 L441 539 Q441 585 408.5 613.5 Q376 642 289 642 Q202 642 170 613.5 Q138 585 138 539 L138 141 Q138 95 170 66.5 Q202 38 289 38 Q376 38 408.5 66.5 Q441 95 441 141 L441 198 Q441 204 444 206.5 Q447 209 453 209 L482 209 Q488 209 490.5 206.5 Q493 204 493 198 L493 133 Q493 75 451 33.5 Q409 -8 289 -8 L285 -8 L271 -54 L310 -54 Q339 -54 365.5 -71 Q392 -88 392 -132 Z " />
<glyph glyph-name="Eacute" unicode="&#xc9;" horiz-adv-x="523" d="M461 0 L107 0 Q102 0 99 3 Q96 6 96 12 L96 668 Q96 674 99 677 Q102 680 108 680 L449 680 Q455 680 458 677.5 Q461 675 461 668 L461 646 Q461 639 458 636.5 Q455 634 449 634 L149 634 L149 380 L431 380 Q437 380 440 377.5 Q443 375 443 368 L443 347 Q443 341 440 338 Q437 335 431 335 L149 335 L149 46 L461 46 Q467 46 470 43.5 Q473 41 473 34 L473 12 Q473 5 470 2.5 Q467 0 461 0 Z M380 866 L299 747 Q298 745 294.5 742.5 Q291 740 285 740 L260 740 Q255 740 252.5 743 Q250 746 254 751 L327 868 Q330 872 333 875 Q336 878 342 878 L374 878 Q381 878 382.5 874.5 Q384 871 380 866 Z " />
<glyph glyph-name="Ntilde" unicode="&#xd1;" horiz-adv-x="609" d="M370 796 Q389 796 395 807 Q401 818 401 850 L401 859 Q401 865 404.5 867.5 Q408 870 414 870 L430 870 Q436 870 438.5 866.5 Q441 863 441 857 L441 838 Q441 792 420.5 773.5 Q400 755 372 755 Q362 755 347.5 760 Q333 765 320 775 L275 811 Q267 818 257 823 Q247 828 239 828 Q220 828 214 817 Q208 806 208 774 L208 765 Q208 759 204.5 756.5 Q201 754 195 754 L178 754 Q172 754 170 757.5 Q168 761 168 768 L168 787 Q168 833 188 851 Q208 869 236 869 Q249 869 262.5 864.5 Q276 860 288 850 L334 813 Q343 806 352.5 801 Q362 796 370 796 Z M513 668 L513 12 Q513 6 510.5 3 Q508 0 502 0 L475 0 Q471 0 468 1.5 Q465 3 464 6 L178 515 Q171 527 162 545 Q153 563 146 576 L146 12 Q146 6 143.5 3 Q141 0 135 0 L108 0 Q102 0 99 3 Q96 6 96 12 L96 668 Q96 674 99 677 Q102 680 108 680 L135 680 Q139 680 141.5 678.5 Q144 677 145 675 L434 162 Q444 144 453 126.5 Q462 109 463 105 L463 668 Q463 674 466 677 Q469 680 475 680 L502 680 Q508 680 510.5 677 Q513 674 513 668 Z " />
<glyph glyph-name="Odieresis" unicode="&#xd6;" horiz-adv-x="587" d="M85 133 L85 547 Q85 605 129.5 646.5 Q174 688 293 688 Q413 688 458 646.5 Q503 605 503 547 L503 133 Q503 75 458 33.5 Q413 -8 293 -8 Q174 -8 129.5 33.5 Q85 75 85 133 Z M449 141 L449 539 Q449 585 414.5 613.5 Q380 642 293 642 Q206 642 172 613.5 Q138 585 138 539 L138 141 Q138 95 172 66.5 Q206 38 293 38 Q380 38 414.5 66.5 Q449 95 449 141 Z M363 857 L363 759 Q363 753 360.5 750 Q358 747 352 747 L334 747 Q328 747 325 750 Q322 753 322 759 L322 857 Q322 863 325 866 Q328 869 334 869 L352 869 Q358 869 360.5 866 Q363 863 363 857 Z M265 857 L265 759 Q265 753 262.5 750 Q260 747 254 747 L236 747 Q230 747 227 750 Q224 753 224 759 L224 857 Q224 863 227 866 Q230 869 236 869 L254 869 Q260 869 262.5 866 Q265 863 265 857 Z " />
<glyph glyph-name="Udieresis" unicode="&#xdc;" horiz-adv-x="603" d="M146 668 L146 141 Q146 95 180 66.5 Q214 38 301 38 Q388 38 423 66.5 Q458 95 458 141 L458 668 Q458 674 460.5 677 Q463 680 469 680 L499 680 Q506 680 508.5 677 Q511 674 511 668 L511 133 Q511 75 466 33.5 Q421 -8 301 -8 Q182 -8 137.5 33.5 Q93 75 93 133 L93 668 Q93 674 95.5 677 Q98 680 105 680 L134 680 Q141 680 143.5 677 Q146 674 146 668 Z M371 857 L371 759 Q371 753 368.5 750 Q366 747 360 747 L342 747 Q336 747 333 750 Q330 753 330 759 L330 857 Q330 863 333 866 Q336 869 342 869 L360 869 Q366 869 368.5 866 Q371 863 371 857 Z M273 857 L273 759 Q273 753 270.5 750 Q268 747 262 747 L244 747 Q238 747 235 750 Q232 753 232 759 L232 857 Q232 863 235 866 Q238 869 244 869 L262 869 Q268 869 270.5 866 Q273 863 273 857 Z " />
<glyph glyph-name="aacute" unicode="&#xe1;" horiz-adv-x="499" d="M208 36 Q267 36 308 59 Q349 82 366 95 L366 233 L194 233 Q151 233 131 211 Q111 189 111 153 L111 114 Q111 79 134.5 57.5 Q158 36 208 36 Z M69 360 L69 378 Q69 432 106.5 466.5 Q144 501 243 501 Q344 501 380.5 466.5 Q417 432 417 378 L417 12 Q417 6 414.5 3 Q412 0 406 0 L381 0 Q375 0 372 3 Q369 6 369 12 L367 52 Q345 35 302 13.5 Q259 -8 197 -8 Q128 -8 94 25.5 Q60 59 60 108 L60 159 Q60 208 91.5 241.5 Q123 275 185 275 L366 275 L366 374 Q366 410 341 434 Q316 458 243 458 Q169 458 143.5 435 Q118 412 118 375 L118 360 Q118 353 115.5 350.5 Q113 348 106 348 L80 348 Q74 348 71.5 350.5 Q69 353 69 360 Z M345 696 L264 577 Q263 575 259.5 572.5 Q256 570 250 570 L225 570 Q220 570 217.5 572.5 Q215 575 219 581 L291 698 Q294 702 297.5 705 Q301 708 307 708 L339 708 Q346 708 347.5 704.5 Q349 701 345 696 Z " />
<glyph glyph-name="agrave" unicode="&#xe0;" horiz-adv-x="499" d="M208 36 Q267 36 308 59 Q349 82 366 95 L366 233 L194 233 Q151 233 131 211 Q111 189 111 153 L111 114 Q111 79 134.5 57.5 Q158 36 208 36 Z M69 360 L69 378 Q69 432 106.5 466.5 Q144 501 243 501 Q344 501 380.5 466.5 Q417 432 417 378 L417 12 Q417 6 414.5 3 Q412 0 406 0 L381 0 Q375 0 372 3 Q369 6 369 12 L367 52 Q345 35 302 13.5 Q259 -8 197 -8 Q128 -8 94 25.5 Q60 59 60 108 L60 159 Q60 208 91.5 241.5 Q123 275 185 275 L366 275 L366 374 Q366 410 341 434 Q316 458 243 458 Q169 458 143.5 435 Q118 412 118 375 L118 360 Q118 353 115.5 350.5 Q113 348 106 348 L80 348 Q74 348 71.5 350.5 Q69 353 69 360 Z M223 577 L142 696 Q138 701 139.5 704.5 Q141 708 148 708 L180 708 Q187 708 190 705 Q193 702 196 698 L268 581 Q272 575 269.5 572.5 Q267 570 263 570 L238 570 Q231 570 227.5 572 Q224 574 223 577 Z " />
<glyph glyph-name="acircumflex" unicode="&#xe2;" horiz-adv-x="499" d="M208 36 Q267 36 308 59 Q349 82 366 95 L366 233 L194 233 Q151 233 131 211 Q111 189 111 153 L111 114 Q111 79 134.5 57.5 Q158 36 208 36 Z M69 360 L69 378 Q69 432 106.5 466.5 Q144 501 243 501 Q344 501 380.5 466.5 Q417 432 417 378 L417 12 Q417 6 414.5 3 Q412 0 406 0 L381 0 Q375 0 372 3 Q369 6 369 12 L367 52 Q345 35 302 13.5 Q259 -8 197 -8 Q128 -8 94 25.5 Q60 59 60 108 L60 159 Q60 208 91.5 241.5 Q123 275 185 275 L366 275 L366 374 Q366 410 341 434 Q316 458 243 458 Q169 458 143.5 435 Q118 412 118 375 L118 360 Q118 353 115.5 350.5 Q113 348 106 348 L80 348 Q74 348 71.5 350.5 Q69 353 69 360 Z M245 674 L184 582 Q181 577 177 573.5 Q173 570 168 570 L144 570 Q138 570 136 573.5 Q134 577 138 582 L216 696 Q220 701 224 704.5 Q228 708 234 708 L254 708 Q260 708 265 704.5 Q270 701 273 697 L351 582 Q355 577 353 573.5 Q351 570 345 570 L322 570 Q317 570 313 573.5 Q309 577 305 582 L245 674 Z " />
<glyph glyph-name="adieresis" unicode="&#xe4;" horiz-adv-x="499" d="M208 36 Q267 36 308 59 Q349 82 366 95 L366 233 L194 233 Q151 233 131 211 Q111 189 111 153 L111 114 Q111 79 134.5 57.5 Q158 36 208 36 Z M69 360 L69 378 Q69 432 106.5 466.5 Q144 501 243 501 Q344 501 380.5 466.5 Q417 432 417 378 L417 12 Q417 6 414.5 3 Q412 0 406 0 L381 0 Q375 0 372 3 Q369 6 369 12 L367 52 Q345 35 302 13.5 Q259 -8 197 -8 Q128 -8 94 25.5 Q60 59 60 108 L60 159 Q60 208 91.5 241.5 Q123 275 185 275 L366 275 L366 374 Q366 410 341 434 Q316 458 243 458 Q169 458 143.5 435 Q118 412 118 375 L118 360 Q118 353 115.5 350.5 Q113 348 106 348 L80 348 Q74 348 71.5 350.5 Q69 353 69 360 Z M311 690 L311 592 Q311 586 308 583 Q305 580 299 580 L281 580 Q275 580 272 583 Q269 586 269 592 L269 690 Q269 696 272 699 Q275 702 281 702 L299 702 Q305 702 308 699 Q311 696 311 690 Z M213 690 L213 592 Q213 586 210 583 Q207 580 201 580 L183 580 Q177 580 174 583 Q171 586 171 592 L171 690 Q171 696 174 699 Q177 702 183 702 L201 702 Q207 702 210 699 Q213 696 213 690 Z " />
<glyph glyph-name="atilde" unicode="&#xe3;" horiz-adv-x="499" d="M208 36 Q267 36 308 59 Q349 82 366 95 L366 233 L194 233 Q151 233 131 211 Q111 189 111 153 L111 114 Q111 79 134.5 57.5 Q158 36 208 36 Z M69 360 L69 378 Q69 432 106.5 466.5 Q144 501 243 501 Q344 501 380.5 466.5 Q417 432 417 378 L417 12 Q417 6 414.5 3 Q412 0 406 0 L381 0 Q375 0 372 3 Q369 6 369 12 L367 52 Q345 35 302 13.5 Q259 -8 197 -8 Q128 -8 94 25.5 Q60 59 60 108 L60 159 Q60 208 91.5 241.5 Q123 275 185 275 L366 275 L366 374 Q366 410 341 434 Q316 458 243 458 Q169 458 143.5 435 Q118 412 118 375 L118 360 Q118 353 115.5 350.5 Q113 348 106 348 L80 348 Q74 348 71.5 350.5 Q69 353 69 360 Z M305 580 Q294 580 280 585 Q266 590 253 600 L207 636 Q199 643 189 648.5 Q179 654 171 654 Q152 654 146 642.5 Q140 631 140 599 L140 591 Q140 584 136.5 582 Q133 580 127 580 L111 580 Q104 580 102 583 Q100 586 100 593 L100 612 Q100 658 120 676.5 Q140 695 168 695 Q181 695 194.5 690 Q208 685 220 675 L266 638 Q274 631 284 626 Q294 621 302 621 Q321 621 327 632.5 Q333 644 333 675 L333 684 Q333 690 336.5 692.5 Q340 695 346 695 L362 695 Q368 695 370.5 691.5 Q373 688 373 682 L373 663 Q373 617 353 598.5 Q333 580 305 580 Z " />
<glyph glyph-name="aring" unicode="&#xe5;" horiz-adv-x="499" d="M208 36 Q267 36 308 59 Q349 82 366 95 L366 233 L194 233 Q151 233 131 211 Q111 189 111 153 L111 114 Q111 79 134.5 57.5 Q158 36 208 36 Z M69 360 L69 378 Q69 432 106.5 466.5 Q144 501 243 501 Q344 501 380.5 466.5 Q417 432 417 378 L417 12 Q417 6 414.5 3 Q412 0 406 0 L381 0 Q375 0 372 3 Q369 6 369 12 L367 52 Q345 35 302 13.5 Q259 -8 197 -8 Q128 -8 94 25.5 Q60 59 60 108 L60 159 Q60 208 91.5 241.5 Q123 275 185 275 L366 275 L366 374 Q366 410 341 434 Q316 458 243 458 Q169 458 143.5 435 Q118 412 118 375 L118 360 Q118 353 115.5 350.5 Q113 348 106 348 L80 348 Q74 348 71.5 350.5 Q69 353 69 360 Z M328 646 L328 627 Q328 596 307 576 Q286 556 238 556 Q190 556 169 576 Q148 596 148 627 L148 646 Q148 677 169 697 Q190 717 238 717 Q286 717 307 697 Q328 677 328 646 Z M296 632 L296 641 Q296 661 282.5 674 Q269 687 238 687 Q207 687 194 674 Q181 661 181 641 L181 632 Q181 612 194 599 Q207 586 238 586 Q269 586 282.5 599 Q296 612 296 632 Z " />
<glyph glyph-name="ccedilla" unicode="&#xe7;" horiz-adv-x="478" d="M351 -132 Q351 -176 324.5 -193.5 Q298 -211 269 -211 L151 -211 Q145 -211 142 -208.5 Q139 -206 139 -199 L139 -188 Q139 -182 142 -179 Q145 -176 151 -176 L263 -176 Q278 -176 294.5 -168 Q311 -160 311 -132 Q311 -104 294.5 -96.5 Q278 -89 263 -89 L204 -89 Q193 -89 190 -84.5 Q187 -80 188 -74 L207 -6 Q132 1 103 34 Q74 67 74 115 L74 377 Q74 431 111.5 466 Q149 501 249 501 Q350 501 387 466 Q424 431 424 377 L424 358 Q424 351 421.5 348.5 Q419 346 413 346 L386 346 Q380 346 377 348.5 Q374 351 374 358 L374 374 Q374 411 348.5 434 Q323 457 250 457 Q177 457 151 434 Q125 411 125 374 L125 119 Q125 82 151 59 Q177 36 250 36 Q323 36 348.5 59 Q374 82 374 119 L374 143 Q374 150 377 152.5 Q380 155 386 155 L413 155 Q419 155 421.5 152.5 Q424 150 424 143 L424 115 Q424 61 386.5 26.5 Q349 -8 249 -8 L244 -8 L230 -54 L269 -54 Q298 -54 324.5 -71 Q351 -88 351 -132 Z " />
<glyph glyph-name="eacute" unicode="&#xe9;" horiz-adv-x="495" d="M348 696 L267 577 Q266 575 262.5 572.5 Q259 570 253 570 L228 570 Q223 570 220.5 572.5 Q218 575 222 581 L294 698 Q297 702 300.5 705 Q304 708 310 708 L342 708 Q349 708 350.5 704.5 Q352 701 348 696 Z M427 377 L427 253 Q427 248 424.5 245 Q422 242 416 242 L125 242 L125 118 Q125 81 150.5 58 Q176 35 251 35 Q326 35 352 58 Q378 81 378 118 L378 139 Q378 145 380.5 148 Q383 151 390 151 L415 151 Q421 151 424 148 Q427 145 427 139 L427 115 Q427 61 389 26.5 Q351 -8 250 -8 Q149 -8 111.5 26.5 Q74 61 74 115 L74 377 Q74 431 112 466 Q150 501 251 501 Q352 501 389.5 466 Q427 431 427 377 Z M125 375 L125 282 L378 282 L378 375 Q378 411 351 434.5 Q324 458 251 458 Q178 458 151.5 434.5 Q125 411 125 375 Z " />
<glyph glyph-name="egrave" unicode="&#xe8;" horiz-adv-x="495" d="M427 377 L427 253 Q427 248 424.5 245 Q422 242 416 242 L125 242 L125 118 Q125 81 150.5 58 Q176 35 251 35 Q326 35 352 58 Q378 81 378 118 L378 139 Q378 145 380.5 148 Q383 151 390 151 L415 151 Q421 151 424 148 Q427 145 427 139 L427 115 Q427 61 389 26.5 Q351 -8 250 -8 Q149 -8 111.5 26.5 Q74 61 74 115 L74 377 Q74 431 112 466 Q150 501 251 501 Q352 501 389.5 466 Q427 431 427 377 Z M125 375 L125 282 L378 282 L378 375 Q378 411 351 434.5 Q324 458 251 458 Q178 458 151.5 434.5 Q125 411 125 375 Z M224 577 L143 696 Q139 701 140.5 704.5 Q142 708 149 708 L181 708 Q188 708 191 705 Q194 702 197 698 L269 581 Q273 575 270.5 572.5 Q268 570 264 570 L239 570 Q232 570 228.5 572 Q225 574 224 577 Z " />
<glyph glyph-name="ecircumflex" unicode="&#xea;" horiz-adv-x="495" d="M251 674 L190 582 Q187 577 183 573.5 Q179 570 174 570 L150 570 Q144 570 142 573.5 Q140 577 144 582 L222 696 Q226 701 230 704.5 Q234 708 240 708 L260 708 Q266 708 271 704.5 Q276 701 279 697 L357 582 Q361 577 359 573.5 Q357 570 351 570 L328 570 Q323 570 319 573.5 Q315 577 311 582 L251 674 Z M427 377 L427 253 Q427 248 424.5 245 Q422 242 416 242 L125 242 L125 118 Q125 81 150.5 58 Q176 35 251 35 Q326 35 352 58 Q378 81 378 118 L378 139 Q378 145 380.5 148 Q383 151 390 151 L415 151 Q421 151 424 148 Q427 145 427 139 L427 115 Q427 61 389 26.5 Q351 -8 250 -8 Q149 -8 111.5 26.5 Q74 61 74 115 L74 377 Q74 431 112 466 Q150 501 251 501 Q352 501 389.5 466 Q427 431 427 377 Z M125 375 L125 282 L378 282 L378 375 Q378 411 351 434.5 Q324 458 251 458 Q178 458 151.5 434.5 Q125 411 125 375 Z " />
<glyph glyph-name="edieresis" unicode="&#xeb;" horiz-adv-x="495" d="M320 690 L320 592 Q320 586 317 583 Q314 580 308 580 L290 580 Q284 580 281 583 Q278 586 278 592 L278 690 Q278 696 281 699 Q284 702 290 702 L308 702 Q314 702 317 699 Q320 696 320 690 Z M222 690 L222 592 Q222 586 219 583 Q216 580 210 580 L192 580 Q186 580 183 583 Q180 586 180 592 L180 690 Q180 696 183 699 Q186 702 192 702 L210 702 Q216 702 219 699 Q222 696 222 690 Z M427 377 L427 253 Q427 248 424.5 245 Q422 242 416 242 L125 242 L125 118 Q125 81 150.5 58 Q176 35 251 35 Q326 35 352 58 Q378 81 378 118 L378 139 Q378 145 380.5 148 Q383 151 390 151 L415 151 Q421 151 424 148 Q427 145 427 139 L427 115 Q427 61 389 26.5 Q351 -8 250 -8 Q149 -8 111.5 26.5 Q74 61 74 115 L74 377 Q74 431 112 466 Q150 501 251 501 Q352 501 389.5 466 Q427 431 427 377 Z M125 375 L125 282 L378 282 L378 375 Q378 411 351 434.5 Q324 458 251 458 Q178 458 151.5 434.5 Q125 411 125 375 Z " />
<glyph glyph-name="iacute" unicode="&#xed;" horiz-adv-x="219" d="M218 696 L137 577 Q136 575 132.5 572.5 Q129 570 123 570 L98 570 Q93 570 90.5 572.5 Q88 575 92 581 L164 698 Q167 702 170.5 705 Q174 708 180 708 L212 708 Q219 708 220.5 704.5 Q222 701 218 696 Z M136 481 L136 12 Q136 6 133 3 Q130 0 124 0 L95 0 Q89 0 86.5 3 Q84 6 84 12 L84 481 Q84 487 86.5 490 Q89 493 95 493 L124 493 Q130 493 133 490 Q136 487 136 481 Z " />
<glyph glyph-name="igrave" unicode="&#xec;" horiz-adv-x="219" d="M136 481 L136 12 Q136 6 133 3 Q130 0 124 0 L95 0 Q89 0 86.5 3 Q84 6 84 12 L84 481 Q84 487 86.5 490 Q89 493 95 493 L124 493 Q130 493 133 490 Q136 487 136 481 Z M84 577 L3 696 Q-1 701 0.5 704.5 Q2 708 9 708 L41 708 Q48 708 51 705 Q54 702 57 698 L129 581 Q133 575 130.5 572.5 Q128 570 124 570 L99 570 Q92 570 88.5 572 Q85 574 84 577 Z " />
<glyph glyph-name="icircumflex" unicode="&#xee;" horiz-adv-x="219" d="M115 674 L54 582 Q51 577 47 573.5 Q43 570 38 570 L14 570 Q8 570 6 573.5 Q4 577 8 582 L86 696 Q90 701 94 704.5 Q98 708 104 708 L124 708 Q130 708 135 704.5 Q140 701 143 697 L221 582 Q225 577 223 573.5 Q221 570 215 570 L192 570 Q187 570 183 573.5 Q179 577 175 582 L115 674 Z M136 481 L136 12 Q136 6 133 3 Q130 0 124 0 L95 0 Q89 0 86.5 3 Q84 6 84 12 L84 481 Q84 487 86.5 490 Q89 493 95 493 L124 493 Q130 493 133 490 Q136 487 136 481 Z " />
<glyph glyph-name="idieresis" unicode="&#xef;" horiz-adv-x="219" d="M180 690 L180 592 Q180 586 177 583 Q174 580 168 580 L150 580 Q144 580 141 583 Q138 586 138 592 L138 690 Q138 696 141 699 Q144 702 150 702 L168 702 Q174 702 177 699 Q180 696 180 690 Z M82 690 L82 592 Q82 586 79 583 Q76 580 70 580 L52 580 Q46 580 43 583 Q40 586 40 592 L40 690 Q40 696 43 699 Q46 702 52 702 L70 702 Q76 702 79 699 Q82 696 82 690 Z M136 481 L136 12 Q136 6 133 3 Q130 0 124 0 L95 0 Q89 0 86.5 3 Q84 6 84 12 L84 481 Q84 487 86.5 490 Q89 493 95 493 L124 493 Q130 493 133 490 Q136 487 136 481 Z " />
<glyph glyph-name="ntilde" unicode="&#xf1;" horiz-adv-x="526" d="M95 493 L120 493 Q127 493 129.5 490 Q132 487 132 481 L134 439 Q156 457 200 479 Q244 501 308 501 Q377 501 411 467 Q445 433 445 381 L445 12 Q445 6 442.5 3 Q440 0 434 0 L405 0 Q399 0 396 3 Q393 6 393 12 L393 371 Q393 408 370 431 Q347 454 295 454 Q235 454 193.5 431 Q152 408 135 394 L135 12 Q135 6 132.5 3 Q130 0 124 0 L95 0 Q89 0 86 3 Q83 6 83 12 L83 481 Q83 487 86 490 Q89 493 95 493 Z M327 583 Q316 583 302 588 Q288 593 275 603 L229 639 Q221 646 211 651.5 Q201 657 193 657 Q174 657 168 645.5 Q162 634 162 602 L162 594 Q162 587 158.5 585 Q155 583 149 583 L133 583 Q126 583 124 586 Q122 589 122 596 L122 615 Q122 661 142 679.5 Q162 698 190 698 Q203 698 216.5 693 Q230 688 242 678 L288 641 Q296 634 306 629 Q316 624 324 624 Q343 624 349 635.5 Q355 647 355 678 L355 687 Q355 693 358.5 695.5 Q362 698 368 698 L384 698 Q390 698 392.5 694.5 Q395 691 395 685 L395 666 Q395 620 375 601.5 Q355 583 327 583 Z " />
<glyph glyph-name="oacute" unicode="&#xf3;" horiz-adv-x="508" d="M355 696 L274 577 Q273 575 269.5 572.5 Q266 570 260 570 L235 570 Q230 570 227.5 572.5 Q225 575 229 581 L301 698 Q304 702 307.5 705 Q311 708 317 708 L349 708 Q356 708 357.5 704.5 Q359 701 355 696 Z M73 115 L73 377 Q73 431 113.5 466 Q154 501 254 501 Q354 501 394.5 466 Q435 431 435 377 L435 115 Q435 61 394.5 26.5 Q354 -8 254 -8 Q154 -8 113.5 26.5 Q73 61 73 115 Z M383 119 L383 374 Q383 411 355 434 Q327 457 254 457 Q181 457 153 434 Q125 411 125 374 L125 119 Q125 82 153 59 Q181 36 254 36 Q327 36 355 59 Q383 82 383 119 Z " />
<glyph glyph-name="ograve" unicode="&#xf2;" horiz-adv-x="508" d="M73 115 L73 377 Q73 431 113.5 466 Q154 501 254 501 Q354 501 394.5 466 Q435 431 435 377 L435 115 Q435 61 394.5 26.5 Q354 -8 254 -8 Q154 -8 113.5 26.5 Q73 61 73 115 Z M383 119 L383 374 Q383 411 355 434 Q327 457 254 457 Q181 457 153 434 Q125 411 125 374 L125 119 Q125 82 153 59 Q181 36 254 36 Q327 36 355 59 Q383 82 383 119 Z M229 577 L148 696 Q144 701 145.5 704.5 Q147 708 154 708 L186 708 Q193 708 196 705 Q199 702 202 698 L274 581 Q278 575 275.5 572.5 Q273 570 269 570 L244 570 Q237 570 233.5 572 Q230 574 229 577 Z " />
<glyph glyph-name="ocircumflex" unicode="&#xf4;" horiz-adv-x="508" d="M259 674 L198 582 Q195 577 191 573.5 Q187 570 182 570 L158 570 Q152 570 150 573.5 Q148 577 152 582 L230 696 Q234 701 238 704.5 Q242 708 248 708 L268 708 Q274 708 279 704.5 Q284 701 287 697 L365 582 Q369 577 367 573.5 Q365 570 359 570 L336 570 Q331 570 327 573.5 Q323 577 319 582 L259 674 Z M73 115 L73 377 Q73 431 113.5 466 Q154 501 254 501 Q354 501 394.5 466 Q435 431 435 377 L435 115 Q435 61 394.5 26.5 Q354 -8 254 -8 Q154 -8 113.5 26.5 Q73 61 73 115 Z M383 119 L383 374 Q383 411 355 434 Q327 457 254 457 Q181 457 153 434 Q125 411 125 374 L125 119 Q125 82 153 59 Q181 36 254 36 Q327 36 355 59 Q383 82 383 119 Z " />
<glyph glyph-name="odieresis" unicode="&#xf6;" horiz-adv-x="508" d="M319 690 L319 592 Q319 586 316 583 Q313 580 307 580 L289 580 Q283 580 280 583 Q277 586 277 592 L277 690 Q277 696 280 699 Q283 702 289 702 L307 702 Q313 702 316 699 Q319 696 319 690 Z M221 690 L221 592 Q221 586 218 583 Q215 580 209 580 L191 580 Q185 580 182 583 Q179 586 179 592 L179 690 Q179 696 182 699 Q185 702 191 702 L209 702 Q215 702 218 699 Q221 696 221 690 Z M73 115 L73 377 Q73 431 113.5 466 Q154 501 254 501 Q354 501 394.5 466 Q435 431 435 377 L435 115 Q435 61 394.5 26.5 Q354 -8 254 -8 Q154 -8 113.5 26.5 Q73 61 73 115 Z M383 119 L383 374 Q383 411 355 434 Q327 457 254 457 Q181 457 153 434 Q125 411 125 374 L125 119 Q125 82 153 59 Q181 36 254 36 Q327 36 355 59 Q383 82 383 119 Z " />
<glyph glyph-name="otilde" unicode="&#xf5;" horiz-adv-x="508" d="M73 115 L73 377 Q73 431 113.5 466 Q154 501 254 501 Q354 501 394.5 466 Q435 431 435 377 L435 115 Q435 61 394.5 26.5 Q354 -8 254 -8 Q154 -8 113.5 26.5 Q73 61 73 115 Z M383 119 L383 374 Q383 411 355 434 Q327 457 254 457 Q181 457 153 434 Q125 411 125 374 L125 119 Q125 82 153 59 Q181 36 254 36 Q327 36 355 59 Q383 82 383 119 Z M323 580 Q312 580 298 585 Q284 590 271 600 L225 636 Q217 643 207 648.5 Q197 654 189 654 Q170 654 164 642.5 Q158 631 158 599 L158 591 Q158 584 154.5 582 Q151 580 145 580 L129 580 Q122 580 120 583 Q118 586 118 593 L118 612 Q118 658 138 676.5 Q158 695 186 695 Q199 695 212.5 690 Q226 685 238 675 L284 638 Q292 631 302 626 Q312 621 320 621 Q339 621 345 632.5 Q351 644 351 675 L351 684 Q351 690 354.5 692.5 Q358 695 364 695 L380 695 Q386 695 388.5 691.5 Q391 688 391 682 L391 663 Q391 617 371 598.5 Q351 580 323 580 Z " />
<glyph glyph-name="uacute" unicode="&#xfa;" horiz-adv-x="520" d="M362 696 L281 577 Q280 575 276.5 572.5 Q273 570 267 570 L242 570 Q237 570 234.5 572.5 Q232 575 236 581 L308 698 Q311 702 314.5 705 Q318 708 324 708 L356 708 Q363 708 364.5 704.5 Q366 701 362 696 Z M387 12 L385 52 Q365 35 323 13.5 Q281 -8 218 -8 Q149 -8 115 26 Q81 60 81 111 L81 480 Q81 487 83.5 490 Q86 493 92 493 L121 493 Q127 493 130 490 Q133 487 133 480 L133 122 Q133 85 156 62 Q179 39 231 39 Q290 39 329 61.5 Q368 84 385 98 L385 480 Q385 487 387.5 490 Q390 493 396 493 L425 493 Q431 493 433.5 490 Q436 487 436 480 L436 12 Q436 5 433.5 2.5 Q431 0 425 0 L399 0 Q393 0 390 2.5 Q387 5 387 12 Z " />
<glyph glyph-name="ugrave" unicode="&#xf9;" horiz-adv-x="520" d="M387 12 L385 52 Q365 35 323 13.5 Q281 -8 218 -8 Q149 -8 115 26 Q81 60 81 111 L81 480 Q81 487 83.5 490 Q86 493 92 493 L121 493 Q127 493 130 490 Q133 487 133 480 L133 122 Q133 85 156 62 Q179 39 231 39 Q290 39 329 61.5 Q368 84 385 98 L385 480 Q385 487 387.5 490 Q390 493 396 493 L425 493 Q431 493 433.5 490 Q436 487 436 480 L436 12 Q436 5 433.5 2.5 Q431 0 425 0 L399 0 Q393 0 390 2.5 Q387 5 387 12 Z M239 577 L158 696 Q154 701 155.5 704.5 Q157 708 164 708 L196 708 Q203 708 206 705 Q209 702 212 698 L284 581 Q288 575 285.5 572.5 Q283 570 279 570 L254 570 Q247 570 243.5 572 Q240 574 239 577 Z " />
<glyph glyph-name="ucircumflex" unicode="&#xfb;" horiz-adv-x="520" d="M263 674 L202 582 Q199 577 195 573.5 Q191 570 186 570 L162 570 Q156 570 154 573.5 Q152 577 156 582 L234 696 Q238 701 242 704.5 Q246 708 252 708 L272 708 Q278 708 283 704.5 Q288 701 291 697 L369 582 Q373 577 371 573.5 Q369 570 363 570 L340 570 Q335 570 331 573.5 Q327 577 323 582 L263 674 Z M387 12 L385 52 Q365 35 323 13.5 Q281 -8 218 -8 Q149 -8 115 26 Q81 60 81 111 L81 480 Q81 487 83.5 490 Q86 493 92 493 L121 493 Q127 493 130 490 Q133 487 133 480 L133 122 Q133 85 156 62 Q179 39 231 39 Q290 39 329 61.5 Q368 84 385 98 L385 480 Q385 487 387.5 490 Q390 493 396 493 L425 493 Q431 493 433.5 490 Q436 487 436 480 L436 12 Q436 5 433.5 2.5 Q431 0 425 0 L399 0 Q393 0 390 2.5 Q387 5 387 12 Z " />
<glyph glyph-name="udieresis" unicode="&#xfc;" horiz-adv-x="520" d="M331 690 L331 592 Q331 586 328 583 Q325 580 319 580 L301 580 Q295 580 292 583 Q289 586 289 592 L289 690 Q289 696 292 699 Q295 702 301 702 L319 702 Q325 702 328 699 Q331 696 331 690 Z M233 690 L233 592 Q233 586 230 583 Q227 580 221 580 L203 580 Q197 580 194 583 Q191 586 191 592 L191 690 Q191 696 194 699 Q197 702 203 702 L221 702 Q227 702 230 699 Q233 696 233 690 Z M387 12 L385 52 Q365 35 323 13.5 Q281 -8 218 -8 Q149 -8 115 26 Q81 60 81 111 L81 480 Q81 487 83.5 490 Q86 493 92 493 L121 493 Q127 493 130 490 Q133 487 133 480 L133 122 Q133 85 156 62 Q179 39 231 39 Q290 39 329 61.5 Q368 84 385 98 L385 480 Q385 487 387.5 490 Q390 493 396 493 L425 493 Q431 493 433.5 490 Q436 487 436 480 L436 12 Q436 5 433.5 2.5 Q431 0 425 0 L399 0 Q393 0 390 2.5 Q387 5 387 12 Z " />
<glyph glyph-name="dagger" unicode="&#x2020;" horiz-adv-x="433" d="M243 687 L243 12 Q243 6 240 3 Q237 0 231 0 L202 0 Q196 0 193.5 3 Q191 6 191 12 L191 687 Q191 693 193.5 696 Q196 699 202 699 L231 699 Q237 699 240 696 Q243 693 243 687 Z M274 498 L385 498 Q391 498 394 495 Q397 492 397 486 L397 465 Q397 459 394 456 Q391 453 385 453 L274 453 Q268 453 265 456 Q262 459 262 465 L262 486 Q262 492 265 495 Q268 498 274 498 Z M48 498 L159 498 Q165 498 168 495 Q171 492 171 486 L171 465 Q171 459 168 456 Q165 453 159 453 L48 453 Q42 453 39 456 Q36 459 36 465 L36 486 Q36 492 39 495 Q42 498 48 498 Z " />
<glyph glyph-name="degree" unicode="&#xb0;" horiz-adv-x="395" d="M66 499 L66 596 Q66 636 94.5 661 Q123 686 198 686 Q273 686 301.5 661 Q330 636 330 596 L330 499 Q330 459 301.5 434 Q273 409 198 409 Q123 409 94.5 434 Q66 459 66 499 Z M284 501 L284 595 Q284 619 265 634.5 Q246 650 198 650 Q149 650 130 634.5 Q111 619 111 595 L111 501 Q111 476 130 461 Q149 446 198 446 Q246 446 265 461 Q284 476 284 501 Z " />
<glyph glyph-name="cent" unicode="&#xa2;" horiz-adv-x="489" d="M273 12 Q273 6 270.5 3 Q268 0 262 0 L233 0 Q226 0 223.5 3 Q221 6 221 12 L221 86 Q137 91 105.5 124.5 Q74 158 74 208 L74 470 Q74 521 105.5 554.5 Q137 588 221 593 L221 668 Q221 674 223.5 677 Q226 680 233 680 L262 680 Q268 680 270.5 677 Q273 674 273 668 L273 593 Q360 589 392 555 Q424 521 424 470 L424 451 Q424 444 421.5 441.5 Q419 439 413 439 L386 439 Q380 439 377 441.5 Q374 444 374 451 L374 467 Q374 504 348.5 527 Q323 550 250 550 Q177 550 151 527 Q125 504 125 467 L125 212 Q125 175 151 152 Q177 129 250 129 Q323 129 348.5 152 Q374 175 374 212 L374 236 Q374 243 377 245.5 Q380 248 386 248 L413 248 Q419 248 421.5 245.5 Q424 243 424 236 L424 208 Q424 157 391.5 123.5 Q359 90 273 86 L273 12 Z " />
<glyph glyph-name="sterling" unicode="&#xa3;" horiz-adv-x="593" d="M181 364 L347 364 Q353 364 356 361.5 Q359 359 359 353 L359 332 Q359 325 356 322.5 Q353 320 347 320 L181 320 L181 45 L396 45 Q434 45 460.5 68 Q487 91 487 164 L487 169 Q487 175 490 178 Q493 181 499 181 L526 181 Q532 181 534.5 178 Q537 175 537 169 L537 164 Q537 63 499 31.5 Q461 0 407 0 L69 0 Q62 0 59.5 2.5 Q57 5 57 12 L57 33 Q57 40 59.5 42.5 Q62 45 69 45 L128 45 L128 320 L69 320 Q62 320 59.5 322.5 Q57 325 57 332 L57 353 Q57 359 59.5 361.5 Q62 364 69 364 L128 364 L128 554 Q128 613 164.5 650.5 Q201 688 318 688 Q436 688 472.5 650.5 Q509 613 509 554 L509 527 Q509 521 506 518 Q503 515 497 515 L469 515 Q463 515 460 518 Q457 521 457 527 L457 547 Q457 593 431 617.5 Q405 642 318 642 Q232 642 206.5 617.5 Q181 593 181 547 L181 364 Z " />
<glyph glyph-name="section" unicode="&#xa7;" horiz-adv-x="500" d="M420 272 L420 164 Q420 158 417 155 Q414 152 408 152 L383 152 Q376 152 373.5 155 Q371 158 371 164 L371 268 Q371 302 346.5 317 Q322 332 309 336 L168 378 Q146 385 109 407 Q72 429 72 480 L72 564 Q72 618 111 653 Q150 688 250 688 Q351 688 389.5 654 Q428 620 428 566 L428 552 Q428 546 425.5 543 Q423 540 416 540 L391 540 Q385 540 382 543 Q379 546 379 552 L379 568 Q379 605 352 627.5 Q325 650 252 650 Q178 650 151 627.5 Q124 605 124 568 L124 482 Q124 449 153 435 Q182 421 196 417 L332 378 Q355 371 387.5 346 Q420 321 420 272 Z M80 203 L80 310 Q80 317 83 319.5 Q86 322 92 322 L118 322 Q124 322 126.5 319.5 Q129 317 129 310 L129 207 Q129 173 153.5 157.5 Q178 142 191 138 L332 97 Q354 90 391 68 Q428 46 428 -5 L428 -89 Q428 -143 389 -178 Q350 -213 250 -213 Q149 -213 110.5 -179 Q72 -145 72 -91 L72 -77 Q72 -71 75 -68 Q78 -65 84 -65 L109 -65 Q116 -65 118.5 -68 Q121 -71 121 -77 L121 -93 Q121 -130 148.5 -153 Q176 -176 249 -176 Q322 -176 349.5 -153 Q377 -130 377 -93 L377 -7 Q377 26 347.5 40 Q318 54 304 58 L168 97 Q145 104 112.5 129 Q80 154 80 203 Z " />
<glyph glyph-name="bullet" unicode="&#x2022;" horiz-adv-x="254" d="M153 322 L153 197 Q153 191 150.5 188.5 Q148 186 142 186 L112 186 Q106 186 103 188.5 Q100 191 100 197 L100 322 Q100 329 103 331.5 Q106 334 112 334 L142 334 Q148 334 150.5 331.5 Q153 329 153 322 Z " />
<glyph glyph-name="paragraph" unicode="&#xb6;" horiz-adv-x="571" d="M485 668 L485 -195 Q485 -202 482 -205 Q479 -208 473 -208 L443 -208 Q437 -208 434 -205 Q431 -202 431 -195 L431 668 Q431 674 434 677 Q437 680 443 680 L473 680 Q479 680 482 677 Q485 674 485 668 Z M342 669 L342 -195 Q342 -202 339.5 -205 Q337 -208 331 -208 L301 -208 Q294 -208 291.5 -205 Q289 -202 289 -195 L289 282 L238 282 Q125 282 85 319 Q45 356 45 413 L45 549 Q45 606 85 643 Q125 680 238 680 L331 680 Q337 680 339.5 677.5 Q342 675 342 669 Z " />
<glyph glyph-name="germandbls" unicode="&#xdf;" horiz-adv-x="598" d="M158 581 L158 12 Q158 6 155.5 3 Q153 0 146 0 L118 0 Q112 0 109 3 Q106 6 106 12 L106 448 L41 448 Q35 448 32 450.5 Q29 453 29 460 L29 476 Q29 483 32 485.5 Q35 488 41 488 L96 491 L106 491 L106 585 Q106 638 147.5 673 Q189 708 292 708 Q396 708 437 673.5 Q478 639 478 585 L478 547 Q478 505 449.5 486.5 Q421 468 400 462 L338 445 Q325 441 302 432 Q279 423 279 395 L279 389 Q279 358 303 344 Q327 330 340 326 L459 282 Q479 275 515.5 252.5 Q552 230 552 184 L552 114 Q552 61 519.5 26.5 Q487 -8 389 -8 Q291 -8 260.5 25.5 Q230 59 230 113 L230 125 Q230 132 232.5 134.5 Q235 137 242 137 L262 137 Q268 137 271 134.5 Q274 132 274 125 L274 111 Q274 75 296 52 Q318 29 389 29 Q459 29 481.5 52.5 Q504 76 504 111 L504 175 Q504 208 476 222 Q448 236 435 240 L318 283 Q296 291 265 313 Q234 335 234 384 L234 397 Q234 438 263.5 455.5 Q293 473 312 478 L369 493 Q385 497 407.5 510 Q430 523 430 554 L430 581 Q430 618 400 642 Q370 666 294 666 Q218 666 188 642 Q158 618 158 581 Z " />
<glyph glyph-name="registered" unicode="&#xae;" horiz-adv-x="573" d="M499 558 L499 381 Q499 340 462 295.5 Q425 251 287 251 Q150 251 112.5 295.5 Q75 340 75 381 L75 558 Q75 598 112.5 643 Q150 688 287 688 Q425 688 462 643 Q499 598 499 558 Z M461 377 L461 561 Q461 592 428.5 622.5 Q396 653 287 653 Q179 653 146 622.5 Q113 592 113 561 L113 378 Q113 347 146 316 Q179 285 287 285 Q396 285 428.5 315.5 Q461 346 461 377 Z M294 568 L233 568 L233 462 L294 462 Q326 462 340 475.5 Q354 489 354 505 L354 525 Q354 541 340 554.5 Q326 568 294 568 Z M233 342 Q233 338 231 335.5 Q229 333 225 333 L203 333 Q199 333 196.5 335.5 Q194 338 194 342 L194 589 Q194 593 196.5 595.5 Q199 598 203 598 L297 598 Q354 598 373.5 575 Q393 552 393 527 L393 503 Q393 484 382.5 465 Q372 446 342 438 L382 342 Q383 338 381 335.5 Q379 333 374 333 L352 333 Q348 333 345 335.5 Q342 338 341 342 L303 432 L233 432 L233 342 Z " />
<glyph glyph-name="copyright" unicode="&#xa9;" horiz-adv-x="680" d="M600 525 L600 156 Q600 90 552 41 Q504 -8 340 -8 Q175 -8 127 41 Q79 90 79 156 L79 525 Q79 590 127 639 Q175 688 340 688 Q504 688 552 639 Q600 590 600 525 Z M560 150 L560 531 Q560 582 514 617 Q468 652 340 652 Q211 652 165.5 617 Q120 582 120 530 L120 150 Q120 98 165.5 63 Q211 28 340 28 Q468 28 514 63 Q560 98 560 150 Z M340 551 Q425 551 451 517.5 Q477 484 477 430 L477 413 Q477 407 474.5 404 Q472 401 465 401 L442 401 Q435 401 432.5 404 Q430 407 430 413 L430 429 Q430 466 414 489.5 Q398 513 340 513 Q281 513 266 489.5 Q251 466 251 429 L251 250 Q251 213 266 190 Q281 167 340 167 Q398 167 414 190 Q430 213 430 250 L430 274 Q430 280 432.5 283 Q435 286 442 286 L465 286 Q472 286 474.5 283 Q477 280 477 274 L477 249 Q477 195 451 161.5 Q425 128 340 128 Q256 128 229.5 161.5 Q203 195 203 249 L203 430 Q203 484 229.5 517.5 Q256 551 340 551 Z " />
<glyph glyph-name="trademark" unicode="&#x2122;" horiz-adv-x="818" d="M48 680 L319 680 Q323 680 326 678 Q329 676 329 671 L329 651 Q329 646 326 644 Q323 642 319 642 L206 642 L206 282 Q206 277 204 274.5 Q202 272 197 272 L170 272 Q165 272 162.5 274.5 Q160 277 160 282 L160 642 L48 642 Q42 642 40 644 Q38 646 38 651 L38 671 Q38 676 40 678 Q42 680 48 680 Z M732 670 L732 282 Q732 277 730 274.5 Q728 272 723 272 L698 272 Q693 272 690.5 274.5 Q688 277 688 282 L688 592 Q687 589 684 579.5 Q681 570 679 565 L578 344 Q576 340 573 337 Q570 334 565 334 L545 334 Q540 334 537 337 Q534 340 532 344 L429 567 Q428 571 425 578 Q422 585 420 593 L420 282 Q420 277 417.5 274.5 Q415 272 411 272 L387 272 Q382 272 380 274.5 Q378 277 378 282 L378 670 Q378 675 380 677.5 Q382 680 387 680 L411 680 Q415 680 417 679 Q419 678 420 675 L544 410 Q546 405 549.5 397.5 Q553 390 555 383 Q556 386 560 395.5 Q564 405 565 409 L689 675 Q690 677 692 678.5 Q694 680 698 680 L723 680 Q728 680 730 677.5 Q732 675 732 670 Z " />
<glyph glyph-name="acute" unicode="&#xb4;" horiz-adv-x="336" d="M234 696 L153 577 Q152 575 148.5 572.5 Q145 570 139 570 L114 570 Q109 570 106.5 572.5 Q104 575 108 581 L180 698 Q183 702 186.5 705 Q190 708 196 708 L228 708 Q235 708 236.5 704.5 Q238 701 234 696 Z " />
<glyph glyph-name="dieresis" unicode="&#xa8;" horiz-adv-x="308" d="M224 690 L224 592 Q224 586 221 583 Q218 580 212 580 L194 580 Q188 580 185 583 Q182 586 182 592 L182 690 Q182 696 185 699 Q188 702 194 702 L212 702 Q218 702 221 699 Q224 696 224 690 Z M126 690 L126 592 Q126 586 123 583 Q120 580 114 580 L96 580 Q90 580 87 583 Q84 586 84 592 L84 690 Q84 696 87 699 Q90 702 96 702 L114 702 Q120 702 123 699 Q126 696 126 690 Z " />
<glyph glyph-name="notequal" unicode="&#x2260;" horiz-adv-x="584" d="M246 154 Q244 148 240 145 Q236 142 230 142 L203 142 Q198 142 196 145.5 Q194 149 196 154 L224 226 L93 226 Q87 226 84 229 Q81 232 81 238 L81 259 Q81 266 84 268.5 Q87 271 93 271 L242 271 L291 397 L93 397 Q87 397 84 400 Q81 403 81 409 L81 430 Q81 436 84 439 Q87 442 93 442 L309 442 L337 514 Q339 520 342.5 523 Q346 526 352 526 L379 526 Q385 526 387 523 Q389 520 387 514 L359 442 L490 442 Q497 442 499.5 439 Q502 436 502 430 L502 409 Q502 403 499.5 400 Q497 397 490 397 L341 397 L292 271 L490 271 Q497 271 499.5 268.5 Q502 266 502 259 L502 238 Q502 232 499.5 229 Q497 226 490 226 L274 226 L246 154 Z " />
<glyph glyph-name="AE" unicode="&#xc6;" horiz-adv-x="826" d="M371 530 L209 249 L403 249 L403 590 Q396 574 387 558.5 Q378 543 371 530 Z M417 680 L754 680 Q760 680 763 677.5 Q766 675 766 669 L766 647 Q766 641 763 638.5 Q760 636 754 636 L454 636 L454 380 L736 380 Q742 380 745 377 Q748 374 748 368 L748 348 Q748 342 745 339 Q742 336 736 336 L454 336 L454 45 L766 45 Q773 45 775.5 42 Q778 39 778 33 L778 12 Q778 6 775.5 3 Q773 0 766 0 L419 0 Q412 0 407.5 2.5 Q403 5 403 12 L403 206 L183 206 L71 12 Q69 8 66 4 Q63 0 57 0 L29 0 Q23 0 19.5 3 Q16 6 20 12 L400 668 Q402 672 406 676 Q410 680 417 680 Z " />
<glyph glyph-name="Oslash" unicode="&#xd8;" horiz-adv-x="587" d="M138 140 Q138 126 141 113 Q144 100 151 90 L404 620 Q386 630 358.5 636 Q331 642 293 642 Q206 642 172 613 Q138 584 138 539 L138 140 Z M293 37 Q380 37 414.5 66 Q449 95 449 140 L449 539 Q449 553 446 566 Q443 579 437 589 L182 59 Q201 49 228.5 43 Q256 37 293 37 Z M148 -12 Q144 -21 140 -25 Q136 -29 127 -29 L108 -29 Q101 -29 99.5 -24 Q98 -19 102 -12 L125 36 Q103 55 94 80 Q85 105 85 133 L85 546 Q85 605 129.5 646.5 Q174 688 293 688 Q336 688 369 682 Q402 676 426 666 L439 692 Q442 699 447 704 Q452 709 460 709 L479 709 Q486 709 487.5 703.5 Q489 698 486 692 L463 643 Q485 624 494 599 Q503 574 503 546 L503 133 Q503 74 458 33 Q413 -8 293 -8 Q250 -8 217 -2 Q184 4 161 14 L148 -12 Z " />
<glyph glyph-name="infinity" unicode="&#x221e;" horiz-adv-x="373" d="M54 335 L165 446 Q171 452 176 454.5 Q181 457 186 457 Q191 457 196.5 454.5 Q202 452 208 446 L319 335 Q325 329 327 323.5 Q329 318 329 314 Q329 308 327 303 Q325 298 319 292 L208 181 Q202 175 196.5 172.5 Q191 170 186 170 Q181 170 176 172.5 Q171 175 165 181 L54 292 Q48 298 45 303 Q42 308 42 314 Q42 318 45 323.5 Q48 329 54 335 Z M178 434 L66 322 Q64 320 63 318 Q62 316 62 313 Q62 311 63 309 Q64 307 66 305 L178 193 Q180 191 182 190 Q184 189 186 189 Q189 189 191 190 Q193 191 195 193 L307 305 Q308 306 309.5 308.5 Q311 311 311 313 Q311 316 310 318 Q309 320 307 322 L195 434 Q193 436 191 437 Q189 438 186 438 Q184 438 181.5 436.5 Q179 435 178 434 Z " />
<glyph glyph-name="plusminus" unicode="&#xb1;" horiz-adv-x="583" d="M268 227 L268 358 L96 358 Q89 358 86.5 360.5 Q84 363 84 370 L84 391 Q84 397 86.5 399.5 Q89 402 96 402 L268 402 L268 533 Q268 539 270.5 542 Q273 545 279 545 L300 545 Q306 545 309 542 Q312 539 312 533 L312 402 L487 402 Q493 402 495.5 399.5 Q498 397 498 391 L498 370 Q498 363 495.5 360.5 Q493 358 487 358 L312 358 L312 227 Q312 220 309 217 Q306 214 300 214 L279 214 Q273 214 270.5 217 Q268 220 268 227 Z M96 153 L487 153 Q493 153 495.5 150.5 Q498 148 498 141 L498 120 Q498 114 495.5 111 Q493 108 487 108 L96 108 Q89 108 86.5 111 Q84 114 84 120 L84 141 Q84 148 86.5 150.5 Q89 153 96 153 Z " />
<glyph glyph-name="lessequal" unicode="&#x2264;" horiz-adv-x="536" d="M442 519 L132 401 L442 284 Q447 282 450.5 279 Q454 276 454 270 L454 241 Q454 235 450.5 232.5 Q447 230 442 232 L91 372 Q86 374 82.5 376.5 Q79 379 79 386 L79 417 Q79 423 82.5 426 Q86 429 91 431 L442 571 Q447 573 450.5 570.5 Q454 568 454 562 L454 533 Q454 527 450.5 524 Q447 521 442 519 Z M92 167 L442 167 Q448 167 451 164.5 Q454 162 454 156 L454 135 Q454 129 451 126.5 Q448 124 442 124 L92 124 Q86 124 83 126.5 Q80 129 80 135 L80 156 Q80 162 83 164.5 Q86 167 92 167 Z " />
<glyph glyph-name="greaterequal" unicode="&#x2265;" horiz-adv-x="536" d="M405 401 L95 519 Q90 521 86.5 524 Q83 527 83 533 L83 562 Q83 569 86.5 571.5 Q90 574 95 572 L446 432 Q451 430 454 427 Q457 424 457 418 L457 385 Q457 379 454 376.5 Q451 374 446 372 L95 231 Q90 229 86.5 231.5 Q83 234 83 241 L83 271 Q83 277 86.5 279.5 Q90 282 95 284 L405 401 Z M95 168 L445 168 Q451 168 454 165 Q457 162 457 156 L457 134 Q457 128 454 125.5 Q451 123 445 123 L95 123 Q89 123 86 125.5 Q83 128 83 134 L83 156 Q83 162 86 165 Q89 168 95 168 Z " />
<glyph glyph-name="yen" unicode="&#xa5;" horiz-adv-x="546" d="M301 12 Q301 6 298.5 3 Q296 0 289 0 L259 0 Q253 0 250.5 3 Q248 6 248 12 L248 272 L90 272 Q84 272 81 275 Q78 278 78 284 L78 297 Q78 303 81 306 Q84 309 90 309 L231 309 L187 392 L90 392 Q84 392 81 394.5 Q78 397 78 403 L78 416 Q78 423 81 425.5 Q84 428 90 428 L168 428 L42 668 Q39 674 41.5 677 Q44 680 50 680 L83 680 Q90 680 92.5 677 Q95 674 98 668 L260 360 Q263 355 267 345 Q271 335 274 327 Q275 331 279.5 340.5 Q284 350 289 360 L453 668 Q456 673 459 676.5 Q462 680 468 680 L497 680 Q504 680 507 677.5 Q510 675 506 668 L379 428 L459 428 Q465 428 468 425.5 Q471 423 471 416 L471 403 Q471 397 468 394.5 Q465 392 459 392 L359 392 L315 309 L459 309 Q465 309 468 306 Q471 303 471 297 L471 284 Q471 278 468 275 Q465 272 459 272 L301 272 L301 12 Z " />
<glyph glyph-name="mu" unicode="&#xb5;" horiz-adv-x="517" d="M388 12 L386 52 Q365 35 323 13.5 Q281 -8 218 -8 Q186 -8 164.5 1 Q143 10 130 25 L133 -195 Q133 -202 130.5 -205 Q128 -208 121 -208 L92 -208 Q86 -208 83.5 -205 Q81 -202 81 -195 L81 480 Q81 487 83.5 490 Q86 493 92 493 L121 493 Q127 493 130 490 Q133 487 133 480 L133 122 Q133 85 156 62 Q179 39 231 39 Q291 39 330 61.5 Q369 84 385 98 L385 480 Q385 487 387.5 490 Q390 493 396 493 L425 493 Q431 493 434 490 Q437 487 437 480 L437 12 Q437 5 434 2.5 Q431 0 425 0 L400 0 Q393 0 390.5 2.5 Q388 5 388 12 Z " />
<glyph glyph-name="partialdiff" unicode="&#x2202;" horiz-adv-x="373" d="M87 197 L87 434 Q87 445 97.5 446.5 Q108 448 118 442 L297 331 Q306 325 306 315.5 Q306 306 297 301 L118 190 Q108 184 97.5 184.5 Q87 185 87 197 Z " />
<glyph glyph-name="summation" unicode="&#x2211;" horiz-adv-x="373" d="M285 434 L285 197 Q285 185 275 184.5 Q265 184 255 190 L76 301 Q67 306 67 315.5 Q67 325 76 331 L255 442 Q265 448 275 446.5 Q285 445 285 434 Z " />
<glyph glyph-name="product" unicode="&#x220f;" horiz-adv-x="373" d="M307 205 L69 205 Q58 205 57 215 Q56 225 62 235 L172 415 Q177 424 187 423.5 Q197 423 202 415 L313 235 Q319 225 318.5 215 Q318 205 307 205 Z " />
<glyph glyph-name="pi" unicode="&#x3c0;" horiz-adv-x="360" d="M62 427 L299 427 Q310 427 311.5 416.5 Q313 406 307 396 L196 217 Q191 208 181.5 208 Q172 208 166 217 L55 396 Q49 406 50 416.5 Q51 427 62 427 Z " />
<glyph glyph-name="integral" unicode="&#x222b;" horiz-adv-x="373" d="M31 313 Q31 377 76 423 Q121 469 185 469 Q250 469 296 423 Q342 377 342 313 Q342 248 296 203 Q250 158 185 158 Q121 158 76 203 Q31 248 31 313 Z " />
<glyph glyph-name="ordfeminine" unicode="&#xaa;" horiz-adv-x="367" d="M161 415 Q192 415 215 428 Q238 441 247 448 L247 524 L153 524 Q131 524 120 511.5 Q109 499 109 480 L109 458 Q109 439 121 427 Q133 415 161 415 Z M72 603 L72 613 Q72 647 96.5 667.5 Q121 688 181 688 Q241 688 265.5 667 Q290 646 290 612 L290 396 Q290 392 287.5 389.5 Q285 387 281 387 L259 387 Q253 387 252 389 Q251 391 250 396 L248 417 Q235 407 210 394.5 Q185 382 149 382 Q105 382 85.5 402.5 Q66 423 66 453 L66 483 Q66 513 86 533 Q106 553 145 553 L247 553 L247 611 Q247 630 233 643 Q219 656 180 656 Q141 656 127 643.5 Q113 631 113 612 L113 603 Q113 599 111 596.5 Q109 594 105 594 L81 594 Q76 594 74 596.5 Q72 599 72 603 Z " />
<glyph glyph-name="ordmasculine" unicode="&#xba;" horiz-adv-x="369" d="M70 459 L70 611 Q70 645 96.5 666.5 Q123 688 185 688 Q246 688 272.5 666.5 Q299 645 299 611 L299 459 Q299 424 272.5 403 Q246 382 185 382 Q123 382 96.5 403 Q70 424 70 459 Z M255 463 L255 608 Q255 629 239.5 641 Q224 653 185 653 Q146 653 130 641 Q114 629 114 608 L114 463 Q114 442 130 429 Q146 416 185 416 Q224 416 239.5 429 Q255 442 255 463 Z " />
<glyph glyph-name="Omega" unicode="&#x2126;" horiz-adv-x="373" d="M68 313 Q68 361 102.5 396 Q137 431 185 431 Q234 431 269 396 Q304 361 304 313 Q304 264 269 229.5 Q234 195 185 195 Q137 195 102.5 229.5 Q68 264 68 313 Z M85 313 Q85 271 114 242 Q143 213 185 213 Q227 213 256.5 242 Q286 271 286 313 Q286 354 256.5 384 Q227 414 185 414 Q143 414 114 384 Q85 354 85 313 Z " />
<glyph glyph-name="ae" unicode="&#xe6;" horiz-adv-x="789" d="M722 378 L722 255 Q722 250 719 247 Q716 244 710 244 L419 244 L419 114 Q419 77 445.5 55 Q472 33 545 33 Q619 33 645.5 56.5 Q672 80 672 117 L672 139 Q672 145 675 147.5 Q678 150 684 150 L709 150 Q715 150 717.5 147.5 Q720 145 720 139 L720 115 Q720 61 683 26.5 Q646 -8 545 -8 Q469 -8 430 11 Q391 30 378 64 Q356 45 309.5 18.5 Q263 -8 199 -8 Q127 -8 94.5 25.5 Q62 59 62 108 L62 159 Q62 208 94 241.5 Q126 275 186 275 L368 275 L368 383 Q368 417 341 439 Q314 461 244 461 Q171 461 145 438 Q119 415 119 378 L119 360 Q119 354 116.5 351 Q114 348 108 348 L82 348 Q76 348 73 351 Q70 354 70 360 L70 379 Q70 433 107.5 467 Q145 501 245 501 Q310 501 345 484.5 Q380 468 393 440 Q408 467 444 484 Q480 501 545 501 Q646 501 684 466.5 Q722 432 722 378 Z M419 376 L419 282 L672 282 L672 376 Q672 413 645.5 436.5 Q619 460 545 460 Q472 460 445.5 436.5 Q419 413 419 376 Z M210 34 Q269 34 310 61 Q351 88 368 103 L368 237 L194 237 Q153 237 133 214 Q113 191 113 157 L113 114 Q113 79 137 56.5 Q161 34 210 34 Z " />
<glyph glyph-name="oslash" unicode="&#xf8;" horiz-adv-x="508" d="M125 119 Q125 107 127.5 96 Q130 85 136 76 L341 442 Q326 449 304 453 Q282 457 254 457 Q181 457 153 434 Q125 411 125 374 L125 119 Z M254 36 Q327 36 355 59 Q383 82 383 119 L383 374 Q383 386 380.5 397 Q378 408 371 417 L167 50 Q182 43 203.5 39.5 Q225 36 254 36 Z M110 -30 L92 -30 Q85 -30 84.5 -24.5 Q84 -19 87 -13 L110 29 Q91 45 82 67 Q73 89 73 115 L73 377 Q73 431 113.5 466 Q154 501 254 501 Q288 501 315.5 496.5 Q343 492 364 484 L377 508 Q381 515 385 520 Q389 525 397 525 L416 525 Q424 525 425 520 Q426 515 422 508 L398 464 Q417 448 426 425.5 Q435 403 435 377 L435 115 Q435 61 394.5 26.5 Q354 -8 254 -8 Q220 -8 192.5 -3.5 Q165 1 144 9 L132 -13 Q128 -21 123.5 -25.5 Q119 -30 110 -30 Z " />
<glyph glyph-name="questiondown" unicode="&#xbf;" horiz-adv-x="495" d="M234 404 L234 481 Q234 488 236.5 490.5 Q239 493 245 493 L275 493 Q281 493 284 490.5 Q287 488 287 481 L287 404 Q287 398 284 395 Q281 392 275 392 L245 392 Q239 392 236.5 395 Q234 398 234 404 Z M287 324 L287 243 Q287 198 261.5 176 Q236 154 220 146 L156 114 Q143 107 122.5 88 Q102 69 102 32 L102 -47 Q102 -93 133.5 -121.5 Q165 -150 252 -150 Q339 -150 370 -121.5 Q401 -93 401 -47 L401 2 Q401 9 404 12 Q407 15 413 15 L441 15 Q448 15 450.5 12 Q453 9 453 2 L453 -54 Q453 -112 411.5 -153.5 Q370 -195 252 -195 Q133 -195 91 -153.5 Q49 -112 49 -54 L49 30 Q49 86 78.5 114.5 Q108 143 129 153 L182 179 Q198 186 216 204 Q234 222 234 254 L234 324 Q234 331 236.5 333.5 Q239 336 245 336 L275 336 Q281 336 284 333.5 Q287 331 287 324 Z " />
<glyph glyph-name="exclamdown" unicode="&#xa1;" horiz-adv-x="214" d="M80 404 L80 481 Q80 488 83 490.5 Q86 493 92 493 L122 493 Q128 493 130.5 490.5 Q133 488 133 481 L133 404 Q133 398 130.5 395 Q128 392 122 392 L92 392 Q86 392 83 395 Q80 398 80 404 Z M79 103 L84 324 Q84 330 87 333 Q90 336 96 336 L117 336 Q123 336 125.5 333 Q128 330 128 324 L134 103 L134 -175 Q134 -181 131.5 -184 Q129 -187 122 -187 L91 -187 Q84 -187 81.5 -184 Q79 -181 79 -175 L79 103 Z " />
<glyph glyph-name="logicalnot" unicode="&#xac;" horiz-adv-x="353" d="M68 313 Q68 358 99.5 390 Q131 422 176 422 Q221 422 253.5 390 Q286 358 286 313 Q286 267 253.5 235.5 Q221 204 176 204 Q131 204 99.5 235.5 Q68 267 68 313 Z " />
<glyph glyph-name="radical" unicode="&#x221a;" horiz-adv-x="373" d="M108 422 L265 422 Q281 422 288 415 Q295 408 295 392 L295 235 Q295 219 288 212 Q281 205 265 205 L108 205 Q92 205 85 212 Q78 219 78 235 L78 392 Q78 408 85 415 Q92 422 108 422 Z M265 405 L108 405 Q101 405 98 402 Q95 399 95 392 L95 235 Q95 229 98 225.5 Q101 222 108 222 L265 222 Q271 222 274.5 225.5 Q278 229 278 235 L278 392 Q278 399 274.5 402 Q271 405 265 405 Z " />
<glyph glyph-name="florin" unicode="&#x192;" horiz-adv-x="411" d="M391 663 L382 663 Q309 663 279 640 Q249 617 245 580 L224 411 L328 411 Q334 411 336.5 408.5 Q339 406 339 399 L339 379 Q339 373 336.5 370 Q334 367 328 367 L219 367 L165 -92 Q158 -146 115 -181 Q72 -216 -28 -216 L-33 -216 Q-39 -216 -42 -213 Q-45 -210 -45 -204 L-45 -184 Q-45 -177 -42 -174 Q-39 -171 -33 -171 L-24 -171 Q49 -171 79 -148 Q109 -125 113 -88 L168 367 L70 367 Q63 367 60.5 370 Q58 373 58 379 L58 399 Q58 406 60.5 408.5 Q63 411 70 411 L172 411 L193 585 Q200 639 242.5 673.5 Q285 708 386 708 L391 708 Q397 708 400 705.5 Q403 703 403 696 L403 675 Q403 669 400 666 Q397 663 391 663 Z " />
<glyph glyph-name="approxequal" unicode="&#x2248;" horiz-adv-x="472" d="M188 395 Q181 399 170.5 403 Q160 407 152 407 Q133 407 126.5 398 Q120 389 120 364 L120 344 Q120 338 116.5 335.5 Q113 333 107 333 L91 333 Q85 333 83 336.5 Q81 340 81 347 L81 368 Q81 415 101 433.5 Q121 452 148 452 Q160 452 173 447.5 Q186 443 197 437 L281 391 Q290 386 301 381.5 Q312 377 322 377 Q341 377 347 386.5 Q353 396 353 421 L353 440 Q353 446 356.5 448.5 Q360 451 365 451 L382 451 Q388 451 390 448 Q392 445 392 438 L392 416 Q392 367 372.5 349.5 Q353 332 327 332 Q317 332 301 336.5 Q285 341 272 348 L188 395 Z M188 244 Q181 248 170.5 252 Q160 256 152 256 Q133 256 126.5 247 Q120 238 120 213 L120 193 Q120 187 116.5 184.5 Q113 182 107 182 L91 182 Q85 182 83 185.5 Q81 189 81 196 L81 217 Q81 264 101 282.5 Q121 301 148 301 Q160 301 173 296.5 Q186 292 197 286 L281 240 Q290 235 301 230.5 Q312 226 322 226 Q341 226 347 235.5 Q353 245 353 270 L353 289 Q353 295 356.5 297.5 Q360 300 365 300 L382 300 Q388 300 390 297 Q392 294 392 287 L392 265 Q392 216 372.5 198.5 Q353 181 327 181 Q317 181 301 185.5 Q285 190 272 197 L188 244 Z " />
<glyph glyph-name="increment" unicode="&#x2206;" horiz-adv-x="373" d="M108 414 L265 414 Q276 414 281 408.5 Q286 403 286 392 L286 235 Q286 224 281 219 Q276 214 265 214 L108 214 Q97 214 91.5 219 Q86 224 86 235 L86 392 Q86 403 91.5 408.5 Q97 414 108 414 Z " />
<glyph glyph-name="guillemotleft" unicode="&#xab;" horiz-adv-x="529" d="M444 360 L290 245 L444 131 Q449 127 452.5 122.5 Q456 118 456 112 L456 81 Q456 74 452 73 Q448 72 444 75 L259 215 Q254 219 251 223 Q248 227 248 233 L248 257 Q248 264 251.5 267.5 Q255 271 259 275 L444 416 Q448 419 452 417.5 Q456 416 456 410 L456 377 Q456 371 452.5 367.5 Q449 364 444 360 Z M243 360 L89 245 L243 131 Q248 127 251.5 122.5 Q255 118 255 112 L255 81 Q255 74 251 73 Q247 72 243 75 L58 215 Q53 219 50 223 Q47 227 47 233 L47 257 Q47 264 50.5 267.5 Q54 271 58 275 L243 416 Q247 419 251 417.5 Q255 416 255 410 L255 377 Q255 371 251.5 367.5 Q248 364 243 360 Z " />
<glyph glyph-name="guillemotright" unicode="&#xbb;" horiz-adv-x="527" d="M284 138 L438 253 L284 367 Q279 371 275.5 375.5 Q272 380 272 386 L272 417 Q272 424 276 425 Q280 426 284 423 L469 283 Q474 279 477 275 Q480 271 480 265 L480 241 Q480 234 476.5 230.5 Q473 227 469 223 L284 82 Q280 79 276 80.5 Q272 82 272 88 L272 121 Q272 127 275.5 130.5 Q279 134 284 138 Z M84 138 L238 253 L84 367 Q79 371 75.5 375.5 Q72 380 72 386 L72 417 Q72 424 76 425 Q80 426 84 423 L269 283 Q274 279 277 275 Q280 271 280 265 L280 241 Q280 234 276.5 230.5 Q273 227 269 223 L84 82 Q80 79 76 80.5 Q72 82 72 88 L72 121 Q72 127 75.5 130.5 Q79 134 84 138 Z " />
<glyph glyph-name="ellipsis" unicode="&#x2026;" horiz-adv-x="695" d="M126 89 L126 12 Q126 5 123.5 2.5 Q121 0 115 0 L85 0 Q79 0 76 2.5 Q73 5 73 12 L73 89 Q73 95 76 98 Q79 101 85 101 L115 101 Q121 101 123.5 98 Q126 95 126 89 Z M621 89 L621 12 Q621 5 618.5 2.5 Q616 0 610 0 L580 0 Q574 0 571 2.5 Q568 5 568 12 L568 89 Q568 95 571 98 Q574 101 580 101 L610 101 Q616 101 618.5 98 Q621 95 621 89 Z M374 89 L374 12 Q374 5 371.5 2.5 Q369 0 363 0 L333 0 Q327 0 324 2.5 Q321 5 321 12 L321 89 Q321 95 324 98 Q327 101 333 101 L363 101 Q369 101 371.5 98 Q374 95 374 89 Z " />
<glyph glyph-name="Agrave" unicode="&#xc0;" horiz-adv-x="525" d="M371 249 L288 517 Q279 545 272 577.5 Q265 610 263 624 Q261 611 253.5 575 Q246 539 240 519 L155 249 L371 249 Z M249 680 L280 680 Q286 680 290 677 Q294 674 295 668 L498 12 Q500 6 497.5 3 Q495 0 489 0 L458 0 Q452 0 448.5 3 Q445 6 444 12 L383 206 L142 206 L83 12 Q82 6 78.5 3 Q75 0 69 0 L40 0 Q34 0 31.5 3 Q29 6 31 12 L234 668 Q235 674 239 677 Q243 680 249 680 Z M235 747 L154 866 Q151 870 151.5 874 Q152 878 159 878 L191 878 Q198 878 201 874.5 Q204 871 207 867 L279 751 Q283 745 281 742 Q279 739 274 739 L249 739 Q243 739 239.5 742 Q236 745 235 747 Z " />
<glyph glyph-name="Atilde" unicode="&#xc3;" horiz-adv-x="525" d="M371 249 L288 517 Q279 545 272 577.5 Q265 610 263 624 Q261 611 253.5 575 Q246 539 240 519 L155 249 L371 249 Z M249 680 L280 680 Q286 680 290 677 Q294 674 295 668 L498 12 Q500 6 497.5 3 Q495 0 489 0 L458 0 Q452 0 448.5 3 Q445 6 444 12 L383 206 L142 206 L83 12 Q82 6 78.5 3 Q75 0 69 0 L40 0 Q34 0 31.5 3 Q29 6 31 12 L234 668 Q235 674 239 677 Q243 680 249 680 Z M328 796 Q347 796 353 807 Q359 818 359 850 L359 859 Q359 865 362.5 867.5 Q366 870 372 870 L388 870 Q394 870 396.5 866.5 Q399 863 399 857 L399 838 Q399 792 378.5 773.5 Q358 755 330 755 Q320 755 305.5 760 Q291 765 278 775 L233 811 Q225 818 215 823 Q205 828 197 828 Q178 828 172 817 Q166 806 166 774 L166 765 Q166 759 162.5 756.5 Q159 754 153 754 L136 754 Q130 754 128 757.5 Q126 761 126 768 L126 787 Q126 833 146 851 Q166 869 194 869 Q207 869 220.5 864.5 Q234 860 246 850 L292 813 Q301 806 310.5 801 Q320 796 328 796 Z " />
<glyph glyph-name="Otilde" unicode="&#xd5;" horiz-adv-x="587" d="M85 133 L85 547 Q85 605 129.5 646.5 Q174 688 293 688 Q413 688 458 646.5 Q503 605 503 547 L503 133 Q503 75 458 33.5 Q413 -8 293 -8 Q174 -8 129.5 33.5 Q85 75 85 133 Z M449 141 L449 539 Q449 585 414.5 613.5 Q380 642 293 642 Q206 642 172 613.5 Q138 585 138 539 L138 141 Q138 95 172 66.5 Q206 38 293 38 Q380 38 414.5 66.5 Q449 95 449 141 Z M359 796 Q378 796 384 807 Q390 818 390 850 L390 859 Q390 865 393.5 867.5 Q397 870 403 870 L419 870 Q425 870 427.5 866.5 Q430 863 430 857 L430 838 Q430 792 409.5 773.5 Q389 755 361 755 Q351 755 336.5 760 Q322 765 309 775 L264 811 Q256 818 246 823 Q236 828 228 828 Q209 828 203 817 Q197 806 197 774 L197 765 Q197 759 193.5 756.5 Q190 754 184 754 L167 754 Q161 754 159 757.5 Q157 761 157 768 L157 787 Q157 833 177 851 Q197 869 225 869 Q238 869 251.5 864.5 Q265 860 277 850 L323 813 Q332 806 341.5 801 Q351 796 359 796 Z " />
<glyph glyph-name="OE" unicode="&#x152;" horiz-adv-x="876" d="M449 140 L449 540 Q449 586 414.5 614.5 Q380 643 293 643 Q206 643 172 614.5 Q138 586 138 540 L138 140 Q138 94 172 65.5 Q206 37 293 37 Q380 37 414.5 65.5 Q449 94 449 140 Z M449 12 L449 37 Q426 17 388 4.5 Q350 -8 293 -8 Q174 -8 129.5 33.5 Q85 75 85 133 L85 547 Q85 606 129.5 647 Q174 688 293 688 Q350 688 388 675.5 Q426 663 449 643 L449 668 Q449 674 452 677 Q455 680 461 680 L802 680 Q809 680 811.5 677.5 Q814 675 814 669 L814 647 Q814 641 811.5 638 Q809 635 802 635 L503 635 L503 380 L784 380 Q790 380 793 377.5 Q796 375 796 368 L796 348 Q796 342 793 339 Q790 336 784 336 L503 336 L503 45 L815 45 Q821 45 824 42.5 Q827 40 827 34 L827 12 Q827 6 824 3 Q821 0 815 0 L460 0 Q455 0 452 3 Q449 6 449 12 Z " />
<glyph glyph-name="oe" unicode="&#x153;" horiz-adv-x="805" d="M561 -8 Q498 -8 461 6 Q424 20 406 44 Q389 20 353 6 Q317 -8 254 -8 Q154 -8 113.5 26.5 Q73 61 73 115 L73 378 Q73 432 113.5 466.5 Q154 501 254 501 Q317 501 353 487 Q389 473 406 449 Q424 473 461 487 Q498 501 561 501 Q661 501 699 466.5 Q737 432 737 378 L737 255 Q737 250 734.5 247 Q732 244 726 244 L434 244 L434 117 Q434 80 461 56.5 Q488 33 561 33 Q634 33 661 56.5 Q688 80 688 117 L688 139 Q688 145 690.5 147.5 Q693 150 700 150 L724 150 Q730 150 733 147.5 Q736 145 736 139 L736 115 Q736 61 698.5 26.5 Q661 -8 561 -8 Z M434 376 L434 282 L688 282 L688 376 Q688 413 661 436.5 Q634 460 561 460 Q488 460 461 436.5 Q434 413 434 376 Z M383 119 L383 374 Q383 411 355 434.5 Q327 458 254 458 Q181 458 153 434.5 Q125 411 125 374 L125 119 Q125 82 153 58.5 Q181 35 254 35 Q327 35 355 58.5 Q383 82 383 119 Z " />
<glyph glyph-name="endash" unicode="&#x2013;" horiz-adv-x="520" d="M82 311 L438 311 Q445 311 447.5 308.5 Q450 306 450 300 L450 279 Q450 273 447.5 270 Q445 267 438 267 L82 267 Q76 267 73 270 Q70 273 70 279 L70 300 Q70 306 73 308.5 Q76 311 82 311 Z " />
<glyph glyph-name="emdash" unicode="&#x2014;" horiz-adv-x="829" d="M82 311 L747 311 Q753 311 756 308.5 Q759 306 759 300 L759 279 Q759 273 756 270 Q753 267 747 267 L82 267 Q76 267 73 270 Q70 273 70 279 L70 300 Q70 306 73 308.5 Q76 311 82 311 Z " />
<glyph glyph-name="quotedblleft" unicode="&#x201c;" horiz-adv-x="357" d="M258 606 L258 547 Q258 541 255 538 Q252 535 246 535 L216 535 Q210 535 207.5 538 Q205 541 205 547 L205 608 Q205 649 226 678 Q247 707 293 722 Q298 723 302 722 Q306 721 308 715 L315 694 Q317 688 315.5 684.5 Q314 681 308 679 Q279 666 268.5 648.5 Q258 631 258 606 Z M117 606 L117 547 Q117 541 114 538 Q111 535 105 535 L75 535 Q69 535 66.5 538 Q64 541 64 547 L64 608 Q64 649 85 678 Q106 707 152 722 Q157 723 161 722 Q165 721 167 715 L174 694 Q176 688 174.5 684.5 Q173 681 167 679 Q138 666 127.5 648.5 Q117 631 117 606 Z " />
<glyph glyph-name="quotedblright" unicode="&#x201d;" horiz-adv-x="359" d="M110 651 L110 710 Q110 716 113 719 Q116 722 122 722 L152 722 Q158 722 160.5 719 Q163 716 163 710 L163 649 Q163 608 142 579 Q121 550 75 535 Q70 534 66 535 Q62 536 60 542 L53 563 Q51 569 52.5 572.5 Q54 576 60 578 Q89 591 99.5 608.5 Q110 626 110 651 Z M251 651 L251 710 Q251 716 254 719 Q257 722 263 722 L293 722 Q299 722 301.5 719 Q304 716 304 710 L304 649 Q304 608 283 579 Q262 550 216 535 Q211 534 207 535 Q203 536 201 542 L194 563 Q192 569 193.5 572.5 Q195 576 201 578 Q230 591 240.5 608.5 Q251 626 251 651 Z " />
<glyph glyph-name="quoteleft" unicode="&#x2018;" horiz-adv-x="216" d="M117 606 L117 547 Q117 541 114 538 Q111 535 105 535 L75 535 Q69 535 66.5 538 Q64 541 64 547 L64 608 Q64 649 85 678 Q106 707 152 722 Q157 723 161 722 Q165 721 167 715 L174 694 Q176 688 174.5 684.5 Q173 681 167 679 Q138 666 127.5 648.5 Q117 631 117 606 Z " />
<glyph glyph-name="quoteright" unicode="&#x2019;" horiz-adv-x="218" d="M110 651 L110 710 Q110 716 113 719 Q116 722 122 722 L152 722 Q158 722 160.5 719 Q163 716 163 710 L163 649 Q163 608 142 579 Q121 550 75 535 Q70 534 66 535 Q62 536 60 542 L53 563 Q51 569 52.5 572.5 Q54 576 60 578 Q89 591 99.5 608.5 Q110 626 110 651 Z " />
<glyph glyph-name="divide" unicode="&#xf7;" horiz-adv-x="564" d="M308 530 L308 453 Q308 446 305.5 443.5 Q303 441 297 441 L267 441 Q261 441 258 443.5 Q255 446 255 453 L255 530 Q255 536 258 539 Q261 542 267 542 L297 542 Q303 542 305.5 539 Q308 536 308 530 Z M82 348 L481 348 Q485 348 489 346 Q493 344 493 337 L493 316 Q493 310 490.5 307 Q488 304 481 304 L83 304 Q77 304 74 306.5 Q71 309 71 316 L71 337 Q71 343 74 345.5 Q77 348 82 348 Z M308 202 L308 125 Q308 118 305.5 115.5 Q303 113 297 113 L267 113 Q261 113 258 115.5 Q255 118 255 125 L255 202 Q255 208 258 211 Q261 214 267 214 L297 214 Q303 214 305.5 211 Q308 208 308 202 Z " />
<glyph glyph-name="lozenge" unicode="&#x25ca;" horiz-adv-x="373" d="M60 329 L171 440 Q175 444 178.5 445.5 Q182 447 186 447 Q190 447 193.5 445.5 Q197 444 201 440 L312 329 Q316 325 318 321 Q320 317 320 314 Q320 310 318 306.5 Q316 303 312 299 L201 188 Q197 184 193.5 181.5 Q190 179 186 179 Q182 179 178.5 181.5 Q175 184 171 188 L60 299 Q56 303 54 306.5 Q52 310 52 314 Q52 317 54 321 Q56 325 60 329 Z " />
<glyph glyph-name="ydieresis" unicode="&#xff;" horiz-adv-x="439" d="M83 481 L206 120 Q211 105 215 89.5 Q219 74 220 68 Q223 80 226.5 93 Q230 106 234 118 L358 481 Q359 486 362.5 489.5 Q366 493 372 493 L400 493 Q406 493 408 489.5 Q410 486 409 481 L178 -196 Q177 -201 173.5 -204.5 Q170 -208 164 -208 L141 -208 Q135 -208 133 -204.5 Q131 -201 132 -196 L196 -2 L30 481 Q29 486 31 489.5 Q33 493 39 493 L69 493 Q75 493 78.5 489.5 Q82 486 83 481 Z M293 690 L293 592 Q293 586 290 583 Q287 580 281 580 L263 580 Q257 580 254 583 Q251 586 251 592 L251 690 Q251 696 254 699 Q257 702 263 702 L281 702 Q287 702 290 699 Q293 696 293 690 Z M195 690 L195 592 Q195 586 192 583 Q189 580 183 580 L165 580 Q159 580 156 583 Q153 586 153 592 L153 690 Q153 696 156 699 Q159 702 165 702 L183 702 Q189 702 192 699 Q195 696 195 690 Z " />
<glyph glyph-name="Ydieresis" unicode="&#x178;" horiz-adv-x="516" d="M84 668 L246 360 Q249 355 253 345 Q257 335 260 327 Q261 331 265.5 340.5 Q270 350 275 360 L439 668 Q442 673 445 676.5 Q448 680 454 680 L483 680 Q490 680 493 677.5 Q496 675 492 668 L287 282 L287 12 Q287 6 284.5 3 Q282 0 275 0 L245 0 Q239 0 236.5 3 Q234 6 234 12 L234 276 L28 668 Q25 674 27.5 677 Q30 680 36 680 L69 680 Q76 680 78.5 677 Q81 674 84 668 Z M327 857 L327 759 Q327 753 324.5 750 Q322 747 316 747 L298 747 Q292 747 289 750 Q286 753 286 759 L286 857 Q286 863 289 866 Q292 869 298 869 L316 869 Q322 869 324.5 866 Q327 863 327 857 Z M229 857 L229 759 Q229 753 226.5 750 Q224 747 218 747 L200 747 Q194 747 191 750 Q188 753 188 759 L188 857 Q188 863 191 866 Q194 869 200 869 L218 869 Q224 869 226.5 866 Q229 863 229 857 Z " />
<glyph glyph-name="fraction" unicode="&#x2044;" horiz-adv-x="83" d="M218 676 L-90 4 Q-93 -3 -97 -5.5 Q-101 -8 -107 -8 L-130 -8 Q-135 -8 -136 -4 Q-137 0 -136 4 L173 676 Q175 681 179.5 684.5 Q184 688 190 688 L212 688 Q217 688 218.5 684 Q220 680 218 676 Z " />
<glyph glyph-name="currency" unicode="&#xa4;" horiz-adv-x="634" d="M550 96 Q546 92 541.5 92 Q537 92 533 96 L436 193 Q417 181 387 174.5 Q357 168 317 168 Q277 168 247 174.5 Q217 181 197 193 L100 96 Q96 92 91.5 92 Q87 92 83 96 L72 107 Q68 111 68 115.5 Q68 120 72 124 L167 219 Q157 232 152 249.5 Q147 267 147 286 L147 394 Q147 413 152 430.5 Q157 448 167 462 L73 557 Q69 561 68.5 565.5 Q68 570 72 574 L84 585 Q88 589 92.5 589 Q97 589 101 585 L198 488 Q218 499 247.5 505.5 Q277 512 317 512 Q357 512 386.5 505.5 Q416 499 436 488 L533 585 Q537 589 541.5 589 Q546 589 550 585 L562 574 Q566 570 566 565.5 Q566 561 562 557 L467 462 Q477 448 482 430.5 Q487 413 487 394 L487 286 Q487 267 482 249.5 Q477 232 467 218 L561 124 Q565 120 565 115.5 Q565 111 561 107 L550 96 Z M440 289 L440 392 Q440 428 413.5 451 Q387 474 317 474 Q247 474 220.5 451 Q194 428 194 392 L194 289 Q194 252 220.5 229 Q247 206 317 206 Q387 206 413.5 229 Q440 252 440 289 Z " />
<glyph glyph-name="guilsinglleft" unicode="&#x2039;" horiz-adv-x="328" d="M243 360 L89 245 L243 131 Q248 127 251.5 122.5 Q255 118 255 112 L255 81 Q255 74 251 73 Q247 72 243 75 L58 215 Q53 219 50 223 Q47 227 47 233 L47 257 Q47 264 50.5 267.5 Q54 271 58 275 L243 416 Q247 419 251 417.5 Q255 416 255 410 L255 377 Q255 371 251.5 367.5 Q248 364 243 360 Z " />
<glyph glyph-name="guilsinglright" unicode="&#x203a;" horiz-adv-x="328" d="M239 245 L85 360 Q80 364 76.5 367.5 Q73 371 73 377 L73 410 Q73 416 77 417.5 Q81 419 85 416 L270 275 Q274 271 277.5 267.5 Q281 264 281 257 L281 233 Q281 227 278 223 Q275 219 270 215 L85 75 Q81 72 77 73 Q73 74 73 81 L73 112 Q73 118 76.5 122.5 Q80 127 85 131 L239 245 Z " />
<glyph glyph-name="fi" unicode="&#xfb01;" horiz-adv-x="531" d="M448 479 L448 12 Q448 6 445.5 3 Q443 0 437 0 L408 0 Q402 0 399 3 Q396 6 396 12 L396 448 L158 448 L158 12 Q158 6 155 3 Q152 0 146 0 L117 0 Q111 0 108.5 3 Q106 6 106 12 L106 448 L41 448 Q34 448 31.5 450.5 Q29 453 29 460 L29 476 Q29 483 31.5 485.5 Q34 488 41 488 L96 491 L106 491 L106 576 Q106 630 145 664.5 Q184 699 285 699 L413 699 Q419 699 422 696.5 Q425 694 425 687 L425 666 Q425 660 422 657 Q419 654 413 654 L285 654 Q212 654 185 631 Q158 608 158 571 L158 491 L436 491 Q443 491 445.5 488.5 Q448 486 448 479 Z " />
<glyph glyph-name="fl" unicode="&#xfb02;" horiz-adv-x="531" d="M448 687 L448 12 Q448 6 445.5 3 Q443 0 437 0 L408 0 Q402 0 399 3 Q396 6 396 12 L396 654 L285 654 Q212 654 185 631 Q158 608 158 571 L158 491 L274 491 Q280 491 283 488.5 Q286 486 286 480 L286 460 Q286 453 283 450.5 Q280 448 274 448 L158 448 L158 12 Q158 6 155 3 Q152 0 146 0 L117 0 Q111 0 108.5 3 Q106 6 106 12 L106 448 L41 448 Q34 448 31.5 450.5 Q29 453 29 460 L29 476 Q29 483 31.5 485.5 Q34 488 41 488 L96 491 L106 491 L106 576 Q106 630 145 664.5 Q184 699 285 699 L436 699 Q443 699 445.5 696.5 Q448 694 448 687 Z " />
<glyph glyph-name="daggerdbl" unicode="&#x2021;" horiz-adv-x="433" d="M243 687 L243 12 Q243 6 240 3 Q237 0 231 0 L202 0 Q196 0 193.5 3 Q191 6 191 12 L191 687 Q191 693 193.5 696 Q196 699 202 699 L231 699 Q237 699 240 696 Q243 693 243 687 Z M274 498 L385 498 Q391 498 394 495 Q397 492 397 486 L397 465 Q397 459 394 456 Q391 453 385 453 L274 453 Q268 453 265 456 Q262 459 262 465 L262 486 Q262 492 265 495 Q268 498 274 498 Z M48 498 L159 498 Q165 498 168 495 Q171 492 171 486 L171 465 Q171 459 168 456 Q165 453 159 453 L48 453 Q42 453 39 456 Q36 459 36 465 L36 486 Q36 492 39 495 Q42 498 48 498 Z M274 246 L385 246 Q391 246 394 243.5 Q397 241 397 235 L397 214 Q397 207 394 204 Q391 201 385 201 L274 201 Q268 201 265 204 Q262 207 262 214 L262 235 Q262 241 265 243.5 Q268 246 274 246 Z M48 246 L159 246 Q165 246 168 243.5 Q171 241 171 235 L171 214 Q171 207 168 204 Q165 201 159 201 L48 201 Q42 201 39 204 Q36 207 36 214 L36 235 Q36 241 39 243.5 Q42 246 48 246 Z " />
<glyph glyph-name="middot" unicode="&#xb7;" horiz-adv-x="210" d="M131 300 L131 223 Q131 216 128.5 213.5 Q126 211 120 211 L90 211 Q84 211 81 213.5 Q78 216 78 223 L78 300 Q78 306 81 309 Q84 312 90 312 L120 312 Q126 312 128.5 309 Q131 306 131 300 Z " />
<glyph glyph-name="quotesinglbase" unicode="&#x201a;" horiz-adv-x="158" d="M56 30 L56 89 Q56 95 59 98 Q62 101 68 101 L98 101 Q104 101 106.5 98 Q109 95 109 89 L109 28 Q109 -13 88 -42 Q67 -71 21 -86 Q16 -87 12 -86 Q8 -85 6 -79 L-1 -58 Q-3 -52 -1.5 -48.5 Q0 -45 6 -43 Q35 -30 45.5 -12.5 Q56 5 56 30 Z " />
<glyph glyph-name="quotedblbase" unicode="&#x201e;" horiz-adv-x="299" d="M56 30 L56 89 Q56 95 59 98 Q62 101 68 101 L98 101 Q104 101 106.5 98 Q109 95 109 89 L109 28 Q109 -13 88 -42 Q67 -71 21 -86 Q16 -87 12 -86 Q8 -85 6 -79 L-1 -58 Q-3 -52 -1.5 -48.5 Q0 -45 6 -43 Q35 -30 45.5 -12.5 Q56 5 56 30 Z M197 30 L197 89 Q197 95 200 98 Q203 101 209 101 L239 101 Q245 101 247.5 98 Q250 95 250 89 L250 28 Q250 -13 229 -42 Q208 -71 162 -86 Q157 -87 153 -86 Q149 -85 147 -79 L140 -58 Q138 -52 139.5 -48.5 Q141 -45 147 -43 Q176 -30 186.5 -12.5 Q197 5 197 30 Z " />
<glyph glyph-name="perthousand" unicode="&#x2030;" horiz-adv-x="1015" d="M534 676 L226 4 Q223 -3 219 -5.5 Q215 -8 209 -8 L186 -8 Q181 -8 180 -4 Q179 0 180 4 L489 676 Q491 681 495.5 684.5 Q500 688 506 688 L528 688 Q533 688 534.5 684 Q536 680 534 676 Z M58 411 L58 601 Q58 635 82 659.5 Q106 684 174 684 Q243 684 267 659.5 Q291 635 291 601 L291 411 Q291 378 267 353.5 Q243 329 174 329 Q106 329 82 353.5 Q58 378 58 411 Z M248 417 L248 595 Q248 620 232.5 634 Q217 648 174 648 Q131 648 115.5 634 Q100 620 100 595 L100 417 Q100 393 115.5 379 Q131 365 174 365 Q217 365 232.5 379 Q248 393 248 417 Z M726 79 L726 269 Q726 302 750 326.5 Q774 351 843 351 Q911 351 935 326.5 Q959 302 959 269 L959 79 Q959 45 935 20.5 Q911 -4 843 -4 Q774 -4 750 20.5 Q726 45 726 79 Z M428 79 L428 269 Q428 302 452.5 326.5 Q477 351 545 351 Q614 351 637.5 326.5 Q661 302 661 269 L661 79 Q661 45 637.5 20.5 Q614 -4 545 -4 Q477 -4 452.5 20.5 Q428 45 428 79 Z M916 85 L916 263 Q916 288 900.5 301.5 Q885 315 843 315 Q800 315 784.5 301.5 Q769 288 769 263 L769 85 Q769 60 784.5 46 Q800 32 843 32 Q885 32 900.5 46 Q916 60 916 85 Z M618 85 L618 263 Q618 288 602.5 301.5 Q587 315 545 315 Q502 315 486.5 301.5 Q471 288 471 263 L471 85 Q471 60 486.5 46 Q502 32 545 32 Q587 32 602.5 46 Q618 60 618 85 Z " />
<glyph glyph-name="Acircumflex" unicode="&#xc2;" horiz-adv-x="525" d="M371 249 L288 517 Q279 545 272 577.5 Q265 610 263 624 Q261 611 253.5 575 Q246 539 240 519 L155 249 L371 249 Z M249 680 L280 680 Q286 680 290 677 Q294 674 295 668 L498 12 Q500 6 497.5 3 Q495 0 489 0 L458 0 Q452 0 448.5 3 Q445 6 444 12 L383 206 L142 206 L83 12 Q82 6 78.5 3 Q75 0 69 0 L40 0 Q34 0 31.5 3 Q29 6 31 12 L234 668 Q235 674 239 677 Q243 680 249 680 Z M266 844 L206 752 Q203 747 199 743.5 Q195 740 189 740 L166 740 Q160 740 158 743.5 Q156 747 160 752 L238 866 Q242 871 246 874.5 Q250 878 256 878 L276 878 Q282 878 286.5 874.5 Q291 871 294 867 L373 752 Q377 747 375 743.5 Q373 740 367 740 L343 740 Q339 740 335 743.5 Q331 747 327 752 L266 844 Z " />
<glyph glyph-name="Ecircumflex" unicode="&#xca;" horiz-adv-x="523" d="M277 844 L217 752 Q214 747 210 743.5 Q206 740 200 740 L177 740 Q171 740 169 743.5 Q167 747 171 752 L249 866 Q253 871 257 874.5 Q261 878 267 878 L287 878 Q293 878 297.5 874.5 Q302 871 305 867 L384 752 Q388 747 386 743.5 Q384 740 378 740 L354 740 Q350 740 346 743.5 Q342 747 338 752 L277 844 Z M461 0 L107 0 Q102 0 99 3 Q96 6 96 12 L96 668 Q96 674 99 677 Q102 680 108 680 L449 680 Q455 680 458 677.5 Q461 675 461 668 L461 646 Q461 639 458 636.5 Q455 634 449 634 L149 634 L149 380 L431 380 Q437 380 440 377.5 Q443 375 443 368 L443 347 Q443 341 440 338 Q437 335 431 335 L149 335 L149 46 L461 46 Q467 46 470 43.5 Q473 41 473 34 L473 12 Q473 5 470 2.5 Q467 0 461 0 Z " />
<glyph glyph-name="Aacute" unicode="&#xc1;" horiz-adv-x="525" d="M371 249 L288 517 Q279 545 272 577.5 Q265 610 263 624 Q261 611 253.5 575 Q246 539 240 519 L155 249 L371 249 Z M249 680 L280 680 Q286 680 290 677 Q294 674 295 668 L498 12 Q500 6 497.5 3 Q495 0 489 0 L458 0 Q452 0 448.5 3 Q445 6 444 12 L383 206 L142 206 L83 12 Q82 6 78.5 3 Q75 0 69 0 L40 0 Q34 0 31.5 3 Q29 6 31 12 L234 668 Q235 674 239 677 Q243 680 249 680 Z M374 866 L293 747 Q292 745 288.5 742.5 Q285 740 279 740 L254 740 Q249 740 246.5 743 Q244 746 248 751 L321 868 Q324 872 327 875 Q330 878 336 878 L368 878 Q375 878 376.5 874.5 Q378 871 374 866 Z " />
<glyph glyph-name="Edieresis" unicode="&#xcb;" horiz-adv-x="523" d="M461 0 L107 0 Q102 0 99 3 Q96 6 96 12 L96 668 Q96 674 99 677 Q102 680 108 680 L449 680 Q455 680 458 677.5 Q461 675 461 668 L461 646 Q461 639 458 636.5 Q455 634 449 634 L149 634 L149 380 L431 380 Q437 380 440 377.5 Q443 375 443 368 L443 347 Q443 341 440 338 Q437 335 431 335 L149 335 L149 46 L461 46 Q467 46 470 43.5 Q473 41 473 34 L473 12 Q473 5 470 2.5 Q467 0 461 0 Z M350 857 L350 759 Q350 753 347.5 750 Q345 747 339 747 L321 747 Q315 747 312 750 Q309 753 309 759 L309 857 Q309 863 312 866 Q315 869 321 869 L339 869 Q345 869 347.5 866 Q350 863 350 857 Z M252 857 L252 759 Q252 753 249.5 750 Q247 747 241 747 L223 747 Q217 747 214 750 Q211 753 211 759 L211 857 Q211 863 214 866 Q217 869 223 869 L241 869 Q247 869 249.5 866 Q252 863 252 857 Z " />
<glyph glyph-name="Egrave" unicode="&#xc8;" horiz-adv-x="523" d="M262 747 L181 866 Q178 870 178.5 874 Q179 878 186 878 L218 878 Q225 878 228 874.5 Q231 871 234 867 L306 751 Q310 745 308 742 Q306 739 301 739 L276 739 Q270 739 266.5 742 Q263 745 262 747 Z M461 0 L107 0 Q102 0 99 3 Q96 6 96 12 L96 668 Q96 674 99 677 Q102 680 108 680 L449 680 Q455 680 458 677.5 Q461 675 461 668 L461 646 Q461 639 458 636.5 Q455 634 449 634 L149 634 L149 380 L431 380 Q437 380 440 377.5 Q443 375 443 368 L443 347 Q443 341 440 338 Q437 335 431 335 L149 335 L149 46 L461 46 Q467 46 470 43.5 Q473 41 473 34 L473 12 Q473 5 470 2.5 Q467 0 461 0 Z " />
<glyph glyph-name="Iacute" unicode="&#xcd;" horiz-adv-x="245" d="M149 668 L149 12 Q149 6 146.5 3 Q144 0 138 0 L108 0 Q102 0 99 3 Q96 6 96 12 L96 668 Q96 674 99 677 Q102 680 108 680 L138 680 Q144 680 146.5 677 Q149 674 149 668 Z M232 866 L151 747 Q150 745 146.5 742.5 Q143 740 137 740 L112 740 Q107 740 104.5 743 Q102 746 106 751 L179 868 Q182 872 185 875 Q188 878 194 878 L226 878 Q233 878 234.5 874.5 Q236 871 232 866 Z " />
<glyph glyph-name="Icircumflex" unicode="&#xce;" horiz-adv-x="245" d="M149 668 L149 12 Q149 6 146.5 3 Q144 0 138 0 L108 0 Q102 0 99 3 Q96 6 96 12 L96 668 Q96 674 99 677 Q102 680 108 680 L138 680 Q144 680 146.5 677 Q149 674 149 668 Z M126 844 L66 752 Q63 747 59 743.5 Q55 740 49 740 L26 740 Q20 740 18 743.5 Q16 747 20 752 L98 866 Q102 871 106 874.5 Q110 878 116 878 L136 878 Q142 878 146.5 874.5 Q151 871 154 867 L233 752 Q237 747 235 743.5 Q233 740 227 740 L203 740 Q199 740 195 743.5 Q191 747 187 752 L126 844 Z " />
<glyph glyph-name="Idieresis" unicode="&#xcf;" horiz-adv-x="245" d="M149 668 L149 12 Q149 6 146.5 3 Q144 0 138 0 L108 0 Q102 0 99 3 Q96 6 96 12 L96 668 Q96 674 99 677 Q102 680 108 680 L138 680 Q144 680 146.5 677 Q149 674 149 668 Z M192 857 L192 759 Q192 753 189.5 750 Q187 747 181 747 L163 747 Q157 747 154 750 Q151 753 151 759 L151 857 Q151 863 154 866 Q157 869 163 869 L181 869 Q187 869 189.5 866 Q192 863 192 857 Z M94 857 L94 759 Q94 753 91.5 750 Q89 747 83 747 L65 747 Q59 747 56 750 Q53 753 53 759 L53 857 Q53 863 56 866 Q59 869 65 869 L83 869 Q89 869 91.5 866 Q94 863 94 857 Z " />
<glyph glyph-name="Igrave" unicode="&#xcc;" horiz-adv-x="245" d="M149 668 L149 12 Q149 6 146.5 3 Q144 0 138 0 L108 0 Q102 0 99 3 Q96 6 96 12 L96 668 Q96 674 99 677 Q102 680 108 680 L138 680 Q144 680 146.5 677 Q149 674 149 668 Z M96 747 L15 866 Q12 870 12.5 874 Q13 878 20 878 L52 878 Q59 878 62 874.5 Q65 871 68 867 L140 751 Q144 745 142 742 Q140 739 135 739 L110 739 Q104 739 100.5 742 Q97 745 96 747 Z " />
<glyph glyph-name="Oacute" unicode="&#xd3;" horiz-adv-x="587" d="M395 866 L314 747 Q313 745 309.5 742.5 Q306 740 300 740 L275 740 Q270 740 267.5 743 Q265 746 269 751 L342 868 Q345 872 348 875 Q351 878 357 878 L389 878 Q396 878 397.5 874.5 Q399 871 395 866 Z M85 133 L85 547 Q85 605 129.5 646.5 Q174 688 293 688 Q413 688 458 646.5 Q503 605 503 547 L503 133 Q503 75 458 33.5 Q413 -8 293 -8 Q174 -8 129.5 33.5 Q85 75 85 133 Z M449 141 L449 539 Q449 585 414.5 613.5 Q380 642 293 642 Q206 642 172 613.5 Q138 585 138 539 L138 141 Q138 95 172 66.5 Q206 38 293 38 Q380 38 414.5 66.5 Q449 95 449 141 Z " />
<glyph glyph-name="Ocircumflex" unicode="&#xd4;" horiz-adv-x="587" d="M297 844 L237 752 Q234 747 230 743.5 Q226 740 220 740 L197 740 Q191 740 189 743.5 Q187 747 191 752 L269 866 Q273 871 277 874.5 Q281 878 287 878 L307 878 Q313 878 317.5 874.5 Q322 871 325 867 L404 752 Q408 747 406 743.5 Q404 740 398 740 L374 740 Q370 740 366 743.5 Q362 747 358 752 L297 844 Z M85 133 L85 547 Q85 605 129.5 646.5 Q174 688 293 688 Q413 688 458 646.5 Q503 605 503 547 L503 133 Q503 75 458 33.5 Q413 -8 293 -8 Q174 -8 129.5 33.5 Q85 75 85 133 Z M449 141 L449 539 Q449 585 414.5 613.5 Q380 642 293 642 Q206 642 172 613.5 Q138 585 138 539 L138 141 Q138 95 172 66.5 Q206 38 293 38 Q380 38 414.5 66.5 Q449 95 449 141 Z " />
<glyph glyph-name="apple" unicode="&#xf8ff;" horiz-adv-x="1486" d="M72 529 L72 537 L1410 537 L1410 529 L72 529 Z M1216 332 L1187 330 L1187 334 Q1187 339 1189 346.5 Q1191 354 1199 354 L1216 354 L1213 384 Q1215 385 1225.5 388.5 Q1236 392 1245 392 Q1249 392 1252.5 390 Q1256 388 1256 384 L1256 355 L1303 355 L1303 352 Q1303 346 1301 338.5 Q1299 331 1291 331 L1256 331 L1256 241 Q1256 235 1259 230.5 Q1262 226 1272 226 Q1290 226 1310.5 231.5 Q1331 237 1357 237 Q1367 237 1393 232 Q1419 227 1419 213 Q1419 197 1408 191 Q1397 185 1392 185 Q1385 185 1365.5 197 Q1346 209 1321 209 Q1308 209 1289 205 Q1270 201 1245 201 Q1220 201 1219 223.5 Q1218 246 1216 332 Z M1175 258 Q1163 254 1151 253 Q1139 252 1131 252 Q1132 242 1139.5 236 Q1147 230 1157 230 Q1166 230 1174 232.5 Q1182 235 1189 239 Q1193 236 1195 231.5 Q1197 227 1197 223 Q1197 219 1189 209.5 Q1181 200 1150 200 Q1122 200 1106 215 Q1090 230 1090 253 Q1090 278 1107.5 299.5 Q1125 321 1159 321 Q1180 321 1190 310.5 Q1200 300 1200 290 Q1200 278 1194 270 Q1188 262 1175 258 Z M852 258 Q840 254 828 253 Q816 252 808 252 Q809 242 816.5 236 Q824 230 834 230 Q843 230 851 232.5 Q859 235 866 239 Q870 236 872 231.5 Q874 227 874 223 Q874 219 866 209.5 Q858 200 827 200 Q799 200 783 215 Q767 230 767 253 Q767 278 784.5 299.5 Q802 321 836 321 Q857 321 867 310.5 Q877 300 877 290 Q877 278 871 270 Q865 262 852 258 Z M153 258 Q141 254 129 253 Q117 252 109 252 Q110 242 117.5 236 Q125 230 135 230 Q144 230 152 232.5 Q160 235 167 239 Q171 236 173 231.5 Q175 227 175 223 Q175 219 167 209.5 Q159 200 128 200 Q100 200 84 215 Q68 230 68 253 Q68 278 85.5 299.5 Q103 321 137 321 Q158 321 168 310.5 Q178 300 178 290 Q178 278 172 270 Q166 262 153 258 Z M1074 289 L1074 240 L1076 208 Q1074 207 1063.5 203.5 Q1053 200 1045 200 Q1041 200 1037.5 202 Q1034 204 1034 208 L1034 275 Q1034 278 1033 284 Q1032 290 1026 290 Q1019 290 1009.5 272.5 Q1000 255 1000 242 L1003 208 Q1001 207 990.5 203.5 Q980 200 971 200 Q967 200 963.5 202 Q960 204 960 208 L960 277 L957 313 Q959 314 969.5 317.5 Q980 321 989 321 Q993 321 996.5 318.5 Q1000 316 1000 312 L1000 272 Q1004 282 1015 301.5 Q1026 321 1045 321 Q1061 321 1067.5 311.5 Q1074 302 1074 289 Z M383 289 L383 240 L386 208 Q384 207 373.5 203.5 Q363 200 355 200 Q351 200 347.5 202 Q344 204 344 208 L344 274 Q344 278 343 284 Q342 290 336 290 Q329 290 319 272.5 Q309 255 310 242 L312 208 Q310 207 299.5 203.5 Q289 200 281 200 Q277 200 273.5 202 Q270 204 270 208 L270 274 Q270 278 269 284 Q268 290 262 290 Q255 290 245.5 272.5 Q236 255 236 242 L239 208 Q237 207 226.5 203.5 Q216 200 207 200 Q203 200 199.5 202 Q196 204 196 208 L196 277 L193 313 Q195 314 205.5 317.5 Q216 321 225 321 Q229 321 232.5 318.5 Q236 316 236 312 L236 272 Q239 282 250.5 301.5 Q262 321 281 321 Q297 321 303.5 311.5 Q310 302 310 289 L310 272 Q313 282 324 301.5 Q335 321 355 321 Q371 321 377 311.5 Q383 302 383 289 Z M807 264 Q820 264 832 269 Q844 274 844 285 Q844 288 842 293 Q840 298 831 298 Q821 298 814.5 287 Q808 276 807 264 Z M1130 264 Q1143 264 1155 269 Q1167 274 1167 285 Q1167 288 1165 293 Q1163 298 1154 298 Q1144 298 1137.5 287 Q1131 276 1130 264 Z M108 264 Q121 264 133 269 Q145 274 145 285 Q145 288 143 293 Q141 298 132 298 Q122 298 115.5 287 Q109 276 108 264 Z M667 219 Q683 221 697.5 231.5 Q712 242 712 270 Q712 277 709 283.5 Q706 290 699 290 Q685 290 676 269.5 Q667 249 667 242 L667 219 Z M917 250 Q927 250 935 243 Q943 236 943 226 Q943 216 935 209.5 Q927 203 917 203 Q907 203 899.5 209.5 Q892 216 892 226 Q892 236 899.5 243 Q907 250 917 250 Z M714 320 Q730 320 742 307 Q754 294 754 269 Q754 240 733.5 220.5 Q713 201 667 201 L667 161 L670 129 Q668 128 657.5 124.5 Q647 121 638 121 Q634 121 630.5 123 Q627 125 627 129 L627 204 L602 201 L602 198 Q602 170 588 144.5 Q574 119 534 119 Q511 119 502 130.5 Q493 142 493 153 Q493 178 517 189.5 Q541 201 563 206 L563 248 Q559 238 548 219 Q537 200 517 200 Q501 200 495 209 Q489 218 489 231 L489 234 Q483 224 470.5 212.5 Q458 201 436 201 Q423 201 415 209.5 Q407 218 407 231 L407 332 L378 330 L378 334 Q378 339 380 346.5 Q382 354 390 354 L407 354 L404 384 Q406 385 416.5 388.5 Q427 392 436 392 Q440 392 443.5 390 Q447 388 447 384 L447 355 L494 355 L494 352 Q494 346 492 338.5 Q490 331 482 331 L447 331 L447 245 Q447 239 449.5 234 Q452 229 460 229 Q468 229 478.5 236.5 Q489 244 489 255 L489 280 L486 313 Q488 314 498.5 317.5 Q509 321 518 321 Q522 321 525.5 318.5 Q529 316 529 312 L529 246 Q529 242 530 236.5 Q531 231 536 231 Q543 231 552.5 248.5 Q562 266 562 279 L560 313 Q562 314 572.5 317.5 Q583 321 591 321 Q595 321 598.5 318.5 Q602 316 602 312 L602 213 L627 216 L627 277 L624 313 Q626 314 636.5 317.5 Q647 321 656 321 Q660 321 663.5 318.5 Q667 316 667 312 L667 272 Q671 282 682 301 Q693 320 714 320 Z M562 194 Q552 192 536.5 184.5 Q521 177 521 162 Q521 155 525.5 151.5 Q530 148 535 148 Q551 148 556 163.5 Q561 179 562 194 Z M72 0 L72 8 L1410 8 L1410 0 L72 0 Z " />
<glyph glyph-name="Ograve" unicode="&#xd2;" horiz-adv-x="587" d="M267 747 L186 866 Q183 870 183.5 874 Q184 878 191 878 L223 878 Q230 878 233 874.5 Q236 871 239 867 L311 751 Q315 745 313 742 Q311 739 306 739 L281 739 Q275 739 271.5 742 Q268 745 267 747 Z M85 133 L85 547 Q85 605 129.5 646.5 Q174 688 293 688 Q413 688 458 646.5 Q503 605 503 547 L503 133 Q503 75 458 33.5 Q413 -8 293 -8 Q174 -8 129.5 33.5 Q85 75 85 133 Z M449 141 L449 539 Q449 585 414.5 613.5 Q380 642 293 642 Q206 642 172 613.5 Q138 585 138 539 L138 141 Q138 95 172 66.5 Q206 38 293 38 Q380 38 414.5 66.5 Q449 95 449 141 Z " />
<glyph glyph-name="Uacute" unicode="&#xda;" horiz-adv-x="603" d="M146 668 L146 141 Q146 95 180 66.5 Q214 38 301 38 Q388 38 423 66.5 Q458 95 458 141 L458 668 Q458 674 460.5 677 Q463 680 469 680 L499 680 Q506 680 508.5 677 Q511 674 511 668 L511 133 Q511 75 466 33.5 Q421 -8 301 -8 Q182 -8 137.5 33.5 Q93 75 93 133 L93 668 Q93 674 95.5 677 Q98 680 105 680 L134 680 Q141 680 143.5 677 Q146 674 146 668 Z M408 866 L327 747 Q326 745 322.5 742.5 Q319 740 313 740 L288 740 Q283 740 280.5 743 Q278 746 282 751 L355 868 Q358 872 361 875 Q364 878 370 878 L402 878 Q409 878 410.5 874.5 Q412 871 408 866 Z " />
<glyph glyph-name="Ucircumflex" unicode="&#xdb;" horiz-adv-x="603" d="M305 844 L245 752 Q242 747 238 743.5 Q234 740 228 740 L205 740 Q199 740 197 743.5 Q195 747 199 752 L277 866 Q281 871 285 874.5 Q289 878 295 878 L315 878 Q321 878 325.5 874.5 Q330 871 333 867 L412 752 Q416 747 414 743.5 Q412 740 406 740 L382 740 Q378 740 374 743.5 Q370 747 366 752 L305 844 Z M146 668 L146 141 Q146 95 180 66.5 Q214 38 301 38 Q388 38 423 66.5 Q458 95 458 141 L458 668 Q458 674 460.5 677 Q463 680 469 680 L499 680 Q506 680 508.5 677 Q511 674 511 668 L511 133 Q511 75 466 33.5 Q421 -8 301 -8 Q182 -8 137.5 33.5 Q93 75 93 133 L93 668 Q93 674 95.5 677 Q98 680 105 680 L134 680 Q141 680 143.5 677 Q146 674 146 668 Z " />
<glyph glyph-name="Ugrave" unicode="&#xd9;" horiz-adv-x="603" d="M279 747 L198 866 Q195 870 195.5 874 Q196 878 203 878 L235 878 Q242 878 245 874.5 Q248 871 251 867 L323 751 Q327 745 325 742 Q323 739 318 739 L293 739 Q287 739 283.5 742 Q280 745 279 747 Z M146 668 L146 141 Q146 95 180 66.5 Q214 38 301 38 Q388 38 423 66.5 Q458 95 458 141 L458 668 Q458 674 460.5 677 Q463 680 469 680 L499 680 Q506 680 508.5 677 Q511 674 511 668 L511 133 Q511 75 466 33.5 Q421 -8 301 -8 Q182 -8 137.5 33.5 Q93 75 93 133 L93 668 Q93 674 95.5 677 Q98 680 105 680 L134 680 Q141 680 143.5 677 Q146 674 146 668 Z " />
<glyph glyph-name="dotlessi" unicode="&#x131;" horiz-adv-x="219" d="M136 481 L136 12 Q136 6 133 3 Q130 0 124 0 L95 0 Q89 0 86.5 3 Q84 6 84 12 L84 481 Q84 487 86.5 490 Q89 493 95 493 L124 493 Q130 493 133 490 Q136 487 136 481 Z " />
<glyph glyph-name="circumflex" unicode="&#x2c6;" horiz-adv-x="345" d="M174 674 L113 582 Q110 577 106 573.5 Q102 570 97 570 L73 570 Q67 570 65 573.5 Q63 577 67 582 L145 696 Q149 701 153 704.5 Q157 708 163 708 L183 708 Q189 708 194 704.5 Q199 701 202 697 L280 582 Q284 577 282 573.5 Q280 570 274 570 L251 570 Q246 570 242 573.5 Q238 577 234 582 L174 674 Z " />
<glyph glyph-name="tilde" unicode="&#x2dc;" horiz-adv-x="426" d="M281 580 Q270 580 256 585 Q242 590 229 600 L183 636 Q175 643 165 648.5 Q155 654 147 654 Q128 654 122 642.5 Q116 631 116 599 L116 591 Q116 584 112.5 582 Q109 580 103 580 L87 580 Q80 580 78 583 Q76 586 76 593 L76 612 Q76 658 96 676.5 Q116 695 144 695 Q157 695 170.5 690 Q184 685 196 675 L242 638 Q250 631 260 626 Q270 621 278 621 Q297 621 303 632.5 Q309 644 309 675 L309 684 Q309 690 312.5 692.5 Q316 695 322 695 L338 695 Q344 695 346.5 691.5 Q349 688 349 682 L349 663 Q349 617 329 598.5 Q309 580 281 580 Z " />
<glyph glyph-name="overscore" unicode="&#xaf;" horiz-adv-x="419" d="M81 646 L338 646 Q344 646 347 643 Q350 640 350 634 L350 616 Q350 610 347 607 Q344 604 338 604 L81 604 Q75 604 72 607 Q69 610 69 616 L69 634 Q69 640 72 643 Q75 646 81 646 Z " />
<glyph glyph-name="breve" unicode="&#x2d8;" horiz-adv-x="394" d="M123 683 L123 665 Q123 634 136.5 613 Q150 592 197 592 Q243 592 256.5 613 Q270 634 270 665 L270 683 Q270 689 272 691.5 Q274 694 281 694 L299 694 Q305 694 307.5 691.5 Q310 689 310 683 L310 666 Q310 617 286 587 Q262 557 196 557 Q130 557 106.5 587 Q83 617 83 666 L83 683 Q83 689 85.5 691.5 Q88 694 94 694 L112 694 Q118 694 120.5 691.5 Q123 689 123 683 Z " />
<glyph glyph-name="dotaccent" unicode="&#x2d9;" horiz-adv-x="237" d="M145 675 L145 598 Q145 592 142.5 589 Q140 586 134 586 L104 586 Q98 586 95 589 Q92 592 92 598 L92 675 Q92 681 95 684 Q98 687 104 687 L134 687 Q140 687 142.5 684 Q145 681 145 675 Z " />
<glyph glyph-name="ring" unicode="&#x2da;" horiz-adv-x="377" d="M278 646 L278 627 Q278 596 257 576 Q236 556 188 556 Q140 556 119 576 Q98 596 98 627 L98 646 Q98 677 119 697 Q140 717 188 717 Q236 717 257 697 Q278 677 278 646 Z M246 632 L246 641 Q246 661 232.5 674 Q219 687 188 687 Q157 687 144 674 Q131 661 131 641 L131 632 Q131 612 144 599 Q157 586 188 586 Q219 586 232.5 599 Q246 612 246 632 Z " />
<glyph glyph-name="cedilla" unicode="&#xb8;" horiz-adv-x="164" d="M82 -54 L121 -54 Q150 -54 176.5 -71 Q203 -88 203 -132 Q203 -176 176.5 -193.5 Q150 -211 121 -211 L3 -211 Q-3 -211 -6 -208.5 Q-9 -206 -9 -199 L-9 -188 Q-9 -182 -6 -179 Q-3 -176 3 -176 L115 -176 Q130 -176 146.5 -168 Q163 -160 163 -132 Q163 -104 146.5 -96.5 Q130 -89 115 -89 L56 -89 Q45 -89 42 -84.5 Q39 -80 40 -74 L62 4 Q63 8 66.5 11.5 Q70 15 75 14 L90 12 Q95 11 96.5 6.5 Q98 2 97 -3 L82 -54 Z " />
<glyph glyph-name="hungarumlaut" unicode="&#x2dd;" horiz-adv-x="356" d="M181 696 L117 582 Q114 576 110.5 573 Q107 570 101 570 L79 570 Q72 570 71 574 Q70 578 72 582 L130 696 Q132 701 136.5 704.5 Q141 708 147 708 L173 708 Q180 708 182 704.5 Q184 701 181 696 Z M284 696 L204 580 Q201 576 197.5 573 Q194 570 188 570 L166 570 Q159 570 158 573.5 Q157 577 160 582 L233 696 Q236 701 240.5 704.5 Q245 708 252 708 L278 708 Q285 708 286.5 704.5 Q288 701 284 696 Z " />
<glyph glyph-name="ogonek" unicode="&#x2db;" horiz-adv-x="225" d="M163 -149 L132 -149 Q91 -149 65.5 -131 Q40 -113 40 -76 Q40 -52 56.5 -26.5 Q73 -1 110 20 Q114 22 120 24 Q126 26 133 24 L147 19 Q151 18 152.5 12.5 Q154 7 148 5 Q110 -11 96 -32 Q82 -53 82 -69 Q82 -92 99 -101.5 Q116 -111 144 -111 L163 -111 Q170 -111 172.5 -114 Q175 -117 175 -123 L175 -137 Q175 -144 172.5 -146.5 Q170 -149 163 -149 Z " />
<glyph glyph-name="caron" unicode="&#x2c7;" horiz-adv-x="345" d="M113 696 L174 604 L234 696 Q238 701 242 704.5 Q246 708 251 708 L274 708 Q280 708 282 704.5 Q284 701 280 696 L202 581 Q199 577 194 573.5 Q189 570 183 570 L163 570 Q157 570 153 573.5 Q149 577 145 582 L67 696 Q63 701 65 704.5 Q67 708 73 708 L97 708 Q102 708 106 704.5 Q110 701 113 696 Z " />
<glyph glyph-name="uni00A0" unicode="&#xa0;" horiz-adv-x="232" d="" />
<glyph glyph-name="Amacron" unicode="&#x100;" horiz-adv-x="525" d="M371 249 L288 517 Q279 545 272 577.5 Q265 610 263 624 Q261 611 253.5 575 Q246 539 240 519 L155 249 L371 249 Z M249 680 L280 680 Q286 680 290 677 Q294 674 295 668 L498 12 Q500 6 497.5 3 Q495 0 489 0 L458 0 Q452 0 448.5 3 Q445 6 444 12 L383 206 L142 206 L83 12 Q82 6 78.5 3 Q75 0 69 0 L40 0 Q34 0 31.5 3 Q29 6 31 12 L234 668 Q235 674 239 677 Q243 680 249 680 Z M134 820 L391 820 Q398 820 400.5 817.5 Q403 815 403 809 L403 791 Q403 785 400.5 782 Q398 779 391 779 L134 779 Q128 779 125 782 Q122 785 122 791 L122 809 Q122 815 125 817.5 Q128 820 134 820 Z " />
<glyph glyph-name="Abreve" unicode="&#x102;" horiz-adv-x="525" d="M371 249 L288 517 Q279 545 272 577.5 Q265 610 263 624 Q261 611 253.5 575 Q246 539 240 519 L155 249 L371 249 Z M249 680 L280 680 Q286 680 290 677 Q294 674 295 668 L498 12 Q500 6 497.5 3 Q495 0 489 0 L458 0 Q452 0 448.5 3 Q445 6 444 12 L383 206 L142 206 L83 12 Q82 6 78.5 3 Q75 0 69 0 L40 0 Q34 0 31.5 3 Q29 6 31 12 L234 668 Q235 674 239 677 Q243 680 249 680 Z M189 868 L189 851 Q189 820 202.5 798.5 Q216 777 262 777 Q309 777 322.5 798.5 Q336 820 336 851 L336 868 Q336 874 338 876.5 Q340 879 347 879 L365 879 Q371 879 373.5 876.5 Q376 874 376 868 L376 852 Q376 803 351.5 773 Q327 743 261 743 Q195 743 172 773 Q149 803 149 852 L149 868 Q149 874 151.5 876.5 Q154 879 160 879 L178 879 Q184 879 186.5 876.5 Q189 874 189 868 Z " />
<glyph glyph-name="Aogonek" unicode="&#x104;" horiz-adv-x="525" d="M248 680 L279 680 Q285 680 289 677 Q293 674 294 668 L497 12 Q499 6 496.5 3 Q494 0 488 0 L478 0 Q440 -7 425 -28 Q410 -49 410 -68 Q410 -88 423.5 -99.5 Q437 -111 468 -111 L491 -111 Q497 -111 500 -114 Q503 -117 503 -123 L503 -137 Q503 -144 498.5 -146.5 Q494 -149 488 -149 L457 -149 Q420 -149 394 -132 Q368 -115 368 -75 Q368 -56 383.5 -26.5 Q399 3 439 22 L382 206 L141 206 L82 12 Q81 6 77.5 3 Q74 0 68 0 L39 0 Q33 0 30.5 3 Q28 6 30 12 L233 668 Q234 674 238 677 Q242 680 248 680 Z M370 249 L287 517 Q280 538 271.5 574 Q263 610 262 623 Q258 598 251.5 567.5 Q245 537 239 519 L154 249 L370 249 Z " />
<glyph glyph-name="Aringacute" unicode="&#x1fa;" horiz-adv-x="525" d="M262 723 Q213 723 192 744 Q171 765 171 796 L171 811 Q171 840 189.5 860.5 Q208 881 251 884 L293 954 Q296 958 299.5 961 Q303 964 309 964 L341 964 Q348 964 349.5 960.5 Q351 957 347 952 L297 880 Q327 873 340.5 854.5 Q354 836 354 811 L354 796 Q354 765 332.5 744 Q311 723 262 723 Z M320 800 L320 807 Q320 826 306.5 840 Q293 854 262 854 Q231 854 218 840 Q205 826 205 807 L205 800 Q205 781 218 767 Q231 753 262 753 Q293 753 306.5 767 Q320 781 320 800 Z M370 249 L287 517 Q278 545 271 577.5 Q264 610 262 624 Q260 611 252.5 575 Q245 539 239 519 L154 249 L370 249 Z M248 680 L279 680 Q285 680 289 677 Q293 674 294 668 L497 12 Q499 6 496.5 3 Q494 0 488 0 L457 0 Q451 0 447.5 3 Q444 6 443 12 L382 206 L141 206 L82 12 Q81 6 77.5 3 Q74 0 68 0 L39 0 Q33 0 30.5 3 Q28 6 30 12 L233 668 Q234 674 238 677 Q242 680 248 680 Z " />
<glyph glyph-name="Cacute" unicode="&#x106;" horiz-adv-x="548" d="M493 198 L493 133 Q493 75 451 33.5 Q409 -8 289 -8 Q169 -8 127 33.5 Q85 75 85 133 L85 547 Q85 605 127 646.5 Q169 688 289 688 Q409 688 451 646.5 Q493 605 493 547 L493 495 Q493 488 490.5 485 Q488 482 482 482 L453 482 Q447 482 444 485 Q441 488 441 495 L441 539 Q441 585 408.5 613.5 Q376 642 289 642 Q202 642 170 613.5 Q138 585 138 539 L138 141 Q138 95 170 66.5 Q202 38 289 38 Q376 38 408.5 66.5 Q441 95 441 141 L441 198 Q441 204 444 206.5 Q447 209 453 209 L482 209 Q488 209 490.5 206.5 Q493 204 493 198 Z M384 866 L303 747 Q302 745 298.5 742.5 Q295 740 289 740 L264 740 Q259 740 256.5 743 Q254 746 258 751 L331 868 Q334 872 337 875 Q340 878 346 878 L378 878 Q385 878 386.5 874.5 Q388 871 384 866 Z " />
<glyph glyph-name="Ccircumflex" unicode="&#x108;" horiz-adv-x="548" d="M493 198 L493 133 Q493 75 451 33.5 Q409 -8 289 -8 Q169 -8 127 33.5 Q85 75 85 133 L85 547 Q85 605 127 646.5 Q169 688 289 688 Q409 688 451 646.5 Q493 605 493 547 L493 495 Q493 488 490.5 485 Q488 482 482 482 L453 482 Q447 482 444 485 Q441 488 441 495 L441 539 Q441 585 408.5 613.5 Q376 642 289 642 Q202 642 170 613.5 Q138 585 138 539 L138 141 Q138 95 170 66.5 Q202 38 289 38 Q376 38 408.5 66.5 Q441 95 441 141 L441 198 Q441 204 444 206.5 Q447 209 453 209 L482 209 Q488 209 490.5 206.5 Q493 204 493 198 Z M288 844 L228 752 Q225 747 221 743.5 Q217 740 211 740 L188 740 Q182 740 180 743.5 Q178 747 182 752 L260 866 Q264 871 268 874.5 Q272 878 278 878 L298 878 Q304 878 308.5 874.5 Q313 871 316 867 L395 752 Q399 747 397 743.5 Q395 740 389 740 L365 740 Q361 740 357 743.5 Q353 747 349 752 L288 844 Z " />
<glyph glyph-name="Cdotaccent" unicode="&#x10a;" horiz-adv-x="548" d="M310 838 L310 761 Q310 755 307.5 752 Q305 749 298 749 L269 749 Q263 749 260 752 Q257 755 257 761 L257 838 Q257 845 260 847.5 Q263 850 269 850 L298 850 Q305 850 307.5 847.5 Q310 845 310 838 Z M493 198 L493 133 Q493 75 451 33.5 Q409 -8 289 -8 Q169 -8 127 33.5 Q85 75 85 133 L85 547 Q85 605 127 646.5 Q169 688 289 688 Q409 688 451 646.5 Q493 605 493 547 L493 495 Q493 488 490.5 485 Q488 482 482 482 L453 482 Q447 482 444 485 Q441 488 441 495 L441 539 Q441 585 408.5 613.5 Q376 642 289 642 Q202 642 170 613.5 Q138 585 138 539 L138 141 Q138 95 170 66.5 Q202 38 289 38 Q376 38 408.5 66.5 Q441 95 441 141 L441 198 Q441 204 444 206.5 Q447 209 453 209 L482 209 Q488 209 490.5 206.5 Q493 204 493 198 Z " />
<glyph glyph-name="Ccaron" unicode="&#x10c;" horiz-adv-x="548" d="M493 198 L493 133 Q493 75 451 33.5 Q409 -8 289 -8 Q169 -8 127 33.5 Q85 75 85 133 L85 547 Q85 605 127 646.5 Q169 688 289 688 Q409 688 451 646.5 Q493 605 493 547 L493 495 Q493 488 490.5 485 Q488 482 482 482 L453 482 Q447 482 444 485 Q441 488 441 495 L441 539 Q441 585 408.5 613.5 Q376 642 289 642 Q202 642 170 613.5 Q138 585 138 539 L138 141 Q138 95 170 66.5 Q202 38 289 38 Q376 38 408.5 66.5 Q441 95 441 141 L441 198 Q441 204 444 206.5 Q447 209 453 209 L482 209 Q488 209 490.5 206.5 Q493 204 493 198 Z M227 866 L287 774 L348 866 Q352 871 356 874.5 Q360 878 364 878 L388 878 Q394 878 396 874.5 Q398 871 394 866 L315 751 Q312 747 307.5 743.5 Q303 740 297 740 L277 740 Q271 740 267 743.5 Q263 747 259 752 L181 866 Q177 871 179 874.5 Q181 878 187 878 L210 878 Q216 878 220 874.5 Q224 871 227 866 Z " />
<glyph glyph-name="Dcaron" unicode="&#x10e;" horiz-adv-x="598" d="M305 0 L107 0 Q101 0 98.5 3 Q96 6 96 12 L96 668 Q96 674 99 677 Q102 680 107 680 L305 680 Q424 680 469 638.5 Q514 597 514 539 L514 141 Q514 83 469 41.5 Q424 0 305 0 Z M305 634 L149 634 L149 46 L305 46 Q392 46 426.5 74.5 Q461 103 461 149 L461 531 Q461 577 426.5 605.5 Q392 634 305 634 Z M240 866 L300 774 L361 866 Q365 871 369 874.5 Q373 878 377 878 L401 878 Q407 878 409 874.5 Q411 871 407 866 L328 751 Q325 747 320.5 743.5 Q316 740 310 740 L290 740 Q284 740 280 743.5 Q276 747 272 752 L194 866 Q190 871 192 874.5 Q194 878 200 878 L223 878 Q229 878 233 874.5 Q237 871 240 866 Z " />
<glyph glyph-name="Emacron" unicode="&#x112;" horiz-adv-x="523" d="M461 0 L107 0 Q102 0 99 3 Q96 6 96 12 L96 668 Q96 674 99 677 Q102 680 108 680 L449 680 Q455 680 458 677.5 Q461 675 461 668 L461 646 Q461 639 458 636.5 Q455 634 449 634 L149 634 L149 380 L431 380 Q437 380 440 377.5 Q443 375 443 368 L443 347 Q443 341 440 338 Q437 335 431 335 L149 335 L149 46 L461 46 Q467 46 470 43.5 Q473 41 473 34 L473 12 Q473 5 470 2.5 Q467 0 461 0 Z M144 820 L401 820 Q408 820 410.5 817.5 Q413 815 413 809 L413 791 Q413 785 410.5 782 Q408 779 401 779 L144 779 Q138 779 135 782 Q132 785 132 791 L132 809 Q132 815 135 817.5 Q138 820 144 820 Z " />
<glyph glyph-name="Ebreve" unicode="&#x114;" horiz-adv-x="523" d="M461 0 L107 0 Q102 0 99 3 Q96 6 96 12 L96 668 Q96 674 99 677 Q102 680 108 680 L449 680 Q455 680 458 677.5 Q461 675 461 668 L461 646 Q461 639 458 636.5 Q455 634 449 634 L149 634 L149 380 L431 380 Q437 380 440 377.5 Q443 375 443 368 L443 347 Q443 341 440 338 Q437 335 431 335 L149 335 L149 46 L461 46 Q467 46 470 43.5 Q473 41 473 34 L473 12 Q473 5 470 2.5 Q467 0 461 0 Z M205 868 L205 851 Q205 820 218.5 798.5 Q232 777 278 777 Q325 777 338.5 798.5 Q352 820 352 851 L352 868 Q352 874 354 876.5 Q356 879 363 879 L381 879 Q387 879 389.5 876.5 Q392 874 392 868 L392 852 Q392 803 367.5 773 Q343 743 277 743 Q211 743 188 773 Q165 803 165 852 L165 868 Q165 874 167.5 876.5 Q170 879 176 879 L194 879 Q200 879 202.5 876.5 Q205 874 205 868 Z " />
<glyph glyph-name="Edotaccent" unicode="&#x116;" horiz-adv-x="523" d="M303 838 L303 761 Q303 755 300.5 752 Q298 749 291 749 L262 749 Q256 749 253 752 Q250 755 250 761 L250 838 Q250 845 253 847.5 Q256 850 262 850 L291 850 Q298 850 300.5 847.5 Q303 845 303 838 Z M461 0 L107 0 Q102 0 99 3 Q96 6 96 12 L96 668 Q96 674 99 677 Q102 680 108 680 L449 680 Q455 680 458 677.5 Q461 675 461 668 L461 646 Q461 639 458 636.5 Q455 634 449 634 L149 634 L149 380 L431 380 Q437 380 440 377.5 Q443 375 443 368 L443 347 Q443 341 440 338 Q437 335 431 335 L149 335 L149 46 L461 46 Q467 46 470 43.5 Q473 41 473 34 L473 12 Q473 5 470 2.5 Q467 0 461 0 Z " />
<glyph glyph-name="Eogonek" unicode="&#x118;" horiz-adv-x="523" d="M461 0 L435 0 Q397 0 379.5 -21 Q362 -42 362 -65 Q362 -85 375 -98 Q388 -111 419 -111 L447 -111 Q453 -111 456 -114 Q459 -117 459 -123 L459 -137 Q459 -144 455 -146.5 Q451 -149 445 -149 L408 -149 Q371 -149 345 -131 Q319 -113 319 -73 Q319 -54 329 -34 Q339 -14 356 0 L107 0 Q102 0 99 3 Q96 6 96 12 L96 668 Q96 674 99 677 Q102 680 108 680 L449 680 Q455 680 458 677.5 Q461 675 461 668 L461 646 Q461 639 458 636.5 Q455 634 449 634 L149 634 L149 380 L431 380 Q437 380 440 377.5 Q443 375 443 368 L443 347 Q443 341 440 338 Q437 335 431 335 L149 335 L149 46 L461 46 Q467 46 470 43.5 Q473 41 473 34 L473 12 Q473 5 470 2.5 Q467 0 461 0 Z " />
<glyph glyph-name="Ecaron" unicode="&#x11a;" horiz-adv-x="523" d="M461 0 L107 0 Q102 0 99 3 Q96 6 96 12 L96 668 Q96 674 99 677 Q102 680 108 680 L449 680 Q455 680 458 677.5 Q461 675 461 668 L461 646 Q461 639 458 636.5 Q455 634 449 634 L149 634 L149 380 L431 380 Q437 380 440 377.5 Q443 375 443 368 L443 347 Q443 341 440 338 Q437 335 431 335 L149 335 L149 46 L461 46 Q467 46 470 43.5 Q473 41 473 34 L473 12 Q473 5 470 2.5 Q467 0 461 0 Z M217 866 L277 774 L338 866 Q342 871 346 874.5 Q350 878 354 878 L378 878 Q384 878 386 874.5 Q388 871 384 866 L305 751 Q302 747 297.5 743.5 Q293 740 287 740 L267 740 Q261 740 257 743.5 Q253 747 249 752 L171 866 Q167 871 169 874.5 Q171 878 177 878 L200 878 Q206 878 210 874.5 Q214 871 217 866 Z " />
<glyph glyph-name="Gcircumflex" unicode="&#x11c;" horiz-adv-x="570" d="M285 844 L225 752 Q222 747 218 743.5 Q214 740 208 740 L185 740 Q179 740 177 743.5 Q175 747 179 752 L257 866 Q261 871 265 874.5 Q269 878 275 878 L295 878 Q301 878 305.5 874.5 Q310 871 313 867 L392 752 Q396 747 394 743.5 Q392 740 386 740 L362 740 Q358 740 354 743.5 Q350 747 346 752 L285 844 Z M298 319 L481 319 Q488 319 490.5 316 Q493 313 493 307 L493 133 Q493 75 451 33.5 Q409 -8 289 -8 Q169 -8 127 33.5 Q85 75 85 133 L85 547 Q85 605 127 646.5 Q169 688 289 688 Q409 688 451 646.5 Q493 605 493 547 L493 497 Q493 491 490.5 488 Q488 485 482 485 L453 485 Q447 485 444 488 Q441 491 441 497 L441 539 Q441 585 408.5 613.5 Q376 642 289 642 Q202 642 170 613.5 Q138 585 138 539 L138 141 Q138 95 170 66.5 Q202 38 289 38 Q376 38 408.5 66 Q441 94 441 139 L441 273 L298 273 Q292 273 289 275.5 Q286 278 286 285 L286 307 Q286 313 289 316 Q292 319 298 319 Z " />
<glyph glyph-name="Gbreve" unicode="&#x11e;" horiz-adv-x="570" d="M298 319 L481 319 Q488 319 490.5 316 Q493 313 493 307 L493 133 Q493 75 451 33.5 Q409 -8 289 -8 Q169 -8 127 33.5 Q85 75 85 133 L85 547 Q85 605 127 646.5 Q169 688 289 688 Q409 688 451 646.5 Q493 605 493 547 L493 497 Q493 491 490.5 488 Q488 485 482 485 L453 485 Q447 485 444 488 Q441 491 441 497 L441 539 Q441 585 408.5 613.5 Q376 642 289 642 Q202 642 170 613.5 Q138 585 138 539 L138 141 Q138 95 170 66.5 Q202 38 289 38 Q376 38 408.5 66 Q441 94 441 139 L441 273 L298 273 Q292 273 289 275.5 Q286 278 286 285 L286 307 Q286 313 289 316 Q292 319 298 319 Z M208 868 L208 851 Q208 820 221.5 798.5 Q235 777 281 777 Q328 777 341.5 798.5 Q355 820 355 851 L355 868 Q355 874 357 876.5 Q359 879 366 879 L384 879 Q390 879 392.5 876.5 Q395 874 395 868 L395 852 Q395 803 370.5 773 Q346 743 280 743 Q214 743 191 773 Q168 803 168 852 L168 868 Q168 874 170.5 876.5 Q173 879 179 879 L197 879 Q203 879 205.5 876.5 Q208 874 208 868 Z " />
<glyph glyph-name="Gdotaccent" unicode="&#x120;" horiz-adv-x="570" d="M308 835 L308 758 Q308 752 305.5 749 Q303 746 296 746 L267 746 Q261 746 258 749 Q255 752 255 758 L255 835 Q255 842 258 844.5 Q261 847 267 847 L296 847 Q303 847 305.5 844.5 Q308 842 308 835 Z M298 319 L481 319 Q488 319 490.5 316 Q493 313 493 307 L493 133 Q493 75 451 33.5 Q409 -8 289 -8 Q169 -8 127 33.5 Q85 75 85 133 L85 547 Q85 605 127 646.5 Q169 688 289 688 Q409 688 451 646.5 Q493 605 493 547 L493 497 Q493 491 490.5 488 Q488 485 482 485 L453 485 Q447 485 444 488 Q441 491 441 497 L441 539 Q441 585 408.5 613.5 Q376 642 289 642 Q202 642 170 613.5 Q138 585 138 539 L138 141 Q138 95 170 66.5 Q202 38 289 38 Q376 38 408.5 66 Q441 94 441 139 L441 273 L298 273 Q292 273 289 275.5 Q286 278 286 285 L286 307 Q286 313 289 316 Q292 319 298 319 Z " />
<glyph glyph-name="Gcommaaccent" unicode="&#x122;" horiz-adv-x="570" d="M269 -89 L269 -62 Q269 -56 272 -53 Q275 -50 281 -50 L303 -50 Q309 -50 312 -53 Q315 -56 315 -62 L315 -91 Q315 -124 304 -152 Q293 -180 278 -205 Q275 -210 271 -211 Q267 -212 262 -211 L245 -206 Q240 -205 238.5 -201 Q237 -197 240 -190 Q254 -160 261.5 -142 Q269 -124 269 -89 Z M298 319 L481 319 Q488 319 490.5 316 Q493 313 493 307 L493 133 Q493 75 451 33.5 Q409 -8 289 -8 Q169 -8 127 33.5 Q85 75 85 133 L85 547 Q85 605 127 646.5 Q169 688 289 688 Q409 688 451 646.5 Q493 605 493 547 L493 497 Q493 491 490.5 488 Q488 485 482 485 L453 485 Q447 485 444 488 Q441 491 441 497 L441 539 Q441 585 408.5 613.5 Q376 642 289 642 Q202 642 170 613.5 Q138 585 138 539 L138 141 Q138 95 170 66.5 Q202 38 289 38 Q376 38 408.5 66 Q441 94 441 139 L441 273 L298 273 Q292 273 289 275.5 Q286 278 286 285 L286 307 Q286 313 289 316 Q292 319 298 319 Z " />
<glyph glyph-name="Hcircumflex" unicode="&#x124;" horiz-adv-x="610" d="M149 668 L149 386 L461 386 L461 668 Q461 674 463.5 677 Q466 680 472 680 L503 680 Q509 680 511.5 677 Q514 674 514 668 L514 12 Q514 6 511.5 3 Q509 0 503 0 L472 0 Q466 0 463.5 3 Q461 6 461 12 L461 340 L149 340 L149 12 Q149 6 146.5 3 Q144 0 138 0 L108 0 Q102 0 99 3 Q96 6 96 12 L96 668 Q96 674 99 677 Q102 680 108 680 L138 680 Q144 680 146.5 677 Q149 674 149 668 Z M308 844 L248 752 Q245 747 241 743.5 Q237 740 231 740 L208 740 Q202 740 200 743.5 Q198 747 202 752 L280 866 Q284 871 288 874.5 Q292 878 298 878 L318 878 Q324 878 328.5 874.5 Q333 871 336 867 L415 752 Q419 747 417 743.5 Q415 740 409 740 L385 740 Q381 740 377 743.5 Q373 747 369 752 L308 844 Z " />
<glyph glyph-name="Itilde" unicode="&#x128;" horiz-adv-x="245" d="M149 668 L149 12 Q149 6 146.5 3 Q144 0 138 0 L108 0 Q102 0 99 3 Q96 6 96 12 L96 668 Q96 674 99 677 Q102 680 108 680 L138 680 Q144 680 146.5 677 Q149 674 149 668 Z M188 796 Q207 796 213 807 Q219 818 219 850 L219 859 Q219 865 222.5 867.5 Q226 870 232 870 L248 870 Q254 870 256.5 866.5 Q259 863 259 857 L259 838 Q259 792 238.5 773.5 Q218 755 190 755 Q180 755 165.5 760 Q151 765 138 775 L93 811 Q85 818 75 823 Q65 828 57 828 Q38 828 32 817 Q26 806 26 774 L26 765 Q26 759 22.5 756.5 Q19 754 13 754 L-4 754 Q-10 754 -12 757.5 Q-14 761 -14 768 L-14 787 Q-14 833 6 851 Q26 869 54 869 Q67 869 80.5 864.5 Q94 860 106 850 L152 813 Q161 806 170.5 801 Q180 796 188 796 Z " />
<glyph glyph-name="Imacron" unicode="&#x12a;" horiz-adv-x="245" d="M149 668 L149 12 Q149 6 146.5 3 Q144 0 138 0 L108 0 Q102 0 99 3 Q96 6 96 12 L96 668 Q96 674 99 677 Q102 680 108 680 L138 680 Q144 680 146.5 677 Q149 674 149 668 Z M-6 820 L251 820 Q258 820 260.5 817.5 Q263 815 263 809 L263 791 Q263 785 260.5 782 Q258 779 251 779 L-6 779 Q-12 779 -15 782 Q-18 785 -18 791 L-18 809 Q-18 815 -15 817.5 Q-12 820 -6 820 Z " />
<glyph glyph-name="Ibreve" unicode="&#x12c;" horiz-adv-x="245" d="M149 668 L149 12 Q149 6 146.5 3 Q144 0 138 0 L108 0 Q102 0 99 3 Q96 6 96 12 L96 668 Q96 674 99 677 Q102 680 108 680 L138 680 Q144 680 146.5 677 Q149 674 149 668 Z M49 868 L49 851 Q49 820 62.5 798.5 Q76 777 122 777 Q169 777 182.5 798.5 Q196 820 196 851 L196 868 Q196 874 198 876.5 Q200 879 207 879 L225 879 Q231 879 233.5 876.5 Q236 874 236 868 L236 852 Q236 803 211.5 773 Q187 743 121 743 Q55 743 32 773 Q9 803 9 852 L9 868 Q9 874 11.5 876.5 Q14 879 20 879 L38 879 Q44 879 46.5 876.5 Q49 874 49 868 Z " />
<glyph glyph-name="Iogonek" unicode="&#x12e;" horiz-adv-x="247" d="M150 668 L150 12 Q150 6 147.5 3 Q145 0 139 0 L129 0 Q95 -7 79.5 -28 Q64 -49 64 -68 Q64 -88 77.5 -99.5 Q91 -111 122 -111 L144 -111 Q150 -111 153 -114 Q156 -117 156 -123 L156 -137 Q156 -144 152 -146.5 Q148 -149 142 -149 L111 -149 Q74 -149 48 -132 Q22 -115 22 -75 Q22 -49 43 -20.5 Q64 8 98 23 L98 668 Q98 674 100.5 677 Q103 680 109 680 L139 680 Q145 680 147.5 677 Q150 674 150 668 Z " />
<glyph glyph-name="Idot" unicode="&#x130;" horiz-adv-x="245" d="M149 668 L149 12 Q149 6 146.5 3 Q144 0 138 0 L108 0 Q102 0 99 3 Q96 6 96 12 L96 668 Q96 674 99 677 Q102 680 108 680 L138 680 Q144 680 146.5 677 Q149 674 149 668 Z M149 838 L149 761 Q149 755 146.5 752 Q144 749 137 749 L108 749 Q102 749 99 752 Q96 755 96 761 L96 838 Q96 845 99 847.5 Q102 850 108 850 L137 850 Q144 850 146.5 847.5 Q149 845 149 838 Z " />
<glyph glyph-name="Jcircumflex" unicode="&#x134;" horiz-adv-x="492" d="M85 174 L85 141 Q85 95 111.5 66.5 Q138 38 216 38 Q294 38 320 66.5 Q346 95 346 141 L346 668 Q346 674 349 677 Q352 680 358 680 L388 680 Q394 680 397 677 Q400 674 400 668 L400 133 Q400 75 363 33.5 Q326 -8 216 -8 Q107 -8 69.5 33.5 Q32 75 32 133 L32 174 Q32 181 35 183.5 Q38 186 44 186 L73 186 Q80 186 82.5 183.5 Q85 181 85 174 Z M375 844 L315 752 Q312 747 308 743.5 Q304 740 298 740 L275 740 Q269 740 267 743.5 Q265 747 269 752 L347 866 Q351 871 355 874.5 Q359 878 365 878 L385 878 Q391 878 395.5 874.5 Q400 871 403 867 L482 752 Q486 747 484 743.5 Q482 740 476 740 L452 740 Q448 740 444 743.5 Q440 747 436 752 L375 844 Z " />
<glyph glyph-name="Kcommaaccent" unicode="&#x136;" horiz-adv-x="540" d="M251 -89 L251 -62 Q251 -56 254 -53 Q257 -50 263 -50 L285 -50 Q291 -50 294 -53 Q297 -56 297 -62 L297 -91 Q297 -124 286 -152 Q275 -180 260 -205 Q257 -210 253 -211 Q249 -212 244 -211 L227 -206 Q222 -205 220.5 -201 Q219 -197 222 -190 Q236 -160 243.5 -142 Q251 -124 251 -89 Z M229 345 L518 12 Q522 8 519.5 4 Q517 0 512 0 L471 0 Q464 0 460 4 Q456 8 452 12 L183 320 L149 320 L149 12 Q149 6 146.5 3 Q144 0 138 0 L108 0 Q102 0 99 3 Q96 6 96 12 L96 668 Q96 674 99 677 Q102 680 108 680 L138 680 Q144 680 146.5 677 Q149 674 149 668 L149 361 L183 361 L429 669 Q433 673 438 676.5 Q443 680 449 680 L483 680 Q489 680 491 676.5 Q493 673 489 668 L229 345 Z " />
<glyph glyph-name="Lacute" unicode="&#x139;" horiz-adv-x="478" d="M232 866 L151 747 Q150 745 146.5 742.5 Q143 740 137 740 L112 740 Q107 740 104.5 743 Q102 746 106 751 L179 868 Q182 872 185 875 Q188 878 194 878 L226 878 Q233 878 234.5 874.5 Q236 871 232 866 Z M149 668 L149 46 L445 46 Q451 46 454 43.5 Q457 41 457 34 L457 12 Q457 5 454 2.5 Q451 0 445 0 L106 0 Q102 0 99 3 Q96 6 96 12 L96 668 Q96 674 99 677 Q102 680 108 680 L138 680 Q144 680 146.5 677 Q149 674 149 668 Z " />
<glyph glyph-name="Lcommaaccent" unicode="&#x13b;" horiz-adv-x="478" d="M247 -89 L247 -62 Q247 -56 250 -53 Q253 -50 259 -50 L281 -50 Q287 -50 290 -53 Q293 -56 293 -62 L293 -91 Q293 -124 282 -152 Q271 -180 256 -205 Q253 -210 249 -211 Q245 -212 240 -211 L223 -206 Q218 -205 216.5 -201 Q215 -197 218 -190 Q232 -160 239.5 -142 Q247 -124 247 -89 Z M149 668 L149 46 L445 46 Q451 46 454 43.5 Q457 41 457 34 L457 12 Q457 5 454 2.5 Q451 0 445 0 L106 0 Q102 0 99 3 Q96 6 96 12 L96 668 Q96 674 99 677 Q102 680 108 680 L138 680 Q144 680 146.5 677 Q149 674 149 668 Z " />
<glyph glyph-name="Lcaron" unicode="&#x13d;" horiz-adv-x="480" d="M330 659 L330 686 Q330 692 333 695 Q336 698 342 698 L364 698 Q370 698 373 695 Q376 692 376 686 L376 657 Q376 624 365 596 Q354 568 339 543 Q336 538 332 537 Q328 536 323 537 L306 542 Q301 543 299.5 547 Q298 551 301 558 Q315 588 322.5 606 Q330 624 330 659 Z M149 668 L149 46 L445 46 Q451 46 454 43.5 Q457 41 457 34 L457 12 Q457 5 454 2.5 Q451 0 445 0 L106 0 Q102 0 99 3 Q96 6 96 12 L96 668 Q96 674 99 677 Q102 680 108 680 L138 680 Q144 680 146.5 677 Q149 674 149 668 Z " />
<glyph glyph-name="Nacute" unicode="&#x143;" horiz-adv-x="609" d="M415 866 L334 747 Q333 745 329.5 742.5 Q326 740 320 740 L295 740 Q290 740 287.5 743 Q285 746 289 751 L362 868 Q365 872 368 875 Q371 878 377 878 L409 878 Q416 878 417.5 874.5 Q419 871 415 866 Z M513 668 L513 12 Q513 6 510.5 3 Q508 0 502 0 L475 0 Q471 0 468 1.5 Q465 3 464 6 L178 515 Q171 527 162 545 Q153 563 146 576 L146 12 Q146 6 143.5 3 Q141 0 135 0 L108 0 Q102 0 99 3 Q96 6 96 12 L96 668 Q96 674 99 677 Q102 680 108 680 L135 680 Q139 680 141.5 678.5 Q144 677 145 675 L434 162 Q444 144 453 126.5 Q462 109 463 105 L463 668 Q463 674 466 677 Q469 680 475 680 L502 680 Q508 680 510.5 677 Q513 674 513 668 Z " />
<glyph glyph-name="Ncommaaccent" unicode="&#x145;" horiz-adv-x="609" d="M286 -89 L286 -62 Q286 -56 289 -53 Q292 -50 298 -50 L320 -50 Q326 -50 329 -53 Q332 -56 332 -62 L332 -91 Q332 -124 321 -152 Q310 -180 295 -205 Q292 -210 288 -211 Q284 -212 279 -211 L262 -206 Q257 -205 255.5 -201 Q254 -197 257 -190 Q271 -160 278.5 -142 Q286 -124 286 -89 Z M513 668 L513 12 Q513 6 510.5 3 Q508 0 502 0 L475 0 Q471 0 468 1.5 Q465 3 464 6 L178 515 Q171 527 162 545 Q153 563 146 576 L146 12 Q146 6 143.5 3 Q141 0 135 0 L108 0 Q102 0 99 3 Q96 6 96 12 L96 668 Q96 674 99 677 Q102 680 108 680 L135 680 Q139 680 141.5 678.5 Q144 677 145 675 L434 162 Q444 144 453 126.5 Q462 109 463 105 L463 668 Q463 674 466 677 Q469 680 475 680 L502 680 Q508 680 510.5 677 Q513 674 513 668 Z " />
<glyph glyph-name="Ncaron" unicode="&#x147;" horiz-adv-x="609" d="M513 668 L513 12 Q513 6 510.5 3 Q508 0 502 0 L475 0 Q471 0 468 1.5 Q465 3 464 6 L178 515 Q171 527 162 545 Q153 563 146 576 L146 12 Q146 6 143.5 3 Q141 0 135 0 L108 0 Q102 0 99 3 Q96 6 96 12 L96 668 Q96 674 99 677 Q102 680 108 680 L135 680 Q139 680 141.5 678.5 Q144 677 145 675 L434 162 Q444 144 453 126.5 Q462 109 463 105 L463 668 Q463 674 466 677 Q469 680 475 680 L502 680 Q508 680 510.5 677 Q513 674 513 668 Z M248 866 L308 774 L369 866 Q373 871 377 874.5 Q381 878 385 878 L409 878 Q415 878 417 874.5 Q419 871 415 866 L336 751 Q333 747 328.5 743.5 Q324 740 318 740 L298 740 Q292 740 288 743.5 Q284 747 280 752 L202 866 Q198 871 200 874.5 Q202 878 208 878 L231 878 Q237 878 241 874.5 Q245 871 248 866 Z " />
<glyph glyph-name="Omacron" unicode="&#x14c;" horiz-adv-x="587" d="M85 133 L85 547 Q85 605 129.5 646.5 Q174 688 293 688 Q413 688 458 646.5 Q503 605 503 547 L503 133 Q503 75 458 33.5 Q413 -8 293 -8 Q174 -8 129.5 33.5 Q85 75 85 133 Z M449 141 L449 539 Q449 585 414.5 613.5 Q380 642 293 642 Q206 642 172 613.5 Q138 585 138 539 L138 141 Q138 95 172 66.5 Q206 38 293 38 Q380 38 414.5 66.5 Q449 95 449 141 Z M165 820 L422 820 Q429 820 431.5 817.5 Q434 815 434 809 L434 791 Q434 785 431.5 782 Q429 779 422 779 L165 779 Q159 779 156 782 Q153 785 153 791 L153 809 Q153 815 156 817.5 Q159 820 165 820 Z " />
<glyph glyph-name="Obreve" unicode="&#x14e;" horiz-adv-x="587" d="M85 133 L85 547 Q85 605 129.5 646.5 Q174 688 293 688 Q413 688 458 646.5 Q503 605 503 547 L503 133 Q503 75 458 33.5 Q413 -8 293 -8 Q174 -8 129.5 33.5 Q85 75 85 133 Z M449 141 L449 539 Q449 585 414.5 613.5 Q380 642 293 642 Q206 642 172 613.5 Q138 585 138 539 L138 141 Q138 95 172 66.5 Q206 38 293 38 Q380 38 414.5 66.5 Q449 95 449 141 Z M220 868 L220 851 Q220 820 233.5 798.5 Q247 777 293 777 Q340 777 353.5 798.5 Q367 820 367 851 L367 868 Q367 874 369 876.5 Q371 879 378 879 L396 879 Q402 879 404.5 876.5 Q407 874 407 868 L407 852 Q407 803 382.5 773 Q358 743 292 743 Q226 743 203 773 Q180 803 180 852 L180 868 Q180 874 182.5 876.5 Q185 879 191 879 L209 879 Q215 879 217.5 876.5 Q220 874 220 868 Z " />
<glyph glyph-name="Ohungarumlaut" unicode="&#x150;" horiz-adv-x="587" d="M336 866 L271 752 Q268 746 265 743 Q262 740 255 740 L233 740 Q227 740 225.5 744 Q224 748 226 752 L285 866 Q287 870 291 874 Q295 878 301 878 L328 878 Q335 878 337 874 Q339 870 336 866 Z M438 866 L359 750 Q356 746 352 743 Q348 740 342 740 L320 740 Q314 740 312.5 743.5 Q311 747 314 752 L387 866 Q390 871 395 874.5 Q400 878 406 878 L432 878 Q439 878 440.5 874.5 Q442 871 438 866 Z M85 133 L85 547 Q85 605 129.5 646.5 Q174 688 293 688 Q413 688 458 646.5 Q503 605 503 547 L503 133 Q503 75 458 33.5 Q413 -8 293 -8 Q174 -8 129.5 33.5 Q85 75 85 133 Z M449 141 L449 539 Q449 585 414.5 613.5 Q380 642 293 642 Q206 642 172 613.5 Q138 585 138 539 L138 141 Q138 95 172 66.5 Q206 38 293 38 Q380 38 414.5 66.5 Q449 95 449 141 Z " />
<glyph glyph-name="Racute" unicode="&#x154;" horiz-adv-x="583" d="M302 634 L149 634 L149 327 L302 327 Q389 327 423.5 355.5 Q458 384 458 430 L458 531 Q458 577 423.5 605.5 Q389 634 302 634 Z M149 12 Q149 6 146.5 3 Q144 0 138 0 L108 0 Q102 0 99 3 Q96 6 96 12 L96 668 Q96 674 99 677 Q102 680 107 680 L302 680 Q422 680 466.5 638.5 Q511 597 511 539 L511 423 Q511 375 483.5 338.5 Q456 302 384 289 L520 12 Q522 7 519 3.5 Q516 0 509 0 L475 0 Q468 0 465 3.5 Q462 7 460 12 L330 283 Q323 282 316 282 Q309 282 302 282 L149 282 L149 12 Z M378 866 L297 747 Q296 745 292.5 742.5 Q289 740 283 740 L258 740 Q253 740 250.5 743 Q248 746 252 751 L325 868 Q328 872 331 875 Q334 878 340 878 L372 878 Q379 878 380.5 874.5 Q382 871 378 866 Z " />
<glyph glyph-name="Rcommaaccent" unicode="&#x156;" horiz-adv-x="583" d="M270 -88 L270 -61 Q270 -55 273 -52 Q276 -49 282 -49 L304 -49 Q310 -49 313 -52 Q316 -55 316 -61 L316 -90 Q316 -123 305 -151 Q294 -179 279 -204 Q276 -209 272 -210 Q268 -211 263 -210 L246 -205 Q241 -204 239.5 -200 Q238 -196 241 -189 Q255 -159 262.5 -141 Q270 -123 270 -88 Z M302 634 L149 634 L149 327 L302 327 Q389 327 423.5 355.5 Q458 384 458 430 L458 531 Q458 577 423.5 605.5 Q389 634 302 634 Z M149 12 Q149 6 146.5 3 Q144 0 138 0 L108 0 Q102 0 99 3 Q96 6 96 12 L96 668 Q96 674 99 677 Q102 680 107 680 L302 680 Q422 680 466.5 638.5 Q511 597 511 539 L511 423 Q511 375 483.5 338.5 Q456 302 384 289 L520 12 Q522 7 519 3.5 Q516 0 509 0 L475 0 Q468 0 465 3.5 Q462 7 460 12 L330 283 Q323 282 316 282 Q309 282 302 282 L149 282 L149 12 Z " />
<glyph glyph-name="Rcaron" unicode="&#x158;" horiz-adv-x="583" d="M302 634 L149 634 L149 327 L302 327 Q389 327 423.5 355.5 Q458 384 458 430 L458 531 Q458 577 423.5 605.5 Q389 634 302 634 Z M149 12 Q149 6 146.5 3 Q144 0 138 0 L108 0 Q102 0 99 3 Q96 6 96 12 L96 668 Q96 674 99 677 Q102 680 107 680 L302 680 Q422 680 466.5 638.5 Q511 597 511 539 L511 423 Q511 375 483.5 338.5 Q456 302 384 289 L520 12 Q522 7 519 3.5 Q516 0 509 0 L475 0 Q468 0 465 3.5 Q462 7 460 12 L330 283 Q323 282 316 282 Q309 282 302 282 L149 282 L149 12 Z M228 866 L288 774 L349 866 Q353 871 357 874.5 Q361 878 365 878 L389 878 Q395 878 397 874.5 Q399 871 395 866 L316 751 Q313 747 308.5 743.5 Q304 740 298 740 L278 740 Q272 740 268 743.5 Q264 747 260 752 L182 866 Q178 871 180 874.5 Q182 878 188 878 L211 878 Q217 878 221 874.5 Q225 871 228 866 Z " />
<glyph glyph-name="Sacute" unicode="&#x15a;" horiz-adv-x="550" d="M422 498 L422 541 Q422 586 391 614.5 Q360 643 274 643 Q187 643 155.5 614.5 Q124 586 124 541 L124 504 Q124 466 145.5 446.5 Q167 427 188 419 L380 346 Q417 332 448.5 302 Q480 272 480 221 L480 133 Q480 75 435.5 33.5 Q391 -8 272 -8 Q154 -8 109.5 33.5 Q65 75 65 133 L65 185 Q65 192 67.5 195 Q70 198 76 198 L105 198 Q112 198 114.5 195 Q117 192 117 185 L117 139 Q117 94 150.5 65.5 Q184 37 272 37 Q359 37 393 65.5 Q427 94 427 139 L427 210 Q427 250 400 271 Q373 292 344 303 L159 375 Q128 387 100 416.5 Q72 446 72 493 L72 547 Q72 605 114 646.5 Q156 688 273 688 Q390 688 432 646.5 Q474 605 474 547 L474 498 Q474 492 471.5 489 Q469 486 463 486 L434 486 Q427 486 424.5 489 Q422 492 422 498 Z M383 866 L302 747 Q301 745 297.5 742.5 Q294 740 288 740 L263 740 Q258 740 255.5 743 Q253 746 257 751 L330 868 Q333 872 336 875 Q339 878 345 878 L377 878 Q384 878 385.5 874.5 Q387 871 383 866 Z " />
<glyph glyph-name="Scircumflex" unicode="&#x15c;" horiz-adv-x="550" d="M422 498 L422 541 Q422 586 391 614.5 Q360 643 274 643 Q187 643 155.5 614.5 Q124 586 124 541 L124 504 Q124 466 145.5 446.5 Q167 427 188 419 L380 346 Q417 332 448.5 302 Q480 272 480 221 L480 133 Q480 75 435.5 33.5 Q391 -8 272 -8 Q154 -8 109.5 33.5 Q65 75 65 133 L65 185 Q65 192 67.5 195 Q70 198 76 198 L105 198 Q112 198 114.5 195 Q117 192 117 185 L117 139 Q117 94 150.5 65.5 Q184 37 272 37 Q359 37 393 65.5 Q427 94 427 139 L427 210 Q427 250 400 271 Q373 292 344 303 L159 375 Q128 387 100 416.5 Q72 446 72 493 L72 547 Q72 605 114 646.5 Q156 688 273 688 Q390 688 432 646.5 Q474 605 474 547 L474 498 Q474 492 471.5 489 Q469 486 463 486 L434 486 Q427 486 424.5 489 Q422 492 422 498 Z M274 844 L214 752 Q211 747 207 743.5 Q203 740 197 740 L174 740 Q168 740 166 743.5 Q164 747 168 752 L246 866 Q250 871 254 874.5 Q258 878 264 878 L284 878 Q290 878 294.5 874.5 Q299 871 302 867 L381 752 Q385 747 383 743.5 Q381 740 375 740 L351 740 Q347 740 343 743.5 Q339 747 335 752 L274 844 Z " />
<glyph glyph-name="Scedilla" unicode="&#x15e;" horiz-adv-x="550" d="M305 -211 L187 -211 Q181 -211 178 -208.5 Q175 -206 175 -199 L175 -188 Q175 -182 178 -179 Q181 -176 187 -176 L299 -176 Q314 -176 330.5 -168 Q347 -160 347 -132 Q347 -104 330.5 -96.5 Q314 -89 299 -89 L240 -89 Q229 -89 226 -84.5 Q223 -80 224 -74 L243 -7 Q142 -2 103.5 38.5 Q65 79 65 133 L65 185 Q65 192 67.5 195 Q70 198 76 198 L105 198 Q112 198 114.5 195 Q117 192 117 185 L117 139 Q117 94 150.5 65.5 Q184 37 272 37 Q359 37 393 65.5 Q427 94 427 139 L427 210 Q427 250 400 271 Q373 292 344 303 L159 375 Q128 387 100 416.5 Q72 446 72 493 L72 547 Q72 605 114 646.5 Q156 688 273 688 Q390 688 432 646.5 Q474 605 474 547 L474 498 Q474 492 471.5 489 Q469 486 463 486 L434 486 Q427 486 424.5 489 Q422 492 422 498 L422 541 Q422 586 391 614.5 Q360 643 274 643 Q187 643 155.5 614.5 Q124 586 124 541 L124 504 Q124 466 145.5 446.5 Q167 427 188 419 L380 346 Q417 332 448.5 302 Q480 272 480 221 L480 133 Q480 75 436.5 33.5 Q393 -8 280 -8 L266 -54 L305 -54 Q334 -54 360.5 -71 Q387 -88 387 -132 Q387 -176 360.5 -193.5 Q334 -211 305 -211 Z " />
<glyph glyph-name="Scommaaccent" unicode="&#x218;" horiz-adv-x="548" d="M257 -89 L257 -62 Q257 -56 260 -53 Q263 -50 269 -50 L291 -50 Q297 -50 300 -53 Q303 -56 303 -62 L303 -91 Q303 -124 292 -152 Q281 -180 266 -205 Q263 -210 259 -211 Q255 -212 250 -211 L233 -206 Q228 -205 226.5 -201 Q225 -197 228 -190 Q242 -160 249.5 -142 Q257 -124 257 -89 Z M422 498 L422 541 Q422 586 391 614.5 Q360 643 274 643 Q187 643 155.5 614.5 Q124 586 124 541 L124 504 Q124 466 145.5 446.5 Q167 427 188 419 L380 346 Q417 332 448.5 302 Q480 272 480 221 L480 133 Q480 75 435.5 33.5 Q391 -8 272 -8 Q154 -8 109.5 33.5 Q65 75 65 133 L65 185 Q65 192 67.5 195 Q70 198 76 198 L105 198 Q112 198 114.5 195 Q117 192 117 185 L117 139 Q117 94 150.5 65.5 Q184 37 272 37 Q359 37 393 65.5 Q427 94 427 139 L427 210 Q427 250 400 271 Q373 292 344 303 L159 375 Q128 387 100 416.5 Q72 446 72 493 L72 547 Q72 605 114 646.5 Q156 688 273 688 Q390 688 432 646.5 Q474 605 474 547 L474 498 Q474 492 471.5 489 Q469 486 463 486 L434 486 Q427 486 424.5 489 Q422 492 422 498 Z " />
<glyph glyph-name="Tcommaaccent" unicode="&#x162;" horiz-adv-x="488" d="M223 -89 L223 -62 Q223 -56 226 -53 Q229 -50 235 -50 L257 -50 Q263 -50 266 -53 Q269 -56 269 -62 L269 -91 Q269 -124 258 -152 Q247 -180 232 -205 Q229 -210 225 -211 Q221 -212 216 -211 L199 -206 Q194 -205 192.5 -201 Q191 -197 194 -190 Q208 -160 215.5 -142 Q223 -124 223 -89 Z M36 680 L452 680 Q458 680 461 677.5 Q464 675 464 668 L464 646 Q464 639 461 636.5 Q458 634 452 634 L270 634 L270 12 Q270 6 267.5 3 Q265 0 259 0 L229 0 Q223 0 220 3 Q217 6 217 12 L217 634 L36 634 Q29 634 26.5 636.5 Q24 639 24 646 L24 668 Q24 675 26.5 677.5 Q29 680 36 680 Z " />
<glyph glyph-name="Tcaron" unicode="&#x164;" horiz-adv-x="488" d="M36 680 L452 680 Q458 680 461 677.5 Q464 675 464 668 L464 646 Q464 639 461 636.5 Q458 634 452 634 L270 634 L270 12 Q270 6 267.5 3 Q265 0 259 0 L229 0 Q223 0 220 3 Q217 6 217 12 L217 634 L36 634 Q29 634 26.5 636.5 Q24 639 24 646 L24 668 Q24 675 26.5 677.5 Q29 680 36 680 Z M188 866 L248 774 L309 866 Q313 871 317 874.5 Q321 878 325 878 L349 878 Q355 878 357 874.5 Q359 871 355 866 L276 751 Q273 747 268.5 743.5 Q264 740 258 740 L238 740 Q232 740 228 743.5 Q224 747 220 752 L142 866 Q138 871 140 874.5 Q142 878 148 878 L171 878 Q177 878 181 874.5 Q185 871 188 866 Z " />
<glyph glyph-name="Utilde" unicode="&#x168;" horiz-adv-x="603" d="M146 668 L146 141 Q146 95 180 66.5 Q214 38 301 38 Q388 38 423 66.5 Q458 95 458 141 L458 668 Q458 674 460.5 677 Q463 680 469 680 L499 680 Q506 680 508.5 677 Q511 674 511 668 L511 133 Q511 75 466 33.5 Q421 -8 301 -8 Q182 -8 137.5 33.5 Q93 75 93 133 L93 668 Q93 674 95.5 677 Q98 680 105 680 L134 680 Q141 680 143.5 677 Q146 674 146 668 Z M367 796 Q386 796 392 807 Q398 818 398 850 L398 859 Q398 865 401.5 867.5 Q405 870 411 870 L427 870 Q433 870 435.5 866.5 Q438 863 438 857 L438 838 Q438 792 417.5 773.5 Q397 755 369 755 Q359 755 344.5 760 Q330 765 317 775 L272 811 Q264 818 254 823 Q244 828 236 828 Q217 828 211 817 Q205 806 205 774 L205 765 Q205 759 201.5 756.5 Q198 754 192 754 L175 754 Q169 754 167 757.5 Q165 761 165 768 L165 787 Q165 833 185 851 Q205 869 233 869 Q246 869 259.5 864.5 Q273 860 285 850 L331 813 Q340 806 349.5 801 Q359 796 367 796 Z " />
<glyph glyph-name="Umacron" unicode="&#x16a;" horiz-adv-x="603" d="M146 668 L146 141 Q146 95 180 66.5 Q214 38 301 38 Q388 38 423 66.5 Q458 95 458 141 L458 668 Q458 674 460.5 677 Q463 680 469 680 L499 680 Q506 680 508.5 677 Q511 674 511 668 L511 133 Q511 75 466 33.5 Q421 -8 301 -8 Q182 -8 137.5 33.5 Q93 75 93 133 L93 668 Q93 674 95.5 677 Q98 680 105 680 L134 680 Q141 680 143.5 677 Q146 674 146 668 Z M173 820 L430 820 Q437 820 439.5 817.5 Q442 815 442 809 L442 791 Q442 785 439.5 782 Q437 779 430 779 L173 779 Q167 779 164 782 Q161 785 161 791 L161 809 Q161 815 164 817.5 Q167 820 173 820 Z " />
<glyph glyph-name="Ubreve" unicode="&#x16c;" horiz-adv-x="603" d="M146 668 L146 141 Q146 95 180 66.5 Q214 38 301 38 Q388 38 423 66.5 Q458 95 458 141 L458 668 Q458 674 460.5 677 Q463 680 469 680 L499 680 Q506 680 508.5 677 Q511 674 511 668 L511 133 Q511 75 466 33.5 Q421 -8 301 -8 Q182 -8 137.5 33.5 Q93 75 93 133 L93 668 Q93 674 95.5 677 Q98 680 105 680 L134 680 Q141 680 143.5 677 Q146 674 146 668 Z M228 868 L228 851 Q228 820 241.5 798.5 Q255 777 301 777 Q348 777 361.5 798.5 Q375 820 375 851 L375 868 Q375 874 377 876.5 Q379 879 386 879 L404 879 Q410 879 412.5 876.5 Q415 874 415 868 L415 852 Q415 803 390.5 773 Q366 743 300 743 Q234 743 211 773 Q188 803 188 852 L188 868 Q188 874 190.5 876.5 Q193 879 199 879 L217 879 Q223 879 225.5 876.5 Q228 874 228 868 Z " />
<glyph glyph-name="Uring" unicode="&#x16e;" horiz-adv-x="603" d="M393 811 L393 796 Q393 765 371.5 744 Q350 723 301 723 Q252 723 231 744 Q210 765 210 796 L210 811 Q210 842 231 863 Q252 884 301 884 Q350 884 371.5 863 Q393 842 393 811 Z M359 800 L359 807 Q359 826 345.5 840 Q332 854 301 854 Q270 854 257 840 Q244 826 244 807 L244 800 Q244 781 257 767 Q270 753 301 753 Q332 753 345.5 767 Q359 781 359 800 Z M146 668 L146 141 Q146 95 180 66.5 Q214 38 301 38 Q388 38 423 66.5 Q458 95 458 141 L458 668 Q458 674 460.5 677 Q463 680 469 680 L499 680 Q506 680 508.5 677 Q511 674 511 668 L511 133 Q511 75 466 33.5 Q421 -8 301 -8 Q182 -8 137.5 33.5 Q93 75 93 133 L93 668 Q93 674 95.5 677 Q98 680 105 680 L134 680 Q141 680 143.5 677 Q146 674 146 668 Z " />
<glyph glyph-name="Uhungarumlaut" unicode="&#x170;" horiz-adv-x="603" d="M348 866 L283 752 Q280 746 277 743 Q274 740 267 740 L245 740 Q239 740 237.5 744 Q236 748 238 752 L297 866 Q299 870 303 874 Q307 878 313 878 L340 878 Q347 878 349 874 Q351 870 348 866 Z M450 866 L371 750 Q368 746 364 743 Q360 740 354 740 L332 740 Q326 740 324.5 743.5 Q323 747 326 752 L399 866 Q402 871 407 874.5 Q412 878 418 878 L444 878 Q451 878 452.5 874.5 Q454 871 450 866 Z M146 668 L146 141 Q146 95 180 66.5 Q214 38 301 38 Q388 38 423 66.5 Q458 95 458 141 L458 668 Q458 674 460.5 677 Q463 680 469 680 L499 680 Q506 680 508.5 677 Q511 674 511 668 L511 133 Q511 75 466 33.5 Q421 -8 301 -8 Q182 -8 137.5 33.5 Q93 75 93 133 L93 668 Q93 674 95.5 677 Q98 680 105 680 L134 680 Q141 680 143.5 677 Q146 674 146 668 Z " />
<glyph glyph-name="Uogonek" unicode="&#x172;" horiz-adv-x="603" d="M146 668 L146 141 Q146 95 180 66.5 Q214 38 301 38 Q388 38 423 66.5 Q458 95 458 141 L458 668 Q458 674 460.5 677 Q463 680 469 680 L499 680 Q506 680 508.5 677 Q511 674 511 668 L511 133 Q511 106 502.5 81.5 Q494 57 473 39 Q451 20 425 -1.5 Q399 -23 399 -62 Q399 -84 413 -97.5 Q427 -111 458 -111 L492 -111 Q498 -111 501 -114 Q504 -117 504 -123 L504 -137 Q504 -144 500 -146.5 Q496 -149 490 -149 L445 -149 Q408 -149 383 -130 Q358 -111 358 -71 Q358 -52 364.5 -34 Q371 -16 384 0 Q367 -4 346.5 -6 Q326 -8 301 -8 Q182 -8 137.5 33.5 Q93 75 93 133 L93 668 Q93 674 95.5 677 Q98 680 105 680 L134 680 Q141 680 143.5 677 Q146 674 146 668 Z " />
<glyph glyph-name="Wcircumflex" unicode="&#x174;" horiz-adv-x="807" d="M408 844 L348 752 Q345 747 341 743.5 Q337 740 331 740 L308 740 Q302 740 300 743.5 Q298 747 302 752 L380 866 Q384 871 388 874.5 Q392 878 398 878 L418 878 Q424 878 428.5 874.5 Q433 871 436 867 L515 752 Q519 747 517 743.5 Q515 740 509 740 L485 740 Q481 740 477 743.5 Q473 747 469 752 L408 844 Z M434 668 L562 162 Q566 143 571.5 119 Q577 95 578 88 Q579 95 584.5 119 Q590 143 594 162 L724 668 Q725 674 728 677 Q731 680 738 680 L764 680 Q770 680 772 677.5 Q774 675 773 668 L607 12 Q606 6 602 3 Q598 0 592 0 L562 0 Q556 0 552 3 Q548 6 547 12 L417 526 Q414 539 409.5 561 Q405 583 404 591 Q403 583 398 560.5 Q393 538 390 526 L260 12 Q259 6 255 3 Q251 0 244 0 L214 0 Q209 0 205 3 Q201 6 200 12 L34 668 Q33 675 35 677.5 Q37 680 43 680 L73 680 Q80 680 83 677 Q86 674 87 668 L216 162 Q220 148 225 122.5 Q230 97 231 91 Q232 98 238 122.5 Q244 147 248 162 L377 668 Q378 674 381.5 677 Q385 680 391 680 L420 680 Q426 680 429.5 677 Q433 674 434 668 Z " />
<glyph glyph-name="Wgrave" unicode="&#x1e80;" horiz-adv-x="808" d="M377 747 L296 866 Q293 870 293.5 874 Q294 878 301 878 L333 878 Q340 878 343 874.5 Q346 871 349 867 L421 751 Q425 745 423 742 Q421 739 416 739 L391 739 Q385 739 381.5 742 Q378 745 377 747 Z M434 668 L562 162 Q566 143 571.5 119 Q577 95 578 88 Q579 95 584.5 119 Q590 143 594 162 L724 668 Q725 674 728 677 Q731 680 738 680 L764 680 Q770 680 772 677.5 Q774 675 773 668 L607 12 Q606 6 602 3 Q598 0 592 0 L562 0 Q556 0 552 3 Q548 6 547 12 L417 526 Q414 539 409.5 561 Q405 583 404 591 Q403 583 398 560.5 Q393 538 390 526 L260 12 Q259 6 255 3 Q251 0 244 0 L214 0 Q209 0 205 3 Q201 6 200 12 L34 668 Q33 675 35 677.5 Q37 680 43 680 L73 680 Q80 680 83 677 Q86 674 87 668 L216 162 Q220 148 225 122.5 Q230 97 231 91 Q232 98 238 122.5 Q244 147 248 162 L377 668 Q378 674 381.5 677 Q385 680 391 680 L420 680 Q426 680 429.5 677 Q433 674 434 668 Z " />
<glyph glyph-name="Wacute" unicode="&#x1e82;" horiz-adv-x="808" d="M517 866 L436 747 Q435 745 431.5 742.5 Q428 740 422 740 L397 740 Q392 740 389.5 743 Q387 746 391 751 L464 868 Q467 872 470 875 Q473 878 479 878 L511 878 Q518 878 519.5 874.5 Q521 871 517 866 Z M434 668 L562 162 Q566 143 571.5 119 Q577 95 578 88 Q579 95 584.5 119 Q590 143 594 162 L724 668 Q725 674 728 677 Q731 680 738 680 L764 680 Q770 680 772 677.5 Q774 675 773 668 L607 12 Q606 6 602 3 Q598 0 592 0 L562 0 Q556 0 552 3 Q548 6 547 12 L417 526 Q414 539 409.5 561 Q405 583 404 591 Q403 583 398 560.5 Q393 538 390 526 L260 12 Q259 6 255 3 Q251 0 244 0 L214 0 Q209 0 205 3 Q201 6 200 12 L34 668 Q33 675 35 677.5 Q37 680 43 680 L73 680 Q80 680 83 677 Q86 674 87 668 L216 162 Q220 148 225 122.5 Q230 97 231 91 Q232 98 238 122.5 Q244 147 248 162 L377 668 Q378 674 381.5 677 Q385 680 391 680 L420 680 Q426 680 429.5 677 Q433 674 434 668 Z " />
<glyph glyph-name="Wdieresis" unicode="&#x1e84;" horiz-adv-x="808" d="M434 668 L562 162 Q566 143 571.5 119 Q577 95 578 88 Q579 95 584.5 119 Q590 143 594 162 L724 668 Q725 674 728 677 Q731 680 738 680 L764 680 Q770 680 772 677.5 Q774 675 773 668 L607 12 Q606 6 602 3 Q598 0 592 0 L562 0 Q556 0 552 3 Q548 6 547 12 L417 526 Q414 539 409.5 561 Q405 583 404 591 Q403 583 398 560.5 Q393 538 390 526 L260 12 Q259 6 255 3 Q251 0 244 0 L214 0 Q209 0 205 3 Q201 6 200 12 L34 668 Q33 675 35 677.5 Q37 680 43 680 L73 680 Q80 680 83 677 Q86 674 87 668 L216 162 Q220 148 225 122.5 Q230 97 231 91 Q232 98 238 122.5 Q244 147 248 162 L377 668 Q378 674 381.5 677 Q385 680 391 680 L420 680 Q426 680 429.5 677 Q433 674 434 668 Z M473 857 L473 759 Q473 753 470.5 750 Q468 747 462 747 L444 747 Q438 747 435 750 Q432 753 432 759 L432 857 Q432 863 435 866 Q438 869 444 869 L462 869 Q468 869 470.5 866 Q473 863 473 857 Z M375 857 L375 759 Q375 753 372.5 750 Q370 747 364 747 L346 747 Q340 747 337 750 Q334 753 334 759 L334 857 Q334 863 337 866 Q340 869 346 869 L364 869 Q370 869 372.5 866 Q375 863 375 857 Z " />
<glyph glyph-name="Ycircumflex" unicode="&#x176;" horiz-adv-x="516" d="M84 668 L246 360 Q249 355 253 345 Q257 335 260 327 Q261 331 265.5 340.5 Q270 350 275 360 L439 668 Q442 673 445 676.5 Q448 680 454 680 L483 680 Q490 680 493 677.5 Q496 675 492 668 L287 282 L287 12 Q287 6 284.5 3 Q282 0 275 0 L245 0 Q239 0 236.5 3 Q234 6 234 12 L234 276 L28 668 Q25 674 27.5 677 Q30 680 36 680 L69 680 Q76 680 78.5 677 Q81 674 84 668 Z M261 844 L201 752 Q198 747 194 743.5 Q190 740 184 740 L161 740 Q155 740 153 743.5 Q151 747 155 752 L233 866 Q237 871 241 874.5 Q245 878 251 878 L271 878 Q277 878 281.5 874.5 Q286 871 289 867 L368 752 Q372 747 370 743.5 Q368 740 362 740 L338 740 Q334 740 330 743.5 Q326 747 322 752 L261 844 Z " />
<glyph glyph-name="Ygrave" unicode="&#x1ef2;" horiz-adv-x="516" d="M84 668 L246 360 Q249 355 253 345 Q257 335 260 327 Q261 331 265.5 340.5 Q270 350 275 360 L439 668 Q442 673 445 676.5 Q448 680 454 680 L483 680 Q490 680 493 677.5 Q496 675 492 668 L287 282 L287 12 Q287 6 284.5 3 Q282 0 275 0 L245 0 Q239 0 236.5 3 Q234 6 234 12 L234 276 L28 668 Q25 674 27.5 677 Q30 680 36 680 L69 680 Q76 680 78.5 677 Q81 674 84 668 Z M228 747 L147 866 Q144 870 144.5 874 Q145 878 152 878 L184 878 Q191 878 194 874.5 Q197 871 200 867 L272 751 Q276 745 274 742 Q272 739 267 739 L242 739 Q236 739 232.5 742 Q229 745 228 747 Z " />
<glyph glyph-name="Zacute" unicode="&#x179;" horiz-adv-x="472" d="M65 680 L412 680 Q419 680 422 677.5 Q425 675 425 668 L425 647 Q425 644 424 641 Q423 638 422 637 L99 46 L428 46 Q434 46 436.5 43.5 Q439 41 439 34 L439 12 Q439 5 436.5 2.5 Q434 0 428 0 L47 0 Q40 0 37.5 2.5 Q35 5 35 12 L35 34 Q35 36 35.5 38.5 Q36 41 37 43 L358 634 L65 634 Q58 634 55.5 636.5 Q53 639 53 646 L53 668 Q53 675 55.5 677.5 Q58 680 65 680 Z M346 866 L265 747 Q264 745 260.5 742.5 Q257 740 251 740 L226 740 Q221 740 218.5 743 Q216 746 220 751 L293 868 Q296 872 299 875 Q302 878 308 878 L340 878 Q347 878 348.5 874.5 Q350 871 346 866 Z " />
<glyph glyph-name="Zdotaccent" unicode="&#x17b;" horiz-adv-x="472" d="M256 838 L256 761 Q256 755 253.5 752 Q251 749 244 749 L215 749 Q209 749 206 752 Q203 755 203 761 L203 838 Q203 845 206 847.5 Q209 850 215 850 L244 850 Q251 850 253.5 847.5 Q256 845 256 838 Z M65 680 L412 680 Q419 680 422 677.5 Q425 675 425 668 L425 647 Q425 644 424 641 Q423 638 422 637 L99 46 L428 46 Q434 46 436.5 43.5 Q439 41 439 34 L439 12 Q439 5 436.5 2.5 Q434 0 428 0 L47 0 Q40 0 37.5 2.5 Q35 5 35 12 L35 34 Q35 36 35.5 38.5 Q36 41 37 43 L358 634 L65 634 Q58 634 55.5 636.5 Q53 639 53 646 L53 668 Q53 675 55.5 677.5 Q58 680 65 680 Z " />
<glyph glyph-name="AEacute" unicode="&#x1fc;" horiz-adv-x="825" d="M373 530 L211 249 L405 249 L405 590 Q398 574 389 558.5 Q380 543 373 530 Z M419 680 L756 680 Q762 680 765 677.5 Q768 675 768 669 L768 647 Q768 641 765 638.5 Q762 636 756 636 L456 636 L456 380 L738 380 Q744 380 747 377 Q750 374 750 368 L750 348 Q750 342 747 339 Q744 336 738 336 L456 336 L456 45 L768 45 Q775 45 777.5 42 Q780 39 780 33 L780 12 Q780 6 777.5 3 Q775 0 768 0 L421 0 Q414 0 409.5 2.5 Q405 5 405 12 L405 206 L185 206 L73 12 Q71 8 68 4 Q65 0 59 0 L31 0 Q25 0 21.5 3 Q18 6 22 12 L402 668 Q404 672 408 676 Q412 680 419 680 Z M564 866 L483 747 Q482 745 478.5 742.5 Q475 740 469 740 L444 740 Q439 740 436.5 743 Q434 746 438 751 L511 868 Q514 872 517 875 Q520 878 526 878 L558 878 Q565 878 566.5 874.5 Q568 871 564 866 Z " />
<glyph glyph-name="Oslashacute" unicode="&#x1fe;" horiz-adv-x="587" d="M395 866 L314 747 Q313 745 309.5 742.5 Q306 740 300 740 L275 740 Q270 740 267.5 743 Q265 746 269 751 L342 868 Q345 872 348 875 Q351 878 357 878 L389 878 Q396 878 397.5 874.5 Q399 871 395 866 Z M138 140 Q138 126 141 113 Q144 100 151 90 L404 620 Q386 630 358.5 636 Q331 642 293 642 Q206 642 172 613 Q138 584 138 539 L138 140 Z M293 37 Q380 37 414.5 66 Q449 95 449 140 L449 539 Q449 553 446 566 Q443 579 437 589 L182 59 Q201 49 228.5 43 Q256 37 293 37 Z M148 -12 Q144 -21 140 -25 Q136 -29 127 -29 L108 -29 Q101 -29 99.5 -24 Q98 -19 102 -12 L125 36 Q103 55 94 80 Q85 105 85 133 L85 546 Q85 605 129.5 646.5 Q174 688 293 688 Q336 688 369 682 Q402 676 426 666 L439 692 Q442 699 447 704 Q452 709 460 709 L479 709 Q486 709 487.5 703.5 Q489 698 486 692 L463 643 Q485 624 494 599 Q503 574 503 546 L503 133 Q503 74 458 33 Q413 -8 293 -8 Q250 -8 217 -2 Q184 4 161 14 L148 -12 Z " />
<glyph glyph-name="Dcroat" unicode="&#x110;" horiz-adv-x="605" d="M313 0 L115 0 Q109 0 106.5 3 Q104 6 104 12 L104 324 L31 324 Q25 324 22 326.5 Q19 329 19 336 L19 354 Q19 360 22 362.5 Q25 365 31 365 L104 365 L104 668 Q104 674 107 677 Q110 680 115 680 L313 680 Q432 680 477 638.5 Q522 597 522 539 L522 141 Q522 83 477 41.5 Q432 0 313 0 Z M157 46 L313 46 Q400 46 434.5 74.5 Q469 103 469 149 L469 531 Q469 577 434.5 605.5 Q400 634 313 634 L157 634 L157 365 L300 365 Q306 365 309 362.5 Q312 360 312 354 L312 336 Q312 329 309 326.5 Q306 324 300 324 L157 324 L157 46 Z " />
<glyph glyph-name="Hbar" unicode="&#x126;" horiz-adv-x="617" d="M153 386 L465 386 L465 501 L153 501 L153 386 Z M153 12 Q153 6 150.5 3 Q148 0 142 0 L112 0 Q106 0 103 3 Q100 6 100 12 L100 501 L62 501 Q55 501 52.5 504 Q50 507 50 513 L50 528 Q50 535 52.5 537.5 Q55 540 62 540 L100 540 L100 668 Q100 674 103 677 Q106 680 112 680 L142 680 Q148 680 150.5 677 Q153 674 153 668 L153 540 L465 540 L465 668 Q465 674 467.5 677 Q470 680 476 680 L507 680 Q513 680 515.5 677 Q518 674 518 668 L518 540 L556 540 Q562 540 565 537.5 Q568 535 568 528 L568 513 Q568 507 565 504 Q562 501 556 501 L518 501 L518 12 Q518 6 515.5 3 Q513 0 507 0 L476 0 Q470 0 467.5 3 Q465 6 465 12 L465 340 L153 340 L153 12 Z " />
<glyph glyph-name="IJ" unicode="&#x132;" horiz-adv-x="739" d="M149 668 L149 12 Q149 6 146.5 3 Q144 0 138 0 L108 0 Q102 0 99 3 Q96 6 96 12 L96 668 Q96 674 99 677 Q102 680 108 680 L138 680 Q144 680 146.5 677 Q149 674 149 668 Z M332 174 L332 141 Q332 95 358.5 66.5 Q385 38 463 38 Q541 38 567 66.5 Q593 95 593 141 L593 668 Q593 674 596 677 Q599 680 605 680 L635 680 Q641 680 644 677 Q647 674 647 668 L647 133 Q647 75 610 33.5 Q573 -8 463 -8 Q354 -8 316.5 33.5 Q279 75 279 133 L279 174 Q279 181 282 183.5 Q285 186 291 186 L320 186 Q327 186 329.5 183.5 Q332 181 332 174 Z " />
<glyph glyph-name="Ldot" unicode="&#x13f;" horiz-adv-x="483" d="M149 668 L149 46 L445 46 Q451 46 454 43.5 Q457 41 457 34 L457 12 Q457 5 454 2.5 Q451 0 445 0 L106 0 Q102 0 99 3 Q96 6 96 12 L96 668 Q96 674 99 677 Q102 680 108 680 L138 680 Q144 680 146.5 677 Q149 674 149 668 Z M398 393 L398 316 Q398 309 395.5 306.5 Q393 304 387 304 L357 304 Q351 304 348 306.5 Q345 309 345 316 L345 393 Q345 399 348 402 Q351 405 357 405 L387 405 Q393 405 395.5 402 Q398 399 398 393 Z " />
<glyph glyph-name="Eng" unicode="&#x14a;" horiz-adv-x="609" d="M513 668 L513 -85 Q513 -139 474.5 -173.5 Q436 -208 336 -208 L331 -208 Q324 -208 321.5 -205.5 Q319 -203 319 -196 L319 -176 Q319 -170 321.5 -167 Q324 -164 331 -164 L336 -164 Q409 -164 436 -141 Q463 -118 463 -81 L463 7 L178 515 Q171 527 162 545 Q153 563 146 576 L146 12 Q146 6 143.5 3 Q141 0 135 0 L108 0 Q102 0 99 3 Q96 6 96 12 L96 668 Q96 674 99 677 Q102 680 108 680 L135 680 Q139 680 141.5 678.5 Q144 677 145 675 L434 162 Q439 153 448.5 135 Q458 117 463 105 L463 668 Q463 674 466 677 Q469 680 475 680 L502 680 Q508 680 510.5 677 Q513 674 513 668 Z " />
<glyph glyph-name="Tbar" unicode="&#x166;" horiz-adv-x="524" d="M288 12 Q288 6 285.5 3 Q283 0 277 0 L247 0 Q241 0 238 3 Q235 6 235 12 L235 415 L82 415 Q76 415 73 418 Q70 421 70 427 L70 443 Q70 449 73 451.5 Q76 454 82 454 L235 454 L235 634 L54 634 Q47 634 44.5 636.5 Q42 639 42 646 L42 668 Q42 675 44.5 677.5 Q47 680 54 680 L470 680 Q476 680 479 677.5 Q482 675 482 668 L482 646 Q482 639 479 636.5 Q476 634 470 634 L288 634 L288 454 L444 454 Q450 454 453 451.5 Q456 449 456 443 L456 427 Q456 421 453 418 Q450 415 444 415 L288 415 L288 12 Z " />
<glyph glyph-name="amacron" unicode="&#x101;" horiz-adv-x="499" d="M208 36 Q267 36 308 59 Q349 82 366 95 L366 233 L194 233 Q151 233 131 211 Q111 189 111 153 L111 114 Q111 79 134.5 57.5 Q158 36 208 36 Z M69 360 L69 378 Q69 432 106.5 466.5 Q144 501 243 501 Q344 501 380.5 466.5 Q417 432 417 378 L417 12 Q417 6 414.5 3 Q412 0 406 0 L381 0 Q375 0 372 3 Q369 6 369 12 L367 52 Q345 35 302 13.5 Q259 -8 197 -8 Q128 -8 94 25.5 Q60 59 60 108 L60 159 Q60 208 91.5 241.5 Q123 275 185 275 L366 275 L366 374 Q366 410 341 434 Q316 458 243 458 Q169 458 143.5 435 Q118 412 118 375 L118 360 Q118 353 115.5 350.5 Q113 348 106 348 L80 348 Q74 348 71.5 350.5 Q69 353 69 360 Z M118 646 L375 646 Q381 646 384 643 Q387 640 387 634 L387 616 Q387 610 384 607 Q381 604 375 604 L118 604 Q112 604 109 607 Q106 610 106 616 L106 634 Q106 640 109 643 Q112 646 118 646 Z " />
<glyph glyph-name="abreve" unicode="&#x103;" horiz-adv-x="499" d="M208 36 Q267 36 308 59 Q349 82 366 95 L366 233 L194 233 Q151 233 131 211 Q111 189 111 153 L111 114 Q111 79 134.5 57.5 Q158 36 208 36 Z M69 360 L69 378 Q69 432 106.5 466.5 Q144 501 243 501 Q344 501 380.5 466.5 Q417 432 417 378 L417 12 Q417 6 414.5 3 Q412 0 406 0 L381 0 Q375 0 372 3 Q369 6 369 12 L367 52 Q345 35 302 13.5 Q259 -8 197 -8 Q128 -8 94 25.5 Q60 59 60 108 L60 159 Q60 208 91.5 241.5 Q123 275 185 275 L366 275 L366 374 Q366 410 341 434 Q316 458 243 458 Q169 458 143.5 435 Q118 412 118 375 L118 360 Q118 353 115.5 350.5 Q113 348 106 348 L80 348 Q74 348 71.5 350.5 Q69 353 69 360 Z M171 683 L171 665 Q171 634 184.5 613 Q198 592 245 592 Q291 592 304.5 613 Q318 634 318 665 L318 683 Q318 689 320 691.5 Q322 694 329 694 L347 694 Q353 694 355.5 691.5 Q358 689 358 683 L358 666 Q358 617 334 587 Q310 557 244 557 Q178 557 154.5 587 Q131 617 131 666 L131 683 Q131 689 133.5 691.5 Q136 694 142 694 L160 694 Q166 694 168.5 691.5 Q171 689 171 683 Z " />
<glyph glyph-name="aogonek" unicode="&#x105;" horiz-adv-x="498" d="M69 360 L69 378 Q69 432 106.5 466.5 Q144 501 243 501 Q344 501 380.5 466.5 Q417 432 417 378 L417 12 Q417 6 414.5 3 Q412 0 406 0 L402 0 Q365 -8 350.5 -29 Q336 -50 336 -69 Q336 -88 350 -99.5 Q364 -111 393 -111 L410 -111 Q416 -111 418.5 -114 Q421 -117 421 -123 L421 -137 Q421 -144 417 -146.5 Q413 -149 407 -149 L381 -149 Q344 -149 319 -131 Q294 -113 294 -75 Q294 -48 314.5 -22.5 Q335 3 369 20 L367 52 Q345 35 302 13.5 Q259 -8 197 -8 Q128 -8 94 25.5 Q60 59 60 108 L60 159 Q60 208 91.5 241.5 Q123 275 185 275 L366 275 L366 374 Q366 410 341 434 Q316 458 243 458 Q169 458 143.5 435 Q118 412 118 375 L118 360 Q118 353 115.5 350.5 Q113 348 106 348 L80 348 Q74 348 71.5 350.5 Q69 353 69 360 Z M208 36 Q267 36 308 59 Q349 82 366 95 L366 233 L194 233 Q151 233 131 211 Q111 189 111 153 L111 114 Q111 79 134.5 57.5 Q158 36 208 36 Z " />
<glyph glyph-name="aringacute" unicode="&#x1fb;" horiz-adv-x="498" d="M244 556 Q196 556 175 576 Q154 596 154 627 L154 646 Q154 675 172.5 694.5 Q191 714 233 717 L295 817 Q298 821 301.5 824 Q305 827 311 827 L343 827 Q350 827 351.5 823.5 Q353 820 349 815 L280 713 Q308 706 321 688 Q334 670 334 646 L334 627 Q334 596 313 576 Q292 556 244 556 Z M302 632 L302 641 Q302 661 288.5 674 Q275 687 244 687 Q213 687 200 674 Q187 661 187 641 L187 632 Q187 612 200 599 Q213 586 244 586 Q275 586 288.5 599 Q302 612 302 632 Z M208 36 Q267 36 308 59 Q349 82 366 95 L366 233 L194 233 Q151 233 131 211 Q111 189 111 153 L111 114 Q111 79 134.5 57.5 Q158 36 208 36 Z M69 360 L69 378 Q69 432 106.5 466.5 Q144 501 243 501 Q344 501 380.5 466.5 Q417 432 417 378 L417 12 Q417 6 414.5 3 Q412 0 406 0 L381 0 Q375 0 372 3 Q369 6 369 12 L367 52 Q345 35 302 13.5 Q259 -8 197 -8 Q128 -8 94 25.5 Q60 59 60 108 L60 159 Q60 208 91.5 241.5 Q123 275 185 275 L366 275 L366 374 Q366 410 341 434 Q316 458 243 458 Q169 458 143.5 435 Q118 412 118 375 L118 360 Q118 353 115.5 350.5 Q113 348 106 348 L80 348 Q74 348 71.5 350.5 Q69 353 69 360 Z " />
<glyph glyph-name="cacute" unicode="&#x107;" horiz-adv-x="478" d="M352 696 L271 577 Q270 575 266.5 572.5 Q263 570 257 570 L232 570 Q227 570 224.5 572.5 Q222 575 226 581 L298 698 Q301 702 304.5 705 Q308 708 314 708 L346 708 Q353 708 354.5 704.5 Q356 701 352 696 Z M249 501 Q350 501 387 466 Q424 431 424 377 L424 358 Q424 351 421.5 348.5 Q419 346 413 346 L386 346 Q380 346 377 348.5 Q374 351 374 358 L374 374 Q374 411 348.5 434 Q323 457 250 457 Q177 457 151 434 Q125 411 125 374 L125 119 Q125 82 151 59 Q177 36 250 36 Q323 36 348.5 59 Q374 82 374 119 L374 143 Q374 150 377 152.5 Q380 155 386 155 L413 155 Q419 155 421.5 152.5 Q424 150 424 143 L424 115 Q424 61 386.5 26.5 Q349 -8 249 -8 Q148 -8 111 26.5 Q74 61 74 115 L74 377 Q74 431 111.5 466 Q149 501 249 501 Z " />
<glyph glyph-name="ccircumflex" unicode="&#x109;" horiz-adv-x="478" d="M248 674 L187 582 Q184 577 180 573.5 Q176 570 171 570 L147 570 Q141 570 139 573.5 Q137 577 141 582 L219 696 Q223 701 227 704.5 Q231 708 237 708 L257 708 Q263 708 268 704.5 Q273 701 276 697 L354 582 Q358 577 356 573.5 Q354 570 348 570 L325 570 Q320 570 316 573.5 Q312 577 308 582 L248 674 Z M249 501 Q350 501 387 466 Q424 431 424 377 L424 358 Q424 351 421.5 348.5 Q419 346 413 346 L386 346 Q380 346 377 348.5 Q374 351 374 358 L374 374 Q374 411 348.5 434 Q323 457 250 457 Q177 457 151 434 Q125 411 125 374 L125 119 Q125 82 151 59 Q177 36 250 36 Q323 36 348.5 59 Q374 82 374 119 L374 143 Q374 150 377 152.5 Q380 155 386 155 L413 155 Q419 155 421.5 152.5 Q424 150 424 143 L424 115 Q424 61 386.5 26.5 Q349 -8 249 -8 Q148 -8 111 26.5 Q74 61 74 115 L74 377 Q74 431 111.5 466 Q149 501 249 501 Z " />
</font>
</svg>
