<?xml version="1.0" encoding="UTF-8"?>
<svg xmlns="http://www.w3.org/2000/svg" xmlns:xlink="http://www.w3.org/1999/xlink" version="1.2" >
<font id="Fly Sans Light Italic">
<font-face  font-family="Fly Sans" units-per-em="1000" ascent="1000" descent="-300" font-style="normal" font-weight="300" font-stretch="normal" slope="-7" cap-height="680" x-height="493" underline-position="-125" underline-thickness="37" />
<missing-glyph  horiz-adv-x="862" d="M717 94 Q666 44 601.5 18 Q537 -8 468 -8 Q402 -8 337 18 Q272 44 222 94 Q171 144 145 209 Q119 274 119 341 Q119 407 145 472 Q171 537 222 588 Q272 638 337 664 Q402 690 468 690 Q535 690 601 664 Q667 638 717 588 Q767 538 793.5 472.5 Q820 407 820 341 Q820 273 793.5 208.5 Q767 144 717 94 Z M705 106 Q754 155 779 216.5 Q804 278 804 341 Q804 404 779 465.5 Q754 527 705 576 Q656 625 594 649.5 Q532 674 468 674 Q405 674 344 649.5 Q283 625 234 576 Q185 527 160 465.5 Q135 404 135 341 Q135 278 160 216.5 Q185 155 234 106 Q283 57 344 32.5 Q405 8 468 8 Q533 8 594.5 32.5 Q656 57 705 106 Z M592 188 L469 311 L347 189 Q343 185 339 185 Q335 185 331 189 L316 204 Q312 208 312 212 Q312 216 316 220 L438 342 L317 464 Q313 468 312.5 472.5 Q312 477 316 481 L330 495 Q335 500 339 500 Q343 500 347 496 L469 373 L592 495 Q596 499 600.5 499.5 Q605 500 609 496 L624 482 Q628 478 628 473.5 Q628 469 624 465 L501 342 L623 219 Q627 215 627.5 211 Q628 207 623 202 L609 188 Q605 184 600.5 184 Q596 184 592 188 Z " />
<glyph glyph-name="Eth" unicode="&#xd0;" horiz-adv-x="609" d="M284 0 L84 0 Q79 0 76 3 Q73 6 74 12 L112 324 L37 324 Q31 324 28.5 326.5 Q26 329 27 336 L28 354 Q28 360 32 362.5 Q36 365 42 365 L117 365 L154 668 Q155 674 158.5 677 Q162 680 167 680 L362 680 Q470 680 514 644.5 Q558 609 558 558 Q558 553 557.5 546 Q557 539 556 534 L508 141 Q501 83 453.5 41.5 Q406 0 284 0 Z M131 46 L287 46 Q374 46 412.5 74.5 Q451 103 456 149 L502 528 Q503 534 503.5 539 Q504 544 504 547 Q504 586 472 610 Q440 634 359 634 L204 634 L171 365 L311 365 Q317 365 319.5 362.5 Q322 360 321 354 L319 336 Q318 329 315 326.5 Q312 324 305 324 L166 324 L131 46 Z " />
<glyph glyph-name="eth" unicode="&#xf0;" horiz-adv-x="513" d="M316 603 L404 638 Q392 651 367.5 658.5 Q343 666 303 666 L215 666 Q211 666 208 668 Q205 670 205 676 L206 693 Q206 699 210 701.5 Q214 704 220 704 L308 704 Q363 704 398 692.5 Q433 681 450 661 L506 685 Q510 686 514 686 Q518 686 520 681 L524 673 Q526 669 523.5 664.5 Q521 660 516 658 L464 636 Q469 623 469.5 608.5 Q470 594 469 581 L411 115 Q404 61 362.5 26.5 Q321 -8 219 -8 Q129 -8 90 21.5 Q51 51 51 97 Q51 101 51 106 Q51 111 52 115 L84 378 Q91 432 127 466.5 Q163 501 235 501 Q298 501 340 479 Q382 457 401 440 L418 573 Q419 585 418.5 594.5 Q418 604 414 611 L327 576 Q322 574 317 574 Q312 574 311 580 L309 589 Q308 593 310 597.5 Q312 602 316 603 Z M362 119 L396 395 Q381 408 342.5 431.5 Q304 455 244 455 Q191 455 165 430.5 Q139 406 135 372 L104 119 Q103 115 103 112 Q103 109 103 106 Q103 74 130 54.5 Q157 35 223 35 Q296 35 327 58.5 Q358 82 362 119 Z " />
<glyph glyph-name="Lslash" unicode="&#x141;" horiz-adv-x="484" d="M420 0 L81 0 Q76 0 73.5 3 Q71 6 72 12 L108 310 L44 285 Q38 283 34 284.5 Q30 286 29 292 L26 302 Q25 307 27 311.5 Q29 316 34 318 L113 349 L152 668 Q153 674 156.5 677 Q160 680 166 680 L196 680 Q202 680 204.5 677 Q207 674 206 668 L169 371 L236 397 Q241 399 245 397 Q249 395 250 391 L254 379 Q255 375 253 370.5 Q251 366 245 364 L164 332 L129 46 L425 46 Q431 46 433.5 43.5 Q436 41 435 34 L433 12 Q432 5 429 2.5 Q426 0 420 0 Z " />
<glyph glyph-name="lslash" unicode="&#x142;" horiz-adv-x="257" d="M106 0 L77 0 Q71 0 68.5 3 Q66 6 67 12 L103 311 L37 285 Q32 283 28 284.5 Q24 286 23 292 L20 303 Q19 308 21 312 Q23 316 28 318 L108 349 L149 687 Q150 693 153.5 696 Q157 699 163 699 L192 699 Q198 699 200 696 Q202 693 201 687 L163 371 L230 397 Q234 398 238.5 396.5 Q243 395 244 391 L248 379 Q249 375 246.5 370.5 Q244 366 239 364 L158 332 L119 12 Q118 6 115.5 3 Q113 0 106 0 Z " />
<glyph glyph-name="Scaron" unicode="&#x160;" horiz-adv-x="549" d="M448 498 L453 541 Q454 548 454 552.5 Q454 557 454 559 Q454 596 424 619.5 Q394 643 316 643 Q229 643 193.5 615 Q158 587 154 542 L150 502 Q149 495 149 492 Q149 489 149 488 Q149 459 166 443.5 Q183 428 203 420 L384 347 Q422 331 446.5 304 Q471 277 471 235 Q471 231 471 227.5 Q471 224 470 217 L461 133 Q455 75 406.5 33.5 Q358 -8 237 -8 Q130 -8 87 27 Q44 62 44 113 Q44 117 44 122.5 Q44 128 45 135 L51 185 Q52 192 55 195 Q58 198 64 198 L93 198 Q100 198 102.5 195 Q105 192 104 185 L98 141 Q97 134 97 129 Q97 124 97 122 Q97 84 128.5 60.5 Q160 37 240 37 Q328 37 365 65 Q402 93 408 139 L417 212 Q418 219 418 221.5 Q418 224 418 225 Q418 256 395.5 274 Q373 292 346 303 L177 371 Q143 384 119.5 411.5 Q96 439 96 478 Q96 480 96 484.5 Q96 489 97 496 L103 547 Q110 605 154.5 646.5 Q199 688 320 688 Q425 688 465.5 653 Q506 618 506 568 Q506 566 506 560 Q506 554 505 547 L500 498 Q499 492 496 489 Q493 486 487 486 L458 486 Q452 486 449.5 488.5 Q447 491 448 498 Z M273 866 L322 774 L394 866 Q398 871 402.5 874.5 Q407 878 412 878 L436 878 Q442 878 443.5 874.5 Q445 871 441 866 L348 751 Q344 747 339.5 743.5 Q335 740 329 740 L310 740 Q303 740 299 743.5 Q295 747 292 752 L228 866 Q225 871 227 874.5 Q229 878 236 878 L259 878 Q264 878 267.5 874 Q271 870 273 866 Z " />
<glyph glyph-name="scaron" unicode="&#x161;" horiz-adv-x="471" d="M207 696 L256 604 L328 696 Q332 701 336.5 704.5 Q341 708 346 708 L370 708 Q376 708 377 704.5 Q378 701 374 696 L282 581 Q278 577 273.5 573.5 Q269 570 262 570 L243 570 Q237 570 233 573.5 Q229 577 226 582 L161 696 Q158 701 160.5 704.5 Q163 708 169 708 L192 708 Q198 708 201 704.5 Q204 701 207 696 Z M362 361 L365 384 Q366 391 366 395 Q366 399 366 403 Q366 426 340 444 Q314 462 254 462 Q191 462 160.5 443.5 Q130 425 126 394 L122 364 Q121 359 121 356 Q121 353 121 352 Q121 333 133.5 319 Q146 305 169 298 L321 251 Q355 241 374 219.5 Q393 198 393 172 Q393 171 393 165.5 Q393 160 392 153 L386 97 Q382 53 337 22.5 Q292 -8 197 -8 Q112 -8 72.5 20 Q33 48 33 85 Q33 87 33 91.5 Q33 96 34 103 L37 128 Q38 134 41 136.5 Q44 139 50 139 L77 139 Q81 139 83.5 137 Q86 135 85 128 L83 106 Q82 98 82 94.5 Q82 91 82 90 Q82 65 112 48.5 Q142 32 200 32 Q264 32 299 50.5 Q334 69 338 101 L343 144 Q344 151 344 154.5 Q344 158 344 159 Q344 178 328 190 Q312 202 289 209 L141 257 Q113 266 92 288 Q71 310 71 341 Q71 342 71 346 Q71 350 72 356 L77 395 Q82 438 122.5 469.5 Q163 501 257 501 Q340 501 377.5 472 Q415 443 415 405 Q415 402 415 399 Q415 396 414 387 L411 361 Q410 355 407.5 352.5 Q405 350 398 350 L372 350 Q367 350 364 353 Q361 356 362 361 Z " />
<glyph glyph-name="Yacute" unicode="&#xdd;" horiz-adv-x="515" d="M130 668 L254 360 Q256 354 259.5 344.5 Q263 335 264 327 Q266 332 271.5 342.5 Q277 353 282 360 L483 668 Q487 673 490 676.5 Q493 680 499 680 L531 680 Q537 680 539.5 677.5 Q542 675 538 668 L285 282 L252 12 Q251 6 248.5 3 Q246 0 240 0 L210 0 Q204 0 201 3 Q198 6 199 12 L231 276 L73 668 Q71 674 74 677 Q77 680 83 680 L117 680 Q123 680 125.5 677 Q128 674 130 668 Z M433 866 L339 747 Q337 745 333.5 742.5 Q330 740 324 740 L298 740 Q293 740 291.5 742.5 Q290 745 294 751 L380 868 Q383 872 386.5 875 Q390 878 396 878 L429 878 Q436 878 436.5 874.5 Q437 871 433 866 Z " />
<glyph glyph-name="yacute" unicode="&#xfd;" horiz-adv-x="438" d="M434 481 L120 -196 Q118 -201 114 -204.5 Q110 -208 105 -208 L81 -208 Q75 -208 72.5 -205 Q70 -202 73 -196 L161 -2 L54 481 Q53 486 56 489.5 Q59 493 65 493 L95 493 Q101 493 103.5 489.5 Q106 486 107 481 L186 120 Q188 109 191 91.5 Q194 74 194 68 Q198 81 203 93 Q208 105 214 118 L382 481 Q384 486 388 489.5 Q392 493 397 493 L424 493 Q431 493 434 490 Q437 487 434 481 Z M367 696 L273 577 Q271 575 267.5 572.5 Q264 570 258 570 L232 570 Q227 570 225 573 Q223 576 227 581 L314 698 Q317 702 320.5 705 Q324 708 330 708 L363 708 Q370 708 370.5 704.5 Q371 701 367 696 Z " />
<glyph glyph-name="Thorn" unicode="&#xde;" horiz-adv-x="571" d="M197 668 L176 493 L327 493 Q434 493 477.5 457.5 Q521 422 521 371 Q521 367 521 361.5 Q521 356 520 351 L507 245 Q500 186 452 145 Q404 104 282 104 L128 104 L116 12 Q115 6 112.5 3 Q110 0 104 0 L74 0 Q69 0 65.5 2.5 Q62 5 63 12 L143 668 Q144 674 147.5 677 Q151 680 157 680 L187 680 Q193 680 195.5 677.5 Q198 675 197 668 Z M323 448 L170 448 L133 149 L286 149 Q373 149 411.5 178 Q450 207 455 253 L466 344 Q467 348 467 352 Q467 356 467 360 Q467 400 435 424 Q403 448 323 448 Z " />
<glyph glyph-name="thorn" unicode="&#xfe;" horiz-adv-x="520" d="M265 38 Q317 38 343.5 62.5 Q370 87 374 121 L404 366 Q405 372 405.5 377 Q406 382 406 386 Q406 416 385 435.5 Q364 455 317 455 Q256 455 212 431.5 Q168 408 150 395 L113 97 Q128 84 166 61 Q204 38 265 38 Z M107 52 L77 -196 Q76 -202 73.5 -205 Q71 -208 64 -208 L36 -208 Q31 -208 27.5 -205.5 Q24 -203 25 -196 L134 687 Q135 693 137.5 696 Q140 699 146 699 L175 699 Q181 699 184 696 Q187 693 186 687 L155 440 Q179 457 225 479 Q271 501 334 501 Q397 501 428 472.5 Q459 444 459 398 Q459 393 458.5 385.5 Q458 378 457 372 L425 115 Q418 61 382.5 26.5 Q347 -8 274 -8 Q211 -8 168.5 13.5 Q126 35 107 52 Z " />
<glyph glyph-name="Zcaron" unicode="&#x17d;" horiz-adv-x="470" d="M114 680 L461 680 Q467 680 469.5 677.5 Q472 675 471 668 L469 646 Q469 642 467 639 Q465 636 464 634 L72 46 L398 46 Q404 46 407 43.5 Q410 41 409 34 L406 12 Q405 5 402.5 2.5 Q400 0 394 0 L13 0 Q6 0 3.5 2.5 Q1 5 2 11 L4 32 Q5 36 7.5 41 Q10 46 12 49 L401 634 L108 634 Q103 634 99.5 636.5 Q96 639 97 646 L100 668 Q101 675 104 677.5 Q107 680 114 680 Z M239 866 L288 774 L360 866 Q364 871 368.5 874.5 Q373 878 378 878 L402 878 Q408 878 409.5 874.5 Q411 871 407 866 L314 751 Q310 747 305.5 743.5 Q301 740 295 740 L276 740 Q269 740 265 743.5 Q261 747 258 752 L194 866 Q191 871 193 874.5 Q195 878 202 878 L225 878 Q230 878 233.5 874 Q237 870 239 866 Z " />
<glyph glyph-name="zcaron" unicode="&#x17e;" horiz-adv-x="422" d="M188 696 L237 604 L309 696 Q313 701 317.5 704.5 Q322 708 327 708 L351 708 Q357 708 358 704.5 Q359 701 355 696 L263 581 Q259 577 254.5 573.5 Q250 570 243 570 L224 570 Q218 570 214 573.5 Q210 577 207 582 L142 696 Q139 701 141.5 704.5 Q144 708 150 708 L173 708 Q179 708 182 704.5 Q185 701 188 696 Z M88 493 L387 493 Q394 493 396.5 490 Q399 487 398 482 L395 462 Q394 458 392.5 454 Q391 450 390 449 L72 44 L345 44 Q351 44 353.5 41.5 Q356 39 355 32 L353 12 Q352 6 349 3 Q346 0 339 0 L15 0 Q9 0 6.5 3 Q4 6 5 12 L7 32 Q7 35 9 38 Q11 41 13 44 L329 449 L83 449 Q77 449 74 451.5 Q71 454 72 461 L75 481 Q76 487 79 490 Q82 493 88 493 Z " />
<glyph glyph-name="onehalf" unicode="&#xbd;" horiz-adv-x="735" d="M466 36 L642 36 Q646 36 648 34 Q650 32 649 28 L646 8 Q645 3 642.5 1.5 Q640 0 636 0 L428 0 Q424 0 421 2 Q418 4 419 8 L432 108 Q436 135 454 149.5 Q472 164 491 169 L591 198 Q600 201 614 208.5 Q628 216 630 235 L637 292 Q638 298 638 299.5 Q638 301 638 302 Q638 321 623.5 332.5 Q609 344 570 344 Q524 344 509.5 329.5 Q495 315 491 292 L488 267 Q487 263 485.5 260.5 Q484 258 480 258 L454 258 Q450 258 448 260.5 Q446 263 447 267 L450 296 Q454 330 479 354 Q504 378 575 378 Q632 378 657 357.5 Q682 337 682 306 Q682 305 682 303 Q682 301 681 296 L673 234 Q669 201 648 186.5 Q627 172 612 168 L513 139 Q500 135 489 128 Q478 121 476 106 L466 36 Z M110 654 L233 680 Q237 681 240 679.5 Q243 678 242 673 L201 342 L287 342 Q292 342 294 340 Q296 338 295 334 L292 314 Q291 310 289 308 Q287 306 283 306 L68 306 Q64 306 61 307.5 Q58 309 59 314 L62 334 Q63 338 65 340 Q67 342 71 342 L157 342 L194 637 L105 617 Q102 616 99.5 618 Q97 620 98 624 L100 643 Q101 648 103 650.5 Q105 653 110 654 Z M602 676 L211 4 Q207 -2 203.5 -5 Q200 -8 193 -8 L170 -8 Q165 -8 164 -4 Q163 0 165 4 L556 676 Q559 681 563.5 684.5 Q568 688 574 688 L597 688 Q603 688 604 684.5 Q605 681 602 676 Z " />
<glyph glyph-name="onequarter" unicode="&#xbc;" horiz-adv-x="720" d="M550 366 L450 153 L594 153 L621 365 Q622 370 623.5 372 Q625 374 630 374 L655 374 Q659 374 661.5 372 Q664 370 663 366 L619 8 Q618 4 616 2 Q614 0 610 0 L584 0 Q579 0 577 2 Q575 4 576 8 L590 118 L408 118 Q404 118 402 119.5 Q400 121 400 125 L401 136 Q402 142 403.5 146 Q405 150 406 152 L507 366 Q509 370 511.5 372 Q514 374 518 374 L545 374 Q549 374 550 372 Q551 370 550 366 Z M110 654 L233 680 Q237 681 240 679.5 Q243 678 242 673 L201 342 L287 342 Q292 342 294 340 Q296 338 295 334 L292 314 Q291 310 289 308 Q287 306 283 306 L68 306 Q64 306 61 307.5 Q58 309 59 314 L62 334 Q63 338 65 340 Q67 342 71 342 L157 342 L194 637 L105 617 Q102 616 99.5 618 Q97 620 98 624 L100 643 Q101 648 103 650.5 Q105 653 110 654 Z M605 676 L214 4 Q210 -2 206.5 -5 Q203 -8 196 -8 L173 -8 Q168 -8 167 -4 Q166 0 168 4 L559 676 Q562 681 566.5 684.5 Q571 688 577 688 L600 688 Q606 688 607 684.5 Q608 681 605 676 Z " />
<glyph glyph-name="onesuperior" unicode="&#xb9;" horiz-adv-x="307" d="M120 804 L243 830 Q247 831 250 829.5 Q253 828 252 823 L211 492 L297 492 Q302 492 304 490 Q306 488 305 484 L302 464 Q301 460 299 458 Q297 456 293 456 L78 456 Q74 456 71 457.5 Q68 459 69 464 L72 484 Q73 488 75 490 Q77 492 81 492 L167 492 L204 787 L115 767 Q112 766 109.5 768 Q107 770 108 774 L110 793 Q111 798 113 800.5 Q115 803 120 804 Z " />
<glyph glyph-name="threequarters" unicode="&#xbe;" horiz-adv-x="721" d="M551 366 L451 153 L595 153 L622 365 Q623 370 624.5 372 Q626 374 631 374 L656 374 Q660 374 662.5 372 Q665 370 664 366 L620 8 Q619 4 617 2 Q615 0 611 0 L585 0 Q580 0 578 2 Q576 4 577 8 L591 118 L409 118 Q405 118 403 119.5 Q401 121 401 125 L402 136 Q403 142 404.5 146 Q406 150 407 152 L508 366 Q510 370 512.5 372 Q515 374 519 374 L546 374 Q550 374 551 372 Q552 370 551 366 Z M600 676 L209 4 Q205 -2 201.5 -5 Q198 -8 191 -8 L168 -8 Q163 -8 162 -4 Q161 0 163 4 L554 676 Q557 681 561.5 684.5 Q566 688 572 688 L595 688 Q601 688 602 684.5 Q603 681 600 676 Z M150 519 L195 519 Q238 519 253.5 533 Q269 547 272 572 L275 600 Q276 607 276 608.5 Q276 610 276 611 Q276 629 261.5 640 Q247 651 212 651 Q169 651 154 637.5 Q139 624 135 600 L134 594 Q133 590 131.5 588 Q130 586 126 586 L100 586 Q96 586 94.5 588 Q93 590 93 594 L94 604 Q98 638 123 661 Q148 684 217 684 Q273 684 296 665 Q319 646 319 618 Q319 617 319 614.5 Q319 612 318 606 L313 566 Q309 539 298 525 Q287 511 257 504 Q282 498 292.5 483.5 Q303 469 303 453 Q303 452 303 449.5 Q303 447 302 441 L295 380 Q291 347 265.5 324.5 Q240 302 171 302 Q114 302 88.5 321.5 Q63 341 63 371 Q63 372 63 375 Q63 378 64 385 L65 393 Q66 397 68 399 Q70 401 74 401 L100 401 Q104 401 106 399 Q108 397 107 393 L106 387 Q105 382 105 379.5 Q105 377 105 376 Q105 358 120.5 346.5 Q136 335 174 335 Q217 335 233.5 348.5 Q250 362 253 386 L259 437 Q260 443 260 444.5 Q260 446 260 447 Q260 467 245.5 477.5 Q231 488 194 488 L146 488 Q142 488 139.5 489.5 Q137 491 138 495 L140 512 Q141 516 143 517.5 Q145 519 150 519 Z " />
<glyph glyph-name="threesuperior" unicode="&#xb3;" horiz-adv-x="307" d="M150 669 L195 669 Q238 669 253.5 683 Q269 697 272 722 L275 750 Q276 757 276 758.5 Q276 760 276 761 Q276 779 261.5 790 Q247 801 212 801 Q169 801 154 787.5 Q139 774 135 750 L134 744 Q133 740 131.5 738 Q130 736 126 736 L100 736 Q96 736 94.5 738 Q93 740 93 744 L94 754 Q98 788 123 811 Q148 834 217 834 Q273 834 296 815 Q319 796 319 768 Q319 767 319 764.5 Q319 762 318 756 L313 716 Q309 689 298 675 Q287 661 257 654 Q282 648 292.5 633.5 Q303 619 303 603 Q303 602 303 599.5 Q303 597 302 591 L295 530 Q291 497 265.5 474.5 Q240 452 171 452 Q114 452 88.5 471.5 Q63 491 63 521 Q63 522 63 525 Q63 528 64 535 L65 543 Q66 547 68 549 Q70 551 74 551 L100 551 Q104 551 106 549 Q108 547 107 543 L106 537 Q105 532 105 529.5 Q105 527 105 526 Q105 508 120.5 496.5 Q136 485 174 485 Q217 485 233.5 498.5 Q250 512 253 536 L259 587 Q260 593 260 594.5 Q260 596 260 597 Q260 617 245.5 627.5 Q231 638 194 638 L146 638 Q142 638 139.5 639.5 Q137 641 138 645 L140 662 Q141 666 143 667.5 Q145 669 150 669 Z " />
<glyph glyph-name="twosuperior" unicode="&#xb2;" horiz-adv-x="307" d="M113 492 L289 492 Q293 492 295 490 Q297 488 296 484 L293 464 Q292 459 289.5 457.5 Q287 456 283 456 L75 456 Q71 456 68 458 Q65 460 66 464 L79 564 Q83 591 101 605.5 Q119 620 138 625 L238 654 Q247 657 261 664.5 Q275 672 277 691 L284 748 Q285 754 285 755.5 Q285 757 285 758 Q285 777 270.5 788.5 Q256 800 217 800 Q171 800 156.5 785.5 Q142 771 138 748 L135 723 Q134 719 132.5 716.5 Q131 714 127 714 L101 714 Q97 714 95 716.5 Q93 719 94 723 L97 752 Q101 786 126 810 Q151 834 222 834 Q279 834 304 813.5 Q329 793 329 762 Q329 761 329 759 Q329 757 328 752 L320 690 Q316 657 295 642.5 Q274 628 259 624 L160 595 Q147 591 136 584 Q125 577 123 562 L113 492 Z " />
<glyph glyph-name="brokenbar" unicode="&#xa6;" horiz-adv-x="265" d="M151 668 L151 326 Q151 320 148.5 317 Q146 314 140 314 L111 314 Q105 314 102 317 Q99 320 99 326 L99 668 Q99 674 102 677 Q105 680 111 680 L140 680 Q146 680 148.5 677 Q151 674 151 668 Z M151 143 L151 -199 Q151 -205 148.5 -208 Q146 -211 140 -211 L111 -211 Q105 -211 102 -208 Q99 -205 99 -199 L99 143 Q99 149 102 152 Q105 155 111 155 L140 155 Q146 155 148.5 152 Q151 149 151 143 Z " />
<glyph glyph-name="minus" unicode="&#x2212;" horiz-adv-x="590" d="M136 358 L533 358 Q539 358 541.5 355.5 Q544 353 544 346 L544 325 Q544 319 541.5 316 Q539 313 533 313 L136 313 Q130 313 127 316 Q124 319 124 325 L124 346 Q124 353 127 355.5 Q130 358 136 358 Z " />
<glyph glyph-name="multiply" unicode="&#xd7;" horiz-adv-x="465" d="M203 343 L81 465 Q77 469 77 473 Q77 477 81 481 L96 497 Q100 501 104.5 500.5 Q109 500 113 496 L235 374 L358 497 Q362 501 366 501 Q370 501 374 497 L390 482 Q394 478 394 474 Q394 470 390 466 L267 343 L389 220 Q393 216 393 211.5 Q393 207 389 203 L374 188 Q370 184 366 184 Q362 184 358 188 L235 311 L113 189 Q109 185 104.5 185 Q100 185 96 189 L81 204 Q77 208 77 212.5 Q77 217 81 221 L203 343 Z " />
<glyph glyph-name="space" unicode="&#x20;" horiz-adv-x="232" d="" />
<glyph glyph-name="exclam" unicode="&#x21;" horiz-adv-x="221" d="M152 390 L118 169 Q117 163 114 160 Q111 157 105 157 L84 157 Q78 157 75.5 160 Q73 163 74 169 L97 390 L130 668 Q131 674 134 677 Q137 680 143 680 L175 680 Q181 680 183.5 677 Q186 674 185 668 L152 390 Z M113 89 L103 12 Q102 5 99.5 2.5 Q97 0 90 0 L61 0 Q54 0 51.5 2.5 Q49 5 50 12 L60 89 Q61 95 64 98 Q67 101 73 101 L103 101 Q110 101 112 98 Q114 95 113 89 Z " />
<glyph glyph-name="quotedbl" unicode="&#x22;" horiz-adv-x="320" d="M297 668 L271 495 Q270 489 267 485.5 Q264 482 258 482 L239 482 Q232 482 229.5 485 Q227 488 228 495 L244 668 Q245 674 248.5 677 Q252 680 258 680 L287 680 Q293 680 295.5 677 Q298 674 297 668 Z M169 668 L143 495 Q142 489 139.5 485.5 Q137 482 130 482 L110 482 Q104 482 101.5 485 Q99 488 100 495 L116 668 Q117 674 120 677 Q123 680 130 680 L159 680 Q165 680 167.5 677 Q170 674 169 668 Z " />
<glyph glyph-name="numbersign" unicode="&#x23;" horiz-adv-x="577" d="M242 389 L194 270 L354 270 L403 389 L242 389 Z M63 270 L148 270 L196 389 L118 389 Q112 389 109.5 392 Q107 395 108 401 L109 417 Q110 423 113 426 Q116 429 123 429 L212 429 L252 530 Q254 535 258 538.5 Q262 542 269 542 L291 542 Q298 542 298.5 538 Q299 534 298 530 L257 429 L418 429 L459 530 Q461 535 465 538.5 Q469 542 475 542 L498 542 Q504 542 504.5 538 Q505 534 504 530 L464 429 L531 429 Q538 429 540.5 426 Q543 423 542 417 L540 401 Q539 395 536 392 Q533 389 526 389 L448 389 L400 270 L471 270 Q478 270 480.5 267.5 Q483 265 482 258 L481 242 Q480 236 476.5 233 Q473 230 467 230 L384 230 L344 131 Q342 126 338.5 122.5 Q335 119 329 119 L306 119 Q300 119 298 122.5 Q296 126 298 131 L338 230 L178 230 L138 131 Q136 125 132.5 122 Q129 119 123 119 L99 119 Q94 119 92 122.5 Q90 126 92 131 L132 230 L58 230 Q52 230 49.5 233 Q47 236 48 242 L49 258 Q50 265 53.5 267.5 Q57 270 63 270 Z " />
<glyph glyph-name="dollar" unicode="&#x24;" horiz-adv-x="477" d="M216 0 L188 0 Q182 0 179 3 Q176 6 177 12 L186 86 Q114 90 81 117 Q48 144 48 180 Q48 181 48 185 Q48 189 49 196 L52 221 Q53 227 56 229.5 Q59 232 65 232 L92 232 Q96 232 98.5 230 Q101 228 100 221 L98 198 Q97 191 97 188.5 Q97 186 97 185 Q97 157 127 141 Q157 125 215 125 Q279 125 314 143.5 Q349 162 353 194 L358 237 Q359 242 359 245.5 Q359 249 359 252 Q359 271 343 283 Q327 295 304 302 L156 350 Q128 359 107 381 Q86 403 86 434 Q86 435 86 439 Q86 443 87 449 L92 488 Q97 528 132.5 558.5 Q168 589 249 593 L258 668 Q259 674 262 677 Q265 680 272 680 L300 680 Q305 680 308 677 Q311 674 310 668 L300 593 Q368 588 399 560 Q430 532 430 498 Q430 495 430 492 Q430 489 429 480 L426 454 Q425 448 422.5 445.5 Q420 443 413 443 L387 443 Q382 443 379 446 Q376 449 377 454 L380 477 Q381 484 381 488.5 Q381 493 381 496 Q381 519 355 537 Q329 555 269 555 Q206 555 175.5 536.5 Q145 518 141 487 L137 457 Q136 451 136 448.5 Q136 446 136 445 Q136 426 148.5 412 Q161 398 184 391 L336 344 Q370 334 389 312.5 Q408 291 408 265 Q408 261 408 258 Q408 255 407 246 L401 190 Q397 149 357.5 119.5 Q318 90 237 86 L228 12 Q227 6 224.5 3 Q222 0 216 0 Z " />
<glyph glyph-name="percent" unicode="&#x25;" horiz-adv-x="718" d="M582 676 L191 4 Q187 -2 183.5 -5 Q180 -8 173 -8 L150 -8 Q145 -8 144 -4 Q143 0 145 4 L536 676 Q539 681 543.5 684.5 Q548 688 554 688 L577 688 Q583 688 584 684.5 Q585 681 582 676 Z M328 599 L304 411 Q300 378 275.5 353.5 Q251 329 180 329 Q121 329 95.5 350 Q70 371 70 400 Q70 401 70 403.5 Q70 406 71 411 L95 601 Q99 635 124.5 659.5 Q150 684 220 684 Q280 684 304.5 663.5 Q329 643 329 612 Q329 611 329 608.5 Q329 606 328 599 Z M115 417 Q114 412 114 410.5 Q114 409 114 408 Q114 387 128.5 376 Q143 365 183 365 Q224 365 241.5 379 Q259 393 262 417 L285 595 Q286 602 286 603.5 Q286 605 286 605 Q286 626 270 637 Q254 648 217 648 Q173 648 156.5 634 Q140 620 137 595 L115 417 Z M659 265 L635 79 Q631 45 606 20.5 Q581 -4 511 -4 Q451 -4 426 16.5 Q401 37 401 68 Q401 69 401 71.5 Q401 74 402 79 L426 269 Q430 302 455.5 326.5 Q481 351 551 351 Q610 351 635 330 Q660 309 660 280 Q660 279 660 275.5 Q660 272 659 265 Z M468 263 L445 85 Q444 81 444 78.5 Q444 76 444 75 Q444 54 459 43 Q474 32 514 32 Q555 32 571.5 46 Q588 60 592 85 L616 263 Q617 268 617 269.5 Q617 271 617 271 Q617 293 601 304 Q585 315 548 315 Q503 315 487 301.5 Q471 288 468 263 Z " />
<glyph glyph-name="ampersand" unicode="&#x26;" horiz-adv-x="642" d="M493 131 Q486 73 433.5 32.5 Q381 -8 258 -8 Q148 -8 101 26.5 Q54 61 54 114 Q54 118 54 122.5 Q54 127 55 132 L70 247 Q76 293 98.5 321.5 Q121 350 181 363 Q136 373 119.5 396.5 Q103 420 103 452 Q103 457 103.5 463.5 Q104 470 105 476 L114 550 Q121 608 162 648 Q203 688 319 688 Q392 688 444 662.5 Q496 637 496 574 Q496 570 496 565.5 Q496 561 495 553 L493 530 Q492 523 489 520.5 Q486 518 480 518 L451 518 Q444 518 442 521.5 Q440 525 441 530 L443 555 L443 565 Q443 616 401.5 629.5 Q360 643 315 643 Q254 643 213 623 Q172 603 165 543 L158 483 Q157 476 156.5 470 Q156 464 156 460 Q156 425 183 405 Q210 385 285 385 L603 385 Q610 385 612.5 381.5 Q615 378 614 373 L611 351 Q610 345 607 342.5 Q604 340 598 340 L520 340 L493 131 Z M263 37 Q352 37 394.5 64.5 Q437 92 442 137 L467 340 L274 340 Q185 340 156.5 313.5 Q128 287 122 241 L109 138 Q108 132 108 128.5 Q108 125 108 123 Q108 83 146.5 60 Q185 37 263 37 Z " />
<glyph glyph-name="quotesingle" unicode="&#x27;" horiz-adv-x="193" d="M169 668 L143 495 Q142 489 139.5 485.5 Q137 482 130 482 L110 482 Q104 482 101.5 485 Q99 488 100 495 L116 668 Q117 674 120 677 Q123 680 130 680 L159 680 Q165 680 167.5 677 Q170 674 169 668 Z " />
<glyph glyph-name="parenleft" unicode="&#x28;" horiz-adv-x="304" d="M33 -91 L117 585 Q124 642 164 675 Q204 708 305 708 L315 708 Q320 708 323.5 705.5 Q327 703 326 696 L323 675 Q322 669 319.5 666 Q317 663 310 663 L305 663 Q231 663 202 640 Q173 617 169 580 L87 -85 Q86 -89 86 -94.5 Q86 -100 86 -102 Q86 -134 111 -153.5 Q136 -173 203 -173 L207 -173 Q213 -173 215.5 -176 Q218 -179 217 -185 L215 -206 Q214 -213 211 -215.5 Q208 -218 202 -218 L197 -218 Q110 -218 71 -188.5 Q32 -159 32 -113 Q32 -109 32 -103.5 Q32 -98 33 -91 Z " />
<glyph glyph-name="parenright" unicode="&#x29;" horiz-adv-x="304" d="M260 581 L177 -95 Q170 -152 129.5 -185 Q89 -218 -12 -218 L-22 -218 Q-26 -218 -29.5 -215.5 Q-33 -213 -32 -206 L-30 -185 Q-29 -179 -26 -176 Q-23 -173 -17 -173 L-12 -173 Q61 -173 90.5 -150 Q120 -127 124 -90 L206 575 Q207 580 207.5 585 Q208 590 208 594 Q208 625 182.5 644 Q157 663 91 663 L86 663 Q81 663 78 666 Q75 669 76 675 L79 696 Q80 703 82.5 705.5 Q85 708 91 708 L96 708 Q185 708 223.5 678.5 Q262 649 262 600 Q262 597 261.5 591.5 Q261 586 260 581 Z " />
<glyph glyph-name="asterisk" unicode="&#x2a;" horiz-adv-x="444" d="M212 381 L233 512 L111 438 Q105 434 100.5 436 Q96 438 95 442 L89 457 Q88 461 88.5 465 Q89 469 96 473 L217 538 L112 604 Q107 607 106.5 610.5 Q106 614 109 619 L117 633 Q120 638 124.5 639.5 Q129 641 135 637 L239 564 L252 698 Q253 705 256 707.5 Q259 710 265 710 L281 710 Q286 710 289 707 Q292 704 291 698 L270 564 L390 638 Q397 642 400 641 Q403 640 406 634 L413 620 Q416 615 414.5 611 Q413 607 407 604 L284 538 L390 472 Q394 469 394.5 465 Q395 461 393 457 L385 443 Q382 439 377.5 437 Q373 435 367 439 L264 511 L252 381 Q251 374 248 371 Q245 368 239 368 L222 368 Q216 368 213.5 371 Q211 374 212 381 Z " />
<glyph glyph-name="plus" unicode="&#x2b;" horiz-adv-x="515" d="M240 144 L240 317 L68 317 Q61 317 58.5 319.5 Q56 322 56 328 L56 350 Q56 356 58.5 359 Q61 362 68 362 L240 362 L240 535 Q240 541 243 544 Q246 547 252 547 L272 547 Q279 547 281.5 544 Q284 541 284 535 L284 362 L459 362 Q465 362 468 359 Q471 356 471 350 L471 328 Q471 322 468 319.5 Q465 317 459 317 L284 317 L284 144 Q284 137 281.5 134.5 Q279 132 272 132 L252 132 Q246 132 243 134.5 Q240 137 240 144 Z " />
<glyph glyph-name="comma" unicode="&#x2c;" horiz-adv-x="200" d="M43 30 L51 89 Q52 95 55 98 Q58 101 64 101 L94 101 Q100 101 102.5 98 Q105 95 104 89 L96 28 Q91 -15 66 -43.5 Q41 -72 -6 -86 Q-12 -87 -15.5 -86 Q-19 -85 -20 -79 L-25 -58 Q-26 -52 -24.5 -49 Q-23 -46 -16 -43 Q15 -30 27.5 -12.5 Q40 5 43 30 Z " />
<glyph glyph-name="hyphen" unicode="&#x2d;" horiz-adv-x="430" d="M80 311 L349 311 Q355 311 358 308.5 Q361 306 361 300 L361 279 Q361 273 358 270 Q355 267 349 267 L80 267 Q74 267 71 270 Q68 273 68 279 L68 300 Q68 306 71 308.5 Q74 311 80 311 Z " />
<glyph glyph-name="period" unicode="&#x2e;" horiz-adv-x="198" d="M103 89 L93 12 Q92 5 89 2.5 Q86 0 81 0 L51 0 Q45 0 42.5 2.5 Q40 5 41 12 L50 89 Q51 95 54 98 Q57 101 63 101 L93 101 Q99 101 101.5 98 Q104 95 103 89 Z " />
<glyph glyph-name="slash" unicode="&#x2f;" horiz-adv-x="351" d="M363 687 L41 -136 Q39 -142 35 -145 Q31 -148 25 -148 L-8 -148 Q-13 -148 -14.5 -144.5 Q-16 -141 -14 -136 L307 687 Q309 692 312.5 695.5 Q316 699 322 699 L355 699 Q361 699 363 696 Q365 693 363 687 Z " />
<glyph glyph-name="zero" unicode="0" horiz-adv-x="560" d="M62 135 L112 547 Q119 605 162.5 646.5 Q206 688 326 688 Q430 688 470.5 653.5 Q511 619 511 569 Q511 565 511 558.5 Q511 552 510 545 L460 133 Q453 75 409 33.5 Q365 -8 245 -8 Q141 -8 100.5 26 Q60 60 60 109 Q60 115 60.5 122 Q61 129 62 135 Z M407 141 L456 537 Q457 544 457 549 Q457 554 457 558 Q457 596 428.5 619 Q400 642 322 642 Q236 642 203.5 613.5 Q171 585 165 539 L116 145 Q115 139 114.5 132.5 Q114 126 114 121 Q114 84 142.5 61 Q171 38 249 38 Q336 38 368.5 66.5 Q401 95 407 141 Z " />
<glyph glyph-name="one" unicode="1" horiz-adv-x="491" d="M112 628 L325 682 Q329 683 333 681 Q337 679 336 672 L258 46 L424 46 Q430 46 432.5 43.5 Q435 41 434 34 L432 12 Q431 5 428 2.5 Q425 0 419 0 L34 0 Q28 0 25.5 2.5 Q23 5 24 12 L26 34 Q27 41 30 43.5 Q33 46 39 46 L205 46 L277 628 L106 581 Q101 580 98 582.5 Q95 585 96 592 L98 614 Q99 621 102.5 624 Q106 627 112 628 Z " />
<glyph glyph-name="two" unicode="2" horiz-adv-x="533" d="M103 46 L424 46 Q431 46 433.5 43 Q436 40 435 34 L432 12 Q431 5 428 2.5 Q425 0 419 0 L56 0 Q50 0 47.5 3 Q45 6 46 12 L69 197 Q76 250 113 272 Q150 294 171 300 L356 354 Q370 358 397 374 Q424 390 428 427 L442 538 Q443 546 443.5 551 Q444 556 444 560 Q444 596 415.5 619.5 Q387 643 310 643 Q223 643 191.5 614.5 Q160 586 155 540 L149 491 Q148 484 145 481 Q142 478 136 478 L107 478 Q100 478 98 481.5 Q96 485 97 491 L104 547 Q111 605 152.5 646.5 Q194 688 315 688 Q419 688 458 654 Q497 620 497 571 Q497 564 496.5 557.5 Q496 551 495 545 L481 427 Q474 370 439 344.5 Q404 319 379 312 L202 262 Q182 256 154 242 Q126 228 122 193 L103 46 Z " />
<glyph glyph-name="three" unicode="3" horiz-adv-x="533" d="M183 385 L270 385 Q357 385 386 411 Q415 437 421 483 L429 543 Q430 551 430 555 Q430 559 430 562 Q430 599 403 621 Q376 643 302 643 Q219 643 187.5 615 Q156 587 152 543 L151 530 Q150 524 146.5 521 Q143 518 138 518 L109 518 Q103 518 101 521 Q99 524 99 530 L100 549 Q103 605 147.5 646.5 Q192 688 308 688 Q408 688 446 655 Q484 622 484 573 Q484 567 483.5 560.5 Q483 554 482 547 L473 475 Q468 432 447 404 Q426 376 371 363 Q418 352 435.5 328 Q453 304 453 271 Q453 264 452.5 257.5 Q452 251 451 244 L437 130 Q430 71 386.5 31.5 Q343 -8 226 -8 Q123 -8 83 25.5 Q43 59 43 110 Q43 114 43 118.5 Q43 123 44 130 L47 150 Q48 156 51 159 Q54 162 60 162 L89 162 Q96 162 98 158.5 Q100 155 99 150 L97 136 Q96 130 96 126 Q96 122 96 118 Q96 81 125 59 Q154 37 229 37 Q313 37 346.5 64.5 Q380 92 385 137 L398 241 Q399 248 399.5 254 Q400 260 400 264 Q400 299 373 319.5 Q346 340 271 340 L178 340 Q172 340 169 343 Q166 346 167 351 L169 373 Q170 379 173.5 382 Q177 385 183 385 Z " />
<glyph glyph-name="four" unicode="4" horiz-adv-x="523" d="M292 668 L97 270 L383 270 L432 668 Q433 674 436 677 Q439 680 446 680 L475 680 Q481 680 483.5 677 Q486 674 485 668 L405 12 Q404 6 401.5 3 Q399 0 392 0 L363 0 Q356 0 353.5 3 Q351 6 352 12 L378 224 L46 224 Q41 224 38 226.5 Q35 229 36 235 L38 255 Q39 261 40.5 265 Q42 269 43 271 L238 668 Q241 674 245 677 Q249 680 255 680 L286 680 Q292 680 293.5 676.5 Q295 673 292 668 Z " />
<glyph glyph-name="five" unicode="5" horiz-adv-x="516" d="M142 680 L466 680 Q472 680 475 677.5 Q478 675 477 668 L474 646 Q473 639 470.5 636.5 Q468 634 462 634 L179 634 L150 409 L269 409 Q354 409 400.5 379.5 Q447 350 447 297 Q447 293 446.5 286.5 Q446 280 445 273 L428 131 Q421 72 380.5 32 Q340 -8 223 -8 Q119 -8 84 25.5 Q49 59 49 109 Q49 114 49 119 Q49 124 50 131 L52 150 Q53 156 55.5 159 Q58 162 64 162 L93 162 Q100 162 102 159.5 Q104 157 103 150 L102 138 Q101 131 101 126.5 Q101 122 101 116 Q101 80 126 58.5 Q151 37 227 37 Q313 37 341 64 Q369 91 375 137 L391 266 Q392 273 392.5 278.5 Q393 284 393 287 Q393 317 367 340.5 Q341 364 264 364 L104 364 Q97 364 94.5 367 Q92 370 93 376 L129 668 Q130 674 133 677 Q136 680 142 680 Z " />
<glyph glyph-name="six" unicode="6" horiz-adv-x="544" d="M62 133 L113 553 Q119 603 159.5 645.5 Q200 688 321 688 Q426 688 462 652.5 Q498 617 498 573 Q498 569 498 565.5 Q498 562 497 553 L495 537 Q494 531 491 528 Q488 525 482 525 L453 525 Q447 525 444.5 528 Q442 531 443 537 L444 547 Q445 555 445 558 Q445 561 445 562 Q445 594 420 618.5 Q395 643 316 643 Q230 643 199.5 614 Q169 585 165 547 L140 347 Q157 372 194.5 387 Q232 402 295 402 Q394 402 432 368 Q470 334 470 285 Q470 279 469.5 272 Q469 265 468 259 L454 133 Q447 75 404 33.5 Q361 -8 241 -8 Q138 -8 99 25.5 Q60 59 60 108 Q60 115 60.5 121 Q61 127 62 133 Z M401 139 L415 255 Q416 261 416.5 266 Q417 271 417 275 Q417 312 388.5 334.5 Q360 357 283 357 Q201 357 167.5 330.5 Q134 304 130 264 L116 142 Q115 135 114.5 129.5 Q114 124 114 119 Q114 82 141.5 59.5 Q169 37 245 37 Q332 37 364 65.5 Q396 94 401 139 Z " />
<glyph glyph-name="seven" unicode="7" horiz-adv-x="489" d="M91 680 L494 680 Q501 680 503.5 677.5 Q506 675 505 668 L503 648 Q502 644 500.5 640.5 Q499 637 498 634 L162 12 Q159 7 155.5 3.5 Q152 0 146 0 L110 0 Q103 0 101.5 3 Q100 6 103 12 L439 634 L87 634 Q81 634 77.5 636.5 Q74 639 75 646 L78 668 Q79 675 82 677.5 Q85 680 91 680 Z " />
<glyph glyph-name="eight" unicode="8" horiz-adv-x="541" d="M106 484 L114 547 Q121 605 159 646.5 Q197 688 316 688 Q419 688 455.5 655 Q492 622 492 573 Q492 567 491.5 560.5 Q491 554 490 547 L482 482 Q476 436 454 406.5 Q432 377 372 364 Q422 353 441.5 327 Q461 301 461 267 Q461 262 460.5 256 Q460 250 459 244 L446 133 Q439 75 397.5 33.5 Q356 -8 235 -8 Q132 -8 93.5 25.5 Q55 59 55 109 Q55 114 55 120 Q55 126 56 133 L70 246 Q76 292 100.5 321.5 Q125 351 185 364 Q139 374 121.5 399 Q104 424 104 457 Q104 463 104.5 470 Q105 477 106 484 Z M431 489 L437 541 Q438 548 438.5 553.5 Q439 559 439 563 Q439 600 413.5 621.5 Q388 643 313 643 Q226 643 198.5 614.5 Q171 586 165 541 L158 489 Q157 482 157 476.5 Q157 471 157 466 Q157 429 182 407.5 Q207 386 282 386 Q368 386 397 414.5 Q426 443 431 489 Z M394 139 L406 237 Q407 245 407 250 Q407 255 407 259 Q407 296 380 319 Q353 342 276 342 Q189 342 158 313.5 Q127 285 122 239 L110 139 Q109 132 108.5 126.5 Q108 121 108 115 Q108 81 135 59 Q162 37 239 37 Q326 37 357.5 65.5 Q389 94 394 139 Z " />
<glyph glyph-name="nine" unicode="9" horiz-adv-x="543" d="M154 541 L140 425 Q139 419 138.5 414 Q138 409 138 405 Q138 368 166 345.5 Q194 323 271 323 Q353 323 387 349.5 Q421 376 425 416 L439 538 Q440 545 440.5 550.5 Q441 556 441 561 Q441 598 413.5 620.5 Q386 643 310 643 Q223 643 191 614.5 Q159 586 154 541 Z M493 547 L442 127 Q436 77 396.5 34.5 Q357 -8 236 -8 Q131 -8 94 27.5 Q57 63 57 107 Q57 110 57 115 Q57 120 58 127 L60 143 Q61 149 64 152 Q67 155 73 155 L102 155 Q107 155 110 152 Q113 149 112 143 L111 133 Q111 130 110.5 125.5 Q110 121 110 118 Q110 86 136 61.5 Q162 37 240 37 Q326 37 356 66 Q386 95 390 133 L415 333 Q397 308 360 293 Q323 278 260 278 Q161 278 122.5 312 Q84 346 84 395 Q84 401 84.5 408 Q85 415 86 421 L102 547 Q109 605 151.5 646.5 Q194 688 313 688 Q417 688 456 654.5 Q495 621 495 572 Q495 565 494.5 559 Q494 553 493 547 Z " />
<glyph glyph-name="colon" unicode="&#x3a;" horiz-adv-x="211" d="M156 480 L146 403 Q145 397 142.5 394 Q140 391 133 391 L104 391 Q97 391 95 394 Q93 397 94 403 L103 480 Q104 487 107 490 Q110 493 116 493 L146 493 Q152 493 154.5 490 Q157 487 156 480 Z M107 89 L98 12 Q97 5 94 2.5 Q91 0 85 0 L55 0 Q49 0 46.5 2.5 Q44 5 45 12 L54 89 Q55 95 58.5 98 Q62 101 68 101 L98 101 Q103 101 105.5 98 Q108 95 107 89 Z " />
<glyph glyph-name="semicolon" unicode="&#x3b;" horiz-adv-x="238" d="M173 480 L164 403 Q163 397 160 394 Q157 391 151 391 L121 391 Q115 391 112.5 394 Q110 397 111 403 L120 480 Q121 487 124.5 490 Q128 493 134 493 L164 493 Q170 493 172 490 Q174 487 173 480 Z M65 30 L73 89 Q74 96 77 98.5 Q80 101 85 101 L116 101 Q122 101 124 98 Q126 95 125 89 L118 28 Q113 -15 88 -43.5 Q63 -72 16 -86 Q11 -87 7.5 -86 Q4 -85 3 -80 L-3 -58 Q-4 -54 -2.5 -50 Q-1 -46 6 -43 Q37 -30 49.5 -12.5 Q62 5 65 30 Z " />
<glyph glyph-name="less" unicode="&#x3c;" horiz-adv-x="510" d="M417 478 L107 340 L417 203 Q423 201 426 198 Q429 195 429 189 L429 160 Q429 154 425.5 151.5 Q422 149 417 151 L66 311 Q61 313 58 315.5 Q55 318 55 325 L55 356 Q55 362 58 365 Q61 368 66 370 L417 530 Q422 532 425.5 529.5 Q429 527 429 521 L429 492 Q429 486 426 483 Q423 480 417 478 Z " />
<glyph glyph-name="equal" unicode="&#x3d;" horiz-adv-x="610" d="M110 442 L507 442 Q513 442 515.5 439 Q518 436 518 430 L518 409 Q518 403 515.5 400 Q513 397 507 397 L110 397 Q104 397 101 400 Q98 403 98 409 L98 430 Q98 436 101 439 Q104 442 110 442 Z M110 271 L507 271 Q513 271 515.5 268.5 Q518 266 518 259 L518 238 Q518 232 515.5 229 Q513 226 507 226 L110 226 Q104 226 101 229 Q98 232 98 238 L98 259 Q98 266 101 268.5 Q104 271 110 271 Z " />
<glyph glyph-name="greater" unicode="&#x3e;" horiz-adv-x="498" d="M403 340 L93 478 Q88 480 84.5 483 Q81 486 81 491 L81 521 Q81 528 84.5 530.5 Q88 533 93 531 L444 370 Q449 368 452 365 Q455 362 455 357 L455 324 Q455 317 452 315 Q449 313 444 311 L93 150 Q88 148 84.5 150.5 Q81 153 81 160 L81 189 Q81 195 84.5 198 Q88 201 93 203 L403 340 Z " />
<glyph glyph-name="question" unicode="&#x3f;" horiz-adv-x="502" d="M197 169 L208 250 Q214 295 241.5 317 Q269 339 287 347 L354 379 Q367 386 390.5 405 Q414 424 418 461 L428 540 Q429 547 429 551 Q429 555 429 559 Q429 596 399 619.5 Q369 643 291 643 Q204 643 169 614.5 Q134 586 129 540 L123 491 Q122 484 119 481 Q116 478 110 478 L81 478 Q75 478 72.5 481 Q70 484 71 491 L78 547 Q85 605 130 646.5 Q175 688 295 688 Q401 688 442 652.5 Q483 617 483 567 Q483 563 483 557.5 Q483 552 482 545 L471 461 Q464 404 431.5 377.5 Q399 351 376 340 L321 314 Q305 306 284.5 288.5 Q264 271 260 239 L251 169 Q250 162 247 159.5 Q244 157 238 157 L208 157 Q201 157 198.5 160.5 Q196 164 197 169 Z M241 89 L232 12 Q231 5 228 2.5 Q225 0 218 0 L189 0 Q183 0 180.5 2.5 Q178 5 179 12 L188 88 Q189 95 192 98 Q195 101 201 101 L231 101 Q238 101 240 98 Q242 95 241 89 Z " />
<glyph glyph-name="at" unicode="&#x40;" horiz-adv-x="790" d="M531 -113 L346 -113 Q171 -113 109 -72 Q47 -31 47 28 Q47 37 48.5 47.5 Q50 58 51 65 L99 455 Q107 521 173 568.5 Q239 616 433 616 Q609 616 670.5 575 Q732 534 732 476 Q732 471 731.5 464.5 Q731 458 730 450 L694 156 Q687 102 658 67.5 Q629 33 565 33 Q524 33 499.5 50.5 Q475 68 470 98 Q448 81 403 57 Q358 33 301 33 Q247 33 222 56.5 Q197 80 197 119 Q197 126 198 136 Q199 146 201 155 L241 335 Q253 390 285.5 424.5 Q318 459 389 459 Q437 459 473 438 Q509 417 528 400 L538 439 Q539 445 542.5 448 Q546 451 552 451 L576 451 Q582 451 584.5 447.5 Q587 444 586 439 L523 164 Q521 155 519.5 145.5 Q518 136 518 128 Q518 103 531.5 88 Q545 73 571 73 Q606 73 622 98 Q638 123 643 162 L679 448 Q680 453 680 458.5 Q680 464 680 468 Q680 514 627 543.5 Q574 573 429 573 Q273 573 215 539 Q157 505 150 454 L101 62 Q100 56 99 49.5 Q98 43 98 36 Q98 -13 151.5 -41 Q205 -69 350 -69 L536 -69 Q543 -69 545 -72.5 Q547 -76 546 -81 L544 -102 Q543 -107 540 -110 Q537 -113 531 -113 Z M290 327 L254 163 Q253 155 251.5 146.5 Q250 138 250 131 Q250 108 267 94 Q284 80 324 80 Q370 80 409 101 Q448 122 467 135 Q468 139 469 145 Q470 151 471 155 L516 356 Q503 369 474 390.5 Q445 412 397 412 Q345 412 321 386.5 Q297 361 290 327 Z " />
<glyph glyph-name="A" unicode="A" horiz-adv-x="525" d="M366 249 L315 517 Q310 543 307 572.5 Q304 602 303 624 Q299 611 288 575.5 Q277 540 268 519 L150 249 L366 249 Z M296 680 L327 680 Q333 680 336 677 Q339 674 340 668 L462 12 Q463 6 461 3 Q459 0 453 0 L422 0 Q416 0 413 3 Q410 6 409 12 L372 206 L131 206 L48 12 Q45 6 42 3 Q39 0 33 0 L4 0 Q-3 0 -4.5 3.5 Q-6 7 -4 12 L279 668 Q282 674 286 677 Q290 680 296 680 Z " />
<glyph glyph-name="B" unicode="B" horiz-adv-x="578" d="M271 0 L74 0 Q69 0 65.5 2.5 Q62 5 63 12 L143 668 Q144 674 147.5 677 Q151 680 157 680 L325 680 Q432 680 475.5 645.5 Q519 611 519 560 Q519 556 519 551 Q519 546 518 539 L510 474 Q505 431 479.5 400.5 Q454 370 400 355 Q456 344 482 315 Q508 286 508 248 Q508 245 508 240 Q508 235 507 228 L496 138 Q489 80 441 40 Q393 0 271 0 Z M321 635 L193 635 L160 373 L300 373 Q379 373 415.5 401 Q452 429 457 474 L464 533 Q465 539 465 543 Q465 547 465 551 Q465 589 433 612 Q401 635 321 635 Z M310 330 L155 330 L120 45 L274 45 Q361 45 400 72.5 Q439 100 444 146 L453 225 Q454 231 454 235 Q454 239 454 243 Q454 281 422.5 305.5 Q391 330 310 330 Z " />
<glyph glyph-name="C" unicode="C" horiz-adv-x="549" d="M481 198 L474 133 Q468 75 421.5 33.5 Q375 -8 253 -8 Q146 -8 104.5 26.5 Q63 61 63 111 Q63 116 63.5 122.5 Q64 129 65 135 L115 547 Q122 605 167.5 646.5 Q213 688 335 688 Q442 688 483.5 653.5 Q525 619 525 568 Q525 563 525 557.5 Q525 552 524 545 L517 495 Q516 488 513.5 485 Q511 482 505 482 L476 482 Q470 482 467.5 485.5 Q465 489 466 495 L471 537 Q472 541 472 546.5 Q472 552 472 556 Q472 594 441.5 618 Q411 642 332 642 Q245 642 209.5 613.5 Q174 585 168 539 L119 143 Q118 137 118 132 Q118 127 118 123 Q118 85 148.5 61.5 Q179 38 257 38 Q345 38 382 66.5 Q419 95 423 141 L429 198 Q430 204 433 206.5 Q436 209 442 209 L471 209 Q478 209 480 206 Q482 203 481 198 Z " />
<glyph glyph-name="D" unicode="D" horiz-adv-x="599" d="M273 0 L73 0 Q68 0 65 3 Q62 6 63 12 L143 668 Q144 674 147.5 677 Q151 680 156 680 L351 680 Q459 680 503 644.5 Q547 609 547 558 Q547 553 546.5 546 Q546 539 545 534 L497 141 Q490 83 442.5 41.5 Q395 0 273 0 Z M348 634 L193 634 L120 46 L276 46 Q363 46 401.5 74.5 Q440 103 445 149 L491 528 Q492 534 492.5 539 Q493 544 493 547 Q493 586 461 610 Q429 634 348 634 Z " />
<glyph glyph-name="E" unicode="E" horiz-adv-x="523" d="M427 0 L73 0 Q68 0 65 3 Q62 6 63 12 L143 668 Q144 674 147.5 677 Q151 680 157 680 L498 680 Q504 680 507 677.5 Q510 675 509 668 L506 646 Q505 639 502 636.5 Q499 634 492 634 L193 634 L162 380 L443 380 Q449 380 451.5 377.5 Q454 375 453 368 L451 347 Q450 341 447 338 Q444 335 438 335 L156 335 L120 46 L432 46 Q438 46 441 43.5 Q444 41 443 34 L440 12 Q439 5 436.5 2.5 Q434 0 427 0 Z " />
<glyph glyph-name="F" unicode="F" horiz-adv-x="534" d="M157 680 L524 680 Q530 680 533 677.5 Q536 675 535 668 L532 646 Q531 639 528 636.5 Q525 634 519 634 L193 634 L161 378 L468 378 Q475 378 477.5 375.5 Q480 373 479 366 L476 344 Q475 338 472 335 Q469 332 463 332 L156 332 L116 12 Q115 6 112.5 3 Q110 0 104 0 L74 0 Q68 0 65 3 Q62 6 63 12 L143 668 Q144 674 147.5 677 Q151 680 157 680 Z " />
<glyph glyph-name="G" unicode="G" horiz-adv-x="568" d="M301 319 L484 319 Q491 319 493.5 315.5 Q496 312 495 307 L474 133 Q467 75 421 33.5 Q375 -8 253 -8 Q146 -8 105 26.5 Q64 61 64 110 Q64 115 64 121.5 Q64 128 65 135 L115 547 Q122 605 167.5 646.5 Q213 688 335 688 Q442 688 483.5 653 Q525 618 525 567 Q525 564 525 558 Q525 552 524 544 L518 497 Q517 491 514.5 488 Q512 485 505 485 L477 485 Q470 485 467.5 488 Q465 491 466 497 L471 539 Q472 546 472 551 Q472 556 472 557 Q472 594 441.5 618 Q411 642 332 642 Q245 642 209.5 613.5 Q174 585 168 539 L119 143 Q118 136 118 131 Q118 126 118 123 Q118 85 148 61.5 Q178 38 257 38 Q344 38 380 66 Q416 94 422 139 L439 273 L296 273 Q290 273 287 276 Q284 279 285 285 L287 307 Q288 313 291.5 316 Q295 319 301 319 Z " />
<glyph glyph-name="H" unicode="H" horiz-adv-x="610" d="M197 668 L162 386 L474 386 L508 668 Q509 674 512 677 Q515 680 522 680 L552 680 Q558 680 560 677 Q562 674 561 668 L481 12 Q480 6 477.5 3 Q475 0 469 0 L439 0 Q432 0 429.5 3 Q427 6 428 12 L468 340 L157 340 L116 12 Q115 6 112.5 3 Q110 0 104 0 L74 0 Q68 0 65 3 Q62 6 63 12 L143 668 Q144 674 147.5 677 Q151 680 157 680 L187 680 Q193 680 195.5 677 Q198 674 197 668 Z " />
<glyph glyph-name="I" unicode="I" horiz-adv-x="246" d="M197 668 L116 12 Q115 6 112.5 3 Q110 0 104 0 L74 0 Q68 0 65 3 Q62 6 63 12 L143 668 Q144 674 147.5 677 Q151 680 157 680 L187 680 Q193 680 195.5 677 Q198 674 197 668 Z " />
<glyph glyph-name="J" unicode="J" horiz-adv-x="492" d="M69 174 L65 142 Q64 136 63.5 130 Q63 124 63 119 Q63 82 89 60 Q115 38 184 38 Q262 38 291 66.5 Q320 95 326 141 L392 668 Q393 674 395.5 677 Q398 680 404 680 L434 680 Q441 680 443.5 677 Q446 674 445 668 L379 133 Q372 75 332 33.5 Q292 -8 180 -8 Q84 -8 47 26 Q10 60 10 110 Q10 116 10.5 123 Q11 130 12 137 L17 174 Q18 181 21 183.5 Q24 186 30 186 L59 186 Q66 186 68 183 Q70 180 69 174 Z " />
<glyph glyph-name="K" unicode="K" horiz-adv-x="539" d="M237 345 L485 12 Q488 8 485.5 4 Q483 0 478 0 L440 0 Q433 0 429 3.5 Q425 7 421 12 L190 320 L154 320 L116 12 Q115 6 112.5 3 Q110 0 104 0 L74 0 Q68 0 65 2.5 Q62 5 63 12 L143 668 Q144 675 147.5 677.5 Q151 680 157 680 L187 680 Q193 680 195.5 677 Q198 674 197 668 L160 361 L192 361 L477 669 Q481 673 486 676.5 Q491 680 498 680 L532 680 Q537 680 538.5 676.5 Q540 673 536 668 L237 345 Z " />
<glyph glyph-name="L" unicode="L" horiz-adv-x="476" d="M197 668 L120 46 L416 46 Q422 46 424.5 43.5 Q427 41 426 34 L424 12 Q423 5 420 2.5 Q417 0 411 0 L72 0 Q67 0 64.5 3 Q62 6 63 12 L143 668 Q144 674 147.5 677 Q151 680 157 680 L187 680 Q193 680 195.5 677 Q198 674 197 668 Z " />
<glyph glyph-name="M" unicode="M" horiz-adv-x="720" d="M671 668 L591 12 Q590 6 587.5 3 Q585 0 578 0 L550 0 Q543 0 540.5 3 Q538 6 539 12 L607 566 Q604 558 596.5 541 Q589 524 583 513 L369 116 Q366 110 362 107 Q358 104 352 104 L325 104 Q318 104 314.5 107 Q311 110 310 116 L190 520 Q189 525 186 538 Q183 551 181 565 L113 12 Q112 6 109.5 3 Q107 0 100 0 L74 0 Q67 0 64.5 3 Q62 6 63 12 L143 668 Q144 673 147 676.5 Q150 680 156 680 L182 680 Q186 680 188.5 678.5 Q191 677 192 673 L333 206 Q336 196 339.5 182.5 Q343 169 345 159 Q346 164 353.5 179 Q361 194 367 205 L620 674 Q621 677 624 678.5 Q627 680 631 680 L661 680 Q668 680 670 677 Q672 674 671 668 Z " />
<glyph glyph-name="N" unicode="N" horiz-adv-x="608" d="M559 668 L478 12 Q477 6 474.5 3 Q472 0 466 0 L441 0 Q437 0 434 1.5 Q431 3 430 6 L206 515 Q200 528 193 545.5 Q186 563 182 576 L113 12 Q112 6 109.5 3 Q107 0 100 0 L74 0 Q67 0 64.5 3 Q62 6 63 12 L143 668 Q144 674 147 677 Q150 680 157 680 L181 680 Q185 680 187.5 678.5 Q190 677 191 675 L417 162 Q421 152 430 130.5 Q439 109 440 105 L509 668 Q510 674 513 677 Q516 680 522 680 L549 680 Q555 680 557.5 677 Q560 674 559 668 Z " />
<glyph glyph-name="O" unicode="O" horiz-adv-x="587" d="M65 135 L115 547 Q122 605 170 646.5 Q218 688 340 688 Q447 688 490.5 652.5 Q534 617 534 566 Q534 564 534 559 Q534 554 533 545 L483 133 Q476 75 427.5 33.5 Q379 -8 257 -8 Q150 -8 107 26.5 Q64 61 64 112 Q64 117 64 122 Q64 127 65 135 Z M430 141 L479 537 Q480 541 480 546 Q480 551 480 555 Q480 594 448 618 Q416 642 335 642 Q249 642 211.5 613.5 Q174 585 168 539 L119 143 Q118 139 118 134 Q118 129 118 125 Q118 86 150 62 Q182 38 262 38 Q349 38 386.5 66.5 Q424 95 430 141 Z " />
<glyph glyph-name="P" unicode="P" horiz-adv-x="566" d="M302 269 L148 269 L116 12 Q115 6 112.5 3 Q110 0 104 0 L74 0 Q68 0 65 3 Q62 6 63 12 L143 668 Q144 674 147.5 677 Q151 680 156 680 L350 680 Q457 680 500 643 Q543 606 543 554 Q543 550 543 544.5 Q543 539 542 531 L527 406 Q520 346 472 307.5 Q424 269 302 269 Z M346 634 L193 634 L154 315 L306 315 Q394 315 431.5 341.5 Q469 368 475 414 L489 525 Q490 531 490 536 Q490 541 490 544 Q490 584 458.5 609 Q427 634 346 634 Z " />
<glyph glyph-name="Q" unicode="Q" horiz-adv-x="587" d="M421 -169 Q417 -173 413 -173.5 Q409 -174 405 -170 L251 -8 Q147 -7 105.5 27 Q64 61 64 111 Q64 116 64 121.5 Q64 127 65 135 L115 547 Q122 605 170 646.5 Q218 688 340 688 Q447 688 490.5 652.5 Q534 617 534 566 Q534 564 534 558 Q534 552 533 545 L483 133 Q477 82 440 43.5 Q403 5 313 -5 L440 -136 Q444 -140 443.5 -144 Q443 -148 439 -152 L421 -169 Z M430 141 L479 537 Q480 543 480 548 Q480 553 480 555 Q480 594 448 618 Q416 642 335 642 Q249 642 211.5 613.5 Q174 585 168 539 L119 143 Q118 138 118 133 Q118 128 118 125 Q118 86 150 62 Q182 38 262 38 Q349 38 386.5 66.5 Q424 95 430 141 Z " />
<glyph glyph-name="R" unicode="R" horiz-adv-x="584" d="M346 634 L193 634 L155 327 L308 327 Q395 327 433 353.5 Q471 380 477 426 L489 525 Q490 532 490 536.5 Q490 541 490 543 Q490 584 458.5 609 Q427 634 346 634 Z M116 12 Q115 6 112.5 3 Q110 0 104 0 L74 0 Q68 0 65 2.5 Q62 5 63 12 L143 668 Q144 674 147.5 677 Q151 680 156 680 L349 680 Q456 680 499.5 643 Q543 606 543 553 Q543 551 543 545.5 Q543 540 542 532 L529 419 Q523 371 491.5 336 Q460 301 385 288 L487 12 Q488 7 485 3.5 Q482 0 475 0 L446 0 Q439 0 435 4 Q431 8 430 12 L331 283 Q324 282 317 282 Q310 282 303 282 L149 282 L116 12 Z " />
<glyph glyph-name="S" unicode="S" horiz-adv-x="548" d="M448 498 L453 541 Q454 548 454 552.5 Q454 557 454 559 Q454 596 424 619.5 Q394 643 316 643 Q229 643 193.5 615 Q158 587 154 542 L150 502 Q149 495 149 492 Q149 489 149 488 Q149 459 166 443.5 Q183 428 203 420 L384 347 Q422 331 446.5 304 Q471 277 471 235 Q471 231 471 227.5 Q471 224 470 217 L461 133 Q455 75 406.5 33.5 Q358 -8 237 -8 Q130 -8 87 27 Q44 62 44 113 Q44 117 44 122.5 Q44 128 45 135 L51 185 Q52 192 55 195 Q58 198 64 198 L93 198 Q100 198 102.5 195 Q105 192 104 185 L98 141 Q97 134 97 129 Q97 124 97 122 Q97 84 128.5 60.5 Q160 37 240 37 Q328 37 365 65 Q402 93 408 139 L417 212 Q418 219 418 221.5 Q418 224 418 225 Q418 256 395.5 274 Q373 292 346 303 L177 371 Q143 384 119.5 411.5 Q96 439 96 478 Q96 480 96 484.5 Q96 489 97 496 L103 547 Q110 605 154.5 646.5 Q199 688 320 688 Q425 688 465.5 653 Q506 618 506 568 Q506 566 506 560 Q506 554 505 547 L500 498 Q499 492 496 489 Q493 486 487 486 L458 486 Q452 486 449.5 488.5 Q447 491 448 498 Z " />
<glyph glyph-name="T" unicode="T" horiz-adv-x="486" d="M83 680 L498 680 Q504 680 507 677.5 Q510 675 509 668 L507 646 Q506 639 503 636.5 Q500 634 494 634 L312 634 L235 12 Q234 6 232 3 Q230 0 223 0 L193 0 Q187 0 184 3 Q181 6 182 12 L259 634 L78 634 Q72 634 69 636.5 Q66 639 67 646 L70 668 Q71 675 74 677.5 Q77 680 83 680 Z " />
<glyph glyph-name="U" unicode="U" horiz-adv-x="603" d="M192 668 L128 147 Q127 140 126.5 135 Q126 130 126 125 Q126 86 158.5 62 Q191 38 270 38 Q358 38 395.5 66.5 Q433 95 439 141 L504 668 Q505 674 507.5 677 Q510 680 516 680 L546 680 Q551 680 554.5 677.5 Q558 675 557 668 L491 133 Q484 75 436 33.5 Q388 -8 266 -8 Q159 -8 115.5 27.5 Q72 63 72 114 Q72 119 72.5 125.5 Q73 132 74 137 L139 668 Q140 674 142.5 677 Q145 680 152 680 L182 680 Q186 680 189.5 677.5 Q193 675 192 668 Z " />
<glyph glyph-name="V" unicode="V" horiz-adv-x="525" d="M213 0 Q207 0 203 3 Q199 6 198 12 L76 668 Q75 675 78 677.5 Q81 680 87 680 L119 680 Q125 680 127.5 677 Q130 674 131 668 L226 163 Q230 144 232.5 112 Q235 80 236 68 Q240 79 251.5 111 Q263 143 270 161 L488 668 Q491 674 494.5 677 Q498 680 504 680 L535 680 Q542 680 544 677.5 Q546 675 543 668 L260 12 Q257 6 253.5 3 Q250 0 244 0 L213 0 Z " />
<glyph glyph-name="W" unicode="W" horiz-adv-x="808" d="M481 668 L548 162 Q550 143 552 119 Q554 95 554 88 Q555 95 563.5 119 Q572 143 579 162 L770 668 Q772 674 776 677 Q780 680 786 680 L813 680 Q820 680 821.5 677.5 Q823 675 821 668 L574 12 Q572 6 568 3 Q564 0 558 0 L528 0 Q522 0 518.5 3 Q515 6 514 12 L448 526 Q447 539 444.5 561 Q442 583 442 591 Q440 583 433 561 Q426 539 421 526 L227 12 Q225 6 221 3 Q217 0 211 0 L181 0 Q175 0 171.5 3 Q168 6 167 12 L81 668 Q80 675 83 677.5 Q86 680 92 680 L122 680 Q129 680 131.5 677 Q134 674 135 668 L202 162 Q204 148 206 122.5 Q208 97 208 91 Q209 97 218 122 Q227 147 233 162 L425 668 Q427 674 430.5 677 Q434 680 440 680 L469 680 Q475 680 477.5 677 Q480 674 481 668 Z " />
<glyph glyph-name="X" unicode="X" horiz-adv-x="523" d="M299 344 L455 12 Q457 7 456 3.5 Q455 0 448 0 L414 0 Q407 0 402.5 3.5 Q398 7 396 12 L261 297 L61 12 Q58 8 54 4 Q50 0 43 0 L9 0 Q3 0 1.5 4 Q0 8 4 13 L239 346 L88 667 Q86 672 87.5 676 Q89 680 95 680 L130 680 Q136 680 140 676.5 Q144 673 146 668 L277 391 L469 668 Q473 674 477.5 677 Q482 680 489 680 L523 680 Q529 680 530 676.5 Q531 673 527 668 L299 344 Z " />
<glyph glyph-name="Y" unicode="Y" horiz-adv-x="515" d="M129 668 L253 360 Q255 354 258.5 344.5 Q262 335 263 327 Q265 332 270.5 342.5 Q276 353 281 360 L482 668 Q486 673 489 676.5 Q492 680 498 680 L530 680 Q536 680 538.5 677.5 Q541 675 537 668 L284 282 L251 12 Q250 6 247.5 3 Q245 0 239 0 L209 0 Q203 0 200 3 Q197 6 198 12 L230 276 L72 668 Q70 674 73 677 Q76 680 82 680 L116 680 Q122 680 124.5 677 Q127 674 129 668 Z " />
<glyph glyph-name="Z" unicode="Z" horiz-adv-x="473" d="M113 680 L460 680 Q466 680 468.5 677.5 Q471 675 470 668 L468 646 Q468 642 466 639 Q464 636 463 634 L71 46 L397 46 Q403 46 406 43.5 Q409 41 408 34 L405 12 Q404 5 401.5 2.5 Q399 0 393 0 L12 0 Q5 0 2.5 2.5 Q0 5 1 11 L3 32 Q4 36 6.5 41 Q9 46 11 49 L400 634 L107 634 Q102 634 98.5 636.5 Q95 639 96 646 L99 668 Q100 675 103 677.5 Q106 680 113 680 Z " />
<glyph glyph-name="bracketleft" unicode="&#x5b;" horiz-adv-x="308" d="M23 -199 L133 687 Q134 694 137 696.5 Q140 699 146 699 L320 699 Q326 699 328.5 696.5 Q331 694 330 687 L328 665 Q327 658 324 655.5 Q321 653 315 653 L182 653 L80 -165 L214 -165 Q220 -165 222.5 -167.5 Q225 -170 224 -177 L222 -199 Q221 -206 218 -208.5 Q215 -211 209 -211 L34 -211 Q29 -211 25.5 -208.5 Q22 -206 23 -199 Z " />
<glyph glyph-name="backslash" unicode="&#x5c;" horiz-adv-x="348" d="M206 -136 L87 687 Q86 692 88 695.5 Q90 699 97 699 L127 699 Q133 699 136.5 696.5 Q140 694 141 687 L259 -135 Q260 -141 257.5 -144.5 Q255 -148 249 -148 L219 -148 Q212 -148 209.5 -145 Q207 -142 206 -136 Z " />
<glyph glyph-name="bracketright" unicode="&#x5d;" horiz-adv-x="308" d="M274 687 L165 -199 Q164 -206 160.5 -208.5 Q157 -211 152 -211 L-22 -211 Q-28 -211 -31 -208.5 Q-34 -206 -33 -199 L-30 -177 Q-29 -170 -26.5 -167.5 Q-24 -165 -17 -165 L116 -165 L217 653 L84 653 Q78 653 75.5 655.5 Q73 658 74 665 L76 687 Q77 694 80 696.5 Q83 699 89 699 L263 699 Q269 699 272 696.5 Q275 694 274 687 Z " />
<glyph glyph-name="asciicircum" unicode="&#x5e;" horiz-adv-x="484" d="M388 317 L250 627 L112 317 Q110 312 107 308.5 Q104 305 99 305 L70 305 Q64 305 61.5 308.5 Q59 312 61 317 L221 669 Q223 673 225.5 676.5 Q228 680 234 680 L266 680 Q272 680 274.5 676.5 Q277 673 279 669 L440 317 Q442 312 439.5 308.5 Q437 305 431 305 L402 305 Q396 305 393 308.5 Q390 312 388 317 Z " />
<glyph glyph-name="underscore" unicode="&#x5f;" horiz-adv-x="384" d="M-36 -88 L321 -88 Q327 -88 329.5 -90.5 Q332 -93 332 -99 L332 -120 Q332 -127 329.5 -129.5 Q327 -132 321 -132 L-36 -132 Q-42 -132 -45 -129.5 Q-48 -127 -48 -120 L-48 -99 Q-48 -93 -45 -90.5 Q-42 -88 -36 -88 Z " />
<glyph glyph-name="grave" unicode="&#x60;" horiz-adv-x="336" d="M255 577 L189 696 Q187 700 188.5 704 Q190 708 197 708 L227 708 Q234 708 237 705 Q240 702 242 698 L299 581 Q302 575 299.5 572.5 Q297 570 292 570 L269 570 Q263 570 259.5 572 Q256 574 255 577 Z " />
<glyph glyph-name="a" unicode="a" horiz-adv-x="520" d="M136 371 L104 121 Q103 117 103 114 Q103 111 103 107 Q103 78 124 58.5 Q145 39 193 39 Q251 39 296 62 Q341 85 360 98 L397 394 Q381 407 342.5 430.5 Q304 454 244 454 Q193 454 166.5 429.5 Q140 405 136 371 Z M355 53 Q331 36 285 14 Q239 -8 175 -8 Q112 -8 81.5 20 Q51 48 51 94 Q51 99 51 104 Q51 109 52 115 L85 378 Q92 432 127.5 466.5 Q163 501 236 501 Q299 501 341.5 478.5 Q384 456 403 439 L410 480 Q411 487 414 490 Q417 493 424 493 L449 493 Q454 493 457 490 Q460 487 459 480 L401 12 Q400 6 397 3 Q394 0 388 0 L362 0 Q357 0 354 2.5 Q351 5 352 12 L355 53 Z " />
<glyph glyph-name="b" unicode="b" horiz-adv-x="520" d="M85 0 L60 0 Q54 0 51.5 3.5 Q49 7 50 12 L132 687 Q133 694 136.5 696.5 Q140 699 146 699 L175 699 Q182 699 183.5 695 Q185 691 184 687 L155 440 Q178 457 223.5 479 Q269 501 333 501 Q395 501 426.5 472 Q458 443 458 396 Q458 392 458 388 Q458 384 457 378 L424 115 Q417 61 380.5 26.5 Q344 -8 272 -8 Q209 -8 167 14 Q125 36 105 53 L99 12 Q98 6 94.5 3 Q91 0 85 0 Z M373 121 L404 371 Q405 375 405 378.5 Q405 382 405 385 Q405 415 384 434.5 Q363 454 316 454 Q257 454 212 430.5 Q167 407 148 394 L112 98 Q127 85 165.5 62 Q204 39 265 39 Q317 39 343 63 Q369 87 373 121 Z " />
<glyph glyph-name="c" unicode="c" horiz-adv-x="478" d="M274 501 Q364 501 399.5 472 Q435 443 435 396 Q435 392 435 388 Q435 384 434 376 L432 358 Q431 351 428.5 348.5 Q426 346 420 346 L393 346 Q387 346 384 349 Q381 352 382 357 L384 374 Q385 380 385 383 Q385 386 385 390 Q385 420 361 438.5 Q337 457 271 457 Q198 457 169 434 Q140 411 136 374 L105 123 Q104 118 103.5 112.5 Q103 107 103 103 Q103 74 127.5 55 Q152 36 218 36 Q292 36 319.5 58.5 Q347 81 353 118 L357 143 Q358 150 360.5 152.5 Q363 155 370 155 L396 155 Q403 155 405 152 Q407 149 406 143 L403 115 Q397 62 357 27 Q317 -8 213 -8 Q124 -8 87.5 20.5 Q51 49 51 95 Q51 98 51 102.5 Q51 107 52 115 L84 377 Q91 431 131.5 466 Q172 501 274 501 Z " />
<glyph glyph-name="d" unicode="d" horiz-adv-x="519" d="M136 371 L105 123 Q104 116 104 111 Q104 106 104 105 Q104 77 125.5 58 Q147 39 193 39 Q251 39 296 62 Q341 85 360 98 L396 394 Q381 407 342 430.5 Q303 454 244 454 Q192 454 166 429.5 Q140 405 136 371 Z M355 53 Q331 36 285.5 14 Q240 -8 175 -8 Q112 -8 81 20.5 Q50 49 50 92 Q50 98 50.5 103.5 Q51 109 52 115 L85 378 Q92 432 127.5 466.5 Q163 501 235 501 Q297 501 339.5 479 Q382 457 402 440 L432 687 Q433 693 436 696 Q439 699 445 699 L474 699 Q479 699 482 696 Q485 693 484 687 L401 12 Q400 6 397 3 Q394 0 388 0 L362 0 Q356 0 353.5 3 Q351 6 352 12 L355 53 Z " />
<glyph glyph-name="e" unicode="e" horiz-adv-x="494" d="M438 377 L422 253 Q421 248 418 245 Q415 242 410 242 L118 242 L103 121 Q102 116 102 111.5 Q102 107 102 104 Q102 72 127.5 53 Q153 34 219 34 Q292 34 322 57.5 Q352 81 356 116 L359 139 Q360 145 363.5 148 Q367 151 373 151 L398 151 Q404 151 406.5 148 Q409 145 408 139 L405 115 Q398 61 358 26.5 Q318 -8 215 -8 Q125 -8 87.5 21.5 Q50 51 50 97 Q50 101 50 104.5 Q50 108 51 115 L84 377 Q91 431 132 466 Q173 501 275 501 Q364 501 401.5 471.5 Q439 442 439 396 Q439 392 439 388 Q439 384 438 377 Z M135 376 L123 282 L376 282 L388 373 Q389 379 389 382 Q389 385 389 389 Q389 420 363.5 439.5 Q338 459 272 459 Q199 459 169 435.5 Q139 412 135 376 Z " />
<glyph glyph-name="f" unicode="f" horiz-adv-x="305" d="M129 491 L140 580 Q147 634 189.5 668.5 Q232 703 333 703 L340 703 Q346 703 348.5 700.5 Q351 698 350 691 L348 670 Q347 663 343.5 660.5 Q340 658 334 658 L329 658 Q256 658 225.5 635 Q195 612 191 575 L181 491 L297 491 Q303 491 306 488.5 Q309 486 308 480 L306 460 Q305 453 302 450.5 Q299 448 293 448 L177 448 L97 -195 Q96 -202 93 -205 Q90 -208 84 -208 L55 -208 Q49 -208 46.5 -205 Q44 -202 45 -195 L125 448 L60 448 Q53 448 50.5 450.5 Q48 453 49 460 L50 476 Q51 483 54 485.5 Q57 488 64 488 L119 491 L129 491 Z " />
<glyph glyph-name="g" unicode="g" horiz-adv-x="520" d="M177 -8 Q114 -8 83 21 Q52 50 52 96 Q52 100 52 104 Q52 108 53 115 L86 378 Q93 432 128.5 466.5 Q164 501 237 501 Q300 501 342.5 478.5 Q385 456 404 439 L411 480 Q412 487 415 490 Q418 493 424 493 L450 493 Q457 493 459 489 Q461 485 460 480 L391 -84 Q384 -138 342.5 -173 Q301 -208 197 -208 L62 -208 Q56 -208 53 -205 Q50 -202 51 -196 L54 -175 Q55 -169 58 -166 Q61 -163 67 -163 L202 -163 Q275 -163 305 -140 Q335 -117 339 -80 L355 52 Q331 35 286 13.5 Q241 -8 177 -8 Z M137 371 L106 124 Q105 120 105 115 Q105 110 105 107 Q105 77 125.5 58 Q146 39 194 39 Q253 39 297.5 62 Q342 85 361 98 L398 394 Q382 407 343 430.5 Q304 454 245 454 Q193 454 167 429.5 Q141 405 137 371 Z " />
<glyph glyph-name="h" unicode="h" horiz-adv-x="526" d="M184 687 L154 440 Q178 458 224 479.5 Q270 501 333 501 Q395 501 426.5 472.5 Q458 444 458 398 Q458 395 458 391.5 Q458 388 457 381 L412 12 Q411 6 408 3 Q405 0 398 0 L370 0 Q365 0 362 2.5 Q359 5 360 12 L403 371 Q404 375 404 378.5 Q404 382 404 385 Q404 416 383 435 Q362 454 315 454 Q256 454 211.5 431 Q167 408 148 394 L102 12 Q101 6 98 3 Q95 0 89 0 L60 0 Q55 0 52 2.5 Q49 5 50 12 L132 687 Q133 693 136.5 696 Q140 699 146 699 L175 699 Q180 699 182.5 696 Q185 693 184 687 Z " />
<glyph glyph-name="i" unicode="i" horiz-adv-x="219" d="M184 687 L173 592 Q172 586 169 583 Q166 580 160 580 L131 580 Q125 580 122.5 583 Q120 586 121 592 L132 687 Q133 693 136.5 696 Q140 699 146 699 L175 699 Q180 699 182.5 696.5 Q185 694 184 687 Z M160 480 L102 12 Q101 6 98 3 Q95 0 89 0 L60 0 Q54 0 51.5 2.5 Q49 5 50 12 L108 480 Q109 486 111.5 489.5 Q114 493 120 493 L149 493 Q155 493 158 490 Q161 487 160 480 Z " />
<glyph glyph-name="j" unicode="j" horiz-adv-x="219" d="M185 687 L173 592 Q172 586 169.5 583 Q167 580 161 580 L132 580 Q126 580 123 583 Q120 586 121 592 L133 687 Q134 693 137 696 Q140 699 146 699 L175 699 Q181 699 183.5 696 Q186 693 185 687 Z M160 480 L90 -84 Q83 -140 41 -174 Q-1 -208 -101 -208 L-108 -208 Q-114 -208 -116.5 -205 Q-119 -202 -118 -196 L-116 -175 Q-115 -169 -112 -166 Q-109 -163 -103 -163 L-98 -163 Q-26 -163 4 -140 Q34 -117 38 -80 L108 480 Q109 486 111.5 489.5 Q114 493 121 493 L150 493 Q156 493 158.5 489.5 Q161 486 160 480 Z " />
<glyph glyph-name="k" unicode="k" horiz-adv-x="455" d="M89 0 L60 0 Q53 0 51 3.5 Q49 7 50 12 L133 687 Q134 693 137 696 Q140 699 146 699 L175 699 Q182 699 184 695.5 Q186 692 185 687 L137 298 L171 298 L373 481 Q378 486 382.5 489.5 Q387 493 394 493 L432 493 Q439 493 440 489 Q441 485 437 481 L214 280 L404 12 Q407 8 405 4 Q403 0 397 0 L362 0 Q355 0 351.5 3.5 Q348 7 344 12 L170 257 L132 257 L102 12 Q101 6 98 3 Q95 0 89 0 Z " />
<glyph glyph-name="l" unicode="l" horiz-adv-x="219" d="M184 687 L102 12 Q101 6 98.5 3 Q96 0 89 0 L60 0 Q54 0 51.5 3 Q49 6 50 12 L132 687 Q133 693 136.5 696 Q140 699 146 699 L175 699 Q181 699 183 696 Q185 693 184 687 Z " />
<glyph glyph-name="m" unicode="m" horiz-adv-x="824" d="M50 12 L108 481 Q108 486 111 489.5 Q114 493 120 493 L146 493 Q152 493 154 490 Q156 487 156 481 L153 440 Q175 457 218.5 479 Q262 501 327 501 Q376 501 407 482 Q438 463 447 432 Q468 448 513.5 474.5 Q559 501 631 501 Q692 501 724 472.5 Q756 444 756 399 Q756 395 756 391.5 Q756 388 755 381 L710 12 Q709 6 706 3 Q703 0 697 0 L668 0 Q664 0 660.5 2.5 Q657 5 658 12 L702 369 Q703 376 703 378.5 Q703 381 703 384 Q703 415 681.5 434.5 Q660 454 614 454 Q555 454 511 430.5 Q467 407 451 394 Q451 390 451 384 Q451 378 450 371 L406 12 Q405 6 402 3 Q399 0 393 0 L364 0 Q359 0 356 2.5 Q353 5 354 12 L397 365 Q398 370 398.5 376 Q399 382 399 384 Q399 415 377.5 434.5 Q356 454 310 454 Q252 454 209 431 Q166 408 148 394 L102 12 Q101 6 98.5 3 Q96 0 89 0 L60 0 Q55 0 52 2.5 Q49 5 50 12 Z " />
<glyph glyph-name="n" unicode="n" horiz-adv-x="526" d="M120 493 L146 493 Q152 493 155 490 Q158 487 157 481 L153 439 Q177 457 223 479 Q269 501 333 501 Q395 501 426.5 472.5 Q458 444 458 398 Q458 394 458 389 Q458 384 457 379 L412 12 Q411 6 408 3 Q405 0 398 0 L370 0 Q365 0 362 2.5 Q359 5 360 12 L404 369 Q405 373 405 377 Q405 381 405 384 Q405 415 384 434.5 Q363 454 316 454 Q257 454 212 431 Q167 408 148 394 L102 12 Q101 6 98 3 Q95 0 89 0 L60 0 Q55 0 52 2.5 Q49 5 50 12 L108 481 Q109 487 111.5 490 Q114 493 120 493 Z " />
<glyph glyph-name="o" unicode="o" horiz-adv-x="507" d="M51 115 L83 377 Q90 431 133 466 Q176 501 279 501 Q369 501 407.5 471.5 Q446 442 446 395 Q446 391 446 387 Q446 383 445 377 L413 115 Q406 61 363 26.5 Q320 -8 218 -8 Q128 -8 89 21.5 Q50 51 50 98 Q50 102 50 106 Q50 110 51 115 Z M361 119 L393 374 Q394 378 394 381 Q394 384 394 386 Q394 418 367 437.5 Q340 457 274 457 Q201 457 170 434 Q139 411 135 374 L103 119 Q102 115 102 112 Q102 109 102 106 Q102 73 129 54.5 Q156 36 222 36 Q295 36 326 59 Q357 82 361 119 Z " />
<glyph glyph-name="p" unicode="p" horiz-adv-x="519" d="M372 121 L403 370 Q404 375 404 378.5 Q404 382 404 385 Q404 415 383 434.5 Q362 454 316 454 Q256 454 211.5 430.5 Q167 407 149 394 L112 98 Q127 85 166 62 Q205 39 265 39 Q317 39 342.5 63 Q368 87 372 121 Z M120 493 L146 493 Q151 493 154 490 Q157 487 156 480 L152 439 Q177 456 223 478.5 Q269 501 333 501 Q396 501 427 472 Q458 443 458 397 Q458 393 458 389 Q458 385 457 378 L424 115 Q417 61 381.5 26.5 Q346 -8 273 -8 Q212 -8 169 13.5 Q126 35 106 52 L76 -195 Q75 -202 72.5 -205 Q70 -208 63 -208 L35 -208 Q30 -208 26.5 -205 Q23 -202 24 -195 L107 480 Q108 487 111 490 Q114 493 120 493 Z " />
<glyph glyph-name="q" unicode="q" horiz-adv-x="520" d="M423 493 L449 493 Q456 493 458 489 Q460 485 459 480 L376 -195 Q375 -202 372 -205 Q369 -208 363 -208 L334 -208 Q327 -208 325 -204 Q323 -200 324 -195 L354 52 Q330 35 284.5 13.5 Q239 -8 176 -8 Q113 -8 82 20.5 Q51 49 51 97 Q51 101 51 104.5 Q51 108 52 115 L85 378 Q92 432 127.5 466.5 Q163 501 236 501 Q299 501 341.5 478.5 Q384 456 403 439 L410 480 Q411 487 414 490 Q417 493 423 493 Z M136 371 L105 124 Q104 119 104 114.5 Q104 110 104 108 Q104 77 124.5 58 Q145 39 193 39 Q252 39 296.5 62 Q341 85 360 98 L397 394 Q381 407 342.5 430.5 Q304 454 244 454 Q192 454 166 429.5 Q140 405 136 371 Z " />
<glyph glyph-name="r" unicode="r" horiz-adv-x="336" d="M329 500 Q336 500 339 497 Q342 494 341 488 L338 463 Q337 457 333.5 454.5 Q330 452 324 452 Q270 451 219 425 Q168 399 147 383 L102 12 Q101 6 98.5 3 Q96 0 89 0 L60 0 Q54 0 51.5 2.5 Q49 5 50 12 L108 481 Q109 487 111.5 490 Q114 493 120 493 L146 493 Q152 493 155 490 Q158 487 157 481 L152 427 Q177 446 224.5 473 Q272 500 329 500 Z " />
<glyph glyph-name="s" unicode="s" horiz-adv-x="470" d="M362 361 L365 384 Q366 391 366 395 Q366 399 366 403 Q366 426 340 444 Q314 462 254 462 Q191 462 160.5 443.5 Q130 425 126 394 L122 364 Q121 359 121 356 Q121 353 121 352 Q121 333 133.5 319 Q146 305 169 298 L321 251 Q355 241 374 219.5 Q393 198 393 172 Q393 171 393 165.5 Q393 160 392 153 L386 97 Q382 53 337 22.5 Q292 -8 197 -8 Q112 -8 72.5 20 Q33 48 33 85 Q33 87 33 91.5 Q33 96 34 103 L37 128 Q38 134 41 136.5 Q44 139 50 139 L77 139 Q81 139 83.5 137 Q86 135 85 128 L83 106 Q82 98 82 94.5 Q82 91 82 90 Q82 65 112 48.5 Q142 32 200 32 Q264 32 299 50.5 Q334 69 338 101 L343 144 Q344 151 344 154.5 Q344 158 344 159 Q344 178 328 190 Q312 202 289 209 L141 257 Q113 266 92 288 Q71 310 71 341 Q71 342 71 346 Q71 350 72 356 L77 395 Q82 438 122.5 469.5 Q163 501 257 501 Q340 501 377.5 472 Q415 443 415 405 Q415 402 415 399 Q415 396 414 387 L411 361 Q410 355 407.5 352.5 Q405 350 398 350 L372 350 Q367 350 364 353 Q361 356 362 361 Z " />
<glyph glyph-name="t" unicode="t" horiz-adv-x="320" d="M172 448 L133 130 Q132 123 132 119 Q132 115 132 112 Q132 80 157.5 62.5 Q183 45 249 45 L264 45 Q271 45 273.5 41.5 Q276 38 275 33 L273 12 Q272 5 269 2.5 Q266 0 259 0 L237 0 Q148 0 113.5 27.5 Q79 55 79 101 Q79 106 79 110.5 Q79 115 80 123 L120 448 L57 448 Q50 448 48 451 Q46 454 47 460 L48 476 Q49 483 52.5 485.5 Q56 488 62 488 L124 491 L125 491 L139 599 Q140 606 143 609 Q146 612 152 612 L181 612 Q187 612 189.5 608.5 Q192 605 191 599 L177 491 L296 491 Q303 491 305 488 Q307 485 306 480 L304 459 Q303 452 300 450 Q297 448 290 448 L172 448 Z " />
<glyph glyph-name="u" unicode="u" horiz-adv-x="520" d="M353 12 L356 52 Q334 35 290 13.5 Q246 -8 183 -8 Q120 -8 88.5 20.5 Q57 49 57 94 Q57 97 57 100.5 Q57 104 58 111 L104 480 Q105 487 108 490 Q111 493 117 493 L146 493 Q150 493 153.5 490 Q157 487 156 480 L111 122 Q110 116 110 112.5 Q110 109 110 107 Q110 77 131 58 Q152 39 200 39 Q258 39 300 61.5 Q342 84 361 98 L408 480 Q409 487 412 490 Q415 493 421 493 L450 493 Q456 493 458.5 490 Q461 487 460 480 L402 12 Q401 6 398.5 3 Q396 0 390 0 L364 0 Q358 0 355 2.5 Q352 5 353 12 Z " />
<glyph glyph-name="v" unicode="v" horiz-adv-x="438" d="M200 0 L167 0 Q162 0 159.5 2.5 Q157 5 156 11 L53 480 Q52 485 55 489 Q58 493 65 493 L95 493 Q100 493 102.5 489.5 Q105 486 106 481 L185 120 Q188 107 189.5 92 Q191 77 192 67 Q194 74 200 90 Q206 106 212 119 L380 481 Q382 486 386 489.5 Q390 493 395 493 L424 493 Q431 493 433 489.5 Q435 486 433 481 L214 11 Q211 5 208 2.5 Q205 0 200 0 Z " />
<glyph glyph-name="w" unicode="w" horiz-adv-x="660" d="M619 493 L645 493 Q651 493 652.5 489 Q654 485 653 481 L465 11 Q463 5 459.5 2.5 Q456 0 450 0 L417 0 Q411 0 408.5 3 Q406 6 405 11 L353 377 Q352 389 350.5 403.5 Q349 418 349 424 Q348 418 341.5 401.5 Q335 385 331 376 L183 11 Q181 6 177.5 3 Q174 0 168 0 L135 0 Q130 0 127.5 3 Q125 6 124 11 L55 481 Q54 486 57.5 489.5 Q61 493 67 493 L96 493 Q101 493 104 489.5 Q107 486 108 481 L162 109 Q163 100 164 90 Q165 80 166 69 Q168 77 172 89 Q176 101 179 109 L328 481 Q330 486 333.5 489.5 Q337 493 343 493 L376 493 Q382 493 384.5 489.5 Q387 486 388 481 L440 109 Q441 99 442 90 Q443 81 444 71 Q446 78 449.5 88.5 Q453 99 457 109 L604 481 Q606 486 609.5 489.5 Q613 493 619 493 Z " />
<glyph glyph-name="x" unicode="x" horiz-adv-x="455" d="M106 493 Q113 493 116 489 Q119 485 122 480 L233 288 L383 480 Q387 485 391.5 489 Q396 493 403 493 L434 493 Q440 493 440.5 488.5 Q441 484 438 480 L253 248 L386 13 Q389 9 387.5 4.5 Q386 0 379 0 L347 0 Q340 0 336.5 4 Q333 8 331 12 L217 212 L57 12 Q53 8 48.5 4 Q44 0 37 0 L7 0 Q2 0 0 4 Q-2 8 2 12 L195 251 L66 480 Q64 484 65 488.5 Q66 493 73 493 L106 493 Z " />
<glyph glyph-name="y" unicode="y" horiz-adv-x="438" d="M433 481 L119 -196 Q117 -201 113 -204.5 Q109 -208 104 -208 L80 -208 Q74 -208 71.5 -205 Q69 -202 72 -196 L160 -2 L53 481 Q52 486 55 489.5 Q58 493 64 493 L94 493 Q100 493 102.5 489.5 Q105 486 106 481 L185 120 Q187 109 190 91.5 Q193 74 193 68 Q197 81 202 93 Q207 105 213 118 L381 481 Q383 486 387 489.5 Q391 493 396 493 L423 493 Q430 493 433 490 Q436 487 433 481 Z " />
<glyph glyph-name="z" unicode="z" horiz-adv-x="422" d="M87 493 L386 493 Q393 493 395.5 490 Q398 487 397 482 L394 462 Q393 458 391.5 454 Q390 450 389 449 L71 44 L344 44 Q350 44 352.5 41.5 Q355 39 354 32 L352 12 Q351 6 348 3 Q345 0 338 0 L14 0 Q8 0 5.5 3 Q3 6 4 12 L6 32 Q6 35 8 38 Q10 41 12 44 L328 449 L82 449 Q76 449 73 451.5 Q70 454 71 461 L74 481 Q75 487 78 490 Q81 493 87 493 Z " />
<glyph glyph-name="braceleft" unicode="&#x7b;" horiz-adv-x="367" d="M153 354 L181 585 Q188 639 229.5 673.5 Q271 708 372 708 L380 708 Q387 708 389 704.5 Q391 701 390 696 L388 675 Q387 669 384 666 Q381 663 375 663 L370 663 Q296 663 267 640 Q238 617 234 580 L205 350 Q200 307 175.5 282.5 Q151 258 107 248 Q145 240 163.5 217.5 Q182 195 182 164 Q182 159 181 151.5 Q180 144 179 137 L152 -81 Q151 -86 150.5 -93 Q150 -100 150 -104 Q150 -135 175 -154 Q200 -173 267 -173 L272 -173 Q279 -173 281 -177 Q283 -181 282 -185 L279 -206 Q278 -213 275.5 -215.5 Q273 -218 267 -218 L263 -218 Q175 -218 135.5 -189 Q96 -160 96 -111 Q96 -107 96.5 -98 Q97 -89 98 -84 L125 133 Q126 139 127 145 Q128 151 128 158 Q128 189 104 207.5 Q80 226 20 226 L19 226 Q12 226 10 229.5 Q8 233 9 238 L11 259 Q12 265 15 268 Q18 271 24 271 L26 271 Q92 271 120.5 294 Q149 317 153 354 Z " />
<glyph glyph-name="bar" unicode="&#x7c;" horiz-adv-x="262" d="M151 687 L151 -199 Q151 -205 148.5 -208 Q146 -211 140 -211 L110 -211 Q103 -211 100.5 -208 Q98 -205 98 -199 L98 687 Q98 693 100.5 696 Q103 699 110 699 L140 699 Q146 699 148.5 696 Q151 693 151 687 Z " />
<glyph glyph-name="braceright" unicode="&#x7d;" horiz-adv-x="367" d="M259 576 L233 362 Q232 358 231.5 351 Q231 344 231 340 Q231 309 254.5 290 Q278 271 338 271 L339 271 Q346 271 348 267.5 Q350 264 349 259 L347 238 Q346 231 343 228.5 Q340 226 334 226 L333 226 Q267 226 238.5 203 Q210 180 206 143 L176 -95 Q169 -149 127.5 -183.5 Q86 -218 -15 -218 L-22 -218 Q-29 -218 -31.5 -215 Q-34 -212 -33 -206 L-31 -185 Q-30 -179 -26.5 -176 Q-23 -173 -17 -173 L-12 -173 Q61 -173 90.5 -150 Q120 -127 124 -90 L153 147 Q158 190 182.5 214.5 Q207 239 252 248 Q214 256 195.5 279 Q177 302 177 333 Q177 338 177.5 347 Q178 356 179 361 L206 574 Q207 579 207.5 585 Q208 591 208 595 Q208 625 182.5 644 Q157 663 91 663 L86 663 Q79 663 77 666.5 Q75 670 76 675 L78 696 Q79 703 81.5 705.5 Q84 708 91 708 L96 708 Q184 708 222.5 679 Q261 650 261 601 Q261 597 260.5 589.5 Q260 582 259 576 Z " />
<glyph glyph-name="asciitilde" unicode="&#x7e;" horiz-adv-x="468" d="M184 280 Q177 284 166.5 288 Q156 292 148 292 Q129 292 122.5 283 Q116 274 116 249 L116 229 Q116 223 112.5 220.5 Q109 218 103 218 L87 218 Q81 218 79 221.5 Q77 225 77 232 L77 253 Q77 300 97 318.5 Q117 337 144 337 Q156 337 169 332.5 Q182 328 193 322 L277 276 Q286 271 297 266.5 Q308 262 318 262 Q337 262 343 271.5 Q349 281 349 306 L349 325 Q349 331 352.5 333.5 Q356 336 361 336 L378 336 Q384 336 386 333 Q388 330 388 323 L388 301 Q388 252 368.5 234.5 Q349 217 323 217 Q313 217 297 221.5 Q281 226 268 233 L184 280 Z " />
<glyph glyph-name="Adieresis" unicode="&#xc4;" horiz-adv-x="525" d="M367 249 L316 517 Q311 543 308 572.5 Q305 602 304 624 Q300 611 289 575.5 Q278 540 269 519 L151 249 L367 249 Z M297 680 L328 680 Q334 680 337 677 Q340 674 341 668 L463 12 Q464 6 462 3 Q460 0 454 0 L423 0 Q417 0 414 3 Q411 6 410 12 L373 206 L132 206 L49 12 Q46 6 43 3 Q40 0 34 0 L5 0 Q-2 0 -3.5 3.5 Q-5 7 -3 12 L280 668 Q283 674 287 677 Q291 680 297 680 Z M397 857 L385 759 Q384 753 381 750 Q378 747 372 747 L354 747 Q347 747 345 750 Q343 753 344 759 L355 857 Q356 863 359.5 866 Q363 869 369 869 L387 869 Q393 869 395.5 866 Q398 863 397 857 Z M299 857 L287 759 Q286 753 283 750 Q280 747 274 747 L256 747 Q249 747 247 750 Q245 753 246 759 L257 857 Q258 863 261.5 866 Q265 869 271 869 L289 869 Q295 869 297.5 866 Q300 863 299 857 Z " />
<glyph glyph-name="Aring" unicode="&#xc5;" horiz-adv-x="525" d="M367 249 L316 517 Q311 543 308 572.5 Q305 602 304 624 Q300 611 289 575.5 Q278 540 269 519 L151 249 L367 249 Z M297 680 L328 680 Q334 680 337 677 Q340 674 341 668 L463 12 Q464 6 462 3 Q460 0 454 0 L423 0 Q417 0 414 3 Q411 6 410 12 L373 206 L132 206 L49 12 Q46 6 43 3 Q40 0 34 0 L5 0 Q-2 0 -3.5 3.5 Q-5 7 -3 12 L280 668 Q283 674 287 677 Q291 680 297 680 Z M414 809 L412 787 Q410 759 387 741 Q364 723 316 723 Q267 723 248.5 743.5 Q230 764 233 797 L235 819 Q237 847 260 865.5 Q283 884 332 884 Q380 884 398.5 862 Q417 840 414 809 Z M380 792 L381 806 Q382 827 372.5 840.5 Q363 854 329 854 Q298 854 283 843 Q268 832 267 814 L266 801 Q264 777 274.5 765 Q285 753 317 753 Q348 753 363.5 763.5 Q379 774 380 792 Z " />
<glyph glyph-name="Ccedilla" unicode="&#xc7;" horiz-adv-x="548" d="M338 -122 Q338 -173 308 -192 Q278 -211 246 -211 L129 -211 Q122 -211 120 -207.5 Q118 -204 119 -199 L120 -188 Q121 -182 124 -179 Q127 -176 133 -176 L244 -176 Q261 -176 279.5 -166.5 Q298 -157 298 -126 Q298 -104 283 -96.5 Q268 -89 255 -89 L196 -89 Q189 -89 184 -85 Q179 -81 182 -74 L209 -6 Q128 1 95.5 33.5 Q63 66 63 111 Q63 116 63.5 122.5 Q64 129 65 135 L115 547 Q122 605 167.5 646.5 Q213 688 335 688 Q442 688 483.5 653.5 Q525 619 525 568 Q525 562 525 557 Q525 552 524 545 L517 495 Q516 488 513.5 485 Q511 482 505 482 L476 482 Q470 482 467.5 485.5 Q465 489 466 495 L471 537 Q472 543 472 548.5 Q472 554 472 556 Q472 594 441.5 618 Q411 642 332 642 Q245 642 209.5 613.5 Q174 585 168 539 L119 143 Q118 136 118 131 Q118 126 118 123 Q118 85 148.5 61.5 Q179 38 257 38 Q345 38 382 66.5 Q419 95 423 141 L429 198 Q430 204 433 206.5 Q436 209 442 209 L471 209 Q478 209 480 206 Q482 203 481 198 L474 133 Q468 75 421.5 33.5 Q375 -8 253 -8 L246 -8 L227 -54 L266 -54 Q292 -54 315 -69.5 Q338 -85 338 -122 Z " />
<glyph glyph-name="Eacute" unicode="&#xc9;" horiz-adv-x="523" d="M428 0 L74 0 Q69 0 66 3 Q63 6 64 12 L144 668 Q145 674 148.5 677 Q152 680 158 680 L499 680 Q505 680 508 677.5 Q511 675 510 668 L507 646 Q506 639 503 636.5 Q500 634 493 634 L194 634 L163 380 L444 380 Q450 380 452.5 377.5 Q455 375 454 368 L452 347 Q451 341 448 338 Q445 335 439 335 L157 335 L121 46 L433 46 Q439 46 442 43.5 Q445 41 444 34 L441 12 Q440 5 437.5 2.5 Q435 0 428 0 Z M445 866 L351 747 Q349 745 345.5 742.5 Q342 740 336 740 L310 740 Q305 740 303.5 742.5 Q302 745 306 751 L392 868 Q395 872 398.5 875 Q402 878 408 878 L441 878 Q448 878 448.5 874.5 Q449 871 445 866 Z " />
<glyph glyph-name="Ntilde" unicode="&#xd1;" horiz-adv-x="608" d="M305 828 Q287 828 280 817.5 Q273 807 269 779 L267 765 Q266 759 262.5 756.5 Q259 754 253 754 L237 754 Q231 754 229 758 Q227 762 228 768 L232 790 Q240 834 258.5 851.5 Q277 869 306 869 Q318 869 332 863.5 Q346 858 358 848 L398 812 Q405 805 413.5 800.5 Q422 796 430 796 Q448 796 455.5 807 Q463 818 467 850 L468 859 Q469 865 472.5 867.5 Q476 870 482 870 L498 870 Q505 870 506.5 866.5 Q508 863 507 857 L504 836 Q497 790 477 772.5 Q457 755 429 755 Q414 755 401.5 761 Q389 767 377 777 L336 813 Q329 819 321 823.5 Q313 828 305 828 Z M560 668 L479 12 Q478 6 475.5 3 Q473 0 467 0 L442 0 Q438 0 435 1.5 Q432 3 431 6 L207 515 Q201 528 194 545.5 Q187 563 183 576 L114 12 Q113 6 110.5 3 Q108 0 101 0 L75 0 Q68 0 65.5 3 Q63 6 64 12 L144 668 Q145 674 148 677 Q151 680 158 680 L182 680 Q186 680 188.5 678.5 Q191 677 192 675 L418 162 Q422 152 431 130.5 Q440 109 441 105 L510 668 Q511 674 514 677 Q517 680 523 680 L550 680 Q556 680 558.5 677 Q561 674 560 668 Z " />
<glyph glyph-name="Odieresis" unicode="&#xd6;" horiz-adv-x="587" d="M65 135 L115 547 Q122 605 170 646.5 Q218 688 340 688 Q447 688 490.5 652.5 Q534 617 534 566 Q534 564 534 559 Q534 554 533 545 L483 133 Q476 75 427.5 33.5 Q379 -8 257 -8 Q150 -8 107 26.5 Q64 61 64 112 Q64 117 64 122 Q64 127 65 135 Z M430 141 L479 537 Q480 541 480 546 Q480 551 480 555 Q480 594 448 618 Q416 642 335 642 Q249 642 211.5 613.5 Q174 585 168 539 L119 143 Q118 139 118 134 Q118 129 118 125 Q118 86 150 62 Q182 38 262 38 Q349 38 386.5 66.5 Q424 95 430 141 Z M432 857 L420 759 Q419 753 416 750 Q413 747 407 747 L389 747 Q382 747 380 750 Q378 753 379 759 L390 857 Q391 863 394.5 866 Q398 869 404 869 L422 869 Q428 869 430.5 866 Q433 863 432 857 Z M334 857 L322 759 Q321 753 318 750 Q315 747 309 747 L291 747 Q284 747 282 750 Q280 753 281 759 L292 857 Q293 863 296.5 866 Q300 869 306 869 L324 869 Q330 869 332.5 866 Q335 863 334 857 Z " />
<glyph glyph-name="Udieresis" unicode="&#xdc;" horiz-adv-x="603" d="M192 668 L128 147 Q127 140 126.5 135 Q126 130 126 125 Q126 86 158.5 62 Q191 38 270 38 Q358 38 395.5 66.5 Q433 95 439 141 L504 668 Q505 674 507.5 677 Q510 680 516 680 L546 680 Q551 680 554.5 677.5 Q558 675 557 668 L491 133 Q484 75 436 33.5 Q388 -8 266 -8 Q159 -8 115.5 27.5 Q72 63 72 114 Q72 119 72.5 125.5 Q73 132 74 137 L139 668 Q140 674 142.5 677 Q145 680 152 680 L182 680 Q186 680 189.5 677.5 Q193 675 192 668 Z M438 857 L426 759 Q425 753 422 750 Q419 747 413 747 L395 747 Q388 747 386 750 Q384 753 385 759 L396 857 Q397 863 400.5 866 Q404 869 410 869 L428 869 Q434 869 436.5 866 Q439 863 438 857 Z M340 857 L328 759 Q327 753 324 750 Q321 747 315 747 L297 747 Q290 747 288 750 Q286 753 287 759 L298 857 Q299 863 302.5 866 Q306 869 312 869 L330 869 Q336 869 338.5 866 Q341 863 340 857 Z " />
<glyph glyph-name="aacute" unicode="&#xe1;" horiz-adv-x="520" d="M136 371 L104 121 Q103 117 103 114 Q103 111 103 107 Q103 78 124 58.5 Q145 39 193 39 Q251 39 296 62 Q341 85 360 98 L397 394 Q381 407 342.5 430.5 Q304 454 244 454 Q193 454 166.5 429.5 Q140 405 136 371 Z M355 53 Q331 36 285 14 Q239 -8 175 -8 Q112 -8 81.5 20 Q51 48 51 94 Q51 99 51 104 Q51 109 52 115 L85 378 Q92 432 127.5 466.5 Q163 501 236 501 Q299 501 341.5 478.5 Q384 456 403 439 L410 480 Q411 487 414 490 Q417 493 424 493 L449 493 Q454 493 457 490 Q460 487 459 480 L401 12 Q400 6 397 3 Q394 0 388 0 L362 0 Q357 0 354 2.5 Q351 5 352 12 L355 53 Z M399 696 L305 577 Q303 575 299.5 572.5 Q296 570 290 570 L264 570 Q259 570 257 573 Q255 576 259 581 L346 698 Q349 702 352.5 705 Q356 708 362 708 L395 708 Q402 708 402.5 704.5 Q403 701 399 696 Z " />
<glyph glyph-name="agrave" unicode="&#xe0;" horiz-adv-x="520" d="M136 371 L104 121 Q103 117 103 114 Q103 111 103 107 Q103 78 124 58.5 Q145 39 193 39 Q251 39 296 62 Q341 85 360 98 L397 394 Q381 407 342.5 430.5 Q304 454 244 454 Q193 454 166.5 429.5 Q140 405 136 371 Z M355 53 Q331 36 285 14 Q239 -8 175 -8 Q112 -8 81.5 20 Q51 48 51 94 Q51 99 51 104 Q51 109 52 115 L85 378 Q92 432 127.5 466.5 Q163 501 236 501 Q299 501 341.5 478.5 Q384 456 403 439 L410 480 Q411 487 414 490 Q417 493 424 493 L449 493 Q454 493 457 490 Q460 487 459 480 L401 12 Q400 6 397 3 Q394 0 388 0 L362 0 Q357 0 354 2.5 Q351 5 352 12 L355 53 Z M264 577 L198 696 Q196 700 197.5 704 Q199 708 206 708 L236 708 Q243 708 246 705 Q249 702 251 698 L308 581 Q311 575 308.5 572.5 Q306 570 301 570 L278 570 Q272 570 268.5 572 Q265 574 264 577 Z " />
<glyph glyph-name="acircumflex" unicode="&#xe2;" horiz-adv-x="520" d="M136 371 L104 121 Q103 117 103 114 Q103 111 103 107 Q103 78 124 58.5 Q145 39 193 39 Q251 39 296 62 Q341 85 360 98 L397 394 Q381 407 342.5 430.5 Q304 454 244 454 Q193 454 166.5 429.5 Q140 405 136 371 Z M355 53 Q331 36 285 14 Q239 -8 175 -8 Q112 -8 81.5 20 Q51 48 51 94 Q51 99 51 104 Q51 109 52 115 L85 378 Q92 432 127.5 466.5 Q163 501 236 501 Q299 501 341.5 478.5 Q384 456 403 439 L410 480 Q411 487 414 490 Q417 493 424 493 L449 493 Q454 493 457 490 Q460 487 459 480 L401 12 Q400 6 397 3 Q394 0 388 0 L362 0 Q357 0 354 2.5 Q351 5 352 12 L355 53 Z M292 674 L220 582 Q216 578 212 574 Q208 570 203 570 L179 570 Q172 570 170.5 573.5 Q169 577 173 582 L265 696 Q269 701 274 704.5 Q279 708 285 708 L305 708 Q311 708 315 704.5 Q319 701 322 697 L386 582 Q389 577 387 573.5 Q385 570 379 570 L357 570 Q351 570 347.5 573 Q344 576 341 582 L292 674 Z " />
<glyph glyph-name="adieresis" unicode="&#xe4;" horiz-adv-x="520" d="M136 371 L104 121 Q103 117 103 114 Q103 111 103 107 Q103 78 124 58.5 Q145 39 193 39 Q251 39 296 62 Q341 85 360 98 L397 394 Q381 407 342.5 430.5 Q304 454 244 454 Q193 454 166.5 429.5 Q140 405 136 371 Z M355 53 Q331 36 285 14 Q239 -8 175 -8 Q112 -8 81.5 20 Q51 48 51 94 Q51 99 51 104 Q51 109 52 115 L85 378 Q92 432 127.5 466.5 Q163 501 236 501 Q299 501 341.5 478.5 Q384 456 403 439 L410 480 Q411 487 414 490 Q417 493 424 493 L449 493 Q454 493 457 490 Q460 487 459 480 L401 12 Q400 6 397 3 Q394 0 388 0 L362 0 Q357 0 354 2.5 Q351 5 352 12 L355 53 Z M364 690 L352 592 Q351 586 348 583 Q345 580 339 580 L321 580 Q315 580 312.5 583 Q310 586 311 592 L323 690 Q324 696 327 699 Q330 702 336 702 L354 702 Q361 702 363 699 Q365 696 364 690 Z M266 690 L254 592 Q253 586 250 583 Q247 580 241 580 L223 580 Q217 580 214.5 583 Q212 586 213 592 L225 690 Q226 696 229 699 Q232 702 238 702 L256 702 Q263 702 265 699 Q267 696 266 690 Z " />
<glyph glyph-name="atilde" unicode="&#xe3;" horiz-adv-x="520" d="M136 371 L104 121 Q103 117 103 114 Q103 111 103 107 Q103 78 124 58.5 Q145 39 193 39 Q251 39 296 62 Q341 85 360 98 L397 394 Q381 407 342.5 430.5 Q304 454 244 454 Q193 454 166.5 429.5 Q140 405 136 371 Z M355 53 Q331 36 285 14 Q239 -8 175 -8 Q112 -8 81.5 20 Q51 48 51 94 Q51 99 51 104 Q51 109 52 115 L85 378 Q92 432 127.5 466.5 Q163 501 236 501 Q299 501 341.5 478.5 Q384 456 403 439 L410 480 Q411 487 414 490 Q417 493 424 493 L449 493 Q454 493 457 490 Q460 487 459 480 L401 12 Q400 6 397 3 Q394 0 388 0 L362 0 Q357 0 354 2.5 Q351 5 352 12 L355 53 Z M223 654 Q205 654 198 643 Q191 632 187 604 L185 591 Q184 584 180.5 582 Q177 580 171 580 L155 580 Q149 580 147 583.5 Q145 587 146 593 L150 614 Q158 658 176.5 676.5 Q195 695 224 695 Q236 695 250 689 Q264 683 276 673 L316 637 Q323 630 331.5 625.5 Q340 621 348 621 Q366 621 373.5 632 Q381 643 385 675 L386 684 Q387 690 390.5 692.5 Q394 695 400 695 L416 695 Q423 695 424.5 691.5 Q426 688 425 682 L422 661 Q415 615 395 598 Q375 581 348 581 Q332 581 319 586.5 Q306 592 295 602 L254 638 Q247 644 239 649 Q231 654 223 654 Z " />
<glyph glyph-name="aring" unicode="&#xe5;" horiz-adv-x="520" d="M136 371 L104 121 Q103 117 103 114 Q103 111 103 107 Q103 78 124 58.5 Q145 39 193 39 Q251 39 296 62 Q341 85 360 98 L397 394 Q381 407 342.5 430.5 Q304 454 244 454 Q193 454 166.5 429.5 Q140 405 136 371 Z M355 53 Q331 36 285 14 Q239 -8 175 -8 Q112 -8 81.5 20 Q51 48 51 94 Q51 99 51 104 Q51 109 52 115 L85 378 Q92 432 127.5 466.5 Q163 501 236 501 Q299 501 341.5 478.5 Q384 456 403 439 L410 480 Q411 487 414 490 Q417 493 424 493 L449 493 Q454 493 457 490 Q460 487 459 480 L401 12 Q400 6 397 3 Q394 0 388 0 L362 0 Q357 0 354 2.5 Q351 5 352 12 L355 53 Z M394 641 L392 620 Q389 592 366.5 574 Q344 556 296 556 Q248 556 229 576 Q210 596 213 629 L215 652 Q217 680 240 698.5 Q263 717 312 717 Q360 717 378.5 695.5 Q397 674 394 641 Z M360 625 L361 638 Q363 660 353 673.5 Q343 687 309 687 Q278 687 263 676 Q248 665 247 647 L246 634 Q244 609 255 597.5 Q266 586 297 586 Q328 586 343.5 596.5 Q359 607 360 625 Z " />
<glyph glyph-name="ccedilla" unicode="&#xe7;" horiz-adv-x="477" d="M312 -122 Q312 -173 282 -192 Q252 -211 220 -211 L103 -211 Q96 -211 94 -207.5 Q92 -204 93 -199 L94 -188 Q95 -182 98 -179 Q101 -176 107 -176 L218 -176 Q235 -176 253.5 -166.5 Q272 -157 272 -126 Q272 -104 257 -96.5 Q242 -89 229 -89 L170 -89 Q163 -89 158 -85 Q153 -81 156 -74 L183 -7 Q111 -3 80.5 25 Q50 53 50 96 Q50 99 50 103 Q50 107 51 115 L83 377 Q90 431 130.5 466 Q171 501 273 501 Q363 501 398.5 472 Q434 443 434 396 Q434 392 434 388.5 Q434 385 433 376 L431 358 Q430 351 427.5 348.5 Q425 346 419 346 L392 346 Q386 346 383 349 Q380 352 381 357 L383 374 Q384 381 384 384 Q384 387 384 390 Q384 420 360 438.5 Q336 457 270 457 Q197 457 168 434 Q139 411 135 374 L104 123 Q103 116 102.5 110.5 Q102 105 102 102 Q102 74 126.5 55 Q151 36 217 36 Q291 36 318.5 58.5 Q346 81 352 118 L356 143 Q357 150 359.5 152.5 Q362 155 369 155 L395 155 Q402 155 404 152 Q406 149 405 143 L402 115 Q396 62 357 27 Q318 -8 220 -8 L201 -54 L240 -54 Q266 -54 289 -69.5 Q312 -85 312 -122 Z " />
<glyph glyph-name="eacute" unicode="&#xe9;" horiz-adv-x="494" d="M402 696 L308 577 Q306 575 302.5 572.5 Q299 570 293 570 L267 570 Q262 570 260 573 Q258 576 262 581 L349 698 Q352 702 355.5 705 Q359 708 365 708 L398 708 Q405 708 405.5 704.5 Q406 701 402 696 Z M438 377 L422 253 Q421 248 418 245 Q415 242 410 242 L118 242 L103 121 Q102 116 102 111.5 Q102 107 102 104 Q102 72 127.5 53 Q153 34 219 34 Q292 34 322 57.5 Q352 81 356 116 L359 139 Q360 145 363.5 148 Q367 151 373 151 L398 151 Q404 151 406.5 148 Q409 145 408 139 L405 115 Q398 61 358 26.5 Q318 -8 215 -8 Q125 -8 87.5 21.5 Q50 51 50 97 Q50 101 50 104.5 Q50 108 51 115 L84 377 Q91 431 132 466 Q173 501 275 501 Q364 501 401.5 471.5 Q439 442 439 396 Q439 392 439 388 Q439 384 438 377 Z M135 376 L123 282 L376 282 L388 373 Q389 379 389 382 Q389 385 389 389 Q389 420 363.5 439.5 Q338 459 272 459 Q199 459 169 435.5 Q139 412 135 376 Z " />
<glyph glyph-name="egrave" unicode="&#xe8;" horiz-adv-x="494" d="M438 377 L422 253 Q421 248 418 245 Q415 242 410 242 L118 242 L103 121 Q102 116 102 111.5 Q102 107 102 104 Q102 72 127.5 53 Q153 34 219 34 Q292 34 322 57.5 Q352 81 356 116 L359 139 Q360 145 363.5 148 Q367 151 373 151 L398 151 Q404 151 406.5 148 Q409 145 408 139 L405 115 Q398 61 358 26.5 Q318 -8 215 -8 Q125 -8 87.5 21.5 Q50 51 50 97 Q50 101 50 104.5 Q50 108 51 115 L84 377 Q91 431 132 466 Q173 501 275 501 Q364 501 401.5 471.5 Q439 442 439 396 Q439 392 439 388 Q439 384 438 377 Z M135 376 L123 282 L376 282 L388 373 Q389 379 389 382 Q389 385 389 389 Q389 420 363.5 439.5 Q338 459 272 459 Q199 459 169 435.5 Q139 412 135 376 Z M261 577 L195 696 Q193 700 194.5 704 Q196 708 203 708 L233 708 Q240 708 243 705 Q246 702 248 698 L305 581 Q308 575 305.5 572.5 Q303 570 298 570 L275 570 Q269 570 265.5 572 Q262 574 261 577 Z " />
<glyph glyph-name="ecircumflex" unicode="&#xea;" horiz-adv-x="494" d="M294 674 L222 582 Q218 578 214 574 Q210 570 205 570 L181 570 Q174 570 172.5 573.5 Q171 577 175 582 L267 696 Q271 701 276 704.5 Q281 708 287 708 L307 708 Q313 708 317 704.5 Q321 701 324 697 L388 582 Q391 577 389 573.5 Q387 570 381 570 L359 570 Q353 570 349.5 573 Q346 576 343 582 L294 674 Z M438 377 L422 253 Q421 248 418 245 Q415 242 410 242 L118 242 L103 121 Q102 116 102 111.5 Q102 107 102 104 Q102 72 127.5 53 Q153 34 219 34 Q292 34 322 57.5 Q352 81 356 116 L359 139 Q360 145 363.5 148 Q367 151 373 151 L398 151 Q404 151 406.5 148 Q409 145 408 139 L405 115 Q398 61 358 26.5 Q318 -8 215 -8 Q125 -8 87.5 21.5 Q50 51 50 97 Q50 101 50 104.5 Q50 108 51 115 L84 377 Q91 431 132 466 Q173 501 275 501 Q364 501 401.5 471.5 Q439 442 439 396 Q439 392 439 388 Q439 384 438 377 Z M135 376 L123 282 L376 282 L388 373 Q389 379 389 382 Q389 385 389 389 Q389 420 363.5 439.5 Q338 459 272 459 Q199 459 169 435.5 Q139 412 135 376 Z " />
<glyph glyph-name="edieresis" unicode="&#xeb;" horiz-adv-x="494" d="M362 690 L350 592 Q349 586 346 583 Q343 580 337 580 L319 580 Q313 580 310.5 583 Q308 586 309 592 L321 690 Q322 696 325 699 Q328 702 334 702 L352 702 Q359 702 361 699 Q363 696 362 690 Z M264 690 L252 592 Q251 586 248 583 Q245 580 239 580 L221 580 Q215 580 212.5 583 Q210 586 211 592 L223 690 Q224 696 227 699 Q230 702 236 702 L254 702 Q261 702 263 699 Q265 696 264 690 Z M438 377 L422 253 Q421 248 418 245 Q415 242 410 242 L118 242 L103 121 Q102 116 102 111.5 Q102 107 102 104 Q102 72 127.5 53 Q153 34 219 34 Q292 34 322 57.5 Q352 81 356 116 L359 139 Q360 145 363.5 148 Q367 151 373 151 L398 151 Q404 151 406.5 148 Q409 145 408 139 L405 115 Q398 61 358 26.5 Q318 -8 215 -8 Q125 -8 87.5 21.5 Q50 51 50 97 Q50 101 50 104.5 Q50 108 51 115 L84 377 Q91 431 132 466 Q173 501 275 501 Q364 501 401.5 471.5 Q439 442 439 396 Q439 392 439 388 Q439 384 438 377 Z M135 376 L123 282 L376 282 L388 373 Q389 379 389 382 Q389 385 389 389 Q389 420 363.5 439.5 Q338 459 272 459 Q199 459 169 435.5 Q139 412 135 376 Z " />
<glyph glyph-name="iacute" unicode="&#xed;" horiz-adv-x="219" d="M266 696 L172 577 Q170 575 166.5 572.5 Q163 570 157 570 L131 570 Q126 570 124 573 Q122 576 126 581 L213 698 Q216 702 219.5 705 Q223 708 229 708 L262 708 Q269 708 269.5 704.5 Q270 701 266 696 Z M161 481 L103 12 Q102 6 99 3 Q96 0 90 0 L61 0 Q56 0 53 2.5 Q50 5 51 12 L109 481 Q110 486 112.5 489.5 Q115 493 122 493 L150 493 Q157 493 159.5 490 Q162 487 161 481 Z " />
<glyph glyph-name="igrave" unicode="&#xec;" horiz-adv-x="218" d="M160 481 L102 12 Q101 6 98 3 Q95 0 89 0 L60 0 Q55 0 52 2.5 Q49 5 50 12 L108 481 Q109 486 111.5 489.5 Q114 493 121 493 L149 493 Q156 493 158.5 490 Q161 487 160 481 Z M116 577 L50 696 Q48 700 49.5 704 Q51 708 58 708 L88 708 Q95 708 98 705 Q101 702 103 698 L160 581 Q163 575 160.5 572.5 Q158 570 153 570 L130 570 Q124 570 120.5 572 Q117 574 116 577 Z " />
<glyph glyph-name="icircumflex" unicode="&#xee;" horiz-adv-x="218" d="M157 674 L85 582 Q81 578 77 574 Q73 570 68 570 L44 570 Q37 570 35.5 573.5 Q34 577 38 582 L130 696 Q134 701 139 704.5 Q144 708 150 708 L170 708 Q176 708 180 704.5 Q184 701 187 697 L251 582 Q254 577 252 573.5 Q250 570 244 570 L222 570 Q216 570 212.5 573 Q209 576 206 582 L157 674 Z M160 481 L102 12 Q101 6 98 3 Q95 0 89 0 L60 0 Q55 0 52 2.5 Q49 5 50 12 L108 481 Q109 486 111.5 489.5 Q114 493 121 493 L149 493 Q156 493 158.5 490 Q161 487 160 481 Z " />
<glyph glyph-name="idieresis" unicode="&#xef;" horiz-adv-x="218" d="M230 690 L218 592 Q217 586 214 583 Q211 580 205 580 L187 580 Q181 580 178.5 583 Q176 586 177 592 L189 690 Q190 696 193 699 Q196 702 202 702 L220 702 Q227 702 229 699 Q231 696 230 690 Z M132 690 L120 592 Q119 586 116 583 Q113 580 107 580 L89 580 Q83 580 80.5 583 Q78 586 79 592 L91 690 Q92 696 95 699 Q98 702 104 702 L122 702 Q129 702 131 699 Q133 696 132 690 Z M160 481 L102 12 Q101 6 98 3 Q95 0 89 0 L60 0 Q55 0 52 2.5 Q49 5 50 12 L108 481 Q109 486 111.5 489.5 Q114 493 121 493 L149 493 Q156 493 158.5 490 Q161 487 160 481 Z " />
<glyph glyph-name="ntilde" unicode="&#xf1;" horiz-adv-x="526" d="M121 493 L147 493 Q153 493 156 490 Q159 487 158 481 L154 439 Q178 457 224 479 Q270 501 334 501 Q396 501 427.5 472.5 Q459 444 459 398 Q459 394 459 389 Q459 384 458 379 L413 12 Q412 6 409 3 Q406 0 399 0 L371 0 Q366 0 363 2.5 Q360 5 361 12 L405 369 Q406 373 406 377 Q406 381 406 384 Q406 415 385 434.5 Q364 454 317 454 Q258 454 213 431 Q168 408 149 394 L103 12 Q102 6 99 3 Q96 0 90 0 L61 0 Q56 0 53 2.5 Q50 5 51 12 L109 481 Q110 487 112.5 490 Q115 493 121 493 Z M239 654 Q221 654 214 643 Q207 632 203 604 L201 591 Q200 584 196.5 582 Q193 580 187 580 L171 580 Q165 580 163 583.5 Q161 587 162 593 L166 614 Q174 658 192.5 676.5 Q211 695 240 695 Q252 695 266 689 Q280 683 292 673 L332 637 Q339 630 347.5 625.5 Q356 621 364 621 Q382 621 389.5 632 Q397 643 401 675 L402 684 Q403 690 406.5 692.5 Q410 695 416 695 L432 695 Q439 695 440.5 691.5 Q442 688 441 682 L438 661 Q431 615 411 598 Q391 581 364 581 Q348 581 335 586.5 Q322 592 311 602 L270 638 Q263 644 255 649 Q247 654 239 654 Z " />
<glyph glyph-name="oacute" unicode="&#xf3;" horiz-adv-x="507" d="M405 696 L311 577 Q309 575 305.5 572.5 Q302 570 296 570 L270 570 Q265 570 263 573 Q261 576 265 581 L352 698 Q355 702 358.5 705 Q362 708 368 708 L401 708 Q408 708 408.5 704.5 Q409 701 405 696 Z M51 115 L83 377 Q90 431 133 466 Q176 501 279 501 Q369 501 407.5 471.5 Q446 442 446 395 Q446 391 446 387 Q446 383 445 377 L413 115 Q406 61 363 26.5 Q320 -8 218 -8 Q128 -8 89 21.5 Q50 51 50 98 Q50 102 50 106 Q50 110 51 115 Z M361 119 L393 374 Q394 378 394 381 Q394 384 394 386 Q394 418 367 437.5 Q340 457 274 457 Q201 457 170 434 Q139 411 135 374 L103 119 Q102 115 102 112 Q102 109 102 106 Q102 73 129 54.5 Q156 36 222 36 Q295 36 326 59 Q357 82 361 119 Z " />
<glyph glyph-name="ograve" unicode="&#xf2;" horiz-adv-x="507" d="M51 115 L83 377 Q90 431 133 466 Q176 501 279 501 Q369 501 407.5 471.5 Q446 442 446 395 Q446 391 446 387 Q446 383 445 377 L413 115 Q406 61 363 26.5 Q320 -8 218 -8 Q128 -8 89 21.5 Q50 51 50 98 Q50 102 50 106 Q50 110 51 115 Z M361 119 L393 374 Q394 378 394 381 Q394 384 394 386 Q394 418 367 437.5 Q340 457 274 457 Q201 457 170 434 Q139 411 135 374 L103 119 Q102 115 102 112 Q102 109 102 106 Q102 73 129 54.5 Q156 36 222 36 Q295 36 326 59 Q357 82 361 119 Z M256 577 L190 696 Q188 700 189.5 704 Q191 708 198 708 L228 708 Q235 708 238 705 Q241 702 243 698 L300 581 Q303 575 300.5 572.5 Q298 570 293 570 L270 570 Q264 570 260.5 572 Q257 574 256 577 Z " />
<glyph glyph-name="ocircumflex" unicode="&#xf4;" horiz-adv-x="507" d="M300 674 L228 582 Q224 578 220 574 Q216 570 211 570 L187 570 Q180 570 178.5 573.5 Q177 577 181 582 L273 696 Q277 701 282 704.5 Q287 708 293 708 L313 708 Q319 708 323 704.5 Q327 701 330 697 L394 582 Q397 577 395 573.5 Q393 570 387 570 L365 570 Q359 570 355.5 573 Q352 576 349 582 L300 674 Z M51 115 L83 377 Q90 431 133 466 Q176 501 279 501 Q369 501 407.5 471.5 Q446 442 446 395 Q446 391 446 387 Q446 383 445 377 L413 115 Q406 61 363 26.5 Q320 -8 218 -8 Q128 -8 89 21.5 Q50 51 50 98 Q50 102 50 106 Q50 110 51 115 Z M361 119 L393 374 Q394 378 394 381 Q394 384 394 386 Q394 418 367 437.5 Q340 457 274 457 Q201 457 170 434 Q139 411 135 374 L103 119 Q102 115 102 112 Q102 109 102 106 Q102 73 129 54.5 Q156 36 222 36 Q295 36 326 59 Q357 82 361 119 Z " />
<glyph glyph-name="odieresis" unicode="&#xf6;" horiz-adv-x="507" d="M368 690 L356 592 Q355 586 352 583 Q349 580 343 580 L325 580 Q319 580 316.5 583 Q314 586 315 592 L327 690 Q328 696 331 699 Q334 702 340 702 L358 702 Q365 702 367 699 Q369 696 368 690 Z M270 690 L258 592 Q257 586 254 583 Q251 580 245 580 L227 580 Q221 580 218.5 583 Q216 586 217 592 L229 690 Q230 696 233 699 Q236 702 242 702 L260 702 Q267 702 269 699 Q271 696 270 690 Z M51 115 L83 377 Q90 431 133 466 Q176 501 279 501 Q369 501 407.5 471.5 Q446 442 446 395 Q446 391 446 387 Q446 383 445 377 L413 115 Q406 61 363 26.5 Q320 -8 218 -8 Q128 -8 89 21.5 Q50 51 50 98 Q50 102 50 106 Q50 110 51 115 Z M361 119 L393 374 Q394 378 394 381 Q394 384 394 386 Q394 418 367 437.5 Q340 457 274 457 Q201 457 170 434 Q139 411 135 374 L103 119 Q102 115 102 112 Q102 109 102 106 Q102 73 129 54.5 Q156 36 222 36 Q295 36 326 59 Q357 82 361 119 Z " />
<glyph glyph-name="otilde" unicode="&#xf5;" horiz-adv-x="507" d="M51 115 L83 377 Q90 431 133 466 Q176 501 279 501 Q369 501 407.5 471.5 Q446 442 446 395 Q446 391 446 387 Q446 383 445 377 L413 115 Q406 61 363 26.5 Q320 -8 218 -8 Q128 -8 89 21.5 Q50 51 50 98 Q50 102 50 106 Q50 110 51 115 Z M361 119 L393 374 Q394 378 394 381 Q394 384 394 386 Q394 418 367 437.5 Q340 457 274 457 Q201 457 170 434 Q139 411 135 374 L103 119 Q102 115 102 112 Q102 109 102 106 Q102 73 129 54.5 Q156 36 222 36 Q295 36 326 59 Q357 82 361 119 Z M222 654 Q204 654 197 643 Q190 632 186 604 L184 591 Q183 584 179.5 582 Q176 580 170 580 L154 580 Q148 580 146 583.5 Q144 587 145 593 L149 614 Q157 658 175.5 676.5 Q194 695 223 695 Q235 695 249 689 Q263 683 275 673 L315 637 Q322 630 330.5 625.5 Q339 621 347 621 Q365 621 372.5 632 Q380 643 384 675 L385 684 Q386 690 389.5 692.5 Q393 695 399 695 L415 695 Q422 695 423.5 691.5 Q425 688 424 682 L421 661 Q414 615 394 598 Q374 581 347 581 Q331 581 318 586.5 Q305 592 294 602 L253 638 Q246 644 238 649 Q230 654 222 654 Z " />
<glyph glyph-name="uacute" unicode="&#xfa;" horiz-adv-x="520" d="M407 696 L313 577 Q311 575 307.5 572.5 Q304 570 298 570 L272 570 Q267 570 265 573 Q263 576 267 581 L354 698 Q357 702 360.5 705 Q364 708 370 708 L403 708 Q410 708 410.5 704.5 Q411 701 407 696 Z M353 12 L356 52 Q334 35 290 13.5 Q246 -8 183 -8 Q120 -8 88.5 20.5 Q57 49 57 94 Q57 97 57 100.5 Q57 104 58 111 L104 480 Q105 487 108 490 Q111 493 117 493 L146 493 Q150 493 153.5 490 Q157 487 156 480 L111 122 Q110 116 110 112.5 Q110 109 110 107 Q110 77 131 58 Q152 39 200 39 Q258 39 300 61.5 Q342 84 361 98 L408 480 Q409 487 412 490 Q415 493 421 493 L450 493 Q456 493 458.5 490 Q461 487 460 480 L402 12 Q401 6 398.5 3 Q396 0 390 0 L364 0 Q358 0 355 2.5 Q352 5 353 12 Z " />
<glyph glyph-name="ugrave" unicode="&#xf9;" horiz-adv-x="520" d="M353 12 L356 52 Q334 35 290 13.5 Q246 -8 183 -8 Q120 -8 88.5 20.5 Q57 49 57 94 Q57 97 57 100.5 Q57 104 58 111 L104 480 Q105 487 108 490 Q111 493 117 493 L146 493 Q150 493 153.5 490 Q157 487 156 480 L111 122 Q110 116 110 112.5 Q110 109 110 107 Q110 77 131 58 Q152 39 200 39 Q258 39 300 61.5 Q342 84 361 98 L408 480 Q409 487 412 490 Q415 493 421 493 L450 493 Q456 493 458.5 490 Q461 487 460 480 L402 12 Q401 6 398.5 3 Q396 0 390 0 L364 0 Q358 0 355 2.5 Q352 5 353 12 Z M266 577 L200 696 Q198 700 199.5 704 Q201 708 208 708 L238 708 Q245 708 248 705 Q251 702 253 698 L310 581 Q313 575 310.5 572.5 Q308 570 303 570 L280 570 Q274 570 270.5 572 Q267 574 266 577 Z " />
<glyph glyph-name="ucircumflex" unicode="&#xfb;" horiz-adv-x="520" d="M301 674 L229 582 Q225 578 221 574 Q217 570 212 570 L188 570 Q181 570 179.5 573.5 Q178 577 182 582 L274 696 Q278 701 283 704.5 Q288 708 294 708 L314 708 Q320 708 324 704.5 Q328 701 331 697 L395 582 Q398 577 396 573.5 Q394 570 388 570 L366 570 Q360 570 356.5 573 Q353 576 350 582 L301 674 Z M353 12 L356 52 Q334 35 290 13.5 Q246 -8 183 -8 Q120 -8 88.5 20.5 Q57 49 57 94 Q57 97 57 100.5 Q57 104 58 111 L104 480 Q105 487 108 490 Q111 493 117 493 L146 493 Q150 493 153.5 490 Q157 487 156 480 L111 122 Q110 116 110 112.5 Q110 109 110 107 Q110 77 131 58 Q152 39 200 39 Q258 39 300 61.5 Q342 84 361 98 L408 480 Q409 487 412 490 Q415 493 421 493 L450 493 Q456 493 458.5 490 Q461 487 460 480 L402 12 Q401 6 398.5 3 Q396 0 390 0 L364 0 Q358 0 355 2.5 Q352 5 353 12 Z " />
<glyph glyph-name="udieresis" unicode="&#xfc;" horiz-adv-x="520" d="M375 690 L363 592 Q362 586 359 583 Q356 580 350 580 L332 580 Q326 580 323.5 583 Q321 586 322 592 L334 690 Q335 696 338 699 Q341 702 347 702 L365 702 Q372 702 374 699 Q376 696 375 690 Z M277 690 L265 592 Q264 586 261 583 Q258 580 252 580 L234 580 Q228 580 225.5 583 Q223 586 224 592 L236 690 Q237 696 240 699 Q243 702 249 702 L267 702 Q274 702 276 699 Q278 696 277 690 Z M353 12 L356 52 Q334 35 290 13.5 Q246 -8 183 -8 Q120 -8 88.5 20.5 Q57 49 57 94 Q57 97 57 100.5 Q57 104 58 111 L104 480 Q105 487 108 490 Q111 493 117 493 L146 493 Q150 493 153.5 490 Q157 487 156 480 L111 122 Q110 116 110 112.5 Q110 109 110 107 Q110 77 131 58 Q152 39 200 39 Q258 39 300 61.5 Q342 84 361 98 L408 480 Q409 487 412 490 Q415 493 421 493 L450 493 Q456 493 458.5 490 Q461 487 460 480 L402 12 Q401 6 398.5 3 Q396 0 390 0 L364 0 Q358 0 355 2.5 Q352 5 353 12 Z " />
<glyph glyph-name="dagger" unicode="&#x2020;" horiz-adv-x="434" d="M293 687 L210 12 Q209 6 206.5 3 Q204 0 197 0 L168 0 Q163 0 160 3 Q157 6 158 12 L241 687 Q242 693 245 696 Q248 699 254 699 L283 699 Q290 699 292 696 Q294 693 293 687 Z M300 498 L411 498 Q417 498 420 495 Q423 492 422 486 L420 465 Q419 459 416 456 Q413 453 407 453 L296 453 Q290 453 287 456 Q284 459 285 465 L287 486 Q288 492 291 495 Q294 498 300 498 Z M74 498 L185 498 Q191 498 194 495 Q197 492 196 486 L194 465 Q193 459 190 456 Q187 453 181 453 L70 453 Q64 453 61 456 Q58 459 59 465 L61 486 Q62 492 65 495 Q68 498 74 498 Z " />
<glyph glyph-name="degree" unicode="&#xb0;" horiz-adv-x="396" d="M91 506 L102 596 Q107 636 136.5 661 Q166 686 245 686 Q297 686 331.5 668.5 Q366 651 366 608 Q366 604 366 599.5 Q366 595 365 589 L354 499 Q350 459 320.5 434 Q291 409 213 409 Q146 409 118 430.5 Q90 452 90 486 Q90 489 90 495.5 Q90 502 91 506 Z M309 501 L320 588 Q321 592 321 595.5 Q321 599 321 601 Q321 629 298 639.5 Q275 650 240 650 Q191 650 171 634.5 Q151 619 148 595 L137 506 Q136 502 136 498 Q136 494 136 492 Q136 471 154.5 458.5 Q173 446 216 446 Q264 446 285 461 Q306 476 309 501 Z " />
<glyph glyph-name="cent" unicode="&#xa2;" horiz-adv-x="489" d="M241 12 Q240 6 238 3 Q236 0 229 0 L200 0 Q194 0 191 3 Q188 6 189 12 L199 86 Q124 90 93 118 Q62 146 62 189 Q62 193 62 197 Q62 201 63 208 L95 470 Q101 521 137 555 Q173 589 261 593 L270 668 Q271 674 274 677 Q277 680 283 680 L312 680 Q319 680 321 677 Q323 674 322 668 L313 593 Q387 589 416.5 560.5 Q446 532 446 489 Q446 485 446 481.5 Q446 478 445 469 L443 451 Q442 444 439.5 441.5 Q437 439 431 439 L404 439 Q398 439 395 442 Q392 445 393 450 L395 467 Q396 474 396 477.5 Q396 481 396 483 Q396 513 372 531.5 Q348 550 282 550 Q209 550 180 527 Q151 504 147 467 L116 216 Q115 207 115 203.5 Q115 200 115 196 Q115 166 139.5 147.5 Q164 129 229 129 Q303 129 330.5 152 Q358 175 364 212 L368 236 Q369 243 371.5 245.5 Q374 248 381 248 L407 248 Q414 248 416 245 Q418 242 417 236 L414 208 Q409 159 374 124.5 Q339 90 251 86 L241 12 Z " />
<glyph glyph-name="sterling" unicode="&#xa3;" horiz-adv-x="596" d="M192 364 L359 364 Q366 364 368 361 Q370 358 369 353 L367 332 Q366 325 362.5 322.5 Q359 320 353 320 L187 320 L153 45 L361 45 Q398 45 436 67.5 Q474 90 474 162 L474 169 Q474 175 477.5 178 Q481 181 487 181 L514 181 Q520 181 522 177.5 Q524 174 524 169 L524 164 Q524 63 472.5 31.5 Q421 0 367 0 L35 0 Q29 0 26.5 3 Q24 6 25 12 L27 33 Q28 40 31 42.5 Q34 45 40 45 L99 45 L134 320 L74 320 Q68 320 65.5 323 Q63 326 64 332 L67 353 Q68 359 71 361.5 Q74 364 80 364 L139 364 L162 554 Q169 613 209 650.5 Q249 688 368 688 Q470 688 507.5 658 Q545 628 545 579 Q545 574 544.5 567.5 Q544 561 543 554 L540 527 Q539 521 536 518 Q533 515 527 515 L499 515 Q492 515 490 519 Q488 523 489 528 L492 547 Q493 554 493 560 Q493 566 493 570 Q493 604 466 623 Q439 642 364 642 Q278 642 249.5 617.5 Q221 593 215 547 L192 364 Z " />
<glyph glyph-name="section" unicode="&#xa7;" horiz-adv-x="501" d="M405 164 Q404 158 401 155 Q398 152 391 152 L366 152 Q361 152 357.5 155 Q354 158 355 164 L367 256 Q368 263 368.5 268 Q369 273 369 278 Q369 306 348.5 319 Q328 332 315 336 L183 376 Q161 383 128.5 403 Q96 423 96 469 Q96 474 96.5 480.5 Q97 487 98 493 L107 566 Q114 619 155 653.5 Q196 688 298 688 Q389 688 426 659.5 Q463 631 463 584 Q463 582 463 576.5 Q463 571 462 563 L461 552 Q460 545 456.5 542.5 Q453 540 447 540 L421 540 Q416 540 413 543 Q410 546 411 553 L412 562 Q413 568 413 572.5 Q413 577 413 581 Q413 612 387.5 631 Q362 650 296 650 Q223 650 192.5 627.5 Q162 605 158 568 L149 496 Q148 490 147.5 485.5 Q147 481 147 477 Q147 446 172.5 433.5 Q198 421 211 417 L343 378 Q367 371 392.5 349.5 Q418 328 418 288 Q418 284 418 277.5 Q418 271 417 265 L405 164 Z M71 210 L83 310 Q84 317 87 319.5 Q90 322 96 322 L122 322 Q127 322 130 319.5 Q133 317 132 310 L121 219 Q120 213 119.5 208.5 Q119 204 119 197 Q119 169 139 155.5 Q159 142 172 138 L305 98 Q326 92 359 72 Q392 52 392 6 Q392 1 391.5 -5 Q391 -11 390 -18 L381 -91 Q374 -144 332.5 -178.5 Q291 -213 190 -213 Q100 -213 62.5 -185 Q25 -157 25 -111 Q25 -107 25 -101 Q25 -95 26 -88 L27 -77 Q28 -70 31 -67.5 Q34 -65 41 -65 L66 -65 Q71 -65 74 -68 Q77 -71 76 -78 L75 -87 Q74 -93 74 -97 Q74 -101 74 -105 Q74 -137 99.5 -156.5 Q125 -176 192 -176 Q265 -176 295 -153 Q325 -130 329 -93 L338 -21 Q339 -15 339.5 -10.5 Q340 -6 340 -2 Q340 29 314.5 41.5 Q289 54 276 58 L145 97 Q121 104 95 125.5 Q69 147 69 187 Q69 191 69.5 197.5 Q70 204 71 210 Z " />
<glyph glyph-name="bullet" unicode="&#x2022;" horiz-adv-x="256" d="M159 322 L143 197 Q142 191 139 188.5 Q136 186 130 186 L100 186 Q94 186 91.5 188.5 Q89 191 90 197 L106 322 Q107 329 110 331.5 Q113 334 119 334 L149 334 Q155 334 157.5 331 Q160 328 159 322 Z " />
<glyph glyph-name="paragraph" unicode="&#xb6;" horiz-adv-x="570" d="M530 668 L424 -195 Q423 -202 420 -205 Q417 -208 411 -208 L381 -208 Q375 -208 372.5 -205 Q370 -202 371 -195 L477 668 Q478 674 481 677 Q484 680 490 680 L520 680 Q527 680 529 676.5 Q531 673 530 668 Z M388 669 L282 -195 Q281 -202 277.5 -205 Q274 -208 268 -208 L238 -208 Q233 -208 230 -205 Q227 -202 228 -195 L287 282 L236 282 Q138 282 98 313 Q58 344 58 394 Q58 400 58.5 407.5 Q59 415 60 420 L76 549 Q83 605 125.5 642.5 Q168 680 285 680 L377 680 Q383 680 386 677 Q389 674 388 669 Z " />
<glyph glyph-name="germandbls" unicode="&#xdf;" horiz-adv-x="595" d="M191 582 L122 12 Q121 6 117.5 3 Q114 0 108 0 L79 0 Q74 0 71 2.5 Q68 5 69 12 L123 448 L58 448 Q53 448 50.5 450.5 Q48 453 48 458 L49 476 Q50 483 53.5 485.5 Q57 488 63 488 L127 491 L128 491 L139 585 Q145 639 191 673.5 Q237 708 341 708 Q434 708 473.5 678.5 Q513 649 513 601 Q513 597 512.5 591 Q512 585 511 577 L508 548 Q504 505 471.5 486 Q439 467 419 462 L354 445 Q341 441 318.5 433 Q296 425 290 394 L289 389 Q283 360 306 344.5 Q329 329 341 325 L455 281 Q474 274 505 254 Q536 234 536 195 Q536 193 536 187.5 Q536 182 535 177 L528 114 Q522 60 486.5 26 Q451 -8 351 -8 Q267 -8 235.5 18.5 Q204 45 204 89 Q204 93 204 97 Q204 101 205 109 L207 125 Q208 132 211 134.5 Q214 137 221 137 L241 137 Q247 137 249.5 134 Q252 131 251 125 L250 111 Q249 104 249 101 Q249 98 249 94 Q249 65 270.5 47 Q292 29 354 29 Q425 29 450 52 Q475 75 479 111 L485 163 Q486 170 486.5 174 Q487 178 487 184 Q487 212 462.5 224.5 Q438 237 425 241 L314 282 Q295 289 265.5 313 Q236 337 243 384 L245 397 Q252 439 282 455.5 Q312 472 333 477 L391 492 Q406 496 430.5 508 Q455 520 459 551 L462 575 Q463 582 463 587.5 Q463 593 463 595 Q463 626 435.5 647 Q408 668 337 668 Q261 668 228 643.5 Q195 619 191 582 Z " />
<glyph glyph-name="registered" unicode="&#xae;" horiz-adv-x="580" d="M523 558 L523 381 Q523 340 486.5 295.5 Q450 251 312 251 Q175 251 137 295.5 Q99 340 99 381 L99 558 Q99 598 137 643 Q175 688 312 688 Q450 688 486.5 643 Q523 598 523 558 Z M486 377 L486 561 Q486 592 453.5 622.5 Q421 653 312 653 Q204 653 170.5 622.5 Q137 592 137 561 L137 378 Q137 347 170.5 316 Q204 285 312 285 Q421 285 453.5 315.5 Q486 346 486 377 Z M319 568 L257 568 L257 462 L319 462 Q350 462 364.5 475.5 Q379 489 379 505 L379 525 Q379 541 365 554.5 Q351 568 319 568 Z M257 342 Q257 338 255 335.5 Q253 333 249 333 L227 333 Q223 333 221 335.5 Q219 338 219 342 L219 588 Q219 592 221.5 595 Q224 598 229 598 L322 598 Q379 598 398.5 575 Q418 552 418 527 L418 503 Q418 484 407.5 465 Q397 446 366 437 L407 342 Q408 338 405.5 335.5 Q403 333 399 333 L376 333 Q372 333 369.5 335.5 Q367 338 366 342 L328 432 L257 432 L257 342 Z " />
<glyph glyph-name="copyright" unicode="&#xa9;" horiz-adv-x="699" d="M616 525 L616 156 Q616 90 568 41 Q520 -8 355 -8 Q191 -8 143 41 Q95 90 95 156 L95 525 Q95 590 143 639 Q191 688 355 688 Q520 688 568 639 Q616 590 616 525 Z M575 150 L575 531 Q575 582 529.5 617 Q484 652 355 652 Q227 652 181 617 Q135 582 135 530 L135 150 Q135 98 181 63 Q227 28 355 28 Q484 28 529.5 63 Q575 98 575 150 Z M356 551 Q440 551 466.5 517.5 Q493 484 493 430 L493 413 Q493 407 490 404 Q487 401 481 401 L457 401 Q451 401 448 404 Q445 407 445 413 L445 429 Q445 466 429.5 489.5 Q414 513 356 513 Q297 513 281.5 489.5 Q266 466 266 429 L266 250 Q266 213 281.5 190 Q297 167 356 167 Q414 167 429.5 190 Q445 213 445 250 L445 274 Q445 280 448 283 Q451 286 457 286 L481 286 Q487 286 490 283 Q493 280 493 274 L493 249 Q493 195 466.5 161.5 Q440 128 356 128 Q271 128 245 161.5 Q219 195 219 249 L219 430 Q219 484 245 517.5 Q271 551 356 551 Z " />
<glyph glyph-name="trademark" unicode="&#x2122;" horiz-adv-x="817" d="M94 680 L364 680 Q369 680 371.5 678 Q374 676 373 671 L371 651 Q370 646 367 644 Q364 642 360 642 L247 642 L203 282 Q202 277 199.5 274.5 Q197 272 192 272 L166 272 Q161 272 158.5 274.5 Q156 277 157 282 L201 642 L90 642 Q85 642 82 644 Q79 646 80 651 L82 671 Q83 676 85.5 678 Q88 680 94 680 Z M777 670 L729 282 Q728 277 726 274.5 Q724 272 719 272 L694 272 Q689 272 686.5 274.5 Q684 277 685 282 L723 592 Q722 590 717.5 580 Q713 570 710 565 L583 344 Q580 340 576.5 337 Q573 334 568 334 L549 334 Q544 334 540.5 337 Q537 340 536 344 L460 567 Q459 572 457.5 577.5 Q456 583 455 593 L417 282 Q416 277 413.5 274.5 Q411 272 407 272 L383 272 Q378 272 375.5 274.5 Q373 277 374 282 L422 670 Q423 675 425.5 677.5 Q428 680 433 680 L456 680 Q460 680 461.5 678 Q463 676 464 673 L557 409 Q558 404 560 397 Q562 390 563 383 Q564 386 568.5 393.5 Q573 401 577 408 L732 674 Q733 677 736 678.5 Q739 680 743 680 L768 680 Q774 680 776 677.5 Q778 675 777 670 Z " />
<glyph glyph-name="acute" unicode="&#xb4;" horiz-adv-x="336" d="M319 696 L225 577 Q223 575 219.5 572.5 Q216 570 210 570 L184 570 Q179 570 177 573 Q175 576 179 581 L266 698 Q269 702 272.5 705 Q276 708 282 708 L315 708 Q322 708 322.5 704.5 Q323 701 319 696 Z " />
<glyph glyph-name="dieresis" unicode="&#xa8;" horiz-adv-x="308" d="M308 690 L296 592 Q295 586 292 583 Q289 580 283 580 L265 580 Q259 580 256.5 583 Q254 586 255 592 L267 690 Q268 696 271 699 Q274 702 280 702 L298 702 Q305 702 307 699 Q309 696 308 690 Z M210 690 L198 592 Q197 586 194 583 Q191 580 185 580 L167 580 Q161 580 158.5 583 Q156 586 157 592 L169 690 Q170 696 173 699 Q176 702 182 702 L200 702 Q207 702 209 699 Q211 696 210 690 Z " />
<glyph glyph-name="notequal" unicode="&#x2260;" horiz-adv-x="610" d="M263 154 Q261 148 257 145 Q253 142 247 142 L220 142 Q215 142 213 145.5 Q211 149 213 154 L241 226 L111 226 Q105 226 102 229 Q99 232 99 238 L99 259 Q99 266 102 268.5 Q105 271 111 271 L259 271 L308 397 L111 397 Q105 397 102 400 Q99 403 99 409 L99 430 Q99 436 102 439 Q105 442 111 442 L326 442 L354 514 Q356 520 359.5 523 Q363 526 369 526 L396 526 Q402 526 404 523 Q406 520 404 514 L376 442 L508 442 Q514 442 516.5 439 Q519 436 519 430 L519 409 Q519 403 516.5 400 Q514 397 508 397 L358 397 L309 271 L508 271 Q514 271 516.5 268.5 Q519 266 519 259 L519 238 Q519 232 516.5 229 Q514 226 508 226 L291 226 L263 154 Z " />
<glyph glyph-name="AE" unicode="&#xc6;" horiz-adv-x="829" d="M403 530 L207 249 L402 249 L443 590 Q433 574 423 558.5 Q413 543 403 530 Z M-6 0 Q-12 0 -15 3 Q-18 6 -14 12 L447 668 Q449 672 454.5 676 Q460 680 469 680 L805 680 Q811 680 814 677.5 Q817 675 816 669 L813 647 Q812 641 809 638.5 Q806 636 800 636 L500 636 L469 380 L750 380 Q756 380 759 377 Q762 374 761 368 L758 348 Q757 342 754 339 Q751 336 745 336 L463 336 L427 45 L739 45 Q745 45 748 42 Q751 39 750 33 L747 12 Q746 6 743.5 3 Q741 0 734 0 L387 0 Q380 0 375.5 2.5 Q371 5 372 14 L396 206 L175 206 L40 12 Q37 8 33 4 Q29 0 23 0 L-6 0 Z " />
<glyph glyph-name="Oslash" unicode="&#xd8;" horiz-adv-x="587" d="M119 143 Q118 128 119 114.5 Q120 101 125 91 L444 621 Q427 631 400 636.5 Q373 642 335 642 Q249 642 211.5 613.5 Q174 585 168 539 L119 143 Z M262 38 Q349 38 386.5 66.5 Q424 95 430 141 L479 537 Q481 553 479 566.5 Q477 580 473 590 L153 60 Q170 50 197 44 Q224 38 262 38 Z M110 -11 Q104 -21 99.5 -25 Q95 -29 87 -29 L67 -29 Q60 -29 59.5 -23.5 Q59 -18 63 -11 L92 38 Q77 53 70 72 Q63 91 63 112 Q63 117 63.5 123 Q64 129 65 135 L115 547 Q122 605 170 646.5 Q218 688 340 688 Q383 688 415.5 681.5 Q448 675 471 665 L487 692 Q491 699 496 704 Q501 709 509 709 L529 709 Q536 709 537 703.5 Q538 698 534 692 L504 642 Q520 626 527 607 Q534 588 534 566 Q534 562 534 557.5 Q534 553 533 545 L483 133 Q476 75 427.5 33.5 Q379 -8 257 -8 Q214 -8 181 -2 Q148 4 126 15 L110 -11 Z " />
<glyph glyph-name="infinity" unicode="&#x221e;" horiz-adv-x="373" d="M54 335 L165 446 Q171 452 176 454.5 Q181 457 186 457 Q191 457 196.5 454.5 Q202 452 208 446 L319 335 Q325 329 327 323.5 Q329 318 329 314 Q329 308 327 303 Q325 298 319 292 L208 181 Q202 175 196.5 172.5 Q191 170 186 170 Q181 170 176 172.5 Q171 175 165 181 L54 292 Q48 298 45 303 Q42 308 42 314 Q42 318 45 323.5 Q48 329 54 335 Z M178 434 L66 322 Q64 320 63 318 Q62 316 62 313 Q62 311 63 309 Q64 307 66 305 L178 193 Q180 191 182 190 Q184 189 186 189 Q189 189 191 190 Q193 191 195 193 L307 305 Q308 306 309.5 308.5 Q311 311 311 313 Q311 316 310 318 Q309 320 307 322 L195 434 Q193 436 191 437 Q189 438 186 438 Q184 438 181.5 436.5 Q179 435 178 434 Z " />
<glyph glyph-name="plusminus" unicode="&#xb1;" horiz-adv-x="589" d="M266 227 L266 358 L94 358 Q87 358 84.5 360.5 Q82 363 82 370 L82 391 Q82 397 84.5 399.5 Q87 402 94 402 L266 402 L266 533 Q266 539 269 542 Q272 545 278 545 L299 545 Q305 545 308 542 Q311 539 311 533 L311 402 L485 402 Q491 402 494 399.5 Q497 397 497 391 L497 370 Q497 363 494 360.5 Q491 358 485 358 L311 358 L311 227 Q311 220 308 217 Q305 214 299 214 L278 214 Q272 214 269 217 Q266 220 266 227 Z M94 153 L485 153 Q491 153 494 150.5 Q497 148 497 141 L497 120 Q497 114 494 111 Q491 108 485 108 L94 108 Q87 108 84.5 111 Q82 114 82 120 L82 141 Q82 148 84.5 150.5 Q87 153 94 153 Z " />
<glyph glyph-name="lessequal" unicode="&#x2264;" horiz-adv-x="550" d="M447 519 L136 401 L447 284 Q452 282 455.5 279 Q459 276 459 270 L459 241 Q459 235 455.5 232.5 Q452 230 447 232 L95 372 Q91 373 87.5 376 Q84 379 84 386 L84 417 Q84 423 87.5 426.5 Q91 430 95 431 L447 571 Q452 573 455.5 570.5 Q459 568 459 562 L459 533 Q459 527 455.5 524 Q452 521 447 519 Z M97 167 L447 167 Q453 167 456 164.5 Q459 162 459 156 L459 135 Q459 129 456 126.5 Q453 124 447 124 L97 124 Q91 124 88 126.5 Q85 129 85 135 L85 156 Q85 162 88 164.5 Q91 167 97 167 Z " />
<glyph glyph-name="greaterequal" unicode="&#x2265;" horiz-adv-x="557" d="M417 401 L107 519 Q101 521 98 524 Q95 527 95 533 L95 562 Q95 569 98 571.5 Q101 574 107 572 L458 432 Q463 430 466 427 Q469 424 469 418 L469 385 Q469 379 466 376.5 Q463 374 458 372 L107 231 Q101 229 98 231.5 Q95 234 95 241 L95 271 Q95 277 98 279.5 Q101 282 107 284 L417 401 Z M107 168 L456 168 Q462 168 465 165 Q468 162 468 156 L468 134 Q468 128 465 125.5 Q462 123 456 123 L107 123 Q100 123 97.5 125.5 Q95 128 95 134 L95 156 Q95 162 97.5 165 Q100 168 107 168 Z " />
<glyph glyph-name="yen" unicode="&#xa5;" horiz-adv-x="547" d="M265 12 Q264 6 261.5 3 Q259 0 253 0 L223 0 Q217 0 214 3 Q211 6 212 12 L244 272 L87 272 Q80 272 77.5 275 Q75 278 76 284 L78 297 Q79 303 81.5 306 Q84 309 91 309 L231 309 L197 392 L102 392 Q95 392 92.5 394.5 Q90 397 91 403 L92 416 Q93 423 96 425.5 Q99 428 105 428 L183 428 L86 668 Q84 674 87 677 Q90 680 96 680 L130 680 Q136 680 138.5 677 Q141 674 143 668 L267 360 Q269 354 272.5 344.5 Q276 335 277 327 Q279 332 284.5 342.5 Q290 353 295 360 L496 668 Q500 673 503 676.5 Q506 680 512 680 L544 680 Q550 680 552.5 677.5 Q555 675 551 668 L394 428 L473 428 Q479 428 482 425.5 Q485 423 484 416 L483 403 Q482 397 479 394.5 Q476 392 469 392 L370 392 L316 309 L458 309 Q465 309 467.5 306 Q470 303 469 297 L468 284 Q467 278 464 275 Q461 272 454 272 L297 272 L265 12 Z " />
<glyph glyph-name="mu" unicode="&#x3bc;" horiz-adv-x="519" d="M355 12 L358 53 Q336 35 292.5 13.5 Q249 -8 186 -8 Q150 -8 128.5 3 Q107 14 99 33 L75 -196 Q74 -202 71 -205 Q68 -208 62 -208 L33 -208 Q27 -208 24.5 -205 Q22 -202 23 -196 L106 481 Q107 487 110 490 Q113 493 120 493 L148 493 Q152 493 155.5 490.5 Q159 488 158 481 L115 135 Q114 125 113.5 117.5 Q113 110 113 107 Q113 76 134 57 Q155 38 202 38 Q261 38 303 60.5 Q345 83 363 97 L410 481 Q411 487 414 490 Q417 493 423 493 L452 493 Q458 493 460.5 490 Q463 487 462 481 L404 12 Q403 6 400.5 3 Q398 0 392 0 L366 0 Q360 0 357 2.5 Q354 5 355 12 Z " />
<glyph glyph-name="partialdiff" unicode="&#x2202;" horiz-adv-x="373" d="M87 197 L87 434 Q87 445 97.5 446.5 Q108 448 118 442 L297 331 Q306 325 306 315.5 Q306 306 297 301 L118 190 Q108 184 97.5 184.5 Q87 185 87 197 Z " />
<glyph glyph-name="summation" unicode="&#x2211;" horiz-adv-x="373" d="M285 434 L285 197 Q285 185 275 184.5 Q265 184 255 190 L76 301 Q67 306 67 315.5 Q67 325 76 331 L255 442 Q265 448 275 446.5 Q285 445 285 434 Z " />
<glyph glyph-name="product" unicode="&#x220f;" horiz-adv-x="373" d="M307 205 L69 205 Q58 205 57 215 Q56 225 62 235 L172 415 Q177 424 187 423.5 Q197 423 202 415 L313 235 Q319 225 318.5 215 Q318 205 307 205 Z " />
<glyph glyph-name="pi" unicode="&#x3c0;" horiz-adv-x="359" d="M70 427 L308 427 Q319 427 320 416.5 Q321 406 315 396 L204 217 Q199 208 189.5 208 Q180 208 174 217 L64 396 Q58 406 58.5 416.5 Q59 427 70 427 Z " />
<glyph glyph-name="integral" unicode="&#x222b;" horiz-adv-x="373" d="M31 313 Q31 377 76 423 Q121 469 185 469 Q250 469 296 423 Q342 377 342 313 Q342 248 296 203 Q250 158 185 158 Q121 158 76 203 Q31 248 31 313 Z " />
<glyph glyph-name="ordfeminine" unicode="&#xaa;" horiz-adv-x="382" d="M152 607 L135 473 Q134 466 134 461 Q134 456 134 454 Q134 436 144.5 426 Q155 416 183 416 Q218 416 243.5 431 Q269 446 278 453 L298 616 Q291 623 269 638 Q247 653 213 653 Q182 653 168 640 Q154 627 152 607 Z M274 418 Q260 408 233 395 Q206 382 167 382 Q130 382 110 399 Q90 416 90 444 Q90 447 90 452 Q90 457 91 463 L109 613 Q113 647 136 667.5 Q159 688 204 688 Q241 688 266 675 Q291 662 303 652 L308 673 Q309 678 311.5 680.5 Q314 683 318 683 L341 683 Q345 683 347 680.5 Q349 678 348 674 L314 394 Q313 390 311 388.5 Q309 387 305 387 L279 387 Q276 387 274 388.5 Q272 390 272 394 L274 418 Z " />
<glyph glyph-name="ordmasculine" unicode="&#xba;" horiz-adv-x="369" d="M91 473 L108 610 Q112 645 139 666.5 Q166 688 230 688 Q284 688 311 669.5 Q338 651 338 621 Q338 618 337.5 612 Q337 606 336 601 L318 459 Q314 424 286.5 403 Q259 382 196 382 Q142 382 115.5 400 Q89 418 89 446 Q89 450 89.5 455.5 Q90 461 91 473 Z M274 463 L292 601 Q293 607 293 610.5 Q293 614 293 615 Q293 632 278 642.5 Q263 653 228 653 Q188 653 171.5 641 Q155 629 152 608 L136 483 Q135 477 134 469.5 Q133 462 133 454 Q133 437 148.5 426.5 Q164 416 198 416 Q238 416 254.5 428.5 Q271 441 274 463 Z " />
<glyph glyph-name="Omega" unicode="&#x3a9;" horiz-adv-x="373" d="M68 313 Q68 361 102.5 396 Q137 431 185 431 Q234 431 269 396 Q304 361 304 313 Q304 264 269 229.5 Q234 195 185 195 Q137 195 102.5 229.5 Q68 264 68 313 Z M85 313 Q85 271 114 242 Q143 213 185 213 Q227 213 256.5 242 Q286 271 286 313 Q286 354 256.5 384 Q227 414 185 414 Q143 414 114 384 Q85 354 85 313 Z " />
<glyph glyph-name="ae" unicode="&#xe6;" horiz-adv-x="786" d="M730 377 L714 253 Q713 248 710.5 245 Q708 242 702 242 L410 242 L395 123 Q394 116 394 111 Q394 106 394 103 Q394 72 419.5 53 Q445 34 511 34 Q585 34 614.5 57 Q644 80 648 116 L651 139 Q652 145 655 148 Q658 151 665 151 L689 151 Q694 151 697 148 Q700 145 699 139 L696 114 Q689 61 649.5 26.5 Q610 -8 507 -8 Q434 -8 396.5 11.5 Q359 31 349 64 Q325 45 279 18.5 Q233 -8 164 -8 Q108 -8 71.5 17.5 Q35 43 35 91 Q35 95 35 99 Q35 103 36 108 L42 155 Q48 201 82.5 234.5 Q117 268 181 268 L362 268 L374 369 Q375 376 375.5 381 Q376 386 376 390 Q376 421 351.5 440.5 Q327 460 262 460 Q189 460 161.5 437 Q134 414 128 378 L125 360 Q124 353 121.5 350.5 Q119 348 112 348 L87 348 Q81 348 78 350.5 Q75 353 76 360 L78 378 Q84 432 124.5 466.5 Q165 501 266 501 Q329 501 362.5 484.5 Q396 468 408 442 Q426 468 463.5 484.5 Q501 501 568 501 Q657 501 694 471.5 Q731 442 731 396 Q731 392 731 388 Q731 384 730 377 Z M426 376 L414 282 L668 282 L680 372 Q681 379 681 382.5 Q681 386 681 389 Q681 420 655.5 439.5 Q630 459 563 459 Q490 459 460 435.5 Q430 412 426 376 Z M175 35 Q234 35 278.5 62 Q323 89 342 103 L357 227 L183 227 Q142 227 119 204.5 Q96 182 92 148 L88 118 Q87 111 87 109 Q87 107 87 104 Q87 70 109.5 52.5 Q132 35 175 35 Z " />
<glyph glyph-name="oslash" unicode="&#xf8;" horiz-adv-x="507" d="M103 119 Q102 105 103.5 94 Q105 83 109 75 L358 442 Q344 449 323 453 Q302 457 274 457 Q201 457 170 434 Q139 411 135 374 L103 119 Z M222 36 Q295 36 326 59 Q357 82 361 119 L393 370 Q394 384 393 396 Q392 408 386 417 L137 50 Q151 43 172 39.5 Q193 36 222 36 Z M94 -13 Q89 -21 84 -25.5 Q79 -30 70 -30 L53 -30 Q46 -30 45.5 -24 Q45 -18 49 -13 L78 30 Q64 43 57 60.5 Q50 78 50 98 Q50 102 50 106 Q50 110 51 115 L83 377 Q90 431 133 466 Q176 501 279 501 Q313 501 340 496.5 Q367 492 386 483 L403 508 Q407 515 412.5 520 Q418 525 426 525 L445 525 Q452 525 452 520 Q452 515 448 508 L418 463 Q432 450 439 432.5 Q446 415 446 395 Q446 391 446 387.5 Q446 384 445 377 L413 115 Q406 61 363 26.5 Q320 -8 218 -8 Q183 -8 156 -3.5 Q129 1 110 10 L94 -13 Z " />
<glyph glyph-name="questiondown" unicode="&#xbf;" horiz-adv-x="496" d="M248 404 L257 481 Q258 488 261 490.5 Q264 493 271 493 L300 493 Q306 493 308.5 490.5 Q311 488 310 481 L301 405 Q300 398 297 395 Q294 392 288 392 L258 392 Q251 392 249 395 Q247 398 248 404 Z M292 324 L281 243 Q275 198 247.5 176 Q220 154 202 146 L135 114 Q122 107 98.5 88 Q75 69 71 32 L61 -47 Q60 -54 60 -58 Q60 -62 60 -66 Q60 -103 90 -126.5 Q120 -150 198 -150 Q285 -150 320 -121.5 Q355 -93 360 -47 L366 2 Q367 9 370 12 Q373 15 379 15 L408 15 Q414 15 416.5 12 Q419 9 418 2 L411 -54 Q404 -112 359 -153.5 Q314 -195 194 -195 Q88 -195 47 -159.5 Q6 -124 6 -74 Q6 -70 6 -64.5 Q6 -59 7 -52 L18 32 Q25 89 57.5 115.5 Q90 142 113 153 L168 179 Q184 187 204.5 204.5 Q225 222 229 254 L238 324 Q239 331 242 333.5 Q245 336 251 336 L281 336 Q288 336 290.5 332.5 Q293 329 292 324 Z " />
<glyph glyph-name="exclamdown" unicode="&#xa1;" horiz-adv-x="213" d="M95 404 L105 481 Q106 488 108.5 490.5 Q111 493 118 493 L147 493 Q154 493 156.5 490.5 Q159 488 158 481 L148 404 Q147 398 144 395 Q141 392 135 392 L105 392 Q98 392 96 395 Q94 398 95 404 Z M56 103 L90 324 Q91 330 94 333 Q97 336 103 336 L124 336 Q130 336 132.5 333 Q135 330 134 324 L111 103 L78 -175 Q77 -181 74 -184 Q71 -187 65 -187 L33 -187 Q27 -187 24.5 -184 Q22 -181 23 -175 L56 103 Z " />
<glyph glyph-name="logicalnot" unicode="&#xac;" horiz-adv-x="353" d="M69 313 Q69 358 100.5 390 Q132 422 178 422 Q223 422 255 390 Q287 358 287 313 Q287 267 255 235.5 Q223 204 178 204 Q132 204 100.5 235.5 Q69 267 69 313 Z " />
<glyph glyph-name="radical" unicode="&#x221a;" horiz-adv-x="373" d="M108 422 L265 422 Q281 422 288 415 Q295 408 295 392 L295 235 Q295 219 288 212 Q281 205 265 205 L108 205 Q92 205 85 212 Q78 219 78 235 L78 392 Q78 408 85 415 Q92 422 108 422 Z M265 405 L108 405 Q101 405 98 402 Q95 399 95 392 L95 235 Q95 229 98 225.5 Q101 222 108 222 L265 222 Q271 222 274.5 225.5 Q278 229 278 235 L278 392 Q278 399 274.5 402 Q271 405 265 405 Z " />
<glyph glyph-name="florin" unicode="&#x192;" horiz-adv-x="413" d="M67 -88 L179 367 L81 367 Q75 367 73 370 Q71 373 71 379 L72 399 Q72 406 76 408.5 Q80 411 86 411 L189 411 L231 585 Q244 639 288 673.5 Q332 708 433 708 L443 708 Q449 708 452 705.5 Q455 703 454 696 L451 675 Q450 669 447.5 666 Q445 663 438 663 L429 663 Q356 663 323.5 640 Q291 617 282 580 L240 411 L343 411 Q349 411 351.5 408 Q354 405 353 399 L351 379 Q350 373 347 370 Q344 367 338 367 L230 367 L119 -92 Q106 -146 60.5 -181 Q15 -216 -84 -216 L-94 -216 Q-99 -216 -101.5 -213 Q-104 -210 -103 -204 L-101 -184 Q-100 -177 -97 -174 Q-94 -171 -88 -171 L-80 -171 Q-6 -171 26 -148 Q58 -125 67 -88 Z " />
<glyph glyph-name="approxequal" unicode="&#x2248;" horiz-adv-x="480" d="M195 395 Q188 399 177.5 403 Q167 407 159 407 Q140 407 133.5 398 Q127 389 127 364 L127 344 Q127 338 123.5 335.5 Q120 333 114 333 L98 333 Q92 333 90 336.5 Q88 340 88 347 L88 368 Q88 415 108 433.5 Q128 452 155 452 Q167 452 180 447.5 Q193 443 204 437 L288 391 Q297 386 308 381.5 Q319 377 329 377 Q348 377 354 386.5 Q360 396 360 421 L360 440 Q360 446 363.5 448.5 Q367 451 372 451 L389 451 Q395 451 397 448 Q399 445 399 438 L399 416 Q399 367 379.5 349.5 Q360 332 334 332 Q324 332 308 336.5 Q292 341 279 348 L195 395 Z M195 244 Q188 248 177.5 252 Q167 256 159 256 Q140 256 133.5 247 Q127 238 127 213 L127 193 Q127 187 123.5 184.5 Q120 182 114 182 L98 182 Q92 182 90 185.5 Q88 189 88 196 L88 217 Q88 264 108 282.5 Q128 301 155 301 Q167 301 180 296.5 Q193 292 204 286 L288 240 Q297 235 308 230.5 Q319 226 329 226 Q348 226 354 235.5 Q360 245 360 270 L360 289 Q360 295 363.5 297.5 Q367 300 372 300 L389 300 Q395 300 397 297 Q399 294 399 287 L399 265 Q399 216 379.5 198.5 Q360 181 334 181 Q324 181 308 185.5 Q292 190 279 197 L195 244 Z " />
<glyph glyph-name="increment" unicode="&#x394;" horiz-adv-x="373" d="M108 414 L265 414 Q276 414 281 408.5 Q286 403 286 392 L286 235 Q286 224 281 219 Q276 214 265 214 L108 214 Q97 214 91.5 219 Q86 224 86 235 L86 392 Q86 403 91.5 408.5 Q97 414 108 414 Z " />
<glyph glyph-name="guillemotleft" unicode="&#xab;" horiz-adv-x="524" d="M282 245 L422 130 Q426 126 429 122.5 Q432 119 431 113 L427 81 Q426 75 422.5 73.5 Q419 72 415 75 L246 216 Q242 220 239.5 224.5 Q237 229 238 236 L240 256 Q241 263 245 267.5 Q249 272 254 276 L457 416 Q461 419 465 418 Q469 417 468 410 L464 378 Q463 372 459 368 Q455 364 450 360 L282 245 Z M83 245 L223 130 Q227 126 230 122.5 Q233 119 232 113 L228 81 Q227 75 223.5 73.5 Q220 72 216 75 L47 216 Q43 220 40.5 224.5 Q38 229 39 236 L41 256 Q42 263 46 267.5 Q50 272 55 276 L258 416 Q262 419 266 418 Q270 417 269 410 L265 378 Q264 372 260 368 Q256 364 251 360 L83 245 Z " />
<glyph glyph-name="guillemotright" unicode="&#xbb;" horiz-adv-x="530" d="M234 253 L94 368 Q90 372 87 375.5 Q84 379 85 385 L89 417 Q90 423 93.5 424.5 Q97 426 101 423 L270 282 Q274 278 276.5 273.5 Q279 269 278 262 L276 242 Q275 235 271 230.5 Q267 226 262 222 L59 82 Q55 79 51 80 Q47 81 48 88 L52 120 Q53 126 57 130 Q61 134 66 138 L234 253 Z M439 253 L299 368 Q295 372 292 375.5 Q289 379 290 385 L294 417 Q295 423 298.5 424.5 Q302 426 306 423 L475 282 Q479 278 481.5 273.5 Q484 269 483 262 L481 242 Q480 235 476 230.5 Q472 226 467 222 L264 82 Q260 79 256 80 Q252 81 253 88 L257 120 Q258 126 262 130 Q266 134 271 138 L439 253 Z " />
<glyph glyph-name="ellipsis" unicode="&#x2026;" horiz-adv-x="693" d="M104 89 L94 12 Q93 5 90 2.5 Q87 0 82 0 L52 0 Q46 0 43.5 2.5 Q41 5 42 12 L51 89 Q52 95 55 98 Q58 101 64 101 L94 101 Q100 101 102.5 98 Q105 95 104 89 Z M599 89 L589 12 Q588 5 585 2.5 Q582 0 577 0 L547 0 Q541 0 538.5 2.5 Q536 5 537 12 L546 89 Q547 95 550 98 Q553 101 559 101 L589 101 Q595 101 597.5 98 Q600 95 599 89 Z M352 89 L342 12 Q341 5 338 2.5 Q335 0 330 0 L300 0 Q294 0 291.5 2.5 Q289 5 290 12 L299 89 Q300 95 303 98 Q306 101 312 101 L342 101 Q348 101 350.5 98 Q353 95 352 89 Z " />
<glyph glyph-name="Agrave" unicode="&#xc0;" horiz-adv-x="525" d="M367 249 L316 517 Q311 543 308 572.5 Q305 602 304 624 Q300 611 289 575.5 Q278 540 269 519 L151 249 L367 249 Z M297 680 L328 680 Q334 680 337 677 Q340 674 341 668 L463 12 Q464 6 462 3 Q460 0 454 0 L423 0 Q417 0 414 3 Q411 6 410 12 L373 206 L132 206 L49 12 Q46 6 43 3 Q40 0 34 0 L5 0 Q-2 0 -3.5 3.5 Q-5 7 -3 12 L280 668 Q283 674 287 677 Q291 680 297 680 Z M276 747 L211 866 Q209 870 210 874 Q211 878 218 878 L249 878 Q255 878 258.5 875 Q262 872 264 868 L320 751 Q323 745 321 742.5 Q319 740 314 740 L291 740 Q285 740 281 742 Q277 744 276 747 Z " />
<glyph glyph-name="Atilde" unicode="&#xc3;" horiz-adv-x="525" d="M367 249 L316 517 Q311 543 308 572.5 Q305 602 304 624 Q300 611 289 575.5 Q278 540 269 519 L151 249 L367 249 Z M297 680 L328 680 Q334 680 337 677 Q340 674 341 668 L463 12 Q464 6 462 3 Q460 0 454 0 L423 0 Q417 0 414 3 Q411 6 410 12 L373 206 L132 206 L49 12 Q46 6 43 3 Q40 0 34 0 L5 0 Q-2 0 -3.5 3.5 Q-5 7 -3 12 L280 668 Q283 674 287 677 Q291 680 297 680 Z M248 828 Q230 828 223 817.5 Q216 807 212 779 L210 765 Q209 759 205.5 756.5 Q202 754 196 754 L180 754 Q174 754 172 758 Q170 762 171 768 L175 790 Q183 834 201.5 851.5 Q220 869 249 869 Q261 869 275 863.5 Q289 858 301 848 L341 812 Q348 805 356.5 800.5 Q365 796 373 796 Q391 796 398.5 807 Q406 818 410 850 L411 859 Q412 865 415.5 867.5 Q419 870 425 870 L441 870 Q448 870 449.5 866.5 Q451 863 450 857 L447 836 Q440 790 420 772.5 Q400 755 372 755 Q357 755 344.5 761 Q332 767 320 777 L279 813 Q272 819 264 823.5 Q256 828 248 828 Z " />
<glyph glyph-name="Otilde" unicode="&#xd5;" horiz-adv-x="587" d="M65 135 L115 547 Q122 605 170 646.5 Q218 688 340 688 Q447 688 490.5 652.5 Q534 617 534 566 Q534 564 534 559 Q534 554 533 545 L483 133 Q476 75 427.5 33.5 Q379 -8 257 -8 Q150 -8 107 26.5 Q64 61 64 112 Q64 117 64 122 Q64 127 65 135 Z M430 141 L479 537 Q480 541 480 546 Q480 551 480 555 Q480 594 448 618 Q416 642 335 642 Q249 642 211.5 613.5 Q174 585 168 539 L119 143 Q118 139 118 134 Q118 129 118 125 Q118 86 150 62 Q182 38 262 38 Q349 38 386.5 66.5 Q424 95 430 141 Z M294 828 Q276 828 269 817.5 Q262 807 258 779 L256 765 Q255 759 251.5 756.5 Q248 754 242 754 L226 754 Q220 754 218 758 Q216 762 217 768 L221 790 Q229 834 247.5 851.5 Q266 869 295 869 Q307 869 321 863.5 Q335 858 347 848 L387 812 Q394 805 402.5 800.5 Q411 796 419 796 Q437 796 444.5 807 Q452 818 456 850 L457 859 Q458 865 461.5 867.5 Q465 870 471 870 L487 870 Q494 870 495.5 866.5 Q497 863 496 857 L493 836 Q486 790 466 772.5 Q446 755 418 755 Q403 755 390.5 761 Q378 767 366 777 L325 813 Q318 819 310 823.5 Q302 828 294 828 Z " />
<glyph glyph-name="OE" unicode="&#x152;" horiz-adv-x="875" d="M262 37 Q349 37 386 65 Q423 93 429 139 L479 541 Q480 545 480 549 Q480 553 480 556 Q480 595 448 619 Q416 643 335 643 Q249 643 211.5 614.5 Q174 586 168 540 L119 143 Q118 138 118 133 Q118 128 118 124 Q118 85 150 61 Q182 37 262 37 Z M414 12 L417 36 Q392 17 352.5 4.5 Q313 -8 257 -8 Q150 -8 106.5 26.5 Q63 61 63 112 Q63 117 63.5 123 Q64 129 65 135 L115 547 Q122 605 169 646.5 Q216 688 334 688 Q389 688 429 676.5 Q469 665 492 643 L495 668 Q496 674 499 677 Q502 680 508 680 L849 680 Q856 680 858.5 677.5 Q861 675 860 669 L857 647 Q856 641 853 638 Q850 635 844 635 L544 635 L513 380 L794 380 Q799 380 802.5 377.5 Q806 375 805 369 L803 348 Q802 342 798.5 339 Q795 336 789 336 L508 336 L471 45 L783 45 Q789 45 792 42.5 Q795 40 794 34 L791 12 Q790 6 787.5 3 Q785 0 779 0 L424 0 Q419 0 416 3 Q413 6 414 12 Z " />
<glyph glyph-name="oe" unicode="&#x153;" horiz-adv-x="805" d="M525 -8 Q465 -8 428.5 5.5 Q392 19 376 43 Q357 19 319 5.5 Q281 -8 218 -8 Q128 -8 89 21.5 Q50 51 50 97 Q50 101 50 106 Q50 111 51 115 L83 378 Q90 432 132 466.5 Q174 501 276 501 Q339 501 374.5 486 Q410 471 424 446 Q443 471 481.5 486 Q520 501 585 501 Q674 501 711 471.5 Q748 442 748 396 Q748 394 748 389 Q748 384 747 378 L732 255 Q731 250 728 247 Q725 244 720 244 L428 244 L412 117 Q411 112 411 109 Q411 106 411 103 Q411 72 437 52.5 Q463 33 529 33 Q602 33 630.5 56.5 Q659 80 665 115 L669 139 Q670 145 673 147.5 Q676 150 682 150 L707 150 Q712 150 715 147.5 Q718 145 717 139 L713 114 Q705 61 666.5 26.5 Q628 -8 525 -8 Z M686 281 L698 376 Q699 381 699 384.5 Q699 388 699 389 Q699 420 673 440 Q647 460 581 460 Q508 460 478 436.5 Q448 413 444 376 L432 281 L686 281 Z M361 119 L392 366 Q393 375 393 379 Q393 383 393 387 Q393 419 366.5 438.5 Q340 458 274 458 Q201 458 170 434.5 Q139 411 135 374 L103 119 Q102 115 102 112 Q102 109 102 105 Q102 73 129 54 Q156 35 222 35 Q295 35 326 58.5 Q357 82 361 119 Z " />
<glyph glyph-name="endash" unicode="&#x2013;" horiz-adv-x="518" d="M80 311 L437 311 Q443 311 446 308.5 Q449 306 449 300 L449 279 Q449 273 446 270 Q443 267 437 267 L80 267 Q74 267 71 270 Q68 273 68 279 L68 300 Q68 306 71 308.5 Q74 311 80 311 Z " />
<glyph glyph-name="emdash" unicode="&#x2014;" horiz-adv-x="827" d="M80 311 L745 311 Q752 311 754.5 308.5 Q757 306 757 300 L757 279 Q757 273 754.5 270 Q752 267 745 267 L80 267 Q74 267 71 270 Q68 273 68 279 L68 300 Q68 306 71 308.5 Q74 311 80 311 Z " />
<glyph glyph-name="quotedblleft" unicode="&#x201c;" horiz-adv-x="357" d="M297 606 L289 547 Q288 541 285 538 Q282 535 276 535 L246 535 Q240 535 237.5 538 Q235 541 236 547 L244 608 Q249 651 274 679.5 Q299 708 346 722 Q352 723 355.5 722 Q359 721 360 715 L365 694 Q366 688 364.5 685 Q363 682 356 679 Q325 666 312.5 648.5 Q300 631 297 606 Z M156 606 L148 547 Q147 541 144 538 Q141 535 135 535 L105 535 Q99 535 96.5 538 Q94 541 95 547 L103 608 Q108 651 133 679.5 Q158 708 205 722 Q211 723 214.5 722 Q218 721 219 715 L224 694 Q225 688 223.5 685 Q222 682 215 679 Q184 666 171.5 648.5 Q159 631 156 606 Z " />
<glyph glyph-name="quotedblright" unicode="&#x201d;" horiz-adv-x="360" d="M152 651 L160 710 Q161 716 164 719 Q167 722 173 722 L203 722 Q209 722 211.5 719 Q214 716 213 710 L205 649 Q200 606 175 577.5 Q150 549 103 535 Q97 534 93.5 535 Q90 536 89 542 L84 563 Q83 569 84.5 572 Q86 575 93 578 Q124 591 136.5 608.5 Q149 626 152 651 Z M293 651 L301 710 Q302 716 305 719 Q308 722 314 722 L344 722 Q350 722 352.5 719 Q355 716 354 710 L346 649 Q341 606 316 577.5 Q291 549 244 535 Q238 534 234.5 535 Q231 536 230 542 L225 563 Q224 569 225.5 572 Q227 575 234 578 Q265 591 277.5 608.5 Q290 626 293 651 Z " />
<glyph glyph-name="quoteleft" unicode="&#x2018;" horiz-adv-x="216" d="M156 606 L148 547 Q147 541 144 538 Q141 535 135 535 L105 535 Q99 535 96.5 538 Q94 541 95 547 L103 608 Q108 651 133 679.5 Q158 708 205 722 Q211 723 214.5 722 Q218 721 219 715 L224 694 Q225 688 223.5 685 Q222 682 215 679 Q184 666 171.5 648.5 Q159 631 156 606 Z " />
<glyph glyph-name="quoteright" unicode="&#x2019;" horiz-adv-x="219" d="M152 651 L160 710 Q161 716 164 719 Q167 722 173 722 L203 722 Q209 722 211.5 719 Q214 716 213 710 L205 649 Q200 606 175 577.5 Q150 549 103 535 Q97 534 93.5 535 Q90 536 89 542 L84 563 Q83 569 84.5 572 Q86 575 93 578 Q124 591 136.5 608.5 Q149 626 152 651 Z " />
<glyph glyph-name="divide" unicode="&#xf7;" horiz-adv-x="566" d="M313 531 L313 453 Q313 447 310.5 444 Q308 441 302 441 L272 441 Q266 441 263 444 Q260 447 260 453 L260 531 Q260 537 263 539.5 Q266 542 272 542 L302 542 Q308 542 310.5 539.5 Q313 537 313 531 Z M87 348 L486 348 Q490 348 494 346 Q498 344 498 337 L498 316 Q498 310 495.5 307 Q493 304 486 304 L88 304 Q82 304 79.5 306.5 Q77 309 77 316 L77 337 Q77 343 79.5 345.5 Q82 348 87 348 Z M313 202 L313 125 Q313 118 310.5 115.5 Q308 113 302 113 L272 113 Q266 113 263 115.5 Q260 118 260 125 L260 202 Q260 208 263 211 Q266 214 272 214 L302 214 Q308 214 310.5 211 Q313 208 313 202 Z " />
<glyph glyph-name="lozenge" unicode="&#x25ca;" horiz-adv-x="373" d="M60 329 L171 440 Q175 444 178.5 445.5 Q182 447 186 447 Q190 447 193.5 445.5 Q197 444 201 440 L312 329 Q316 325 318 321 Q320 317 320 314 Q320 310 318 306.5 Q316 303 312 299 L201 188 Q197 184 193.5 181.5 Q190 179 186 179 Q182 179 178.5 181.5 Q175 184 171 188 L60 299 Q56 303 54 306.5 Q52 310 52 314 Q52 317 54 321 Q56 325 60 329 Z " />
<glyph glyph-name="ydieresis" unicode="&#xff;" horiz-adv-x="438" d="M434 481 L120 -196 Q118 -201 114 -204.5 Q110 -208 105 -208 L81 -208 Q75 -208 72.5 -205 Q70 -202 73 -196 L161 -2 L54 481 Q53 486 56 489.5 Q59 493 65 493 L95 493 Q101 493 103.5 489.5 Q106 486 107 481 L186 120 Q188 109 191 91.5 Q194 74 194 68 Q198 81 203 93 Q208 105 214 118 L382 481 Q384 486 388 489.5 Q392 493 397 493 L424 493 Q431 493 434 490 Q437 487 434 481 Z M329 690 L317 592 Q316 586 313 583 Q310 580 304 580 L286 580 Q280 580 277.5 583 Q275 586 276 592 L288 690 Q289 696 292 699 Q295 702 301 702 L319 702 Q326 702 328 699 Q330 696 329 690 Z M231 690 L219 592 Q218 586 215 583 Q212 580 206 580 L188 580 Q182 580 179.5 583 Q177 586 178 592 L190 690 Q191 696 194 699 Q197 702 203 702 L221 702 Q228 702 230 699 Q232 696 231 690 Z " />
<glyph glyph-name="Ydieresis" unicode="&#x178;" horiz-adv-x="515" d="M130 668 L254 360 Q256 354 259.5 344.5 Q263 335 264 327 Q266 332 271.5 342.5 Q277 353 282 360 L483 668 Q487 673 490 676.5 Q493 680 499 680 L531 680 Q537 680 539.5 677.5 Q542 675 538 668 L285 282 L252 12 Q251 6 248.5 3 Q246 0 240 0 L210 0 Q204 0 201 3 Q198 6 199 12 L231 276 L73 668 Q71 674 74 677 Q77 680 83 680 L117 680 Q123 680 125.5 677 Q128 674 130 668 Z M389 857 L377 759 Q376 753 373 750 Q370 747 364 747 L346 747 Q339 747 337 750 Q335 753 336 759 L347 857 Q348 863 351.5 866 Q355 869 361 869 L379 869 Q385 869 387.5 866 Q390 863 389 857 Z M291 857 L279 759 Q278 753 275 750 Q272 747 266 747 L248 747 Q241 747 239 750 Q237 753 238 759 L249 857 Q250 863 253.5 866 Q257 869 263 869 L281 869 Q287 869 289.5 866 Q292 863 291 857 Z " />
<glyph glyph-name="fraction" unicode="&#x2044;" horiz-adv-x="74" d="M261 676 L-130 4 Q-134 -2 -137.5 -5 Q-141 -8 -148 -8 L-171 -8 Q-176 -8 -177 -4 Q-178 0 -176 4 L215 676 Q218 681 222.5 684.5 Q227 688 233 688 L256 688 Q262 688 263 684.5 Q264 681 261 676 Z " />
<glyph glyph-name="currency" unicode="&#xa4;" horiz-adv-x="633" d="M207 392 L194 289 Q190 252 213.5 229 Q237 206 307 206 Q377 206 406.5 229 Q436 252 440 289 L453 392 Q457 428 433.5 451 Q410 474 340 474 Q270 474 240.5 451 Q211 428 207 392 Z M77 96 Q72 92 68 92 Q64 92 60 96 L49 107 Q45 111 46.5 115.5 Q48 120 52 124 L159 220 Q150 233 147.5 250 Q145 267 147 286 L160 394 Q162 413 169 431 Q176 449 188 462 L105 557 Q101 561 102 565.5 Q103 570 108 574 L121 585 Q125 589 129.5 589 Q134 589 138 585 L222 489 Q243 500 272.5 506 Q302 512 342 512 Q382 512 411.5 505.5 Q441 499 460 488 L570 585 Q574 589 578.5 589 Q583 589 587 585 L598 574 Q602 570 601 565.5 Q600 561 595 557 L488 461 Q497 448 499.5 430.5 Q502 413 500 394 L487 286 Q485 267 478 249.5 Q471 232 459 218 L541 124 Q545 120 544.5 115.5 Q544 111 539 107 L526 96 Q522 92 517.5 92 Q513 92 509 96 L425 192 Q404 181 374.5 174.5 Q345 168 305 168 Q264 168 234.5 174.5 Q205 181 186 193 L77 96 Z " />
<glyph glyph-name="guilsinglleft" unicode="&#x2039;" horiz-adv-x="325" d="M83 245 L223 130 Q227 126 230 122.5 Q233 119 232 113 L228 81 Q227 75 223.5 73.5 Q220 72 216 75 L47 216 Q43 220 40.5 224.5 Q38 229 39 236 L41 256 Q42 263 46 267.5 Q50 272 55 276 L258 416 Q262 419 266 418 Q270 417 269 410 L265 378 Q264 372 260 368 Q256 364 251 360 L83 245 Z " />
<glyph glyph-name="guilsinglright" unicode="&#x203a;" horiz-adv-x="327" d="M234 246 L94 361 Q90 365 87 368.5 Q84 372 85 378 L89 410 Q90 416 93.5 417.5 Q97 419 101 416 L270 275 Q274 271 276.5 266.5 Q279 262 278 255 L276 235 Q275 228 271 223.5 Q267 219 262 215 L59 75 Q55 72 51 73 Q47 74 48 81 L52 113 Q53 119 57 123 Q61 127 66 131 L234 246 Z " />
<glyph glyph-name="fi" unicode="&#xfb01;" horiz-adv-x="529" d="M470 479 L412 12 Q411 6 408.5 3 Q406 0 400 0 L371 0 Q364 0 361.5 3 Q359 6 360 12 L414 448 L176 448 L96 -195 Q95 -202 92.5 -205 Q90 -208 83 -208 L55 -208 Q49 -208 46 -205 Q43 -202 44 -195 L124 448 L59 448 Q52 448 50 450.5 Q48 453 49 460 L50 476 Q51 483 53.5 485.5 Q56 488 63 488 L119 491 L129 491 L139 576 Q145 630 187 664.5 Q229 699 330 699 L461 699 Q467 699 469.5 696.5 Q472 694 471 687 L469 666 Q468 660 465 657 Q462 654 456 654 L328 654 Q254 654 224 631 Q194 608 190 571 L181 491 L459 491 Q466 491 468.5 488.5 Q471 486 470 479 Z " />
<glyph glyph-name="fl" unicode="&#xfb02;" horiz-adv-x="529" d="M495 687 L412 12 Q411 6 408.5 3 Q406 0 400 0 L371 0 Q364 0 361.5 3 Q359 6 360 12 L439 654 L328 654 Q254 654 224 631 Q194 608 190 571 L181 491 L296 491 Q302 491 305 488.5 Q308 486 307 480 L304 460 Q303 453 300.5 450.5 Q298 448 292 448 L176 448 L96 -195 Q95 -202 92.5 -205 Q90 -208 83 -208 L55 -208 Q49 -208 46 -205 Q43 -202 44 -195 L124 448 L59 448 Q52 448 50 450.5 Q48 453 49 460 L50 476 Q51 483 53.5 485.5 Q56 488 63 488 L119 491 L129 491 L139 576 Q145 630 187 664.5 Q229 699 330 699 L484 699 Q491 699 493.5 696.5 Q496 694 495 687 Z " />
<glyph glyph-name="daggerdbl" unicode="&#x2021;" horiz-adv-x="434" d="M294 687 L211 12 Q210 6 207 3 Q204 0 198 0 L169 0 Q163 0 160.5 3 Q158 6 159 12 L241 687 Q242 693 245 696 Q248 699 255 699 L284 699 Q290 699 292.5 696 Q295 693 294 687 Z M423 486 L420 465 Q419 459 416.5 456 Q414 453 408 453 L297 453 Q290 453 287.5 456 Q285 459 286 465 L288 486 Q289 492 291.5 495 Q294 498 300 498 L412 498 Q418 498 421 495 Q424 492 423 486 Z M62 486 Q63 492 65.5 495 Q68 498 75 498 L185 498 Q192 498 194 495 Q196 492 196 486 L195 465 Q195 459 191.5 456 Q188 453 182 453 L70 453 Q64 453 61 456 Q58 459 59 465 L62 486 Z M391 235 L389 214 Q388 207 385 204 Q382 201 376 201 L265 201 Q259 201 256 204 Q253 207 254 214 L256 235 Q257 241 260 243.5 Q263 246 269 246 L380 246 Q387 246 389.5 243.5 Q392 241 391 235 Z M30 235 Q31 241 34 243.5 Q37 246 43 246 L154 246 Q161 246 163.5 243.5 Q166 241 165 235 L163 214 Q162 207 159.5 204 Q157 201 150 201 L39 201 Q33 201 30 204 Q27 207 28 214 L30 235 Z " />
<glyph glyph-name="middot" unicode="&#xb7;" horiz-adv-x="210" d="M134 300 L124 223 Q123 216 120 213.5 Q117 211 112 211 L82 211 Q76 211 73.5 213.5 Q71 216 72 223 L81 300 Q82 306 85 309 Q88 312 94 312 L124 312 Q130 312 132.5 309 Q135 306 134 300 Z " />
<glyph glyph-name="quotesinglbase" unicode="&#x201a;" horiz-adv-x="159" d="M22 30 L30 89 Q31 95 34 98 Q37 101 43 101 L73 101 Q79 101 81.5 98 Q84 95 83 89 L75 28 Q70 -15 45 -43.5 Q20 -72 -27 -86 Q-33 -87 -36.5 -86 Q-40 -85 -41 -79 L-46 -58 Q-47 -52 -45.5 -49 Q-44 -46 -37 -43 Q-6 -30 6.5 -12.5 Q19 5 22 30 Z " />
<glyph glyph-name="quotedblbase" unicode="&#x201e;" horiz-adv-x="300" d="M22 30 L30 89 Q31 95 34 98 Q37 101 43 101 L73 101 Q79 101 81.5 98 Q84 95 83 89 L75 28 Q70 -15 45 -43.5 Q20 -72 -27 -86 Q-33 -87 -36.5 -86 Q-40 -85 -41 -79 L-46 -58 Q-47 -52 -45.5 -49 Q-44 -46 -37 -43 Q-6 -30 6.5 -12.5 Q19 5 22 30 Z M163 30 L171 89 Q172 95 175 98 Q178 101 184 101 L214 101 Q220 101 222.5 98 Q225 95 224 89 L216 28 Q211 -15 186 -43.5 Q161 -72 114 -86 Q108 -87 104.5 -86 Q101 -85 100 -79 L95 -58 Q94 -52 95.5 -49 Q97 -46 104 -43 Q135 -30 147.5 -12.5 Q160 5 163 30 Z " />
<glyph glyph-name="perthousand" unicode="&#x2030;" horiz-adv-x="1013" d="M582 676 L191 4 Q187 -2 183.5 -5 Q180 -8 173 -8 L150 -8 Q145 -8 144 -4 Q143 0 145 4 L536 676 Q539 681 543.5 684.5 Q548 688 554 688 L577 688 Q583 688 584 684.5 Q585 681 582 676 Z M71 411 L95 601 Q99 635 124.5 659.5 Q150 684 220 684 Q280 684 304.5 663.5 Q329 643 329 612 Q329 611 329 608.5 Q329 606 328 599 L304 411 Q300 378 275.5 353.5 Q251 329 180 329 Q121 329 95.5 350 Q70 371 70 400 Q70 401 70 403.5 Q70 406 71 411 Z M262 417 L285 595 Q286 602 286 603.5 Q286 605 286 605 Q286 626 270 637 Q254 648 217 648 Q173 648 156.5 634 Q140 620 137 595 L115 417 Q114 412 114 410.5 Q114 409 114 408 Q114 387 128.5 376 Q143 365 183 365 Q224 365 241.5 379 Q259 393 262 417 Z M699 79 L723 269 Q727 302 752.5 326.5 Q778 351 848 351 Q907 351 931.5 330 Q956 309 956 280 Q956 279 956 275 Q956 271 955 265 L932 79 Q928 45 903 20.5 Q878 -4 808 -4 Q749 -4 723.5 16.5 Q698 37 698 68 Q698 69 698 71 Q698 73 699 79 Z M402 79 L426 269 Q430 302 455.5 326.5 Q481 351 551 351 Q610 351 635 330 Q660 309 660 280 Q660 279 660 275.5 Q660 272 659 265 L635 79 Q631 45 606 20.5 Q581 -4 511 -4 Q451 -4 426 16.5 Q401 37 401 68 Q401 69 401 71.5 Q401 74 402 79 Z M890 85 L912 263 Q913 268 913 269.5 Q913 271 913 271 Q913 293 897.5 304 Q882 315 845 315 Q800 315 784 301.5 Q768 288 765 263 L742 85 Q741 81 741 78.5 Q741 76 741 75 Q741 54 756 43 Q771 32 811 32 Q852 32 869.5 46 Q887 60 890 85 Z M592 85 L616 263 Q617 268 617 269.5 Q617 271 617 271 Q617 293 601 304 Q585 315 548 315 Q503 315 487 301.5 Q471 288 468 263 L445 85 Q444 81 444 78.5 Q444 76 444 75 Q444 54 459 43 Q474 32 514 32 Q555 32 571.5 46 Q588 60 592 85 Z " />
<glyph glyph-name="Acircumflex" unicode="&#xc2;" horiz-adv-x="525" d="M367 249 L316 517 Q311 543 308 572.5 Q305 602 304 624 Q300 611 289 575.5 Q278 540 269 519 L151 249 L367 249 Z M297 680 L328 680 Q334 680 337 677 Q340 674 341 668 L463 12 Q464 6 462 3 Q460 0 454 0 L423 0 Q417 0 414 3 Q411 6 410 12 L373 206 L132 206 L49 12 Q46 6 43 3 Q40 0 34 0 L5 0 Q-2 0 -3.5 3.5 Q-5 7 -3 12 L280 668 Q283 674 287 677 Q291 680 297 680 Z M324 844 L252 752 Q248 748 244.5 744 Q241 740 235 740 L211 740 Q205 740 203.5 743.5 Q202 747 206 752 L297 866 Q301 871 306 874.5 Q311 878 318 878 L337 878 Q344 878 347.5 874.5 Q351 871 354 867 L419 752 Q422 747 420 743.5 Q418 740 411 740 L389 740 Q384 740 380 743 Q376 746 373 752 L324 844 Z " />
<glyph glyph-name="Ecircumflex" unicode="&#xca;" horiz-adv-x="523" d="M344 844 L272 752 Q268 748 264.5 744 Q261 740 255 740 L231 740 Q225 740 223.5 743.5 Q222 747 226 752 L317 866 Q321 871 326 874.5 Q331 878 338 878 L357 878 Q364 878 367.5 874.5 Q371 871 374 867 L439 752 Q442 747 440 743.5 Q438 740 431 740 L409 740 Q404 740 400 743 Q396 746 393 752 L344 844 Z M428 0 L74 0 Q69 0 66 3 Q63 6 64 12 L144 668 Q145 674 148.5 677 Q152 680 158 680 L499 680 Q505 680 508 677.5 Q511 675 510 668 L507 646 Q506 639 503 636.5 Q500 634 493 634 L194 634 L163 380 L444 380 Q450 380 452.5 377.5 Q455 375 454 368 L452 347 Q451 341 448 338 Q445 335 439 335 L157 335 L121 46 L433 46 Q439 46 442 43.5 Q445 41 444 34 L441 12 Q440 5 437.5 2.5 Q435 0 428 0 Z " />
<glyph glyph-name="Aacute" unicode="&#xc1;" horiz-adv-x="525" d="M367 249 L316 517 Q311 543 308 572.5 Q305 602 304 624 Q300 611 289 575.5 Q278 540 269 519 L151 249 L367 249 Z M297 680 L328 680 Q334 680 337 677 Q340 674 341 668 L463 12 Q464 6 462 3 Q460 0 454 0 L423 0 Q417 0 414 3 Q411 6 410 12 L373 206 L132 206 L49 12 Q46 6 43 3 Q40 0 34 0 L5 0 Q-2 0 -3.5 3.5 Q-5 7 -3 12 L280 668 Q283 674 287 677 Q291 680 297 680 Z M434 866 L340 747 Q338 745 334.5 742.5 Q331 740 325 740 L299 740 Q294 740 292.5 742.5 Q291 745 295 751 L381 868 Q384 872 387.5 875 Q391 878 397 878 L430 878 Q437 878 437.5 874.5 Q438 871 434 866 Z " />
<glyph glyph-name="Edieresis" unicode="&#xcb;" horiz-adv-x="523" d="M428 0 L74 0 Q69 0 66 3 Q63 6 64 12 L144 668 Q145 674 148.5 677 Q152 680 158 680 L499 680 Q505 680 508 677.5 Q511 675 510 668 L507 646 Q506 639 503 636.5 Q500 634 493 634 L194 634 L163 380 L444 380 Q450 380 452.5 377.5 Q455 375 454 368 L452 347 Q451 341 448 338 Q445 335 439 335 L157 335 L121 46 L433 46 Q439 46 442 43.5 Q445 41 444 34 L441 12 Q440 5 437.5 2.5 Q435 0 428 0 Z M422 857 L410 759 Q409 753 406 750 Q403 747 397 747 L379 747 Q372 747 370 750 Q368 753 369 759 L380 857 Q381 863 384.5 866 Q388 869 394 869 L412 869 Q418 869 420.5 866 Q423 863 422 857 Z M324 857 L312 759 Q311 753 308 750 Q305 747 299 747 L281 747 Q274 747 272 750 Q270 753 271 759 L282 857 Q283 863 286.5 866 Q290 869 296 869 L314 869 Q320 869 322.5 866 Q325 863 324 857 Z " />
<glyph glyph-name="Egrave" unicode="&#xc8;" horiz-adv-x="523" d="M302 747 L237 866 Q235 870 236 874 Q237 878 244 878 L275 878 Q281 878 284.5 875 Q288 872 290 868 L346 751 Q349 745 347 742.5 Q345 740 340 740 L317 740 Q311 740 307 742 Q303 744 302 747 Z M428 0 L74 0 Q69 0 66 3 Q63 6 64 12 L144 668 Q145 674 148.5 677 Q152 680 158 680 L499 680 Q505 680 508 677.5 Q511 675 510 668 L507 646 Q506 639 503 636.5 Q500 634 493 634 L194 634 L163 380 L444 380 Q450 380 452.5 377.5 Q455 375 454 368 L452 347 Q451 341 448 338 Q445 335 439 335 L157 335 L121 46 L433 46 Q439 46 442 43.5 Q445 41 444 34 L441 12 Q440 5 437.5 2.5 Q435 0 428 0 Z " />
<glyph glyph-name="Iacute" unicode="&#xcd;" horiz-adv-x="245" d="M198 668 L117 12 Q116 6 113.5 3 Q111 0 105 0 L75 0 Q69 0 66 3 Q63 6 64 12 L144 668 Q145 674 148.5 677 Q152 680 158 680 L188 680 Q194 680 196.5 677 Q199 674 198 668 Z M299 866 L205 747 Q203 745 199.5 742.5 Q196 740 190 740 L164 740 Q159 740 157.5 742.5 Q156 745 160 751 L246 868 Q249 872 252.5 875 Q256 878 262 878 L295 878 Q302 878 302.5 874.5 Q303 871 299 866 Z " />
<glyph glyph-name="Icircumflex" unicode="&#xce;" horiz-adv-x="245" d="M198 668 L117 12 Q116 6 113.5 3 Q111 0 105 0 L75 0 Q69 0 66 3 Q63 6 64 12 L144 668 Q145 674 148.5 677 Q152 680 158 680 L188 680 Q194 680 196.5 677 Q199 674 198 668 Z M190 844 L118 752 Q114 748 110.5 744 Q107 740 101 740 L77 740 Q71 740 69.5 743.5 Q68 747 72 752 L163 866 Q167 871 172 874.5 Q177 878 184 878 L203 878 Q210 878 213.5 874.5 Q217 871 220 867 L285 752 Q288 747 286 743.5 Q284 740 277 740 L255 740 Q250 740 246 743 Q242 746 239 752 L190 844 Z " />
<glyph glyph-name="Idieresis" unicode="&#xcf;" horiz-adv-x="245" d="M198 668 L117 12 Q116 6 113.5 3 Q111 0 105 0 L75 0 Q69 0 66 3 Q63 6 64 12 L144 668 Q145 674 148.5 677 Q152 680 158 680 L188 680 Q194 680 196.5 677 Q199 674 198 668 Z M265 857 L253 759 Q252 753 249 750 Q246 747 240 747 L222 747 Q215 747 213 750 Q211 753 212 759 L223 857 Q224 863 227.5 866 Q231 869 237 869 L255 869 Q261 869 263.5 866 Q266 863 265 857 Z M167 857 L155 759 Q154 753 151 750 Q148 747 142 747 L124 747 Q117 747 115 750 Q113 753 114 759 L125 857 Q126 863 129.5 866 Q133 869 139 869 L157 869 Q163 869 165.5 866 Q168 863 167 857 Z " />
<glyph glyph-name="Igrave" unicode="&#xcc;" horiz-adv-x="245" d="M198 668 L117 12 Q116 6 113.5 3 Q111 0 105 0 L75 0 Q69 0 66 3 Q63 6 64 12 L144 668 Q145 674 148.5 677 Q152 680 158 680 L188 680 Q194 680 196.5 677 Q199 674 198 668 Z M149 747 L84 866 Q82 870 83 874 Q84 878 91 878 L122 878 Q128 878 131.5 875 Q135 872 137 868 L193 751 Q196 745 194 742.5 Q192 740 187 740 L164 740 Q158 740 154 742 Q150 744 149 747 Z " />
<glyph glyph-name="Oacute" unicode="&#xd3;" horiz-adv-x="587" d="M466 866 L372 747 Q370 745 366.5 742.5 Q363 740 357 740 L331 740 Q326 740 324.5 742.5 Q323 745 327 751 L413 868 Q416 872 419.5 875 Q423 878 429 878 L462 878 Q469 878 469.5 874.5 Q470 871 466 866 Z M65 135 L115 547 Q122 605 170 646.5 Q218 688 340 688 Q447 688 490.5 652.5 Q534 617 534 566 Q534 564 534 559 Q534 554 533 545 L483 133 Q476 75 427.5 33.5 Q379 -8 257 -8 Q150 -8 107 26.5 Q64 61 64 112 Q64 117 64 122 Q64 127 65 135 Z M430 141 L479 537 Q480 541 480 546 Q480 551 480 555 Q480 594 448 618 Q416 642 335 642 Q249 642 211.5 613.5 Q174 585 168 539 L119 143 Q118 139 118 134 Q118 129 118 125 Q118 86 150 62 Q182 38 262 38 Q349 38 386.5 66.5 Q424 95 430 141 Z " />
<glyph glyph-name="Ocircumflex" unicode="&#xd4;" horiz-adv-x="587" d="M359 844 L287 752 Q283 748 279.5 744 Q276 740 270 740 L246 740 Q240 740 238.5 743.5 Q237 747 241 752 L332 866 Q336 871 341 874.5 Q346 878 353 878 L372 878 Q379 878 382.5 874.5 Q386 871 389 867 L454 752 Q457 747 455 743.5 Q453 740 446 740 L424 740 Q419 740 415 743 Q411 746 408 752 L359 844 Z M65 135 L115 547 Q122 605 170 646.5 Q218 688 340 688 Q447 688 490.5 652.5 Q534 617 534 566 Q534 564 534 559 Q534 554 533 545 L483 133 Q476 75 427.5 33.5 Q379 -8 257 -8 Q150 -8 107 26.5 Q64 61 64 112 Q64 117 64 122 Q64 127 65 135 Z M430 141 L479 537 Q480 541 480 546 Q480 551 480 555 Q480 594 448 618 Q416 642 335 642 Q249 642 211.5 613.5 Q174 585 168 539 L119 143 Q118 139 118 134 Q118 129 118 125 Q118 86 150 62 Q182 38 262 38 Q349 38 386.5 66.5 Q424 95 430 141 Z " />
<glyph glyph-name="Ograve" unicode="&#xd2;" horiz-adv-x="587" d="M321 747 L256 866 Q254 870 255 874 Q256 878 263 878 L294 878 Q300 878 303.5 875 Q307 872 309 868 L365 751 Q368 745 366 742.5 Q364 740 359 740 L336 740 Q330 740 326 742 Q322 744 321 747 Z M65 135 L115 547 Q122 605 170 646.5 Q218 688 340 688 Q447 688 490.5 652.5 Q534 617 534 566 Q534 564 534 559 Q534 554 533 545 L483 133 Q476 75 427.5 33.5 Q379 -8 257 -8 Q150 -8 107 26.5 Q64 61 64 112 Q64 117 64 122 Q64 127 65 135 Z M430 141 L479 537 Q480 541 480 546 Q480 551 480 555 Q480 594 448 618 Q416 642 335 642 Q249 642 211.5 613.5 Q174 585 168 539 L119 143 Q118 139 118 134 Q118 129 118 125 Q118 86 150 62 Q182 38 262 38 Q349 38 386.5 66.5 Q424 95 430 141 Z " />
<glyph glyph-name="Uacute" unicode="&#xda;" horiz-adv-x="603" d="M192 668 L128 147 Q127 140 126.5 135 Q126 130 126 125 Q126 86 158.5 62 Q191 38 270 38 Q358 38 395.5 66.5 Q433 95 439 141 L504 668 Q505 674 507.5 677 Q510 680 516 680 L546 680 Q551 680 554.5 677.5 Q558 675 557 668 L491 133 Q484 75 436 33.5 Q388 -8 266 -8 Q159 -8 115.5 27.5 Q72 63 72 114 Q72 119 72.5 125.5 Q73 132 74 137 L139 668 Q140 674 142.5 677 Q145 680 152 680 L182 680 Q186 680 189.5 677.5 Q193 675 192 668 Z M473 866 L379 747 Q377 745 373.5 742.5 Q370 740 364 740 L338 740 Q333 740 331.5 742.5 Q330 745 334 751 L420 868 Q423 872 426.5 875 Q430 878 436 878 L469 878 Q476 878 476.5 874.5 Q477 871 473 866 Z " />
<glyph glyph-name="Ucircumflex" unicode="&#xdb;" horiz-adv-x="603" d="M368 844 L296 752 Q292 748 288.5 744 Q285 740 279 740 L255 740 Q249 740 247.5 743.5 Q246 747 250 752 L341 866 Q345 871 350 874.5 Q355 878 362 878 L381 878 Q388 878 391.5 874.5 Q395 871 398 867 L463 752 Q466 747 464 743.5 Q462 740 455 740 L433 740 Q428 740 424 743 Q420 746 417 752 L368 844 Z M192 668 L128 147 Q127 140 126.5 135 Q126 130 126 125 Q126 86 158.5 62 Q191 38 270 38 Q358 38 395.5 66.5 Q433 95 439 141 L504 668 Q505 674 507.5 677 Q510 680 516 680 L546 680 Q551 680 554.5 677.5 Q558 675 557 668 L491 133 Q484 75 436 33.5 Q388 -8 266 -8 Q159 -8 115.5 27.5 Q72 63 72 114 Q72 119 72.5 125.5 Q73 132 74 137 L139 668 Q140 674 142.5 677 Q145 680 152 680 L182 680 Q186 680 189.5 677.5 Q193 675 192 668 Z " />
<glyph glyph-name="Ugrave" unicode="&#xd9;" horiz-adv-x="603" d="M327 747 L262 866 Q260 870 261 874 Q262 878 269 878 L300 878 Q306 878 309.5 875 Q313 872 315 868 L371 751 Q374 745 372 742.5 Q370 740 365 740 L342 740 Q336 740 332 742 Q328 744 327 747 Z M192 668 L128 147 Q127 140 126.5 135 Q126 130 126 125 Q126 86 158.5 62 Q191 38 270 38 Q358 38 395.5 66.5 Q433 95 439 141 L504 668 Q505 674 507.5 677 Q510 680 516 680 L546 680 Q551 680 554.5 677.5 Q558 675 557 668 L491 133 Q484 75 436 33.5 Q388 -8 266 -8 Q159 -8 115.5 27.5 Q72 63 72 114 Q72 119 72.5 125.5 Q73 132 74 137 L139 668 Q140 674 142.5 677 Q145 680 152 680 L182 680 Q186 680 189.5 677.5 Q193 675 192 668 Z " />
<glyph glyph-name="dotlessi" unicode="&#x131;" horiz-adv-x="219" d="M160 481 L102 12 Q101 6 98 3 Q95 0 89 0 L60 0 Q55 0 52 2.5 Q49 5 50 12 L108 481 Q109 486 111.5 489.5 Q114 493 121 493 L149 493 Q156 493 158.5 490 Q161 487 160 481 Z " />
<glyph glyph-name="circumflex" unicode="&#x2c6;" horiz-adv-x="345" d="M255 674 L183 582 Q179 578 175 574 Q171 570 166 570 L142 570 Q135 570 133.5 573.5 Q132 577 136 582 L228 696 Q232 701 237 704.5 Q242 708 248 708 L268 708 Q274 708 278 704.5 Q282 701 285 697 L349 582 Q352 577 350 573.5 Q348 570 342 570 L320 570 Q314 570 310.5 573 Q307 576 304 582 L255 674 Z " />
<glyph glyph-name="tilde" unicode="&#x2dc;" horiz-adv-x="426" d="M226 654 Q208 654 201 643 Q194 632 190 604 L188 591 Q187 584 183.5 582 Q180 580 174 580 L158 580 Q152 580 150 583.5 Q148 587 149 593 L153 614 Q161 658 179.5 676.5 Q198 695 227 695 Q239 695 253 689 Q267 683 279 673 L319 637 Q326 630 334.5 625.5 Q343 621 351 621 Q369 621 376.5 632 Q384 643 388 675 L389 684 Q390 690 393.5 692.5 Q397 695 403 695 L419 695 Q426 695 427.5 691.5 Q429 688 428 682 L425 661 Q418 615 398 598 Q378 581 351 581 Q335 581 322 586.5 Q309 592 298 602 L257 638 Q250 644 242 649 Q234 654 226 654 Z " />
<glyph glyph-name="overscore" unicode="&#xaf;" horiz-adv-x="419" d="M161 646 L417 646 Q423 646 426 643 Q429 640 428 635 L426 616 Q425 610 422 607 Q419 604 412 604 L156 604 Q150 604 147 607 Q144 610 145 616 L147 634 Q148 640 151 643 Q154 646 161 646 Z " />
<glyph glyph-name="breve" unicode="&#x2d8;" horiz-adv-x="394" d="M189 683 L187 659 Q186 655 186 651 Q186 647 186 645 Q186 619 200 605 Q214 591 253 591 Q301 591 316 613.5 Q331 636 334 670 L335 683 Q336 689 338.5 691.5 Q341 694 348 694 L366 694 Q372 694 374.5 691 Q377 688 376 683 L375 671 Q371 619 345 588 Q319 557 250 557 Q196 557 171 578.5 Q146 600 146 642 Q146 646 146 649.5 Q146 653 147 660 L149 683 Q150 689 152.5 691.5 Q155 694 161 694 L179 694 Q184 694 187 691.5 Q190 689 189 683 Z " />
<glyph glyph-name="dotaccent" unicode="&#x2d9;" horiz-adv-x="237" d="M229 675 L220 598 Q219 592 216 589 Q213 586 207 586 L178 586 Q172 586 169 588.5 Q166 591 167 598 L176 675 Q177 681 180 684 Q183 687 189 687 L219 687 Q226 687 228 684 Q230 681 229 675 Z " />
<glyph glyph-name="ring" unicode="&#x2da;" horiz-adv-x="326" d="M317 641 L315 620 Q312 592 289.5 574 Q267 556 219 556 Q171 556 152 576 Q133 596 136 629 L138 652 Q140 680 163 698.5 Q186 717 235 717 Q283 717 301.5 695.5 Q320 674 317 641 Z M283 625 L284 638 Q286 660 276 673.5 Q266 687 232 687 Q201 687 186 676 Q171 665 170 647 L169 634 Q167 609 178 597.5 Q189 586 220 586 Q251 586 266.5 596.5 Q282 607 283 625 Z " />
<glyph glyph-name="cedilla" unicode="&#xb8;" horiz-adv-x="164" d="M76 -54 L115 -54 Q141 -54 164 -69.5 Q187 -85 187 -122 Q187 -173 157 -192 Q127 -211 95 -211 L-22 -211 Q-29 -211 -31 -207.5 Q-33 -204 -32 -199 L-31 -188 Q-30 -182 -27 -179 Q-24 -176 -18 -176 L93 -176 Q110 -176 128.5 -166.5 Q147 -157 147 -126 Q147 -104 132 -96.5 Q117 -89 104 -89 L45 -89 Q38 -89 33 -85 Q28 -81 31 -74 L62 4 Q64 9 68 12 Q72 15 77 14 L91 12 Q97 11 97.5 6 Q98 1 97 -3 L76 -54 Z " />
<glyph glyph-name="hungarumlaut" unicode="&#x2dd;" horiz-adv-x="356" d="M267 696 L188 582 Q184 576 180 573 Q176 570 171 570 L149 570 Q143 570 141.5 574 Q140 578 143 582 L216 696 Q219 701 223 704.5 Q227 708 233 708 L260 708 Q267 708 269 704.5 Q271 701 267 696 Z M369 696 L276 580 Q272 575 267 572.5 Q262 570 258 570 L236 570 Q230 570 228.5 574 Q227 578 231 582 L318 696 Q322 701 327 704.5 Q332 708 338 708 L365 708 Q372 708 372.5 704.5 Q373 701 369 696 Z " />
<glyph glyph-name="ogonek" unicode="&#x2db;" horiz-adv-x="225" d="M158 -156 L117 -156 Q81 -156 58 -139.5 Q35 -123 35 -90 Q35 -69 49.5 -38.5 Q64 -8 112 21 Q115 23 119.5 25 Q124 27 129 24 L145 15 Q149 12 149.5 8 Q150 4 146 1 Q106 -22 94 -42.5 Q82 -63 82 -80 Q82 -97 94.5 -106 Q107 -115 131 -115 L162 -115 Q167 -115 171 -117.5 Q175 -120 174 -127 L171 -144 Q170 -150 167.5 -153 Q165 -156 158 -156 Z " />
<glyph glyph-name="caron" unicode="&#x2c7;" horiz-adv-x="345" d="M197 696 L246 604 L318 696 Q322 701 326.5 704.5 Q331 708 336 708 L360 708 Q366 708 367 704.5 Q368 701 364 696 L272 581 Q268 577 263.5 573.5 Q259 570 252 570 L233 570 Q227 570 223 573.5 Q219 577 216 582 L151 696 Q148 701 150.5 704.5 Q153 708 159 708 L182 708 Q188 708 191 704.5 Q194 701 197 696 Z " />
<glyph glyph-name="uni00A0" unicode="&#xa0;" horiz-adv-x="232" d="" />
<glyph glyph-name="Amacron" unicode="&#x100;" horiz-adv-x="525" d="M367 249 L316 517 Q311 543 308 572.5 Q305 602 304 624 Q300 611 289 575.5 Q278 540 269 519 L151 249 L367 249 Z M297 680 L328 680 Q334 680 337 677 Q340 674 341 668 L463 12 Q464 6 462 3 Q460 0 454 0 L423 0 Q417 0 414 3 Q411 6 410 12 L373 206 L132 206 L49 12 Q46 6 43 3 Q40 0 34 0 L5 0 Q-2 0 -3.5 3.5 Q-5 7 -3 12 L280 668 Q283 674 287 677 Q291 680 297 680 Z M185 820 L441 820 Q447 820 450 817.5 Q453 815 452 810 L450 791 Q449 785 446 782 Q443 779 437 779 L180 779 Q174 779 171 782 Q168 785 169 791 L171 809 Q172 815 175 817.5 Q178 820 185 820 Z " />
<glyph glyph-name="Abreve" unicode="&#x102;" horiz-adv-x="525" d="M367 249 L316 517 Q311 543 308 572.5 Q305 602 304 624 Q300 611 289 575.5 Q278 540 269 519 L151 249 L367 249 Z M297 680 L328 680 Q334 680 337 677 Q340 674 341 668 L463 12 Q464 6 462 3 Q460 0 454 0 L423 0 Q417 0 414 3 Q411 6 410 12 L373 206 L132 206 L49 12 Q46 6 43 3 Q40 0 34 0 L5 0 Q-2 0 -3.5 3.5 Q-5 7 -3 12 L280 668 Q283 674 287 677 Q291 680 297 680 Z M247 871 L245 847 Q244 843 244 839 Q244 835 244 833 Q244 807 258 793 Q272 779 311 779 Q359 779 374 801.5 Q389 824 392 858 L393 871 Q394 877 396.5 879.5 Q399 882 406 882 L424 882 Q430 882 432.5 879 Q435 876 434 871 L433 859 Q429 807 403 776 Q377 745 308 745 Q254 745 229 766.5 Q204 788 204 830 Q204 834 204 837.5 Q204 841 205 848 L207 871 Q208 877 210.5 879.5 Q213 882 219 882 L237 882 Q242 882 245 879.5 Q248 877 247 871 Z " />
<glyph glyph-name="Aogonek" unicode="&#x104;" horiz-adv-x="525" d="M295 680 L326 680 Q332 680 335 677 Q338 674 339 668 L462 12 Q463 6 460.5 3 Q458 0 453 0 L442 0 Q402 -8 388 -30 Q374 -52 374 -71 Q374 -91 388 -101 Q402 -111 430 -111 L456 -111 Q462 -111 465.5 -114 Q469 -117 468 -123 L466 -137 Q465 -144 461.5 -146.5 Q458 -149 452 -149 L418 -149 Q384 -149 358 -133.5 Q332 -118 332 -79 Q332 -59 347.5 -29 Q363 1 406 23 L372 206 L131 206 L47 12 Q45 6 42 3 Q39 0 32 0 L4 0 Q-3 0 -4.5 3.5 Q-6 7 -4 12 L278 668 Q281 674 285 677 Q289 680 295 680 Z M365 249 L315 517 Q312 535 308 568 Q304 601 303 623 Q298 606 286.5 572 Q275 538 267 519 L149 249 L365 249 Z " />
<glyph glyph-name="Aringacute" unicode="&#x1fa;" horiz-adv-x="525" d="M310 723 Q261 723 242.5 743.5 Q224 764 227 797 L229 819 Q231 845 250.5 862.5 Q270 880 310 883 L364 954 Q367 958 370.5 961 Q374 964 380 964 L413 964 Q420 964 420.5 960.5 Q421 957 417 952 L357 881 Q388 874 399.5 855 Q411 836 408 808 L406 787 Q403 759 380.5 741 Q358 723 310 723 Z M374 792 L375 803 Q377 826 367 840 Q357 854 323 854 Q292 854 277 843 Q262 832 261 814 L260 802 Q258 777 269 765 Q280 753 311 753 Q342 753 357.5 763.5 Q373 774 374 792 Z M366 249 L315 517 Q310 543 307 572.5 Q304 602 303 624 Q299 611 288 575.5 Q277 540 268 519 L150 249 L366 249 Z M296 680 L327 680 Q333 680 336 677 Q339 674 340 668 L462 12 Q463 6 461 3 Q459 0 453 0 L422 0 Q416 0 413 3 Q410 6 409 12 L372 206 L131 206 L48 12 Q45 6 42 3 Q39 0 33 0 L4 0 Q-3 0 -4.5 3.5 Q-6 7 -4 12 L279 668 Q282 674 286 677 Q290 680 296 680 Z " />
<glyph glyph-name="Cacute" unicode="&#x106;" horiz-adv-x="548" d="M481 198 L474 133 Q468 75 421.5 33.5 Q375 -8 253 -8 Q146 -8 104.5 26.5 Q63 61 63 111 Q63 116 63.5 122.5 Q64 129 65 135 L115 547 Q122 605 167.5 646.5 Q213 688 335 688 Q442 688 483.5 653.5 Q525 619 525 568 Q525 563 525 557.5 Q525 552 524 545 L517 495 Q516 488 513.5 485 Q511 482 505 482 L476 482 Q470 482 467.5 485.5 Q465 489 466 495 L471 537 Q472 541 472 546.5 Q472 552 472 556 Q472 594 441.5 618 Q411 642 332 642 Q245 642 209.5 613.5 Q174 585 168 539 L119 143 Q118 137 118 132 Q118 127 118 123 Q118 85 148.5 61.5 Q179 38 257 38 Q345 38 382 66.5 Q419 95 423 141 L429 198 Q430 204 433 206.5 Q436 209 442 209 L471 209 Q478 209 480 206 Q482 203 481 198 Z M462 866 L368 747 Q366 745 362.5 742.5 Q359 740 353 740 L327 740 Q322 740 320.5 742.5 Q319 745 323 751 L409 868 Q412 872 415.5 875 Q419 878 425 878 L458 878 Q465 878 465.5 874.5 Q466 871 462 866 Z " />
<glyph glyph-name="Ccircumflex" unicode="&#x108;" horiz-adv-x="548" d="M481 198 L474 133 Q468 75 421.5 33.5 Q375 -8 253 -8 Q146 -8 104.5 26.5 Q63 61 63 111 Q63 116 63.5 122.5 Q64 129 65 135 L115 547 Q122 605 167.5 646.5 Q213 688 335 688 Q442 688 483.5 653.5 Q525 619 525 568 Q525 563 525 557.5 Q525 552 524 545 L517 495 Q516 488 513.5 485 Q511 482 505 482 L476 482 Q470 482 467.5 485.5 Q465 489 466 495 L471 537 Q472 541 472 546.5 Q472 552 472 556 Q472 594 441.5 618 Q411 642 332 642 Q245 642 209.5 613.5 Q174 585 168 539 L119 143 Q118 137 118 132 Q118 127 118 123 Q118 85 148.5 61.5 Q179 38 257 38 Q345 38 382 66.5 Q419 95 423 141 L429 198 Q430 204 433 206.5 Q436 209 442 209 L471 209 Q478 209 480 206 Q482 203 481 198 Z M353 844 L281 752 Q277 748 273.5 744 Q270 740 264 740 L240 740 Q234 740 232.5 743.5 Q231 747 235 752 L326 866 Q330 871 335 874.5 Q340 878 347 878 L366 878 Q373 878 376.5 874.5 Q380 871 383 867 L448 752 Q451 747 449 743.5 Q447 740 440 740 L418 740 Q413 740 409 743 Q405 746 402 752 L353 844 Z " />
<glyph glyph-name="Cdotaccent" unicode="&#x10a;" horiz-adv-x="548" d="M382 838 L373 761 Q372 755 369 752.5 Q366 750 360 750 L331 750 Q324 750 321.5 752 Q319 754 320 761 L329 838 Q330 844 332.5 847 Q335 850 342 850 L372 850 Q378 850 380.5 847.5 Q383 845 382 838 Z M481 198 L474 133 Q468 75 421.5 33.5 Q375 -8 253 -8 Q146 -8 104.5 26.5 Q63 61 63 111 Q63 116 63.5 122.5 Q64 129 65 135 L115 547 Q122 605 167.5 646.5 Q213 688 335 688 Q442 688 483.5 653.5 Q525 619 525 568 Q525 563 525 557.5 Q525 552 524 545 L517 495 Q516 488 513.5 485 Q511 482 505 482 L476 482 Q470 482 467.5 485.5 Q465 489 466 495 L471 537 Q472 541 472 546.5 Q472 552 472 556 Q472 594 441.5 618 Q411 642 332 642 Q245 642 209.5 613.5 Q174 585 168 539 L119 143 Q118 137 118 132 Q118 127 118 123 Q118 85 148.5 61.5 Q179 38 257 38 Q345 38 382 66.5 Q419 95 423 141 L429 198 Q430 204 433 206.5 Q436 209 442 209 L471 209 Q478 209 480 206 Q482 203 481 198 Z " />
<glyph glyph-name="Ccaron" unicode="&#x10c;" horiz-adv-x="548" d="M481 198 L474 133 Q468 75 421.5 33.5 Q375 -8 253 -8 Q146 -8 104.5 26.5 Q63 61 63 111 Q63 116 63.5 122.5 Q64 129 65 135 L115 547 Q122 605 167.5 646.5 Q213 688 335 688 Q442 688 483.5 653.5 Q525 619 525 568 Q525 563 525 557.5 Q525 552 524 545 L517 495 Q516 488 513.5 485 Q511 482 505 482 L476 482 Q470 482 467.5 485.5 Q465 489 466 495 L471 537 Q472 541 472 546.5 Q472 552 472 556 Q472 594 441.5 618 Q411 642 332 642 Q245 642 209.5 613.5 Q174 585 168 539 L119 143 Q118 137 118 132 Q118 127 118 123 Q118 85 148.5 61.5 Q179 38 257 38 Q345 38 382 66.5 Q419 95 423 141 L429 198 Q430 204 433 206.5 Q436 209 442 209 L471 209 Q478 209 480 206 Q482 203 481 198 Z M295 866 L344 774 L416 866 Q420 871 424.5 874.5 Q429 878 434 878 L458 878 Q464 878 465.5 874.5 Q467 871 463 866 L370 751 Q366 747 361.5 743.5 Q357 740 351 740 L332 740 Q325 740 321 743.5 Q317 747 314 752 L250 866 Q247 871 249 874.5 Q251 878 258 878 L281 878 Q286 878 289.5 874 Q293 870 295 866 Z " />
<glyph glyph-name="Dcaron" unicode="&#x10e;" horiz-adv-x="599" d="M274 0 L74 0 Q69 0 66 3 Q63 6 64 12 L144 668 Q145 674 148.5 677 Q152 680 157 680 L352 680 Q460 680 504 644.5 Q548 609 548 558 Q548 553 547.5 546 Q547 539 546 534 L498 141 Q491 83 443.5 41.5 Q396 0 274 0 Z M349 634 L194 634 L121 46 L277 46 Q364 46 402.5 74.5 Q441 103 446 149 L492 528 Q493 534 493.5 539 Q494 544 494 547 Q494 586 462 610 Q430 634 349 634 Z M296 866 L345 774 L417 866 Q421 871 425.5 874.5 Q430 878 435 878 L459 878 Q465 878 466.5 874.5 Q468 871 464 866 L371 751 Q367 747 362.5 743.5 Q358 740 352 740 L333 740 Q326 740 322 743.5 Q318 747 315 752 L251 866 Q248 871 250 874.5 Q252 878 259 878 L282 878 Q287 878 290.5 874 Q294 870 296 866 Z " />
<glyph glyph-name="Emacron" unicode="&#x112;" horiz-adv-x="523" d="M428 0 L74 0 Q69 0 66 3 Q63 6 64 12 L144 668 Q145 674 148.5 677 Q152 680 158 680 L499 680 Q505 680 508 677.5 Q511 675 510 668 L507 646 Q506 639 503 636.5 Q500 634 493 634 L194 634 L163 380 L444 380 Q450 380 452.5 377.5 Q455 375 454 368 L452 347 Q451 341 448 338 Q445 335 439 335 L157 335 L121 46 L433 46 Q439 46 442 43.5 Q445 41 444 34 L441 12 Q440 5 437.5 2.5 Q435 0 428 0 Z M205 820 L461 820 Q467 820 470 817.5 Q473 815 472 810 L470 791 Q469 785 466 782 Q463 779 457 779 L200 779 Q194 779 191 782 Q188 785 189 791 L191 809 Q192 815 195 817.5 Q198 820 205 820 Z " />
<glyph glyph-name="Ebreve" unicode="&#x114;" horiz-adv-x="523" d="M428 0 L74 0 Q69 0 66 3 Q63 6 64 12 L144 668 Q145 674 148.5 677 Q152 680 158 680 L499 680 Q505 680 508 677.5 Q511 675 510 668 L507 646 Q506 639 503 636.5 Q500 634 493 634 L194 634 L163 380 L444 380 Q450 380 452.5 377.5 Q455 375 454 368 L452 347 Q451 341 448 338 Q445 335 439 335 L157 335 L121 46 L433 46 Q439 46 442 43.5 Q445 41 444 34 L441 12 Q440 5 437.5 2.5 Q435 0 428 0 Z M265 871 L263 847 Q262 843 262 839 Q262 835 262 833 Q262 807 276 793 Q290 779 329 779 Q377 779 392 801.5 Q407 824 410 858 L411 871 Q412 877 414.5 879.5 Q417 882 424 882 L442 882 Q448 882 450.5 879 Q453 876 452 871 L451 859 Q447 807 421 776 Q395 745 326 745 Q272 745 247 766.5 Q222 788 222 830 Q222 834 222 837.5 Q222 841 223 848 L225 871 Q226 877 228.5 879.5 Q231 882 237 882 L255 882 Q260 882 263 879.5 Q266 877 265 871 Z " />
<glyph glyph-name="Edotaccent" unicode="&#x116;" horiz-adv-x="523" d="M368 838 L359 761 Q358 755 355 752.5 Q352 750 346 750 L317 750 Q310 750 307.5 752 Q305 754 306 761 L315 838 Q316 844 318.5 847 Q321 850 328 850 L358 850 Q364 850 366.5 847.5 Q369 845 368 838 Z M428 0 L74 0 Q69 0 66 3 Q63 6 64 12 L144 668 Q145 674 148.5 677 Q152 680 158 680 L499 680 Q505 680 508 677.5 Q511 675 510 668 L507 646 Q506 639 503 636.5 Q500 634 493 634 L194 634 L163 380 L444 380 Q450 380 452.5 377.5 Q455 375 454 368 L452 347 Q451 341 448 338 Q445 335 439 335 L157 335 L121 46 L433 46 Q439 46 442 43.5 Q445 41 444 34 L441 12 Q440 5 437.5 2.5 Q435 0 428 0 Z " />
<glyph glyph-name="Eogonek" unicode="&#x118;" horiz-adv-x="523" d="M427 0 L401 0 Q363 0 346.5 -22 Q330 -44 330 -68 Q330 -89 344 -100 Q358 -111 386 -111 L415 -111 Q422 -111 425 -114 Q428 -117 427 -123 L426 -137 Q425 -144 421.5 -146.5 Q418 -149 412 -149 L373 -149 Q339 -149 313.5 -132.5 Q288 -116 288 -77 Q288 -58 297.5 -36.5 Q307 -15 326 0 L73 0 Q68 0 65 3 Q62 6 63 12 L143 668 Q144 674 147.5 677 Q151 680 157 680 L498 680 Q504 680 507 677.5 Q510 675 509 668 L506 646 Q505 639 502 636.5 Q499 634 492 634 L193 634 L162 380 L443 380 Q449 380 451.5 377.5 Q454 375 453 368 L451 347 Q450 341 447 338 Q444 335 438 335 L156 335 L120 46 L432 46 Q438 46 441 43.5 Q444 41 443 34 L440 12 Q439 5 436.5 2.5 Q434 0 427 0 Z " />
<glyph glyph-name="Ecaron" unicode="&#x11a;" horiz-adv-x="523" d="M428 0 L74 0 Q69 0 66 3 Q63 6 64 12 L144 668 Q145 674 148.5 677 Q152 680 158 680 L499 680 Q505 680 508 677.5 Q511 675 510 668 L507 646 Q506 639 503 636.5 Q500 634 493 634 L194 634 L163 380 L444 380 Q450 380 452.5 377.5 Q455 375 454 368 L452 347 Q451 341 448 338 Q445 335 439 335 L157 335 L121 46 L433 46 Q439 46 442 43.5 Q445 41 444 34 L441 12 Q440 5 437.5 2.5 Q435 0 428 0 Z M282 866 L331 774 L403 866 Q407 871 411.5 874.5 Q416 878 421 878 L445 878 Q451 878 452.5 874.5 Q454 871 450 866 L357 751 Q353 747 348.5 743.5 Q344 740 338 740 L319 740 Q312 740 308 743.5 Q304 747 301 752 L237 866 Q234 871 236 874.5 Q238 878 245 878 L268 878 Q273 878 276.5 874 Q280 870 282 866 Z " />
<glyph glyph-name="Gcircumflex" unicode="&#x11c;" horiz-adv-x="568" d="M357 844 L285 752 Q281 748 277.5 744 Q274 740 268 740 L244 740 Q238 740 236.5 743.5 Q235 747 239 752 L330 866 Q334 871 339 874.5 Q344 878 351 878 L370 878 Q377 878 380.5 874.5 Q384 871 387 867 L452 752 Q455 747 453 743.5 Q451 740 444 740 L422 740 Q417 740 413 743 Q409 746 406 752 L357 844 Z M301 319 L484 319 Q491 319 493.5 315.5 Q496 312 495 307 L474 133 Q467 75 421 33.5 Q375 -8 253 -8 Q146 -8 105 26.5 Q64 61 64 110 Q64 115 64 121.5 Q64 128 65 135 L115 547 Q122 605 167.5 646.5 Q213 688 335 688 Q442 688 483.5 653 Q525 618 525 567 Q525 564 525 558 Q525 552 524 544 L518 497 Q517 491 514.5 488 Q512 485 505 485 L477 485 Q470 485 467.5 488 Q465 491 466 497 L471 539 Q472 546 472 551 Q472 556 472 557 Q472 594 441.5 618 Q411 642 332 642 Q245 642 209.5 613.5 Q174 585 168 539 L119 143 Q118 136 118 131 Q118 126 118 123 Q118 85 148 61.5 Q178 38 257 38 Q344 38 380 66 Q416 94 422 139 L439 273 L296 273 Q290 273 287 276 Q284 279 285 285 L287 307 Q288 313 291.5 316 Q295 319 301 319 Z " />
<glyph glyph-name="Gbreve" unicode="&#x11e;" horiz-adv-x="568" d="M301 319 L484 319 Q491 319 493.5 315.5 Q496 312 495 307 L474 133 Q467 75 421 33.5 Q375 -8 253 -8 Q146 -8 105 26.5 Q64 61 64 110 Q64 115 64 121.5 Q64 128 65 135 L115 547 Q122 605 167.5 646.5 Q213 688 335 688 Q442 688 483.5 653 Q525 618 525 567 Q525 564 525 558 Q525 552 524 544 L518 497 Q517 491 514.5 488 Q512 485 505 485 L477 485 Q470 485 467.5 488 Q465 491 466 497 L471 539 Q472 546 472 551 Q472 556 472 557 Q472 594 441.5 618 Q411 642 332 642 Q245 642 209.5 613.5 Q174 585 168 539 L119 143 Q118 136 118 131 Q118 126 118 123 Q118 85 148 61.5 Q178 38 257 38 Q344 38 380 66 Q416 94 422 139 L439 273 L296 273 Q290 273 287 276 Q284 279 285 285 L287 307 Q288 313 291.5 316 Q295 319 301 319 Z M274 871 L272 847 Q271 843 271 839 Q271 835 271 833 Q271 807 285 793 Q299 779 338 779 Q386 779 401 801.5 Q416 824 419 858 L420 871 Q421 877 423.5 879.5 Q426 882 433 882 L451 882 Q457 882 459.5 879 Q462 876 461 871 L460 859 Q456 807 430 776 Q404 745 335 745 Q281 745 256 766.5 Q231 788 231 830 Q231 834 231 837.5 Q231 841 232 848 L234 871 Q235 877 237.5 879.5 Q240 882 246 882 L264 882 Q269 882 272 879.5 Q275 877 274 871 Z " />
<glyph glyph-name="Gdotaccent" unicode="&#x120;" horiz-adv-x="568" d="M368 836 L359 759 Q358 753 355 750.5 Q352 748 346 748 L317 748 Q310 748 307.5 750 Q305 752 306 759 L315 836 Q316 842 318.5 845 Q321 848 328 848 L358 848 Q364 848 366.5 845.5 Q369 843 368 836 Z M301 319 L484 319 Q491 319 493.5 315.5 Q496 312 495 307 L474 133 Q467 75 421 33.5 Q375 -8 253 -8 Q146 -8 105 26.5 Q64 61 64 110 Q64 115 64 121.5 Q64 128 65 135 L115 547 Q122 605 167.5 646.5 Q213 688 335 688 Q442 688 483.5 653 Q525 618 525 567 Q525 564 525 558 Q525 552 524 544 L518 497 Q517 491 514.5 488 Q512 485 505 485 L477 485 Q470 485 467.5 488 Q465 491 466 497 L471 539 Q472 546 472 551 Q472 556 472 557 Q472 594 441.5 618 Q411 642 332 642 Q245 642 209.5 613.5 Q174 585 168 539 L119 143 Q118 136 118 131 Q118 126 118 123 Q118 85 148 61.5 Q178 38 257 38 Q344 38 380 66 Q416 94 422 139 L439 273 L296 273 Q290 273 287 276 Q284 279 285 285 L287 307 Q288 313 291.5 316 Q295 319 301 319 Z " />
<glyph glyph-name="Gcommaaccent" unicode="&#x122;" horiz-adv-x="568" d="M225 -89 L229 -62 Q230 -56 233 -53 Q236 -50 242 -50 L264 -50 Q271 -50 273 -53 Q275 -56 274 -62 L271 -91 Q267 -128 252 -154 Q237 -180 220 -205 Q216 -210 212.5 -211 Q209 -212 204 -211 L187 -206 Q183 -205 181.5 -201 Q180 -197 184 -191 Q202 -161 211.5 -141 Q221 -121 225 -89 Z M301 319 L484 319 Q491 319 493.5 315.5 Q496 312 495 307 L474 133 Q467 75 421 33.5 Q375 -8 253 -8 Q146 -8 105 26.5 Q64 61 64 110 Q64 115 64 121.5 Q64 128 65 135 L115 547 Q122 605 167.5 646.5 Q213 688 335 688 Q442 688 483.5 653 Q525 618 525 567 Q525 564 525 558 Q525 552 524 544 L518 497 Q517 491 514.5 488 Q512 485 505 485 L477 485 Q470 485 467.5 488 Q465 491 466 497 L471 539 Q472 546 472 551 Q472 556 472 557 Q472 594 441.5 618 Q411 642 332 642 Q245 642 209.5 613.5 Q174 585 168 539 L119 143 Q118 136 118 131 Q118 126 118 123 Q118 85 148 61.5 Q178 38 257 38 Q344 38 380 66 Q416 94 422 139 L439 273 L296 273 Q290 273 287 276 Q284 279 285 285 L287 307 Q288 313 291.5 316 Q295 319 301 319 Z " />
<glyph glyph-name="Hcircumflex" unicode="&#x124;" horiz-adv-x="610" d="M198 668 L163 386 L475 386 L509 668 Q510 674 513 677 Q516 680 523 680 L553 680 Q559 680 561 677 Q563 674 562 668 L482 12 Q481 6 478.5 3 Q476 0 470 0 L440 0 Q433 0 430.5 3 Q428 6 429 12 L469 340 L158 340 L117 12 Q116 6 113.5 3 Q111 0 105 0 L75 0 Q69 0 66 3 Q63 6 64 12 L144 668 Q145 674 148.5 677 Q152 680 158 680 L188 680 Q194 680 196.5 677 Q199 674 198 668 Z M369 844 L297 752 Q293 748 289.5 744 Q286 740 280 740 L256 740 Q250 740 248.5 743.5 Q247 747 251 752 L342 866 Q346 871 351 874.5 Q356 878 363 878 L382 878 Q389 878 392.5 874.5 Q396 871 399 867 L464 752 Q467 747 465 743.5 Q463 740 456 740 L434 740 Q429 740 425 743 Q421 746 418 752 L369 844 Z " />
<glyph glyph-name="Itilde" unicode="&#x128;" horiz-adv-x="245" d="M198 668 L117 12 Q116 6 113.5 3 Q111 0 105 0 L75 0 Q69 0 66 3 Q63 6 64 12 L144 668 Q145 674 148.5 677 Q152 680 158 680 L188 680 Q194 680 196.5 677 Q199 674 198 668 Z M121 828 Q103 828 96 817.5 Q89 807 85 779 L83 765 Q82 759 78.5 756.5 Q75 754 69 754 L53 754 Q47 754 45 758 Q43 762 44 768 L48 790 Q56 834 74.5 851.5 Q93 869 122 869 Q134 869 148 863.5 Q162 858 174 848 L214 812 Q221 805 229.5 800.5 Q238 796 246 796 Q264 796 271.5 807 Q279 818 283 850 L284 859 Q285 865 288.5 867.5 Q292 870 298 870 L314 870 Q321 870 322.5 866.5 Q324 863 323 857 L320 836 Q313 790 293 772.5 Q273 755 245 755 Q230 755 217.5 761 Q205 767 193 777 L152 813 Q145 819 137 823.5 Q129 828 121 828 Z " />
<glyph glyph-name="Imacron" unicode="&#x12a;" horiz-adv-x="245" d="M198 668 L117 12 Q116 6 113.5 3 Q111 0 105 0 L75 0 Q69 0 66 3 Q63 6 64 12 L144 668 Q145 674 148.5 677 Q152 680 158 680 L188 680 Q194 680 196.5 677 Q199 674 198 668 Z M59 820 L315 820 Q321 820 324 817.5 Q327 815 326 810 L324 791 Q323 785 320 782 Q317 779 311 779 L54 779 Q48 779 45 782 Q42 785 43 791 L45 809 Q46 815 49 817.5 Q52 820 59 820 Z " />
<glyph glyph-name="Ibreve" unicode="&#x12c;" horiz-adv-x="245" d="M198 668 L117 12 Q116 6 113.5 3 Q111 0 105 0 L75 0 Q69 0 66 3 Q63 6 64 12 L144 668 Q145 674 148.5 677 Q152 680 158 680 L188 680 Q194 680 196.5 677 Q199 674 198 668 Z M115 871 L113 847 Q112 843 112 839 Q112 835 112 833 Q112 807 126 793 Q140 779 179 779 Q227 779 242 801.5 Q257 824 260 858 L261 871 Q262 877 264.5 879.5 Q267 882 274 882 L292 882 Q298 882 300.5 879 Q303 876 302 871 L301 859 Q297 807 271 776 Q245 745 176 745 Q122 745 97 766.5 Q72 788 72 830 Q72 834 72 837.5 Q72 841 73 848 L75 871 Q76 877 78.5 879.5 Q81 882 87 882 L105 882 Q110 882 113 879.5 Q116 877 115 871 Z " />
<glyph glyph-name="Iogonek" unicode="&#x12e;" horiz-adv-x="247" d="M196 668 L116 12 Q115 6 112.5 3 Q110 0 103 0 L97 0 Q60 -7 43.5 -29.5 Q27 -52 27 -71 Q27 -91 41.5 -101 Q56 -111 84 -111 L106 -111 Q112 -111 115.5 -114 Q119 -117 118 -123 L116 -137 Q115 -144 111.5 -146.5 Q108 -149 102 -149 L71 -149 Q38 -149 12 -134 Q-14 -119 -14 -80 Q-14 -49 6 -21.5 Q26 6 64 24 L143 668 Q144 674 147 677 Q150 680 157 680 L186 680 Q193 680 195 677 Q197 674 196 668 Z " />
<glyph glyph-name="Idot" unicode="&#x130;" horiz-adv-x="245" d="M198 668 L117 12 Q116 6 113.5 3 Q111 0 105 0 L75 0 Q69 0 66 3 Q63 6 64 12 L144 668 Q145 674 148.5 677 Q152 680 158 680 L188 680 Q194 680 196.5 677 Q199 674 198 668 Z M219 838 L210 761 Q209 755 206 752.5 Q203 750 197 750 L168 750 Q161 750 158.5 752 Q156 754 157 761 L166 838 Q167 844 169.5 847 Q172 850 179 850 L209 850 Q215 850 217.5 847.5 Q220 845 219 838 Z " />
<glyph glyph-name="Jcircumflex" unicode="&#x134;" horiz-adv-x="492" d="M69 174 L65 142 Q64 136 63.5 130 Q63 124 63 119 Q63 82 89 60 Q115 38 184 38 Q262 38 291 66.5 Q320 95 326 141 L392 668 Q393 674 395.5 677 Q398 680 404 680 L434 680 Q441 680 443.5 677 Q446 674 445 668 L379 133 Q372 75 332 33.5 Q292 -8 180 -8 Q84 -8 47 26 Q10 60 10 110 Q10 116 10.5 123 Q11 130 12 137 L17 174 Q18 181 21 183.5 Q24 186 30 186 L59 186 Q66 186 68 183 Q70 180 69 174 Z M435 844 L363 752 Q359 748 355.5 744 Q352 740 346 740 L322 740 Q316 740 314.5 743.5 Q313 747 317 752 L408 866 Q412 871 417 874.5 Q422 878 429 878 L448 878 Q455 878 458.5 874.5 Q462 871 465 867 L530 752 Q533 747 531 743.5 Q529 740 522 740 L500 740 Q495 740 491 743 Q487 746 484 752 L435 844 Z " />
<glyph glyph-name="Kcommaaccent" unicode="&#x136;" horiz-adv-x="539" d="M206 -89 L210 -62 Q211 -56 214 -53 Q217 -50 223 -50 L245 -50 Q252 -50 254 -53 Q256 -56 255 -62 L252 -91 Q248 -128 233 -154 Q218 -180 201 -205 Q197 -210 193.5 -211 Q190 -212 185 -211 L168 -206 Q164 -205 162.5 -201 Q161 -197 165 -191 Q183 -161 192.5 -141 Q202 -121 206 -89 Z M238 345 L486 12 Q489 8 486.5 4 Q484 0 479 0 L441 0 Q434 0 430 3.5 Q426 7 422 12 L191 320 L155 320 L117 12 Q116 6 113.5 3 Q111 0 105 0 L75 0 Q69 0 66 2.5 Q63 5 64 12 L144 668 Q145 675 148.5 677.5 Q152 680 158 680 L188 680 Q194 680 196.5 677 Q199 674 198 668 L161 361 L193 361 L478 669 Q482 673 487 676.5 Q492 680 499 680 L533 680 Q538 680 539.5 676.5 Q541 673 537 668 L238 345 Z " />
<glyph glyph-name="Lacute" unicode="&#x139;" horiz-adv-x="475" d="M300 866 L206 747 Q204 745 200.5 742.5 Q197 740 191 740 L165 740 Q160 740 158.5 742.5 Q157 745 161 751 L247 868 Q250 872 253.5 875 Q257 878 263 878 L296 878 Q303 878 303.5 874.5 Q304 871 300 866 Z M198 668 L121 46 L417 46 Q423 46 425.5 43.5 Q428 41 427 34 L425 12 Q424 5 421 2.5 Q418 0 412 0 L73 0 Q68 0 65.5 3 Q63 6 64 12 L144 668 Q145 674 148.5 677 Q152 680 158 680 L188 680 Q194 680 196.5 677 Q199 674 198 668 Z " />
<glyph glyph-name="Lcommaaccent" unicode="&#x13b;" horiz-adv-x="475" d="M204 -89 L208 -62 Q209 -56 212 -53 Q215 -50 221 -50 L243 -50 Q250 -50 252 -53 Q254 -56 253 -62 L250 -91 Q246 -128 231 -154 Q216 -180 199 -205 Q195 -210 191.5 -211 Q188 -212 183 -211 L166 -206 Q162 -205 160.5 -201 Q159 -197 163 -191 Q181 -161 190.5 -141 Q200 -121 204 -89 Z M198 668 L121 46 L417 46 Q423 46 425.5 43.5 Q428 41 427 34 L425 12 Q424 5 421 2.5 Q418 0 412 0 L73 0 Q68 0 65.5 3 Q63 6 64 12 L144 668 Q145 674 148.5 677 Q152 680 158 680 L188 680 Q194 680 196.5 677 Q199 674 198 668 Z " />
<glyph glyph-name="Lcaron" unicode="&#x13d;" horiz-adv-x="477" d="M365 659 L369 686 Q370 692 373 695 Q376 698 382 698 L404 698 Q411 698 413 695 Q415 692 414 686 L411 657 Q407 620 392 594 Q377 568 360 543 Q356 538 352.5 537 Q349 536 344 537 L327 542 Q323 543 321.5 547 Q320 551 324 557 Q342 587 351.5 607 Q361 627 365 659 Z M198 668 L121 46 L417 46 Q423 46 425.5 43.5 Q428 41 427 34 L425 12 Q424 5 421 2.5 Q418 0 412 0 L73 0 Q68 0 65.5 3 Q63 6 64 12 L144 668 Q145 674 148.5 677 Q152 680 158 680 L188 680 Q194 680 196.5 677 Q199 674 198 668 Z " />
<glyph glyph-name="Nacute" unicode="&#x143;" horiz-adv-x="608" d="M479 866 L385 747 Q383 745 379.5 742.5 Q376 740 370 740 L344 740 Q339 740 337.5 742.5 Q336 745 340 751 L426 868 Q429 872 432.5 875 Q436 878 442 878 L475 878 Q482 878 482.5 874.5 Q483 871 479 866 Z M560 668 L479 12 Q478 6 475.5 3 Q473 0 467 0 L442 0 Q438 0 435 1.5 Q432 3 431 6 L207 515 Q201 528 194 545.5 Q187 563 183 576 L114 12 Q113 6 110.5 3 Q108 0 101 0 L75 0 Q68 0 65.5 3 Q63 6 64 12 L144 668 Q145 674 148 677 Q151 680 158 680 L182 680 Q186 680 188.5 678.5 Q191 677 192 675 L418 162 Q422 152 431 130.5 Q440 109 441 105 L510 668 Q511 674 514 677 Q517 680 523 680 L550 680 Q556 680 558.5 677 Q561 674 560 668 Z " />
<glyph glyph-name="Ncommaaccent" unicode="&#x145;" horiz-adv-x="608" d="M243 -89 L247 -62 Q248 -56 251 -53 Q254 -50 260 -50 L282 -50 Q289 -50 291 -53 Q293 -56 292 -62 L289 -91 Q285 -128 270 -154 Q255 -180 238 -205 Q234 -210 230.5 -211 Q227 -212 222 -211 L205 -206 Q201 -205 199.5 -201 Q198 -197 202 -191 Q220 -161 229.5 -141 Q239 -121 243 -89 Z M560 668 L479 12 Q478 6 475.5 3 Q473 0 467 0 L442 0 Q438 0 435 1.5 Q432 3 431 6 L207 515 Q201 528 194 545.5 Q187 563 183 576 L114 12 Q113 6 110.5 3 Q108 0 101 0 L75 0 Q68 0 65.5 3 Q63 6 64 12 L144 668 Q145 674 148 677 Q151 680 158 680 L182 680 Q186 680 188.5 678.5 Q191 677 192 675 L418 162 Q422 152 431 130.5 Q440 109 441 105 L510 668 Q511 674 514 677 Q517 680 523 680 L550 680 Q556 680 558.5 677 Q561 674 560 668 Z " />
<glyph glyph-name="Ncaron" unicode="&#x147;" horiz-adv-x="608" d="M560 668 L479 12 Q478 6 475.5 3 Q473 0 467 0 L442 0 Q438 0 435 1.5 Q432 3 431 6 L207 515 Q201 528 194 545.5 Q187 563 183 576 L114 12 Q113 6 110.5 3 Q108 0 101 0 L75 0 Q68 0 65.5 3 Q63 6 64 12 L144 668 Q145 674 148 677 Q151 680 158 680 L182 680 Q186 680 188.5 678.5 Q191 677 192 675 L418 162 Q422 152 431 130.5 Q440 109 441 105 L510 668 Q511 674 514 677 Q517 680 523 680 L550 680 Q556 680 558.5 677 Q561 674 560 668 Z M308 866 L357 774 L429 866 Q433 871 437.5 874.5 Q442 878 447 878 L471 878 Q477 878 478.5 874.5 Q480 871 476 866 L383 751 Q379 747 374.5 743.5 Q370 740 364 740 L345 740 Q338 740 334 743.5 Q330 747 327 752 L263 866 Q260 871 262 874.5 Q264 878 271 878 L294 878 Q299 878 302.5 874 Q306 870 308 866 Z " />
<glyph glyph-name="Omacron" unicode="&#x14c;" horiz-adv-x="587" d="M65 135 L115 547 Q122 605 170 646.5 Q218 688 340 688 Q447 688 490.5 652.5 Q534 617 534 566 Q534 564 534 559 Q534 554 533 545 L483 133 Q476 75 427.5 33.5 Q379 -8 257 -8 Q150 -8 107 26.5 Q64 61 64 112 Q64 117 64 122 Q64 127 65 135 Z M430 141 L479 537 Q480 541 480 546 Q480 551 480 555 Q480 594 448 618 Q416 642 335 642 Q249 642 211.5 613.5 Q174 585 168 539 L119 143 Q118 139 118 134 Q118 129 118 125 Q118 86 150 62 Q182 38 262 38 Q349 38 386.5 66.5 Q424 95 430 141 Z M230 820 L486 820 Q492 820 495 817.5 Q498 815 497 810 L495 791 Q494 785 491 782 Q488 779 482 779 L225 779 Q219 779 216 782 Q213 785 214 791 L216 809 Q217 815 220 817.5 Q223 820 230 820 Z " />
<glyph glyph-name="Obreve" unicode="&#x14e;" horiz-adv-x="587" d="M65 135 L115 547 Q122 605 170 646.5 Q218 688 340 688 Q447 688 490.5 652.5 Q534 617 534 566 Q534 564 534 559 Q534 554 533 545 L483 133 Q476 75 427.5 33.5 Q379 -8 257 -8 Q150 -8 107 26.5 Q64 61 64 112 Q64 117 64 122 Q64 127 65 135 Z M430 141 L479 537 Q480 541 480 546 Q480 551 480 555 Q480 594 448 618 Q416 642 335 642 Q249 642 211.5 613.5 Q174 585 168 539 L119 143 Q118 139 118 134 Q118 129 118 125 Q118 86 150 62 Q182 38 262 38 Q349 38 386.5 66.5 Q424 95 430 141 Z M294 871 L292 847 Q291 843 291 839 Q291 835 291 833 Q291 807 305 793 Q319 779 358 779 Q406 779 421 801.5 Q436 824 439 858 L440 871 Q441 877 443.5 879.5 Q446 882 453 882 L471 882 Q477 882 479.5 879 Q482 876 481 871 L480 859 Q476 807 450 776 Q424 745 355 745 Q301 745 276 766.5 Q251 788 251 830 Q251 834 251 837.5 Q251 841 252 848 L254 871 Q255 877 257.5 879.5 Q260 882 266 882 L284 882 Q289 882 292 879.5 Q295 877 294 871 Z " />
<glyph glyph-name="Ohungarumlaut" unicode="&#x150;" horiz-adv-x="587" d="M408 866 L331 752 Q327 746 323 743 Q319 740 313 740 L291 740 Q285 740 284 743.5 Q283 747 286 752 L358 866 Q361 871 365.5 874.5 Q370 878 376 878 L402 878 Q409 878 410.5 874.5 Q412 871 408 866 Z M512 866 L419 750 Q415 746 410.5 743 Q406 740 401 740 L378 740 Q372 740 371 743.5 Q370 747 374 752 L461 866 Q465 870 469.5 874 Q474 878 480 878 L507 878 Q514 878 515 874.5 Q516 871 512 866 Z M65 135 L115 547 Q122 605 170 646.5 Q218 688 340 688 Q447 688 490.5 652.5 Q534 617 534 566 Q534 564 534 559 Q534 554 533 545 L483 133 Q476 75 427.5 33.5 Q379 -8 257 -8 Q150 -8 107 26.5 Q64 61 64 112 Q64 117 64 122 Q64 127 65 135 Z M430 141 L479 537 Q480 541 480 546 Q480 551 480 555 Q480 594 448 618 Q416 642 335 642 Q249 642 211.5 613.5 Q174 585 168 539 L119 143 Q118 139 118 134 Q118 129 118 125 Q118 86 150 62 Q182 38 262 38 Q349 38 386.5 66.5 Q424 95 430 141 Z " />
<glyph glyph-name="Racute" unicode="&#x154;" horiz-adv-x="584" d="M347 634 L194 634 L156 327 L309 327 Q396 327 434 353.5 Q472 380 478 426 L490 525 Q491 532 491 536.5 Q491 541 491 543 Q491 584 459.5 609 Q428 634 347 634 Z M117 12 Q116 6 113.5 3 Q111 0 105 0 L75 0 Q69 0 66 2.5 Q63 5 64 12 L144 668 Q145 674 148.5 677 Q152 680 157 680 L350 680 Q457 680 500.5 643 Q544 606 544 553 Q544 551 544 545.5 Q544 540 543 532 L530 419 Q524 371 492.5 336 Q461 301 386 288 L488 12 Q489 7 486 3.5 Q483 0 476 0 L447 0 Q440 0 436 4 Q432 8 431 12 L332 283 Q325 282 318 282 Q311 282 304 282 L150 282 L117 12 Z M444 866 L350 747 Q348 745 344.5 742.5 Q341 740 335 740 L309 740 Q304 740 302.5 742.5 Q301 745 305 751 L391 868 Q394 872 397.5 875 Q401 878 407 878 L440 878 Q447 878 447.5 874.5 Q448 871 444 866 Z " />
<glyph glyph-name="Rcommaaccent" unicode="&#x156;" horiz-adv-x="584" d="M230 -89 L234 -62 Q235 -56 238 -53 Q241 -50 247 -50 L269 -50 Q276 -50 278 -53 Q280 -56 279 -62 L276 -91 Q272 -128 257 -154 Q242 -180 225 -205 Q221 -210 217.5 -211 Q214 -212 209 -211 L192 -206 Q188 -205 186.5 -201 Q185 -197 189 -191 Q207 -161 216.5 -141 Q226 -121 230 -89 Z M347 634 L194 634 L156 327 L309 327 Q396 327 434 353.5 Q472 380 478 426 L490 525 Q491 532 491 536.5 Q491 541 491 543 Q491 584 459.5 609 Q428 634 347 634 Z M117 12 Q116 6 113.5 3 Q111 0 105 0 L75 0 Q69 0 66 2.5 Q63 5 64 12 L144 668 Q145 674 148.5 677 Q152 680 157 680 L350 680 Q457 680 500.5 643 Q544 606 544 553 Q544 551 544 545.5 Q544 540 543 532 L530 419 Q524 371 492.5 336 Q461 301 386 288 L488 12 Q489 7 486 3.5 Q483 0 476 0 L447 0 Q440 0 436 4 Q432 8 431 12 L332 283 Q325 282 318 282 Q311 282 304 282 L150 282 L117 12 Z " />
<glyph glyph-name="Rcaron" unicode="&#x158;" horiz-adv-x="584" d="M347 634 L194 634 L156 327 L309 327 Q396 327 434 353.5 Q472 380 478 426 L490 525 Q491 532 491 536.5 Q491 541 491 543 Q491 584 459.5 609 Q428 634 347 634 Z M117 12 Q116 6 113.5 3 Q111 0 105 0 L75 0 Q69 0 66 2.5 Q63 5 64 12 L144 668 Q145 674 148.5 677 Q152 680 157 680 L350 680 Q457 680 500.5 643 Q544 606 544 553 Q544 551 544 545.5 Q544 540 543 532 L530 419 Q524 371 492.5 336 Q461 301 386 288 L488 12 Q489 7 486 3.5 Q483 0 476 0 L447 0 Q440 0 436 4 Q432 8 431 12 L332 283 Q325 282 318 282 Q311 282 304 282 L150 282 L117 12 Z M281 866 L330 774 L402 866 Q406 871 410.5 874.5 Q415 878 420 878 L444 878 Q450 878 451.5 874.5 Q453 871 449 866 L356 751 Q352 747 347.5 743.5 Q343 740 337 740 L318 740 Q311 740 307 743.5 Q303 747 300 752 L236 866 Q233 871 235 874.5 Q237 878 244 878 L267 878 Q272 878 275.5 874 Q279 870 281 866 Z " />
<glyph glyph-name="Sacute" unicode="&#x15a;" horiz-adv-x="549" d="M448 498 L453 541 Q454 548 454 552.5 Q454 557 454 559 Q454 596 424 619.5 Q394 643 316 643 Q229 643 193.5 615 Q158 587 154 542 L150 502 Q149 495 149 492 Q149 489 149 488 Q149 459 166 443.5 Q183 428 203 420 L384 347 Q422 331 446.5 304 Q471 277 471 235 Q471 231 471 227.5 Q471 224 470 217 L461 133 Q455 75 406.5 33.5 Q358 -8 237 -8 Q130 -8 87 27 Q44 62 44 113 Q44 117 44 122.5 Q44 128 45 135 L51 185 Q52 192 55 195 Q58 198 64 198 L93 198 Q100 198 102.5 195 Q105 192 104 185 L98 141 Q97 134 97 129 Q97 124 97 122 Q97 84 128.5 60.5 Q160 37 240 37 Q328 37 365 65 Q402 93 408 139 L417 212 Q418 219 418 221.5 Q418 224 418 225 Q418 256 395.5 274 Q373 292 346 303 L177 371 Q143 384 119.5 411.5 Q96 439 96 478 Q96 480 96 484.5 Q96 489 97 496 L103 547 Q110 605 154.5 646.5 Q199 688 320 688 Q425 688 465.5 653 Q506 618 506 568 Q506 566 506 560 Q506 554 505 547 L500 498 Q499 492 496 489 Q493 486 487 486 L458 486 Q452 486 449.5 488.5 Q447 491 448 498 Z M443 866 L349 747 Q347 745 343.5 742.5 Q340 740 334 740 L308 740 Q303 740 301.5 742.5 Q300 745 304 751 L390 868 Q393 872 396.5 875 Q400 878 406 878 L439 878 Q446 878 446.5 874.5 Q447 871 443 866 Z " />
<glyph glyph-name="Scircumflex" unicode="&#x15c;" horiz-adv-x="549" d="M448 498 L453 541 Q454 548 454 552.5 Q454 557 454 559 Q454 596 424 619.5 Q394 643 316 643 Q229 643 193.5 615 Q158 587 154 542 L150 502 Q149 495 149 492 Q149 489 149 488 Q149 459 166 443.5 Q183 428 203 420 L384 347 Q422 331 446.5 304 Q471 277 471 235 Q471 231 471 227.5 Q471 224 470 217 L461 133 Q455 75 406.5 33.5 Q358 -8 237 -8 Q130 -8 87 27 Q44 62 44 113 Q44 117 44 122.5 Q44 128 45 135 L51 185 Q52 192 55 195 Q58 198 64 198 L93 198 Q100 198 102.5 195 Q105 192 104 185 L98 141 Q97 134 97 129 Q97 124 97 122 Q97 84 128.5 60.5 Q160 37 240 37 Q328 37 365 65 Q402 93 408 139 L417 212 Q418 219 418 221.5 Q418 224 418 225 Q418 256 395.5 274 Q373 292 346 303 L177 371 Q143 384 119.5 411.5 Q96 439 96 478 Q96 480 96 484.5 Q96 489 97 496 L103 547 Q110 605 154.5 646.5 Q199 688 320 688 Q425 688 465.5 653 Q506 618 506 568 Q506 566 506 560 Q506 554 505 547 L500 498 Q499 492 496 489 Q493 486 487 486 L458 486 Q452 486 449.5 488.5 Q447 491 448 498 Z M334 844 L262 752 Q258 748 254.5 744 Q251 740 245 740 L221 740 Q215 740 213.5 743.5 Q212 747 216 752 L307 866 Q311 871 316 874.5 Q321 878 328 878 L347 878 Q354 878 357.5 874.5 Q361 871 364 867 L429 752 Q432 747 430 743.5 Q428 740 421 740 L399 740 Q394 740 390 743 Q386 746 383 752 L334 844 Z " />
<glyph glyph-name="Scedilla" unicode="&#x15e;" horiz-adv-x="550" d="M245 -211 L128 -211 Q121 -211 119 -207.5 Q117 -204 118 -199 L119 -188 Q120 -182 123 -179 Q126 -176 132 -176 L243 -176 Q260 -176 278.5 -166.5 Q297 -157 297 -126 Q297 -104 282 -96.5 Q267 -89 254 -89 L195 -89 Q188 -89 183 -85 Q178 -81 181 -74 L208 -7 Q117 -2 80.5 32 Q44 66 44 113 Q44 117 44 122.5 Q44 128 45 135 L51 185 Q52 192 55 195 Q58 198 64 198 L93 198 Q100 198 102.5 195 Q105 192 104 185 L98 141 Q97 134 97 129 Q97 124 97 122 Q97 84 128.5 60.5 Q160 37 240 37 Q328 37 365 65 Q402 93 408 139 L417 212 Q418 217 418 220.5 Q418 224 418 225 Q418 256 395.5 274 Q373 292 346 303 L177 371 Q143 384 119.5 411.5 Q96 439 96 478 Q96 481 96 485 Q96 489 97 496 L103 547 Q110 605 154.5 646.5 Q199 688 320 688 Q425 688 465.5 653 Q506 618 506 568 Q506 566 506 560 Q506 554 505 547 L500 498 Q499 492 496 489 Q493 486 487 486 L458 486 Q452 486 449.5 488.5 Q447 491 448 498 L453 541 Q454 548 454 552.5 Q454 557 454 559 Q454 596 424 619.5 Q394 643 316 643 Q229 643 193.5 615 Q158 587 154 542 L150 502 Q149 495 149 492 Q149 489 149 488 Q149 459 166 443.5 Q183 428 203 420 L384 347 Q422 331 446.5 304 Q471 277 471 235 Q471 234 471 229 Q471 224 470 217 L461 133 Q455 75 407.5 33.5 Q360 -8 245 -8 L226 -54 L265 -54 Q291 -54 314 -69.5 Q337 -85 337 -122 Q337 -173 307 -192 Q277 -211 245 -211 Z " />
<glyph glyph-name="Scommaaccent" unicode="&#x218;" horiz-adv-x="548" d="M215 -89 L219 -62 Q220 -56 223 -53 Q226 -50 232 -50 L254 -50 Q261 -50 263 -53 Q265 -56 264 -62 L261 -91 Q257 -128 242 -154 Q227 -180 210 -205 Q206 -210 202.5 -211 Q199 -212 194 -211 L177 -206 Q173 -205 171.5 -201 Q170 -197 174 -191 Q192 -161 201.5 -141 Q211 -121 215 -89 Z M448 498 L453 541 Q454 548 454 552.5 Q454 557 454 559 Q454 596 424 619.5 Q394 643 316 643 Q229 643 193.5 615 Q158 587 154 542 L150 502 Q149 495 149 492 Q149 489 149 488 Q149 459 166 443.5 Q183 428 203 420 L384 347 Q422 331 446.5 304 Q471 277 471 235 Q471 231 471 227.5 Q471 224 470 217 L461 133 Q455 75 406.5 33.5 Q358 -8 237 -8 Q130 -8 87 27 Q44 62 44 113 Q44 117 44 122.5 Q44 128 45 135 L51 185 Q52 192 55 195 Q58 198 64 198 L93 198 Q100 198 102.5 195 Q105 192 104 185 L98 141 Q97 134 97 129 Q97 124 97 122 Q97 84 128.5 60.5 Q160 37 240 37 Q328 37 365 65 Q402 93 408 139 L417 212 Q418 219 418 221.5 Q418 224 418 225 Q418 256 395.5 274 Q373 292 346 303 L177 371 Q143 384 119.5 411.5 Q96 439 96 478 Q96 480 96 484.5 Q96 489 97 496 L103 547 Q110 605 154.5 646.5 Q199 688 320 688 Q425 688 465.5 653 Q506 618 506 568 Q506 566 506 560 Q506 554 505 547 L500 498 Q499 492 496 489 Q493 486 487 486 L458 486 Q452 486 449.5 488.5 Q447 491 448 498 Z " />
<glyph glyph-name="Tcommaaccent" unicode="&#x162;" horiz-adv-x="487" d="M173 -89 L177 -62 Q178 -56 181 -53 Q184 -50 190 -50 L212 -50 Q219 -50 221 -53 Q223 -56 222 -62 L219 -91 Q215 -128 200 -154 Q185 -180 168 -205 Q164 -210 160.5 -211 Q157 -212 152 -211 L135 -206 Q131 -205 129.5 -201 Q128 -197 132 -191 Q150 -161 159.5 -141 Q169 -121 173 -89 Z M84 680 L499 680 Q505 680 508 677.5 Q511 675 510 668 L508 646 Q507 639 504 636.5 Q501 634 495 634 L313 634 L236 12 Q235 6 233 3 Q231 0 224 0 L194 0 Q188 0 185 3 Q182 6 183 12 L260 634 L79 634 Q73 634 70 636.5 Q67 639 68 646 L71 668 Q72 675 75 677.5 Q78 680 84 680 Z " />
<glyph glyph-name="Tcaron" unicode="&#x164;" horiz-adv-x="487" d="M84 680 L499 680 Q505 680 508 677.5 Q511 675 510 668 L508 646 Q507 639 504 636.5 Q501 634 495 634 L313 634 L236 12 Q235 6 233 3 Q231 0 224 0 L194 0 Q188 0 185 3 Q182 6 183 12 L260 634 L79 634 Q73 634 70 636.5 Q67 639 68 646 L71 668 Q72 675 75 677.5 Q78 680 84 680 Z M249 866 L298 774 L370 866 Q374 871 378.5 874.5 Q383 878 388 878 L412 878 Q418 878 419.5 874.5 Q421 871 417 866 L324 751 Q320 747 315.5 743.5 Q311 740 305 740 L286 740 Q279 740 275 743.5 Q271 747 268 752 L204 866 Q201 871 203 874.5 Q205 878 212 878 L235 878 Q240 878 243.5 874 Q247 870 249 866 Z " />
<glyph glyph-name="Utilde" unicode="&#x168;" horiz-adv-x="603" d="M192 668 L128 147 Q127 140 126.5 135 Q126 130 126 125 Q126 86 158.5 62 Q191 38 270 38 Q358 38 395.5 66.5 Q433 95 439 141 L504 668 Q505 674 507.5 677 Q510 680 516 680 L546 680 Q551 680 554.5 677.5 Q558 675 557 668 L491 133 Q484 75 436 33.5 Q388 -8 266 -8 Q159 -8 115.5 27.5 Q72 63 72 114 Q72 119 72.5 125.5 Q73 132 74 137 L139 668 Q140 674 142.5 677 Q145 680 152 680 L182 680 Q186 680 189.5 677.5 Q193 675 192 668 Z M300 828 Q282 828 275 817.5 Q268 807 264 779 L262 765 Q261 759 257.5 756.5 Q254 754 248 754 L232 754 Q226 754 224 758 Q222 762 223 768 L227 790 Q235 834 253.5 851.5 Q272 869 301 869 Q313 869 327 863.5 Q341 858 353 848 L393 812 Q400 805 408.5 800.5 Q417 796 425 796 Q443 796 450.5 807 Q458 818 462 850 L463 859 Q464 865 467.5 867.5 Q471 870 477 870 L493 870 Q500 870 501.5 866.5 Q503 863 502 857 L499 836 Q492 790 472 772.5 Q452 755 424 755 Q409 755 396.5 761 Q384 767 372 777 L331 813 Q324 819 316 823.5 Q308 828 300 828 Z " />
<glyph glyph-name="Umacron" unicode="&#x16a;" horiz-adv-x="603" d="M192 668 L128 147 Q127 140 126.5 135 Q126 130 126 125 Q126 86 158.5 62 Q191 38 270 38 Q358 38 395.5 66.5 Q433 95 439 141 L504 668 Q505 674 507.5 677 Q510 680 516 680 L546 680 Q551 680 554.5 677.5 Q558 675 557 668 L491 133 Q484 75 436 33.5 Q388 -8 266 -8 Q159 -8 115.5 27.5 Q72 63 72 114 Q72 119 72.5 125.5 Q73 132 74 137 L139 668 Q140 674 142.5 677 Q145 680 152 680 L182 680 Q186 680 189.5 677.5 Q193 675 192 668 Z M236 820 L492 820 Q498 820 501 817.5 Q504 815 503 810 L501 791 Q500 785 497 782 Q494 779 488 779 L231 779 Q225 779 222 782 Q219 785 220 791 L222 809 Q223 815 226 817.5 Q229 820 236 820 Z " />
<glyph glyph-name="Ubreve" unicode="&#x16c;" horiz-adv-x="603" d="M192 668 L128 147 Q127 140 126.5 135 Q126 130 126 125 Q126 86 158.5 62 Q191 38 270 38 Q358 38 395.5 66.5 Q433 95 439 141 L504 668 Q505 674 507.5 677 Q510 680 516 680 L546 680 Q551 680 554.5 677.5 Q558 675 557 668 L491 133 Q484 75 436 33.5 Q388 -8 266 -8 Q159 -8 115.5 27.5 Q72 63 72 114 Q72 119 72.5 125.5 Q73 132 74 137 L139 668 Q140 674 142.5 677 Q145 680 152 680 L182 680 Q186 680 189.5 677.5 Q193 675 192 668 Z M294 871 L292 847 Q291 843 291 839 Q291 835 291 833 Q291 807 305 793 Q319 779 358 779 Q406 779 421 801.5 Q436 824 439 858 L440 871 Q441 877 443.5 879.5 Q446 882 453 882 L471 882 Q477 882 479.5 879 Q482 876 481 871 L480 859 Q476 807 450 776 Q424 745 355 745 Q301 745 276 766.5 Q251 788 251 830 Q251 834 251 837.5 Q251 841 252 848 L254 871 Q255 877 257.5 879.5 Q260 882 266 882 L284 882 Q289 882 292 879.5 Q295 877 294 871 Z " />
<glyph glyph-name="Uring" unicode="&#x16e;" horiz-adv-x="603" d="M457 809 L455 787 Q453 759 430 741 Q407 723 359 723 Q310 723 291.5 743.5 Q273 764 276 797 L278 819 Q280 847 303 865.5 Q326 884 375 884 Q423 884 441.5 862 Q460 840 457 809 Z M423 792 L424 806 Q425 827 415.5 840.5 Q406 854 372 854 Q341 854 326 843 Q311 832 310 814 L309 801 Q307 777 317.5 765 Q328 753 360 753 Q391 753 406.5 763.5 Q422 774 423 792 Z M192 668 L128 147 Q127 140 126.5 135 Q126 130 126 125 Q126 86 158.5 62 Q191 38 270 38 Q358 38 395.5 66.5 Q433 95 439 141 L504 668 Q505 674 507.5 677 Q510 680 516 680 L546 680 Q551 680 554.5 677.5 Q558 675 557 668 L491 133 Q484 75 436 33.5 Q388 -8 266 -8 Q159 -8 115.5 27.5 Q72 63 72 114 Q72 119 72.5 125.5 Q73 132 74 137 L139 668 Q140 674 142.5 677 Q145 680 152 680 L182 680 Q186 680 189.5 677.5 Q193 675 192 668 Z " />
<glyph glyph-name="Uhungarumlaut" unicode="&#x170;" horiz-adv-x="603" d="M414 866 L337 752 Q333 746 329 743 Q325 740 319 740 L297 740 Q291 740 290 743.5 Q289 747 292 752 L364 866 Q367 871 371.5 874.5 Q376 878 382 878 L408 878 Q415 878 416.5 874.5 Q418 871 414 866 Z M518 866 L425 750 Q421 746 416.5 743 Q412 740 407 740 L384 740 Q378 740 377 743.5 Q376 747 380 752 L467 866 Q471 870 475.5 874 Q480 878 486 878 L513 878 Q520 878 521 874.5 Q522 871 518 866 Z M192 668 L128 147 Q127 140 126.5 135 Q126 130 126 125 Q126 86 158.5 62 Q191 38 270 38 Q358 38 395.5 66.5 Q433 95 439 141 L504 668 Q505 674 507.5 677 Q510 680 516 680 L546 680 Q551 680 554.5 677.5 Q558 675 557 668 L491 133 Q484 75 436 33.5 Q388 -8 266 -8 Q159 -8 115.5 27.5 Q72 63 72 114 Q72 119 72.5 125.5 Q73 132 74 137 L139 668 Q140 674 142.5 677 Q145 680 152 680 L182 680 Q186 680 189.5 677.5 Q193 675 192 668 Z " />
<glyph glyph-name="Uogonek" unicode="&#x172;" horiz-adv-x="604" d="M192 668 L128 147 Q127 139 126.5 134 Q126 129 126 124 Q126 87 158.5 62.5 Q191 38 270 38 Q358 38 395.5 66.5 Q433 95 439 141 L504 668 Q505 674 507.5 677 Q510 680 516 680 L546 680 Q551 680 554.5 677.5 Q558 675 557 668 L491 133 Q487 105 476.5 82 Q466 59 448 43 Q427 25 398.5 0 Q370 -25 370 -67 Q370 -89 384 -100 Q398 -111 429 -111 L464 -111 Q470 -111 473.5 -114 Q477 -117 476 -123 L474 -137 Q473 -144 469.5 -146.5 Q466 -149 460 -149 L417 -149 Q380 -149 354 -133 Q328 -117 328 -77 Q328 -56 335.5 -36.5 Q343 -17 358 1 Q339 -3 316 -5.5 Q293 -8 266 -8 Q159 -8 115.5 27.5 Q72 63 72 114 Q72 119 72.5 125.5 Q73 132 74 137 L139 668 Q140 674 142.5 677 Q145 680 152 680 L182 680 Q186 680 189.5 677.5 Q193 675 192 668 Z " />
<glyph glyph-name="Wcircumflex" unicode="&#x174;" horiz-adv-x="808" d="M467 844 L395 752 Q391 748 387.5 744 Q384 740 378 740 L354 740 Q348 740 346.5 743.5 Q345 747 349 752 L440 866 Q444 871 449 874.5 Q454 878 461 878 L480 878 Q487 878 490.5 874.5 Q494 871 497 867 L562 752 Q565 747 563 743.5 Q561 740 554 740 L532 740 Q527 740 523 743 Q519 746 516 752 L467 844 Z M482 668 L549 162 Q551 143 553 119 Q555 95 555 88 Q556 95 564.5 119 Q573 143 580 162 L771 668 Q773 674 777 677 Q781 680 787 680 L814 680 Q821 680 822.5 677.5 Q824 675 822 668 L575 12 Q573 6 569 3 Q565 0 559 0 L529 0 Q523 0 519.5 3 Q516 6 515 12 L449 526 Q448 539 445.5 561 Q443 583 443 591 Q441 583 434 561 Q427 539 422 526 L228 12 Q226 6 222 3 Q218 0 212 0 L182 0 Q176 0 172.5 3 Q169 6 168 12 L82 668 Q81 675 84 677.5 Q87 680 93 680 L123 680 Q130 680 132.5 677 Q135 674 136 668 L203 162 Q205 148 207 122.5 Q209 97 209 91 Q210 97 219 122 Q228 147 234 162 L426 668 Q428 674 431.5 677 Q435 680 441 680 L470 680 Q476 680 478.5 677 Q481 674 482 668 Z " />
<glyph glyph-name="Wgrave" unicode="&#x1e80;" horiz-adv-x="809" d="M427 747 L362 866 Q360 870 361 874 Q362 878 369 878 L400 878 Q406 878 409.5 875 Q413 872 415 868 L471 751 Q474 745 472 742.5 Q470 740 465 740 L442 740 Q436 740 432 742 Q428 744 427 747 Z M482 668 L549 162 Q551 143 553 119 Q555 95 555 88 Q556 95 564.5 119 Q573 143 580 162 L771 668 Q773 674 777 677 Q781 680 787 680 L814 680 Q821 680 822.5 677.5 Q824 675 822 668 L575 12 Q573 6 569 3 Q565 0 559 0 L529 0 Q523 0 519.5 3 Q516 6 515 12 L449 526 Q448 539 445.5 561 Q443 583 443 591 Q441 583 434 561 Q427 539 422 526 L228 12 Q226 6 222 3 Q218 0 212 0 L182 0 Q176 0 172.5 3 Q169 6 168 12 L82 668 Q81 675 84 677.5 Q87 680 93 680 L123 680 Q130 680 132.5 677 Q135 674 136 668 L203 162 Q205 148 207 122.5 Q209 97 209 91 Q210 97 219 122 Q228 147 234 162 L426 668 Q428 674 431.5 677 Q435 680 441 680 L470 680 Q476 680 478.5 677 Q481 674 482 668 Z " />
<glyph glyph-name="Wacute" unicode="&#x1e82;" horiz-adv-x="809" d="M581 866 L487 747 Q485 745 481.5 742.5 Q478 740 472 740 L446 740 Q441 740 439.5 742.5 Q438 745 442 751 L528 868 Q531 872 534.5 875 Q538 878 544 878 L577 878 Q584 878 584.5 874.5 Q585 871 581 866 Z M482 668 L549 162 Q551 143 553 119 Q555 95 555 88 Q556 95 564.5 119 Q573 143 580 162 L771 668 Q773 674 777 677 Q781 680 787 680 L814 680 Q821 680 822.5 677.5 Q824 675 822 668 L575 12 Q573 6 569 3 Q565 0 559 0 L529 0 Q523 0 519.5 3 Q516 6 515 12 L449 526 Q448 539 445.5 561 Q443 583 443 591 Q441 583 434 561 Q427 539 422 526 L228 12 Q226 6 222 3 Q218 0 212 0 L182 0 Q176 0 172.5 3 Q169 6 168 12 L82 668 Q81 675 84 677.5 Q87 680 93 680 L123 680 Q130 680 132.5 677 Q135 674 136 668 L203 162 Q205 148 207 122.5 Q209 97 209 91 Q210 97 219 122 Q228 147 234 162 L426 668 Q428 674 431.5 677 Q435 680 441 680 L470 680 Q476 680 478.5 677 Q481 674 482 668 Z " />
<glyph glyph-name="Wdieresis" unicode="&#x1e84;" horiz-adv-x="809" d="M482 668 L549 162 Q551 143 553 119 Q555 95 555 88 Q556 95 564.5 119 Q573 143 580 162 L771 668 Q773 674 777 677 Q781 680 787 680 L814 680 Q821 680 822.5 677.5 Q824 675 822 668 L575 12 Q573 6 569 3 Q565 0 559 0 L529 0 Q523 0 519.5 3 Q516 6 515 12 L449 526 Q448 539 445.5 561 Q443 583 443 591 Q441 583 434 561 Q427 539 422 526 L228 12 Q226 6 222 3 Q218 0 212 0 L182 0 Q176 0 172.5 3 Q169 6 168 12 L82 668 Q81 675 84 677.5 Q87 680 93 680 L123 680 Q130 680 132.5 677 Q135 674 136 668 L203 162 Q205 148 207 122.5 Q209 97 209 91 Q210 97 219 122 Q228 147 234 162 L426 668 Q428 674 431.5 677 Q435 680 441 680 L470 680 Q476 680 478.5 677 Q481 674 482 668 Z M538 857 L526 759 Q525 753 522 750 Q519 747 513 747 L495 747 Q488 747 486 750 Q484 753 485 759 L496 857 Q497 863 500.5 866 Q504 869 510 869 L528 869 Q534 869 536.5 866 Q539 863 538 857 Z M440 857 L428 759 Q427 753 424 750 Q421 747 415 747 L397 747 Q390 747 388 750 Q386 753 387 759 L398 857 Q399 863 402.5 866 Q406 869 412 869 L430 869 Q436 869 438.5 866 Q441 863 440 857 Z " />
<glyph glyph-name="Ycircumflex" unicode="&#x176;" horiz-adv-x="515" d="M130 668 L254 360 Q256 354 259.5 344.5 Q263 335 264 327 Q266 332 271.5 342.5 Q277 353 282 360 L483 668 Q487 673 490 676.5 Q493 680 499 680 L531 680 Q537 680 539.5 677.5 Q542 675 538 668 L285 282 L252 12 Q251 6 248.5 3 Q246 0 240 0 L210 0 Q204 0 201 3 Q198 6 199 12 L231 276 L73 668 Q71 674 74 677 Q77 680 83 680 L117 680 Q123 680 125.5 677 Q128 674 130 668 Z M323 844 L251 752 Q247 748 243.5 744 Q240 740 234 740 L210 740 Q204 740 202.5 743.5 Q201 747 205 752 L296 866 Q300 871 305 874.5 Q310 878 317 878 L336 878 Q343 878 346.5 874.5 Q350 871 353 867 L418 752 Q421 747 419 743.5 Q417 740 410 740 L388 740 Q383 740 379 743 Q375 746 372 752 L323 844 Z " />
<glyph glyph-name="Ygrave" unicode="&#x1ef2;" horiz-adv-x="515" d="M130 668 L254 360 Q256 354 259.5 344.5 Q263 335 264 327 Q266 332 271.5 342.5 Q277 353 282 360 L483 668 Q487 673 490 676.5 Q493 680 499 680 L531 680 Q537 680 539.5 677.5 Q542 675 538 668 L285 282 L252 12 Q251 6 248.5 3 Q246 0 240 0 L210 0 Q204 0 201 3 Q198 6 199 12 L231 276 L73 668 Q71 674 74 677 Q77 680 83 680 L117 680 Q123 680 125.5 677 Q128 674 130 668 Z M280 747 L215 866 Q213 870 214 874 Q215 878 222 878 L253 878 Q259 878 262.5 875 Q266 872 268 868 L324 751 Q327 745 325 742.5 Q323 740 318 740 L295 740 Q289 740 285 742 Q281 744 280 747 Z " />
</font>
</svg>
