<?xml version="1.0" encoding="UTF-8"?>
<svg xmlns="http://www.w3.org/2000/svg" xmlns:xlink="http://www.w3.org/1999/xlink" version="1.2" >
<font id="Fly Sans Thin Italic">
<font-face  font-family="Fly Sans" units-per-em="1000" ascent="1000" descent="-300" font-style="normal" font-weight="275" font-stretch="normal" slope="-7" cap-height="680" x-height="490" underline-position="-125" underline-thickness="12" />
<missing-glyph  horiz-adv-x="869" d="M720 94 Q669 44 604.5 18 Q540 -8 471 -8 Q405 -8 340 18 Q275 44 225 94 Q174 144 148 209 Q122 274 122 341 Q122 407 148 472 Q174 537 225 588 Q275 638 340 664 Q405 690 471 690 Q538 690 604 664 Q670 638 720 588 Q770 538 796.5 472.5 Q823 407 823 341 Q823 273 796.5 208.5 Q770 144 720 94 Z M708 106 Q757 155 782 216.5 Q807 278 807 341 Q807 404 782 465.5 Q757 527 708 576 Q659 625 597 649.5 Q535 674 471 674 Q408 674 347 649.5 Q286 625 237 576 Q188 527 163 465.5 Q138 404 138 341 Q138 278 163 216.5 Q188 155 237 106 Q286 57 347 32.5 Q408 8 471 8 Q536 8 597.5 32.5 Q659 57 708 106 Z M606 197 L473 330 L341 198 Q340 197 337 197 Q334 197 333 198 L330 201 Q328 203 328.5 205.5 Q329 208 330 209 L462 341 L331 473 Q329 475 328.5 477.5 Q328 480 330 482 L332 484 Q334 486 336.5 486.5 Q339 487 341 485 L473 352 L606 484 Q608 486 610.5 486.5 Q613 487 615 485 L617 483 Q619 481 619.5 478.5 Q620 476 618 474 L484 341 L617 208 Q619 206 619 203.5 Q619 201 617 199 L615 197 Q613 195 610.5 195 Q608 195 606 197 Z " />
<glyph glyph-name="Eth" unicode="&#xd0;" horiz-adv-x="596" d="M271 0 L84 0 Q81 0 79.5 1.5 Q78 3 78 6 L119 338 L33 338 Q30 338 29 339.5 Q28 341 28 344 L28 347 Q28 350 30 351.5 Q32 353 35 353 L121 353 L160 674 Q161 677 162.5 678.5 Q164 680 166 680 L354 680 Q455 680 494 649 Q533 618 533 569 Q533 565 533 560.5 Q533 556 532 549 L481 131 Q474 74 429.5 37 Q385 0 271 0 Z M95 15 L272 15 Q376 15 417.5 48.5 Q459 82 465 131 L516 549 Q517 555 517 559.5 Q517 564 517 567 Q517 610 482 637.5 Q447 665 352 665 L175 665 L137 353 L304 353 Q307 353 308 351.5 Q309 350 309 347 L309 344 Q309 341 307 339.5 Q305 338 302 338 L135 338 L95 15 Z " />
<glyph glyph-name="eth" unicode="&#xf0;" horiz-adv-x="506" d="M316 612 L422 653 Q409 669 379 678.5 Q349 688 300 688 L217 688 Q215 688 213.5 689 Q212 690 212 692 L212 697 Q212 700 214 701.5 Q216 703 219 703 L302 703 Q357 703 390.5 691.5 Q424 680 438 660 L499 684 Q500 685 502 684.5 Q504 684 505 682 L507 677 Q508 675 506 673 Q504 671 502 670 L445 647 Q449 639 450.5 628.5 Q452 618 452 611 Q452 607 452 603 Q452 599 451 591 L391 104 Q385 55 347.5 23.5 Q310 -8 212 -8 Q126 -8 93 18.5 Q60 45 60 86 Q60 89 60 92.5 Q60 96 61 104 L95 386 Q101 435 136.5 466.5 Q172 498 243 498 Q309 498 352 475 Q395 452 415 434 L435 591 Q436 598 436 600.5 Q436 603 436 606 Q436 614 434.5 623.5 Q433 633 429 641 L320 598 Q317 597 314.5 597 Q312 597 312 601 L312 606 Q312 607 313 609 Q314 611 316 612 Z M375 104 L413 416 Q398 431 354.5 457 Q311 483 241 483 Q181 483 148.5 455 Q116 427 111 386 L77 104 Q76 97 76 94 Q76 91 76 89 Q76 53 105.5 30 Q135 7 214 7 Q301 7 335.5 35 Q370 63 375 104 Z " />
<glyph glyph-name="Lslash" unicode="&#x141;" horiz-adv-x="484" d="M423 0 L83 0 Q81 0 79.5 1.5 Q78 3 78 6 L117 327 L39 296 Q37 295 35 295.5 Q33 296 32 299 L31 302 Q30 305 31.5 307 Q33 309 35 310 L119 343 L160 674 Q160 677 162 678.5 Q164 680 166 680 L170 680 Q174 680 175.5 679 Q177 678 176 674 L136 350 L218 382 Q220 383 221.5 382 Q223 381 224 380 L226 375 Q227 373 225 371 Q223 369 221 368 L134 334 L95 15 L424 15 Q427 15 428 13.5 Q429 12 429 9 L429 6 Q429 3 427.5 1.5 Q426 0 423 0 Z " />
<glyph glyph-name="lslash" unicode="&#x142;" horiz-adv-x="231" d="M84 0 L79 0 Q76 0 75 1.5 Q74 3 74 6 L113 328 L32 296 Q30 295 28 295.5 Q26 296 25 299 L24 302 Q23 305 24.5 307 Q26 309 28 310 L115 344 L158 693 Q159 696 160.5 697.5 Q162 699 165 699 L169 699 Q172 699 173 697.5 Q174 696 174 693 L132 351 L211 382 Q213 383 214.5 382 Q216 381 217 380 L219 375 Q220 373 218 371 Q216 369 214 368 L130 335 L90 6 Q90 4 88.5 2 Q87 0 84 0 Z " />
<glyph glyph-name="Scaron" unicode="&#x160;" horiz-adv-x="541" d="M468 504 L474 557 Q475 564 475 568.5 Q475 573 475 577 Q475 619 442 646 Q409 673 316 673 Q212 673 173.5 639.5 Q135 606 129 557 L123 506 Q122 499 122 496.5 Q122 494 122 492 Q122 456 142.5 436 Q163 416 185 407 L375 330 Q403 319 428.5 294 Q454 269 454 228 Q454 225 454 222.5 Q454 220 453 214 L442 123 Q435 66 390.5 29 Q346 -8 232 -8 Q132 -8 92.5 22.5 Q53 53 53 101 Q53 106 53.5 111.5 Q54 117 55 123 L61 170 Q62 173 63 174.5 Q64 176 68 176 L72 176 Q74 176 75.5 174 Q77 172 77 170 L71 123 Q70 119 70 113 Q70 107 70 103 Q70 62 103.5 34.5 Q137 7 233 7 Q337 7 378.5 40.5 Q420 74 426 123 L437 214 Q438 220 438 222 Q438 224 438 227 Q438 264 415 285 Q392 306 367 316 L177 393 Q153 403 129.5 426.5 Q106 450 106 491 Q106 494 106 497 Q106 500 107 506 L113 557 Q120 614 161.5 651 Q203 688 318 688 Q417 688 454 657.5 Q491 627 491 579 Q491 575 491 569.5 Q491 564 490 557 L484 504 Q484 501 482 499.5 Q480 498 478 498 L474 498 Q471 498 469 499 Q467 500 468 504 Z M252 872 L314 758 L405 872 Q408 876 410.5 877 Q413 878 414 878 L420 878 Q423 878 423.5 876 Q424 874 422 872 L326 749 Q325 747 322.5 745.5 Q320 744 317 744 L311 744 Q308 744 305.5 746 Q303 748 302 750 L236 872 Q235 874 236 876 Q237 878 240 878 L245 878 Q247 878 249 876.5 Q251 875 252 872 Z " />
<glyph glyph-name="scaron" unicode="&#x161;" horiz-adv-x="468" d="M383 364 L387 393 Q388 400 388 404 Q388 408 388 413 Q388 440 358.5 462 Q329 484 255 484 Q178 484 142.5 460 Q107 436 103 401 L98 359 Q97 353 97 349.5 Q97 346 97 344 Q97 321 114.5 305.5 Q132 290 156 283 L313 237 Q344 228 363 211 Q382 194 382 167 Q382 161 381.5 156 Q381 151 381 151 L374 90 Q370 48 326 20 Q282 -8 195 -8 Q117 -8 80 17 Q43 42 43 79 Q43 81 43 84 Q43 87 44 94 L47 121 Q47 124 49 125 Q51 126 54 126 L59 126 Q60 126 62 125.5 Q64 125 63 121 L60 95 Q59 88 59 85.5 Q59 83 59 82 Q59 48 92.5 27.5 Q126 7 197 7 Q275 7 314.5 31 Q354 55 358 91 L365 150 Q365 151 365.5 155.5 Q366 160 366 165 Q366 191 346.5 203 Q327 215 304 222 L147 269 Q124 276 102 295 Q80 314 80 343 Q80 345 80 349 Q80 353 81 358 L87 401 Q93 443 131.5 470.5 Q170 498 257 498 Q333 498 368.5 473.5 Q404 449 404 414 Q404 408 404 404.5 Q404 401 403 394 L399 364 Q399 362 397.5 360.5 Q396 359 393 359 L388 359 Q386 359 384.5 360.5 Q383 362 383 364 Z M188 702 L250 588 L341 702 Q344 706 346.5 707 Q349 708 350 708 L356 708 Q359 708 359.5 706 Q360 704 358 702 L262 579 Q261 577 258.5 575.5 Q256 574 253 574 L247 574 Q244 574 241.5 576 Q239 578 238 580 L172 702 Q171 704 172 706 Q173 708 176 708 L181 708 Q183 708 185 706.5 Q187 705 188 702 Z " />
<glyph glyph-name="Yacute" unicode="&#xdd;" horiz-adv-x="502" d="M94 674 L243 330 Q245 326 248.5 318 Q252 310 253 305 Q256 311 260 317 Q264 323 268 330 L500 674 Q502 677 504 678.5 Q506 680 509 680 L515 680 Q518 680 519 679 Q520 678 518 674 L259 292 L224 6 Q223 2 222 1 Q221 0 217 0 L213 0 Q211 0 209.5 1.5 Q208 3 208 6 L243 291 L77 674 Q76 678 77.5 679 Q79 680 82 680 L87 680 Q90 680 91.5 679 Q93 678 94 674 Z M409 872 L310 747 Q309 746 308 745 Q307 744 304 744 L297 744 Q295 744 294.5 745.5 Q294 747 295 749 L393 874 Q394 875 395.5 876.5 Q397 878 400 878 L407 878 Q411 878 411 876 Q411 874 409 872 Z " />
<glyph glyph-name="yacute" unicode="&#xfd;" horiz-adv-x="419" d="M408 484 L88 -205 Q87 -208 84.5 -209.5 Q82 -211 80 -211 L74 -211 Q71 -211 70.5 -209.5 Q70 -208 71 -205 L168 3 L62 484 Q61 486 62 488 Q63 490 66 490 L72 490 Q74 490 75.5 488.5 Q77 487 78 484 L172 63 Q173 56 176 44.5 Q179 33 180 26 Q182 33 185.5 41.5 Q189 50 195 63 L391 484 Q392 487 394.5 488.5 Q397 490 399 490 L404 490 Q407 490 408 488.5 Q409 487 408 484 Z M338 702 L239 577 Q238 576 237 575 Q236 574 233 574 L226 574 Q224 574 223.5 575.5 Q223 577 224 579 L322 704 Q323 705 324.5 706.5 Q326 708 329 708 L336 708 Q340 708 340 706 Q340 704 338 702 Z " />
<glyph glyph-name="Thorn" unicode="&#xde;" horiz-adv-x="565" d="M171 674 L149 490 L326 490 Q427 490 466 459 Q505 428 505 379 Q505 376 505 371 Q505 366 504 359 L489 243 Q482 186 438.5 149 Q395 112 279 112 L102 112 L89 6 Q89 3 87.5 1.5 Q86 0 83 0 L79 0 Q76 0 74.5 1.5 Q73 3 73 6 L155 674 Q156 677 157.5 678.5 Q159 680 162 680 L166 680 Q168 680 170 679 Q172 678 171 674 Z M324 475 L147 475 L104 127 L281 127 Q385 127 425.5 160.5 Q466 194 473 243 L488 359 Q489 366 489 370.5 Q489 375 489 377 Q489 420 454 447.5 Q419 475 324 475 Z " />
<glyph glyph-name="thorn" unicode="&#xfe;" horiz-adv-x="510" d="M256 7 Q316 7 348.5 35 Q381 63 386 104 L420 378 Q421 385 421.5 390.5 Q422 396 422 400 Q422 436 396 459.5 Q370 483 315 483 Q243 483 194.5 457 Q146 431 127 416 L84 73 Q100 59 142 33 Q184 7 256 7 Z M82 55 L50 -205 Q49 -209 48 -210 Q47 -211 44 -211 L40 -211 Q37 -211 35.5 -209.5 Q34 -208 34 -205 L145 693 Q145 696 146.5 697.5 Q148 699 151 699 L155 699 Q158 699 159.5 697.5 Q161 696 161 693 L129 434 Q153 452 202 475 Q251 498 317 498 Q379 498 408.5 471.5 Q438 445 438 403 Q438 399 437.5 391.5 Q437 384 436 378 L402 104 Q396 55 361 23.5 Q326 -8 255 -8 Q189 -8 145 14.5 Q101 37 82 55 Z " />
<glyph glyph-name="Zcaron" unicode="&#x17d;" horiz-adv-x="459" d="M107 680 L450 680 Q453 680 454 678.5 Q455 677 455 675 L455 672 Q455 671 454.5 669 Q454 667 453 665 L22 15 L383 15 Q386 15 387 13.5 Q388 12 388 9 L388 6 Q388 3 386.5 1.5 Q385 0 382 0 L6 0 Q3 0 1.5 1.5 Q0 3 0 5 L0 7 Q0 9 1.5 11.5 Q3 14 4 16 L433 665 L105 665 Q103 665 101.5 666.5 Q100 668 100 671 L100 674 Q100 677 102 678.5 Q104 680 107 680 Z M215 872 L277 758 L368 872 Q371 876 373.5 877 Q376 878 377 878 L383 878 Q386 878 386.5 876 Q387 874 385 872 L289 749 Q288 747 285.5 745.5 Q283 744 280 744 L274 744 Q271 744 268.5 746 Q266 748 265 750 L199 872 Q198 874 199 876 Q200 878 203 878 L208 878 Q210 878 212 876.5 Q214 875 215 872 Z " />
<glyph glyph-name="zcaron" unicode="&#x17e;" horiz-adv-x="412" d="M82 490 L379 490 Q382 490 383 488.5 Q384 487 384 486 L384 483 Q384 481 382.5 478.5 Q381 476 379 473 L27 15 L331 15 Q334 15 335 13.5 Q336 12 336 9 L336 6 Q336 3 334 1.5 Q332 0 329 0 L11 0 Q8 0 7 1.5 Q6 3 6 6 L6 8 Q6 9 7 11.5 Q8 14 11 18 L362 475 L80 475 Q77 475 76 476.5 Q75 478 75 481 L75 484 Q75 487 77 488.5 Q79 490 82 490 Z M167 702 L229 588 L320 702 Q323 706 325.5 707 Q328 708 329 708 L335 708 Q338 708 338.5 706 Q339 704 337 702 L241 579 Q240 577 237.5 575.5 Q235 574 232 574 L226 574 Q223 574 220.5 576 Q218 578 217 580 L151 702 Q150 704 151 706 Q152 708 155 708 L160 708 Q162 708 164 706.5 Q166 705 167 702 Z " />
<glyph glyph-name="onehalf" unicode="&#xbd;" horiz-adv-x="683" d="M562 682 L178 -2 Q177 -5 175 -6.5 Q173 -8 170 -8 L165 -8 Q162 -8 161.5 -6 Q161 -4 162 -2 L546 682 Q547 685 549.5 686.5 Q552 688 555 688 L559 688 Q562 688 562.5 686 Q563 684 562 682 Z M113 649 L220 679 Q223 680 225 679 Q227 678 227 675 L183 319 L280 319 Q283 319 283.5 317.5 Q284 316 284 315 L283 310 Q282 308 281 307 Q280 306 278 306 L71 306 Q70 306 67.5 306.5 Q65 307 66 310 L67 315 Q68 317 69 318 Q70 319 72 319 L168 319 L210 662 L111 635 Q109 634 108 635 Q107 636 107 638 L107 643 Q107 645 108.5 646.5 Q110 648 113 649 Z M398 13 L580 13 Q582 13 583 11.5 Q584 10 584 9 L583 4 Q582 1 580.5 0.5 Q579 0 577 0 L386 0 Q385 0 383.5 1 Q382 2 382 4 L395 113 Q398 141 420.5 151.5 Q443 162 453 164 L552 188 Q560 190 576 198.5 Q592 207 595 230 L604 303 Q605 310 605 312 Q605 314 605 315 Q605 338 589 352 Q573 366 524 366 Q469 366 451.5 348.5 Q434 331 430 303 L426 275 Q426 273 424.5 271.5 Q423 270 422 270 L416 270 Q414 270 413 271.5 Q412 273 412 275 L416 304 Q420 336 440.5 357 Q461 378 526 378 Q579 378 599.5 361 Q620 344 620 316 Q620 315 620 313 Q620 311 619 304 L610 230 Q607 203 586.5 191 Q566 179 555 176 L458 152 Q442 148 427 139 Q412 130 410 111 L398 13 Z " />
<glyph glyph-name="onequarter" unicode="&#xbc;" horiz-adv-x="670" d="M568 682 L184 -2 Q183 -5 181 -6.5 Q179 -8 176 -8 L171 -8 Q168 -8 167.5 -6 Q167 -4 168 -2 L552 682 Q553 685 555.5 686.5 Q558 688 561 688 L565 688 Q568 688 568.5 686 Q569 684 568 682 Z M113 649 L220 679 Q223 680 225 679 Q227 678 227 675 L183 319 L280 319 Q283 319 283.5 317.5 Q284 316 284 315 L283 310 Q282 308 281 307 Q280 306 278 306 L71 306 Q70 306 67.5 306.5 Q65 307 66 310 L67 315 Q68 317 69 318 Q70 319 72 319 L168 319 L210 662 L111 635 Q109 634 108 635 Q107 636 107 638 L107 643 Q107 645 108.5 646.5 Q110 648 113 649 Z M499 370 L385 144 L559 144 L587 369 Q587 372 588.5 373 Q590 374 593 374 L597 374 Q599 374 600.5 373 Q602 372 602 370 L557 4 Q557 2 555.5 1 Q554 0 552 0 L546 0 Q544 0 543 1 Q542 2 542 4 L558 131 L371 131 Q369 131 367.5 132 Q366 133 366 134 L366 135 Q366 138 367.5 141.5 Q369 145 370 146 L483 370 Q484 373 486 373.5 Q488 374 490 374 L496 374 Q498 374 499 372.5 Q500 371 499 370 Z " />
<glyph glyph-name="onesuperior" unicode="&#xb9;" horiz-adv-x="291" d="M116 799 L223 829 Q226 830 228 829 Q230 828 230 825 L186 469 L283 469 Q286 469 286.5 467.5 Q287 466 287 465 L286 460 Q285 458 284 457 Q283 456 281 456 L74 456 Q73 456 70.5 456.5 Q68 457 69 460 L70 465 Q71 467 72 468 Q73 469 75 469 L171 469 L213 812 L114 785 Q112 784 111 785 Q110 786 110 788 L110 793 Q110 795 111.5 796.5 Q113 798 116 799 Z " />
<glyph glyph-name="threequarters" unicode="&#xbe;" horiz-adv-x="671" d="M561 682 L177 -2 Q176 -5 174 -6.5 Q172 -8 169 -8 L164 -8 Q161 -8 160.5 -6 Q160 -4 161 -2 L545 682 Q546 685 548.5 686.5 Q551 688 554 688 L558 688 Q561 688 561.5 686 Q562 684 561 682 Z M142 513 L192 513 Q247 513 263 529 Q279 545 283 573 L288 611 Q289 616 289 618.5 Q289 621 289 622 Q289 644 273 658 Q257 672 211 672 Q159 672 141 655 Q123 638 119 611 L118 605 Q118 604 117 602.5 Q116 601 114 601 L108 601 Q106 601 105 602.5 Q104 604 104 605 L105 612 Q109 644 130 664 Q151 684 213 684 Q264 684 283.5 668 Q303 652 303 626 Q303 624 303 621.5 Q303 619 302 613 L297 572 Q293 544 281.5 529 Q270 514 237 507 Q264 503 275 488.5 Q286 474 286 458 Q286 456 286 453 Q286 450 285 443 L277 373 Q273 342 251 322 Q229 302 166 302 Q113 302 92.5 318.5 Q72 335 72 362 Q72 363 72 365.5 Q72 368 73 374 L74 382 Q75 385 76 385.5 Q77 386 79 386 L84 386 Q86 386 87 384.5 Q88 383 88 382 L87 375 Q86 369 86 367 Q86 365 86 364 Q86 342 102.5 328 Q119 314 167 314 Q220 314 239.5 331 Q259 348 262 375 L270 442 Q271 449 271 452 Q271 455 271 456 Q271 477 255 489 Q239 501 193 501 L140 501 Q137 501 135.5 502 Q134 503 135 505 L136 510 Q137 512 138 512.5 Q139 513 142 513 Z M501 370 L387 144 L561 144 L589 369 Q589 372 590.5 373 Q592 374 595 374 L599 374 Q601 374 602.5 373 Q604 372 604 370 L559 4 Q559 2 557.5 1 Q556 0 554 0 L548 0 Q546 0 545 1 Q544 2 544 4 L560 131 L373 131 Q371 131 369.5 132 Q368 133 368 134 L368 135 Q368 138 369.5 141.5 Q371 145 372 146 L485 370 Q486 373 488 373.5 Q490 374 492 374 L498 374 Q500 374 501 372.5 Q502 371 501 370 Z " />
<glyph glyph-name="threesuperior" unicode="&#xb3;" horiz-adv-x="291" d="M137 663 L187 663 Q242 663 258 679 Q274 695 278 723 L283 761 Q284 766 284 768.5 Q284 771 284 772 Q284 794 268 808 Q252 822 206 822 Q154 822 136 805 Q118 788 114 761 L113 755 Q113 754 112 752.5 Q111 751 109 751 L103 751 Q101 751 100 752.5 Q99 754 99 755 L100 762 Q104 794 125 814 Q146 834 208 834 Q259 834 278.5 818 Q298 802 298 776 Q298 774 298 771.5 Q298 769 297 763 L292 722 Q288 694 276.5 679 Q265 664 232 657 Q259 653 270 638.5 Q281 624 281 608 Q281 606 281 603 Q281 600 280 593 L272 523 Q268 492 246 472 Q224 452 161 452 Q108 452 87.5 468.5 Q67 485 67 512 Q67 513 67 515.5 Q67 518 68 524 L69 532 Q70 535 71 535.5 Q72 536 74 536 L79 536 Q81 536 82 534.5 Q83 533 83 532 L82 525 Q81 519 81 517 Q81 515 81 514 Q81 492 97.5 478 Q114 464 162 464 Q215 464 234.5 481 Q254 498 257 525 L265 592 Q266 599 266 602 Q266 605 266 606 Q266 627 250 639 Q234 651 188 651 L135 651 Q132 651 130.5 652 Q129 653 130 655 L131 660 Q132 662 133 662.5 Q134 663 137 663 Z " />
<glyph glyph-name="twosuperior" unicode="&#xb2;" horiz-adv-x="291" d="M85 469 L267 469 Q269 469 270 467.5 Q271 466 271 465 L270 460 Q269 457 267.5 456.5 Q266 456 264 456 L73 456 Q72 456 70.5 457 Q69 458 69 460 L82 569 Q85 597 107.5 607.5 Q130 618 140 620 L239 644 Q247 646 263 654.5 Q279 663 282 686 L291 759 Q292 766 292 768 Q292 770 292 771 Q292 794 276 808 Q260 822 211 822 Q156 822 138.5 804.5 Q121 787 117 759 L113 731 Q113 729 111.5 727.5 Q110 726 109 726 L103 726 Q101 726 100 727.5 Q99 729 99 731 L103 760 Q107 792 127.5 813 Q148 834 213 834 Q266 834 286.5 817 Q307 800 307 772 Q307 771 307 769 Q307 767 306 760 L297 686 Q294 659 273.5 647 Q253 635 242 632 L145 608 Q129 604 114 595 Q99 586 97 567 L85 469 Z " />
<glyph glyph-name="brokenbar" unicode="&#xa6;" horiz-adv-x="248" d="M125 674 L125 320 Q125 317 123.5 315.5 Q122 314 119 314 L115 314 Q112 314 110.5 315.5 Q109 317 109 320 L109 674 Q109 677 110.5 678.5 Q112 680 115 680 L119 680 Q122 680 123.5 678.5 Q125 677 125 674 Z M125 149 L125 -205 Q125 -208 123.5 -209.5 Q122 -211 119 -211 L115 -211 Q112 -211 110.5 -209.5 Q109 -208 109 -205 L109 149 Q109 152 110.5 153.5 Q112 155 115 155 L119 155 Q122 155 123.5 153.5 Q125 152 125 149 Z " />
<glyph glyph-name="minus" unicode="&#x2212;" horiz-adv-x="594" d="M143 347 L533 347 Q536 347 537.5 345.5 Q539 344 539 341 L539 338 Q539 335 537.5 333.5 Q536 332 533 332 L143 332 Q140 332 138.5 333.5 Q137 335 137 338 L137 341 Q137 344 138.5 345.5 Q140 347 143 347 Z " />
<glyph glyph-name="multiply" unicode="&#xd7;" horiz-adv-x="462" d="M221 340 L89 472 Q87 474 87.5 476 Q88 478 89 480 L91 483 Q92 485 95 485 Q98 485 100 483 L232 350 L365 483 Q367 485 369 484.5 Q371 484 373 483 L376 481 Q378 480 377.5 477 Q377 474 376 473 L243 340 L376 206 Q378 204 377.5 202 Q377 200 376 198 L374 195 Q373 193 370 193.5 Q367 194 366 195 L232 329 L99 196 Q97 194 95 194.5 Q93 195 91 196 L88 198 Q86 199 86 202 Q86 205 88 207 L221 340 Z " />
<glyph glyph-name="space" unicode="&#x20;" horiz-adv-x="250" d="" />
<glyph glyph-name="exclam" unicode="&#x21;" horiz-adv-x="205" d="M125 390 L93 151 Q92 148 90.5 146.5 Q89 145 86 145 L84 145 Q81 145 80 146.5 Q79 148 79 151 L107 390 L141 674 Q141 677 143 678.5 Q145 680 148 680 L154 680 Q157 680 158 678.5 Q159 677 159 674 L125 390 Z M86 81 L76 6 Q75 3 74 1.5 Q73 0 69 0 L66 0 Q63 0 61 1.5 Q59 3 60 6 L70 81 Q71 84 72.5 85.5 Q74 87 77 87 L81 87 Q84 87 85 85 Q86 83 86 81 Z " />
<glyph glyph-name="quotedbl" unicode="&#x22;" horiz-adv-x="285" d="M250 674 L226 496 Q226 494 224.5 492 Q223 490 220 490 L218 490 Q215 490 213.5 491.5 Q212 493 212 496 L232 674 Q232 677 234 678.5 Q236 680 239 680 L245 680 Q248 680 249.5 678.5 Q251 677 250 674 Z M145 674 L121 496 Q121 494 119.5 492 Q118 490 115 490 L113 490 Q110 490 108.5 491.5 Q107 493 107 496 L127 674 Q127 677 129 678.5 Q131 680 134 680 L140 680 Q143 680 144.5 678.5 Q146 677 145 674 Z " />
<glyph glyph-name="numbersign" unicode="&#x23;" horiz-adv-x="560" d="M230 409 L174 269 L352 269 L408 409 L230 409 Z M65 269 L157 269 L213 409 L119 409 Q116 409 115 410.5 Q114 412 114 415 L114 418 Q114 421 116 422.5 Q118 424 121 424 L219 424 L263 536 Q264 539 266.5 540.5 Q269 542 272 542 L277 542 Q280 542 280.5 540 Q281 538 280 536 L236 424 L414 424 L458 536 Q459 539 461.5 540.5 Q464 542 467 542 L472 542 Q475 542 475.5 540 Q476 538 475 536 L431 424 L511 424 Q514 424 515 422.5 Q516 421 516 418 L516 415 Q516 412 514 410.5 Q512 409 509 409 L425 409 L369 269 L455 269 Q458 269 459 267.5 Q460 266 460 263 L460 260 Q460 257 458 255.5 Q456 254 453 254 L363 254 L319 145 Q318 143 316.5 141 Q315 139 312 139 L306 139 Q303 139 302 141 Q301 143 302 145 L346 254 L168 254 L124 145 Q123 142 121.5 140.5 Q120 139 117 139 L111 139 Q108 139 107 141 Q106 143 107 145 L151 254 L63 254 Q60 254 59 255.5 Q58 257 58 260 L58 263 Q58 266 60 267.5 Q62 269 65 269 Z " />
<glyph glyph-name="dollar" unicode="&#x24;" horiz-adv-x="474" d="M201 0 L198 0 Q195 0 193.5 1.5 Q192 3 192 6 L202 86 Q128 87 93 112 Q58 137 58 173 Q58 175 58 178 Q58 181 59 188 L62 215 Q62 218 64 219 Q66 220 69 220 L74 220 Q75 220 77 219.5 Q79 219 78 215 L75 189 Q74 184 74 180.5 Q74 177 74 176 Q74 142 107.5 121.5 Q141 101 212 101 Q290 101 329.5 125 Q369 149 373 185 L380 244 Q380 245 380.5 249 Q381 253 381 258 Q381 284 361.5 296.5 Q342 309 319 316 L162 363 Q139 370 117 389 Q95 408 95 437 Q95 439 95 443 Q95 447 96 452 L102 495 Q108 537 145.5 564.5 Q183 592 264 592 L275 674 Q276 677 277.5 678.5 Q279 680 282 680 L285 680 Q287 680 289 678.5 Q291 677 290 674 L279 592 Q351 591 385 566.5 Q419 542 419 508 Q419 502 419 498.5 Q419 495 418 488 L414 458 Q414 456 412.5 454.5 Q411 453 408 453 L403 453 Q401 453 399.5 454.5 Q398 456 398 458 L402 487 Q403 494 403 498 Q403 502 403 507 Q403 534 373.5 556 Q344 578 270 578 Q193 578 157.5 554 Q122 530 118 495 L113 453 Q112 447 112 444 Q112 441 112 439 Q112 416 129.5 400 Q147 384 171 377 L328 331 Q359 322 378 304.5 Q397 287 397 260 Q397 254 396.5 249.5 Q396 245 396 245 L389 184 Q385 142 342 114 Q299 86 217 86 L207 6 Q207 4 205.5 2 Q204 0 201 0 Z " />
<glyph glyph-name="percent" unicode="&#x25;" horiz-adv-x="674" d="M543 682 L159 -2 Q158 -5 156 -6.5 Q154 -8 151 -8 L146 -8 Q143 -8 142.5 -6 Q142 -4 143 -2 L527 682 Q528 685 530.5 686.5 Q533 688 536 688 L540 688 Q543 688 543.5 686 Q544 684 543 682 Z M313 610 L287 406 Q283 374 261.5 353 Q240 332 175 332 Q122 332 101 349 Q80 366 80 394 Q80 395 80 398.5 Q80 402 81 406 L107 610 Q111 642 133 663 Q155 684 219 684 Q273 684 293.5 667 Q314 650 314 622 Q314 621 314 619 Q314 617 313 610 Z M95 407 Q94 402 94 399.5 Q94 397 94 396 Q94 373 111 359 Q128 345 177 345 Q231 345 250 362 Q269 379 273 407 L299 609 Q300 616 300 617.5 Q300 619 300 620 Q300 643 283 657 Q266 671 217 671 Q162 671 143.5 654 Q125 637 121 609 L95 407 Z M605 274 L579 70 Q575 38 553.5 17 Q532 -4 467 -4 Q414 -4 393 13 Q372 30 372 58 Q372 59 372 62.5 Q372 66 373 70 L399 274 Q403 306 425 327 Q447 348 511 348 Q565 348 585.5 331 Q606 314 606 286 Q606 285 606 283 Q606 281 605 274 Z M387 71 Q386 66 386 63.5 Q386 61 386 60 Q386 37 403 23 Q420 9 469 9 Q523 9 542 26 Q561 43 565 71 L591 273 Q592 279 592 281 Q592 283 592 284 Q592 307 575 321 Q558 335 509 335 Q454 335 435.5 318 Q417 301 413 273 L387 71 Z " />
<glyph glyph-name="ampersand" unicode="&#x26;" horiz-adv-x="627" d="M466 120 Q459 63 409 27.5 Q359 -8 250 -8 Q152 -8 108 23 Q64 54 64 104 Q64 107 64 110 Q64 113 65 120 L81 250 Q87 297 110 327 Q133 357 198 368 Q149 378 131 401 Q113 424 113 458 Q113 465 113.5 471.5 Q114 478 115 485 L124 560 Q131 617 169.5 652.5 Q208 688 315 688 Q371 688 423.5 670 Q476 652 476 586 L476 577 L474 547 Q474 543 472 542 Q470 541 467 541 L463 541 Q460 541 459 543 Q458 545 458 547 L460 577 L460 585 Q460 645 411 659 Q362 673 313 673 Q244 673 196 651 Q148 629 140 560 L131 485 Q130 478 129.5 471.5 Q129 465 129 459 Q129 421 157.5 398 Q186 375 276 375 L586 375 Q589 375 590 373.5 Q591 372 591 369 L591 366 Q591 363 589 361.5 Q587 360 584 360 L496 360 L466 120 Z M251 7 Q351 7 397.5 39 Q444 71 450 120 L480 360 L269 360 Q165 360 134 329.5 Q103 299 97 250 L81 120 Q80 113 80 110.5 Q80 108 80 105 Q80 62 119 34.5 Q158 7 251 7 Z " />
<glyph glyph-name="quotesingle" unicode="&#x27;" horiz-adv-x="180" d="M145 674 L121 496 Q121 494 119.5 492 Q118 490 115 490 L113 490 Q110 490 108.5 491.5 Q107 493 107 496 L127 674 Q127 677 129 678.5 Q131 680 134 680 L140 680 Q143 680 144.5 678.5 Q146 677 145 674 Z " />
<glyph glyph-name="parenleft" unicode="&#x28;" horiz-adv-x="290" d="M41 -106 L128 596 Q134 645 170 676.5 Q206 708 304 708 L307 708 Q310 708 311 706.5 Q312 705 312 702 L312 699 Q312 696 310.5 694.5 Q309 693 306 693 L303 693 Q215 693 182 665 Q149 637 144 596 L58 -99 Q57 -105 56.5 -111 Q56 -117 56 -120 Q56 -156 84.5 -179.5 Q113 -203 193 -203 L196 -203 Q199 -203 199.5 -205 Q200 -207 200 -209 L200 -212 Q200 -215 198.5 -216.5 Q197 -218 194 -218 L191 -218 Q105 -218 72.5 -192 Q40 -166 40 -124 Q40 -122 40 -118 Q40 -114 41 -106 Z " />
<glyph glyph-name="parenright" unicode="&#x29;" horiz-adv-x="290" d="M237 596 L150 -106 Q144 -155 108 -186.5 Q72 -218 -26 -218 L-29 -218 Q-32 -218 -33 -216.5 Q-34 -215 -34 -212 L-34 -209 Q-34 -206 -32.5 -204.5 Q-31 -203 -28 -203 L-25 -203 Q62 -203 95.5 -175 Q129 -147 134 -106 L220 589 Q221 600 221.5 604.5 Q222 609 222 612 Q222 647 192.5 670 Q163 693 85 693 L82 693 Q79 693 78.5 695 Q78 697 78 699 L78 702 Q78 705 79.5 706.5 Q81 708 84 708 L87 708 Q173 708 205.5 682 Q238 656 238 614 Q238 612 238 607.5 Q238 603 237 596 Z " />
<glyph glyph-name="asterisk" unicode="&#x2a;" horiz-adv-x="423" d="M217 413 L236 550 L111 473 Q108 472 106 473 Q104 474 103 475 L101 478 Q100 479 100.5 482 Q101 485 104 486 L231 559 L122 633 Q120 634 119.5 636.5 Q119 639 120 640 L122 643 Q123 644 125.5 645.5 Q128 647 131 645 L238 569 L253 705 Q253 708 255 709.5 Q257 711 260 711 L263 711 Q265 711 267 709.5 Q269 708 268 705 L249 568 L374 646 Q377 648 379.5 647.5 Q382 647 383 644 L385 641 Q386 639 385.5 636.5 Q385 634 382 633 L254 559 L364 486 Q366 485 366 482 Q366 479 365 478 L364 476 Q363 475 360.5 473.5 Q358 472 354 474 L247 550 L232 413 Q232 410 230 408.5 Q228 407 225 407 L222 407 Q219 407 217.5 408.5 Q216 410 217 413 Z " />
<glyph glyph-name="plus" unicode="&#x2b;" horiz-adv-x="521" d="M258 144 L258 332 L71 332 Q68 332 66.5 333.5 Q65 335 65 338 L65 341 Q65 344 66.5 345.5 Q68 347 71 347 L258 347 L258 535 Q258 538 259.5 539.5 Q261 541 264 541 L267 541 Q270 541 271.5 539.5 Q273 538 273 535 L273 347 L462 347 Q465 347 466.5 345.5 Q468 344 468 341 L468 338 Q468 335 466.5 333.5 Q465 332 462 332 L273 332 L273 144 Q273 141 271.5 139.5 Q270 138 267 138 L264 138 Q261 138 259.5 139.5 Q258 141 258 144 Z " />
<glyph glyph-name="comma" unicode="&#x2c;" horiz-adv-x="182" d="M52 26 L59 81 Q60 84 61.5 85.5 Q63 87 66 87 L70 87 Q73 87 74.5 85.5 Q76 84 75 81 L68 26 Q64 -8 47 -32.5 Q30 -57 -6 -71 Q-8 -72 -10 -71.5 Q-12 -71 -13 -69 L-15 -65 Q-16 -62 -15 -60 Q-14 -58 -11 -57 Q22 -41 35 -21.5 Q48 -2 52 26 Z " />
<glyph glyph-name="hyphen" unicode="&#x2d;" horiz-adv-x="430" d="M80 297 L349 297 Q352 297 353.5 295.5 Q355 294 355 291 L355 288 Q355 285 353.5 283.5 Q352 282 349 282 L80 282 Q77 282 75.5 283.5 Q74 285 74 288 L74 291 Q74 294 75.5 295.5 Q77 297 80 297 Z " />
<glyph glyph-name="period" unicode="&#x2e;" horiz-adv-x="181" d="M75 81 L66 6 Q66 3 64 1.5 Q62 0 60 0 L56 0 Q53 0 51 1 Q49 2 50 6 L59 81 Q59 83 60.5 85 Q62 87 65 87 L70 87 Q73 87 74 85.5 Q75 84 75 81 Z " />
<glyph glyph-name="slash" unicode="&#x2f;" horiz-adv-x="339" d="M342 693 L9 -142 Q8 -145 5.5 -146.5 Q3 -148 0 -148 L-5 -148 Q-8 -148 -8.5 -146 Q-9 -144 -8 -142 L325 693 Q326 695 328 697 Q330 699 333 699 L338 699 Q341 699 342 697.5 Q343 696 342 693 Z " />
<glyph glyph-name="zero" unicode="0" horiz-adv-x="550" d="M71 123 L124 557 Q131 614 170 651 Q209 688 323 688 Q422 688 457 658 Q492 628 492 581 Q492 577 492 571 Q492 565 491 557 L438 123 Q431 66 391.5 29 Q352 -8 238 -8 Q139 -8 104 21.5 Q69 51 69 97 Q69 102 69.5 109 Q70 116 71 123 Z M422 123 L475 557 Q476 564 476 569.5 Q476 575 476 579 Q476 620 445 646.5 Q414 673 321 673 Q217 673 181.5 639.5 Q146 606 140 557 L87 123 Q86 116 85.5 110.5 Q85 105 85 100 Q85 60 116 33.5 Q147 7 239 7 Q343 7 379.5 40.5 Q416 74 422 123 Z " />
<glyph glyph-name="one" unicode="1" horiz-adv-x="479" d="M110 621 L306 680 Q309 681 310.5 679.5 Q312 678 312 676 L230 15 L411 15 Q414 15 415 13.5 Q416 12 416 9 L416 6 Q416 3 414.5 1.5 Q413 0 410 0 L33 0 Q30 0 29 1.5 Q28 3 28 6 L28 9 Q28 12 29.5 13.5 Q31 15 34 15 L214 15 L294 662 L108 606 Q106 605 104.5 606.5 Q103 608 103 611 L103 614 Q103 617 105 618.5 Q107 620 110 621 Z " />
<glyph glyph-name="two" unicode="2" horiz-adv-x="522" d="M70 15 L405 15 Q408 15 409 13.5 Q410 12 410 9 L410 6 Q410 3 408 1.5 Q406 0 403 0 L58 0 Q55 0 54 1.5 Q53 3 53 6 L78 205 Q84 254 125.5 273.5 Q167 293 184 297 L360 337 Q374 340 406 358 Q438 376 443 417 L460 557 Q461 566 461 571 Q461 576 461 580 Q461 620 431 646.5 Q401 673 309 673 Q205 673 171.5 639.5 Q138 606 131 557 L124 503 Q123 500 121.5 498.5 Q120 497 117 497 L113 497 Q110 497 108.5 498.5 Q107 500 108 503 L115 557 Q122 614 159 651 Q196 688 311 688 Q410 688 443.5 658.5 Q477 629 477 583 Q477 577 477 571.5 Q477 566 476 557 L459 417 Q453 367 416.5 346 Q380 325 362 321 L186 281 Q170 277 134.5 261 Q99 245 94 205 L70 15 Z " />
<glyph glyph-name="three" unicode="3" horiz-adv-x="521" d="M170 375 L266 375 Q370 375 400.5 405.5 Q431 436 437 485 L446 560 Q447 567 447 572.5 Q447 578 447 582 Q447 623 417.5 648 Q388 673 301 673 Q202 673 166.5 640.5 Q131 608 127 560 L126 547 Q126 544 124 542.5 Q122 541 120 541 L116 541 Q113 541 111.5 542.5 Q110 544 110 547 L111 560 Q115 614 155.5 651 Q196 688 303 688 Q396 688 430 659.5 Q464 631 464 585 Q464 579 463.5 573 Q463 567 462 560 L453 485 Q448 439 426.5 409 Q405 379 344 368 Q395 358 413 335 Q431 312 431 278 Q431 271 430.5 264 Q430 257 429 250 L413 120 Q406 63 366.5 27.5 Q327 -8 218 -8 Q122 -8 86.5 21 Q51 50 51 98 Q51 103 51 108.5 Q51 114 52 120 L54 133 Q55 136 56.5 137.5 Q58 139 61 139 L65 139 Q68 139 69.5 137.5 Q71 136 70 133 L68 120 Q67 115 67 109.5 Q67 104 67 99 Q67 58 98 32.5 Q129 7 219 7 Q319 7 355 39 Q391 71 397 120 L413 250 Q414 257 414.5 263.5 Q415 270 415 276 Q415 314 386.5 337 Q358 360 269 360 L169 360 Q166 360 164.5 361.5 Q163 363 163 366 L163 369 Q163 372 165 373.5 Q167 375 170 375 Z " />
<glyph glyph-name="four" unicode="4" horiz-adv-x="507" d="M275 674 L61 258 L392 258 L443 674 Q444 678 445.5 679 Q447 680 450 680 L454 680 Q456 680 458 678.5 Q460 677 459 674 L377 6 Q377 3 375.5 1.5 Q374 0 371 0 L367 0 Q364 0 362.5 2 Q361 4 361 6 L390 243 L46 243 Q44 243 42.5 244 Q41 245 41 247 L41 250 Q41 253 42.5 256 Q44 259 45 260 L258 674 Q259 677 261.5 678.5 Q264 680 267 680 L272 680 Q275 680 275.5 678 Q276 676 275 674 Z " />
<glyph glyph-name="five" unicode="5" horiz-adv-x="501" d="M144 680 L449 680 Q452 680 453 678.5 Q454 677 454 674 L454 671 Q454 668 452.5 666.5 Q451 665 448 665 L152 665 L118 395 L260 395 Q332 395 377 372 Q422 349 422 298 Q422 294 421.5 288 Q421 282 420 275 L401 120 Q394 63 358.5 27.5 Q323 -8 215 -8 Q119 -8 89.5 21 Q60 50 60 97 Q60 101 60 105.5 Q60 110 61 120 L62 133 Q62 136 64 137.5 Q66 139 69 139 L73 139 Q76 139 77 137.5 Q78 136 78 133 L77 120 Q76 111 76 105.5 Q76 100 76 96 Q76 56 101.5 31.5 Q127 7 217 7 Q319 7 349 39 Q379 71 385 120 L404 276 Q405 282 405.5 287 Q406 292 406 296 Q406 327 377.5 353.5 Q349 380 259 380 L107 380 Q104 380 102.5 381.5 Q101 383 101 386 L137 674 Q138 677 139.5 678.5 Q141 680 144 680 Z " />
<glyph glyph-name="six" unicode="6" horiz-adv-x="536" d="M71 123 L125 566 Q130 611 166.5 649.5 Q203 688 318 688 Q419 688 450 656 Q481 624 481 584 Q481 584 481 580 Q481 576 480 566 L479 555 Q479 552 477 550.5 Q475 549 472 549 L468 549 Q466 549 464.5 550 Q463 551 463 555 L464 566 Q464 567 464.5 572.5 Q465 578 465 581 Q465 615 437.5 644 Q410 673 316 673 Q213 673 179 639.5 Q145 606 141 566 L112 329 Q128 359 169 377.5 Q210 396 285 396 Q384 396 418.5 366 Q453 336 453 290 Q453 285 452.5 278.5 Q452 272 451 265 L434 123 Q427 66 388 29 Q349 -8 236 -8 Q138 -8 103.5 21 Q69 50 69 96 Q69 101 69.5 108 Q70 115 71 123 Z M418 123 L435 265 Q436 272 436.5 278 Q437 284 437 288 Q437 328 406 354.5 Q375 381 283 381 Q184 381 147 349.5 Q110 318 105 275 L87 123 Q86 116 85.5 109.5 Q85 103 85 99 Q85 59 115.5 33 Q146 7 237 7 Q341 7 376.5 40.5 Q412 74 418 123 Z " />
<glyph glyph-name="seven" unicode="7" horiz-adv-x="471" d="M89 680 L478 680 Q481 680 482 678.5 Q483 677 483 675 L483 673 Q483 671 482 668 Q481 665 480 664 L132 6 Q131 3 129 1.5 Q127 0 124 0 L118 0 Q114 0 113 1.5 Q112 3 113 6 L463 665 L88 665 Q85 665 83.5 666.5 Q82 668 82 671 L82 674 Q82 677 84 678.5 Q86 680 89 680 Z " />
<glyph glyph-name="eight" unicode="8" horiz-adv-x="534" d="M116 493 L124 557 Q131 614 166 651 Q201 688 315 688 Q412 688 444.5 659.5 Q477 631 477 585 Q477 578 476.5 571 Q476 564 475 557 L467 493 Q461 444 438 412 Q415 380 347 369 Q403 359 423 333.5 Q443 308 443 271 Q443 266 443 260 Q443 254 442 246 L427 123 Q420 66 382 29 Q344 -8 230 -8 Q132 -8 98 21 Q64 50 64 96 Q64 102 64.5 109 Q65 116 66 123 L81 246 Q87 294 111.5 326 Q136 358 204 369 Q151 378 132.5 403.5 Q114 429 114 463 Q114 471 114.5 478.5 Q115 486 116 493 Z M451 493 L459 557 Q460 564 460.5 570.5 Q461 577 461 583 Q461 623 432 648 Q403 673 313 673 Q209 673 177.5 639.5 Q146 606 140 557 L132 493 Q131 487 130.5 480.5 Q130 474 130 467 Q130 427 158.5 402 Q187 377 277 377 Q381 377 413 410.5 Q445 444 451 493 Z M411 123 L426 246 Q427 253 427 259 Q427 265 427 269 Q427 309 397 335.5 Q367 362 275 362 Q171 362 137 328.5 Q103 295 97 246 L82 123 Q81 117 80.5 111 Q80 105 80 99 Q80 59 110 33 Q140 7 231 7 Q335 7 370 40.5 Q405 74 411 123 Z " />
<glyph glyph-name="nine" unicode="9" horiz-adv-x="535" d="M129 557 L112 415 Q111 408 110.5 402 Q110 396 110 392 Q110 352 141 325.5 Q172 299 264 299 Q363 299 400 330.5 Q437 362 442 405 L460 557 Q461 564 461.5 570 Q462 576 462 581 Q462 621 431.5 647 Q401 673 310 673 Q206 673 170.5 639.5 Q135 606 129 557 Z M476 557 L422 114 Q417 69 381.5 30.5 Q346 -8 231 -8 Q130 -8 98 24 Q66 56 66 96 Q66 96 66 100 Q66 104 67 114 L68 125 Q68 128 70 129.5 Q72 131 75 131 L79 131 Q81 131 82.5 130 Q84 129 84 125 L83 114 Q83 113 82.5 107.5 Q82 102 82 99 Q82 65 110.5 36 Q139 7 233 7 Q336 7 369 40.5 Q402 74 406 114 L435 351 Q419 321 378 302.5 Q337 284 262 284 Q163 284 128.5 314 Q94 344 94 390 Q94 395 94.5 401.5 Q95 408 96 415 L113 557 Q120 614 159 651 Q198 688 311 688 Q409 688 443.5 659 Q478 630 478 584 Q478 578 477.5 571 Q477 564 476 557 Z " />
<glyph glyph-name="colon" unicode="&#x3a;" horiz-adv-x="193" d="M128 484 L119 409 Q119 406 117 404.5 Q115 403 112 403 L108 403 Q105 403 104 404.5 Q103 406 103 409 L112 484 Q112 487 114 488.5 Q116 490 119 490 L123 490 Q126 490 127 488.5 Q128 487 128 484 Z M78 81 L69 6 Q69 3 67 1.5 Q65 0 62 0 L58 0 Q55 0 54 1.5 Q53 3 53 6 L62 81 Q62 84 64 85.5 Q66 87 69 87 L73 87 Q75 87 76.5 85.5 Q78 84 78 81 Z " />
<glyph glyph-name="semicolon" unicode="&#x3b;" horiz-adv-x="225" d="M149 484 L140 409 Q140 406 138 404.5 Q136 403 133 403 L129 403 Q126 403 125 404.5 Q124 406 124 409 L133 484 Q133 487 135 488.5 Q137 490 140 490 L144 490 Q147 490 148 488.5 Q149 487 149 484 Z M77 26 L84 81 Q85 85 86.5 86 Q88 87 90 87 L95 87 Q98 87 99 85 Q100 83 100 81 L93 26 Q89 -8 71.5 -32.5 Q54 -57 19 -71 Q17 -72 15.5 -71.5 Q14 -71 13 -70 L10 -65 Q9 -64 9.5 -61 Q10 -58 14 -57 Q46 -41 59.5 -21.5 Q73 -2 77 26 Z " />
<glyph glyph-name="less" unicode="&#x3c;" horiz-adv-x="511" d="M415 498 L78 341 L415 184 Q418 183 419.5 181 Q421 179 421 177 L421 171 Q421 168 419 167.5 Q417 167 415 168 L66 332 Q63 333 61.5 334.5 Q60 336 60 339 L60 343 Q60 345 61.5 347 Q63 349 66 350 L415 514 Q417 515 419 514.5 Q421 514 421 511 L421 505 Q421 503 419.5 501 Q418 499 415 498 Z " />
<glyph glyph-name="equal" unicode="&#x3d;" horiz-adv-x="607" d="M112 425 L502 425 Q505 425 506.5 423.5 Q508 422 508 419 L508 416 Q508 413 506.5 411.5 Q505 410 502 410 L112 410 Q109 410 107.5 411.5 Q106 413 106 416 L106 419 Q106 422 107.5 423.5 Q109 425 112 425 Z M112 270 L502 270 Q505 270 506.5 268.5 Q508 267 508 264 L508 261 Q508 258 506.5 256.5 Q505 255 502 255 L112 255 Q109 255 107.5 256.5 Q106 258 106 261 L106 264 Q106 267 107.5 268.5 Q109 270 112 270 Z " />
<glyph glyph-name="greater" unicode="&#x3e;" horiz-adv-x="498" d="M432 341 L95 498 Q92 499 90.5 501 Q89 503 89 505 L89 511 Q89 514 91 514.5 Q93 515 95 514 L444 350 Q447 349 448.5 347 Q450 345 450 343 L450 339 Q450 336 448.5 334.5 Q447 333 444 332 L95 168 Q93 167 91 167.5 Q89 168 89 171 L89 177 Q89 179 90.5 181 Q92 183 95 184 L432 341 Z " />
<glyph glyph-name="question" unicode="&#x3f;" horiz-adv-x="493" d="M216 151 L227 238 Q233 284 263.5 307.5 Q294 331 308 338 L361 364 Q375 371 402 393 Q429 415 434 456 L447 557 Q448 564 448 568.5 Q448 573 448 577 Q448 619 415 646 Q382 673 288 673 Q184 673 146.5 639.5 Q109 606 102 557 L95 503 Q94 499 92.5 498 Q91 497 88 497 L84 497 Q80 497 79.5 499 Q79 501 79 503 L86 557 Q93 614 134.5 651 Q176 688 290 688 Q391 688 427.5 657.5 Q464 627 464 579 Q464 575 464 569.5 Q464 564 463 557 L450 456 Q443 406 412.5 381.5 Q382 357 363 348 L310 322 Q296 315 271.5 295 Q247 275 243 238 L232 151 Q231 148 229.5 146.5 Q228 145 225 145 L221 145 Q217 145 216.5 147 Q216 149 216 151 Z M223 81 L214 6 Q214 3 212 1.5 Q210 0 207 0 L203 0 Q200 0 199 1.5 Q198 3 198 6 L207 80 Q207 83 209 85 Q211 87 214 87 L218 87 Q221 87 222 85.5 Q223 84 223 81 Z " />
<glyph glyph-name="at" unicode="&#x40;" horiz-adv-x="729" d="M507 -96 L316 -96 Q167 -96 112 -63.5 Q57 -31 57 20 Q57 29 58.5 40.5 Q60 52 61 58 L112 469 Q119 526 179.5 563 Q240 600 402 600 Q551 600 606 567.5 Q661 535 661 484 Q661 480 660.5 474 Q660 468 659 462 L619 139 Q613 90 591.5 61.5 Q570 33 524 33 Q492 33 472 50.5 Q452 68 451 99 Q428 82 382 57.5 Q336 33 279 33 Q226 33 202.5 55 Q179 77 179 111 Q179 119 180 126.5 Q181 134 183 144 L229 346 Q240 395 270.5 427 Q301 459 373 459 Q425 459 460.5 436 Q496 413 514 395 L527 445 Q528 448 529.5 449.5 Q531 451 534 451 L536 451 Q538 451 540 449.5 Q542 448 541 445 L472 139 Q471 131 469.5 123 Q468 115 468 108 Q468 80 483 64 Q498 48 526 48 Q561 48 579.5 73 Q598 98 603 139 L643 462 Q644 469 644.5 473.5 Q645 478 645 481 Q645 526 592 555.5 Q539 585 400 585 Q251 585 192.5 551.5 Q134 518 128 469 L76 51 Q75 45 74 37.5 Q73 30 73 23 Q73 -24 125.5 -52.5 Q178 -81 318 -81 L509 -81 Q512 -81 513 -83 Q514 -85 514 -86 L514 -91 Q514 -93 512 -94.5 Q510 -96 507 -96 Z M245 346 L199 144 Q198 136 196.5 129.5 Q195 123 195 116 Q195 86 215.5 67 Q236 48 282 48 Q336 48 384.5 75 Q433 102 452 115 Q453 121 454 126.5 Q455 132 456 139 L509 377 Q496 392 462 418 Q428 444 370 444 Q309 444 281.5 415.5 Q254 387 245 346 Z " />
<glyph glyph-name="A" unicode="A" horiz-adv-x="512" d="M380 247 L315 586 Q312 601 308 621.5 Q304 642 301 658 Q296 643 287 622 Q278 601 273 589 L123 247 L380 247 Z M302 680 L307 680 Q310 680 311.5 678.5 Q313 677 314 674 L442 6 Q443 3 441.5 1.5 Q440 0 438 0 L433 0 Q430 0 428.5 1.5 Q427 3 426 6 L382 232 L116 232 L17 6 Q16 3 14.5 1.5 Q13 0 10 0 L6 0 Q2 0 1 2.5 Q0 5 1 6 L293 674 Q294 677 296.5 678.5 Q299 680 302 680 Z " />
<glyph glyph-name="B" unicode="B" horiz-adv-x="572" d="M266 0 L79 0 Q76 0 74.5 1.5 Q73 3 73 6 L155 674 Q156 677 157.5 678.5 Q159 680 162 680 L325 680 Q426 680 465 648.5 Q504 617 504 569 Q504 565 504 560.5 Q504 556 503 549 L494 477 Q488 432 461.5 400 Q435 368 375 355 Q436 345 462.5 317 Q489 289 489 249 Q489 245 489 241 Q489 237 488 230 L476 131 Q469 74 424.5 37 Q380 0 266 0 Z M323 665 L170 665 L133 361 L301 361 Q395 361 433.5 394.5 Q472 428 478 477 L487 549 Q488 556 488 559.5 Q488 563 488 567 Q488 610 453 637.5 Q418 665 323 665 Z M308 346 L131 346 L90 15 L267 15 Q371 15 412.5 48.5 Q454 82 460 131 L472 230 Q473 237 473 240.5 Q473 244 473 248 Q473 291 438 318.5 Q403 346 308 346 Z " />
<glyph glyph-name="C" unicode="C" horiz-adv-x="539" d="M464 188 L456 123 Q449 66 406 29 Q363 -8 249 -8 Q149 -8 111 22 Q73 52 73 99 Q73 104 73.5 110.5 Q74 117 75 123 L128 557 Q135 614 177.5 651 Q220 688 334 688 Q435 688 472.5 657.5 Q510 627 510 578 Q510 573 510 568 Q510 563 509 557 L502 503 Q501 500 500 498.5 Q499 497 495 497 L491 497 Q489 497 487 498 Q485 499 486 503 L493 557 Q494 562 494 567 Q494 572 494 576 Q494 618 460 645.5 Q426 673 332 673 Q228 673 189 639.5 Q150 606 144 557 L91 123 Q90 118 90 112.5 Q90 107 90 103 Q90 60 123 33.5 Q156 7 250 7 Q354 7 394 40.5 Q434 74 440 123 L448 188 Q449 192 451 193 Q453 194 455 194 L459 194 Q461 194 462.5 192.5 Q464 191 464 188 Z " />
<glyph glyph-name="D" unicode="D" horiz-adv-x="591" d="M266 0 L79 0 Q76 0 74.5 1.5 Q73 3 73 6 L155 674 Q156 677 157.5 678.5 Q159 680 161 680 L349 680 Q450 680 489 649 Q528 618 528 569 Q528 565 528 560.5 Q528 556 527 549 L476 131 Q469 74 424.5 37 Q380 0 266 0 Z M347 665 L170 665 L90 15 L267 15 Q371 15 412.5 48.5 Q454 82 460 131 L511 549 Q512 555 512 559.5 Q512 564 512 567 Q512 610 477 637.5 Q442 665 347 665 Z " />
<glyph glyph-name="E" unicode="E" horiz-adv-x="528" d="M433 0 L78 0 Q76 0 74.5 1.5 Q73 3 73 6 L155 674 Q156 677 157.5 678.5 Q159 680 162 680 L503 680 Q506 680 507 678.5 Q508 677 508 674 L508 671 Q508 668 506 666.5 Q504 665 501 665 L170 665 L134 368 L446 368 Q449 368 450 366.5 Q451 365 451 362 L451 359 Q451 356 449 354.5 Q447 353 444 353 L132 353 L90 15 L434 15 Q437 15 438 13.5 Q439 12 439 9 L439 6 Q439 3 437.5 1.5 Q436 0 433 0 Z " />
<glyph glyph-name="F" unicode="F" horiz-adv-x="539" d="M162 680 L529 680 Q533 680 534 678.5 Q535 677 535 674 L535 671 Q535 668 533 666.5 Q531 665 528 665 L170 665 L133 365 L472 365 Q475 365 476 363.5 Q477 362 477 359 L477 356 Q477 353 475.5 351.5 Q474 350 471 350 L132 350 L89 6 Q89 3 87.5 1.5 Q86 0 83 0 L79 0 Q76 0 74.5 1.5 Q73 3 73 6 L155 674 Q156 677 157.5 678.5 Q159 680 162 680 Z " />
<glyph glyph-name="G" unicode="G" horiz-adv-x="561" d="M298 301 L472 301 Q475 301 476 299.5 Q477 298 477 295 L456 123 Q449 66 406 29 Q363 -8 249 -8 Q149 -8 111 22 Q73 52 73 100 Q73 105 73.5 111 Q74 117 75 123 L128 557 Q135 614 177.5 651 Q220 688 334 688 Q435 688 472.5 657.5 Q510 627 510 578 Q510 573 510 568.5 Q510 564 509 557 L502 503 Q501 499 500 498 Q499 497 495 497 L491 497 Q489 497 487 498.5 Q485 500 486 503 L493 557 Q494 563 494 567.5 Q494 572 494 576 Q494 618 460 645.5 Q426 673 332 673 Q228 673 189 639.5 Q150 606 144 557 L91 123 Q90 116 90 111.5 Q90 107 90 103 Q90 61 123.5 34 Q157 7 250 7 Q354 7 393.5 39.5 Q433 72 439 121 L460 286 L297 286 Q294 286 292.5 287.5 Q291 289 291 292 L291 295 Q291 298 293 299.5 Q295 301 298 301 Z " />
<glyph glyph-name="H" unicode="H" horiz-adv-x="603" d="M172 674 L136 377 L491 377 L527 674 Q528 678 529.5 679 Q531 680 534 680 L538 680 Q541 680 542 678.5 Q543 677 543 674 L461 6 Q460 2 458.5 1 Q457 0 454 0 L450 0 Q448 0 446 1 Q444 2 445 6 L489 362 L134 362 L90 6 Q89 3 88 1.5 Q87 0 83 0 L79 0 Q77 0 75 1 Q73 2 74 6 L156 674 Q157 678 158.5 679 Q160 680 163 680 L167 680 Q170 680 171 678.5 Q172 677 172 674 Z " />
<glyph glyph-name="I" unicode="I" horiz-adv-x="232" d="M172 674 L90 6 Q89 2 88 1 Q87 0 83 0 L79 0 Q77 0 75 1 Q73 2 74 6 L156 674 Q157 678 158.5 679 Q160 680 163 680 L167 680 Q170 680 171 678.5 Q172 677 172 674 Z " />
<glyph glyph-name="J" unicode="J" horiz-adv-x="481" d="M38 155 L34 123 Q33 117 32.5 111 Q32 105 32 99 Q32 59 60.5 33 Q89 7 172 7 Q266 7 299.5 40.5 Q333 74 339 123 L407 674 Q408 677 409 678.5 Q410 680 414 680 L418 680 Q420 680 421.5 678.5 Q423 677 423 674 L355 123 Q348 66 311 29 Q274 -8 170 -8 Q81 -8 48.5 21.5 Q16 51 16 98 Q16 104 16.5 110 Q17 116 18 123 L22 155 Q23 159 24.5 160 Q26 161 29 161 L33 161 Q36 161 37 159.5 Q38 158 38 155 Z " />
<glyph glyph-name="K" unicode="K" horiz-adv-x="521" d="M189 344 L460 6 Q461 4 460 2 Q459 0 457 0 L452 0 Q448 0 445.5 1 Q443 2 440 6 L175 335 L131 335 L90 6 Q89 3 88 1.5 Q87 0 84 0 L80 0 Q77 0 75 1 Q73 2 74 6 L156 674 Q157 678 158.5 679 Q160 680 163 680 L167 680 Q170 680 171 678.5 Q172 677 172 674 L133 350 L174 350 L492 675 Q494 677 496.5 678.5 Q499 680 503 680 L510 680 Q513 680 514 678.5 Q515 677 512 674 L189 344 Z " />
<glyph glyph-name="L" unicode="L" horiz-adv-x="481" d="M171 674 L90 15 L419 15 Q422 15 423 13.5 Q424 12 424 9 L424 6 Q424 3 422.5 1.5 Q421 0 418 0 L78 0 Q76 0 74.5 1.5 Q73 3 73 6 L155 674 Q155 677 157 678.5 Q159 680 161 680 L165 680 Q169 680 170.5 679 Q172 678 171 674 Z " />
<glyph glyph-name="M" unicode="M" horiz-adv-x="708" d="M647 674 L565 6 Q565 3 563.5 1.5 Q562 0 559 0 L555 0 Q552 0 550.5 1.5 Q549 3 549 6 L627 639 Q624 632 619.5 622.5 Q615 613 610 603 L344 110 Q343 107 340.5 105.5 Q338 104 335 104 L327 104 Q324 104 322.5 105.5 Q321 107 320 110 L173 606 Q172 608 169.5 618 Q167 628 166 638 L88 6 Q88 3 86.5 1.5 Q85 0 82 0 L79 0 Q76 0 74.5 1.5 Q73 3 73 6 L155 674 Q155 675 156.5 677.5 Q158 680 161 680 L163 680 Q165 680 166.5 679 Q168 678 169 676 L324 155 Q326 148 329 136 Q332 124 333 119 Q336 126 341 136 Q346 146 350 155 L631 676 Q632 678 634 679 Q636 680 637 680 L642 680 Q645 680 646 678.5 Q647 677 647 674 Z " />
<glyph glyph-name="N" unicode="N" horiz-adv-x="601" d="M540 674 L458 6 Q458 3 456.5 1.5 Q455 0 451 0 L449 0 Q448 0 446.5 1 Q445 2 444 3 L188 593 Q184 603 177.5 618 Q171 633 167 645 L88 6 Q87 3 86 1.5 Q85 0 81 0 L78 0 Q76 0 74.5 1.5 Q73 3 73 6 L155 674 Q156 678 157.5 679 Q159 680 162 680 L163 680 Q165 680 166 679 Q167 678 168 677 L425 87 Q429 79 436 62 Q443 45 447 36 L525 674 Q525 677 527 678.5 Q529 680 531 680 L534 680 Q538 680 539 678.5 Q540 677 540 674 Z " />
<glyph glyph-name="O" unicode="O" horiz-adv-x="579" d="M75 123 L128 557 Q135 614 179 651 Q223 688 337 688 Q438 688 477 657 Q516 626 516 577 Q516 572 516 568 Q516 564 515 557 L462 123 Q455 66 410.5 29 Q366 -8 252 -8 Q151 -8 112 22.5 Q73 53 73 101 Q73 106 73.5 111.5 Q74 117 75 123 Z M446 123 L499 557 Q500 564 500 567.5 Q500 571 500 575 Q500 618 465 645.5 Q430 673 335 673 Q231 673 190.5 639.5 Q150 606 144 557 L91 123 Q90 119 90 113.5 Q90 108 90 104 Q90 62 124 34.5 Q158 7 253 7 Q357 7 398.5 40.5 Q440 74 446 123 Z " />
<glyph glyph-name="P" unicode="P" horiz-adv-x="560" d="M300 282 L123 282 L89 6 Q88 3 87 1.5 Q86 0 82 0 L78 0 Q76 0 74.5 1.5 Q73 3 73 6 L155 674 Q156 677 157.5 678.5 Q159 680 161 680 L349 680 Q450 680 489 647.5 Q528 615 528 566 Q528 561 528 557 Q528 553 527 546 L510 410 Q503 353 458.5 317.5 Q414 282 300 282 Z M347 665 L170 665 L125 297 L302 297 Q406 297 447 329 Q488 361 494 410 L511 546 Q512 553 512 556.5 Q512 560 512 564 Q512 607 477 636 Q442 665 347 665 Z " />
<glyph glyph-name="Q" unicode="Q" horiz-adv-x="579" d="M424 -167 Q423 -168 420.5 -168.5 Q418 -169 416 -167 L265 -8 L252 -8 Q151 -8 112 22.5 Q73 53 73 101 Q73 105 73.5 111 Q74 117 75 123 L128 557 Q135 614 179 651 Q223 688 337 688 Q438 688 477 657 Q516 626 516 577 Q516 573 516 568.5 Q516 564 515 557 L462 123 Q456 71 418 35 Q380 -1 286 -7 L428 -156 Q430 -158 430 -160 Q430 -162 427 -164 L424 -167 Z M446 123 L499 557 Q500 564 500 568 Q500 572 500 575 Q500 618 465 645.5 Q430 673 335 673 Q231 673 190.5 639.5 Q150 606 144 557 L91 123 Q90 118 90 113 Q90 108 90 104 Q90 61 124.5 34 Q159 7 253 7 Q357 7 398.5 40.5 Q440 74 446 123 Z " />
<glyph glyph-name="R" unicode="R" horiz-adv-x="579" d="M347 665 L170 665 L126 307 L303 307 Q407 307 448.5 339 Q490 371 496 420 L511 546 Q512 552 512 556.5 Q512 561 512 564 Q512 607 477 636 Q442 665 347 665 Z M89 6 Q89 3 87.5 1.5 Q86 0 83 0 L79 0 Q76 0 74.5 1.5 Q73 3 73 6 L155 674 Q156 677 157.5 678.5 Q159 680 161 680 L349 680 Q450 680 489 647.5 Q528 615 528 566 Q528 562 528 557.5 Q528 553 527 546 L512 420 Q506 371 473 337.5 Q440 304 359 295 L474 6 Q475 4 474 2 Q473 0 469 0 L465 0 Q461 0 458.5 2 Q456 4 455 6 L342 293 Q332 292 322 292 Q312 292 301 292 L124 292 L89 6 Z " />
<glyph glyph-name="S" unicode="S" horiz-adv-x="541" d="M468 504 L474 557 Q475 564 475 568.5 Q475 573 475 577 Q475 619 442 646 Q409 673 316 673 Q212 673 173.5 639.5 Q135 606 129 557 L123 506 Q122 499 122 496.5 Q122 494 122 492 Q122 456 142.5 436 Q163 416 185 407 L375 330 Q403 319 428.5 294 Q454 269 454 228 Q454 225 454 222.5 Q454 220 453 214 L442 123 Q435 66 390.5 29 Q346 -8 232 -8 Q132 -8 92.5 22.5 Q53 53 53 101 Q53 106 53.5 111.5 Q54 117 55 123 L61 170 Q62 173 63 174.5 Q64 176 68 176 L72 176 Q74 176 75.5 174 Q77 172 77 170 L71 123 Q70 119 70 113 Q70 107 70 103 Q70 62 103.5 34.5 Q137 7 233 7 Q337 7 378.5 40.5 Q420 74 426 123 L437 214 Q438 220 438 222 Q438 224 438 227 Q438 264 415 285 Q392 306 367 316 L177 393 Q153 403 129.5 426.5 Q106 450 106 491 Q106 494 106 497 Q106 500 107 506 L113 557 Q120 614 161.5 651 Q203 688 318 688 Q417 688 454 657.5 Q491 627 491 579 Q491 575 491 569.5 Q491 564 490 557 L484 504 Q484 501 482 499.5 Q480 498 478 498 L474 498 Q471 498 469 499 Q467 500 468 504 Z " />
<glyph glyph-name="T" unicode="T" horiz-adv-x="483" d="M81 680 L494 680 Q497 680 498.5 678.5 Q500 677 500 674 L500 671 Q500 668 498 666.5 Q496 665 493 665 L294 665 L213 6 Q212 2 211 1 Q210 0 206 0 L202 0 Q200 0 198.5 1.5 Q197 3 197 6 L278 665 L80 665 Q77 665 75.5 666.5 Q74 668 74 671 L74 674 Q74 677 76 678.5 Q78 680 81 680 Z " />
<glyph glyph-name="U" unicode="U" horiz-adv-x="596" d="M168 674 L100 123 Q99 116 99 112.5 Q99 109 99 105 Q99 62 134 34.5 Q169 7 263 7 Q367 7 408 40.5 Q449 74 455 123 L523 674 Q524 677 525 678.5 Q526 680 530 680 L534 680 Q536 680 537.5 678.5 Q539 677 539 674 L471 123 Q464 66 420 29 Q376 -8 261 -8 Q160 -8 121.5 23 Q83 54 83 103 Q83 107 83 111.5 Q83 116 84 123 L152 674 Q153 678 154 679 Q155 680 159 680 L163 680 Q165 680 166.5 678.5 Q168 677 168 674 Z " />
<glyph glyph-name="V" unicode="V" horiz-adv-x="512" d="M219 0 Q216 0 214 1.5 Q212 3 211 6 L83 674 Q82 678 84 679 Q86 680 89 680 L93 680 Q96 680 97 678.5 Q98 677 99 674 L211 94 Q213 83 217 60.5 Q221 38 223 22 Q228 35 237.5 57 Q247 79 252 91 L507 674 Q508 677 510 678.5 Q512 680 515 680 L520 680 Q523 680 524 679 Q525 678 524 674 L232 6 Q231 3 229 1.5 Q227 0 224 0 L219 0 Z " />
<glyph glyph-name="W" unicode="W" horiz-adv-x="790" d="M452 674 L530 92 Q532 74 534 60 Q536 46 537 30 Q543 47 548 61 Q553 75 560 92 L780 674 Q781 678 783 679 Q785 680 788 680 L793 680 Q796 680 797 679 Q798 678 797 674 L545 6 Q544 3 542 1.5 Q540 0 537 0 L532 0 Q529 0 527 1.5 Q525 3 524 6 L447 595 Q446 605 444 617.5 Q442 630 440 648 Q435 633 430 620 Q425 607 421 595 L198 6 Q197 3 195 1.5 Q193 0 190 0 L185 0 Q182 0 180 1.5 Q178 3 177 6 L89 674 Q88 678 90 679 Q92 680 96 680 L100 680 Q102 680 103 678.5 Q104 677 105 674 L183 92 Q184 80 186.5 59.5 Q189 39 190 28 Q197 45 203.5 62 Q210 79 214 92 L434 674 Q435 677 437 678.5 Q439 680 441 680 L445 680 Q449 680 450 678.5 Q451 677 452 674 Z " />
<glyph glyph-name="X" unicode="X" horiz-adv-x="507" d="M272 342 L432 6 Q433 3 432.5 1.5 Q432 0 428 0 L423 0 Q419 0 416.5 1.5 Q414 3 413 6 L260 327 L29 6 Q28 4 25.5 2 Q23 0 19 0 L13 0 Q11 0 9.5 1.5 Q8 3 10 6 L252 343 L94 674 Q93 676 94 678 Q95 680 98 680 L104 680 Q107 680 109 678.5 Q111 677 112 674 L264 357 L485 674 Q487 677 489.5 678.5 Q492 680 495 680 L502 680 Q505 680 505.5 678.5 Q506 677 504 674 L272 342 Z " />
<glyph glyph-name="Y" unicode="Y" horiz-adv-x="502" d="M94 674 L243 330 Q245 326 248.5 318 Q252 310 253 305 Q256 311 260 317 Q264 323 268 330 L500 674 Q502 677 504 678.5 Q506 680 509 680 L515 680 Q518 680 519 679 Q520 678 518 674 L259 292 L224 6 Q223 2 222 1 Q221 0 217 0 L213 0 Q211 0 209.5 1.5 Q208 3 208 6 L243 291 L77 674 Q76 678 77.5 679 Q79 680 82 680 L87 680 Q90 680 91.5 679 Q93 678 94 674 Z " />
<glyph glyph-name="Z" unicode="Z" horiz-adv-x="459" d="M107 680 L450 680 Q453 680 454 678.5 Q455 677 455 675 L455 672 Q455 671 454.5 669 Q454 667 453 665 L22 15 L383 15 Q386 15 387 13.5 Q388 12 388 9 L388 6 Q388 3 386.5 1.5 Q385 0 382 0 L6 0 Q3 0 1.5 1.5 Q0 3 0 5 L0 7 Q0 9 1.5 11.5 Q3 14 4 16 L433 665 L105 665 Q103 665 101.5 666.5 Q100 668 100 671 L100 674 Q100 677 102 678.5 Q104 680 107 680 Z " />
<glyph glyph-name="bracketleft" unicode="&#x5b;" horiz-adv-x="281" d="M32 -205 L143 693 Q144 697 146 698 Q148 699 150 699 L299 699 Q302 699 303 697.5 Q304 696 304 693 L304 690 Q304 687 302.5 685.5 Q301 684 298 684 L158 684 L49 -196 L189 -196 Q192 -196 193 -197.5 Q194 -199 194 -202 L194 -205 Q194 -208 192.5 -209.5 Q191 -211 188 -211 L38 -211 Q36 -211 33.5 -210 Q31 -209 32 -205 Z " />
<glyph glyph-name="backslash" unicode="&#x5c;" horiz-adv-x="335" d="M221 -142 L94 693 Q94 695 94.5 697 Q95 699 99 699 L102 699 Q105 699 107 698 Q109 697 110 693 L237 -141 Q238 -144 236.5 -146 Q235 -148 232 -148 L228 -148 Q225 -148 223.5 -146.5 Q222 -145 221 -142 Z " />
<glyph glyph-name="bracketright" unicode="&#x5d;" horiz-adv-x="282" d="M238 693 L127 -205 Q126 -209 124 -210 Q122 -211 120 -211 L-29 -211 Q-32 -211 -33 -209.5 Q-34 -208 -34 -205 L-34 -202 Q-34 -199 -32.5 -197.5 Q-31 -196 -28 -196 L112 -196 L221 684 L81 684 Q78 684 77 685.5 Q76 687 76 690 L76 693 Q76 696 77.5 697.5 Q79 699 82 699 L232 699 Q234 699 236.5 698 Q239 697 238 693 Z " />
<glyph glyph-name="asciicircum" unicode="&#x5e;" horiz-adv-x="468" d="M400 325 L243 662 L86 325 Q85 322 83 320.5 Q81 319 79 319 L73 319 Q70 319 69.5 321 Q69 323 70 325 L234 674 Q235 677 236.5 678.5 Q238 680 241 680 L245 680 Q247 680 249 678.5 Q251 677 252 674 L416 325 Q417 323 416.5 321 Q416 319 413 319 L407 319 Q405 319 403 320.5 Q401 322 400 325 Z " />
<glyph glyph-name="underscore" unicode="&#x5f;" horiz-adv-x="366" d="M-42 -94 L311 -94 Q314 -94 315.5 -95.5 Q317 -97 317 -100 L317 -103 Q317 -106 315.5 -107.5 Q314 -109 311 -109 L-42 -109 Q-45 -109 -46.5 -107.5 Q-48 -106 -48 -103 L-48 -100 Q-48 -97 -46.5 -95.5 Q-45 -94 -42 -94 Z " />
<glyph glyph-name="grave" unicode="&#x60;" horiz-adv-x="346" d="M277 577 L208 702 Q207 703 207.5 705.5 Q208 708 212 708 L218 708 Q221 708 222.5 706.5 Q224 705 225 704 L291 579 Q292 577 291.5 575.5 Q291 574 289 574 L284 574 Q281 574 279.5 575 Q278 576 277 577 Z " />
<glyph glyph-name="a" unicode="a" horiz-adv-x="510" d="M112 386 L77 104 Q76 98 76 95.5 Q76 93 76 90 Q76 54 102 30.5 Q128 7 183 7 Q252 7 302 33 Q352 59 371 73 L414 416 Q398 431 355 457 Q312 483 242 483 Q182 483 149.5 455 Q117 427 112 386 Z M369 55 Q345 38 296 15 Q247 -8 181 -8 Q119 -8 89.5 18.5 Q60 45 60 87 Q60 91 60 94 Q60 97 61 104 L96 386 Q102 435 137.5 466.5 Q173 498 244 498 Q308 498 352 475 Q396 452 416 434 L424 484 Q425 487 426 488.5 Q427 490 431 490 L433 490 Q436 490 437 488.5 Q438 487 438 484 L379 6 Q378 3 376.5 1.5 Q375 0 372 0 L370 0 Q367 0 366 1.5 Q365 3 365 6 L369 55 Z " />
<glyph glyph-name="b" unicode="b" horiz-adv-x="510" d="M67 0 L65 0 Q62 0 61 1.5 Q60 3 60 6 L144 693 Q145 697 146.5 698 Q148 699 151 699 L155 699 Q159 699 159.5 697 Q160 695 160 693 L129 434 Q153 452 201.5 475 Q250 498 316 498 Q378 498 408 471.5 Q438 445 438 402 Q438 399 438 396 Q438 393 437 386 L402 104 Q396 55 360.5 23.5 Q325 -8 254 -8 Q189 -8 145 15 Q101 38 81 55 L74 6 Q73 2 71.5 1 Q70 0 67 0 Z M386 104 L421 386 Q422 392 422 394.5 Q422 397 422 400 Q422 436 396 459.5 Q370 483 315 483 Q246 483 195.5 457 Q145 431 126 416 L84 73 Q100 59 142.5 33 Q185 7 256 7 Q316 7 348.5 35 Q381 63 386 104 Z " />
<glyph glyph-name="c" unicode="c" horiz-adv-x="470" d="M272 498 Q357 498 389 472 Q421 446 421 405 Q421 401 421 397 Q421 393 420 386 L417 365 Q416 362 415 360.5 Q414 359 410 359 L406 359 Q404 359 402 360.5 Q400 362 401 365 L404 386 Q405 392 405 395 Q405 398 405 402 Q405 437 376.5 460 Q348 483 270 483 Q183 483 150 455 Q117 427 112 386 L77 104 Q76 98 76 94.5 Q76 91 76 87 Q76 53 104.5 30 Q133 7 211 7 Q298 7 330.5 35 Q363 63 369 104 L373 133 Q374 136 375.5 137.5 Q377 139 380 139 L384 139 Q387 139 388.5 137.5 Q390 136 389 133 L385 104 Q378 55 343 23.5 Q308 -8 209 -8 Q124 -8 92 18 Q60 44 60 85 Q60 89 60 93 Q60 97 61 104 L96 386 Q102 435 138 466.5 Q174 498 272 498 Z " />
<glyph glyph-name="d" unicode="d" horiz-adv-x="509" d="M112 386 L77 104 Q76 97 76 94.5 Q76 92 76 90 Q76 54 102 30.5 Q128 7 183 7 Q252 7 302 33 Q352 59 371 73 L413 416 Q398 431 354.5 457 Q311 483 242 483 Q181 483 149 455 Q117 427 112 386 Z M369 55 Q345 38 296 15 Q247 -8 181 -8 Q119 -8 89.5 18.5 Q60 45 60 87 Q60 91 60 94 Q60 97 61 104 L96 386 Q102 435 137 466.5 Q172 498 243 498 Q309 498 352.5 475 Q396 452 416 434 L447 693 Q447 696 449 697.5 Q451 699 454 699 L458 699 Q460 699 462 698 Q464 697 463 693 L379 6 Q379 3 377 1.5 Q375 0 372 0 L370 0 Q367 0 366 1.5 Q365 3 365 6 L369 55 Z " />
<glyph glyph-name="e" unicode="e" horiz-adv-x="491" d="M425 386 L409 260 Q408 257 407 255.5 Q406 254 403 254 L95 254 L76 104 Q75 97 75 94 Q75 91 75 89 Q75 53 104.5 30 Q134 7 213 7 Q300 7 334 35 Q368 63 374 104 L378 133 Q379 136 380.5 137.5 Q382 139 385 139 L389 139 Q392 139 393.5 137.5 Q395 136 394 133 L390 104 Q383 55 346.5 23.5 Q310 -8 211 -8 Q125 -8 92 18.5 Q59 45 59 86 Q59 89 59 93 Q59 97 60 104 L95 386 Q101 435 138.5 466.5 Q176 498 274 498 Q360 498 393 471.5 Q426 445 426 404 Q426 400 426 396 Q426 392 425 386 Z M111 386 L96 269 L394 269 L409 386 Q410 393 410 395.5 Q410 398 410 401 Q410 436 380.5 459.5 Q351 483 272 483 Q185 483 150.5 455 Q116 427 111 386 Z " />
<glyph glyph-name="f" unicode="f" horiz-adv-x="284" d="M131 489 L144 591 Q150 640 187 671.5 Q224 703 321 703 L324 703 Q327 703 328 701.5 Q329 700 329 697 L329 694 Q329 690 327 689 Q325 688 322 688 L319 688 Q232 688 198.5 660 Q165 632 160 591 L147 489 L278 489 Q281 489 282.5 487.5 Q284 486 284 483 L284 480 Q284 477 282 475.5 Q280 474 277 474 L146 474 L62 -205 Q62 -208 60 -209.5 Q58 -211 55 -211 L51 -211 Q48 -211 47 -209.5 Q46 -208 46 -205 L130 474 L60 474 Q57 474 55.5 475.5 Q54 477 54 480 L54 481 Q54 484 56 485.5 Q58 487 61 487 L118 489 L131 489 Z " />
<glyph glyph-name="g" unicode="g" horiz-adv-x="510" d="M182 -8 Q119 -8 89.5 19 Q60 46 60 89 Q60 92 60 95 Q60 98 61 104 L96 386 Q102 435 137.5 466.5 Q173 498 244 498 Q309 498 353 475 Q397 452 416 434 L424 484 Q425 488 426.5 489 Q428 490 431 490 L433 490 Q437 490 437.5 488 Q438 486 438 484 L367 -99 Q361 -148 324.5 -179.5 Q288 -211 190 -211 L58 -211 Q55 -211 54 -209.5 Q53 -208 53 -205 L53 -202 Q53 -199 55 -197.5 Q57 -196 60 -196 L192 -196 Q279 -196 313 -168 Q347 -140 351 -99 L369 55 Q345 37 296.5 14.5 Q248 -8 182 -8 Z M112 386 L77 104 Q76 98 76 95.5 Q76 93 76 91 Q76 54 102 30.5 Q128 7 184 7 Q253 7 303 33 Q353 59 372 73 L414 416 Q398 431 354.5 457 Q311 483 242 483 Q182 483 149.5 455 Q117 427 112 386 Z " />
<glyph glyph-name="h" unicode="h" horiz-adv-x="517" d="M161 693 L129 434 Q153 452 202 475 Q251 498 317 498 Q380 498 409 471.5 Q438 445 438 403 Q438 399 438 396 Q438 393 437 386 L391 6 Q391 3 389 1.5 Q387 0 384 0 L380 0 Q378 0 376 1 Q374 2 375 6 L421 386 Q422 392 422 395 Q422 398 422 400 Q422 436 396 459.5 Q370 483 315 483 Q246 483 196 457 Q146 431 127 416 L77 6 Q77 3 75 1.5 Q73 0 70 0 L66 0 Q64 0 62 1 Q60 2 61 6 L145 693 Q146 696 147.5 697.5 Q149 699 152 699 L156 699 Q158 699 160 698 Q162 697 161 693 Z " />
<glyph glyph-name="i" unicode="i" horiz-adv-x="206" d="M161 693 L149 594 Q149 591 147 589.5 Q145 588 142 588 L138 588 Q135 588 134 589.5 Q133 591 133 594 L145 693 Q145 696 147 697.5 Q149 699 152 699 L156 699 Q158 699 160 698 Q162 697 161 693 Z M136 484 L77 6 Q76 3 74.5 1.5 Q73 0 70 0 L66 0 Q64 0 62 1 Q60 2 61 6 L120 484 Q120 486 121.5 488 Q123 490 126 490 L130 490 Q133 490 134.5 488.5 Q136 487 136 484 Z " />
<glyph glyph-name="j" unicode="j" horiz-adv-x="207" d="M160 693 L148 594 Q148 591 146 589.5 Q144 588 141 588 L137 588 Q134 588 133 589.5 Q132 591 132 594 L144 693 Q144 696 146 697.5 Q148 699 151 699 L155 699 Q157 699 159 698 Q161 697 160 693 Z M135 484 L63 -99 Q57 -148 20.5 -179.5 Q-16 -211 -112 -211 L-115 -211 Q-118 -211 -119 -209.5 Q-120 -208 -120 -205 L-120 -202 Q-120 -199 -118.5 -197.5 Q-117 -196 -114 -196 L-111 -196 Q-26 -196 8 -168 Q42 -140 47 -99 L119 484 Q119 486 120.5 488 Q122 490 126 490 L130 490 Q133 490 134 488 Q135 486 135 484 Z " />
<glyph glyph-name="k" unicode="k" horiz-adv-x="433" d="M69 0 L65 0 Q61 0 60.5 2 Q60 4 60 6 L144 693 Q145 696 146.5 697.5 Q148 699 151 699 L155 699 Q159 699 159.5 697 Q160 695 160 693 L110 284 L151 284 L385 485 Q389 488 391 489 Q393 490 396 490 L404 490 Q408 490 408 487.5 Q408 485 407 484 L167 278 L379 6 Q381 4 379.5 2 Q378 0 376 0 L370 0 Q366 0 363.5 1 Q361 2 358 6 L153 269 L108 269 L76 6 Q76 3 74 1.5 Q72 0 69 0 Z " />
<glyph glyph-name="l" unicode="l" horiz-adv-x="206" d="M160 693 L76 6 Q76 4 74.5 2 Q73 0 70 0 L65 0 Q62 0 61 1.5 Q60 3 60 6 L144 693 Q145 696 146.5 697.5 Q148 699 151 699 L155 699 Q158 699 159 697.5 Q160 696 160 693 Z " />
<glyph glyph-name="m" unicode="m" horiz-adv-x="820" d="M61 6 L120 484 Q120 486 121.5 488 Q123 490 126 490 L128 490 Q131 490 132.5 488.5 Q134 487 134 484 L129 435 Q151 452 198 475 Q245 498 311 498 Q362 498 392.5 479 Q423 460 430 429 Q451 445 499 471.5 Q547 498 619 498 Q682 498 711.5 471.5 Q741 445 741 403 Q741 399 741 395.5 Q741 392 740 386 L693 6 Q693 4 691.5 2 Q690 0 687 0 L682 0 Q680 0 678 1 Q676 2 677 6 L724 386 Q725 392 725 394 Q725 396 725 399 Q725 435 699.5 459 Q674 483 618 483 Q547 483 497.5 455 Q448 427 432 414 Q433 408 433 401 Q433 394 432 386 L385 6 Q384 3 383 1.5 Q382 0 379 0 L374 0 Q372 0 370 1 Q368 2 369 6 L415 378 Q416 384 416.5 390 Q417 396 417 399 Q417 435 391.5 459 Q366 483 310 483 Q241 483 193.5 457 Q146 431 127 416 L77 6 Q77 4 75.5 2 Q74 0 71 0 L66 0 Q64 0 62 1 Q60 2 61 6 Z " />
<glyph glyph-name="n" unicode="n" horiz-adv-x="517" d="M126 490 L128 490 Q131 490 132.5 488.5 Q134 487 134 484 L129 434 Q153 452 202 475 Q251 498 317 498 Q380 498 409.5 471.5 Q439 445 439 403 Q439 399 439 395.5 Q439 392 438 386 L391 6 Q390 3 388.5 1.5 Q387 0 384 0 L380 0 Q378 0 376 1 Q374 2 375 6 L422 386 Q423 392 423 394 Q423 396 423 399 Q423 435 397.5 459 Q372 483 316 483 Q247 483 196.5 457 Q146 431 127 416 L77 6 Q77 3 75 1.5 Q73 0 70 0 L66 0 Q64 0 62 1 Q60 2 61 6 L120 484 Q120 487 121.5 488.5 Q123 490 126 490 Z " />
<glyph glyph-name="o" unicode="o" horiz-adv-x="497" d="M60 104 L95 386 Q101 435 138.5 466.5 Q176 498 274 498 Q360 498 393 471.5 Q426 445 426 404 Q426 400 426 396 Q426 392 425 386 L390 104 Q384 55 346.5 23.5 Q309 -8 211 -8 Q125 -8 92 18.5 Q59 45 59 86 Q59 89 59 93 Q59 97 60 104 Z M374 104 L409 386 Q410 392 410 394.5 Q410 397 410 401 Q410 436 380.5 459.5 Q351 483 272 483 Q185 483 150.5 455 Q116 427 111 386 L76 104 Q75 97 75 94 Q75 91 75 89 Q75 53 104.5 30 Q134 7 213 7 Q300 7 334.5 35 Q369 63 374 104 Z " />
<glyph glyph-name="p" unicode="p" horiz-adv-x="509" d="M386 104 L421 386 Q422 392 422 394.5 Q422 397 422 400 Q422 436 396 459.5 Q370 483 315 483 Q246 483 196 457 Q146 431 127 416 L85 73 Q100 59 143 33 Q186 7 257 7 Q317 7 349 35 Q381 63 386 104 Z M126 490 L128 490 Q130 490 131.5 489 Q133 488 133 484 L128 434 Q153 452 202 475 Q251 498 317 498 Q379 498 408.5 471.5 Q438 445 438 403 Q438 399 438 396 Q438 393 437 386 L402 104 Q396 55 361 23.5 Q326 -8 255 -8 Q191 -8 146.5 14.5 Q102 37 82 55 L51 -205 Q51 -208 49 -209.5 Q47 -211 44 -211 L40 -211 Q38 -211 36 -210 Q34 -209 35 -205 L119 484 Q119 487 121 488.5 Q123 490 126 490 Z " />
<glyph glyph-name="q" unicode="q" horiz-adv-x="510" d="M431 490 L433 490 Q437 490 437.5 488 Q438 486 438 484 L354 -205 Q354 -208 352 -209.5 Q350 -211 347 -211 L343 -211 Q339 -211 338.5 -209 Q338 -207 338 -205 L369 55 Q345 37 296.5 14.5 Q248 -8 182 -8 Q119 -8 89.5 19 Q60 46 60 89 Q60 91 60 94.5 Q60 98 61 104 L96 386 Q102 435 137.5 466.5 Q173 498 244 498 Q310 498 353.5 475 Q397 452 416 434 L424 484 Q425 487 426.5 488.5 Q428 490 431 490 Z M112 386 L77 104 Q76 98 76 95 Q76 92 76 91 Q76 54 102 30.5 Q128 7 184 7 Q253 7 303 33 Q353 59 372 73 L414 416 Q398 431 355.5 457 Q313 483 242 483 Q182 483 149.5 455 Q117 427 112 386 Z " />
<glyph glyph-name="r" unicode="r" horiz-adv-x="320" d="M316 497 Q320 497 321 495.5 Q322 494 322 491 L322 485 Q322 482 319.5 481.5 Q317 481 314 481 Q259 481 203.5 451.5 Q148 422 126 406 L77 6 Q77 4 75.5 2 Q74 0 70 0 L66 0 Q64 0 62 1 Q60 2 61 6 L120 484 Q121 487 122 488.5 Q123 490 126 490 L128 490 Q131 490 132.5 488.5 Q134 487 134 484 L128 422 Q153 441 206 469 Q259 497 316 497 Z " />
<glyph glyph-name="s" unicode="s" horiz-adv-x="468" d="M383 364 L387 393 Q388 400 388 404 Q388 408 388 413 Q388 440 358.5 462 Q329 484 255 484 Q178 484 142.5 460 Q107 436 103 401 L98 359 Q97 353 97 349.5 Q97 346 97 344 Q97 321 114.5 305.5 Q132 290 156 283 L313 237 Q344 228 363 211 Q382 194 382 167 Q382 161 381.5 156 Q381 151 381 151 L374 90 Q370 48 326 20 Q282 -8 195 -8 Q117 -8 80 17 Q43 42 43 79 Q43 81 43 84 Q43 87 44 94 L47 121 Q47 124 49 125 Q51 126 54 126 L59 126 Q60 126 62 125.5 Q64 125 63 121 L60 95 Q59 88 59 85.5 Q59 83 59 82 Q59 48 92.5 27.5 Q126 7 197 7 Q275 7 314.5 31 Q354 55 358 91 L365 150 Q365 151 365.5 155.5 Q366 160 366 165 Q366 191 346.5 203 Q327 215 304 222 L147 269 Q124 276 102 295 Q80 314 80 343 Q80 345 80 349 Q80 353 81 358 L87 401 Q93 443 131.5 470.5 Q170 498 257 498 Q333 498 368.5 473.5 Q404 449 404 414 Q404 408 404 404.5 Q404 401 403 394 L399 364 Q399 362 397.5 360.5 Q396 359 393 359 L388 359 Q386 359 384.5 360.5 Q383 362 383 364 Z " />
<glyph glyph-name="t" unicode="t" horiz-adv-x="297" d="M143 474 L99 112 Q98 105 98 102.5 Q98 100 98 96 Q98 61 127 38 Q156 15 234 15 L247 15 Q250 15 251 13.5 Q252 12 252 9 L252 6 Q252 3 250 1.5 Q248 0 245 0 L232 0 Q146 0 114 26 Q82 52 82 93 Q82 97 82 101 Q82 105 83 112 L127 474 L57 474 Q54 474 53 475.5 Q52 477 52 480 L52 481 Q52 484 54 485.5 Q56 487 59 487 L128 489 L129 489 L143 603 Q143 606 145 607.5 Q147 609 150 609 L154 609 Q157 609 158 607.5 Q159 606 159 603 L145 489 L276 489 Q279 489 280 487.5 Q281 486 281 483 L281 479 Q281 476 279 475 Q277 474 274 474 L143 474 Z " />
<glyph glyph-name="u" unicode="u" horiz-adv-x="512" d="M367 6 L371 55 Q349 37 302.5 14.5 Q256 -8 190 -8 Q127 -8 97.5 18.5 Q68 45 68 87 Q68 90 68 94.5 Q68 99 69 104 L116 484 Q117 487 118.5 488.5 Q120 490 123 490 L127 490 Q129 490 131 489 Q133 488 132 484 L85 104 Q84 98 84 96 Q84 94 84 91 Q84 54 109.5 30.5 Q135 7 192 7 Q261 7 308 32.5 Q355 58 374 73 L424 484 Q424 487 426 488.5 Q428 490 431 490 L435 490 Q437 490 439 489 Q441 488 440 484 L381 6 Q381 4 380 2 Q379 0 375 0 L372 0 Q370 0 368.5 1.5 Q367 3 367 6 Z " />
<glyph glyph-name="v" unicode="v" horiz-adv-x="419" d="M175 0 L171 0 Q169 0 167.5 1.5 Q166 3 165 6 L60 483 Q60 484 60 487 Q60 490 64 490 L70 490 Q72 490 73.5 488.5 Q75 487 76 484 L170 63 Q171 56 173.5 46 Q176 36 177 27 Q180 34 184 44 Q188 54 192 62 L389 484 Q390 487 392.5 488.5 Q395 490 397 490 L402 490 Q406 490 406.5 488 Q407 486 406 484 L183 6 Q182 3 179.5 1.5 Q177 0 175 0 Z " />
<glyph glyph-name="w" unicode="w" horiz-adv-x="631" d="M607 490 L613 490 Q616 490 616.5 487.5 Q617 485 616 484 L425 6 Q424 3 421.5 1.5 Q419 0 417 0 L413 0 Q411 0 409.5 1.5 Q408 3 407 6 L343 430 Q342 440 340.5 451 Q339 462 338 474 Q334 464 328.5 449 Q323 434 321 429 L150 6 Q149 3 146.5 1.5 Q144 0 142 0 L138 0 Q136 0 134.5 1.5 Q133 3 132 6 L62 484 Q62 486 63 488 Q64 490 67 490 L73 490 Q75 490 76.5 488.5 Q78 487 79 484 L141 63 Q142 55 143.5 45 Q145 35 146 27 Q149 37 152 46.5 Q155 56 158 63 L326 484 Q327 487 329.5 488.5 Q332 490 334 490 L346 490 Q348 490 349.5 488.5 Q351 487 352 484 L414 63 Q415 55 416.5 45.5 Q418 36 419 29 Q422 39 425 47.5 Q428 56 431 63 L599 484 Q600 487 602 488.5 Q604 490 607 490 Z " />
<glyph glyph-name="x" unicode="x" horiz-adv-x="440" d="M81 490 Q84 490 86 488 Q88 486 89 484 L218 262 L394 484 Q395 486 398 488 Q401 490 404 490 L413 490 Q416 490 415.5 487.5 Q415 485 414 484 L225 248 L363 8 Q364 5 364 2.5 Q364 0 360 0 L354 0 Q350 0 348 2 Q346 4 345 6 L213 235 L28 6 Q27 4 24 2 Q21 0 17 0 L10 0 Q7 0 6.5 2 Q6 4 7 6 L205 249 L70 484 Q69 485 69.5 487.5 Q70 490 74 490 L81 490 Z " />
<glyph glyph-name="y" unicode="y" horiz-adv-x="419" d="M407 484 L87 -205 Q86 -208 83.5 -209.5 Q81 -211 79 -211 L73 -211 Q70 -211 69.5 -209.5 Q69 -208 70 -205 L167 3 L61 484 Q60 486 61 488 Q62 490 65 490 L71 490 Q73 490 74.5 488.5 Q76 487 77 484 L171 63 Q172 56 175 44.5 Q178 33 179 26 Q181 33 184.5 41.5 Q188 50 194 63 L390 484 Q391 487 393.5 488.5 Q396 490 398 490 L403 490 Q406 490 407 488.5 Q408 487 407 484 Z " />
<glyph glyph-name="z" unicode="z" horiz-adv-x="412" d="M82 490 L379 490 Q382 490 383 488.5 Q384 487 384 486 L384 483 Q384 481 382.5 478.5 Q381 476 379 473 L27 15 L331 15 Q334 15 335 13.5 Q336 12 336 9 L336 6 Q336 3 334 1.5 Q332 0 329 0 L11 0 Q8 0 7 1.5 Q6 3 6 6 L6 8 Q6 9 7 11.5 Q8 14 11 18 L362 475 L80 475 Q77 475 76 476.5 Q75 478 75 481 L75 484 Q75 487 77 488.5 Q79 490 82 490 Z " />
<glyph glyph-name="braceleft" unicode="&#x7b;" horiz-adv-x="358" d="M166 353 L196 596 Q202 645 238 676.5 Q274 708 372 708 L375 708 Q378 708 379 706 Q380 704 380 702 L380 699 Q380 696 378.5 694.5 Q377 693 374 693 L371 693 Q283 693 250 665 Q217 637 212 596 L182 353 Q176 307 149 281.5 Q122 256 71 248 Q115 241 136 217.5 Q157 194 157 160 Q157 156 156 145.5 Q155 135 154 130 L126 -99 Q125 -105 124.5 -111 Q124 -117 124 -120 Q124 -156 152.5 -179.5 Q181 -203 261 -203 L264 -203 Q267 -203 267.5 -205 Q268 -207 268 -209 L268 -212 Q268 -215 266.5 -216.5 Q265 -218 262 -218 L259 -218 Q174 -218 141 -191.5 Q108 -165 108 -124 Q108 -120 108.5 -112.5 Q109 -105 110 -98 L138 130 Q139 135 140 144 Q141 153 141 160 Q141 195 114 218 Q87 241 17 241 L16 241 Q13 241 12 242.5 Q11 244 11 247 L11 250 Q11 253 12.5 254.5 Q14 256 17 256 L19 256 Q97 256 129 284 Q161 312 166 353 Z " />
<glyph glyph-name="bar" unicode="&#x7c;" horiz-adv-x="243" d="M123 693 L123 -205 Q123 -208 121.5 -209.5 Q120 -211 117 -211 L113 -211 Q110 -211 108.5 -209.5 Q107 -208 107 -205 L107 693 Q107 696 108.5 697.5 Q110 699 113 699 L117 699 Q120 699 121.5 697.5 Q123 696 123 693 Z " />
<glyph glyph-name="braceright" unicode="&#x7d;" horiz-adv-x="358" d="M236 588 L208 361 Q207 357 206.5 349 Q206 341 206 337 Q206 302 233 279 Q260 256 330 256 L331 256 Q334 256 335 254.5 Q336 253 336 250 L336 246 Q336 243 334 242 Q332 241 329 241 L328 241 Q250 241 218 213 Q186 185 181 144 L150 -106 Q144 -155 107 -186.5 Q70 -218 -26 -218 L-29 -218 Q-32 -218 -33 -216.5 Q-34 -215 -34 -212 L-34 -209 Q-34 -206 -32 -204.5 Q-30 -203 -27 -203 L-24 -203 Q63 -203 96 -175 Q129 -147 134 -106 L165 144 Q171 190 198 215 Q225 240 276 248 Q232 255 211 278.5 Q190 302 190 336 Q190 340 190.5 349 Q191 358 192 362 L220 588 Q221 593 221.5 600 Q222 607 222 611 Q222 646 193.5 669.5 Q165 693 86 693 L83 693 Q80 693 79 694.5 Q78 696 78 699 L78 702 Q78 705 79.5 706.5 Q81 708 84 708 L87 708 Q172 708 205 681.5 Q238 655 238 614 Q238 610 237.5 602.5 Q237 595 236 588 Z " />
<glyph glyph-name="asciitilde" unicode="&#x7e;" horiz-adv-x="457" d="M179 297 Q172 301 162 305.5 Q152 310 143 310 Q120 310 111.5 296.5 Q103 283 103 242 L103 232 Q103 229 101.5 227.5 Q100 226 97 226 L93 226 Q90 226 88.5 227.5 Q87 229 87 232 L87 242 Q87 291 102 308 Q117 325 143 325 Q153 325 166 319.5 Q179 314 193 305 L272 255 Q280 250 291.5 245.5 Q303 241 312 241 Q335 241 342.5 254.5 Q350 268 350 309 L350 319 Q350 322 351.5 323.5 Q353 325 356 325 L360 325 Q363 325 364.5 323.5 Q366 322 366 319 L366 309 Q366 260 352 243 Q338 226 312 226 Q302 226 286.5 232.5 Q271 239 258 247 L179 297 Z " />
<glyph glyph-name="Adieresis" unicode="&#xc4;" horiz-adv-x="512" d="M381 247 L316 586 Q313 601 309 621.5 Q305 642 302 658 Q297 643 288 622 Q279 601 274 589 L124 247 L381 247 Z M303 680 L308 680 Q311 680 312.5 678.5 Q314 677 315 674 L443 6 Q444 3 442.5 1.5 Q441 0 439 0 L434 0 Q431 0 429.5 1.5 Q428 3 427 6 L383 232 L117 232 L18 6 Q17 3 15.5 1.5 Q14 0 11 0 L7 0 Q3 0 2 2.5 Q1 5 2 6 L294 674 Q295 677 297.5 678.5 Q300 680 303 680 Z M366 860 L354 760 Q354 757 352 755.5 Q350 754 347 754 L343 754 Q340 754 339 755.5 Q338 757 338 760 L350 860 Q350 863 352 864.5 Q354 866 357 866 L361 866 Q364 866 365 864.5 Q366 863 366 860 Z M287 860 L275 760 Q275 757 273 755.5 Q271 754 268 754 L264 754 Q261 754 260 755.5 Q259 757 259 760 L271 860 Q271 863 273 864.5 Q275 866 278 866 L282 866 Q285 866 286 864.5 Q287 863 287 860 Z " />
<glyph glyph-name="Aring" unicode="&#xc5;" horiz-adv-x="512" d="M381 247 L316 586 Q313 601 309 621.5 Q305 642 302 658 Q297 643 288 622 Q279 601 274 589 L124 247 L381 247 Z M303 680 L308 680 Q311 680 312.5 678.5 Q314 677 315 674 L443 6 Q444 3 442.5 1.5 Q441 0 439 0 L434 0 Q431 0 429.5 1.5 Q428 3 427 6 L383 232 L117 232 L18 6 Q17 3 15.5 1.5 Q14 0 11 0 L7 0 Q3 0 2 2.5 Q1 5 2 6 L294 674 Q295 677 297.5 678.5 Q300 680 303 680 Z M396 798 L395 787 Q393 761 370.5 744.5 Q348 728 301 728 Q261 728 243 745.5 Q225 763 225 785 Q225 788 225 794 Q225 800 226 806 L227 818 Q229 844 250.5 861.5 Q272 879 321 879 Q361 879 379 861 Q397 843 397 819 Q397 815 397 810 Q397 805 396 798 Z M379 787 L380 798 Q381 805 381 809.5 Q381 814 381 818 Q381 837 367 850.5 Q353 864 319 864 Q280 864 262 850.5 Q244 837 243 818 L242 806 Q241 800 241 794 Q241 788 241 786 Q241 770 254.5 756.5 Q268 743 303 743 Q340 743 359 755.5 Q378 768 379 787 Z " />
<glyph glyph-name="Ccedilla" unicode="&#xc7;" horiz-adv-x="539" d="M327 -121 Q327 -176 295.5 -193.5 Q264 -211 238 -211 L117 -211 Q114 -211 113 -209.5 Q112 -208 112 -205 L112 -201 Q112 -198 114 -196.5 Q116 -195 119 -195 L240 -195 Q259 -195 284.5 -181.5 Q310 -168 310 -123 Q310 -93 290.5 -82.5 Q271 -72 255 -72 L202 -72 Q198 -72 196.5 -70 Q195 -68 196 -64 L220 -7 Q137 -3 105 26.5 Q73 56 73 99 Q73 104 73.5 110.5 Q74 117 75 123 L128 557 Q135 614 177.5 651 Q220 688 334 688 Q435 688 472.5 657.5 Q510 627 510 578 Q510 573 510 568 Q510 563 509 557 L502 503 Q501 500 500 498.5 Q499 497 495 497 L491 497 Q489 497 487 498 Q485 499 486 503 L493 557 Q494 562 494 567 Q494 572 494 576 Q494 618 460 645.5 Q426 673 332 673 Q228 673 189 639.5 Q150 606 144 557 L91 123 Q90 118 90 112.5 Q90 107 90 103 Q90 60 123 33.5 Q156 7 250 7 Q354 7 394 40.5 Q434 74 440 123 L448 188 Q449 192 451 193 Q453 194 455 194 L459 194 Q461 194 462.5 192.5 Q464 191 464 188 L456 123 Q449 66 406 29 Q363 -8 249 -8 L234 -8 L215 -56 L257 -56 Q279 -56 303 -70 Q327 -84 327 -121 Z " />
<glyph glyph-name="Eacute" unicode="&#xc9;" horiz-adv-x="528" d="M433 0 L78 0 Q76 0 74.5 1.5 Q73 3 73 6 L155 674 Q156 677 157.5 678.5 Q159 680 162 680 L503 680 Q506 680 507 678.5 Q508 677 508 674 L508 671 Q508 668 506 666.5 Q504 665 501 665 L170 665 L134 368 L446 368 Q449 368 450 366.5 Q451 365 451 362 L451 359 Q451 356 449 354.5 Q447 353 444 353 L132 353 L90 15 L434 15 Q437 15 438 13.5 Q439 12 439 9 L439 6 Q439 3 437.5 1.5 Q436 0 433 0 Z M436 872 L337 747 Q336 746 335 745 Q334 744 331 744 L324 744 Q322 744 321.5 745.5 Q321 747 322 749 L420 874 Q421 875 422.5 876.5 Q424 878 427 878 L434 878 Q438 878 438 876 Q438 874 436 872 Z " />
<glyph glyph-name="Ntilde" unicode="&#xd1;" horiz-adv-x="601" d="M540 674 L458 6 Q458 3 456.5 1.5 Q455 0 451 0 L449 0 Q448 0 446.5 1 Q445 2 444 3 L188 593 Q184 603 177.5 618 Q171 633 167 645 L88 6 Q87 3 86 1.5 Q85 0 81 0 L78 0 Q76 0 74.5 1.5 Q73 3 73 6 L155 674 Q156 678 157.5 679 Q159 680 162 680 L163 680 Q165 680 166 679 Q167 678 168 677 L425 87 Q429 79 436 62 Q443 45 447 36 L525 674 Q525 677 527 678.5 Q529 680 531 680 L534 680 Q538 680 539 678.5 Q540 677 540 674 Z M303 848 Q281 848 270.5 834 Q260 820 256 780 L255 770 Q255 767 253 765.5 Q251 764 248 764 L244 764 Q241 764 240 765.5 Q239 767 239 770 L240 782 Q244 831 260 847 Q276 863 303 863 Q313 863 326 857 Q339 851 349 839 L387 796 Q393 789 401.5 784 Q410 779 419 779 Q441 779 451.5 792.5 Q462 806 466 847 L467 857 Q467 860 469 861.5 Q471 863 474 863 L478 863 Q481 863 482 861.5 Q483 860 483 857 L482 845 Q478 796 461.5 780 Q445 764 419 764 Q409 764 396.5 770 Q384 776 373 788 L335 830 Q328 837 320 842.5 Q312 848 303 848 Z " />
<glyph glyph-name="Odieresis" unicode="&#xd6;" horiz-adv-x="579" d="M75 123 L128 557 Q135 614 179 651 Q223 688 337 688 Q438 688 477 657 Q516 626 516 577 Q516 572 516 568 Q516 564 515 557 L462 123 Q455 66 410.5 29 Q366 -8 252 -8 Q151 -8 112 22.5 Q73 53 73 101 Q73 106 73.5 111.5 Q74 117 75 123 Z M446 123 L499 557 Q500 564 500 567.5 Q500 571 500 575 Q500 618 465 645.5 Q430 673 335 673 Q231 673 190.5 639.5 Q150 606 144 557 L91 123 Q90 119 90 113.5 Q90 108 90 104 Q90 62 124 34.5 Q158 7 253 7 Q357 7 398.5 40.5 Q440 74 446 123 Z M403 860 L391 760 Q391 757 389 755.5 Q387 754 384 754 L380 754 Q377 754 376 755.5 Q375 757 375 760 L387 860 Q387 863 389 864.5 Q391 866 394 866 L398 866 Q401 866 402 864.5 Q403 863 403 860 Z M324 860 L312 760 Q312 757 310 755.5 Q308 754 305 754 L301 754 Q298 754 297 755.5 Q296 757 296 760 L308 860 Q308 863 310 864.5 Q312 866 315 866 L319 866 Q322 866 323 864.5 Q324 863 324 860 Z " />
<glyph glyph-name="Udieresis" unicode="&#xdc;" horiz-adv-x="596" d="M168 674 L100 123 Q99 116 99 112.5 Q99 109 99 105 Q99 62 134 34.5 Q169 7 263 7 Q367 7 408 40.5 Q449 74 455 123 L523 674 Q524 677 525 678.5 Q526 680 530 680 L534 680 Q536 680 537.5 678.5 Q539 677 539 674 L471 123 Q464 66 420 29 Q376 -8 261 -8 Q160 -8 121.5 23 Q83 54 83 103 Q83 107 83 111.5 Q83 116 84 123 L152 674 Q153 678 154 679 Q155 680 159 680 L163 680 Q165 680 166.5 678.5 Q168 677 168 674 Z M410 860 L398 760 Q398 757 396 755.5 Q394 754 391 754 L387 754 Q384 754 383 755.5 Q382 757 382 760 L394 860 Q394 863 396 864.5 Q398 866 401 866 L405 866 Q408 866 409 864.5 Q410 863 410 860 Z M331 860 L319 760 Q319 757 317 755.5 Q315 754 312 754 L308 754 Q305 754 304 755.5 Q303 757 303 760 L315 860 Q315 863 317 864.5 Q319 866 322 866 L326 866 Q329 866 330 864.5 Q331 863 331 860 Z " />
<glyph glyph-name="aacute" unicode="&#xe1;" horiz-adv-x="510" d="M112 386 L77 104 Q76 98 76 95.5 Q76 93 76 90 Q76 54 102 30.5 Q128 7 183 7 Q252 7 302 33 Q352 59 371 73 L414 416 Q398 431 355 457 Q312 483 242 483 Q182 483 149.5 455 Q117 427 112 386 Z M369 55 Q345 38 296 15 Q247 -8 181 -8 Q119 -8 89.5 18.5 Q60 45 60 87 Q60 91 60 94 Q60 97 61 104 L96 386 Q102 435 137.5 466.5 Q173 498 244 498 Q308 498 352 475 Q396 452 416 434 L424 484 Q425 487 426 488.5 Q427 490 431 490 L433 490 Q436 490 437 488.5 Q438 487 438 484 L379 6 Q378 3 376.5 1.5 Q375 0 372 0 L370 0 Q367 0 366 1.5 Q365 3 365 6 L369 55 Z M375 702 L276 577 Q275 576 274 575 Q273 574 270 574 L263 574 Q261 574 260.5 575.5 Q260 577 261 579 L359 704 Q360 705 361.5 706.5 Q363 708 366 708 L373 708 Q377 708 377 706 Q377 704 375 702 Z " />
<glyph glyph-name="agrave" unicode="&#xe0;" horiz-adv-x="510" d="M112 386 L77 104 Q76 98 76 95.5 Q76 93 76 90 Q76 54 102 30.5 Q128 7 183 7 Q252 7 302 33 Q352 59 371 73 L414 416 Q398 431 355 457 Q312 483 242 483 Q182 483 149.5 455 Q117 427 112 386 Z M369 55 Q345 38 296 15 Q247 -8 181 -8 Q119 -8 89.5 18.5 Q60 45 60 87 Q60 91 60 94 Q60 97 61 104 L96 386 Q102 435 137.5 466.5 Q173 498 244 498 Q308 498 352 475 Q396 452 416 434 L424 484 Q425 487 426 488.5 Q427 490 431 490 L433 490 Q436 490 437 488.5 Q438 487 438 484 L379 6 Q378 3 376.5 1.5 Q375 0 372 0 L370 0 Q367 0 366 1.5 Q365 3 365 6 L369 55 Z M271 577 L202 702 Q201 703 201.5 705.5 Q202 708 206 708 L212 708 Q215 708 216.5 706.5 Q218 705 219 704 L285 579 Q286 577 285.5 575.5 Q285 574 283 574 L278 574 Q275 574 273.5 575 Q272 576 271 577 Z " />
<glyph glyph-name="acircumflex" unicode="&#xe2;" horiz-adv-x="510" d="M112 386 L77 104 Q76 98 76 95.5 Q76 93 76 90 Q76 54 102 30.5 Q128 7 183 7 Q252 7 302 33 Q352 59 371 73 L414 416 Q398 431 355 457 Q312 483 242 483 Q182 483 149.5 455 Q117 427 112 386 Z M369 55 Q345 38 296 15 Q247 -8 181 -8 Q119 -8 89.5 18.5 Q60 45 60 87 Q60 91 60 94 Q60 97 61 104 L96 386 Q102 435 137.5 466.5 Q173 498 244 498 Q308 498 352 475 Q396 452 416 434 L424 484 Q425 487 426 488.5 Q427 490 431 490 L433 490 Q436 490 437 488.5 Q438 487 438 484 L379 6 Q378 3 376.5 1.5 Q375 0 372 0 L370 0 Q367 0 366 1.5 Q365 3 365 6 L369 55 Z M283 694 L192 580 Q190 577 188 575.5 Q186 574 184 574 L178 574 Q175 574 174.5 576 Q174 578 175 580 L270 702 Q271 704 274 706 Q277 708 280 708 L287 708 Q290 708 292 706.5 Q294 705 295 703 L361 580 Q362 578 361.5 576 Q361 574 358 574 L354 574 Q352 574 349.5 575 Q347 576 345 580 L283 694 Z " />
<glyph glyph-name="adieresis" unicode="&#xe4;" horiz-adv-x="510" d="M112 386 L77 104 Q76 98 76 95.5 Q76 93 76 90 Q76 54 102 30.5 Q128 7 183 7 Q252 7 302 33 Q352 59 371 73 L414 416 Q398 431 355 457 Q312 483 242 483 Q182 483 149.5 455 Q117 427 112 386 Z M369 55 Q345 38 296 15 Q247 -8 181 -8 Q119 -8 89.5 18.5 Q60 45 60 87 Q60 91 60 94 Q60 97 61 104 L96 386 Q102 435 137.5 466.5 Q173 498 244 498 Q308 498 352 475 Q396 452 416 434 L424 484 Q425 487 426 488.5 Q427 490 431 490 L433 490 Q436 490 437 488.5 Q438 487 438 484 L379 6 Q378 3 376.5 1.5 Q375 0 372 0 L370 0 Q367 0 366 1.5 Q365 3 365 6 L369 55 Z M330 694 L318 594 Q318 591 316 589.5 Q314 588 311 588 L307 588 Q304 588 303 589.5 Q302 591 302 594 L314 694 Q314 697 316 698.5 Q318 700 321 700 L325 700 Q328 700 329 698.5 Q330 697 330 694 Z M251 694 L239 594 Q239 591 237 589.5 Q235 588 232 588 L228 588 Q225 588 224 589.5 Q223 591 223 594 L235 694 Q235 697 237 698.5 Q239 700 242 700 L246 700 Q249 700 250 698.5 Q251 697 251 694 Z " />
<glyph glyph-name="atilde" unicode="&#xe3;" horiz-adv-x="510" d="M112 386 L77 104 Q76 98 76 95.5 Q76 93 76 90 Q76 54 102 30.5 Q128 7 183 7 Q252 7 302 33 Q352 59 371 73 L414 416 Q398 431 355 457 Q312 483 242 483 Q182 483 149.5 455 Q117 427 112 386 Z M369 55 Q345 38 296 15 Q247 -8 181 -8 Q119 -8 89.5 18.5 Q60 45 60 87 Q60 91 60 94 Q60 97 61 104 L96 386 Q102 435 137.5 466.5 Q173 498 244 498 Q308 498 352 475 Q396 452 416 434 L424 484 Q425 487 426 488.5 Q427 490 431 490 L433 490 Q436 490 437 488.5 Q438 487 438 484 L379 6 Q378 3 376.5 1.5 Q375 0 372 0 L370 0 Q367 0 366 1.5 Q365 3 365 6 L369 55 Z M219 675 Q197 675 186.5 661 Q176 647 172 607 L171 597 Q171 594 169 592.5 Q167 591 164 591 L160 591 Q157 591 156 592.5 Q155 594 155 597 L156 608 Q160 657 176 673.5 Q192 690 219 690 Q229 690 242 684 Q255 678 265 666 L303 623 Q309 616 317.5 611 Q326 606 335 606 Q357 606 367.5 619.5 Q378 633 382 674 L383 684 Q383 687 385 688.5 Q387 690 390 690 L394 690 Q397 690 398 688.5 Q399 687 399 684 L398 672 Q394 623 377.5 607 Q361 591 335 591 Q325 591 312.5 597 Q300 603 289 615 L251 657 Q244 664 236 669.5 Q228 675 219 675 Z " />
<glyph glyph-name="aring" unicode="&#xe5;" horiz-adv-x="510" d="M112 386 L77 104 Q76 98 76 95.5 Q76 93 76 90 Q76 54 102 30.5 Q128 7 183 7 Q252 7 302 33 Q352 59 371 73 L414 416 Q398 431 355 457 Q312 483 242 483 Q182 483 149.5 455 Q117 427 112 386 Z M369 55 Q345 38 296 15 Q247 -8 181 -8 Q119 -8 89.5 18.5 Q60 45 60 87 Q60 91 60 94 Q60 97 61 104 L96 386 Q102 435 137.5 466.5 Q173 498 244 498 Q308 498 352 475 Q396 452 416 434 L424 484 Q425 487 426 488.5 Q427 490 431 490 L433 490 Q436 490 437 488.5 Q438 487 438 484 L379 6 Q378 3 376.5 1.5 Q375 0 372 0 L370 0 Q367 0 366 1.5 Q365 3 365 6 L369 55 Z M376 631 L375 620 Q373 594 350.5 577.5 Q328 561 281 561 Q241 561 223 578.5 Q205 596 205 618 Q205 621 205 627 Q205 633 206 639 L207 651 Q209 677 230.5 694.5 Q252 712 301 712 Q341 712 359 694 Q377 676 377 652 Q377 648 377 643 Q377 638 376 631 Z M359 620 L360 631 Q361 638 361 642.5 Q361 647 361 651 Q361 670 347 683.5 Q333 697 299 697 Q260 697 242 683.5 Q224 670 223 651 L222 639 Q221 633 221 627 Q221 621 221 619 Q221 603 234.5 589.5 Q248 576 283 576 Q320 576 339 588.5 Q358 601 359 620 Z " />
<glyph glyph-name="ccedilla" unicode="&#xe7;" horiz-adv-x="469" d="M306 -121 Q306 -176 274.5 -193.5 Q243 -211 217 -211 L96 -211 Q93 -211 92 -209.5 Q91 -208 91 -205 L91 -201 Q91 -198 93 -196.5 Q95 -195 98 -195 L219 -195 Q238 -195 263.5 -181.5 Q289 -168 289 -123 Q289 -93 269.5 -82.5 Q250 -72 234 -72 L181 -72 Q177 -72 175.5 -70 Q174 -68 175 -64 L198 -8 Q119 -7 89 19 Q59 45 59 85 Q59 89 59 93 Q59 97 60 104 L95 386 Q101 435 137 466.5 Q173 498 271 498 Q356 498 388 472 Q420 446 420 405 Q420 401 420 397 Q420 393 419 386 L416 365 Q415 362 414 360.5 Q413 359 409 359 L405 359 Q403 359 401 360.5 Q399 362 400 365 L403 386 Q404 392 404 395 Q404 398 404 402 Q404 437 375.5 460 Q347 483 269 483 Q182 483 149 455 Q116 427 111 386 L76 104 Q75 98 75 94.5 Q75 91 75 87 Q75 53 103.5 30 Q132 7 210 7 Q297 7 329.5 35 Q362 63 368 104 L372 133 Q373 136 374.5 137.5 Q376 139 379 139 L383 139 Q386 139 387.5 137.5 Q389 136 388 133 L384 104 Q377 55 342.5 23.5 Q308 -8 213 -8 L194 -56 L236 -56 Q258 -56 282 -70 Q306 -84 306 -121 Z " />
<glyph glyph-name="eacute" unicode="&#xe9;" horiz-adv-x="491" d="M425 386 L409 260 Q408 257 407 255.5 Q406 254 403 254 L95 254 L76 104 Q75 97 75 94 Q75 91 75 89 Q75 53 104.5 30 Q134 7 213 7 Q300 7 334 35 Q368 63 374 104 L378 133 Q379 136 380.5 137.5 Q382 139 385 139 L389 139 Q392 139 393.5 137.5 Q395 136 394 133 L390 104 Q383 55 346.5 23.5 Q310 -8 211 -8 Q125 -8 92 18.5 Q59 45 59 86 Q59 89 59 93 Q59 97 60 104 L95 386 Q101 435 138.5 466.5 Q176 498 274 498 Q360 498 393 471.5 Q426 445 426 404 Q426 400 426 396 Q426 392 425 386 Z M111 386 L96 269 L394 269 L409 386 Q410 393 410 395.5 Q410 398 410 401 Q410 436 380.5 459.5 Q351 483 272 483 Q185 483 150.5 455 Q116 427 111 386 Z M386 702 L287 577 Q286 576 285 575 Q284 574 281 574 L274 574 Q272 574 271.5 575.5 Q271 577 272 579 L370 704 Q371 705 372.5 706.5 Q374 708 377 708 L384 708 Q388 708 388 706 Q388 704 386 702 Z " />
<glyph glyph-name="egrave" unicode="&#xe8;" horiz-adv-x="491" d="M425 386 L409 260 Q408 257 407 255.5 Q406 254 403 254 L95 254 L76 104 Q75 97 75 94 Q75 91 75 89 Q75 53 104.5 30 Q134 7 213 7 Q300 7 334 35 Q368 63 374 104 L378 133 Q379 136 380.5 137.5 Q382 139 385 139 L389 139 Q392 139 393.5 137.5 Q395 136 394 133 L390 104 Q383 55 346.5 23.5 Q310 -8 211 -8 Q125 -8 92 18.5 Q59 45 59 86 Q59 89 59 93 Q59 97 60 104 L95 386 Q101 435 138.5 466.5 Q176 498 274 498 Q360 498 393 471.5 Q426 445 426 404 Q426 400 426 396 Q426 392 425 386 Z M111 386 L96 269 L394 269 L409 386 Q410 393 410 395.5 Q410 398 410 401 Q410 436 380.5 459.5 Q351 483 272 483 Q185 483 150.5 455 Q116 427 111 386 Z M276 577 L207 702 Q206 703 206.5 705.5 Q207 708 211 708 L217 708 Q220 708 221.5 706.5 Q223 705 224 704 L290 579 Q291 577 290.5 575.5 Q290 574 288 574 L283 574 Q280 574 278.5 575 Q277 576 276 577 Z " />
<glyph glyph-name="ecircumflex" unicode="&#xea;" horiz-adv-x="491" d="M425 386 L409 260 Q408 257 407 255.5 Q406 254 403 254 L95 254 L76 104 Q75 97 75 94 Q75 91 75 89 Q75 53 104.5 30 Q134 7 213 7 Q300 7 334 35 Q368 63 374 104 L378 133 Q379 136 380.5 137.5 Q382 139 385 139 L389 139 Q392 139 393.5 137.5 Q395 136 394 133 L390 104 Q383 55 346.5 23.5 Q310 -8 211 -8 Q125 -8 92 18.5 Q59 45 59 86 Q59 89 59 93 Q59 97 60 104 L95 386 Q101 435 138.5 466.5 Q176 498 274 498 Q360 498 393 471.5 Q426 445 426 404 Q426 400 426 396 Q426 392 425 386 Z M111 386 L96 269 L394 269 L409 386 Q410 393 410 395.5 Q410 398 410 401 Q410 436 380.5 459.5 Q351 483 272 483 Q185 483 150.5 455 Q116 427 111 386 Z M293 694 L202 580 Q200 577 198 575.5 Q196 574 194 574 L188 574 Q185 574 184.5 576 Q184 578 185 580 L280 702 Q281 704 284 706 Q287 708 290 708 L297 708 Q300 708 302 706.5 Q304 705 305 703 L371 580 Q372 578 371.5 576 Q371 574 368 574 L364 574 Q362 574 359.5 575 Q357 576 355 580 L293 694 Z " />
<glyph glyph-name="edieresis" unicode="&#xeb;" horiz-adv-x="491" d="M425 386 L409 260 Q408 257 407 255.5 Q406 254 403 254 L95 254 L76 104 Q75 97 75 94 Q75 91 75 89 Q75 53 104.5 30 Q134 7 213 7 Q300 7 334 35 Q368 63 374 104 L378 133 Q379 136 380.5 137.5 Q382 139 385 139 L389 139 Q392 139 393.5 137.5 Q395 136 394 133 L390 104 Q383 55 346.5 23.5 Q310 -8 211 -8 Q125 -8 92 18.5 Q59 45 59 86 Q59 89 59 93 Q59 97 60 104 L95 386 Q101 435 138.5 466.5 Q176 498 274 498 Q360 498 393 471.5 Q426 445 426 404 Q426 400 426 396 Q426 392 425 386 Z M111 386 L96 269 L394 269 L409 386 Q410 393 410 395.5 Q410 398 410 401 Q410 436 380.5 459.5 Q351 483 272 483 Q185 483 150.5 455 Q116 427 111 386 Z M338 694 L326 594 Q326 591 324 589.5 Q322 588 319 588 L315 588 Q312 588 311 589.5 Q310 591 310 594 L322 694 Q322 697 324 698.5 Q326 700 329 700 L333 700 Q336 700 337 698.5 Q338 697 338 694 Z M259 694 L247 594 Q247 591 245 589.5 Q243 588 240 588 L236 588 Q233 588 232 589.5 Q231 591 231 594 L243 694 Q243 697 245 698.5 Q247 700 250 700 L254 700 Q257 700 258 698.5 Q259 697 259 694 Z " />
<glyph glyph-name="iacute" unicode="&#xed;" horiz-adv-x="206" d="M137 484 L78 6 Q77 3 75.5 1.5 Q74 0 71 0 L67 0 Q65 0 63 1 Q61 2 62 6 L121 484 Q121 486 122.5 488 Q124 490 127 490 L131 490 Q134 490 135.5 488.5 Q137 487 137 484 Z M243 702 L144 577 Q143 576 142 575 Q141 574 138 574 L131 574 Q129 574 128.5 575.5 Q128 577 129 579 L227 704 Q228 705 229.5 706.5 Q231 708 234 708 L241 708 Q245 708 245 706 Q245 704 243 702 Z " />
<glyph glyph-name="igrave" unicode="&#xec;" horiz-adv-x="205" d="M136 484 L77 6 Q76 3 74.5 1.5 Q73 0 70 0 L66 0 Q64 0 62 1 Q60 2 61 6 L120 484 Q120 486 121.5 488 Q123 490 126 490 L130 490 Q133 490 134.5 488.5 Q136 487 136 484 Z M124 577 L55 702 Q54 703 54.5 705.5 Q55 708 59 708 L65 708 Q68 708 69.5 706.5 Q71 705 72 704 L138 579 Q139 577 138.5 575.5 Q138 574 136 574 L131 574 Q128 574 126.5 575 Q125 576 124 577 Z " />
<glyph glyph-name="icircumflex" unicode="&#xee;" horiz-adv-x="205" d="M136 484 L77 6 Q76 3 74.5 1.5 Q73 0 70 0 L66 0 Q64 0 62 1 Q60 2 61 6 L120 484 Q120 486 121.5 488 Q123 490 126 490 L130 490 Q133 490 134.5 488.5 Q136 487 136 484 Z M150 694 L59 580 Q57 577 55 575.5 Q53 574 51 574 L45 574 Q42 574 41.5 576 Q41 578 42 580 L137 702 Q138 704 141 706 Q144 708 147 708 L154 708 Q157 708 159 706.5 Q161 705 162 703 L228 580 Q229 578 228.5 576 Q228 574 225 574 L221 574 Q219 574 216.5 575 Q214 576 212 580 L150 694 Z " />
<glyph glyph-name="idieresis" unicode="&#xef;" horiz-adv-x="205" d="M136 484 L77 6 Q76 3 74.5 1.5 Q73 0 70 0 L66 0 Q64 0 62 1 Q60 2 61 6 L120 484 Q120 486 121.5 488 Q123 490 126 490 L130 490 Q133 490 134.5 488.5 Q136 487 136 484 Z M200 694 L188 594 Q188 591 186 589.5 Q184 588 181 588 L177 588 Q174 588 173 589.5 Q172 591 172 594 L184 694 Q184 697 186 698.5 Q188 700 191 700 L195 700 Q198 700 199 698.5 Q200 697 200 694 Z M121 694 L109 594 Q109 591 107 589.5 Q105 588 102 588 L98 588 Q95 588 94 589.5 Q93 591 93 594 L105 694 Q105 697 107 698.5 Q109 700 112 700 L116 700 Q119 700 120 698.5 Q121 697 121 694 Z " />
<glyph glyph-name="ntilde" unicode="&#xf1;" horiz-adv-x="517" d="M127 490 L129 490 Q132 490 133.5 488.5 Q135 487 135 484 L130 434 Q154 452 203 475 Q252 498 318 498 Q381 498 410.5 471.5 Q440 445 440 403 Q440 399 440 395.5 Q440 392 439 386 L392 6 Q391 3 389.5 1.5 Q388 0 385 0 L381 0 Q379 0 377 1 Q375 2 376 6 L423 386 Q424 392 424 394 Q424 396 424 399 Q424 435 398.5 459 Q373 483 317 483 Q248 483 197.5 457 Q147 431 128 416 L78 6 Q78 3 76 1.5 Q74 0 71 0 L67 0 Q65 0 63 1 Q61 2 62 6 L121 484 Q121 487 122.5 488.5 Q124 490 127 490 Z M238 675 Q216 675 205.5 661 Q195 647 191 607 L190 597 Q190 594 188 592.5 Q186 591 183 591 L179 591 Q176 591 175 592.5 Q174 594 174 597 L175 608 Q179 657 195 673.5 Q211 690 238 690 Q248 690 261 684 Q274 678 284 666 L322 623 Q328 616 336.5 611 Q345 606 354 606 Q376 606 386.5 619.5 Q397 633 401 674 L402 684 Q402 687 404 688.5 Q406 690 409 690 L413 690 Q416 690 417 688.5 Q418 687 418 684 L417 672 Q413 623 396.5 607 Q380 591 354 591 Q344 591 331.5 597 Q319 603 308 615 L270 657 Q263 664 255 669.5 Q247 675 238 675 Z " />
<glyph glyph-name="oacute" unicode="&#xf3;" horiz-adv-x="497" d="M60 104 L95 386 Q101 435 138.5 466.5 Q176 498 274 498 Q360 498 393 471.5 Q426 445 426 404 Q426 400 426 396 Q426 392 425 386 L390 104 Q384 55 346.5 23.5 Q309 -8 211 -8 Q125 -8 92 18.5 Q59 45 59 86 Q59 89 59 93 Q59 97 60 104 Z M374 104 L409 386 Q410 392 410 394.5 Q410 397 410 401 Q410 436 380.5 459.5 Q351 483 272 483 Q185 483 150.5 455 Q116 427 111 386 L76 104 Q75 97 75 94 Q75 91 75 89 Q75 53 104.5 30 Q134 7 213 7 Q300 7 334.5 35 Q369 63 374 104 Z M385 702 L286 577 Q285 576 284 575 Q283 574 280 574 L273 574 Q271 574 270.5 575.5 Q270 577 271 579 L369 704 Q370 705 371.5 706.5 Q373 708 376 708 L383 708 Q387 708 387 706 Q387 704 385 702 Z " />
<glyph glyph-name="ograve" unicode="&#xf2;" horiz-adv-x="497" d="M60 104 L95 386 Q101 435 138.5 466.5 Q176 498 274 498 Q360 498 393 471.5 Q426 445 426 404 Q426 400 426 396 Q426 392 425 386 L390 104 Q384 55 346.5 23.5 Q309 -8 211 -8 Q125 -8 92 18.5 Q59 45 59 86 Q59 89 59 93 Q59 97 60 104 Z M374 104 L409 386 Q410 392 410 394.5 Q410 397 410 401 Q410 436 380.5 459.5 Q351 483 272 483 Q185 483 150.5 455 Q116 427 111 386 L76 104 Q75 97 75 94 Q75 91 75 89 Q75 53 104.5 30 Q134 7 213 7 Q300 7 334.5 35 Q369 63 374 104 Z M263 577 L194 702 Q193 703 193.5 705.5 Q194 708 198 708 L204 708 Q207 708 208.5 706.5 Q210 705 211 704 L277 579 Q278 577 277.5 575.5 Q277 574 275 574 L270 574 Q267 574 265.5 575 Q264 576 263 577 Z " />
<glyph glyph-name="ocircumflex" unicode="&#xf4;" horiz-adv-x="497" d="M60 104 L95 386 Q101 435 138.5 466.5 Q176 498 274 498 Q360 498 393 471.5 Q426 445 426 404 Q426 400 426 396 Q426 392 425 386 L390 104 Q384 55 346.5 23.5 Q309 -8 211 -8 Q125 -8 92 18.5 Q59 45 59 86 Q59 89 59 93 Q59 97 60 104 Z M374 104 L409 386 Q410 392 410 394.5 Q410 397 410 401 Q410 436 380.5 459.5 Q351 483 272 483 Q185 483 150.5 455 Q116 427 111 386 L76 104 Q75 97 75 94 Q75 91 75 89 Q75 53 104.5 30 Q134 7 213 7 Q300 7 334.5 35 Q369 63 374 104 Z M295 694 L204 580 Q202 577 200 575.5 Q198 574 196 574 L190 574 Q187 574 186.5 576 Q186 578 187 580 L282 702 Q283 704 286 706 Q289 708 292 708 L299 708 Q302 708 304 706.5 Q306 705 307 703 L373 580 Q374 578 373.5 576 Q373 574 370 574 L366 574 Q364 574 361.5 575 Q359 576 357 580 L295 694 Z " />
<glyph glyph-name="odieresis" unicode="&#xf6;" horiz-adv-x="497" d="M60 104 L95 386 Q101 435 138.5 466.5 Q176 498 274 498 Q360 498 393 471.5 Q426 445 426 404 Q426 400 426 396 Q426 392 425 386 L390 104 Q384 55 346.5 23.5 Q309 -8 211 -8 Q125 -8 92 18.5 Q59 45 59 86 Q59 89 59 93 Q59 97 60 104 Z M374 104 L409 386 Q410 392 410 394.5 Q410 397 410 401 Q410 436 380.5 459.5 Q351 483 272 483 Q185 483 150.5 455 Q116 427 111 386 L76 104 Q75 97 75 94 Q75 91 75 89 Q75 53 104.5 30 Q134 7 213 7 Q300 7 334.5 35 Q369 63 374 104 Z M337 694 L325 594 Q325 591 323 589.5 Q321 588 318 588 L314 588 Q311 588 310 589.5 Q309 591 309 594 L321 694 Q321 697 323 698.5 Q325 700 328 700 L332 700 Q335 700 336 698.5 Q337 697 337 694 Z M258 694 L246 594 Q246 591 244 589.5 Q242 588 239 588 L235 588 Q232 588 231 589.5 Q230 591 230 594 L242 694 Q242 697 244 698.5 Q246 700 249 700 L253 700 Q256 700 257 698.5 Q258 697 258 694 Z " />
<glyph glyph-name="otilde" unicode="&#xf5;" horiz-adv-x="497" d="M60 104 L95 386 Q101 435 138.5 466.5 Q176 498 274 498 Q360 498 393 471.5 Q426 445 426 404 Q426 400 426 396 Q426 392 425 386 L390 104 Q384 55 346.5 23.5 Q309 -8 211 -8 Q125 -8 92 18.5 Q59 45 59 86 Q59 89 59 93 Q59 97 60 104 Z M374 104 L409 386 Q410 392 410 394.5 Q410 397 410 401 Q410 436 380.5 459.5 Q351 483 272 483 Q185 483 150.5 455 Q116 427 111 386 L76 104 Q75 97 75 94 Q75 91 75 89 Q75 53 104.5 30 Q134 7 213 7 Q300 7 334.5 35 Q369 63 374 104 Z M225 675 Q203 675 192.5 661 Q182 647 178 607 L177 597 Q177 594 175 592.5 Q173 591 170 591 L166 591 Q163 591 162 592.5 Q161 594 161 597 L162 608 Q166 657 182 673.5 Q198 690 225 690 Q235 690 248 684 Q261 678 271 666 L309 623 Q315 616 323.5 611 Q332 606 341 606 Q363 606 373.5 619.5 Q384 633 388 674 L389 684 Q389 687 391 688.5 Q393 690 396 690 L400 690 Q403 690 404 688.5 Q405 687 405 684 L404 672 Q400 623 383.5 607 Q367 591 341 591 Q331 591 318.5 597 Q306 603 295 615 L257 657 Q250 664 242 669.5 Q234 675 225 675 Z " />
<glyph glyph-name="uacute" unicode="&#xfa;" horiz-adv-x="512" d="M367 6 L371 55 Q349 37 302.5 14.5 Q256 -8 190 -8 Q127 -8 97.5 18.5 Q68 45 68 87 Q68 90 68 94.5 Q68 99 69 104 L116 484 Q117 487 118.5 488.5 Q120 490 123 490 L127 490 Q129 490 131 489 Q133 488 132 484 L85 104 Q84 98 84 96 Q84 94 84 91 Q84 54 109.5 30.5 Q135 7 192 7 Q261 7 308 32.5 Q355 58 374 73 L424 484 Q424 487 426 488.5 Q428 490 431 490 L435 490 Q437 490 439 489 Q441 488 440 484 L381 6 Q381 4 380 2 Q379 0 375 0 L372 0 Q370 0 368.5 1.5 Q367 3 367 6 Z M383 702 L284 577 Q283 576 282 575 Q281 574 278 574 L271 574 Q269 574 268.5 575.5 Q268 577 269 579 L367 704 Q368 705 369.5 706.5 Q371 708 374 708 L381 708 Q385 708 385 706 Q385 704 383 702 Z " />
<glyph glyph-name="ugrave" unicode="&#xf9;" horiz-adv-x="512" d="M367 6 L371 55 Q349 37 302.5 14.5 Q256 -8 190 -8 Q127 -8 97.5 18.5 Q68 45 68 87 Q68 90 68 94.5 Q68 99 69 104 L116 484 Q117 487 118.5 488.5 Q120 490 123 490 L127 490 Q129 490 131 489 Q133 488 132 484 L85 104 Q84 98 84 96 Q84 94 84 91 Q84 54 109.5 30.5 Q135 7 192 7 Q261 7 308 32.5 Q355 58 374 73 L424 484 Q424 487 426 488.5 Q428 490 431 490 L435 490 Q437 490 439 489 Q441 488 440 484 L381 6 Q381 4 380 2 Q379 0 375 0 L372 0 Q370 0 368.5 1.5 Q367 3 367 6 Z M276 577 L207 702 Q206 703 206.5 705.5 Q207 708 211 708 L217 708 Q220 708 221.5 706.5 Q223 705 224 704 L290 579 Q291 577 290.5 575.5 Q290 574 288 574 L283 574 Q280 574 278.5 575 Q277 576 276 577 Z " />
<glyph glyph-name="ucircumflex" unicode="&#xfb;" horiz-adv-x="512" d="M367 6 L371 55 Q349 37 302.5 14.5 Q256 -8 190 -8 Q127 -8 97.5 18.5 Q68 45 68 87 Q68 90 68 94.5 Q68 99 69 104 L116 484 Q117 487 118.5 488.5 Q120 490 123 490 L127 490 Q129 490 131 489 Q133 488 132 484 L85 104 Q84 98 84 96 Q84 94 84 91 Q84 54 109.5 30.5 Q135 7 192 7 Q261 7 308 32.5 Q355 58 374 73 L424 484 Q424 487 426 488.5 Q428 490 431 490 L435 490 Q437 490 439 489 Q441 488 440 484 L381 6 Q381 4 380 2 Q379 0 375 0 L372 0 Q370 0 368.5 1.5 Q367 3 367 6 Z M296 694 L205 580 Q203 577 201 575.5 Q199 574 197 574 L191 574 Q188 574 187.5 576 Q187 578 188 580 L283 702 Q284 704 287 706 Q290 708 293 708 L300 708 Q303 708 305 706.5 Q307 705 308 703 L374 580 Q375 578 374.5 576 Q374 574 371 574 L367 574 Q365 574 362.5 575 Q360 576 358 580 L296 694 Z " />
<glyph glyph-name="udieresis" unicode="&#xfc;" horiz-adv-x="512" d="M367 6 L371 55 Q349 37 302.5 14.5 Q256 -8 190 -8 Q127 -8 97.5 18.5 Q68 45 68 87 Q68 90 68 94.5 Q68 99 69 104 L116 484 Q117 487 118.5 488.5 Q120 490 123 490 L127 490 Q129 490 131 489 Q133 488 132 484 L85 104 Q84 98 84 96 Q84 94 84 91 Q84 54 109.5 30.5 Q135 7 192 7 Q261 7 308 32.5 Q355 58 374 73 L424 484 Q424 487 426 488.5 Q428 490 431 490 L435 490 Q437 490 439 489 Q441 488 440 484 L381 6 Q381 4 380 2 Q379 0 375 0 L372 0 Q370 0 368.5 1.5 Q367 3 367 6 Z M347 694 L335 594 Q335 591 333 589.5 Q331 588 328 588 L324 588 Q321 588 320 589.5 Q319 591 319 594 L331 694 Q331 697 333 698.5 Q335 700 338 700 L342 700 Q345 700 346 698.5 Q347 697 347 694 Z M268 694 L256 594 Q256 591 254 589.5 Q252 588 249 588 L245 588 Q242 588 241 589.5 Q240 591 240 594 L252 694 Q252 697 254 698.5 Q256 700 259 700 L263 700 Q266 700 267 698.5 Q268 697 268 694 Z " />
<glyph glyph-name="dagger" unicode="&#x2020;" horiz-adv-x="368" d="M242 693 L158 6 Q157 3 155.5 1.5 Q154 0 151 0 L147 0 Q145 0 143 1.5 Q141 3 142 6 L226 693 Q227 696 228.5 697.5 Q230 699 233 699 L237 699 Q240 699 241.5 697.5 Q243 696 242 693 Z M237 490 L341 490 Q344 490 345.5 488.5 Q347 487 347 484 L347 481 Q347 478 345.5 476.5 Q344 475 341 475 L237 475 Q234 475 232.5 476.5 Q231 478 231 481 L231 484 Q231 487 232.5 488.5 Q234 490 237 490 Z M73 490 L177 490 Q180 490 181.5 488.5 Q183 487 183 484 L183 481 Q183 478 181.5 476.5 Q180 475 177 475 L73 475 Q70 475 68.5 476.5 Q67 478 67 481 L67 484 Q67 487 68.5 488.5 Q70 490 73 490 Z " />
<glyph glyph-name="degree" unicode="&#xb0;" horiz-adv-x="386" d="M102 516 L113 606 Q117 641 144 663.5 Q171 686 241 686 Q282 686 315 671.5 Q348 657 348 616 Q348 612 348 607.5 Q348 603 347 596 L336 508 Q332 473 305 450.5 Q278 428 209 428 Q149 428 124.5 446.5 Q100 465 100 496 Q100 499 100.5 505.5 Q101 512 102 516 Z M320 508 L331 596 Q332 603 332 606.5 Q332 610 332 613 Q332 647 306.5 659.5 Q281 672 239 672 Q179 672 155.5 653 Q132 634 129 606 L118 515 Q117 510 116.5 505 Q116 500 116 497 Q116 473 136.5 457.5 Q157 442 211 442 Q270 442 293 461 Q316 480 320 508 Z " />
<glyph glyph-name="cent" unicode="&#xa2;" horiz-adv-x="482" d="M220 6 Q219 3 218 1.5 Q217 0 214 0 L210 0 Q207 0 205 1.5 Q203 3 204 6 L215 86 Q133 87 102 113 Q71 139 71 179 Q71 183 71 187 Q71 191 72 198 L107 480 Q113 529 148 560.5 Q183 592 276 592 L286 674 Q286 677 288 678.5 Q290 680 293 680 L297 680 Q300 680 301 678.5 Q302 677 302 674 L292 592 Q372 591 402 565 Q432 539 432 499 Q432 495 432 491 Q432 487 431 480 L428 459 Q427 456 426 454.5 Q425 453 421 453 L417 453 Q415 453 413 454.5 Q411 456 412 459 L415 480 Q416 486 416 489 Q416 492 416 496 Q416 531 387.5 554 Q359 577 281 577 Q194 577 161 549 Q128 521 123 480 L88 198 Q87 192 87 188.5 Q87 185 87 181 Q87 147 115.5 124 Q144 101 222 101 Q309 101 341.5 129 Q374 157 380 198 L384 227 Q385 230 386.5 231.5 Q388 233 391 233 L395 233 Q398 233 399.5 231.5 Q401 230 400 227 L396 198 Q389 151 356 119.5 Q323 88 231 86 L220 6 Z " />
<glyph glyph-name="sterling" unicode="&#xa3;" horiz-adv-x="579" d="M156 353 L348 353 Q351 353 352 351.5 Q353 350 353 347 L353 344 Q353 341 351 339.5 Q349 338 346 338 L154 338 L114 15 L348 15 Q390 15 435.5 39.5 Q481 64 481 152 L481 155 Q481 158 482.5 159.5 Q484 161 487 161 L490 161 Q493 161 494.5 159.5 Q496 158 496 155 L496 152 Q496 55 445.5 27.5 Q395 0 346 0 L35 0 Q32 0 31 1.5 Q30 3 30 6 L30 9 Q30 12 32 13.5 Q34 15 37 15 L98 15 L138 338 L77 338 Q74 338 73 339.5 Q72 341 72 344 L72 347 Q72 350 74 351.5 Q76 353 79 353 L140 353 L166 567 Q173 624 207.5 656 Q242 688 356 688 Q454 688 486.5 663.5 Q519 639 519 594 Q519 588 518.5 581 Q518 574 517 567 L514 543 Q513 540 511.5 538.5 Q510 537 507 537 L503 537 Q499 537 498.5 539.5 Q498 542 498 544 L501 567 Q502 574 502.5 580.5 Q503 587 503 593 Q503 630 473.5 651.5 Q444 673 354 673 Q250 673 219 644.5 Q188 616 182 567 L156 353 Z " />
<glyph glyph-name="section" unicode="&#xa7;" horiz-adv-x="496" d="M390 146 Q389 143 387.5 141.5 Q386 140 383 140 L379 140 Q376 140 375 141.5 Q374 143 374 146 L387 252 Q388 258 388.5 264.5 Q389 271 389 278 Q389 314 363.5 329 Q338 344 326 348 L190 388 Q174 392 140 409 Q106 426 106 470 Q106 476 106.5 483 Q107 490 108 496 L118 576 Q124 625 161.5 656.5 Q199 688 297 688 Q383 688 416 661.5 Q449 635 449 594 Q449 589 448.5 581.5 Q448 574 447 568 L446 560 Q445 556 443.5 555 Q442 554 439 554 L435 554 Q433 554 431 555.5 Q429 557 430 561 L431 568 Q432 573 432.5 579 Q433 585 433 591 Q433 626 403.5 649.5 Q374 673 295 673 Q208 673 173.5 645 Q139 617 134 576 L124 496 Q123 490 122.5 483.5 Q122 477 122 473 Q122 437 152.5 422.5 Q183 408 196 404 L332 364 Q348 359 376.5 340 Q405 321 405 280 Q405 277 405 272 Q405 267 404 259 L390 146 Z M78 211 L92 324 Q93 327 94.5 328.5 Q96 330 99 330 L103 330 Q106 330 107 328.5 Q108 327 108 324 L95 218 Q94 212 93.5 205.5 Q93 199 93 192 Q93 156 118.5 141 Q144 126 156 122 L292 82 Q308 78 342 61 Q376 44 376 0 Q376 -6 375.5 -13 Q375 -20 374 -26 L364 -106 Q358 -155 320.5 -186.5 Q283 -218 185 -218 Q99 -218 66 -191.5 Q33 -165 33 -124 Q33 -119 33.5 -111.5 Q34 -104 35 -98 L36 -90 Q37 -86 38.5 -85 Q40 -84 43 -84 L47 -84 Q49 -84 51 -85.5 Q53 -87 52 -91 L51 -98 Q50 -103 49.5 -109.5 Q49 -116 49 -121 Q49 -156 78.5 -179.5 Q108 -203 187 -203 Q274 -203 308.5 -175 Q343 -147 348 -106 L358 -26 Q359 -20 359.5 -13.5 Q360 -7 360 -3 Q360 33 329.5 47.5 Q299 62 286 66 L150 106 Q134 111 105.5 130 Q77 149 77 190 Q77 193 77 198.5 Q77 204 78 211 Z " />
<glyph glyph-name="bullet" unicode="&#x2022;" horiz-adv-x="238" d="M129 312 L115 197 Q115 194 113 192.5 Q111 191 108 191 L104 191 Q101 191 100 192.5 Q99 194 99 197 L113 312 Q113 315 115 316.5 Q117 318 120 318 L124 318 Q127 318 128 316 Q129 314 129 312 Z " />
<glyph glyph-name="paragraph" unicode="&#xb6;" horiz-adv-x="536" d="M487 674 L379 -205 Q378 -209 376.5 -210 Q375 -211 372 -211 L368 -211 Q365 -211 363.5 -209.5 Q362 -208 363 -204 L471 674 Q472 677 473.5 678.5 Q475 680 478 680 L482 680 Q485 680 486 678 Q487 676 487 674 Z M372 675 L264 -205 Q263 -208 261.5 -209.5 Q260 -211 257 -211 L253 -211 Q250 -211 249 -209.5 Q248 -208 248 -205 L308 282 L245 282 Q144 282 105.5 313 Q67 344 67 393 Q67 400 67.5 408.5 Q68 417 69 422 L85 549 Q92 606 135 643 Q178 680 294 680 L367 680 Q369 680 370.5 679 Q372 678 372 675 Z " />
<glyph glyph-name="germandbls" unicode="&#xdf;" horiz-adv-x="573" d="M160 596 L88 6 Q88 3 86 1.5 Q84 0 81 0 L77 0 Q75 0 73 1 Q71 2 72 6 L129 474 L59 474 Q57 474 55.5 475 Q54 476 54 478 L54 481 Q54 484 56 485.5 Q58 487 61 487 L130 489 L131 489 L144 596 Q150 645 189.5 676.5 Q229 708 327 708 Q414 708 448.5 681 Q483 654 483 611 Q483 607 482.5 600 Q482 593 481 586 L478 558 Q473 512 437 496 Q401 480 385 477 L323 465 Q307 462 277.5 451.5 Q248 441 243 404 L242 397 Q241 391 241 388.5 Q241 386 241 384 Q241 352 267 336.5 Q293 321 305 317 L421 277 Q436 272 470.5 254.5 Q505 237 505 196 Q505 193 505 188.5 Q505 184 504 177 L495 104 Q489 55 456.5 23.5 Q424 -8 326 -8 Q242 -8 213 17 Q184 42 184 82 Q184 87 184 92 Q184 97 185 104 L187 120 Q188 123 189.5 124.5 Q191 126 194 126 L197 126 Q200 126 201.5 124.5 Q203 123 203 120 L201 104 Q200 97 200 93 Q200 89 200 84 Q200 50 225.5 28.5 Q251 7 328 7 Q415 7 444.5 35 Q474 63 479 104 L487 169 Q488 176 488.5 181.5 Q489 187 489 194 Q489 228 458.5 242.5 Q428 257 415 261 L299 301 Q284 306 254.5 325.5 Q225 345 225 382 Q225 383 225 387.5 Q225 392 226 397 L227 404 Q234 450 268.5 463.5 Q303 477 321 481 L383 493 Q396 495 427 508 Q458 521 462 559 L465 586 Q466 593 466.5 599 Q467 605 467 609 Q467 645 436.5 669 Q406 693 325 693 Q238 693 201.5 665 Q165 637 160 596 Z " />
<glyph glyph-name="registered" unicode="&#xae;" horiz-adv-x="556" d="M494 574 L494 401 Q494 365 460 326 Q426 287 302 287 Q179 287 143.5 326 Q108 365 108 401 L108 574 Q108 610 143.5 649 Q179 688 302 688 Q426 688 460 649 Q494 610 494 574 Z M479 400 L479 575 Q479 605 447 639 Q415 673 302 673 Q190 673 157 639 Q124 605 124 575 L124 400 Q124 370 157 336 Q190 302 302 302 Q415 302 447 336 Q479 370 479 400 Z M309 599 L235 599 L235 469 L309 469 Q352 469 367.5 486 Q383 503 383 522 L383 546 Q383 565 367.5 582 Q352 599 309 599 Z M235 356 Q235 355 234 353.5 Q233 352 231 352 L223 352 Q221 352 220 353.5 Q219 355 219 356 L219 608 Q219 610 220 611.5 Q221 613 224 613 L309 613 Q361 613 380 592 Q399 571 399 548 L399 520 Q399 501 386.5 482.5 Q374 464 340 458 L385 356 Q386 355 384.5 353.5 Q383 352 381 352 L373 352 Q370 352 369 353.5 Q368 355 367 356 L324 456 Q324 456 319.5 455.5 Q315 455 309 455 L235 455 L235 356 Z " />
<glyph glyph-name="copyright" unicode="&#xa9;" horiz-adv-x="670" d="M575 557 L575 123 Q575 66 529.5 29 Q484 -8 341 -8 Q198 -8 152.5 29 Q107 66 107 123 L107 557 Q107 614 152.5 651 Q198 688 341 688 Q484 688 529.5 651 Q575 614 575 557 Z M559 123 L559 557 Q559 606 516 639.5 Q473 673 341 673 Q209 673 166 639.5 Q123 606 123 557 L123 123 Q123 74 166 40.5 Q209 7 341 7 Q473 7 516 40.5 Q559 74 559 123 Z M341 553 Q421 553 442 521.5 Q463 490 463 441 L463 420 Q463 417 461.5 415.5 Q460 414 457 414 L453 414 Q450 414 448.5 415.5 Q447 417 447 420 L447 441 Q447 482 430 510 Q413 538 341 538 Q268 538 251.5 510 Q235 482 235 441 L235 238 Q235 197 251.5 169 Q268 141 341 141 Q413 141 430 169 Q447 197 447 238 L447 267 Q447 270 448.5 271.5 Q450 273 453 273 L457 273 Q460 273 461.5 271.5 Q463 270 463 267 L463 238 Q463 189 442 157.5 Q421 126 341 126 Q261 126 240 157.5 Q219 189 219 238 L219 441 Q219 490 240 521.5 Q261 553 341 553 Z " />
<glyph glyph-name="trademark" unicode="&#x2122;" horiz-adv-x="790" d="M91 680 L359 680 Q361 680 362.5 679 Q364 678 364 675 L364 670 Q364 668 362 667 Q360 666 358 666 L231 666 L183 277 Q183 275 181.5 273.5 Q180 272 178 272 L172 272 Q170 272 168.5 273.5 Q167 275 167 277 L215 666 L91 666 Q88 666 86.5 667 Q85 668 85 670 L85 675 Q85 678 86.5 679 Q88 680 91 680 Z M740 675 L691 277 Q691 275 690 273.5 Q689 272 686 272 L680 272 Q678 272 676.5 273.5 Q675 275 675 277 L720 643 Q717 636 714 629 Q711 622 708 618 L547 339 Q546 337 544 335.5 Q542 334 539 334 L532 334 Q530 334 528.5 335.5 Q527 337 526 339 L431 620 Q430 622 428.5 628.5 Q427 635 426 642 L381 277 Q381 275 379.5 273.5 Q378 272 376 272 L370 272 Q368 272 367 273.5 Q366 275 366 277 L415 675 Q415 677 416.5 678.5 Q418 680 420 680 L425 680 Q427 680 428 678 Q429 676 430 674 L532 373 Q533 369 534.5 362.5 Q536 356 537 351 Q539 355 542 360.5 Q545 366 549 373 L722 675 Q723 677 725.5 678.5 Q728 680 729 680 L736 680 Q739 680 739.5 678.5 Q740 677 740 675 Z " />
<glyph glyph-name="acute" unicode="&#xb4;" horiz-adv-x="346" d="M307 702 L208 577 Q207 576 206 575 Q205 574 202 574 L195 574 Q193 574 192.5 575.5 Q192 577 193 579 L291 704 Q292 705 293.5 706.5 Q295 708 298 708 L305 708 Q309 708 309 706 Q309 704 307 702 Z " />
<glyph glyph-name="dieresis" unicode="&#xa8;" horiz-adv-x="275" d="M269 694 L257 594 Q257 591 255 589.5 Q253 588 250 588 L246 588 Q243 588 242 589.5 Q241 591 241 594 L253 694 Q253 697 255 698.5 Q257 700 260 700 L264 700 Q267 700 268 698.5 Q269 697 269 694 Z M190 694 L178 594 Q178 591 176 589.5 Q174 588 171 588 L167 588 Q164 588 163 589.5 Q162 591 162 594 L174 694 Q174 697 176 698.5 Q178 700 181 700 L185 700 Q188 700 189 698.5 Q190 697 190 694 Z " />
<glyph glyph-name="notequal" unicode="&#x2260;" horiz-adv-x="607" d="M247 175 Q246 172 243.5 170.5 Q241 169 238 169 L235 169 Q232 169 231.5 171 Q231 173 232 175 L264 255 L113 255 Q110 255 108.5 256.5 Q107 258 107 261 L107 264 Q107 267 108.5 268.5 Q110 270 113 270 L270 270 L327 410 L113 410 Q110 410 108.5 411.5 Q107 413 107 416 L107 419 Q107 422 108.5 423.5 Q110 425 113 425 L333 425 L365 505 Q366 507 368 509 Q370 511 373 511 L376 511 Q379 511 380 509.5 Q381 508 380 505 L348 425 L503 425 Q506 425 507.5 423.5 Q509 422 509 419 L509 416 Q509 413 507.5 411.5 Q506 410 503 410 L342 410 L285 270 L503 270 Q506 270 507.5 268.5 Q509 267 509 264 L509 261 Q509 258 507.5 256.5 Q506 255 503 255 L279 255 L247 175 Z " />
<glyph glyph-name="AE" unicode="&#xc6;" horiz-adv-x="831" d="M417 589 L178 247 L407 247 L456 647 Q447 632 437 617 Q427 602 417 589 Z M-4 0 Q-7 0 -9 1 Q-11 2 -9 6 L456 674 Q457 676 460.5 678 Q464 680 469 680 L807 680 Q810 680 811 678.5 Q812 677 812 674 L812 671 Q812 668 810 666.5 Q808 665 805 665 L474 665 L438 368 L750 368 Q753 368 754 366.5 Q755 365 755 362 L755 359 Q755 356 753 354.5 Q751 353 748 353 L436 353 L394 15 L738 15 Q741 15 742 13.5 Q743 12 743 9 L743 6 Q743 3 741.5 1.5 Q740 0 737 0 L388 0 Q384 0 380 1 Q376 2 377 8 L405 232 L167 232 L9 6 Q7 3 5 1.5 Q3 0 0 0 L-4 0 Z " />
<glyph glyph-name="Oslash" unicode="&#xd8;" horiz-adv-x="579" d="M90 105 Q90 87 95 71.5 Q100 56 113 44 L463 647 Q444 659 412.5 666 Q381 673 335 673 Q231 673 190.5 639.5 Q150 606 144 557 L91 123 Q90 117 90 112.5 Q90 108 90 105 Z M253 7 Q357 7 398.5 40.5 Q440 74 446 123 L499 557 Q500 563 500 567.5 Q500 572 500 575 Q500 593 494.5 608.5 Q489 624 476 637 L125 34 Q144 21 175.5 14 Q207 7 253 7 Z M97 -14 Q95 -18 93 -20 Q91 -22 88 -22 L81 -22 Q78 -22 77.5 -20 Q77 -18 79 -14 L104 29 Q88 42 81 59.5 Q74 77 74 99 Q74 102 74 108.5 Q74 115 75 123 L128 557 Q135 614 179 651 Q223 688 337 688 Q384 688 417 681 Q450 674 471 661 L492 696 Q493 698 495.5 700 Q498 702 501 702 L507 702 Q510 702 510.5 700 Q511 698 510 696 L484 651 Q501 637 508.5 618 Q516 599 516 577 Q516 573 516 568.5 Q516 564 515 557 L462 123 Q455 66 410.5 29 Q366 -8 252 -8 Q204 -8 171 -0.5 Q138 7 116 20 L97 -14 Z " />
<glyph glyph-name="infinity" unicode="&#x221e;" horiz-adv-x="360" d="M57 330 L160 433 Q165 438 170 440.5 Q175 443 180 443 Q184 443 189.5 440.5 Q195 438 200 433 L303 330 Q308 325 310.5 319.5 Q313 314 313 310 Q313 305 310.5 300 Q308 295 303 290 L200 187 Q195 182 189.5 179 Q184 176 180 176 Q175 176 170 179 Q165 182 160 187 L57 290 Q52 295 49 300 Q46 305 46 310 Q46 314 49 319.5 Q52 325 57 330 Z M172 422 L68 318 Q66 316 65 314 Q64 312 64 310 Q64 308 65 306 Q66 304 68 302 L172 198 Q174 196 176 195 Q178 194 180 194 Q182 194 184 195 Q186 196 188 198 L292 302 Q293 303 294.5 305.5 Q296 308 296 310 Q296 312 295 314 Q294 316 292 318 L188 422 Q186 424 184 425 Q182 426 180 426 Q178 426 175.5 424.5 Q173 423 172 422 Z " />
<glyph glyph-name="plusminus" unicode="&#xb1;" horiz-adv-x="609" d="M291 223 L291 372 L104 372 Q101 372 99.5 373.5 Q98 375 98 378 L98 381 Q98 384 99.5 385.5 Q101 387 104 387 L291 387 L291 534 Q291 537 292.5 538.5 Q294 540 297 540 L300 540 Q303 540 304.5 538.5 Q306 537 306 534 L306 387 L495 387 Q498 387 499.5 385.5 Q501 384 501 381 L501 378 Q501 375 499.5 373.5 Q498 372 495 372 L306 372 L306 223 Q306 220 304.5 218.5 Q303 217 300 217 L297 217 Q294 217 292.5 218.5 Q291 220 291 223 Z M104 153 L495 153 Q498 153 499.5 151.5 Q501 150 501 147 L501 144 Q501 141 499.5 139.5 Q498 138 495 138 L104 138 Q101 138 99.5 139.5 Q98 141 98 144 L98 147 Q98 150 99.5 151.5 Q101 153 104 153 Z " />
<glyph glyph-name="lessequal" unicode="&#x2264;" horiz-adv-x="558" d="M449 528 L112 391 L449 254 Q452 253 453.5 251 Q455 249 455 247 L455 241 Q455 238 453 237.5 Q451 237 449 238 L100 382 Q97 383 95.5 384.5 Q94 386 94 389 L94 393 Q94 395 95.5 397 Q97 399 100 400 L449 544 Q451 545 453 544.5 Q455 544 455 541 L455 535 Q455 533 453.5 531 Q452 529 449 528 Z M101 163 L449 163 Q452 163 453.5 161.5 Q455 160 455 157 L455 154 Q455 151 453.5 149.5 Q452 148 449 148 L101 148 Q98 148 96.5 149.5 Q95 151 95 154 L95 157 Q95 160 96.5 161.5 Q98 163 101 163 Z " />
<glyph glyph-name="greaterequal" unicode="&#x2265;" horiz-adv-x="566" d="M444 391 L107 528 Q104 529 102.5 531 Q101 533 101 535 L101 541 Q101 544 103 544.5 Q105 545 107 544 L456 400 Q459 399 460.5 397 Q462 395 462 393 L462 389 Q462 386 460.5 384.5 Q459 383 456 382 L107 238 Q105 237 103 237.5 Q101 238 101 241 L101 247 Q101 249 102.5 251 Q104 253 107 254 L444 391 Z M107 163 L455 163 Q458 163 459.5 161.5 Q461 160 461 157 L461 154 Q461 151 459.5 149.5 Q458 148 455 148 L107 148 Q104 148 102.5 149.5 Q101 151 101 154 L101 157 Q101 160 102.5 161.5 Q104 163 107 163 Z " />
<glyph glyph-name="yen" unicode="&#xa5;" horiz-adv-x="532" d="M237 6 Q236 2 235 1 Q234 0 230 0 L226 0 Q224 0 222.5 1.5 Q221 3 221 6 L256 291 L89 291 Q86 291 85 292.5 Q84 294 84 297 L84 300 Q84 303 85.5 304.5 Q87 306 90 306 L249 306 L208 402 L103 402 Q100 402 98.5 403.5 Q97 405 97 408 L97 411 Q97 414 99 415.5 Q101 417 104 417 L201 417 L90 674 Q89 678 90.5 679 Q92 680 95 680 L100 680 Q103 680 104.5 679 Q106 678 107 674 L256 330 Q258 326 261.5 318 Q265 310 266 306 L267 306 Q269 312 273 317.5 Q277 323 281 330 L513 674 Q515 677 517 678.5 Q519 680 522 680 L528 680 Q531 680 532 679 Q533 678 531 674 L357 417 L454 417 Q457 417 458.5 415.5 Q460 414 460 411 L460 408 Q460 405 458 403.5 Q456 402 453 402 L347 402 L281 306 L440 306 Q443 306 444.5 304.5 Q446 303 446 300 L446 297 Q446 294 444 292.5 Q442 291 439 291 L272 291 L237 6 Z " />
<glyph glyph-name="mu" unicode="&#x3bc;" horiz-adv-x="506" d="M366 6 L370 55 Q348 37 301.5 14.5 Q255 -8 189 -8 Q142 -8 114 7 Q86 22 75 47 L46 -205 Q46 -208 44.5 -209.5 Q43 -211 40 -211 L36 -211 Q33 -211 31.5 -209.5 Q30 -208 30 -205 L115 484 Q116 487 117.5 488.5 Q119 490 122 490 L126 490 Q128 490 130 489 Q132 488 131 484 L86 122 Q85 112 84 103 Q83 94 83 91 Q83 54 108.5 30.5 Q134 7 191 7 Q260 7 307 32.5 Q354 58 373 73 L423 484 Q423 487 425 488.5 Q427 490 430 490 L434 490 Q436 490 438 489 Q440 488 439 484 L380 6 Q380 3 378.5 1.5 Q377 0 374 0 L372 0 Q369 0 367.5 1.5 Q366 3 366 6 Z " />
<glyph glyph-name="partialdiff" unicode="&#x2202;" horiz-adv-x="360" d="M88 201 L88 422 Q88 432 97.5 433.5 Q107 435 116 429 L283 326 Q291 321 291 312 Q291 303 283 298 L116 195 Q107 190 97.5 190.5 Q88 191 88 201 Z " />
<glyph glyph-name="summation" unicode="&#x2211;" horiz-adv-x="360" d="M272 422 L272 201 Q272 191 262.5 190.5 Q253 190 244 195 L77 298 Q69 303 69 312 Q69 321 77 326 L244 429 Q253 435 262.5 433.5 Q272 432 272 422 Z " />
<glyph glyph-name="product" unicode="&#x220f;" horiz-adv-x="360" d="M292 209 L71 209 Q61 209 59.5 218.5 Q58 228 64 237 L167 404 Q172 412 181 412 Q190 412 195 404 L298 237 Q303 228 302.5 218.5 Q302 209 292 209 Z " />
<glyph glyph-name="pi" unicode="&#x3c0;" horiz-adv-x="363" d="M79 415 L300 415 Q310 415 311.5 405.5 Q313 396 307 387 L204 220 Q199 212 190 212 Q181 212 176 220 L73 387 Q68 396 68.5 405.5 Q69 415 79 415 Z " />
<glyph glyph-name="integral" unicode="&#x222b;" horiz-adv-x="360" d="M34 309 Q34 369 76.5 412.5 Q119 456 179 456 Q239 456 282.5 412.5 Q326 369 326 309 Q326 249 282.5 206.5 Q239 164 179 164 Q119 164 76.5 206.5 Q34 249 34 309 Z " />
<glyph glyph-name="ordfeminine" unicode="&#xaa;" horiz-adv-x="373" d="M134 621 L115 467 Q114 460 113.5 454.5 Q113 449 113 443 Q113 421 126 409 Q139 397 173 397 Q216 397 246 413 Q276 429 287 438 L311 634 Q301 643 275.5 659 Q250 675 208 675 Q172 675 154.5 660.5 Q137 646 134 621 Z M285 422 Q270 412 241 398 Q212 384 172 384 Q135 384 117 399.5 Q99 415 99 440 Q99 443 99.5 449 Q100 455 101 460 L121 621 Q125 650 146 669 Q167 688 210 688 Q248 688 274.5 674 Q301 660 313 650 L318 676 Q319 680 320.5 681.5 Q322 683 324 683 L326 683 Q329 683 329.5 681 Q330 679 330 678 L295 392 Q295 391 293.5 390 Q292 389 290 389 L285 389 Q284 389 283 390 Q282 391 282 392 L285 422 Z " />
<glyph glyph-name="ordmasculine" unicode="&#xba;" horiz-adv-x="364" d="M101 469 L120 620 Q124 650 146.5 669 Q169 688 229 688 Q280 688 301.5 672 Q323 656 323 630 Q323 628 322.5 622.5 Q322 617 321 611 L301 452 Q297 422 274.5 403 Q252 384 192 384 Q141 384 120 400 Q99 416 99 442 Q99 446 99.5 455.5 Q100 465 101 469 Z M287 453 L307 611 Q308 618 308.5 622.5 Q309 627 309 629 Q309 649 291.5 662.5 Q274 676 228 676 Q177 676 157 660 Q137 644 134 620 L115 470 Q114 465 113.5 456.5 Q113 448 113 444 Q113 423 130 409.5 Q147 396 193 396 Q244 396 264 412 Q284 428 287 453 Z " />
<glyph glyph-name="Omega" unicode="&#x3a9;" horiz-adv-x="360" d="M70 309 Q70 354 102 386.5 Q134 419 179 419 Q224 419 256.5 386.5 Q289 354 289 309 Q289 264 256.5 232 Q224 200 179 200 Q134 200 102 232 Q70 264 70 309 Z M86 309 Q86 270 113 243 Q140 216 179 216 Q218 216 245.5 243 Q273 270 273 309 Q273 348 245.5 375.5 Q218 403 179 403 Q140 403 113 375.5 Q86 348 86 309 Z " />
<glyph glyph-name="ae" unicode="&#xe6;" horiz-adv-x="791" d="M725 386 L709 260 Q708 257 707 255.5 Q706 254 703 254 L395 254 L377 111 Q376 105 375.5 98.5 Q375 92 375 88 Q375 52 404.5 29.5 Q434 7 513 7 Q600 7 634 35 Q668 63 674 104 L678 133 Q679 136 680.5 137.5 Q682 139 685 139 L689 139 Q692 139 693.5 137.5 Q695 136 694 133 L690 104 Q683 55 646.5 23.5 Q610 -8 511 -8 Q434 -8 399.5 13.5 Q365 35 360 69 Q336 50 287.5 21 Q239 -8 166 -8 Q106 -8 75.5 18 Q45 44 45 86 Q45 89 45 93 Q45 97 46 104 L51 146 Q57 195 89 226 Q121 257 178 257 L379 257 L394 378 Q395 384 395.5 391 Q396 398 396 402 Q396 437 367.5 460 Q339 483 261 483 Q174 483 141.5 455 Q109 427 103 386 L100 365 Q99 362 98 360.5 Q97 359 94 359 L90 359 Q87 359 85 360.5 Q83 362 84 365 L87 386 Q94 435 129.5 466.5 Q165 498 263 498 Q334 498 367.5 479.5 Q401 461 409 431 Q424 461 462 479.5 Q500 498 574 498 Q660 498 693 471.5 Q726 445 726 404 Q726 402 726 397.5 Q726 393 725 386 Z M411 386 L396 269 L694 269 L709 386 Q710 392 710 396 Q710 400 710 401 Q710 436 680.5 459.5 Q651 483 572 483 Q485 483 450.5 455 Q416 427 411 386 Z M168 7 Q238 7 288.5 38.5 Q339 70 358 86 L377 242 L176 242 Q128 242 100 214.5 Q72 187 67 146 L62 104 Q61 97 61 94 Q61 91 61 89 Q61 54 86.5 30.5 Q112 7 168 7 Z " />
<glyph glyph-name="oslash" unicode="&#xf8;" horiz-adv-x="497" d="M75 89 Q75 76 78.5 64 Q82 52 91 42 L382 458 Q366 470 339 476.5 Q312 483 272 483 Q185 483 150.5 455 Q116 427 111 386 L76 104 Q75 98 75 94.5 Q75 91 75 89 Z M213 7 Q300 7 334.5 35 Q369 63 374 104 L409 386 Q410 393 410 396.5 Q410 400 410 401 Q410 414 406 426.5 Q402 439 393 449 L101 32 Q117 20 144 13.5 Q171 7 213 7 Z M67 -16 Q66 -18 64.5 -20 Q63 -22 60 -22 L54 -22 Q51 -22 50 -20 Q49 -18 50 -16 L81 28 Q69 39 64 54 Q59 69 59 86 Q59 90 59 93.5 Q59 97 60 104 L95 386 Q101 435 138.5 466.5 Q176 498 274 498 Q317 498 346 491 Q375 484 392 472 L418 509 Q419 511 421.5 513 Q424 515 427 515 L433 515 Q436 515 436 513 Q436 511 435 509 L403 463 Q415 452 420.5 436.5 Q426 421 426 404 Q426 402 426 398 Q426 394 425 386 L390 104 Q384 55 346.5 23.5 Q309 -8 211 -8 Q168 -8 138.5 -1 Q109 6 91 19 L67 -16 Z " />
<glyph glyph-name="questiondown" unicode="&#xbf;" horiz-adv-x="486" d="M255 409 L264 484 Q264 487 266 488.5 Q268 490 271 490 L275 490 Q278 490 279 488.5 Q280 487 280 484 L271 410 Q271 407 269 405 Q267 403 264 403 L260 403 Q257 403 256 404.5 Q255 406 255 409 Z M262 339 L251 252 Q245 206 214.5 182.5 Q184 159 170 152 L117 126 Q103 119 76 97 Q49 75 44 34 L31 -67 Q30 -74 30 -78.5 Q30 -83 30 -87 Q30 -129 63 -156 Q96 -183 190 -183 Q294 -183 331.5 -149.5 Q369 -116 376 -67 L383 -13 Q384 -9 385.5 -8 Q387 -7 390 -7 L394 -7 Q398 -7 398.5 -9 Q399 -11 399 -13 L392 -67 Q385 -124 343.5 -161 Q302 -198 188 -198 Q87 -198 50.5 -167.5 Q14 -137 14 -89 Q14 -85 14 -79.5 Q14 -74 15 -67 L28 34 Q35 84 65.5 108.5 Q96 133 115 142 L168 168 Q182 175 206.5 195 Q231 215 235 252 L246 339 Q247 342 248.5 343.5 Q250 345 253 345 L257 345 Q261 345 261.5 343 Q262 341 262 339 Z " />
<glyph glyph-name="exclamdown" unicode="&#xa1;" horiz-adv-x="196" d="M104 409 L114 484 Q115 487 116 488.5 Q117 490 121 490 L124 490 Q127 490 129 488.5 Q131 487 130 484 L120 409 Q119 406 117.5 404.5 Q116 403 113 403 L109 403 Q106 403 105 405 Q104 407 104 409 Z M65 100 L97 339 Q98 342 99.5 343.5 Q101 345 104 345 L106 345 Q109 345 110 343.5 Q111 342 111 339 L83 100 L49 -184 Q49 -187 47 -188.5 Q45 -190 42 -190 L36 -190 Q33 -190 32 -188.5 Q31 -187 31 -184 L65 100 Z " />
<glyph glyph-name="logicalnot" unicode="&#xac;" horiz-adv-x="359" d="M79 309 Q79 351 108.5 381 Q138 411 180 411 Q222 411 252 381 Q282 351 282 309 Q282 267 252 237.5 Q222 208 180 208 Q138 208 108.5 237.5 Q79 267 79 309 Z " />
<glyph glyph-name="radical" unicode="&#x221a;" horiz-adv-x="360" d="M107 411 L253 411 Q268 411 274.5 404.5 Q281 398 281 383 L281 237 Q281 222 274.5 215.5 Q268 209 253 209 L107 209 Q92 209 85.5 215.5 Q79 222 79 237 L79 383 Q79 398 85.5 404.5 Q92 411 107 411 Z M253 395 L107 395 Q101 395 98 392 Q95 389 95 383 L95 237 Q95 231 98 228 Q101 225 107 225 L253 225 Q259 225 262 228 Q265 231 265 237 L265 383 Q265 389 262 392 Q259 395 253 395 Z " />
<glyph glyph-name="florin" unicode="&#x192;" horiz-adv-x="401" d="M73 -106 L195 385 L81 385 Q78 385 76.5 386.5 Q75 388 75 391 L75 394 Q75 397 77 398.5 Q79 400 82 400 L199 400 L247 596 Q259 644 299 676 Q339 708 436 708 L439 708 Q442 708 443 706.5 Q444 705 444 702 L444 699 Q444 696 442.5 694.5 Q441 693 438 693 L434 693 Q347 693 310 665 Q273 637 263 596 L214 400 L331 400 Q334 400 335 398 Q336 396 336 394 L336 391 Q336 388 334.5 386.5 Q333 385 330 385 L210 385 L89 -106 Q77 -155 36 -186.5 Q-5 -218 -100 -218 L-103 -218 Q-105 -218 -106 -216.5 Q-107 -215 -107 -212 L-107 -209 Q-107 -206 -105.5 -204.5 Q-104 -203 -101 -203 L-97 -203 Q-10 -203 26.5 -175 Q63 -147 73 -106 Z " />
<glyph glyph-name="approxequal" unicode="&#x2248;" horiz-adv-x="470" d="M191 413 Q184 417 174 421.5 Q164 426 155 426 Q132 426 123.5 412.5 Q115 399 115 358 L115 348 Q115 345 113.5 343.5 Q112 342 109 342 L105 342 Q102 342 100.5 343.5 Q99 345 99 348 L99 358 Q99 407 114 424 Q129 441 155 441 Q165 441 178 435.5 Q191 430 205 421 L284 371 Q292 366 303.5 361.5 Q315 357 324 357 Q347 357 354.5 370.5 Q362 384 362 425 L362 435 Q362 438 363.5 439.5 Q365 441 368 441 L372 441 Q375 441 376.5 439.5 Q378 438 378 435 L378 425 Q378 376 364 359 Q350 342 324 342 Q314 342 298.5 348.5 Q283 355 270 363 L191 413 Z M191 279 Q184 283 174 287.5 Q164 292 155 292 Q132 292 123.5 278.5 Q115 265 115 224 L115 214 Q115 211 113.5 209.5 Q112 208 109 208 L105 208 Q102 208 100.5 209.5 Q99 211 99 214 L99 224 Q99 273 114 290 Q129 307 155 307 Q165 307 178 301.5 Q191 296 205 287 L284 237 Q292 232 303.5 227.5 Q315 223 324 223 Q347 223 354.5 236.5 Q362 250 362 291 L362 301 Q362 304 363.5 305.5 Q365 307 368 307 L372 307 Q375 307 376.5 305.5 Q378 304 378 301 L378 291 Q378 242 364 225 Q350 208 324 208 Q314 208 298.5 214.5 Q283 221 270 229 L191 279 Z " />
<glyph glyph-name="increment" unicode="&#x394;" horiz-adv-x="360" d="M107 403 L253 403 Q263 403 268 398 Q273 393 273 383 L273 237 Q273 227 268 222 Q263 217 253 217 L107 217 Q97 217 92 222 Q87 227 87 237 L87 383 Q87 393 92 398 Q97 403 107 403 Z " />
<glyph glyph-name="guillemotleft" unicode="&#xab;" horiz-adv-x="510" d="M241 245 L401 112 Q404 110 405 108 Q406 106 406 104 L405 95 Q405 93 402.5 92.5 Q400 92 399 93 L229 237 Q227 239 226 241.5 Q225 244 225 245 L225 246 Q225 248 227.5 251 Q230 254 232 255 L436 399 Q438 400 440.5 400 Q443 400 442 397 L441 389 Q441 387 439 384.5 Q437 382 434 380 L241 245 Z M56 245 L216 112 Q219 110 220 108 Q221 106 221 104 L220 95 Q220 93 217.5 92.5 Q215 92 214 93 L44 237 Q42 239 41 241.5 Q40 244 40 245 L40 246 Q40 248 42.5 251 Q45 254 47 255 L251 399 Q253 400 255.5 400 Q258 400 257 397 L256 389 Q256 387 254 384.5 Q252 382 249 380 L56 245 Z " />
<glyph glyph-name="guillemotright" unicode="&#xbb;" horiz-adv-x="509" d="M259 253 L99 386 Q96 388 95 390 Q94 392 94 394 L95 403 Q95 405 97.5 405.5 Q100 406 101 405 L271 261 Q273 259 274 256.5 Q275 254 275 253 L275 252 Q275 250 272.5 247 Q270 244 268 243 L64 99 Q62 98 59.5 98 Q57 98 58 101 L59 109 Q59 111 61 113.5 Q63 116 66 118 L259 253 Z M444 253 L284 386 Q281 388 280 390 Q279 392 279 394 L280 403 Q280 405 282.5 405.5 Q285 406 286 405 L456 261 Q458 259 459 256.5 Q460 254 460 253 L460 252 Q460 250 457.5 247 Q455 244 453 243 L249 99 Q247 98 244.5 98 Q242 98 243 101 L244 109 Q244 111 246 113.5 Q248 116 251 118 L444 253 Z " />
<glyph glyph-name="ellipsis" unicode="&#x2026;" horiz-adv-x="676" d="M76 81 L67 6 Q67 3 65 1.5 Q63 0 61 0 L57 0 Q54 0 52 1 Q50 2 51 6 L60 81 Q60 83 61.5 85 Q63 87 66 87 L71 87 Q74 87 75 85.5 Q76 84 76 81 Z M571 81 L562 6 Q562 3 560 1.5 Q558 0 556 0 L552 0 Q549 0 547 1 Q545 2 546 6 L555 81 Q555 83 556.5 85 Q558 87 561 87 L566 87 Q569 87 570 85.5 Q571 84 571 81 Z M324 81 L315 6 Q315 3 313 1.5 Q311 0 309 0 L305 0 Q302 0 300 1 Q298 2 299 6 L308 81 Q308 83 309.5 85 Q311 87 314 87 L319 87 Q322 87 323 85.5 Q324 84 324 81 Z " />
<glyph glyph-name="Agrave" unicode="&#xc0;" horiz-adv-x="512" d="M381 247 L316 586 Q313 601 309 621.5 Q305 642 302 658 Q297 643 288 622 Q279 601 274 589 L124 247 L381 247 Z M303 680 L308 680 Q311 680 312.5 678.5 Q314 677 315 674 L443 6 Q444 3 442.5 1.5 Q441 0 439 0 L434 0 Q431 0 429.5 1.5 Q428 3 427 6 L383 232 L117 232 L18 6 Q17 3 15.5 1.5 Q14 0 11 0 L7 0 Q3 0 2 2.5 Q1 5 2 6 L294 674 Q295 677 297.5 678.5 Q300 680 303 680 Z M284 747 L215 872 Q214 873 214.5 875.5 Q215 878 219 878 L225 878 Q228 878 229.5 876.5 Q231 875 232 874 L298 749 Q299 747 298.5 745.5 Q298 744 296 744 L291 744 Q288 744 286.5 745 Q285 746 284 747 Z " />
<glyph glyph-name="Atilde" unicode="&#xc3;" horiz-adv-x="512" d="M381 247 L316 586 Q313 601 309 621.5 Q305 642 302 658 Q297 643 288 622 Q279 601 274 589 L124 247 L381 247 Z M303 680 L308 680 Q311 680 312.5 678.5 Q314 677 315 674 L443 6 Q444 3 442.5 1.5 Q441 0 439 0 L434 0 Q431 0 429.5 1.5 Q428 3 427 6 L383 232 L117 232 L18 6 Q17 3 15.5 1.5 Q14 0 11 0 L7 0 Q3 0 2 2.5 Q1 5 2 6 L294 674 Q295 677 297.5 678.5 Q300 680 303 680 Z M247 848 Q225 848 214.5 834 Q204 820 200 780 L199 770 Q199 767 197 765.5 Q195 764 192 764 L188 764 Q185 764 184 765.5 Q183 767 183 770 L184 782 Q188 831 204 847 Q220 863 247 863 Q257 863 270 857 Q283 851 293 839 L331 796 Q337 789 345.5 784 Q354 779 363 779 Q385 779 395.5 792.5 Q406 806 410 847 L411 857 Q411 860 413 861.5 Q415 863 418 863 L422 863 Q425 863 426 861.5 Q427 860 427 857 L426 845 Q422 796 405.5 780 Q389 764 363 764 Q353 764 340.5 770 Q328 776 317 788 L279 830 Q272 837 264 842.5 Q256 848 247 848 Z " />
<glyph glyph-name="Otilde" unicode="&#xd5;" horiz-adv-x="579" d="M75 123 L128 557 Q135 614 179 651 Q223 688 337 688 Q438 688 477 657 Q516 626 516 577 Q516 572 516 568 Q516 564 515 557 L462 123 Q455 66 410.5 29 Q366 -8 252 -8 Q151 -8 112 22.5 Q73 53 73 101 Q73 106 73.5 111.5 Q74 117 75 123 Z M446 123 L499 557 Q500 564 500 567.5 Q500 571 500 575 Q500 618 465 645.5 Q430 673 335 673 Q231 673 190.5 639.5 Q150 606 144 557 L91 123 Q90 119 90 113.5 Q90 108 90 104 Q90 62 124 34.5 Q158 7 253 7 Q357 7 398.5 40.5 Q440 74 446 123 Z M292 848 Q270 848 259.5 834 Q249 820 245 780 L244 770 Q244 767 242 765.5 Q240 764 237 764 L233 764 Q230 764 229 765.5 Q228 767 228 770 L229 782 Q233 831 249 847 Q265 863 292 863 Q302 863 315 857 Q328 851 338 839 L376 796 Q382 789 390.5 784 Q399 779 408 779 Q430 779 440.5 792.5 Q451 806 455 847 L456 857 Q456 860 458 861.5 Q460 863 463 863 L467 863 Q470 863 471 861.5 Q472 860 472 857 L471 845 Q467 796 450.5 780 Q434 764 408 764 Q398 764 385.5 770 Q373 776 362 788 L324 830 Q317 837 309 842.5 Q301 848 292 848 Z " />
<glyph glyph-name="OE" unicode="&#x152;" horiz-adv-x="886" d="M253 7 Q357 7 398 39.5 Q439 72 445 121 L499 559 Q500 566 500 569.5 Q500 573 500 575 Q500 618 465 645.5 Q430 673 335 673 Q231 673 190.5 639.5 Q150 606 144 557 L91 123 Q90 116 90 112 Q90 108 90 104 Q90 61 124.5 34 Q159 7 253 7 Z M431 6 L437 54 Q416 26 372 9 Q328 -8 252 -8 Q151 -8 112 22.5 Q73 53 73 101 Q73 106 73.5 111.5 Q74 117 75 123 L128 557 Q135 614 179 651 Q223 688 337 688 Q412 688 452.5 670 Q493 652 507 622 L513 674 Q514 677 515.5 678.5 Q517 680 520 680 L861 680 Q864 680 865 678.5 Q866 677 866 674 L866 671 Q866 668 864 666.5 Q862 665 859 665 L528 665 L492 368 L803 368 Q805 368 807 367 Q809 366 809 363 L809 359 Q809 356 807 354.5 Q805 353 802 353 L490 353 L448 15 L792 15 Q794 15 795.5 13.5 Q797 12 797 9 L797 6 Q797 3 795.5 1.5 Q794 0 791 0 L436 0 Q434 0 432.5 1.5 Q431 3 431 6 Z " />
<glyph glyph-name="oe" unicode="&#x153;" horiz-adv-x="805" d="M525 -8 Q452 -8 417.5 11.5 Q383 31 376 63 Q363 31 324.5 11.5 Q286 -8 211 -8 Q125 -8 92 18.5 Q59 45 59 86 Q59 88 59 92.5 Q59 97 60 104 L95 386 Q101 435 138.5 466.5 Q176 498 274 498 Q349 498 382 477.5 Q415 457 421 424 Q435 458 473 478 Q511 498 588 498 Q674 498 707 471.5 Q740 445 740 404 Q740 402 740 397.5 Q740 393 739 386 L723 260 Q722 257 721 255.5 Q720 254 717 254 L409 254 L390 104 Q389 99 389 96 Q389 93 389 89 Q389 53 418.5 30 Q448 7 527 7 Q614 7 648 35 Q682 63 688 104 L692 133 Q693 136 694.5 137.5 Q696 139 699 139 L703 139 Q706 139 707.5 137.5 Q709 136 708 133 L704 104 Q697 55 660.5 23.5 Q624 -8 525 -8 Z M374 104 L409 386 Q410 392 410 394.5 Q410 397 410 401 Q410 436 380.5 459.5 Q351 483 272 483 Q185 483 150.5 455 Q116 427 111 386 L76 104 Q75 98 75 94 Q75 90 75 89 Q75 53 104.5 30 Q134 7 213 7 Q300 7 334.5 35 Q369 63 374 104 Z M708 269 L723 386 Q724 392 724 396 Q724 400 724 401 Q724 436 694.5 459.5 Q665 483 586 483 Q499 483 464.5 455 Q430 427 425 386 L410 269 L708 269 Z " />
<glyph glyph-name="endash" unicode="&#x2013;" horiz-adv-x="514" d="M80 297 L433 297 Q436 297 437.5 295.5 Q439 294 439 291 L439 288 Q439 285 437.5 283.5 Q436 282 433 282 L80 282 Q77 282 75.5 283.5 Q74 285 74 288 L74 291 Q74 294 75.5 295.5 Q77 297 80 297 Z " />
<glyph glyph-name="emdash" unicode="&#x2014;" horiz-adv-x="822" d="M80 297 L741 297 Q744 297 745.5 295.5 Q747 294 747 291 L747 288 Q747 285 745.5 283.5 Q744 282 741 282 L80 282 Q77 282 75.5 283.5 Q74 285 74 288 L74 291 Q74 294 75.5 295.5 Q77 297 80 297 Z " />
<glyph glyph-name="quotedblleft" unicode="&#x201c;" horiz-adv-x="298" d="M234 610 L227 555 Q226 552 224.5 550.5 Q223 549 220 549 L216 549 Q213 549 211.5 550.5 Q210 552 211 555 L218 610 Q222 644 239 668.5 Q256 693 292 707 Q294 708 296 707.5 Q298 707 299 705 L301 701 Q302 698 301 696 Q300 694 297 693 Q264 677 251 657.5 Q238 638 234 610 Z M128 610 L121 555 Q120 552 118.5 550.5 Q117 549 114 549 L110 549 Q107 549 105.5 550.5 Q104 552 105 555 L112 610 Q116 644 133 668.5 Q150 693 186 707 Q188 708 190 707.5 Q192 707 193 705 L195 701 Q196 698 195 696 Q194 694 191 693 Q158 677 145 657.5 Q132 638 128 610 Z " />
<glyph glyph-name="quotedblright" unicode="&#x201d;" horiz-adv-x="306" d="M160 647 L167 702 Q168 705 169.5 706.5 Q171 708 174 708 L178 708 Q181 708 182.5 706.5 Q184 705 183 702 L176 647 Q172 613 155 588.5 Q138 564 102 550 Q100 549 98 549.5 Q96 550 95 552 L93 556 Q92 559 93 561 Q94 563 97 564 Q130 580 143 599.5 Q156 619 160 647 Z M266 647 L273 702 Q274 705 275.5 706.5 Q277 708 280 708 L284 708 Q287 708 288.5 706.5 Q290 705 289 702 L282 647 Q278 613 261 588.5 Q244 564 208 550 Q206 549 204 549.5 Q202 550 201 552 L199 556 Q198 559 199 561 Q200 563 203 564 Q236 580 249 599.5 Q262 619 266 647 Z " />
<glyph glyph-name="quoteleft" unicode="&#x2018;" horiz-adv-x="192" d="M128 610 L121 555 Q120 552 118.5 550.5 Q117 549 114 549 L110 549 Q107 549 105.5 550.5 Q104 552 105 555 L112 610 Q116 644 133 668.5 Q150 693 186 707 Q188 708 190 707.5 Q192 707 193 705 L195 701 Q196 698 195 696 Q194 694 191 693 Q158 677 145 657.5 Q132 638 128 610 Z " />
<glyph glyph-name="quoteright" unicode="&#x2019;" horiz-adv-x="200" d="M160 647 L167 702 Q168 705 169.5 706.5 Q171 708 174 708 L178 708 Q181 708 182.5 706.5 Q184 705 183 702 L176 647 Q172 613 155 588.5 Q138 564 102 550 Q100 549 98 549.5 Q96 550 95 552 L93 556 Q92 559 93 561 Q94 563 97 564 Q130 580 143 599.5 Q156 619 160 647 Z " />
<glyph glyph-name="divide" unicode="&#xf7;" horiz-adv-x="586" d="M306 536 L306 461 Q306 458 304.5 456.5 Q303 455 300 455 L296 455 Q293 455 291.5 456.5 Q290 458 290 461 L290 536 Q290 539 291.5 540.5 Q293 542 296 542 L300 542 Q303 542 304.5 540.5 Q306 539 306 536 Z M102 347 L494 347 Q495 347 497.5 346 Q500 345 500 342 L500 338 Q500 336 499 334 Q498 332 494 332 L103 332 Q100 332 98.5 333.5 Q97 335 97 338 L97 341 Q97 344 98.5 345.5 Q100 347 102 347 Z M306 220 L306 145 Q306 142 304.5 140.5 Q303 139 300 139 L296 139 Q293 139 291.5 140.5 Q290 142 290 145 L290 220 Q290 223 291.5 224.5 Q293 226 296 226 L300 226 Q303 226 304.5 224.5 Q306 223 306 220 Z " />
<glyph glyph-name="lozenge" unicode="&#x25ca;" horiz-adv-x="360" d="M63 324 L166 427 Q170 431 173 432.5 Q176 434 180 434 Q183 434 186.5 432.5 Q190 431 194 427 L297 324 Q301 320 302.5 316.5 Q304 313 304 310 Q304 306 302.5 303 Q301 300 297 296 L194 193 Q190 189 186.5 187 Q183 185 180 185 Q176 185 173 187 Q170 189 166 193 L63 296 Q59 300 57 303 Q55 306 55 310 Q55 313 57 316.5 Q59 320 63 324 Z " />
<glyph glyph-name="ydieresis" unicode="&#xff;" horiz-adv-x="419" d="M408 484 L88 -205 Q87 -208 84.5 -209.5 Q82 -211 80 -211 L74 -211 Q71 -211 70.5 -209.5 Q70 -208 71 -205 L168 3 L62 484 Q61 486 62 488 Q63 490 66 490 L72 490 Q74 490 75.5 488.5 Q77 487 78 484 L172 63 Q173 56 176 44.5 Q179 33 180 26 Q182 33 185.5 41.5 Q189 50 195 63 L391 484 Q392 487 394.5 488.5 Q397 490 399 490 L404 490 Q407 490 408 488.5 Q409 487 408 484 Z M295 694 L283 594 Q283 591 281 589.5 Q279 588 276 588 L272 588 Q269 588 268 589.5 Q267 591 267 594 L279 694 Q279 697 281 698.5 Q283 700 286 700 L290 700 Q293 700 294 698.5 Q295 697 295 694 Z M216 694 L204 594 Q204 591 202 589.5 Q200 588 197 588 L193 588 Q190 588 189 589.5 Q188 591 188 594 L200 694 Q200 697 202 698.5 Q204 700 207 700 L211 700 Q214 700 215 698.5 Q216 697 216 694 Z " />
<glyph glyph-name="Ydieresis" unicode="&#x178;" horiz-adv-x="502" d="M94 674 L243 330 Q245 326 248.5 318 Q252 310 253 305 Q256 311 260 317 Q264 323 268 330 L500 674 Q502 677 504 678.5 Q506 680 509 680 L515 680 Q518 680 519 679 Q520 678 518 674 L259 292 L224 6 Q223 2 222 1 Q221 0 217 0 L213 0 Q211 0 209.5 1.5 Q208 3 208 6 L243 291 L77 674 Q76 678 77.5 679 Q79 680 82 680 L87 680 Q90 680 91.5 679 Q93 678 94 674 Z M357 860 L345 760 Q345 757 343 755.5 Q341 754 338 754 L334 754 Q331 754 330 755.5 Q329 757 329 760 L341 860 Q341 863 343 864.5 Q345 866 348 866 L352 866 Q355 866 356 864.5 Q357 863 357 860 Z M278 860 L266 760 Q266 757 264 755.5 Q262 754 259 754 L255 754 Q252 754 251 755.5 Q250 757 250 760 L262 860 Q262 863 264 864.5 Q266 866 269 866 L273 866 Q276 866 277 864.5 Q278 863 278 860 Z " />
<glyph glyph-name="fraction" unicode="&#x2044;" horiz-adv-x="57" d="M234 682 L-150 -2 Q-151 -5 -153 -6.5 Q-155 -8 -158 -8 L-163 -8 Q-166 -8 -166.5 -6 Q-167 -4 -166 -2 L218 682 Q219 685 221.5 686.5 Q224 688 227 688 L231 688 Q234 688 234.5 686 Q235 684 234 682 Z " />
<glyph glyph-name="currency" unicode="&#xa4;" horiz-adv-x="639" d="M534 100 Q532 98 529 98 Q526 98 525 100 L434 203 Q414 190 383 182 Q352 174 307 174 Q261 174 230.5 182.5 Q200 191 184 205 L66 100 Q63 98 61 98 Q59 98 57 100 L55 102 Q53 104 53.5 106.5 Q54 109 56 111 L174 216 Q163 229 160 247.5 Q157 266 159 286 L172 394 Q174 415 182 433.5 Q190 452 205 466 L113 570 Q112 572 112 574 Q112 576 115 579 L117 581 Q119 583 121.5 583 Q124 583 126 581 L217 477 Q237 490 268 498 Q299 506 344 506 Q390 506 420 498 Q450 490 466 476 L585 581 Q587 583 589.5 583 Q592 583 594 581 L596 579 Q598 577 597.5 574.5 Q597 572 594 570 L477 465 Q488 451 491 433 Q494 415 492 394 L479 286 Q477 265 469 246.5 Q461 228 447 214 L537 111 Q539 109 538.5 106.5 Q538 104 536 102 L534 100 Z M188 394 L175 286 Q170 245 196.5 217 Q223 189 307 189 Q391 189 424.5 217 Q458 245 463 286 L476 394 Q481 435 454.5 463 Q428 491 344 491 Q260 491 226.5 463 Q193 435 188 394 Z " />
<glyph glyph-name="guilsinglleft" unicode="&#x2039;" horiz-adv-x="325" d="M56 245 L216 112 Q219 110 220 108 Q221 106 221 104 L220 95 Q220 93 217.5 92.5 Q215 92 214 93 L44 237 Q42 239 41 241.5 Q40 244 40 245 L40 246 Q40 248 42.5 251 Q45 254 47 255 L251 399 Q253 400 255.5 400 Q258 400 257 397 L256 389 Q256 387 254 384.5 Q252 382 249 380 L56 245 Z " />
<glyph glyph-name="guilsinglright" unicode="&#x203a;" horiz-adv-x="327" d="M260 246 L100 379 Q97 381 96 383 Q95 385 95 387 L96 396 Q96 398 98.5 398.5 Q101 399 102 398 L272 254 Q274 252 275 249.5 Q276 247 276 246 L276 245 Q276 243 273.5 240 Q271 237 269 236 L65 92 Q63 91 60.5 91 Q58 91 59 94 L60 102 Q60 104 62 106.5 Q64 109 67 111 L260 246 Z " />
<glyph glyph-name="fi" unicode="&#xfb01;" horiz-adv-x="501" d="M429 482 L370 6 Q370 4 368.5 2 Q367 0 364 0 L360 0 Q357 0 355.5 1.5 Q354 3 354 6 L412 474 L145 474 L61 -205 Q61 -208 59.5 -209.5 Q58 -211 55 -211 L51 -211 Q48 -211 46.5 -209.5 Q45 -208 45 -205 L129 474 L59 474 Q56 474 55 475.5 Q54 477 54 480 L54 481 Q54 484 55.5 485.5 Q57 487 60 487 L118 489 L131 489 L143 587 Q149 636 185.5 667.5 Q222 699 319 699 L418 699 Q421 699 422 697.5 Q423 696 423 693 L423 690 Q423 687 421.5 685.5 Q420 684 417 684 L318 684 Q231 684 197.5 656 Q164 628 159 587 L147 489 L423 489 Q427 489 428.5 487.5 Q430 486 429 482 Z " />
<glyph glyph-name="fl" unicode="&#xfb02;" horiz-adv-x="501" d="M455 693 L370 6 Q370 3 368.5 1.5 Q367 0 364 0 L360 0 Q357 0 355.5 1.5 Q354 3 354 6 L438 684 L318 684 Q231 684 197.5 656 Q164 628 159 587 L147 489 L277 489 Q280 489 281 487.5 Q282 486 282 483 L282 480 Q282 477 280.5 475.5 Q279 474 276 474 L145 474 L61 -205 Q61 -208 59.5 -209.5 Q58 -211 55 -211 L51 -211 Q48 -211 46.5 -209.5 Q45 -208 45 -205 L129 474 L59 474 Q56 474 55 475.5 Q54 477 54 480 L54 481 Q54 484 55.5 485.5 Q57 487 60 487 L118 489 L131 489 L143 587 Q149 636 185 667.5 Q221 699 319 699 L448 699 Q452 699 453.5 697.5 Q455 696 455 693 Z " />
<glyph glyph-name="daggerdbl" unicode="&#x2021;" horiz-adv-x="368" d="M243 693 L159 6 Q158 3 156.5 1.5 Q155 0 152 0 L148 0 Q146 0 144 1.5 Q142 3 143 6 L227 693 Q228 696 229.5 697.5 Q231 699 234 699 L238 699 Q241 699 242.5 697.5 Q244 696 243 693 Z M348 484 L348 481 Q348 478 346.5 476.5 Q345 475 342 475 L238 475 Q235 475 233.5 476.5 Q232 478 232 481 L232 484 Q232 487 233.5 488.5 Q235 490 238 490 L342 490 Q345 490 346.5 488.5 Q348 487 348 484 Z M68 484 Q68 487 69.5 488.5 Q71 490 74 490 L178 490 Q181 490 182.5 488.5 Q184 487 184 484 L184 481 Q184 478 182.5 476.5 Q181 475 178 475 L74 475 Q71 475 69.5 476.5 Q68 478 68 481 L68 484 Z M315 220 L315 217 Q315 214 313.5 212.5 Q312 211 309 211 L205 211 Q202 211 200.5 212.5 Q199 214 199 217 L199 220 Q199 223 200.5 224.5 Q202 226 205 226 L309 226 Q312 226 313.5 224.5 Q315 223 315 220 Z M35 220 Q35 223 36.5 224.5 Q38 226 41 226 L145 226 Q148 226 149.5 224.5 Q151 223 151 220 L151 217 Q151 214 149.5 212.5 Q148 211 145 211 L41 211 Q38 211 36.5 212.5 Q35 214 35 217 L35 220 Z " />
<glyph glyph-name="middot" unicode="&#xb7;" horiz-adv-x="192" d="M106 292 L97 217 Q97 214 95 212.5 Q93 211 91 211 L87 211 Q84 211 82 212 Q80 213 81 217 L90 292 Q90 294 91.5 296 Q93 298 96 298 L101 298 Q104 298 105 296.5 Q106 295 106 292 Z " />
<glyph glyph-name="quotesinglbase" unicode="&#x201a;" horiz-adv-x="132" d="M26 26 L33 81 Q34 84 35.5 85.5 Q37 87 40 87 L44 87 Q47 87 48.5 85.5 Q50 84 49 81 L42 26 Q38 -8 21 -32.5 Q4 -57 -32 -71 Q-34 -72 -36 -71.5 Q-38 -71 -39 -69 L-41 -65 Q-42 -62 -41 -60 Q-40 -58 -37 -57 Q-4 -41 9 -21.5 Q22 -2 26 26 Z " />
<glyph glyph-name="quotedblbase" unicode="&#x201e;" horiz-adv-x="238" d="M26 26 L33 81 Q34 84 35.5 85.5 Q37 87 40 87 L44 87 Q47 87 48.5 85.5 Q50 84 49 81 L42 26 Q38 -8 21 -32.5 Q4 -57 -32 -71 Q-34 -72 -36 -71.5 Q-38 -71 -39 -69 L-41 -65 Q-42 -62 -41 -60 Q-40 -58 -37 -57 Q-4 -41 9 -21.5 Q22 -2 26 26 Z M132 26 L139 81 Q140 84 141.5 85.5 Q143 87 146 87 L150 87 Q153 87 154.5 85.5 Q156 84 155 81 L148 26 Q144 -8 127 -32.5 Q110 -57 74 -71 Q72 -72 70 -71.5 Q68 -71 67 -69 L65 -65 Q64 -62 65 -60 Q66 -58 69 -57 Q102 -41 115 -21.5 Q128 -2 132 26 Z " />
<glyph glyph-name="perthousand" unicode="&#x2030;" horiz-adv-x="945" d="M543 682 L159 -2 Q158 -5 156 -6.5 Q154 -8 151 -8 L146 -8 Q143 -8 142.5 -6 Q142 -4 143 -2 L527 682 Q528 685 530.5 686.5 Q533 688 536 688 L540 688 Q543 688 543.5 686 Q544 684 543 682 Z M313 610 L287 406 Q283 374 261.5 353 Q240 332 175 332 Q122 332 101 349 Q80 366 80 394 Q80 395 80 398.5 Q80 402 81 406 L107 610 Q111 642 133 663 Q155 684 219 684 Q273 684 293.5 667 Q314 650 314 622 Q314 621 314 619 Q314 617 313 610 Z M95 407 Q94 402 94 399.5 Q94 397 94 396 Q94 373 111 359 Q128 345 177 345 Q231 345 250 362 Q269 379 273 407 L299 609 Q300 615 300 617 Q300 619 300 620 Q300 643 283 657 Q266 671 217 671 Q162 671 143.5 654 Q125 637 121 609 L95 407 Z M879 274 L853 70 Q849 38 827.5 17 Q806 -4 741 -4 Q688 -4 667 13 Q646 30 646 58 Q646 59 646 62.5 Q646 66 647 70 L673 274 Q677 306 699 327 Q721 348 785 348 Q839 348 859.5 331 Q880 314 880 286 Q880 285 880 283 Q880 281 879 274 Z M605 274 L579 70 Q575 38 553.5 17 Q532 -4 467 -4 Q414 -4 393 13 Q372 30 372 58 Q372 59 372 62.5 Q372 66 373 70 L399 274 Q403 306 425 327 Q447 348 511 348 Q565 348 585.5 331 Q606 314 606 286 Q606 285 606 283 Q606 281 605 274 Z M661 71 Q660 66 660 63.5 Q660 61 660 60 Q660 37 677 23 Q694 9 743 9 Q797 9 816 26 Q835 43 839 71 L865 273 Q866 279 866 281 Q866 283 866 284 Q866 307 849 321 Q832 335 783 335 Q728 335 709.5 318 Q691 301 687 273 L661 71 Z M387 71 Q386 66 386 63.5 Q386 61 386 60 Q386 37 403 23 Q420 9 469 9 Q523 9 542 26 Q561 43 565 71 L591 273 Q592 279 592 281 Q592 283 592 284 Q592 307 575 321 Q558 335 509 335 Q454 335 435.5 318 Q417 301 413 273 L387 71 Z " />
<glyph glyph-name="Acircumflex" unicode="&#xc2;" horiz-adv-x="512" d="M381 247 L316 586 Q313 601 309 621.5 Q305 642 302 658 Q297 643 288 622 Q279 601 274 589 L124 247 L381 247 Z M303 680 L308 680 Q311 680 312.5 678.5 Q314 677 315 674 L443 6 Q444 3 442.5 1.5 Q441 0 439 0 L434 0 Q431 0 429.5 1.5 Q428 3 427 6 L383 232 L117 232 L18 6 Q17 3 15.5 1.5 Q14 0 11 0 L7 0 Q3 0 2 2.5 Q1 5 2 6 L294 674 Q295 677 297.5 678.5 Q300 680 303 680 Z M319 864 L228 750 Q226 747 224 745.5 Q222 744 220 744 L214 744 Q211 744 210.5 746 Q210 748 211 750 L306 872 Q307 874 310 876 Q313 878 316 878 L323 878 Q326 878 328 876.5 Q330 875 331 873 L397 750 Q398 748 397.5 746 Q397 744 394 744 L390 744 Q388 744 385.5 745 Q383 746 381 750 L319 864 Z " />
<glyph glyph-name="Ecircumflex" unicode="&#xca;" horiz-adv-x="528" d="M433 0 L78 0 Q76 0 74.5 1.5 Q73 3 73 6 L155 674 Q156 677 157.5 678.5 Q159 680 162 680 L503 680 Q506 680 507 678.5 Q508 677 508 674 L508 671 Q508 668 506 666.5 Q504 665 501 665 L170 665 L134 368 L446 368 Q449 368 450 366.5 Q451 365 451 362 L451 359 Q451 356 449 354.5 Q447 353 444 353 L132 353 L90 15 L434 15 Q437 15 438 13.5 Q439 12 439 9 L439 6 Q439 3 437.5 1.5 Q436 0 433 0 Z M351 864 L260 750 Q258 747 256 745.5 Q254 744 252 744 L246 744 Q243 744 242.5 746 Q242 748 243 750 L338 872 Q339 874 342 876 Q345 878 348 878 L355 878 Q358 878 360 876.5 Q362 875 363 873 L429 750 Q430 748 429.5 746 Q429 744 426 744 L422 744 Q420 744 417.5 745 Q415 746 413 750 L351 864 Z " />
<glyph glyph-name="Aacute" unicode="&#xc1;" horiz-adv-x="512" d="M381 247 L316 586 Q313 601 309 621.5 Q305 642 302 658 Q297 643 288 622 Q279 601 274 589 L124 247 L381 247 Z M303 680 L308 680 Q311 680 312.5 678.5 Q314 677 315 674 L443 6 Q444 3 442.5 1.5 Q441 0 439 0 L434 0 Q431 0 429.5 1.5 Q428 3 427 6 L383 232 L117 232 L18 6 Q17 3 15.5 1.5 Q14 0 11 0 L7 0 Q3 0 2 2.5 Q1 5 2 6 L294 674 Q295 677 297.5 678.5 Q300 680 303 680 Z M410 872 L311 747 Q310 746 309 745 Q308 744 305 744 L298 744 Q296 744 295.5 745.5 Q295 747 296 749 L394 874 Q395 875 396.5 876.5 Q398 878 401 878 L408 878 Q412 878 412 876 Q412 874 410 872 Z " />
<glyph glyph-name="Edieresis" unicode="&#xcb;" horiz-adv-x="528" d="M433 0 L78 0 Q76 0 74.5 1.5 Q73 3 73 6 L155 674 Q156 677 157.5 678.5 Q159 680 162 680 L503 680 Q506 680 507 678.5 Q508 677 508 674 L508 671 Q508 668 506 666.5 Q504 665 501 665 L170 665 L134 368 L446 368 Q449 368 450 366.5 Q451 365 451 362 L451 359 Q451 356 449 354.5 Q447 353 444 353 L132 353 L90 15 L434 15 Q437 15 438 13.5 Q439 12 439 9 L439 6 Q439 3 437.5 1.5 Q436 0 433 0 Z M405 860 L393 760 Q393 757 391 755.5 Q389 754 386 754 L382 754 Q379 754 378 755.5 Q377 757 377 760 L389 860 Q389 863 391 864.5 Q393 866 396 866 L400 866 Q403 866 404 864.5 Q405 863 405 860 Z M326 860 L314 760 Q314 757 312 755.5 Q310 754 307 754 L303 754 Q300 754 299 755.5 Q298 757 298 760 L310 860 Q310 863 312 864.5 Q314 866 317 866 L321 866 Q324 866 325 864.5 Q326 863 326 860 Z " />
<glyph glyph-name="Egrave" unicode="&#xc8;" horiz-adv-x="528" d="M433 0 L78 0 Q76 0 74.5 1.5 Q73 3 73 6 L155 674 Q156 677 157.5 678.5 Q159 680 162 680 L503 680 Q506 680 507 678.5 Q508 677 508 674 L508 671 Q508 668 506 666.5 Q504 665 501 665 L170 665 L134 368 L446 368 Q449 368 450 366.5 Q451 365 451 362 L451 359 Q451 356 449 354.5 Q447 353 444 353 L132 353 L90 15 L434 15 Q437 15 438 13.5 Q439 12 439 9 L439 6 Q439 3 437.5 1.5 Q436 0 433 0 Z M324 747 L255 872 Q254 873 254.5 875.5 Q255 878 259 878 L265 878 Q268 878 269.5 876.5 Q271 875 272 874 L338 749 Q339 747 338.5 745.5 Q338 744 336 744 L331 744 Q328 744 326.5 745 Q325 746 324 747 Z " />
<glyph glyph-name="Iacute" unicode="&#xcd;" horiz-adv-x="232" d="M173 674 L91 6 Q90 2 89 1 Q88 0 84 0 L80 0 Q78 0 76 1 Q74 2 75 6 L157 674 Q158 678 159.5 679 Q161 680 164 680 L168 680 Q171 680 172 678.5 Q173 677 173 674 Z M278 872 L179 747 Q178 746 177 745 Q176 744 173 744 L166 744 Q164 744 163.5 745.5 Q163 747 164 749 L262 874 Q263 875 264.5 876.5 Q266 878 269 878 L276 878 Q280 878 280 876 Q280 874 278 872 Z " />
<glyph glyph-name="Icircumflex" unicode="&#xce;" horiz-adv-x="232" d="M173 674 L91 6 Q90 2 89 1 Q88 0 84 0 L80 0 Q78 0 76 1 Q74 2 75 6 L157 674 Q158 678 159.5 679 Q161 680 164 680 L168 680 Q171 680 172 678.5 Q173 677 173 674 Z M184 864 L93 750 Q91 747 89 745.5 Q87 744 85 744 L79 744 Q76 744 75.5 746 Q75 748 76 750 L171 872 Q172 874 175 876 Q178 878 181 878 L188 878 Q191 878 193 876.5 Q195 875 196 873 L262 750 Q263 748 262.5 746 Q262 744 259 744 L255 744 Q253 744 250.5 745 Q248 746 246 750 L184 864 Z " />
<glyph glyph-name="Idieresis" unicode="&#xcf;" horiz-adv-x="232" d="M173 674 L91 6 Q90 2 89 1 Q88 0 84 0 L80 0 Q78 0 76 1 Q74 2 75 6 L157 674 Q158 678 159.5 679 Q161 680 164 680 L168 680 Q171 680 172 678.5 Q173 677 173 674 Z M234 860 L222 760 Q222 757 220 755.5 Q218 754 215 754 L211 754 Q208 754 207 755.5 Q206 757 206 760 L218 860 Q218 863 220 864.5 Q222 866 225 866 L229 866 Q232 866 233 864.5 Q234 863 234 860 Z M155 860 L143 760 Q143 757 141 755.5 Q139 754 136 754 L132 754 Q129 754 128 755.5 Q127 757 127 760 L139 860 Q139 863 141 864.5 Q143 866 146 866 L150 866 Q153 866 154 864.5 Q155 863 155 860 Z " />
<glyph glyph-name="Igrave" unicode="&#xcc;" horiz-adv-x="232" d="M173 674 L91 6 Q90 2 89 1 Q88 0 84 0 L80 0 Q78 0 76 1 Q74 2 75 6 L157 674 Q158 678 159.5 679 Q161 680 164 680 L168 680 Q171 680 172 678.5 Q173 677 173 674 Z M160 747 L91 872 Q90 873 90.5 875.5 Q91 878 95 878 L101 878 Q104 878 105.5 876.5 Q107 875 108 874 L174 749 Q175 747 174.5 745.5 Q174 744 172 744 L167 744 Q164 744 162.5 745 Q161 746 160 747 Z " />
<glyph glyph-name="Oacute" unicode="&#xd3;" horiz-adv-x="579" d="M75 123 L128 557 Q135 614 179 651 Q223 688 337 688 Q438 688 477 657 Q516 626 516 577 Q516 572 516 568 Q516 564 515 557 L462 123 Q455 66 410.5 29 Q366 -8 252 -8 Q151 -8 112 22.5 Q73 53 73 101 Q73 106 73.5 111.5 Q74 117 75 123 Z M446 123 L499 557 Q500 564 500 567.5 Q500 571 500 575 Q500 618 465 645.5 Q430 673 335 673 Q231 673 190.5 639.5 Q150 606 144 557 L91 123 Q90 119 90 113.5 Q90 108 90 104 Q90 62 124 34.5 Q158 7 253 7 Q357 7 398.5 40.5 Q440 74 446 123 Z M449 872 L350 747 Q349 746 348 745 Q347 744 344 744 L337 744 Q335 744 334.5 745.5 Q334 747 335 749 L433 874 Q434 875 435.5 876.5 Q437 878 440 878 L447 878 Q451 878 451 876 Q451 874 449 872 Z " />
<glyph glyph-name="Ocircumflex" unicode="&#xd4;" horiz-adv-x="579" d="M75 123 L128 557 Q135 614 179 651 Q223 688 337 688 Q438 688 477 657 Q516 626 516 577 Q516 572 516 568 Q516 564 515 557 L462 123 Q455 66 410.5 29 Q366 -8 252 -8 Q151 -8 112 22.5 Q73 53 73 101 Q73 106 73.5 111.5 Q74 117 75 123 Z M446 123 L499 557 Q500 564 500 567.5 Q500 571 500 575 Q500 618 465 645.5 Q430 673 335 673 Q231 673 190.5 639.5 Q150 606 144 557 L91 123 Q90 119 90 113.5 Q90 108 90 104 Q90 62 124 34.5 Q158 7 253 7 Q357 7 398.5 40.5 Q440 74 446 123 Z M354 864 L263 750 Q261 747 259 745.5 Q257 744 255 744 L249 744 Q246 744 245.5 746 Q245 748 246 750 L341 872 Q342 874 345 876 Q348 878 351 878 L358 878 Q361 878 363 876.5 Q365 875 366 873 L432 750 Q433 748 432.5 746 Q432 744 429 744 L425 744 Q423 744 420.5 745 Q418 746 416 750 L354 864 Z " />
<glyph glyph-name="Ograve" unicode="&#xd2;" horiz-adv-x="579" d="M75 123 L128 557 Q135 614 179 651 Q223 688 337 688 Q438 688 477 657 Q516 626 516 577 Q516 572 516 568 Q516 564 515 557 L462 123 Q455 66 410.5 29 Q366 -8 252 -8 Q151 -8 112 22.5 Q73 53 73 101 Q73 106 73.5 111.5 Q74 117 75 123 Z M446 123 L499 557 Q500 564 500 567.5 Q500 571 500 575 Q500 618 465 645.5 Q430 673 335 673 Q231 673 190.5 639.5 Q150 606 144 557 L91 123 Q90 119 90 113.5 Q90 108 90 104 Q90 62 124 34.5 Q158 7 253 7 Q357 7 398.5 40.5 Q440 74 446 123 Z M337 747 L268 872 Q267 873 267.5 875.5 Q268 878 272 878 L278 878 Q281 878 282.5 876.5 Q284 875 285 874 L351 749 Q352 747 351.5 745.5 Q351 744 349 744 L344 744 Q341 744 339.5 745 Q338 746 337 747 Z " />
<glyph glyph-name="Uacute" unicode="&#xda;" horiz-adv-x="596" d="M168 674 L100 123 Q99 116 99 112.5 Q99 109 99 105 Q99 62 134 34.5 Q169 7 263 7 Q367 7 408 40.5 Q449 74 455 123 L523 674 Q524 677 525 678.5 Q526 680 530 680 L534 680 Q536 680 537.5 678.5 Q539 677 539 674 L471 123 Q464 66 420 29 Q376 -8 261 -8 Q160 -8 121.5 23 Q83 54 83 103 Q83 107 83 111.5 Q83 116 84 123 L152 674 Q153 678 154 679 Q155 680 159 680 L163 680 Q165 680 166.5 678.5 Q168 677 168 674 Z M455 872 L356 747 Q355 746 354 745 Q353 744 350 744 L343 744 Q341 744 340.5 745.5 Q340 747 341 749 L439 874 Q440 875 441.5 876.5 Q443 878 446 878 L453 878 Q457 878 457 876 Q457 874 455 872 Z " />
<glyph glyph-name="Ucircumflex" unicode="&#xdb;" horiz-adv-x="596" d="M168 674 L100 123 Q99 116 99 112.5 Q99 109 99 105 Q99 62 134 34.5 Q169 7 263 7 Q367 7 408 40.5 Q449 74 455 123 L523 674 Q524 677 525 678.5 Q526 680 530 680 L534 680 Q536 680 537.5 678.5 Q539 677 539 674 L471 123 Q464 66 420 29 Q376 -8 261 -8 Q160 -8 121.5 23 Q83 54 83 103 Q83 107 83 111.5 Q83 116 84 123 L152 674 Q153 678 154 679 Q155 680 159 680 L163 680 Q165 680 166.5 678.5 Q168 677 168 674 Z M367 864 L276 750 Q274 747 272 745.5 Q270 744 268 744 L262 744 Q259 744 258.5 746 Q258 748 259 750 L354 872 Q355 874 358 876 Q361 878 364 878 L371 878 Q374 878 376 876.5 Q378 875 379 873 L445 750 Q446 748 445.5 746 Q445 744 442 744 L438 744 Q436 744 433.5 745 Q431 746 429 750 L367 864 Z " />
<glyph glyph-name="Ugrave" unicode="&#xd9;" horiz-adv-x="596" d="M168 674 L100 123 Q99 116 99 112.5 Q99 109 99 105 Q99 62 134 34.5 Q169 7 263 7 Q367 7 408 40.5 Q449 74 455 123 L523 674 Q524 677 525 678.5 Q526 680 530 680 L534 680 Q536 680 537.5 678.5 Q539 677 539 674 L471 123 Q464 66 420 29 Q376 -8 261 -8 Q160 -8 121.5 23 Q83 54 83 103 Q83 107 83 111.5 Q83 116 84 123 L152 674 Q153 678 154 679 Q155 680 159 680 L163 680 Q165 680 166.5 678.5 Q168 677 168 674 Z M340 747 L271 872 Q270 873 270.5 875.5 Q271 878 275 878 L281 878 Q284 878 285.5 876.5 Q287 875 288 874 L354 749 Q355 747 354.5 745.5 Q354 744 352 744 L347 744 Q344 744 342.5 745 Q341 746 340 747 Z " />
<glyph glyph-name="dotlessi" unicode="&#x131;" horiz-adv-x="206" d="M136 484 L77 6 Q76 3 74.5 1.5 Q73 0 70 0 L66 0 Q64 0 62 1 Q60 2 61 6 L120 484 Q120 486 121.5 488 Q123 490 126 490 L130 490 Q133 490 134.5 488.5 Q136 487 136 484 Z " />
<glyph glyph-name="circumflex" unicode="&#x2c6;" horiz-adv-x="340" d="M254 694 L163 580 Q161 577 159 575.5 Q157 574 155 574 L149 574 Q146 574 145.5 576 Q145 578 146 580 L241 702 Q242 704 245 706 Q248 708 251 708 L258 708 Q261 708 263 706.5 Q265 705 266 703 L332 580 Q333 578 332.5 576 Q332 574 329 574 L325 574 Q323 574 320.5 575 Q318 576 316 580 L254 694 Z " />
<glyph glyph-name="tilde" unicode="&#x2dc;" horiz-adv-x="434" d="M235 675 Q213 675 202.5 661 Q192 647 188 607 L187 597 Q187 594 185 592.5 Q183 591 180 591 L176 591 Q173 591 172 592.5 Q171 594 171 597 L172 608 Q176 657 192 673.5 Q208 690 235 690 Q245 690 258 684 Q271 678 281 666 L319 623 Q325 616 333.5 611 Q342 606 351 606 Q373 606 383.5 619.5 Q394 633 398 674 L399 684 Q399 687 401 688.5 Q403 690 406 690 L410 690 Q413 690 414 688.5 Q415 687 415 684 L414 672 Q410 623 393.5 607 Q377 591 351 591 Q341 591 328.5 597 Q316 603 305 615 L267 657 Q260 664 252 669.5 Q244 675 235 675 Z " />
<glyph glyph-name="overscore" unicode="&#xaf;" horiz-adv-x="425" d="M155 634 L423 634 Q426 634 427.5 632.5 Q429 631 429 629 L429 625 Q429 622 427 620.5 Q425 619 422 619 L154 619 Q151 619 149.5 620.5 Q148 622 148 625 L148 628 Q148 631 150 632.5 Q152 634 155 634 Z " />
<glyph glyph-name="breve" unicode="&#x2d8;" horiz-adv-x="383" d="M190 682 L188 656 Q187 648 187 644.5 Q187 641 187 638 Q187 607 203.5 591.5 Q220 576 266 576 Q323 576 340 602.5 Q357 629 361 670 L362 682 Q362 686 363.5 687 Q365 688 369 688 L373 688 Q376 688 377 686 Q378 684 378 682 L377 670 Q373 621 352 591 Q331 561 264 561 Q212 561 191.5 580.5 Q171 600 171 638 Q171 642 171 645 Q171 648 172 656 L174 682 Q174 685 176 686.5 Q178 688 181 688 L185 688 Q187 688 188.5 687 Q190 686 190 682 Z " />
<glyph glyph-name="dotaccent" unicode="&#x2d9;" horiz-adv-x="232" d="M208 674 L199 599 Q199 596 197 594.5 Q195 593 193 593 L189 593 Q186 593 184 594 Q182 595 183 599 L192 674 Q192 676 193.5 678 Q195 680 198 680 L203 680 Q206 680 207 678.5 Q208 677 208 674 Z " />
<glyph glyph-name="ring" unicode="&#x2da;" horiz-adv-x="292" d="M275 631 L274 620 Q272 594 249.5 577.5 Q227 561 180 561 Q140 561 122 578.5 Q104 596 104 618 Q104 621 104 627 Q104 633 105 639 L106 651 Q108 677 129.5 694.5 Q151 712 200 712 Q240 712 258 694 Q276 676 276 652 Q276 648 276 643 Q276 638 275 631 Z M258 620 L259 631 Q260 638 260 642.5 Q260 647 260 651 Q260 670 246 683.5 Q232 697 198 697 Q159 697 141 683.5 Q123 670 122 651 L121 639 Q120 633 120 627 Q120 621 120 619 Q120 603 133.5 589.5 Q147 576 182 576 Q219 576 238 588.5 Q257 601 258 620 Z " />
<glyph glyph-name="cedilla" unicode="&#xb8;" horiz-adv-x="119" d="M58 -56 L100 -56 Q122 -56 146 -70 Q170 -84 170 -121 Q170 -176 138.5 -193.5 Q107 -211 81 -211 L-40 -211 Q-43 -211 -44 -209.5 Q-45 -208 -45 -205 L-45 -201 Q-45 -198 -43 -196.5 Q-41 -195 -38 -195 L83 -195 Q102 -195 127.5 -181.5 Q153 -168 153 -123 Q153 -93 133.5 -82.5 Q114 -72 98 -72 L45 -72 Q41 -72 39.5 -70 Q38 -68 39 -64 L66 1 Q67 4 69 5 Q71 6 73 5 L77 4 Q80 3 80 0.5 Q80 -2 79 -4 L58 -56 Z " />
<glyph glyph-name="hungarumlaut" unicode="&#x2dd;" horiz-adv-x="334" d="M256 702 L172 580 Q170 577 167.5 575.5 Q165 574 163 574 L159 574 Q156 574 156 576.5 Q156 579 157 580 L238 702 Q239 704 241.5 706 Q244 708 247 708 L253 708 Q257 708 257 706 Q257 704 256 702 Z M332 702 L233 578 Q231 576 228.5 575 Q226 574 225 574 L221 574 Q218 574 218 576 Q218 578 219 580 L314 702 Q315 704 318 706 Q321 708 324 708 L330 708 Q334 708 333.5 706 Q333 704 332 702 Z " />
<glyph glyph-name="ogonek" unicode="&#x2db;" horiz-adv-x="221" d="M155 -139 L137 -139 Q97 -139 76.5 -124 Q56 -109 56 -78 Q56 -56 74.5 -30 Q93 -4 137 14 Q139 15 142 15.5 Q145 16 147 14 L151 10 Q153 8 152.5 6 Q152 4 150 3 Q105 -11 88.5 -36 Q72 -61 72 -79 Q72 -101 88 -112.5 Q104 -124 137 -124 L155 -124 Q158 -124 159.5 -125.5 Q161 -127 161 -130 L161 -133 Q161 -136 159.5 -137.5 Q158 -139 155 -139 Z " />
<glyph glyph-name="caron" unicode="&#x2c7;" horiz-adv-x="340" d="M178 702 L240 588 L331 702 Q334 706 336.5 707 Q339 708 340 708 L346 708 Q349 708 349.5 706 Q350 704 348 702 L252 579 Q251 577 248.5 575.5 Q246 574 243 574 L237 574 Q234 574 231.5 576 Q229 578 228 580 L162 702 Q161 704 162 706 Q163 708 166 708 L171 708 Q173 708 175 706.5 Q177 705 178 702 Z " />
<glyph glyph-name="uni00A0" unicode="&#xa0;" horiz-adv-x="250" d="" />
<glyph glyph-name="Amacron" unicode="&#x100;" horiz-adv-x="512" d="M381 247 L316 586 Q313 601 309 621.5 Q305 642 302 658 Q297 643 288 622 Q279 601 274 589 L124 247 L381 247 Z M303 680 L308 680 Q311 680 312.5 678.5 Q314 677 315 674 L443 6 Q444 3 442.5 1.5 Q441 0 439 0 L434 0 Q431 0 429.5 1.5 Q428 3 427 6 L383 232 L117 232 L18 6 Q17 3 15.5 1.5 Q14 0 11 0 L7 0 Q3 0 2 2.5 Q1 5 2 6 L294 674 Q295 677 297.5 678.5 Q300 680 303 680 Z M167 807 L435 807 Q438 807 439.5 805.5 Q441 804 441 802 L441 798 Q441 795 439 793.5 Q437 792 434 792 L166 792 Q163 792 161.5 793.5 Q160 795 160 798 L160 801 Q160 804 162 805.5 Q164 807 167 807 Z " />
<glyph glyph-name="Abreve" unicode="&#x102;" horiz-adv-x="512" d="M381 247 L316 586 Q313 601 309 621.5 Q305 642 302 658 Q297 643 288 622 Q279 601 274 589 L124 247 L381 247 Z M303 680 L308 680 Q311 680 312.5 678.5 Q314 677 315 674 L443 6 Q444 3 442.5 1.5 Q441 0 439 0 L434 0 Q431 0 429.5 1.5 Q428 3 427 6 L383 232 L117 232 L18 6 Q17 3 15.5 1.5 Q14 0 11 0 L7 0 Q3 0 2 2.5 Q1 5 2 6 L294 674 Q295 677 297.5 678.5 Q300 680 303 680 Z M227 872 L225 846 Q224 840 224 835.5 Q224 831 224 828 Q224 797 240.5 781.5 Q257 766 303 766 Q360 766 377 792.5 Q394 819 398 860 L399 872 Q399 876 400.5 877 Q402 878 406 878 L410 878 Q413 878 414 876 Q415 874 415 872 L414 860 Q410 811 389 781 Q368 751 301 751 Q249 751 228.5 770.5 Q208 790 208 828 Q208 832 208 835 Q208 838 209 846 L211 872 Q211 875 213 876.5 Q215 878 218 878 L222 878 Q224 878 225.5 877 Q227 876 227 872 Z " />
<glyph glyph-name="Aogonek" unicode="&#x104;" horiz-adv-x="512" d="M302 680 L307 680 Q310 680 311.5 678.5 Q313 677 314 674 L442 6 Q443 3 441.5 1.5 Q440 0 438 0 L437 0 Q394 -12 377 -36.5 Q360 -61 360 -79 Q360 -101 376 -112.5 Q392 -124 425 -124 L450 -124 Q453 -124 454.5 -125.5 Q456 -127 456 -130 L456 -133 Q456 -136 454.5 -137.5 Q453 -139 450 -139 L425 -139 Q385 -139 364.5 -124 Q344 -109 344 -78 Q344 -56 362.5 -30.5 Q381 -5 425 11 L382 232 L116 232 L17 6 Q16 3 14.5 1.5 Q13 0 10 0 L6 0 Q2 0 1 2 Q0 4 1 6 L293 674 Q294 677 296.5 678.5 Q299 680 302 680 Z M380 247 L315 586 Q312 601 308 621.5 Q304 642 301 658 Q296 643 287 622 Q278 601 273 589 L123 247 L380 247 Z " />
<glyph glyph-name="Aringacute" unicode="&#x1fa;" horiz-adv-x="512" d="M301 728 Q261 728 243 745.5 Q225 763 225 785 Q225 788 225 794 Q225 800 226 806 L227 818 Q229 844 250 861.5 Q271 879 317 879 L387 960 Q388 961 389.5 962.5 Q391 964 394 964 L401 964 Q405 964 405 962 Q405 960 403 958 L333 878 Q367 875 382 858 Q397 841 397 819 Q397 815 397 810 Q397 805 396 798 L395 787 Q393 761 370.5 744.5 Q348 728 301 728 Z M379 787 L380 798 Q381 805 381 809.5 Q381 814 381 818 Q381 837 367 850.5 Q353 864 319 864 Q280 864 262 850.5 Q244 837 243 818 L242 806 Q241 800 241 794 Q241 788 241 786 Q241 770 254.5 756.5 Q268 743 303 743 Q340 743 359 755.5 Q378 768 379 787 Z M380 247 L315 586 Q312 601 308 621.5 Q304 642 301 658 Q296 643 287 622 Q278 601 273 589 L123 247 L380 247 Z M302 680 L307 680 Q310 680 311.5 678.5 Q313 677 314 674 L442 6 Q443 3 441.5 1.5 Q440 0 438 0 L433 0 Q430 0 428.5 1.5 Q427 3 426 6 L382 232 L116 232 L17 6 Q16 3 14.5 1.5 Q13 0 10 0 L6 0 Q2 0 1 2.5 Q0 5 1 6 L293 674 Q294 677 296.5 678.5 Q299 680 302 680 Z " />
<glyph glyph-name="Cacute" unicode="&#x106;" horiz-adv-x="539" d="M464 188 L456 123 Q449 66 406 29 Q363 -8 249 -8 Q149 -8 111 22 Q73 52 73 99 Q73 104 73.5 110.5 Q74 117 75 123 L128 557 Q135 614 177.5 651 Q220 688 334 688 Q435 688 472.5 657.5 Q510 627 510 578 Q510 573 510 568 Q510 563 509 557 L502 503 Q501 500 500 498.5 Q499 497 495 497 L491 497 Q489 497 487 498 Q485 499 486 503 L493 557 Q494 562 494 567 Q494 572 494 576 Q494 618 460 645.5 Q426 673 332 673 Q228 673 189 639.5 Q150 606 144 557 L91 123 Q90 118 90 112.5 Q90 107 90 103 Q90 60 123 33.5 Q156 7 250 7 Q354 7 394 40.5 Q434 74 440 123 L448 188 Q449 192 451 193 Q453 194 455 194 L459 194 Q461 194 462.5 192.5 Q464 191 464 188 Z M445 872 L346 747 Q345 746 344 745 Q343 744 340 744 L333 744 Q331 744 330.5 745.5 Q330 747 331 749 L429 874 Q430 875 431.5 876.5 Q433 878 436 878 L443 878 Q447 878 447 876 Q447 874 445 872 Z " />
<glyph glyph-name="Ccircumflex" unicode="&#x108;" horiz-adv-x="539" d="M464 188 L456 123 Q449 66 406 29 Q363 -8 249 -8 Q149 -8 111 22 Q73 52 73 99 Q73 104 73.5 110.5 Q74 117 75 123 L128 557 Q135 614 177.5 651 Q220 688 334 688 Q435 688 472.5 657.5 Q510 627 510 578 Q510 573 510 568 Q510 563 509 557 L502 503 Q501 500 500 498.5 Q499 497 495 497 L491 497 Q489 497 487 498 Q485 499 486 503 L493 557 Q494 562 494 567 Q494 572 494 576 Q494 618 460 645.5 Q426 673 332 673 Q228 673 189 639.5 Q150 606 144 557 L91 123 Q90 118 90 112.5 Q90 107 90 103 Q90 60 123 33.5 Q156 7 250 7 Q354 7 394 40.5 Q434 74 440 123 L448 188 Q449 192 451 193 Q453 194 455 194 L459 194 Q461 194 462.5 192.5 Q464 191 464 188 Z M350 864 L259 750 Q257 747 255 745.5 Q253 744 251 744 L245 744 Q242 744 241.5 746 Q241 748 242 750 L337 872 Q338 874 341 876 Q344 878 347 878 L354 878 Q357 878 359 876.5 Q361 875 362 873 L428 750 Q429 748 428.5 746 Q428 744 425 744 L421 744 Q419 744 416.5 745 Q414 746 412 750 L350 864 Z " />
<glyph glyph-name="Cdotaccent" unicode="&#x10a;" horiz-adv-x="539" d="M464 188 L456 123 Q449 66 406 29 Q363 -8 249 -8 Q149 -8 111 22 Q73 52 73 99 Q73 104 73.5 110.5 Q74 117 75 123 L128 557 Q135 614 177.5 651 Q220 688 334 688 Q435 688 472.5 657.5 Q510 627 510 578 Q510 573 510 568 Q510 563 509 557 L502 503 Q501 500 500 498.5 Q499 497 495 497 L491 497 Q489 497 487 498 Q485 499 486 503 L493 557 Q494 562 494 567 Q494 572 494 576 Q494 618 460 645.5 Q426 673 332 673 Q228 673 189 639.5 Q150 606 144 557 L91 123 Q90 118 90 112.5 Q90 107 90 103 Q90 60 123 33.5 Q156 7 250 7 Q354 7 394 40.5 Q434 74 440 123 L448 188 Q449 192 451 193 Q453 194 455 194 L459 194 Q461 194 462.5 192.5 Q464 191 464 188 Z M363 838 L354 763 Q354 760 352 758.5 Q350 757 348 757 L344 757 Q341 757 339 758 Q337 759 338 763 L347 838 Q347 840 348.5 842 Q350 844 353 844 L358 844 Q361 844 362 842.5 Q363 841 363 838 Z " />
<glyph glyph-name="Ccaron" unicode="&#x10c;" horiz-adv-x="539" d="M464 188 L456 123 Q449 66 406 29 Q363 -8 249 -8 Q149 -8 111 22 Q73 52 73 99 Q73 104 73.5 110.5 Q74 117 75 123 L128 557 Q135 614 177.5 651 Q220 688 334 688 Q435 688 472.5 657.5 Q510 627 510 578 Q510 573 510 568 Q510 563 509 557 L502 503 Q501 500 500 498.5 Q499 497 495 497 L491 497 Q489 497 487 498 Q485 499 486 503 L493 557 Q494 562 494 567 Q494 572 494 576 Q494 618 460 645.5 Q426 673 332 673 Q228 673 189 639.5 Q150 606 144 557 L91 123 Q90 118 90 112.5 Q90 107 90 103 Q90 60 123 33.5 Q156 7 250 7 Q354 7 394 40.5 Q434 74 440 123 L448 188 Q449 192 451 193 Q453 194 455 194 L459 194 Q461 194 462.5 192.5 Q464 191 464 188 Z M274 872 L336 758 L427 872 Q430 876 432.5 877 Q435 878 436 878 L442 878 Q445 878 445.5 876 Q446 874 444 872 L348 749 Q347 747 344.5 745.5 Q342 744 339 744 L333 744 Q330 744 327.5 746 Q325 748 324 750 L258 872 Q257 874 258 876 Q259 878 262 878 L267 878 Q269 878 271 876.5 Q273 875 274 872 Z " />
<glyph glyph-name="Dcaron" unicode="&#x10e;" horiz-adv-x="591" d="M266 0 L79 0 Q76 0 74.5 1.5 Q73 3 73 6 L155 674 Q156 677 157.5 678.5 Q159 680 161 680 L349 680 Q450 680 489 649 Q528 618 528 569 Q528 565 528 560.5 Q528 556 527 549 L476 131 Q469 74 424.5 37 Q380 0 266 0 Z M347 665 L170 665 L90 15 L267 15 Q371 15 412.5 48.5 Q454 82 460 131 L511 549 Q512 555 512 559.5 Q512 564 512 567 Q512 610 477 637.5 Q442 665 347 665 Z M279 872 L341 758 L432 872 Q435 876 437.5 877 Q440 878 441 878 L447 878 Q450 878 450.5 876 Q451 874 449 872 L353 749 Q352 747 349.5 745.5 Q347 744 344 744 L338 744 Q335 744 332.5 746 Q330 748 329 750 L263 872 Q262 874 263 876 Q264 878 267 878 L272 878 Q274 878 276 876.5 Q278 875 279 872 Z " />
<glyph glyph-name="Emacron" unicode="&#x112;" horiz-adv-x="528" d="M433 0 L78 0 Q76 0 74.5 1.5 Q73 3 73 6 L155 674 Q156 677 157.5 678.5 Q159 680 162 680 L503 680 Q506 680 507 678.5 Q508 677 508 674 L508 671 Q508 668 506 666.5 Q504 665 501 665 L170 665 L134 368 L446 368 Q449 368 450 366.5 Q451 365 451 362 L451 359 Q451 356 449 354.5 Q447 353 444 353 L132 353 L90 15 L434 15 Q437 15 438 13.5 Q439 12 439 9 L439 6 Q439 3 437.5 1.5 Q436 0 433 0 Z M199 807 L467 807 Q470 807 471.5 805.5 Q473 804 473 802 L473 798 Q473 795 471 793.5 Q469 792 466 792 L198 792 Q195 792 193.5 793.5 Q192 795 192 798 L192 801 Q192 804 194 805.5 Q196 807 199 807 Z " />
<glyph glyph-name="Ebreve" unicode="&#x114;" horiz-adv-x="528" d="M433 0 L78 0 Q76 0 74.5 1.5 Q73 3 73 6 L155 674 Q156 677 157.5 678.5 Q159 680 162 680 L503 680 Q506 680 507 678.5 Q508 677 508 674 L508 671 Q508 668 506 666.5 Q504 665 501 665 L170 665 L134 368 L446 368 Q449 368 450 366.5 Q451 365 451 362 L451 359 Q451 356 449 354.5 Q447 353 444 353 L132 353 L90 15 L434 15 Q437 15 438 13.5 Q439 12 439 9 L439 6 Q439 3 437.5 1.5 Q436 0 433 0 Z M259 872 L257 846 Q256 840 256 835.5 Q256 831 256 828 Q256 797 272.5 781.5 Q289 766 335 766 Q392 766 409 792.5 Q426 819 430 860 L431 872 Q431 876 432.5 877 Q434 878 438 878 L442 878 Q445 878 446 876 Q447 874 447 872 L446 860 Q442 811 421 781 Q400 751 333 751 Q281 751 260.5 770.5 Q240 790 240 828 Q240 832 240 835 Q240 838 241 846 L243 872 Q243 875 245 876.5 Q247 878 250 878 L254 878 Q256 878 257.5 877 Q259 876 259 872 Z " />
<glyph glyph-name="Edotaccent" unicode="&#x116;" horiz-adv-x="528" d="M433 0 L78 0 Q76 0 74.5 1.5 Q73 3 73 6 L155 674 Q156 677 157.5 678.5 Q159 680 162 680 L503 680 Q506 680 507 678.5 Q508 677 508 674 L508 671 Q508 668 506 666.5 Q504 665 501 665 L170 665 L134 368 L446 368 Q449 368 450 366.5 Q451 365 451 362 L451 359 Q451 356 449 354.5 Q447 353 444 353 L132 353 L90 15 L434 15 Q437 15 438 13.5 Q439 12 439 9 L439 6 Q439 3 437.5 1.5 Q436 0 433 0 Z M356 838 L347 763 Q347 760 345 758.5 Q343 757 341 757 L337 757 Q334 757 332 758 Q330 759 331 763 L340 838 Q340 840 341.5 842 Q343 844 346 844 L351 844 Q354 844 355 842.5 Q356 841 356 838 Z " />
<glyph glyph-name="Eogonek" unicode="&#x118;" horiz-adv-x="528" d="M433 0 L412 0 Q368 0 347 -24.5 Q326 -49 326 -74 Q326 -96 342 -110 Q358 -124 391 -124 L419 -124 Q422 -124 423.5 -125.5 Q425 -127 425 -130 L425 -133 Q425 -136 423.5 -137.5 Q422 -139 419 -139 L391 -139 Q351 -139 330.5 -121.5 Q310 -104 310 -73 Q310 -48 324.5 -29 Q339 -10 358 0 L78 0 Q76 0 74.5 1.5 Q73 3 73 6 L155 674 Q156 677 157.5 678.5 Q159 680 162 680 L503 680 Q506 680 507 678.5 Q508 677 508 674 L508 671 Q508 668 506 666.5 Q504 665 501 665 L170 665 L134 368 L446 368 Q449 368 450 366.5 Q451 365 451 362 L451 359 Q451 356 449 354.5 Q447 353 444 353 L132 353 L90 15 L434 15 Q437 15 438 13.5 Q439 12 439 9 L439 6 Q439 3 437.5 1.5 Q436 0 433 0 Z " />
<glyph glyph-name="Ecaron" unicode="&#x11a;" horiz-adv-x="528" d="M433 0 L78 0 Q76 0 74.5 1.5 Q73 3 73 6 L155 674 Q156 677 157.5 678.5 Q159 680 162 680 L503 680 Q506 680 507 678.5 Q508 677 508 674 L508 671 Q508 668 506 666.5 Q504 665 501 665 L170 665 L134 368 L446 368 Q449 368 450 366.5 Q451 365 451 362 L451 359 Q451 356 449 354.5 Q447 353 444 353 L132 353 L90 15 L434 15 Q437 15 438 13.5 Q439 12 439 9 L439 6 Q439 3 437.5 1.5 Q436 0 433 0 Z M269 872 L331 758 L422 872 Q425 876 427.5 877 Q430 878 431 878 L437 878 Q440 878 440.5 876 Q441 874 439 872 L343 749 Q342 747 339.5 745.5 Q337 744 334 744 L328 744 Q325 744 322.5 746 Q320 748 319 750 L253 872 Q252 874 253 876 Q254 878 257 878 L262 878 Q264 878 266 876.5 Q268 875 269 872 Z " />
<glyph glyph-name="Gcircumflex" unicode="&#x11c;" horiz-adv-x="561" d="M298 301 L472 301 Q475 301 476 299.5 Q477 298 477 295 L456 123 Q449 66 406 29 Q363 -8 249 -8 Q149 -8 111 22 Q73 52 73 100 Q73 105 73.5 111 Q74 117 75 123 L128 557 Q135 614 177.5 651 Q220 688 334 688 Q435 688 472.5 657.5 Q510 627 510 578 Q510 573 510 568.5 Q510 564 509 557 L502 503 Q501 499 500 498 Q499 497 495 497 L491 497 Q489 497 487 498.5 Q485 500 486 503 L493 557 Q494 563 494 567.5 Q494 572 494 576 Q494 618 460 645.5 Q426 673 332 673 Q228 673 189 639.5 Q150 606 144 557 L91 123 Q90 116 90 111.5 Q90 107 90 103 Q90 61 123.5 34 Q157 7 250 7 Q354 7 393.5 39.5 Q433 72 439 121 L460 286 L297 286 Q294 286 292.5 287.5 Q291 289 291 292 L291 295 Q291 298 293 299.5 Q295 301 298 301 Z M356 864 L265 750 Q263 747 261 745.5 Q259 744 257 744 L251 744 Q248 744 247.5 746 Q247 748 248 750 L343 872 Q344 874 347 876 Q350 878 353 878 L360 878 Q363 878 365 876.5 Q367 875 368 873 L434 750 Q435 748 434.5 746 Q434 744 431 744 L427 744 Q425 744 422.5 745 Q420 746 418 750 L356 864 Z " />
<glyph glyph-name="Gbreve" unicode="&#x11e;" horiz-adv-x="561" d="M298 301 L472 301 Q475 301 476 299.5 Q477 298 477 295 L456 123 Q449 66 406 29 Q363 -8 249 -8 Q149 -8 111 22 Q73 52 73 100 Q73 105 73.5 111 Q74 117 75 123 L128 557 Q135 614 177.5 651 Q220 688 334 688 Q435 688 472.5 657.5 Q510 627 510 578 Q510 573 510 568.5 Q510 564 509 557 L502 503 Q501 499 500 498 Q499 497 495 497 L491 497 Q489 497 487 498.5 Q485 500 486 503 L493 557 Q494 563 494 567.5 Q494 572 494 576 Q494 618 460 645.5 Q426 673 332 673 Q228 673 189 639.5 Q150 606 144 557 L91 123 Q90 116 90 111.5 Q90 107 90 103 Q90 61 123.5 34 Q157 7 250 7 Q354 7 393.5 39.5 Q433 72 439 121 L460 286 L297 286 Q294 286 292.5 287.5 Q291 289 291 292 L291 295 Q291 298 293 299.5 Q295 301 298 301 Z M259 872 L257 846 Q256 840 256 835.5 Q256 831 256 828 Q256 797 272.5 781.5 Q289 766 335 766 Q392 766 409 792.5 Q426 819 430 860 L431 872 Q431 876 432.5 877 Q434 878 438 878 L442 878 Q445 878 446 876 Q447 874 447 872 L446 860 Q442 811 421 781 Q400 751 333 751 Q281 751 260.5 770.5 Q240 790 240 828 Q240 832 240 835 Q240 838 241 846 L243 872 Q243 875 245 876.5 Q247 878 250 878 L254 878 Q256 878 257.5 877 Q259 876 259 872 Z " />
<glyph glyph-name="Gdotaccent" unicode="&#x120;" horiz-adv-x="561" d="M298 301 L472 301 Q475 301 476 299.5 Q477 298 477 295 L456 123 Q449 66 406 29 Q363 -8 249 -8 Q149 -8 111 22 Q73 52 73 100 Q73 105 73.5 111 Q74 117 75 123 L128 557 Q135 614 177.5 651 Q220 688 334 688 Q435 688 472.5 657.5 Q510 627 510 578 Q510 573 510 568.5 Q510 564 509 557 L502 503 Q501 499 500 498 Q499 497 495 497 L491 497 Q489 497 487 498.5 Q485 500 486 503 L493 557 Q494 563 494 567.5 Q494 572 494 576 Q494 618 460 645.5 Q426 673 332 673 Q228 673 189 639.5 Q150 606 144 557 L91 123 Q90 116 90 111.5 Q90 107 90 103 Q90 61 123.5 34 Q157 7 250 7 Q354 7 393.5 39.5 Q433 72 439 121 L460 286 L297 286 Q294 286 292.5 287.5 Q291 289 291 292 L291 295 Q291 298 293 299.5 Q295 301 298 301 Z M346 837 L337 762 Q337 759 335 757.5 Q333 756 331 756 L327 756 Q324 756 322 757 Q320 758 321 762 L330 837 Q330 839 331.5 841 Q333 843 336 843 L341 843 Q344 843 345 841.5 Q346 840 346 837 Z " />
<glyph glyph-name="Gcommaaccent" unicode="&#x122;" horiz-adv-x="561" d="M298 301 L472 301 Q475 301 476 299.5 Q477 298 477 295 L456 123 Q449 66 406 29 Q363 -8 249 -8 Q149 -8 111 22 Q73 52 73 100 Q73 105 73.5 111 Q74 117 75 123 L128 557 Q135 614 177.5 651 Q220 688 334 688 Q435 688 472.5 657.5 Q510 627 510 578 Q510 573 510 568.5 Q510 564 509 557 L502 503 Q501 499 500 498 Q499 497 495 497 L491 497 Q489 497 487 498.5 Q485 500 486 503 L493 557 Q494 563 494 567.5 Q494 572 494 576 Q494 618 460 645.5 Q426 673 332 673 Q228 673 189 639.5 Q150 606 144 557 L91 123 Q90 116 90 111.5 Q90 107 90 103 Q90 61 123.5 34 Q157 7 250 7 Q354 7 393.5 39.5 Q433 72 439 121 L460 286 L297 286 Q294 286 292.5 287.5 Q291 289 291 292 L291 295 Q291 298 293 299.5 Q295 301 298 301 Z M237 -81 L240 -56 Q240 -53 242 -51.5 Q244 -50 247 -50 L251 -50 Q254 -50 255 -51.5 Q256 -53 256 -56 L253 -81 Q249 -114 235.5 -139 Q222 -164 207 -186 Q206 -188 204 -189 Q202 -190 199 -189 L195 -187 Q194 -186 193 -184.5 Q192 -183 194 -179 Q212 -151 222.5 -130.5 Q233 -110 237 -81 Z " />
<glyph glyph-name="Hcircumflex" unicode="&#x124;" horiz-adv-x="603" d="M173 674 L137 377 L492 377 L528 674 Q529 678 530.5 679 Q532 680 535 680 L539 680 Q542 680 543 678.5 Q544 677 544 674 L462 6 Q461 2 459.5 1 Q458 0 455 0 L451 0 Q449 0 447 1 Q445 2 446 6 L490 362 L135 362 L91 6 Q90 3 89 1.5 Q88 0 84 0 L80 0 Q78 0 76 1 Q74 2 75 6 L157 674 Q158 678 159.5 679 Q161 680 164 680 L168 680 Q171 680 172 678.5 Q173 677 173 674 Z M368 864 L277 750 Q275 747 273 745.5 Q271 744 269 744 L263 744 Q260 744 259.5 746 Q259 748 260 750 L355 872 Q356 874 359 876 Q362 878 365 878 L372 878 Q375 878 377 876.5 Q379 875 380 873 L446 750 Q447 748 446.5 746 Q446 744 443 744 L439 744 Q437 744 434.5 745 Q432 746 430 750 L368 864 Z " />
<glyph glyph-name="Itilde" unicode="&#x128;" horiz-adv-x="232" d="M173 674 L91 6 Q90 2 89 1 Q88 0 84 0 L80 0 Q78 0 76 1 Q74 2 75 6 L157 674 Q158 678 159.5 679 Q161 680 164 680 L168 680 Q171 680 172 678.5 Q173 677 173 674 Z M120 848 Q98 848 87.5 834 Q77 820 73 780 L72 770 Q72 767 70 765.5 Q68 764 65 764 L61 764 Q58 764 57 765.5 Q56 767 56 770 L57 782 Q61 831 77 847 Q93 863 120 863 Q130 863 143 857 Q156 851 166 839 L204 796 Q210 789 218.5 784 Q227 779 236 779 Q258 779 268.5 792.5 Q279 806 283 847 L284 857 Q284 860 286 861.5 Q288 863 291 863 L295 863 Q298 863 299 861.5 Q300 860 300 857 L299 845 Q295 796 278.5 780 Q262 764 236 764 Q226 764 213.5 770 Q201 776 190 788 L152 830 Q145 837 137 842.5 Q129 848 120 848 Z " />
<glyph glyph-name="Imacron" unicode="&#x12a;" horiz-adv-x="232" d="M173 674 L91 6 Q90 2 89 1 Q88 0 84 0 L80 0 Q78 0 76 1 Q74 2 75 6 L157 674 Q158 678 159.5 679 Q161 680 164 680 L168 680 Q171 680 172 678.5 Q173 677 173 674 Z M43 807 L311 807 Q314 807 315.5 805.5 Q317 804 317 802 L317 798 Q317 795 315 793.5 Q313 792 310 792 L42 792 Q39 792 37.5 793.5 Q36 795 36 798 L36 801 Q36 804 38 805.5 Q40 807 43 807 Z " />
<glyph glyph-name="Ibreve" unicode="&#x12c;" horiz-adv-x="232" d="M173 674 L91 6 Q90 2 89 1 Q88 0 84 0 L80 0 Q78 0 76 1 Q74 2 75 6 L157 674 Q158 678 159.5 679 Q161 680 164 680 L168 680 Q171 680 172 678.5 Q173 677 173 674 Z M96 872 L94 846 Q93 840 93 835.5 Q93 831 93 828 Q93 797 109.5 781.5 Q126 766 172 766 Q229 766 246 792.5 Q263 819 267 860 L268 872 Q268 876 269.5 877 Q271 878 275 878 L279 878 Q282 878 283 876 Q284 874 284 872 L283 860 Q279 811 258 781 Q237 751 170 751 Q118 751 97.5 770.5 Q77 790 77 828 Q77 832 77 835 Q77 838 78 846 L80 872 Q80 875 82 876.5 Q84 878 87 878 L91 878 Q93 878 94.5 877 Q96 876 96 872 Z " />
<glyph glyph-name="Iogonek" unicode="&#x12e;" horiz-adv-x="232" d="M171 674 L89 6 Q89 3 87.5 1.5 Q86 0 83 0 L82 0 Q39 -12 22 -36.5 Q5 -61 5 -79 Q5 -101 21 -112.5 Q37 -124 70 -124 L88 -124 Q91 -124 92.5 -125.5 Q94 -127 94 -130 L94 -133 Q94 -136 92.5 -137.5 Q91 -139 88 -139 L70 -139 Q30 -139 9.5 -124 Q-11 -109 -11 -78 Q-11 -47 14.5 -22.5 Q40 2 74 12 L155 674 Q156 677 157.5 678.5 Q159 680 162 680 L166 680 Q169 680 170.5 678.5 Q172 677 171 674 Z " />
<glyph glyph-name="Idot" unicode="&#x130;" horiz-adv-x="232" d="M173 674 L91 6 Q90 2 89 1 Q88 0 84 0 L80 0 Q78 0 76 1 Q74 2 75 6 L157 674 Q158 678 159.5 679 Q161 680 164 680 L168 680 Q171 680 172 678.5 Q173 677 173 674 Z M194 838 L185 763 Q185 760 183 758.5 Q181 757 179 757 L175 757 Q172 757 170 758 Q168 759 169 763 L178 838 Q178 840 179.5 842 Q181 844 184 844 L189 844 Q192 844 193 842.5 Q194 841 194 838 Z " />
<glyph glyph-name="Jcircumflex" unicode="&#x134;" horiz-adv-x="481" d="M38 155 L34 123 Q33 117 32.5 111 Q32 105 32 99 Q32 59 60.5 33 Q89 7 172 7 Q266 7 299.5 40.5 Q333 74 339 123 L407 674 Q408 677 409 678.5 Q410 680 414 680 L418 680 Q420 680 421.5 678.5 Q423 677 423 674 L355 123 Q348 66 311 29 Q274 -8 170 -8 Q81 -8 48.5 21.5 Q16 51 16 98 Q16 104 16.5 110 Q17 116 18 123 L22 155 Q23 159 24.5 160 Q26 161 29 161 L33 161 Q36 161 37 159.5 Q38 158 38 155 Z M431 864 L340 750 Q338 747 336 745.5 Q334 744 332 744 L326 744 Q323 744 322.5 746 Q322 748 323 750 L418 872 Q419 874 422 876 Q425 878 428 878 L435 878 Q438 878 440 876.5 Q442 875 443 873 L509 750 Q510 748 509.5 746 Q509 744 506 744 L502 744 Q500 744 497.5 745 Q495 746 493 750 L431 864 Z " />
<glyph glyph-name="Kcommaaccent" unicode="&#x136;" horiz-adv-x="521" d="M190 344 L461 6 Q462 4 461 2 Q460 0 458 0 L453 0 Q449 0 446.5 1 Q444 2 441 6 L176 335 L132 335 L91 6 Q90 3 89 1.5 Q88 0 85 0 L81 0 Q78 0 76 1 Q74 2 75 6 L157 674 Q158 678 159.5 679 Q161 680 164 680 L168 680 Q171 680 172 678.5 Q173 677 173 674 L134 350 L175 350 L493 675 Q495 677 497.5 678.5 Q500 680 504 680 L511 680 Q514 680 515 678.5 Q516 677 513 674 L190 344 Z M210 -81 L213 -56 Q213 -53 215 -51.5 Q217 -50 220 -50 L224 -50 Q227 -50 228 -51.5 Q229 -53 229 -56 L226 -81 Q222 -114 208.5 -139 Q195 -164 180 -186 Q179 -188 177 -189 Q175 -190 172 -189 L168 -187 Q167 -186 166 -184.5 Q165 -183 167 -179 Q185 -151 195.5 -130.5 Q206 -110 210 -81 Z " />
<glyph glyph-name="Lacute" unicode="&#x139;" horiz-adv-x="481" d="M171 674 L90 15 L419 15 Q422 15 423 13.5 Q424 12 424 9 L424 6 Q424 3 422.5 1.5 Q421 0 418 0 L78 0 Q76 0 74.5 1.5 Q73 3 73 6 L155 674 Q155 677 157 678.5 Q159 680 161 680 L165 680 Q169 680 170.5 679 Q172 678 171 674 Z M279 872 L180 747 Q179 746 178 745 Q177 744 174 744 L167 744 Q165 744 164.5 745.5 Q164 747 165 749 L263 874 Q264 875 265.5 876.5 Q267 878 270 878 L277 878 Q281 878 281 876 Q281 874 279 872 Z " />
<glyph glyph-name="Lcommaaccent" unicode="&#x13b;" horiz-adv-x="481" d="M171 674 L90 15 L419 15 Q422 15 423 13.5 Q424 12 424 9 L424 6 Q424 3 422.5 1.5 Q421 0 418 0 L78 0 Q76 0 74.5 1.5 Q73 3 73 6 L155 674 Q155 677 157 678.5 Q159 680 161 680 L165 680 Q169 680 170.5 679 Q172 678 171 674 Z M225 -81 L228 -56 Q228 -53 230 -51.5 Q232 -50 235 -50 L239 -50 Q242 -50 243 -51.5 Q244 -53 244 -56 L241 -81 Q237 -114 223.5 -139 Q210 -164 195 -186 Q194 -188 192 -189 Q190 -190 187 -189 L183 -187 Q182 -186 181 -184.5 Q180 -183 182 -179 Q200 -151 210.5 -130.5 Q221 -110 225 -81 Z " />
<glyph glyph-name="Lcaron" unicode="&#x13d;" horiz-adv-x="481" d="M171 674 L90 15 L419 15 Q422 15 423 13.5 Q424 12 424 9 L424 6 Q424 3 422.5 1.5 Q421 0 418 0 L78 0 Q76 0 74.5 1.5 Q73 3 73 6 L155 674 Q155 677 157 678.5 Q159 680 161 680 L165 680 Q169 680 170.5 679 Q172 678 171 674 Z M366 649 L369 674 Q369 677 371 678.5 Q373 680 376 680 L380 680 Q383 680 384 678.5 Q385 677 385 674 L382 649 Q378 616 364.5 591 Q351 566 336 544 Q335 542 333 541 Q331 540 328 541 L324 543 Q323 544 322 545.5 Q321 547 323 551 Q341 579 351.5 599.5 Q362 620 366 649 Z " />
<glyph glyph-name="Nacute" unicode="&#x143;" horiz-adv-x="601" d="M540 674 L458 6 Q458 3 456.5 1.5 Q455 0 451 0 L449 0 Q448 0 446.5 1 Q445 2 444 3 L188 593 Q184 603 177.5 618 Q171 633 167 645 L88 6 Q87 3 86 1.5 Q85 0 81 0 L78 0 Q76 0 74.5 1.5 Q73 3 73 6 L155 674 Q156 678 157.5 679 Q159 680 162 680 L163 680 Q165 680 166 679 Q167 678 168 677 L425 87 Q429 79 436 62 Q443 45 447 36 L525 674 Q525 677 527 678.5 Q529 680 531 680 L534 680 Q538 680 539 678.5 Q540 677 540 674 Z M465 872 L366 747 Q365 746 364 745 Q363 744 360 744 L353 744 Q351 744 350.5 745.5 Q350 747 351 749 L449 874 Q450 875 451.5 876.5 Q453 878 456 878 L463 878 Q467 878 467 876 Q467 874 465 872 Z " />
<glyph glyph-name="Ncommaaccent" unicode="&#x145;" horiz-adv-x="601" d="M540 674 L458 6 Q458 3 456.5 1.5 Q455 0 451 0 L449 0 Q448 0 446.5 1 Q445 2 444 3 L188 593 Q184 603 177.5 618 Q171 633 167 645 L88 6 Q87 3 86 1.5 Q85 0 81 0 L78 0 Q76 0 74.5 1.5 Q73 3 73 6 L155 674 Q156 678 157.5 679 Q159 680 162 680 L163 680 Q165 680 166 679 Q167 678 168 677 L425 87 Q429 79 436 62 Q443 45 447 36 L525 674 Q525 677 527 678.5 Q529 680 531 680 L534 680 Q538 680 539 678.5 Q540 677 540 674 Z M249 -81 L252 -56 Q252 -53 254 -51.5 Q256 -50 259 -50 L263 -50 Q266 -50 267 -51.5 Q268 -53 268 -56 L265 -81 Q261 -114 247.5 -139 Q234 -164 219 -186 Q218 -188 216 -189 Q214 -190 211 -189 L207 -187 Q206 -186 205 -184.5 Q204 -183 206 -179 Q224 -151 234.5 -130.5 Q245 -110 249 -81 Z " />
<glyph glyph-name="Ncaron" unicode="&#x147;" horiz-adv-x="601" d="M540 674 L458 6 Q458 3 456.5 1.5 Q455 0 451 0 L449 0 Q448 0 446.5 1 Q445 2 444 3 L188 593 Q184 603 177.5 618 Q171 633 167 645 L88 6 Q87 3 86 1.5 Q85 0 81 0 L78 0 Q76 0 74.5 1.5 Q73 3 73 6 L155 674 Q156 678 157.5 679 Q159 680 162 680 L163 680 Q165 680 166 679 Q167 678 168 677 L425 87 Q429 79 436 62 Q443 45 447 36 L525 674 Q525 677 527 678.5 Q529 680 531 680 L534 680 Q538 680 539 678.5 Q540 677 540 674 Z M287 872 L349 758 L440 872 Q443 876 445.5 877 Q448 878 449 878 L455 878 Q458 878 458.5 876 Q459 874 457 872 L361 749 Q360 747 357.5 745.5 Q355 744 352 744 L346 744 Q343 744 340.5 746 Q338 748 337 750 L271 872 Q270 874 271 876 Q272 878 275 878 L280 878 Q282 878 284 876.5 Q286 875 287 872 Z " />
<glyph glyph-name="Omacron" unicode="&#x14c;" horiz-adv-x="579" d="M75 123 L128 557 Q135 614 179 651 Q223 688 337 688 Q438 688 477 657 Q516 626 516 577 Q516 572 516 568 Q516 564 515 557 L462 123 Q455 66 410.5 29 Q366 -8 252 -8 Q151 -8 112 22.5 Q73 53 73 101 Q73 106 73.5 111.5 Q74 117 75 123 Z M446 123 L499 557 Q500 564 500 567.5 Q500 571 500 575 Q500 618 465 645.5 Q430 673 335 673 Q231 673 190.5 639.5 Q150 606 144 557 L91 123 Q90 119 90 113.5 Q90 108 90 104 Q90 62 124 34.5 Q158 7 253 7 Q357 7 398.5 40.5 Q440 74 446 123 Z M215 807 L483 807 Q486 807 487.5 805.5 Q489 804 489 802 L489 798 Q489 795 487 793.5 Q485 792 482 792 L214 792 Q211 792 209.5 793.5 Q208 795 208 798 L208 801 Q208 804 210 805.5 Q212 807 215 807 Z " />
<glyph glyph-name="Obreve" unicode="&#x14e;" horiz-adv-x="579" d="M75 123 L128 557 Q135 614 179 651 Q223 688 337 688 Q438 688 477 657 Q516 626 516 577 Q516 572 516 568 Q516 564 515 557 L462 123 Q455 66 410.5 29 Q366 -8 252 -8 Q151 -8 112 22.5 Q73 53 73 101 Q73 106 73.5 111.5 Q74 117 75 123 Z M446 123 L499 557 Q500 564 500 567.5 Q500 571 500 575 Q500 618 465 645.5 Q430 673 335 673 Q231 673 190.5 639.5 Q150 606 144 557 L91 123 Q90 119 90 113.5 Q90 108 90 104 Q90 62 124 34.5 Q158 7 253 7 Q357 7 398.5 40.5 Q440 74 446 123 Z M278 872 L276 846 Q275 840 275 835.5 Q275 831 275 828 Q275 797 291.5 781.5 Q308 766 354 766 Q411 766 428 792.5 Q445 819 449 860 L450 872 Q450 876 451.5 877 Q453 878 457 878 L461 878 Q464 878 465 876 Q466 874 466 872 L465 860 Q461 811 440 781 Q419 751 352 751 Q300 751 279.5 770.5 Q259 790 259 828 Q259 832 259 835 Q259 838 260 846 L262 872 Q262 875 264 876.5 Q266 878 269 878 L273 878 Q275 878 276.5 877 Q278 876 278 872 Z " />
<glyph glyph-name="Ohungarumlaut" unicode="&#x150;" horiz-adv-x="579" d="M75 123 L128 557 Q135 614 179 651 Q223 688 337 688 Q438 688 477 657 Q516 626 516 577 Q516 572 516 568 Q516 564 515 557 L462 123 Q455 66 410.5 29 Q366 -8 252 -8 Q151 -8 112 22.5 Q73 53 73 101 Q73 106 73.5 111.5 Q74 117 75 123 Z M446 123 L499 557 Q500 564 500 567.5 Q500 571 500 575 Q500 618 465 645.5 Q430 673 335 673 Q231 673 190.5 639.5 Q150 606 144 557 L91 123 Q90 119 90 113.5 Q90 108 90 104 Q90 62 124 34.5 Q158 7 253 7 Q357 7 398.5 40.5 Q440 74 446 123 Z M406 872 L323 750 Q321 747 318.5 745.5 Q316 744 314 744 L310 744 Q307 744 307 746.5 Q307 749 308 750 L389 872 Q390 874 392.5 876 Q395 878 398 878 L403 878 Q407 878 407 876 Q407 874 406 872 Z M483 872 L385 748 Q383 746 380.5 745 Q378 744 377 744 L372 744 Q369 744 369 746 Q369 748 370 750 L465 872 Q466 874 469 876 Q472 878 475 878 L481 878 Q485 878 484.5 876 Q484 874 483 872 Z " />
<glyph glyph-name="Racute" unicode="&#x154;" horiz-adv-x="579" d="M347 665 L170 665 L126 307 L303 307 Q407 307 448.5 339 Q490 371 496 420 L511 546 Q512 552 512 556.5 Q512 561 512 564 Q512 607 477 636 Q442 665 347 665 Z M89 6 Q89 3 87.5 1.5 Q86 0 83 0 L79 0 Q76 0 74.5 1.5 Q73 3 73 6 L155 674 Q156 677 157.5 678.5 Q159 680 161 680 L349 680 Q450 680 489 647.5 Q528 615 528 566 Q528 562 528 557.5 Q528 553 527 546 L512 420 Q506 371 473 337.5 Q440 304 359 295 L474 6 Q475 4 474 2 Q473 0 469 0 L465 0 Q461 0 458.5 2 Q456 4 455 6 L342 293 Q332 292 322 292 Q312 292 301 292 L124 292 L89 6 Z M432 872 L333 747 Q332 746 331 745 Q330 744 327 744 L320 744 Q318 744 317.5 745.5 Q317 747 318 749 L416 874 Q417 875 418.5 876.5 Q420 878 423 878 L430 878 Q434 878 434 876 Q434 874 432 872 Z " />
<glyph glyph-name="Rcommaaccent" unicode="&#x156;" horiz-adv-x="579" d="M241 -81 L244 -56 Q244 -53 246 -51.5 Q248 -50 251 -50 L255 -50 Q258 -50 259 -51.5 Q260 -53 260 -56 L257 -81 Q253 -114 239.5 -139 Q226 -164 211 -186 Q210 -188 208 -189 Q206 -190 203 -189 L199 -187 Q198 -186 197 -184.5 Q196 -183 198 -179 Q216 -151 226.5 -130.5 Q237 -110 241 -81 Z M347 665 L170 665 L126 307 L303 307 Q407 307 448.5 339 Q490 371 496 420 L511 546 Q512 552 512 556.5 Q512 561 512 564 Q512 607 477 636 Q442 665 347 665 Z M89 6 Q89 3 87.5 1.5 Q86 0 83 0 L79 0 Q76 0 74.5 1.5 Q73 3 73 6 L155 674 Q156 677 157.5 678.5 Q159 680 161 680 L349 680 Q450 680 489 647.5 Q528 615 528 566 Q528 562 528 557.5 Q528 553 527 546 L512 420 Q506 371 473 337.5 Q440 304 359 295 L474 6 Q475 4 474 2 Q473 0 469 0 L465 0 Q461 0 458.5 2 Q456 4 455 6 L342 293 Q332 292 322 292 Q312 292 301 292 L124 292 L89 6 Z " />
<glyph glyph-name="Rcaron" unicode="&#x158;" horiz-adv-x="579" d="M347 665 L170 665 L126 307 L303 307 Q407 307 448.5 339 Q490 371 496 420 L511 546 Q512 552 512 556.5 Q512 561 512 564 Q512 607 477 636 Q442 665 347 665 Z M89 6 Q89 3 87.5 1.5 Q86 0 83 0 L79 0 Q76 0 74.5 1.5 Q73 3 73 6 L155 674 Q156 677 157.5 678.5 Q159 680 161 680 L349 680 Q450 680 489 647.5 Q528 615 528 566 Q528 562 528 557.5 Q528 553 527 546 L512 420 Q506 371 473 337.5 Q440 304 359 295 L474 6 Q475 4 474 2 Q473 0 469 0 L465 0 Q461 0 458.5 2 Q456 4 455 6 L342 293 Q332 292 322 292 Q312 292 301 292 L124 292 L89 6 Z M268 872 L330 758 L421 872 Q424 876 426.5 877 Q429 878 430 878 L436 878 Q439 878 439.5 876 Q440 874 438 872 L342 749 Q341 747 338.5 745.5 Q336 744 333 744 L327 744 Q324 744 321.5 746 Q319 748 318 750 L252 872 Q251 874 252 876 Q253 878 256 878 L261 878 Q263 878 265 876.5 Q267 875 268 872 Z " />
<glyph glyph-name="Sacute" unicode="&#x15a;" horiz-adv-x="541" d="M468 504 L474 557 Q475 564 475 568.5 Q475 573 475 577 Q475 619 442 646 Q409 673 316 673 Q212 673 173.5 639.5 Q135 606 129 557 L123 506 Q122 499 122 496.5 Q122 494 122 492 Q122 456 142.5 436 Q163 416 185 407 L375 330 Q403 319 428.5 294 Q454 269 454 228 Q454 225 454 222.5 Q454 220 453 214 L442 123 Q435 66 390.5 29 Q346 -8 232 -8 Q132 -8 92.5 22.5 Q53 53 53 101 Q53 106 53.5 111.5 Q54 117 55 123 L61 170 Q62 173 63 174.5 Q64 176 68 176 L72 176 Q74 176 75.5 174 Q77 172 77 170 L71 123 Q70 119 70 113 Q70 107 70 103 Q70 62 103.5 34.5 Q137 7 233 7 Q337 7 378.5 40.5 Q420 74 426 123 L437 214 Q438 220 438 222 Q438 224 438 227 Q438 264 415 285 Q392 306 367 316 L177 393 Q153 403 129.5 426.5 Q106 450 106 491 Q106 494 106 497 Q106 500 107 506 L113 557 Q120 614 161.5 651 Q203 688 318 688 Q417 688 454 657.5 Q491 627 491 579 Q491 575 491 569.5 Q491 564 490 557 L484 504 Q484 501 482 499.5 Q480 498 478 498 L474 498 Q471 498 469 499 Q467 500 468 504 Z M425 872 L326 747 Q325 746 324 745 Q323 744 320 744 L313 744 Q311 744 310.5 745.5 Q310 747 311 749 L409 874 Q410 875 411.5 876.5 Q413 878 416 878 L423 878 Q427 878 427 876 Q427 874 425 872 Z " />
<glyph glyph-name="Scircumflex" unicode="&#x15c;" horiz-adv-x="541" d="M468 504 L474 557 Q475 564 475 568.5 Q475 573 475 577 Q475 619 442 646 Q409 673 316 673 Q212 673 173.5 639.5 Q135 606 129 557 L123 506 Q122 499 122 496.5 Q122 494 122 492 Q122 456 142.5 436 Q163 416 185 407 L375 330 Q403 319 428.5 294 Q454 269 454 228 Q454 225 454 222.5 Q454 220 453 214 L442 123 Q435 66 390.5 29 Q346 -8 232 -8 Q132 -8 92.5 22.5 Q53 53 53 101 Q53 106 53.5 111.5 Q54 117 55 123 L61 170 Q62 173 63 174.5 Q64 176 68 176 L72 176 Q74 176 75.5 174 Q77 172 77 170 L71 123 Q70 119 70 113 Q70 107 70 103 Q70 62 103.5 34.5 Q137 7 233 7 Q337 7 378.5 40.5 Q420 74 426 123 L437 214 Q438 220 438 222 Q438 224 438 227 Q438 264 415 285 Q392 306 367 316 L177 393 Q153 403 129.5 426.5 Q106 450 106 491 Q106 494 106 497 Q106 500 107 506 L113 557 Q120 614 161.5 651 Q203 688 318 688 Q417 688 454 657.5 Q491 627 491 579 Q491 575 491 569.5 Q491 564 490 557 L484 504 Q484 501 482 499.5 Q480 498 478 498 L474 498 Q471 498 469 499 Q467 500 468 504 Z M330 864 L239 750 Q237 747 235 745.5 Q233 744 231 744 L225 744 Q222 744 221.5 746 Q221 748 222 750 L317 872 Q318 874 321 876 Q324 878 327 878 L334 878 Q337 878 339 876.5 Q341 875 342 873 L408 750 Q409 748 408.5 746 Q408 744 405 744 L401 744 Q399 744 396.5 745 Q394 746 392 750 L330 864 Z " />
<glyph glyph-name="Scedilla" unicode="&#x15e;" horiz-adv-x="542" d="M236 -211 L115 -211 Q112 -211 111 -209.5 Q110 -208 110 -205 L110 -201 Q110 -198 112 -196.5 Q114 -195 117 -195 L238 -195 Q257 -195 282.5 -181.5 Q308 -168 308 -123 Q308 -93 288.5 -82.5 Q269 -72 253 -72 L200 -72 Q196 -72 194.5 -70 Q193 -68 194 -64 L217 -8 Q126 -6 89.5 24.5 Q53 55 53 101 Q53 106 53.5 111.5 Q54 117 55 123 L61 170 Q62 173 63 174.5 Q64 176 68 176 L72 176 Q74 176 75.5 174 Q77 172 77 170 L71 123 Q70 119 70 113 Q70 107 70 103 Q70 62 103.5 34.5 Q137 7 233 7 Q337 7 378.5 40.5 Q420 74 426 123 L437 214 Q438 220 438 222 Q438 224 438 227 Q438 264 415 285 Q392 306 367 316 L177 393 Q153 403 129.5 426.5 Q106 450 106 491 Q106 494 106 497 Q106 500 107 506 L113 557 Q120 614 161.5 651 Q203 688 318 688 Q417 688 454 657.5 Q491 627 491 579 Q491 575 491 569.5 Q491 564 490 557 L484 504 Q484 501 482 499.5 Q480 498 478 498 L474 498 Q471 498 469 499 Q467 500 468 504 L474 557 Q475 564 475 568.5 Q475 573 475 577 Q475 619 442 646 Q409 673 316 673 Q212 673 173.5 639.5 Q135 606 129 557 L123 506 Q122 499 122 496.5 Q122 494 122 492 Q122 456 142.5 436 Q163 416 185 407 L375 330 Q403 319 428.5 294 Q454 269 454 228 Q454 225 454 222.5 Q454 220 453 214 L442 123 Q435 66 390.5 29 Q346 -8 232 -8 L213 -56 L255 -56 Q277 -56 301 -70 Q325 -84 325 -121 Q325 -176 293.5 -193.5 Q262 -211 236 -211 Z " />
<glyph glyph-name="Scommaaccent" unicode="&#x218;" horiz-adv-x="541" d="M468 504 L474 557 Q475 564 475 568.5 Q475 573 475 577 Q475 619 442 646 Q409 673 316 673 Q212 673 173.5 639.5 Q135 606 129 557 L123 506 Q122 499 122 496.5 Q122 494 122 492 Q122 456 142.5 436 Q163 416 185 407 L375 330 Q403 319 428.5 294 Q454 269 454 228 Q454 225 454 222.5 Q454 220 453 214 L442 123 Q435 66 390.5 29 Q346 -8 232 -8 Q132 -8 92.5 22.5 Q53 53 53 101 Q53 106 53.5 111.5 Q54 117 55 123 L61 170 Q62 173 63 174.5 Q64 176 68 176 L72 176 Q74 176 75.5 174 Q77 172 77 170 L71 123 Q70 119 70 113 Q70 107 70 103 Q70 62 103.5 34.5 Q137 7 233 7 Q337 7 378.5 40.5 Q420 74 426 123 L437 214 Q438 220 438 222 Q438 224 438 227 Q438 264 415 285 Q392 306 367 316 L177 393 Q153 403 129.5 426.5 Q106 450 106 491 Q106 494 106 497 Q106 500 107 506 L113 557 Q120 614 161.5 651 Q203 688 318 688 Q417 688 454 657.5 Q491 627 491 579 Q491 575 491 569.5 Q491 564 490 557 L484 504 Q484 501 482 499.5 Q480 498 478 498 L474 498 Q471 498 469 499 Q467 500 468 504 Z M227 -81 L230 -56 Q230 -53 232 -51.5 Q234 -50 237 -50 L241 -50 Q244 -50 245 -51.5 Q246 -53 246 -56 L243 -81 Q239 -114 225.5 -139 Q212 -164 197 -186 Q196 -188 194 -189 Q192 -190 189 -189 L185 -187 Q184 -186 183 -184.5 Q182 -183 184 -179 Q202 -151 212.5 -130.5 Q223 -110 227 -81 Z " />
<glyph glyph-name="Tcommaaccent" unicode="&#x162;" horiz-adv-x="483" d="M81 680 L494 680 Q497 680 498.5 678.5 Q500 677 500 674 L500 671 Q500 668 498 666.5 Q496 665 493 665 L294 665 L213 6 Q212 2 211 1 Q210 0 206 0 L202 0 Q200 0 198.5 1.5 Q197 3 197 6 L278 665 L80 665 Q77 665 75.5 666.5 Q74 668 74 671 L74 674 Q74 677 76 678.5 Q78 680 81 680 Z M186 -81 L189 -56 Q189 -53 191 -51.5 Q193 -50 196 -50 L200 -50 Q203 -50 204 -51.5 Q205 -53 205 -56 L202 -81 Q198 -114 184.5 -139 Q171 -164 156 -186 Q155 -188 153 -189 Q151 -190 148 -189 L144 -187 Q143 -186 142 -184.5 Q141 -183 143 -179 Q161 -151 171.5 -130.5 Q182 -110 186 -81 Z " />
<glyph glyph-name="Tcaron" unicode="&#x164;" horiz-adv-x="483" d="M81 680 L494 680 Q497 680 498.5 678.5 Q500 677 500 674 L500 671 Q500 668 498 666.5 Q496 665 493 665 L294 665 L213 6 Q212 2 211 1 Q210 0 206 0 L202 0 Q200 0 198.5 1.5 Q197 3 197 6 L278 665 L80 665 Q77 665 75.5 666.5 Q74 668 74 671 L74 674 Q74 677 76 678.5 Q78 680 81 680 Z M232 872 L294 758 L385 872 Q388 876 390.5 877 Q393 878 394 878 L400 878 Q403 878 403.5 876 Q404 874 402 872 L306 749 Q305 747 302.5 745.5 Q300 744 297 744 L291 744 Q288 744 285.5 746 Q283 748 282 750 L216 872 Q215 874 216 876 Q217 878 220 878 L225 878 Q227 878 229 876.5 Q231 875 232 872 Z " />
<glyph glyph-name="Utilde" unicode="&#x168;" horiz-adv-x="596" d="M168 674 L100 123 Q99 116 99 112.5 Q99 109 99 105 Q99 62 134 34.5 Q169 7 263 7 Q367 7 408 40.5 Q449 74 455 123 L523 674 Q524 677 525 678.5 Q526 680 530 680 L534 680 Q536 680 537.5 678.5 Q539 677 539 674 L471 123 Q464 66 420 29 Q376 -8 261 -8 Q160 -8 121.5 23 Q83 54 83 103 Q83 107 83 111.5 Q83 116 84 123 L152 674 Q153 678 154 679 Q155 680 159 680 L163 680 Q165 680 166.5 678.5 Q168 677 168 674 Z M299 848 Q277 848 266.5 834 Q256 820 252 780 L251 770 Q251 767 249 765.5 Q247 764 244 764 L240 764 Q237 764 236 765.5 Q235 767 235 770 L236 782 Q240 831 256 847 Q272 863 299 863 Q309 863 322 857 Q335 851 345 839 L383 796 Q389 789 397.5 784 Q406 779 415 779 Q437 779 447.5 792.5 Q458 806 462 847 L463 857 Q463 860 465 861.5 Q467 863 470 863 L474 863 Q477 863 478 861.5 Q479 860 479 857 L478 845 Q474 796 457.5 780 Q441 764 415 764 Q405 764 392.5 770 Q380 776 369 788 L331 830 Q324 837 316 842.5 Q308 848 299 848 Z " />
<glyph glyph-name="Umacron" unicode="&#x16a;" horiz-adv-x="596" d="M168 674 L100 123 Q99 116 99 112.5 Q99 109 99 105 Q99 62 134 34.5 Q169 7 263 7 Q367 7 408 40.5 Q449 74 455 123 L523 674 Q524 677 525 678.5 Q526 680 530 680 L534 680 Q536 680 537.5 678.5 Q539 677 539 674 L471 123 Q464 66 420 29 Q376 -8 261 -8 Q160 -8 121.5 23 Q83 54 83 103 Q83 107 83 111.5 Q83 116 84 123 L152 674 Q153 678 154 679 Q155 680 159 680 L163 680 Q165 680 166.5 678.5 Q168 677 168 674 Z M222 807 L490 807 Q493 807 494.5 805.5 Q496 804 496 802 L496 798 Q496 795 494 793.5 Q492 792 489 792 L221 792 Q218 792 216.5 793.5 Q215 795 215 798 L215 801 Q215 804 217 805.5 Q219 807 222 807 Z " />
<glyph glyph-name="Ubreve" unicode="&#x16c;" horiz-adv-x="596" d="M168 674 L100 123 Q99 116 99 112.5 Q99 109 99 105 Q99 62 134 34.5 Q169 7 263 7 Q367 7 408 40.5 Q449 74 455 123 L523 674 Q524 677 525 678.5 Q526 680 530 680 L534 680 Q536 680 537.5 678.5 Q539 677 539 674 L471 123 Q464 66 420 29 Q376 -8 261 -8 Q160 -8 121.5 23 Q83 54 83 103 Q83 107 83 111.5 Q83 116 84 123 L152 674 Q153 678 154 679 Q155 680 159 680 L163 680 Q165 680 166.5 678.5 Q168 677 168 674 Z M278 872 L276 846 Q275 840 275 835.5 Q275 831 275 828 Q275 797 291.5 781.5 Q308 766 354 766 Q411 766 428 792.5 Q445 819 449 860 L450 872 Q450 876 451.5 877 Q453 878 457 878 L461 878 Q464 878 465 876 Q466 874 466 872 L465 860 Q461 811 440 781 Q419 751 352 751 Q300 751 279.5 770.5 Q259 790 259 828 Q259 832 259 835 Q259 838 260 846 L262 872 Q262 875 264 876.5 Q266 878 269 878 L273 878 Q275 878 276.5 877 Q278 876 278 872 Z " />
<glyph glyph-name="Uring" unicode="&#x16e;" horiz-adv-x="596" d="M168 674 L100 123 Q99 116 99 112.5 Q99 109 99 105 Q99 62 134 34.5 Q169 7 263 7 Q367 7 408 40.5 Q449 74 455 123 L523 674 Q524 677 525 678.5 Q526 680 530 680 L534 680 Q536 680 537.5 678.5 Q539 677 539 674 L471 123 Q464 66 420 29 Q376 -8 261 -8 Q160 -8 121.5 23 Q83 54 83 103 Q83 107 83 111.5 Q83 116 84 123 L152 674 Q153 678 154 679 Q155 680 159 680 L163 680 Q165 680 166.5 678.5 Q168 677 168 674 Z M443 798 L442 787 Q440 761 417.5 744.5 Q395 728 348 728 Q308 728 290 745.5 Q272 763 272 785 Q272 788 272 794 Q272 800 273 806 L274 818 Q276 844 297.5 861.5 Q319 879 368 879 Q408 879 426 861 Q444 843 444 819 Q444 815 444 810 Q444 805 443 798 Z M426 787 L427 798 Q428 805 428 809.5 Q428 814 428 818 Q428 837 414 850.5 Q400 864 366 864 Q327 864 309 850.5 Q291 837 290 818 L289 806 Q288 800 288 794 Q288 788 288 786 Q288 770 301.5 756.5 Q315 743 350 743 Q387 743 406 755.5 Q425 768 426 787 Z " />
<glyph glyph-name="Uhungarumlaut" unicode="&#x170;" horiz-adv-x="596" d="M168 674 L100 123 Q99 116 99 112.5 Q99 109 99 105 Q99 62 134 34.5 Q169 7 263 7 Q367 7 408 40.5 Q449 74 455 123 L523 674 Q524 677 525 678.5 Q526 680 530 680 L534 680 Q536 680 537.5 678.5 Q539 677 539 674 L471 123 Q464 66 420 29 Q376 -8 261 -8 Q160 -8 121.5 23 Q83 54 83 103 Q83 107 83 111.5 Q83 116 84 123 L152 674 Q153 678 154 679 Q155 680 159 680 L163 680 Q165 680 166.5 678.5 Q168 677 168 674 Z M412 872 L329 750 Q327 747 324.5 745.5 Q322 744 320 744 L316 744 Q313 744 313 746.5 Q313 749 314 750 L395 872 Q396 874 398.5 876 Q401 878 404 878 L409 878 Q413 878 413 876 Q413 874 412 872 Z M489 872 L391 748 Q389 746 386.5 745 Q384 744 383 744 L378 744 Q375 744 375 746 Q375 748 376 750 L471 872 Q472 874 475 876 Q478 878 481 878 L487 878 Q491 878 490.5 876 Q490 874 489 872 Z " />
<glyph glyph-name="Uogonek" unicode="&#x172;" horiz-adv-x="596" d="M168 674 L100 123 Q99 117 99 112.5 Q99 108 99 105 Q99 62 134 34.5 Q169 7 263 7 Q367 7 408 40.5 Q449 74 455 123 L523 674 Q523 677 524.5 678.5 Q526 680 529 680 L533 680 Q536 680 537.5 678.5 Q539 677 539 674 L471 123 Q468 97 457.5 74 Q447 51 428 35 Q411 20 379.5 -5 Q348 -30 348 -71 Q348 -97 364.5 -110.5 Q381 -124 417 -124 L455 -124 Q458 -124 459.5 -125.5 Q461 -127 461 -130 L461 -133 Q461 -136 459.5 -137.5 Q458 -139 455 -139 L417 -139 Q376 -139 354 -122.5 Q332 -106 332 -72 Q332 -49 341 -30.5 Q350 -12 365 4 Q345 -1 318.5 -4.5 Q292 -8 261 -8 Q160 -8 121.5 23 Q83 54 83 103 Q83 106 83 111 Q83 116 84 123 L152 674 Q152 677 153.5 678.5 Q155 680 158 680 L162 680 Q165 680 166.5 678.5 Q168 677 168 674 Z " />
<glyph glyph-name="Wcircumflex" unicode="&#x174;" horiz-adv-x="790" d="M453 674 L531 92 Q533 74 535 60 Q537 46 538 30 Q544 47 549 61 Q554 75 561 92 L781 674 Q782 678 784 679 Q786 680 789 680 L794 680 Q797 680 798 679 Q799 678 798 674 L546 6 Q545 3 543 1.5 Q541 0 538 0 L533 0 Q530 0 528 1.5 Q526 3 525 6 L448 595 Q447 605 445 617.5 Q443 630 441 648 Q436 633 431 620 Q426 607 422 595 L199 6 Q198 3 196 1.5 Q194 0 191 0 L186 0 Q183 0 181 1.5 Q179 3 178 6 L90 674 Q89 678 91 679 Q93 680 97 680 L101 680 Q103 680 104 678.5 Q105 677 106 674 L184 92 Q185 80 187.5 59.5 Q190 39 191 28 Q198 45 204.5 62 Q211 79 215 92 L435 674 Q436 677 438 678.5 Q440 680 442 680 L446 680 Q450 680 451 678.5 Q452 677 453 674 Z M455 864 L364 750 Q362 747 360 745.5 Q358 744 356 744 L350 744 Q347 744 346.5 746 Q346 748 347 750 L442 872 Q443 874 446 876 Q449 878 452 878 L459 878 Q462 878 464 876.5 Q466 875 467 873 L533 750 Q534 748 533.5 746 Q533 744 530 744 L526 744 Q524 744 521.5 745 Q519 746 517 750 L455 864 Z " />
<glyph glyph-name="Wgrave" unicode="&#x1e80;" horiz-adv-x="790" d="M453 674 L531 92 Q533 74 535 60 Q537 46 538 30 Q544 47 549 61 Q554 75 561 92 L781 674 Q782 678 784 679 Q786 680 789 680 L794 680 Q797 680 798 679 Q799 678 798 674 L546 6 Q545 3 543 1.5 Q541 0 538 0 L533 0 Q530 0 528 1.5 Q526 3 525 6 L448 595 Q447 605 445 617.5 Q443 630 441 648 Q436 633 431 620 Q426 607 422 595 L199 6 Q198 3 196 1.5 Q194 0 191 0 L186 0 Q183 0 181 1.5 Q179 3 178 6 L90 674 Q89 678 91 679 Q93 680 97 680 L101 680 Q103 680 104 678.5 Q105 677 106 674 L184 92 Q185 80 187.5 59.5 Q190 39 191 28 Q198 45 204.5 62 Q211 79 215 92 L435 674 Q436 677 438 678.5 Q440 680 442 680 L446 680 Q450 680 451 678.5 Q452 677 453 674 Z M435 747 L366 872 Q365 873 365.5 875.5 Q366 878 370 878 L376 878 Q379 878 380.5 876.5 Q382 875 383 874 L449 749 Q450 747 449.5 745.5 Q449 744 447 744 L442 744 Q439 744 437.5 745 Q436 746 435 747 Z " />
<glyph glyph-name="Wacute" unicode="&#x1e82;" horiz-adv-x="790" d="M453 674 L531 92 Q533 74 535 60 Q537 46 538 30 Q544 47 549 61 Q554 75 561 92 L781 674 Q782 678 784 679 Q786 680 789 680 L794 680 Q797 680 798 679 Q799 678 798 674 L546 6 Q545 3 543 1.5 Q541 0 538 0 L533 0 Q530 0 528 1.5 Q526 3 525 6 L448 595 Q447 605 445 617.5 Q443 630 441 648 Q436 633 431 620 Q426 607 422 595 L199 6 Q198 3 196 1.5 Q194 0 191 0 L186 0 Q183 0 181 1.5 Q179 3 178 6 L90 674 Q89 678 91 679 Q93 680 97 680 L101 680 Q103 680 104 678.5 Q105 677 106 674 L184 92 Q185 80 187.5 59.5 Q190 39 191 28 Q198 45 204.5 62 Q211 79 215 92 L435 674 Q436 677 438 678.5 Q440 680 442 680 L446 680 Q450 680 451 678.5 Q452 677 453 674 Z M556 872 L457 747 Q456 746 455 745 Q454 744 451 744 L444 744 Q442 744 441.5 745.5 Q441 747 442 749 L540 874 Q541 875 542.5 876.5 Q544 878 547 878 L554 878 Q558 878 558 876 Q558 874 556 872 Z " />
<glyph glyph-name="Wdieresis" unicode="&#x1e84;" horiz-adv-x="790" d="M453 674 L531 92 Q533 74 535 60 Q537 46 538 30 Q544 47 549 61 Q554 75 561 92 L781 674 Q782 678 784 679 Q786 680 789 680 L794 680 Q797 680 798 679 Q799 678 798 674 L546 6 Q545 3 543 1.5 Q541 0 538 0 L533 0 Q530 0 528 1.5 Q526 3 525 6 L448 595 Q447 605 445 617.5 Q443 630 441 648 Q436 633 431 620 Q426 607 422 595 L199 6 Q198 3 196 1.5 Q194 0 191 0 L186 0 Q183 0 181 1.5 Q179 3 178 6 L90 674 Q89 678 91 679 Q93 680 97 680 L101 680 Q103 680 104 678.5 Q105 677 106 674 L184 92 Q185 80 187.5 59.5 Q190 39 191 28 Q198 45 204.5 62 Q211 79 215 92 L435 674 Q436 677 438 678.5 Q440 680 442 680 L446 680 Q450 680 451 678.5 Q452 677 453 674 Z M503 860 L491 760 Q491 757 489 755.5 Q487 754 484 754 L480 754 Q477 754 476 755.5 Q475 757 475 760 L487 860 Q487 863 489 864.5 Q491 866 494 866 L498 866 Q501 866 502 864.5 Q503 863 503 860 Z M424 860 L412 760 Q412 757 410 755.5 Q408 754 405 754 L401 754 Q398 754 397 755.5 Q396 757 396 760 L408 860 Q408 863 410 864.5 Q412 866 415 866 L419 866 Q422 866 423 864.5 Q424 863 424 860 Z " />
<glyph glyph-name="Ycircumflex" unicode="&#x176;" horiz-adv-x="502" d="M94 674 L243 330 Q245 326 248.5 318 Q252 310 253 305 Q256 311 260 317 Q264 323 268 330 L500 674 Q502 677 504 678.5 Q506 680 509 680 L515 680 Q518 680 519 679 Q520 678 518 674 L259 292 L224 6 Q223 2 222 1 Q221 0 217 0 L213 0 Q211 0 209.5 1.5 Q208 3 208 6 L243 291 L77 674 Q76 678 77.5 679 Q79 680 82 680 L87 680 Q90 680 91.5 679 Q93 678 94 674 Z M314 864 L223 750 Q221 747 219 745.5 Q217 744 215 744 L209 744 Q206 744 205.5 746 Q205 748 206 750 L301 872 Q302 874 305 876 Q308 878 311 878 L318 878 Q321 878 323 876.5 Q325 875 326 873 L392 750 Q393 748 392.5 746 Q392 744 389 744 L385 744 Q383 744 380.5 745 Q378 746 376 750 L314 864 Z " />
<glyph glyph-name="Ygrave" unicode="&#x1ef2;" horiz-adv-x="502" d="M94 674 L243 330 Q245 326 248.5 318 Q252 310 253 305 Q256 311 260 317 Q264 323 268 330 L500 674 Q502 677 504 678.5 Q506 680 509 680 L515 680 Q518 680 519 679 Q520 678 518 674 L259 292 L224 6 Q223 2 222 1 Q221 0 217 0 L213 0 Q211 0 209.5 1.5 Q208 3 208 6 L243 291 L77 674 Q76 678 77.5 679 Q79 680 82 680 L87 680 Q90 680 91.5 679 Q93 678 94 674 Z M287 747 L218 872 Q217 873 217.5 875.5 Q218 878 222 878 L228 878 Q231 878 232.5 876.5 Q234 875 235 874 L301 749 Q302 747 301.5 745.5 Q301 744 299 744 L294 744 Q291 744 289.5 745 Q288 746 287 747 Z " />
</font>
</svg>
