<?xml version="1.0" encoding="UTF-8"?>
<svg xmlns="http://www.w3.org/2000/svg" xmlns:xlink="http://www.w3.org/1999/xlink" version="1.2" >
<font id="Fly Sans Bold Regular">
<font-face  font-family="Fly Sans" units-per-em="1000" ascent="1000" descent="-300" font-style="normal" font-weight="700" font-stretch="normal" cap-height="680" x-height="500" underline-position="-125" underline-thickness="108" />
<missing-glyph  horiz-adv-x="841" d="M668 94 Q617 44 552.5 18 Q488 -8 419 -8 Q353 -8 288 18 Q223 44 173 94 Q122 144 96 209 Q70 274 70 341 Q70 407 96 472 Q122 537 173 588 Q223 638 288 664 Q353 690 419 690 Q486 690 552 664 Q618 638 668 588 Q718 538 744.5 472.5 Q771 407 771 341 Q771 273 744.5 208.5 Q718 144 668 94 Z M656 106 Q705 155 730 216.5 Q755 278 755 341 Q755 404 730 465.5 Q705 527 656 576 Q607 625 545 649.5 Q483 674 419 674 Q356 674 295 649.5 Q234 625 185 576 Q136 527 111 465.5 Q86 404 86 341 Q86 278 111 216.5 Q136 155 185 106 Q234 57 295 32.5 Q356 8 419 8 Q484 8 545.5 32.5 Q607 57 656 106 Z M512 160 L420 252 L328 160 Q317 149 307 148.5 Q297 148 286 160 L235 212 Q225 223 225 232 Q225 241 236 252 L328 344 L236 436 Q224 448 224 457 Q224 466 234 477 L285 529 Q296 541 306 540.5 Q316 540 328 528 L420 436 L512 528 Q524 540 533 540 Q542 540 553 530 L605 479 Q617 468 616.5 458 Q616 448 604 436 L512 344 L604 252 Q615 241 615.5 231 Q616 221 604 210 L552 159 Q541 149 532 149 Q523 149 512 160 Z " />
<glyph glyph-name="Eth" unicode="&#xd0;" horiz-adv-x="635" d="M330 0 L100 0 Q87 0 81 7.5 Q75 15 75 30 L75 281 L44 281 Q28 281 21 287.5 Q14 294 14 310 L14 373 Q14 389 21 395 Q28 401 44 401 L75 401 L75 650 Q75 666 81.5 673 Q88 680 104 680 L330 680 Q470 680 528 626.5 Q586 573 586 509 L586 171 Q586 107 528 53.5 Q470 0 330 0 Z M240 135 L330 135 Q367 135 394 150.5 Q421 166 421 200 L421 480 Q421 514 394 529.5 Q367 545 330 545 L240 545 L240 401 L311 401 Q327 401 334 395 Q341 389 341 373 L341 310 Q341 294 334 287.5 Q327 281 311 281 L240 281 L240 135 Z " />
<glyph glyph-name="eth" unicode="&#xf0;" horiz-adv-x="536" d="M271 -8 Q158 -8 100 34.5 Q42 77 42 148 L42 354 Q42 425 78.5 466.5 Q115 508 190 508 Q245 508 281.5 490 Q318 472 340 456 L340 519 L321 508 Q308 501 298.5 503 Q289 505 281 518 L270 536 Q263 547 266 557 Q269 567 282 575 L312 593 Q305 596 294.5 597 Q284 598 273 598 L172 598 Q156 598 149 605 Q142 612 142 628 L142 679 Q142 695 149 701.5 Q156 708 172 708 L273 708 Q329 708 370 696.5 Q411 685 438 665 L478 689 Q489 696 500 693.5 Q511 691 519 678 L530 661 Q537 650 534 640 Q531 630 518 622 L483 601 Q487 590 488.5 577.5 Q490 565 490 552 L490 148 Q490 77 437 34.5 Q384 -8 271 -8 Z M340 162 L340 330 Q324 341 296.5 356 Q269 371 241 371 Q213 371 207.5 357.5 Q202 344 202 329 L202 162 Q202 137 221 127 Q240 117 271 117 Q302 117 321 127 Q340 137 340 162 Z " />
<glyph glyph-name="Lslash" unicode="&#x141;" horiz-adv-x="479" d="M442 0 L106 0 Q93 0 87 7.5 Q81 15 81 30 L81 259 L65 253 Q51 247 42 251 Q33 255 27 269 L12 304 Q7 316 11 325.5 Q15 335 29 341 L81 362 L81 650 Q81 666 87.5 673 Q94 680 110 680 L218 680 Q234 680 240 673 Q246 666 246 650 L246 429 L276 441 Q288 446 298 442 Q308 438 315 424 L330 390 Q335 378 331 368.5 Q327 359 313 353 L246 326 L246 135 L442 135 Q458 135 465 129 Q472 123 472 107 L472 29 Q472 13 465 6.5 Q458 0 442 0 Z " />
<glyph glyph-name="lslash" unicode="&#x142;" horiz-adv-x="329" d="M217 0 L114 0 Q98 0 91.5 7 Q85 14 85 30 L85 263 L60 253 Q46 247 37 251 Q28 255 22 269 L7 304 Q2 316 6 325.5 Q10 335 24 341 L85 366 L85 669 Q85 685 91.5 692 Q98 699 114 699 L217 699 Q233 699 239 692 Q245 685 245 669 L245 430 L271 441 Q283 446 293.5 442 Q304 438 310 424 L325 390 Q330 378 326.5 368.5 Q323 359 308 353 L245 328 L245 30 Q245 14 239 7 Q233 0 217 0 Z " />
<glyph glyph-name="Scaron" unicode="&#x160;" horiz-adv-x="575" d="M368 480 L368 495 Q368 529 346 543.5 Q324 558 290 558 Q256 558 233.5 543.5 Q211 529 211 495 L211 485 Q211 465 223 455 Q235 445 243 442 L411 385 Q466 366 501 327.5 Q536 289 536 234 L536 163 Q536 99 481 45.5 Q426 -8 286 -8 Q146 -8 91 45.5 Q36 99 36 163 L36 230 Q36 246 42.5 253 Q49 260 65 260 L169 260 Q185 260 191 253 Q197 246 197 230 L197 185 Q197 151 222.5 136.5 Q248 122 285 122 Q322 122 348 136.5 Q374 151 374 185 L374 205 Q374 232 345 247 Q316 262 288 272 L144 326 Q106 340 78.5 378 Q51 416 51 459 L51 517 Q51 581 100.5 634.5 Q150 688 290 688 Q427 688 478 634.5 Q529 581 529 517 L529 480 Q529 464 522.5 457 Q516 450 500 450 L396 450 Q380 450 374 457 Q368 464 368 480 Z M277 849 L289 821 L301 849 Q305 859 315.5 868.5 Q326 878 342 878 L420 878 Q436 878 440.5 869.5 Q445 861 436 849 L365 757 Q355 744 344.5 735.5 Q334 727 318 727 L260 727 Q244 727 233.5 735.5 Q223 744 213 757 L142 849 Q133 861 137.5 869.5 Q142 878 158 878 L236 878 Q252 878 262.5 868.5 Q273 859 277 849 Z " />
<glyph glyph-name="scaron" unicode="&#x161;" horiz-adv-x="479" d="M295 352 L295 366 Q295 386 278 392 Q261 398 240 398 Q219 398 202.5 392 Q186 386 186 366 L186 356 Q186 345 193 338 Q200 331 207 329 L347 286 Q397 270 422 242 Q447 214 447 178 L447 128 Q447 79 398.5 35.5 Q350 -8 236 -8 Q122 -8 74.5 35.5 Q27 79 27 128 L27 149 Q27 163 33 169.5 Q39 176 54 176 L146 176 Q161 176 167 169.5 Q173 163 173 149 L173 135 Q173 115 193.5 109 Q214 103 236 103 Q258 103 279 109 Q300 115 300 135 L300 146 Q300 156 292 163 Q284 170 261 177 L120 224 Q92 233 66.5 264.5 Q41 296 41 333 L41 366 Q41 415 84.5 461.5 Q128 508 241 508 Q354 508 397.5 461.5 Q441 415 441 366 L441 352 Q441 337 435 330.5 Q429 324 413 324 L322 324 Q307 324 301 330.5 Q295 337 295 352 Z M232 679 L244 651 L256 679 Q260 689 270.5 698.5 Q281 708 297 708 L375 708 Q391 708 395.5 699.5 Q400 691 391 679 L320 587 Q310 574 299.5 565.5 Q289 557 273 557 L215 557 Q199 557 188.5 565.5 Q178 574 168 587 L97 679 Q88 691 92.5 699.5 Q97 708 113 708 L191 708 Q207 708 217.5 698.5 Q228 689 232 679 Z " />
<glyph glyph-name="Yacute" unicode="&#xdd;" horiz-adv-x="556" d="M197 650 L268 451 Q271 443 276 426.5 Q281 410 285 391 Q291 411 296 427 Q301 443 305 451 L389 650 Q394 663 401 671.5 Q408 680 424 680 L530 680 Q546 680 552.5 672 Q559 664 552 650 L368 252 L368 30 Q368 14 362 7 Q356 0 340 0 L232 0 Q216 0 209.5 7 Q203 14 203 30 L203 232 L18 650 Q12 663 17.5 671.5 Q23 680 39 680 L161 680 Q177 680 185 671.5 Q193 663 197 650 Z M437 848 L368 747 Q364 740 354.5 733.5 Q345 727 329 727 L250 727 Q237 727 232 733.5 Q227 740 234 756 L274 848 Q280 861 289.5 869.5 Q299 878 315 878 L422 878 Q438 878 442 869.5 Q446 861 437 848 Z " />
<glyph glyph-name="yacute" unicode="&#xfd;" horiz-adv-x="495" d="M177 470 L234 289 Q241 267 245.5 242 Q250 217 252 192 Q259 221 265.5 246.5 Q272 272 276 284 L338 470 Q342 484 348.5 492 Q355 500 371 500 L464 500 Q480 500 489 492.5 Q498 485 493 470 L276 -169 Q272 -180 265.5 -189.5 Q259 -199 243 -199 L169 -199 Q153 -199 144.5 -191.5 Q136 -184 140 -169 L183 -17 L13 470 Q8 485 17 492.5 Q26 500 42 500 L144 500 Q160 500 166.5 491.5 Q173 483 177 470 Z M400 678 L331 577 Q327 570 317.5 563.5 Q308 557 292 557 L213 557 Q200 557 195 563.5 Q190 570 197 586 L237 678 Q243 691 252.5 699.5 Q262 708 278 708 L385 708 Q401 708 405 699.5 Q409 691 400 678 Z " />
<glyph glyph-name="Thorn" unicode="&#xde;" horiz-adv-x="590" d="M225 650 L225 500 L305 500 Q445 500 502 446.5 Q559 393 559 329 L559 252 Q559 188 502 134.5 Q445 81 305 81 L225 81 L225 30 Q225 14 219 7 Q213 0 197 0 L89 0 Q73 0 66.5 7 Q60 14 60 30 L60 650 Q60 666 66.5 673 Q73 680 89 680 L197 680 Q213 680 219 673 Q225 666 225 650 Z M305 365 L225 365 L225 216 L305 216 Q342 216 369 231.5 Q396 247 396 281 L396 300 Q396 334 369 349.5 Q342 365 305 365 Z " />
<glyph glyph-name="thorn" unicode="&#xfe;" horiz-adv-x="550" d="M347 171 L347 329 Q347 344 341.5 357.5 Q336 371 308 371 Q279 371 251.5 356 Q224 341 209 330 L209 170 Q224 159 251.5 144 Q279 129 308 129 Q336 129 341.5 142.5 Q347 156 347 171 Z M209 669 L209 456 Q230 472 266.5 490 Q303 508 359 508 Q434 508 470.5 466.5 Q507 425 507 354 L507 146 Q507 75 470.5 33.5 Q434 -8 359 -8 Q303 -8 266.5 9.5 Q230 27 209 43 L209 -169 Q209 -185 203 -192 Q197 -199 181 -199 L78 -199 Q62 -199 55.5 -192 Q49 -185 49 -169 L49 669 Q49 685 55.5 692 Q62 699 78 699 L180 699 Q196 699 202.5 692 Q209 685 209 669 Z " />
<glyph glyph-name="CR" unicode="&#xd;" d="" />
<glyph glyph-name="Zcaron" unicode="&#x17d;" horiz-adv-x="503" d="M72 680 L431 680 Q447 680 454 674 Q461 668 461 652 L461 574 Q461 567 459 561.5 Q457 556 455 552 L223 135 L449 135 Q465 135 472 129 Q479 123 479 107 L479 29 Q479 13 472 6.5 Q465 0 449 0 L55 0 Q39 0 32 6.5 Q25 13 25 29 L25 107 Q25 114 26.5 118.5 Q28 123 30 127 L263 545 L72 545 Q56 545 49 551.5 Q42 558 42 574 L42 652 Q42 668 49 674 Q56 680 72 680 Z M246 849 L258 821 L270 849 Q274 859 284.5 868.5 Q295 878 311 878 L389 878 Q405 878 409.5 869.5 Q414 861 405 849 L334 757 Q324 744 313.5 735.5 Q303 727 287 727 L229 727 Q213 727 202.5 735.5 Q192 744 182 757 L111 849 Q102 861 106.5 869.5 Q111 878 127 878 L205 878 Q221 878 231.5 868.5 Q242 859 246 849 Z " />
<glyph glyph-name="zcaron" unicode="&#x17e;" horiz-adv-x="454" d="M74 500 L379 500 Q395 500 402 494 Q409 488 409 472 L409 400 Q409 394 407.5 388 Q406 382 403 378 L221 130 L399 130 Q415 130 422 124 Q429 118 429 102 L429 29 Q429 13 422 6.5 Q415 0 399 0 L56 0 Q40 0 33 6.5 Q26 13 26 29 L26 102 Q26 109 28 114 Q30 119 32 123 L212 370 L74 370 Q58 370 51 376.5 Q44 383 44 399 L44 472 Q44 488 51 494 Q58 500 74 500 Z M223 679 L235 651 L247 679 Q251 689 261.5 698.5 Q272 708 288 708 L366 708 Q382 708 386.5 699.5 Q391 691 382 679 L311 587 Q301 574 290.5 565.5 Q280 557 264 557 L206 557 Q190 557 179.5 565.5 Q169 574 159 587 L88 679 Q79 691 83.5 699.5 Q88 708 104 708 L182 708 Q198 708 208.5 698.5 Q219 689 223 679 Z " />
<glyph glyph-name="onehalf" unicode="&#xbd;" horiz-adv-x="862" d="M671 658 L336 22 Q328 6 318.5 -1 Q309 -8 293 -8 L213 -8 Q200 -8 197.5 2.5 Q195 13 199 22 L534 658 Q540 670 550.5 679 Q561 688 577 688 L657 688 Q670 688 674 679 Q678 670 671 658 Z M51 665 L212 685 Q219 686 224.5 683 Q230 680 230 667 L230 398 L288 398 Q298 398 303 394 Q308 390 308 380 L308 324 Q308 314 303 310 Q298 306 288 306 L52 306 Q42 306 37.5 310 Q33 314 33 324 L33 380 Q33 390 37.5 394 Q42 398 52 398 L113 398 L113 580 L51 573 Q43 572 38 575.5 Q33 579 33 588 L33 644 Q33 654 38 659 Q43 664 51 665 Z M659 92 L816 92 Q826 92 830 88 Q834 84 834 74 L834 18 Q834 8 830 4 Q826 0 816 0 L560 0 Q550 0 545.5 4 Q541 8 541 18 L541 111 Q541 133 551.5 147.5 Q562 162 580 169 L691 217 Q702 222 709 228 Q716 234 716 249 L716 263 Q716 277 705.5 283 Q695 289 681 289 Q666 289 656 283 Q646 277 646 263 L646 247 Q646 237 642 233 Q638 229 628 229 L550 229 Q540 229 536 233 Q532 237 532 247 L532 276 Q532 313 567 345.5 Q602 378 682 378 Q762 378 797 345.5 Q832 313 832 276 L832 243 Q832 202 812 181 Q792 160 769 150 L668 106 Q661 103 660 100.5 Q659 98 659 94 L659 92 Z " />
<glyph glyph-name="onequarter" unicode="&#xbc;" horiz-adv-x="846" d="M666 658 L331 22 Q323 6 313.5 -1 Q304 -8 288 -8 L208 -8 Q195 -8 192.5 2.5 Q190 13 194 22 L529 658 Q535 670 545.5 679 Q556 688 572 688 L652 688 Q665 688 669 679 Q673 670 666 658 Z M51 665 L212 685 Q219 686 224.5 683 Q230 680 230 667 L230 398 L288 398 Q298 398 303 394 Q308 390 308 380 L308 324 Q308 314 303 310 Q298 306 288 306 L52 306 Q42 306 37.5 310 Q33 314 33 324 L33 380 Q33 390 37.5 394 Q42 398 52 398 L113 398 L113 580 L51 573 Q43 572 38 575.5 Q33 579 33 588 L33 644 Q33 654 38 659 Q43 664 51 665 Z M670 356 L625 173 L693 173 L693 356 Q693 365 697 369.5 Q701 374 711 374 L790 374 Q800 374 804 369.5 Q808 365 808 356 L808 18 Q808 9 804 4.5 Q800 0 790 0 L711 0 Q701 0 697 4.5 Q693 9 693 18 L693 86 L524 86 Q514 86 509 90.5 Q504 95 504 105 L504 141 Q504 151 505.5 157.5 Q507 164 508 169 L556 356 Q558 364 563.5 369 Q569 374 579 374 L656 374 Q666 374 668.5 368.5 Q671 363 670 356 Z " />
<glyph glyph-name="onesuperior" unicode="&#xb9;" horiz-adv-x="350" d="M64 815 L225 835 Q232 836 237.5 833 Q243 830 243 817 L243 548 L301 548 Q311 548 316 544 Q321 540 321 530 L321 474 Q321 464 316 460 Q311 456 301 456 L65 456 Q55 456 50.5 460 Q46 464 46 474 L46 530 Q46 540 50.5 544 Q55 548 65 548 L126 548 L126 730 L64 723 Q56 722 51 725.5 Q46 729 46 738 L46 794 Q46 804 51 809 Q56 814 64 815 Z " />
<glyph glyph-name="threequarters" unicode="&#xbe;" horiz-adv-x="847" d="M667 658 L332 22 Q324 6 314.5 -1 Q305 -8 289 -8 L209 -8 Q196 -8 193.5 2.5 Q191 13 195 22 L530 658 Q536 670 546.5 679 Q557 688 573 688 L653 688 Q666 688 670 679 Q674 670 667 658 Z M213 414 L213 422 Q213 440 200.5 447.5 Q188 455 175 455 L139 455 Q130 455 125.5 458.5 Q121 462 121 472 L121 517 Q121 526 125.5 530 Q130 534 139 534 L170 534 Q183 534 194.5 541.5 Q206 549 206 567 L206 572 Q206 588 197 593.5 Q188 599 175 599 Q162 599 152 593.5 Q142 588 142 572 L142 567 Q142 557 137.5 552.5 Q133 548 123 548 L47 548 Q37 548 32.5 552.5 Q28 557 28 567 L28 585 Q28 622 61.5 653 Q95 684 176 684 Q257 684 289 654.5 Q321 625 321 589 L321 550 Q321 531 311.5 518.5 Q302 506 281 497 Q305 486 316.5 470.5 Q328 455 328 435 L328 397 Q328 361 292 331.5 Q256 302 178 302 Q100 302 63 333 Q26 364 26 401 L26 420 Q26 430 30 435 Q34 440 43 440 L121 440 Q131 440 135.5 435 Q140 430 140 420 L140 414 Q140 398 152 392.5 Q164 387 177 387 Q190 387 201.5 392.5 Q213 398 213 414 Z M671 356 L626 173 L694 173 L694 356 Q694 365 698 369.5 Q702 374 712 374 L791 374 Q801 374 805 369.5 Q809 365 809 356 L809 18 Q809 9 805 4.5 Q801 0 791 0 L712 0 Q702 0 698 4.5 Q694 9 694 18 L694 86 L525 86 Q515 86 510 90.5 Q505 95 505 105 L505 141 Q505 151 506.5 157.5 Q508 164 509 169 L557 356 Q559 364 564.5 369 Q570 374 580 374 L657 374 Q667 374 669.5 368.5 Q672 363 671 356 Z " />
<glyph glyph-name="threesuperior" unicode="&#xb3;" horiz-adv-x="350" d="M210 564 L210 572 Q210 590 197.5 597.5 Q185 605 172 605 L136 605 Q127 605 122.5 608.5 Q118 612 118 622 L118 667 Q118 676 122.5 680 Q127 684 136 684 L167 684 Q180 684 191.5 691.5 Q203 699 203 717 L203 722 Q203 738 194 743.5 Q185 749 172 749 Q159 749 149 743.5 Q139 738 139 722 L139 717 Q139 707 134.5 702.5 Q130 698 120 698 L44 698 Q34 698 29.5 702.5 Q25 707 25 717 L25 735 Q25 772 58.5 803 Q92 834 173 834 Q254 834 286 804.5 Q318 775 318 739 L318 700 Q318 681 308.5 668.5 Q299 656 278 647 Q302 636 313.5 620.5 Q325 605 325 585 L325 547 Q325 511 289 481.5 Q253 452 175 452 Q97 452 60 483 Q23 514 23 551 L23 570 Q23 580 27 585 Q31 590 40 590 L118 590 Q128 590 132.5 585 Q137 580 137 570 L137 564 Q137 548 149 542.5 Q161 537 174 537 Q187 537 198.5 542.5 Q210 548 210 564 Z " />
<glyph glyph-name="twosuperior" unicode="&#xb2;" horiz-adv-x="350" d="M150 548 L307 548 Q317 548 321 544 Q325 540 325 530 L325 474 Q325 464 321 460 Q317 456 307 456 L51 456 Q41 456 36.5 460 Q32 464 32 474 L32 567 Q32 589 42.5 603.5 Q53 618 71 625 L182 673 Q193 678 200 684 Q207 690 207 705 L207 719 Q207 733 196.5 739 Q186 745 172 745 Q157 745 147 739 Q137 733 137 719 L137 703 Q137 693 133 689 Q129 685 119 685 L41 685 Q31 685 27 689 Q23 693 23 703 L23 732 Q23 769 58 801.5 Q93 834 173 834 Q253 834 288 801.5 Q323 769 323 732 L323 699 Q323 658 303 637 Q283 616 260 606 L159 562 Q152 559 151 556.5 Q150 554 150 550 L150 548 Z " />
<glyph glyph-name="brokenbar" unicode="&#xa6;" horiz-adv-x="278" d="M219 650 L219 344 Q219 328 213 321 Q207 314 191 314 L88 314 Q72 314 65.5 321 Q59 328 59 344 L59 650 Q59 666 65.5 673 Q72 680 88 680 L191 680 Q207 680 213 673 Q219 666 219 650 Z M219 125 L219 -181 Q219 -197 213 -204 Q207 -211 191 -211 L88 -211 Q72 -211 65.5 -204 Q59 -197 59 -181 L59 125 Q59 141 65.5 148 Q72 155 88 155 L191 155 Q207 155 213 148 Q219 141 219 125 Z " />
<glyph glyph-name="minus" unicode="&#x2212;" horiz-adv-x="577" d="M80 389 L497 389 Q513 389 520 383 Q527 377 527 361 L527 288 Q527 272 520 265.5 Q513 259 497 259 L80 259 Q64 259 57 265.5 Q50 272 50 288 L50 361 Q50 377 57 383 Q64 389 80 389 Z " />
<glyph glyph-name="multiply" unicode="&#xd7;" horiz-adv-x="469" d="M327 154 L234 247 L142 155 Q131 144 121.5 143 Q112 142 101 153 L49 205 Q38 216 38.5 226 Q39 236 50 247 L142 338 L50 430 Q39 441 39 450.5 Q39 460 49 471 L100 523 Q111 534 121 533.5 Q131 533 142 522 L234 430 L327 523 Q338 534 347.5 534.5 Q357 535 368 524 L420 472 Q431 461 430.5 451.5 Q430 442 419 431 L326 338 L419 246 Q430 236 430 225.5 Q430 215 419 204 L368 152 Q358 141 348 142 Q338 143 327 154 Z " />
<glyph glyph-name="space" unicode="&#x20;" horiz-adv-x="180" d="" />
<glyph glyph-name="exclam" unicode="&#x21;" horiz-adv-x="273" d="M220 390 L204 220 Q203 204 197.5 197 Q192 190 176 190 L99 190 Q83 190 77 197 Q71 204 70 220 L54 390 L54 650 Q54 666 60.5 673 Q67 680 83 680 L192 680 Q208 680 214 673 Q220 666 220 650 L220 390 Z M218 112 L218 29 Q218 13 212 6.5 Q206 0 190 0 L82 0 Q66 0 59.5 6.5 Q53 13 53 29 L53 112 Q53 128 59.5 135 Q66 142 82 142 L190 142 Q206 142 212 135 Q218 128 218 112 Z " />
<glyph glyph-name="quotedbl" unicode="&#x22;" horiz-adv-x="429" d="M379 490 Q378 474 372.5 467 Q367 460 351 460 L278 460 Q262 460 256 467 Q250 474 249 490 L236 650 Q235 666 242 673 Q249 680 265 680 L364 680 Q380 680 386.5 673 Q393 666 392 650 L379 490 Z M182 490 Q181 474 175.5 467 Q170 460 154 460 L81 460 Q65 460 59 467 Q53 474 52 490 L39 650 Q38 666 45 673 Q52 680 68 680 L167 680 Q183 680 189.5 673 Q196 666 195 650 L182 490 Z " />
<glyph glyph-name="numbersign" unicode="&#x23;" horiz-adv-x="623" d="M267 332 L250 273 L359 273 L376 332 L267 332 Z M57 273 L120 273 L137 332 L107 332 Q91 332 84 338.5 Q77 345 77 361 L77 414 Q77 430 84 436 Q91 442 107 442 L169 442 L189 512 Q193 525 201 533.5 Q209 542 225 542 L298 542 Q314 542 318.5 533.5 Q323 525 319 512 L299 442 L408 442 L428 512 Q432 525 440 533.5 Q448 542 464 542 L537 542 Q553 542 557.5 533.5 Q562 525 558 512 L538 442 L567 442 Q583 442 590 436 Q597 430 597 414 L597 361 Q597 345 590 338.5 Q583 332 567 332 L506 332 L489 273 L517 273 Q533 273 540 267 Q547 261 547 245 L547 192 Q547 176 540 169.5 Q533 163 517 163 L457 163 L437 92 Q433 77 425 69.5 Q417 62 401 62 L328 62 Q315 62 308.5 69.5 Q302 77 307 92 L327 163 L218 163 L198 92 Q194 77 186 69.5 Q178 62 162 62 L89 62 Q76 62 70 69.5 Q64 77 68 92 L88 163 L57 163 Q41 163 34 169.5 Q27 176 27 192 L27 245 Q27 261 34 267 Q41 273 57 273 Z " />
<glyph glyph-name="dollar" unicode="&#x24;" horiz-adv-x="490" d="M301 0 L198 0 Q182 0 175.5 7 Q169 14 169 30 L169 88 Q95 102 63.5 140 Q32 178 32 218 L32 239 Q32 253 38 259.5 Q44 266 59 266 L151 266 Q166 266 172 259.5 Q178 253 178 239 L178 225 Q178 205 198.5 199 Q219 193 241 193 Q263 193 284 199 Q305 205 305 225 L305 236 Q305 246 297 253 Q289 260 266 267 L125 314 Q97 323 71.5 354.5 Q46 386 46 423 L46 456 Q46 496 73 535 Q100 574 169 590 L169 650 Q169 666 175.5 673 Q182 680 198 680 L301 680 Q317 680 323 673 Q329 666 329 650 L329 589 Q394 572 420 533.5 Q446 495 446 456 L446 442 Q446 427 440 420.5 Q434 414 418 414 L327 414 Q312 414 306 420.5 Q300 427 300 442 L300 456 Q300 476 283 482 Q266 488 245 488 Q224 488 207.5 482 Q191 476 191 456 L191 446 Q191 435 198 428 Q205 421 212 419 L352 376 Q402 360 427 332 Q452 304 452 268 L452 218 Q452 180 423.5 143.5 Q395 107 329 91 L329 30 Q329 14 323 7 Q317 0 301 0 Z " />
<glyph glyph-name="percent" unicode="&#x25;" horiz-adv-x="827" d="M648 658 L313 22 Q305 6 295.5 -1 Q286 -8 270 -8 L190 -8 Q177 -8 174.5 2.5 Q172 13 176 22 L511 658 Q517 670 527.5 679 Q538 688 554 688 L634 688 Q647 688 651 679 Q655 670 648 658 Z M27 425 L27 581 Q27 618 62 651 Q97 684 179 684 Q260 684 295 651 Q330 618 330 581 L330 425 Q330 388 295 355 Q260 322 179 322 Q97 322 62 355 Q27 388 27 425 Z M213 444 L213 562 Q213 580 201.5 586 Q190 592 179 592 Q167 592 155.5 586 Q144 580 144 562 L144 444 Q144 426 155.5 420 Q167 414 179 414 Q190 414 201.5 420 Q213 426 213 444 Z M497 99 L497 255 Q497 292 532 325 Q567 358 649 358 Q730 358 765 325 Q800 292 800 255 L800 99 Q800 62 765 29 Q730 -4 649 -4 Q567 -4 532 29 Q497 62 497 99 Z M683 118 L683 236 Q683 254 671.5 260 Q660 266 649 266 Q637 266 625.5 260 Q614 254 614 236 L614 118 Q614 100 625.5 94 Q637 88 649 88 Q660 88 671.5 94 Q683 100 683 118 Z " />
<glyph glyph-name="ampersand" unicode="&#x26;" horiz-adv-x="690" d="M591 163 Q591 99 534.5 45.5 Q478 -8 316 -8 Q154 -8 99 43.5 Q44 95 44 159 L44 237 Q44 274 62.5 303 Q81 332 124 351 Q87 365 70.5 389.5 Q54 414 54 451 L54 521 Q54 585 102 636.5 Q150 688 289 688 Q429 688 478 634.5 Q527 581 527 517 L527 481 Q527 465 521 458 Q515 451 499 451 L396 451 Q380 451 373.5 458 Q367 465 367 481 L367 493 Q367 527 347.5 542.5 Q328 558 291 558 Q254 558 235 542.5 Q216 527 216 493 L216 476 Q216 442 239 426.5 Q262 411 299 411 L642 411 Q658 411 665 405 Q672 399 672 383 L672 310 Q672 294 665 287.5 Q658 281 642 281 L591 281 L591 163 Z M318 122 Q372 122 401.5 137.5 Q431 153 431 187 L431 281 L289 281 Q252 281 229 266 Q206 251 206 217 L206 187 Q206 153 235 137.5 Q264 122 318 122 Z " />
<glyph glyph-name="quotesingle" unicode="&#x27;" horiz-adv-x="232" d="M195 650 L182 490 Q181 474 175.5 467 Q170 460 154 460 L81 460 Q65 460 59 467 Q53 474 52 490 L39 650 Q38 666 45 673 Q52 680 68 680 L167 680 Q183 680 189.5 673 Q196 666 195 650 Z " />
<glyph glyph-name="parenleft" unicode="&#x28;" horiz-adv-x="342" d="M51 -62 L51 552 Q51 623 108 665.5 Q165 708 278 708 L289 708 Q305 708 312 701.5 Q319 695 319 679 L319 608 Q319 592 312 585 Q305 578 289 578 L278 578 Q247 578 231.5 568.5 Q216 559 216 534 L216 -44 Q216 -69 231.5 -78.5 Q247 -88 278 -88 L289 -88 Q305 -88 312 -95 Q319 -102 319 -118 L319 -189 Q319 -205 312 -211.5 Q305 -218 289 -218 L278 -218 Q165 -218 108 -175.5 Q51 -133 51 -62 Z " />
<glyph glyph-name="parenright" unicode="&#x29;" horiz-adv-x="342" d="M291 552 L291 -62 Q291 -133 234 -175.5 Q177 -218 64 -218 L53 -218 Q37 -218 30 -211.5 Q23 -205 23 -189 L23 -118 Q23 -102 30 -95 Q37 -88 53 -88 L64 -88 Q95 -88 110.5 -78.5 Q126 -69 126 -44 L126 534 Q126 559 110.5 568.5 Q95 578 64 578 L53 578 Q37 578 30 585 Q23 592 23 608 L23 679 Q23 695 30 701.5 Q37 708 53 708 L64 708 Q177 708 234 665.5 Q291 623 291 552 Z " />
<glyph glyph-name="asterisk" unicode="&#x2a;" horiz-adv-x="506" d="M229 258 Q213 258 206.5 265 Q200 272 201 288 L211 405 L107 338 Q94 330 84 332.5 Q74 335 67 349 L43 396 Q36 411 38 419.5 Q40 428 56 435 L156 477 L56 520 Q40 527 38 535.5 Q36 544 43 559 L67 606 Q74 620 84 622.5 Q94 625 107 617 L212 549 L201 678 Q200 694 207 701 Q214 708 230 708 L283 708 Q299 708 305.5 701 Q312 694 311 678 L300 553 L400 617 Q413 626 423 623 Q433 620 440 607 L465 559 Q472 546 470 536.5 Q468 527 452 520 L351 477 L452 435 Q468 428 470 418.5 Q472 409 465 396 L440 348 Q433 335 423 332 Q413 329 400 338 L301 401 L311 288 Q312 272 305 265 Q298 258 282 258 L229 258 Z " />
<glyph glyph-name="plus" unicode="&#x2b;" horiz-adv-x="505" d="M187 143 L187 273 L57 273 Q41 273 34 279.5 Q27 286 27 302 L27 375 Q27 391 34 397 Q41 403 57 403 L187 403 L187 534 Q187 550 193 557 Q199 564 215 564 L288 564 Q304 564 310.5 557 Q317 550 317 534 L317 403 L448 403 Q464 403 471 397 Q478 391 478 375 L478 302 Q478 286 471 279.5 Q464 273 448 273 L317 273 L317 143 Q317 127 310.5 120 Q304 113 288 113 L215 113 Q199 113 193 120 Q187 127 187 143 Z " />
<glyph glyph-name="comma" unicode="&#x2c;" horiz-adv-x="273" d="M67 42 L67 112 Q67 128 73.5 135 Q80 142 96 142 L202 142 Q218 142 224 135 Q230 128 230 112 L230 33 Q230 -27 188 -67.5 Q146 -108 65 -127 Q50 -131 41.5 -127 Q33 -123 28 -107 L4 -39 Q-1 -24 4 -15 Q9 -6 24 -2 Q49 5 58 15.5 Q67 26 67 42 Z " />
<glyph glyph-name="hyphen" unicode="&#x2d;" horiz-adv-x="429" d="M81 353 L348 353 Q364 353 371 347 Q378 341 378 325 L378 252 Q378 236 371 229.5 Q364 223 348 223 L81 223 Q65 223 58 229.5 Q51 236 51 252 L51 325 Q51 341 58 347 Q65 353 81 353 Z " />
<glyph glyph-name="period" unicode="&#x2e;" horiz-adv-x="251" d="M207 112 L207 29 Q207 13 201 6.5 Q195 0 179 0 L73 0 Q57 0 50.5 6.5 Q44 13 44 29 L44 112 Q44 128 50.5 135 Q57 142 73 142 L179 142 Q195 142 201 135 Q207 128 207 112 Z " />
<glyph glyph-name="slash" unicode="&#x2f;" horiz-adv-x="405" d="M386 669 L195 -118 Q191 -134 184 -141 Q177 -148 161 -148 L48 -148 Q35 -148 28 -140.5 Q21 -133 25 -118 L216 669 Q220 684 227 691.5 Q234 699 250 699 L363 699 Q379 699 384.5 691 Q390 683 386 669 Z " />
<glyph glyph-name="zero" unicode="0" horiz-adv-x="589" d="M49 163 L49 517 Q49 581 104.5 634.5 Q160 688 294 688 Q428 688 484 634.5 Q540 581 540 517 L540 163 Q540 99 484 45.5 Q428 -8 294 -8 Q160 -8 104.5 45.5 Q49 99 49 163 Z M375 192 L375 488 Q375 522 352 537.5 Q329 553 294 553 Q259 553 236.5 537.5 Q214 522 214 488 L214 192 Q214 158 236.5 142.5 Q259 127 294 127 Q329 127 352 142.5 Q375 158 375 192 Z " />
<glyph glyph-name="one" unicode="1" horiz-adv-x="522" d="M69 647 L330 688 Q340 689 349 685 Q358 681 358 660 L358 135 L477 135 Q493 135 500 129 Q507 123 507 107 L507 29 Q507 13 500 6.5 Q493 0 477 0 L69 0 Q53 0 46 6.5 Q39 13 39 29 L39 107 Q39 123 46 129 Q53 135 69 135 L193 135 L193 532 L69 512 Q55 510 47 515.5 Q39 521 39 537 L39 615 Q39 631 47 638 Q55 645 69 647 Z " />
<glyph glyph-name="two" unicode="2" horiz-adv-x="569" d="M219 135 L498 135 Q514 135 521 129 Q528 123 528 107 L528 29 Q528 13 521 6.5 Q514 0 498 0 L84 0 Q68 0 61 6.5 Q54 13 54 29 L54 187 Q54 239 76 264 Q98 289 132 305 L328 394 Q341 400 350.5 411 Q360 422 360 447 L360 491 Q360 525 337 540.5 Q314 556 279 556 Q244 556 221.5 540.5 Q199 525 199 491 L199 455 Q199 439 193 432 Q187 425 171 425 L68 425 Q52 425 45.5 432 Q39 439 39 455 L39 517 Q39 581 92 634.5 Q145 688 279 688 Q413 688 468 634.5 Q523 581 523 517 L523 453 Q523 375 491.5 338.5 Q460 302 426 287 L257 210 Q234 200 226.5 191 Q219 182 219 160 L219 135 Z " />
<glyph glyph-name="three" unicode="3" horiz-adv-x="569" d="M209 411 L270 411 Q307 411 330 426.5 Q353 442 353 476 L353 493 Q353 527 334 542.5 Q315 558 278 558 Q241 558 221.5 542.5 Q202 527 202 493 L202 481 Q202 465 195.5 458 Q189 451 173 451 L70 451 Q54 451 48 458 Q42 465 42 481 L42 517 Q42 581 91 634.5 Q140 688 280 688 Q419 688 467 636.5 Q515 585 515 521 L515 451 Q515 414 498.5 389.5 Q482 365 445 351 Q488 332 506.5 303 Q525 274 525 237 L525 159 Q525 95 473.5 43.5 Q422 -8 283 -8 Q143 -8 90.5 45.5 Q38 99 38 163 L38 199 Q38 215 44 222 Q50 229 66 229 L169 229 Q185 229 191.5 222 Q198 215 198 199 L198 187 Q198 153 221 137.5 Q244 122 281 122 Q318 122 340.5 137.5 Q363 153 363 187 L363 217 Q363 251 340 266 Q317 281 280 281 L209 281 Q193 281 186 287.5 Q179 294 179 310 L179 383 Q179 399 186 405 Q193 411 209 411 Z " />
<glyph glyph-name="four" unicode="4" horiz-adv-x="571" d="M295 650 L195 306 L350 306 L350 650 Q350 666 356.5 673 Q363 680 379 680 L487 680 Q503 680 509 673 Q515 666 515 650 L515 30 Q515 14 509 7 Q503 0 487 0 L379 0 Q363 0 356.5 7 Q350 14 350 30 L350 171 L55 171 Q39 171 32 177.5 Q25 184 25 200 L25 272 Q25 279 26 285.5 Q27 292 28 295 L130 650 Q134 664 142 672 Q150 680 166 680 L274 680 Q290 680 294.5 671.5 Q299 663 295 650 Z " />
<glyph glyph-name="five" unicode="5" horiz-adv-x="564" d="M93 680 L474 680 Q490 680 497 674 Q504 668 504 652 L504 574 Q504 558 497 551.5 Q490 545 474 545 L230 545 L230 447 L279 447 Q419 447 472.5 394 Q526 341 526 277 L526 162 Q526 98 473 44.5 Q420 -9 280 -9 Q140 -9 87 44.5 Q34 98 34 162 L34 198 Q34 214 40 221 Q46 228 62 228 L165 228 Q181 228 187.5 221 Q194 214 194 198 L194 186 Q194 152 217.5 136.5 Q241 121 278 121 Q315 121 338 136.5 Q361 152 361 186 L361 253 Q361 287 338 302 Q315 317 278 317 L93 317 Q77 317 71 324 Q65 331 65 347 L65 650 Q65 666 71 673 Q77 680 93 680 Z " />
<glyph glyph-name="six" unicode="6" horiz-adv-x="570" d="M50 163 L50 517 Q50 581 101.5 634.5 Q153 688 287 688 Q421 688 470.5 634.5 Q520 581 520 517 L520 487 Q520 471 513.5 464 Q507 457 491 457 L388 457 Q372 457 366 464 Q360 471 360 487 L360 493 Q360 527 341 542.5 Q322 558 287 558 Q252 558 232.5 542.5 Q213 527 213 493 L213 398 Q234 408 258.5 414 Q283 420 311 420 Q425 420 476 366.5 Q527 313 527 249 L527 163 Q527 99 474.5 45.5 Q422 -8 288 -8 Q154 -8 102 45.5 Q50 99 50 163 Z M364 187 L364 225 Q364 259 343.5 274.5 Q323 290 288 290 Q254 290 233.5 276 Q213 262 213 231 L213 187 Q213 153 233 137.5 Q253 122 288 122 Q323 122 343.5 137.5 Q364 153 364 187 Z " />
<glyph glyph-name="seven" unicode="7" horiz-adv-x="540" d="M48 680 L494 680 Q510 680 517 674 Q524 668 524 652 L524 576 Q524 569 522 563.5 Q520 558 519 554 L282 30 Q277 19 269 9.5 Q261 0 245 0 L123 0 Q107 0 101.5 7 Q96 14 103 30 L338 545 L48 545 Q32 545 25 551.5 Q18 558 18 574 L18 652 Q18 668 25 674 Q32 680 48 680 Z " />
<glyph glyph-name="eight" unicode="8" horiz-adv-x="561" d="M55 451 L55 517 Q55 581 100.5 634.5 Q146 688 280 688 Q414 688 460 634.5 Q506 581 506 517 L506 451 Q506 417 488.5 391 Q471 365 438 349 Q475 333 496.5 307 Q518 281 518 246 L518 163 Q518 99 466 45.5 Q414 -8 280 -8 Q146 -8 94.5 45.5 Q43 99 43 163 L43 246 Q43 281 64 307 Q85 333 122 349 Q90 365 72.5 391 Q55 417 55 451 Z M346 477 L346 493 Q346 527 329.5 542.5 Q313 558 280 558 Q247 558 231 542.5 Q215 527 215 493 L215 477 Q215 443 231 427.5 Q247 412 280 412 Q313 412 329.5 427.5 Q346 443 346 477 Z M356 187 L356 220 Q356 254 335.5 268.5 Q315 283 280 283 Q245 283 225 268.5 Q205 254 205 220 L205 187 Q205 153 225 137.5 Q245 122 280 122 Q315 122 335.5 137.5 Q356 153 356 187 Z " />
<glyph glyph-name="nine" unicode="9" horiz-adv-x="570" d="M357 494 Q357 528 336.5 543 Q316 558 282 558 Q247 558 226.5 542.5 Q206 527 206 493 L206 455 Q206 421 226.5 405.5 Q247 390 282 390 Q317 390 337 405.5 Q357 421 357 455 L357 494 Z M520 517 L520 163 Q520 99 468.5 45.5 Q417 -8 283 -8 Q149 -8 99.5 45.5 Q50 99 50 163 L50 193 Q50 209 56.5 216 Q63 223 79 223 L182 223 Q198 223 204 216 Q210 209 210 193 L210 187 Q210 153 229 137.5 Q248 122 283 122 Q318 122 337.5 137.5 Q357 153 357 187 L357 281 Q336 271 311 265.5 Q286 260 259 260 Q145 260 94 313.5 Q43 367 43 431 L43 517 Q43 581 95.5 634.5 Q148 688 282 688 Q416 688 468 634.5 Q520 581 520 517 Z " />
<glyph glyph-name="colon" unicode="&#x3a;" horiz-adv-x="265" d="M214 470 L214 387 Q214 371 208 364.5 Q202 358 186 358 L80 358 Q64 358 57.5 364.5 Q51 371 51 387 L51 470 Q51 486 57.5 493 Q64 500 80 500 L186 500 Q202 500 208 493 Q214 486 214 470 Z M214 112 L214 29 Q214 13 208 6.5 Q202 0 186 0 L80 0 Q64 0 57.5 6.5 Q51 13 51 29 L51 112 Q51 128 57.5 135 Q64 142 80 142 L186 142 Q202 142 208 135 Q214 128 214 112 Z " />
<glyph glyph-name="semicolon" unicode="&#x3b;" horiz-adv-x="286" d="M233 470 L233 387 Q233 371 227 364.5 Q221 358 205 358 L99 358 Q83 358 76.5 364.5 Q70 371 70 387 L70 470 Q70 486 76.5 493 Q83 500 99 500 L205 500 Q221 500 227 493 Q233 486 233 470 Z M70 42 L70 112 Q70 128 76.5 135 Q83 142 99 142 L205 142 Q221 142 227 135 Q233 128 233 112 L233 33 Q233 -27 191 -67.5 Q149 -108 68 -127 Q53 -131 44.5 -127 Q36 -123 31 -107 L7 -39 Q2 -24 7 -15 Q12 -6 27 -2 Q52 5 61 15.5 Q70 26 70 42 Z " />
<glyph glyph-name="less" unicode="&#x3c;" horiz-adv-x="499" d="M415 419 L185 338 L415 258 Q428 254 436.5 247.5 Q445 241 445 225 L445 127 Q445 111 438 102.5 Q431 94 415 98 L57 249 Q46 253 38 259 Q30 265 30 281 L30 396 Q30 412 38 418 Q46 424 57 428 L415 579 Q430 585 437.5 575.5 Q445 566 445 550 L445 452 Q445 436 436.5 429.5 Q428 423 415 419 Z " />
<glyph glyph-name="equal" unicode="&#x3d;" horiz-adv-x="581" d="M82 490 L499 490 Q515 490 522 484 Q529 478 529 462 L529 389 Q529 373 522 366.5 Q515 360 499 360 L82 360 Q66 360 59 366.5 Q52 373 52 389 L52 462 Q52 478 59 484 Q66 490 82 490 Z M82 274 L499 274 Q515 274 522 268 Q529 262 529 246 L529 173 Q529 157 522 150.5 Q515 144 499 144 L82 144 Q66 144 59 150.5 Q52 157 52 173 L52 246 Q52 262 59 268 Q66 274 82 274 Z " />
<glyph glyph-name="greater" unicode="&#x3e;" horiz-adv-x="499" d="M314 338 L84 419 Q71 423 62.5 429.5 Q54 436 54 452 L54 550 Q54 566 61.5 575.5 Q69 585 84 579 L442 428 Q453 424 461 418 Q469 412 469 396 L469 281 Q469 265 461 259 Q453 253 442 249 L84 98 Q69 92 61.5 101.5 Q54 111 54 127 L54 225 Q54 241 62.5 247.5 Q71 254 84 258 L314 338 Z " />
<glyph glyph-name="question" unicode="&#x3f;" horiz-adv-x="533" d="M150 219 L150 284 Q150 324 168 341.5 Q186 359 211 372 L314 424 Q326 430 336 441 Q346 452 346 477 L346 491 Q346 525 323 540.5 Q300 556 265 556 Q230 556 207.5 540.5 Q185 525 185 491 L185 455 Q185 439 179 432 Q173 425 157 425 L54 425 Q38 425 31.5 432 Q25 439 25 455 L25 517 Q25 581 78 634.5 Q131 688 265 688 Q399 688 454 634.5 Q509 581 509 517 L509 483 Q509 406 477.5 369 Q446 332 412 317 L353 291 Q330 281 322.5 272 Q315 263 315 241 L315 219 Q315 203 309 196.5 Q303 190 287 190 L179 190 Q163 190 156.5 196.5 Q150 203 150 219 Z M315 112 L315 29 Q315 13 309 6.5 Q303 0 287 0 L179 0 Q163 0 156.5 6.5 Q150 13 150 29 L150 112 Q150 128 156.5 135 Q163 142 179 142 L287 142 Q303 142 309 135 Q315 128 315 112 Z " />
<glyph glyph-name="at" unicode="&#x40;" horiz-adv-x="975" d="M659 -162 L488 -162 Q200 -162 123.5 -83 Q47 -4 47 85 L47 417 Q47 506 123.5 585 Q200 664 488 664 Q776 664 852.5 585 Q929 506 929 417 L929 206 Q929 132 881 82.5 Q833 33 717 33 Q650 33 610.5 51 Q571 69 552 94 Q534 78 495 55.5 Q456 33 396 33 Q321 33 292 74 Q263 115 269 187 L279 304 Q285 378 322 418 Q359 458 423 458 Q460 458 495.5 443 Q531 428 554 412 L556 420 Q560 436 566 443 Q572 450 588 450 L679 450 Q695 450 700.5 442.5 Q706 435 705 420 L686 238 Q682 202 686.5 174.5 Q691 147 727 147 Q759 147 766.5 171.5 Q774 196 774 228 L774 410 Q774 470 720 503.5 Q666 537 488 537 Q310 537 256 503 Q202 469 202 409 L202 93 Q202 33 256 -1 Q310 -35 488 -35 L659 -35 Q675 -35 682 -42 Q689 -49 689 -65 L689 -133 Q689 -149 682 -155.5 Q675 -162 659 -162 Z M431 272 L426 215 Q425 200 432.5 188.5 Q440 177 465 177 Q483 177 498.5 181.5 Q514 186 527 192 L527 193 L537 294 Q525 303 509 311 Q493 319 475 319 Q449 319 440.5 303 Q432 287 431 272 Z " />
<glyph glyph-name="A" unicode="A" horiz-adv-x="566" d="M327 256 L313 310 Q300 358 293 417.5 Q286 477 282 520 Q278 482 269 417 Q260 352 248 310 L233 256 L327 256 Z M231 680 L339 680 Q355 680 363.5 672.5 Q372 665 376 650 L557 30 Q561 16 556 8 Q551 0 535 0 L424 0 Q408 0 400.5 8 Q393 16 389 30 L363 126 L197 126 L171 30 Q167 16 159.5 8 Q152 0 136 0 L35 0 Q19 0 14 8 Q9 16 13 30 L194 650 Q198 665 206.5 672.5 Q215 680 231 680 Z " />
<glyph glyph-name="B" unicode="B" horiz-adv-x="597" d="M310 0 L89 0 Q73 0 66.5 7 Q60 14 60 30 L60 650 Q60 666 66.5 673 Q73 680 89 680 L277 680 Q417 680 474 634 Q531 588 531 524 L531 469 Q531 433 514 405 Q497 377 463 358 Q509 339 536.5 308.5 Q564 278 564 238 L564 164 Q564 100 507 50 Q450 0 310 0 Z M277 550 L225 550 L225 406 L277 406 Q314 406 341 421.5 Q368 437 368 472 L368 498 Q368 532 341 541 Q314 550 277 550 Z M310 284 L225 284 L225 130 L310 130 Q347 130 374 145 Q401 160 401 194 L401 226 Q401 254 374 269 Q347 284 310 284 Z " />
<glyph glyph-name="C" unicode="C" horiz-adv-x="576" d="M542 224 L542 163 Q542 99 489 45.5 Q436 -8 296 -8 Q156 -8 103 45.5 Q50 99 50 163 L50 517 Q50 581 103 634.5 Q156 688 296 688 Q436 688 489 634.5 Q542 581 542 517 L542 471 Q542 455 536 448 Q530 441 514 441 L411 441 Q395 441 388.5 448 Q382 455 382 471 L382 488 Q382 522 358.5 537.5 Q335 553 298 553 Q261 553 238 537.5 Q215 522 215 488 L215 192 Q215 158 238 142.5 Q261 127 298 127 Q335 127 358.5 142.5 Q382 158 382 192 L382 224 Q382 240 388.5 247 Q395 254 411 254 L514 254 Q530 254 536 247 Q542 240 542 224 Z " />
<glyph glyph-name="D" unicode="D" horiz-adv-x="620" d="M315 0 L85 0 Q72 0 66 7.5 Q60 15 60 30 L60 650 Q60 666 66.5 673 Q73 680 89 680 L315 680 Q455 680 513 626.5 Q571 573 571 509 L571 171 Q571 107 513 53.5 Q455 0 315 0 Z M315 545 L225 545 L225 135 L315 135 Q352 135 379 150.5 Q406 166 406 200 L406 480 Q406 514 379 529.5 Q352 545 315 545 Z " />
<glyph glyph-name="E" unicode="E" horiz-adv-x="506" d="M441 0 L89 0 Q73 0 66.5 7 Q60 14 60 30 L60 650 Q60 666 66.5 673 Q73 680 89 680 L431 680 Q447 680 454 674 Q461 668 461 652 L461 574 Q461 558 454 551.5 Q447 545 431 545 L225 545 L225 415 L415 415 Q431 415 438 409 Q445 403 445 387 L445 314 Q445 298 438 291.5 Q431 285 415 285 L225 285 L225 135 L441 135 Q457 135 464 129 Q471 123 471 107 L471 29 Q471 13 464 6.5 Q457 0 441 0 Z " />
<glyph glyph-name="F" unicode="F" horiz-adv-x="514" d="M89 680 L454 680 Q470 680 477 674 Q484 668 484 652 L484 574 Q484 558 477 551.5 Q470 545 454 545 L225 545 L225 415 L438 415 Q454 415 461 409 Q468 403 468 387 L468 309 Q468 293 461 286.5 Q454 280 438 280 L225 280 L225 30 Q225 14 219 7 Q213 0 197 0 L89 0 Q73 0 66.5 7 Q60 14 60 30 L60 650 Q60 666 66.5 673 Q73 680 89 680 Z " />
<glyph glyph-name="G" unicode="G" horiz-adv-x="589" d="M300 370 L512 370 Q528 370 535 364 Q542 358 542 342 L542 163 Q542 99 489 45.5 Q436 -8 296 -8 Q156 -8 103 45.5 Q50 99 50 163 L50 517 Q50 581 103 634.5 Q156 688 296 688 Q436 688 489 634.5 Q542 581 542 517 L542 481 Q542 465 536 458 Q530 451 514 451 L411 451 Q395 451 388.5 458 Q382 465 382 481 L382 488 Q382 522 358.5 537.5 Q335 553 298 553 Q261 553 238 537.5 Q215 522 215 488 L215 192 Q215 158 238 142.5 Q261 127 298 127 Q335 127 358.5 142.5 Q382 158 382 192 L382 235 L300 235 Q284 235 277 241.5 Q270 248 270 264 L270 342 Q270 358 277 364 Q284 370 300 370 Z " />
<glyph glyph-name="H" unicode="H" horiz-adv-x="631" d="M225 650 L225 412 L406 412 L406 650 Q406 666 412.5 673 Q419 680 435 680 L543 680 Q559 680 565 673 Q571 666 571 650 L571 30 Q571 14 565 7 Q559 0 543 0 L435 0 Q419 0 412.5 7 Q406 14 406 30 L406 277 L225 277 L225 30 Q225 14 219 7 Q213 0 197 0 L89 0 Q73 0 66.5 7 Q60 14 60 30 L60 650 Q60 666 66.5 673 Q73 680 89 680 L197 680 Q213 680 219 673 Q225 666 225 650 Z " />
<glyph glyph-name="I" unicode="I" horiz-adv-x="285" d="M225 650 L225 30 Q225 14 219 7 Q213 0 197 0 L89 0 Q73 0 66.5 7 Q60 14 60 30 L60 650 Q60 666 66.5 673 Q73 680 89 680 L197 680 Q213 680 219 673 Q225 666 225 650 Z " />
<glyph glyph-name="J" unicode="J" horiz-adv-x="527" d="M174 229 L174 192 Q174 158 193.5 142.5 Q213 127 244 127 Q275 127 290 142.5 Q305 158 305 192 L305 650 Q305 666 311.5 673 Q318 680 334 680 L442 680 Q458 680 464 673 Q470 666 470 650 L470 163 Q470 99 422.5 45.5 Q375 -8 244 -8 Q113 -8 62.5 45.5 Q12 99 12 163 L12 229 Q12 245 18.5 252 Q25 259 41 259 L146 259 Q162 259 168 252 Q174 245 174 229 Z " />
<glyph glyph-name="K" unicode="K" horiz-adv-x="595" d="M374 346 L589 30 Q596 19 593 9.5 Q590 0 574 0 L432 0 Q416 0 406.5 9.5 Q397 19 390 30 L233 275 L225 275 L225 30 Q225 14 219 7 Q213 0 197 0 L89 0 Q73 0 66.5 7 Q60 14 60 30 L60 650 Q60 666 66.5 673 Q73 680 89 680 L197 680 Q213 680 219 673 Q225 666 225 650 L225 395 L233 395 L384 650 Q391 662 403 671 Q415 680 431 680 L550 680 Q566 680 568.5 671 Q571 662 564 650 L374 346 Z " />
<glyph glyph-name="L" unicode="L" horiz-adv-x="460" d="M225 650 L225 135 L421 135 Q437 135 444 129 Q451 123 451 107 L451 29 Q451 13 444 6.5 Q437 0 421 0 L85 0 Q72 0 66 7.5 Q60 15 60 30 L60 650 Q60 666 66.5 673 Q73 680 89 680 L197 680 Q213 680 219 673 Q225 666 225 650 Z " />
<glyph glyph-name="M" unicode="M" horiz-adv-x="756" d="M696 650 L696 30 Q696 14 690 7 Q684 0 668 0 L565 0 Q549 0 542.5 7 Q536 14 536 30 L536 348 Q527 314 518.5 285.5 Q510 257 504 242 L460 133 Q454 118 445 110.5 Q436 103 421 103 L334 103 Q319 103 310.5 111.5 Q302 120 296 133 L241 260 Q235 273 228.5 296 Q222 319 215 345 L215 30 Q215 14 209 7 Q203 0 187 0 L89 0 Q73 0 66.5 7 Q60 14 60 30 L60 650 Q60 666 66.5 673 Q73 680 89 680 L187 680 Q198 680 203.5 675.5 Q209 671 213 664 L349 358 Q356 342 363.5 321.5 Q371 301 378 279 Q385 301 392.5 321 Q400 341 407 356 L538 666 Q541 673 547.5 676.5 Q554 680 565 680 L668 680 Q684 680 690 673 Q696 666 696 650 Z " />
<glyph glyph-name="N" unicode="N" horiz-adv-x="631" d="M571 650 L571 30 Q571 14 565 7 Q559 0 543 0 L445 0 Q434 0 428 3.5 Q422 7 418 14 L258 280 Q246 300 234.5 324.5 Q223 349 215 370 L215 30 Q215 14 209 7 Q203 0 187 0 L89 0 Q73 0 66.5 7 Q60 14 60 30 L60 650 Q60 666 66.5 673 Q73 680 89 680 L187 680 Q197 680 202.5 677 Q208 674 212 668 L381 385 Q390 369 399.5 348.5 Q409 328 416 310 L416 650 Q416 666 422.5 673 Q429 680 445 680 L543 680 Q559 680 565 673 Q571 666 571 650 Z " />
<glyph glyph-name="O" unicode="O" horiz-adv-x="611" d="M50 163 L50 517 Q50 581 107.5 634.5 Q165 688 305 688 Q445 688 503 634.5 Q561 581 561 517 L561 163 Q561 99 503 45.5 Q445 -8 305 -8 Q165 -8 107.5 45.5 Q50 99 50 163 Z M396 192 L396 488 Q396 522 369 537.5 Q342 553 305 553 Q268 553 241.5 537.5 Q215 522 215 488 L215 192 Q215 158 241.5 142.5 Q268 127 305 127 Q342 127 369 142.5 Q396 158 396 192 Z " />
<glyph glyph-name="P" unicode="P" horiz-adv-x="585" d="M305 231 L225 231 L225 30 Q225 14 219 7 Q213 0 197 0 L89 0 Q73 0 66.5 7 Q60 14 60 30 L60 650 Q60 666 66.5 673 Q73 680 89 680 L305 680 Q445 680 502 626.5 Q559 573 559 509 L559 402 Q559 338 502 284.5 Q445 231 305 231 Z M305 545 L225 545 L225 366 L305 366 Q342 366 369 381.5 Q396 397 396 431 L396 480 Q396 514 369 529.5 Q342 545 305 545 Z " />
<glyph glyph-name="Q" unicode="Q" horiz-adv-x="611" d="M470 -176 Q461 -186 450 -186.5 Q439 -187 429 -178 L240 -4 Q136 9 93 58 Q50 107 50 163 L50 517 Q50 581 107.5 634.5 Q165 688 305 688 Q445 688 503 634.5 Q561 581 561 517 L561 163 Q561 115 529.5 71.5 Q498 28 425 7 L520 -77 Q532 -87 533 -97.5 Q534 -108 524 -118 L470 -176 Z M396 188 L396 492 Q396 526 369 541.5 Q342 557 305 557 Q268 557 241.5 541.5 Q215 526 215 492 L215 188 Q215 154 241.5 138.5 Q268 123 305 123 Q342 123 369 138.5 Q396 154 396 188 Z " />
<glyph glyph-name="R" unicode="R" horiz-adv-x="598" d="M305 545 L225 545 L225 386 L305 386 Q342 386 369 401.5 Q396 417 396 451 L396 480 Q396 514 369 529.5 Q342 545 305 545 Z M197 0 L89 0 Q73 0 66.5 7 Q60 14 60 30 L60 650 Q60 666 66.5 673 Q73 680 89 680 L305 680 Q445 680 502 626.5 Q559 573 559 509 L559 422 Q559 379 535 339.5 Q511 300 455 276 L553 30 Q558 17 549.5 8.5 Q541 0 525 0 L409 0 Q396 0 389 8 Q382 16 377 30 L291 251 L225 251 L225 30 Q225 14 219 7 Q213 0 197 0 Z " />
<glyph glyph-name="S" unicode="S" horiz-adv-x="575" d="M368 480 L368 495 Q368 529 346 543.5 Q324 558 290 558 Q256 558 233.5 543.5 Q211 529 211 495 L211 485 Q211 465 223 455 Q235 445 243 442 L411 385 Q466 366 501 327.5 Q536 289 536 234 L536 163 Q536 99 481 45.5 Q426 -8 286 -8 Q146 -8 91 45.5 Q36 99 36 163 L36 230 Q36 246 42.5 253 Q49 260 65 260 L169 260 Q185 260 191 253 Q197 246 197 230 L197 185 Q197 151 222.5 136.5 Q248 122 285 122 Q322 122 348 136.5 Q374 151 374 185 L374 205 Q374 232 345 247 Q316 262 288 272 L144 326 Q106 340 78.5 378 Q51 416 51 459 L51 517 Q51 581 100.5 634.5 Q150 688 290 688 Q427 688 478 634.5 Q529 581 529 517 L529 480 Q529 464 522.5 457 Q516 450 500 450 L396 450 Q380 450 374 457 Q368 464 368 480 Z " />
<glyph glyph-name="T" unicode="T" horiz-adv-x="499" d="M39 680 L460 680 Q476 680 483 674 Q490 668 490 652 L490 574 Q490 558 483 551.5 Q476 545 460 545 L332 545 L332 30 Q332 14 326 7 Q320 0 304 0 L196 0 Q180 0 173.5 7 Q167 14 167 30 L167 545 L39 545 Q23 545 16 551.5 Q9 558 9 574 L9 652 Q9 668 16 674 Q23 680 39 680 Z " />
<glyph glyph-name="U" unicode="U" horiz-adv-x="625" d="M222 650 L222 192 Q222 158 248.5 142.5 Q275 127 312 127 Q349 127 376 142.5 Q403 158 403 192 L403 650 Q403 666 409.5 673 Q416 680 432 680 L540 680 Q556 680 562 673 Q568 666 568 650 L568 163 Q568 99 510 45.5 Q452 -8 312 -8 Q172 -8 114.5 45.5 Q57 99 57 163 L57 650 Q57 666 63.5 673 Q70 680 86 680 L194 680 Q210 680 216 673 Q222 666 222 650 Z " />
<glyph glyph-name="V" unicode="V" horiz-adv-x="566" d="M339 0 L231 0 Q215 0 206.5 7.5 Q198 15 194 30 L13 650 Q9 664 14 672 Q19 680 35 680 L153 680 Q169 680 176.5 672 Q184 664 188 650 L263 370 Q270 342 277 297.5 Q284 253 288 207 Q294 254 301.5 299 Q309 344 316 370 L392 650 Q396 664 403.5 672 Q411 680 427 680 L535 680 Q551 680 556 672 Q561 664 557 650 L376 30 Q372 15 363.5 7.5 Q355 0 339 0 Z " />
<glyph glyph-name="W" unicode="W" horiz-adv-x="863" d="M527 650 L595 371 Q600 350 604 321 Q608 292 612 261 Q615 292 620 320 Q625 348 630 370 L700 650 Q704 664 711.5 672 Q719 680 735 680 L829 680 Q845 680 850 672 Q855 664 851 650 L695 30 Q691 14 682.5 7 Q674 0 658 0 L553 0 Q540 0 532 8 Q524 16 520 30 L448 318 Q445 330 441 358.5 Q437 387 434 421 Q430 387 426 358.5 Q422 330 419 317 L347 30 Q343 14 334.5 7 Q326 0 310 0 L205 0 Q192 0 184 8 Q176 16 172 30 L16 650 Q12 664 17 672 Q22 680 38 680 L148 680 Q164 680 171.5 672 Q179 664 183 650 L251 370 Q255 351 259 328 Q263 305 267 280 Q271 304 275.5 327 Q280 350 285 370 L356 650 Q360 664 367.5 672 Q375 680 391 680 L492 680 Q508 680 515.5 672 Q523 664 527 650 Z " />
<glyph glyph-name="X" unicode="X" horiz-adv-x="572" d="M376 351 L560 30 Q567 18 564 9 Q561 0 545 0 L421 0 Q405 0 395.5 9 Q386 18 379 30 L277 207 L188 30 Q182 18 172 9 Q162 0 146 0 L30 0 Q15 0 13 11.5 Q11 23 18 35 L194 353 L26 647 Q19 660 20.5 670 Q22 680 38 680 L162 680 Q178 680 188 671.5 Q198 663 205 650 L296 490 L381 650 Q388 663 398 671.5 Q408 680 424 680 L538 680 Q554 680 556.5 671.5 Q559 663 552 650 L376 351 Z " />
<glyph glyph-name="Y" unicode="Y" horiz-adv-x="556" d="M194 650 L265 451 Q268 443 273 426.5 Q278 410 282 391 Q288 411 293 427 Q298 443 302 451 L386 650 Q391 663 398 671.5 Q405 680 421 680 L527 680 Q543 680 549.5 672 Q556 664 549 650 L365 252 L365 30 Q365 14 359 7 Q353 0 337 0 L229 0 Q213 0 206.5 7 Q200 14 200 30 L200 232 L15 650 Q9 663 14.5 671.5 Q20 680 36 680 L158 680 Q174 680 182 671.5 Q190 663 194 650 Z " />
<glyph glyph-name="Z" unicode="Z" horiz-adv-x="503" d="M72 680 L431 680 Q447 680 454 674 Q461 668 461 652 L461 574 Q461 567 459 561.5 Q457 556 455 552 L223 135 L449 135 Q465 135 472 129 Q479 123 479 107 L479 29 Q479 13 472 6.5 Q465 0 449 0 L55 0 Q39 0 32 6.5 Q25 13 25 29 L25 107 Q25 114 26.5 118.5 Q28 123 30 127 L263 545 L72 545 Q56 545 49 551.5 Q42 558 42 574 L42 652 Q42 668 49 674 Q56 680 72 680 Z " />
<glyph glyph-name="bracketleft" unicode="&#x5b;" horiz-adv-x="384" d="M55 -181 L55 669 Q55 685 61.5 692 Q68 699 84 699 L332 699 Q348 699 355 693 Q362 687 362 671 L362 593 Q362 577 355 570.5 Q348 564 332 564 L220 564 L220 -76 L332 -76 Q348 -76 355 -82.5 Q362 -89 362 -105 L362 -183 Q362 -199 355 -205 Q348 -211 332 -211 L84 -211 Q68 -211 61.5 -204 Q55 -197 55 -181 Z " />
<glyph glyph-name="backslash" unicode="&#x5c;" horiz-adv-x="405" d="M215 -118 L24 669 Q20 683 25.5 691 Q31 699 47 699 L160 699 Q176 699 183 691.5 Q190 684 194 669 L385 -118 Q389 -133 382 -140.5 Q375 -148 362 -148 L249 -148 Q233 -148 226 -141 Q219 -134 215 -118 Z " />
<glyph glyph-name="bracketright" unicode="&#x5d;" horiz-adv-x="384" d="M329 669 L329 -181 Q329 -197 322.5 -204 Q316 -211 300 -211 L52 -211 Q36 -211 29 -205 Q22 -199 22 -183 L22 -105 Q22 -89 29 -82.5 Q36 -76 52 -76 L164 -76 L164 564 L52 564 Q36 564 29 570.5 Q22 577 22 593 L22 671 Q22 687 29 693 Q36 699 52 699 L300 699 Q316 699 322.5 692 Q329 685 329 669 Z " />
<glyph glyph-name="asciicircum" unicode="&#x5e;" horiz-adv-x="534" d="M351 295 L270 525 L190 295 Q186 282 179.5 273.5 Q173 265 157 265 L59 265 Q43 265 33.5 272.5 Q24 280 30 295 L181 653 Q185 664 191 672 Q197 680 213 680 L328 680 Q344 680 350 672 Q356 664 360 653 L511 295 Q517 280 507.5 272.5 Q498 265 482 265 L384 265 Q368 265 361.5 273.5 Q355 282 351 295 Z " />
<glyph glyph-name="underscore" unicode="&#x5f;" horiz-adv-x="427" d="M30 -69 L397 -69 Q413 -69 420 -75 Q427 -81 427 -97 L427 -170 Q427 -186 420 -192.5 Q413 -199 397 -199 L30 -199 Q14 -199 7 -192.5 Q0 -186 0 -170 L0 -97 Q0 -81 7 -75 Q14 -69 30 -69 Z " />
<glyph glyph-name="grave" unicode="&#x60;" horiz-adv-x="306" d="M116 577 L47 678 Q38 691 42 699.5 Q46 708 62 708 L169 708 Q185 708 194.5 699.5 Q204 691 210 678 L250 586 Q257 570 252 563.5 Q247 557 234 557 L155 557 Q139 557 129.5 563.5 Q120 570 116 577 Z " />
<glyph glyph-name="a" unicode="a" horiz-adv-x="518" d="M223 116 Q248 116 273 128.5 Q298 141 315 153 L315 186 L223 186 Q201 186 195 176 Q189 166 189 155 L189 142 Q189 125 200.5 120.5 Q212 116 223 116 Z M49 345 L49 357 Q49 428 100 468 Q151 508 261 508 Q374 508 423 468 Q472 428 472 357 L472 30 Q472 14 465.5 7 Q459 0 443 0 L351 0 Q335 0 329.5 7 Q324 14 322 30 L320 45 Q298 27 263.5 9.5 Q229 -8 180 -8 Q105 -8 69 31.5 Q33 71 33 120 L33 163 Q33 214 74 253 Q115 292 193 292 L315 292 L315 347 Q315 370 302 381.5 Q289 393 258 393 Q227 393 212.5 384 Q198 375 198 352 L198 345 Q198 329 191.5 322.5 Q185 316 169 316 L78 316 Q62 316 55.5 322.5 Q49 329 49 345 Z " />
<glyph glyph-name="b" unicode="b" horiz-adv-x="550" d="M174 0 L78 0 Q62 0 55.5 7 Q49 14 49 30 L49 669 Q49 685 55.5 692 Q62 699 78 699 L181 699 Q197 699 203 692 Q209 685 209 669 L209 456 Q230 472 266.5 490 Q303 508 359 508 Q434 508 470.5 466.5 Q507 425 507 354 L507 146 Q507 75 470.5 33.5 Q434 -8 359 -8 Q300 -8 263 11.5 Q226 31 205 47 L203 30 Q202 14 196 7 Q190 0 174 0 Z M347 171 L347 329 Q347 344 341.5 357.5 Q336 371 308 371 Q279 371 251.5 356 Q224 341 209 330 L209 170 Q224 159 251.5 144 Q279 129 308 129 Q336 129 341.5 142.5 Q347 156 347 171 Z " />
<glyph glyph-name="c" unicode="c" horiz-adv-x="503" d="M258 508 Q371 508 422.5 465.5 Q474 423 474 352 L474 337 Q474 321 467.5 314.5 Q461 308 445 308 L350 308 Q334 308 327.5 314.5 Q321 321 321 337 L321 340 Q321 365 306.5 374 Q292 383 261 383 Q230 383 215.5 374 Q201 365 201 340 L201 161 Q201 136 215.5 126.5 Q230 117 261 117 Q292 117 306.5 126.5 Q321 136 321 161 L321 173 Q321 189 327.5 195.5 Q334 202 350 202 L445 202 Q461 202 467.5 195.5 Q474 189 474 173 L474 148 Q474 77 422 34.5 Q370 -8 257 -8 Q144 -8 92.5 34.5 Q41 77 41 148 L41 352 Q41 423 93 465.5 Q145 508 258 508 Z " />
<glyph glyph-name="d" unicode="d" horiz-adv-x="550" d="M203 329 L203 171 Q203 156 208.5 142.5 Q214 129 242 129 Q270 129 297.5 144 Q325 159 341 170 L341 330 Q325 341 297.5 356 Q270 371 242 371 Q214 371 208.5 357.5 Q203 344 203 329 Z M347 30 L345 47 Q324 31 286.5 11.5 Q249 -8 191 -8 Q116 -8 79.5 33.5 Q43 75 43 146 L43 354 Q43 425 79.5 466.5 Q116 508 191 508 Q246 508 282.5 490 Q319 472 341 456 L341 669 Q341 685 347 692 Q353 699 369 699 L472 699 Q488 699 494.5 692 Q501 685 501 669 L501 30 Q501 14 494.5 7 Q488 0 472 0 L376 0 Q360 0 354 7 Q348 14 347 30 Z " />
<glyph glyph-name="e" unicode="e" horiz-adv-x="507" d="M467 352 L467 241 Q467 227 460.5 220.5 Q454 214 440 214 L197 214 L197 154 Q197 132 211.5 121 Q226 110 257 110 Q288 110 303 121 Q318 132 318 154 L318 155 Q318 171 324.5 177.5 Q331 184 347 184 L433 184 Q449 184 455.5 177.5 Q462 171 462 155 L462 148 Q462 77 416 34.5 Q370 -8 257 -8 Q144 -8 92.5 34.5 Q41 77 41 148 L41 352 Q41 423 92.5 465.5 Q144 508 257 508 Q370 508 418.5 465.5 Q467 423 467 352 Z M197 345 L197 316 L318 316 L318 345 Q318 367 303 378.5 Q288 390 257 390 Q226 390 211.5 378.5 Q197 367 197 345 Z " />
<glyph glyph-name="f" unicode="f" horiz-adv-x="366" d="M92 498 L93 498 L93 547 Q93 618 150 660.5 Q207 703 320 703 L331 703 Q347 703 354 696.5 Q361 690 361 674 L361 603 Q361 587 354 580 Q347 573 331 573 L320 573 Q289 573 271 563.5 Q253 554 253 529 L253 498 L324 498 Q340 498 347 492 Q354 486 354 470 L354 402 Q354 386 347 379.5 Q340 373 324 373 L253 373 L253 30 Q253 14 247 7 Q241 0 225 0 L122 0 Q106 0 99.5 7 Q93 14 93 30 L93 373 L43 373 Q27 373 20.5 379.5 Q14 386 14 402 L14 463 Q14 479 20.5 484.5 Q27 490 43 492 L92 498 Z " />
<glyph glyph-name="g" unicode="g" horiz-adv-x="550" d="M191 -8 Q116 -8 79.5 33.5 Q43 75 43 146 L43 354 Q43 425 79.5 466.5 Q116 508 191 508 Q250 508 287.5 488 Q325 468 346 452 L348 470 Q349 486 355 493 Q361 500 377 500 L472 500 Q488 500 494.5 493 Q501 486 501 470 L501 -43 Q501 -114 444 -156.5 Q387 -199 274 -199 L131 -199 Q115 -199 108 -192.5 Q101 -186 101 -170 L101 -99 Q101 -83 108 -76 Q115 -69 131 -69 L274 -69 Q305 -69 323 -59.5 Q341 -50 341 -25 L341 43 Q319 27 282.5 9.5 Q246 -8 191 -8 Z M203 329 L203 171 Q203 156 208.5 142.5 Q214 129 242 129 Q270 129 297.5 144 Q325 159 341 170 L341 330 Q325 341 297.5 356 Q270 371 242 371 Q214 371 208.5 357.5 Q203 344 203 329 Z " />
<glyph glyph-name="h" unicode="h" horiz-adv-x="553" d="M209 669 L209 458 Q230 474 267 491 Q304 508 360 508 Q428 508 467.5 468.5 Q507 429 507 369 L507 30 Q507 14 500.5 7 Q494 0 478 0 L377 0 Q361 0 354 7 Q347 14 347 30 L347 328 Q347 351 340 361 Q333 371 309 371 Q280 371 252 356.5 Q224 342 209 331 L209 30 Q209 14 203 7 Q197 0 181 0 L78 0 Q62 0 55.5 7 Q49 14 49 30 L49 669 Q49 685 55.5 692 Q62 699 78 699 L181 699 Q197 699 203 692 Q209 685 209 669 Z " />
<glyph glyph-name="i" unicode="i" horiz-adv-x="258" d="M209 669 L209 586 Q209 570 203 563.5 Q197 557 181 557 L78 557 Q62 557 55.5 563.5 Q49 570 49 586 L49 669 Q49 685 55.5 692 Q62 699 78 699 L181 699 Q197 699 203 692 Q209 685 209 669 Z M209 470 L209 30 Q209 14 203 7 Q197 0 181 0 L78 0 Q62 0 55.5 7 Q49 14 49 30 L49 470 Q49 486 55.5 493 Q62 500 78 500 L181 500 Q197 500 203 493 Q209 486 209 470 Z " />
<glyph glyph-name="j" unicode="j" horiz-adv-x="258" d="M209 669 L209 586 Q209 570 203 563.5 Q197 557 181 557 L78 557 Q62 557 55.5 563.5 Q49 570 49 586 L49 669 Q49 685 55.5 692 Q62 699 78 699 L181 699 Q197 699 203 692 Q209 685 209 669 Z M209 470 L209 -43 Q209 -114 152 -156.5 Q95 -199 -18 -199 L-29 -199 Q-45 -199 -52 -192.5 Q-59 -186 -59 -170 L-59 -99 Q-59 -83 -52 -76 Q-45 -69 -29 -69 L-18 -69 Q13 -69 31 -59.5 Q49 -50 49 -25 L49 470 Q49 486 55 493 Q61 500 77 500 L180 500 Q196 500 202.5 493 Q209 486 209 470 Z " />
<glyph glyph-name="k" unicode="k" horiz-adv-x="521" d="M353 289 L509 30 Q516 19 513 9.5 Q510 0 494 0 L369 0 Q353 0 343 9.5 Q333 19 327 30 L222 219 L209 219 L209 30 Q209 14 203 7 Q197 0 181 0 L78 0 Q62 0 55.5 7 Q49 14 49 30 L49 669 Q49 685 55.5 692 Q62 699 78 699 L181 699 Q197 699 203 692 Q209 685 209 669 L209 339 L224 339 L325 470 Q334 481 345 490.5 Q356 500 372 500 L486 500 Q502 500 505.5 490.5 Q509 481 500 470 L353 289 Z " />
<glyph glyph-name="l" unicode="l" horiz-adv-x="258" d="M209 669 L209 30 Q209 14 203 7 Q197 0 181 0 L78 0 Q62 0 55.5 7 Q49 14 49 30 L49 669 Q49 685 55.5 692 Q62 699 78 699 L181 699 Q197 699 203 692 Q209 685 209 669 Z " />
<glyph glyph-name="m" unicode="m" horiz-adv-x="839" d="M78 500 L174 500 Q190 500 196 493.5 Q202 487 203 471 L204 454 Q224 471 259.5 489.5 Q295 508 354 508 Q399 508 432 490 Q465 472 482 442 Q500 457 537.5 482.5 Q575 508 646 508 Q714 508 753.5 468.5 Q793 429 793 369 L793 30 Q793 14 786.5 7 Q780 0 764 0 L663 0 Q647 0 640 7 Q633 14 633 30 L633 328 Q633 351 626 361 Q619 371 595 371 Q566 371 540 357 Q514 343 501 331 L501 30 Q501 14 494.5 7 Q488 0 472 0 L371 0 Q355 0 348 7 Q341 14 341 30 L341 328 Q341 351 334 361 Q327 371 303 371 Q274 371 248 357 Q222 343 209 331 L209 30 Q209 14 203 7 Q197 0 181 0 L78 0 Q62 0 55.5 7 Q49 14 49 30 L49 471 Q49 487 55.5 493.5 Q62 500 78 500 Z " />
<glyph glyph-name="n" unicode="n" horiz-adv-x="553" d="M78 500 L174 500 Q190 500 196 493.5 Q202 487 203 471 L205 454 Q226 471 263.5 489.5 Q301 508 360 508 Q428 508 467.5 468.5 Q507 429 507 369 L507 30 Q507 14 500.5 7 Q494 0 478 0 L377 0 Q361 0 354 7 Q347 14 347 30 L347 328 Q347 351 340 361 Q333 371 309 371 Q280 371 252 356.5 Q224 342 209 331 L209 30 Q209 14 203 7 Q197 0 181 0 L78 0 Q62 0 55.5 7 Q49 14 49 30 L49 471 Q49 487 55.5 493.5 Q62 500 78 500 Z " />
<glyph glyph-name="o" unicode="o" horiz-adv-x="538" d="M40 148 L40 352 Q40 423 98 465.5 Q156 508 269 508 Q382 508 440 465.5 Q498 423 498 352 L498 148 Q498 77 440 34.5 Q382 -8 269 -8 Q156 -8 98 34.5 Q40 77 40 148 Z M338 162 L338 339 Q338 364 319 373.5 Q300 383 269 383 Q238 383 219 373.5 Q200 364 200 339 L200 162 Q200 137 219 127 Q238 117 269 117 Q300 117 319 127 Q338 137 338 162 Z " />
<glyph glyph-name="p" unicode="p" horiz-adv-x="550" d="M347 171 L347 329 Q347 344 341.5 357.5 Q336 371 308 371 Q279 371 251.5 356 Q224 341 209 330 L209 170 Q224 159 251.5 144 Q279 129 308 129 Q336 129 341.5 142.5 Q347 156 347 171 Z M78 500 L174 500 Q190 500 196 493 Q202 486 203 470 L205 453 Q226 469 263 488.5 Q300 508 359 508 Q434 508 470.5 466.5 Q507 425 507 354 L507 146 Q507 75 470.5 33.5 Q434 -8 359 -8 Q303 -8 266.5 9.5 Q230 27 209 43 L209 -169 Q209 -185 203 -192 Q197 -199 181 -199 L78 -199 Q62 -199 55.5 -192 Q49 -185 49 -169 L49 470 Q49 486 55.5 493 Q62 500 78 500 Z " />
<glyph glyph-name="q" unicode="q" horiz-adv-x="550" d="M345 453 L347 470 Q348 486 354 493 Q360 500 376 500 L472 500 Q488 500 494.5 493 Q501 486 501 470 L501 -169 Q501 -185 494.5 -192 Q488 -199 472 -199 L369 -199 Q353 -199 347 -192 Q341 -185 341 -169 L341 43 Q319 27 282.5 9.5 Q246 -8 191 -8 Q116 -8 79.5 33.5 Q43 75 43 146 L43 354 Q43 425 79.5 466.5 Q116 508 191 508 Q249 508 286.5 488.5 Q324 469 345 453 Z M203 329 L203 171 Q203 156 208.5 142.5 Q214 129 242 129 Q270 129 297.5 144 Q325 159 341 170 L341 330 Q325 341 297.5 356 Q270 371 242 371 Q214 371 208.5 357.5 Q203 344 203 329 Z " />
<glyph glyph-name="r" unicode="r" horiz-adv-x="383" d="M344 508 Q360 508 367 501.5 Q374 495 374 479 L374 401 Q374 385 367 378.5 Q360 372 344 371 Q291 366 258 348 Q225 330 209 316 L209 30 Q209 14 203 7 Q197 0 181 0 L78 0 Q62 0 55.5 7 Q49 14 49 30 L49 471 Q49 487 55.5 493.5 Q62 500 78 500 L174 500 Q190 500 196 493.5 Q202 487 203 471 L206 443 Q224 464 257.5 486 Q291 508 344 508 Z " />
<glyph glyph-name="s" unicode="s" horiz-adv-x="479" d="M295 352 L295 366 Q295 386 278 392 Q261 398 240 398 Q219 398 202.5 392 Q186 386 186 366 L186 356 Q186 345 193 338 Q200 331 207 329 L347 286 Q397 270 422 242 Q447 214 447 178 L447 128 Q447 79 398.5 35.5 Q350 -8 236 -8 Q122 -8 74.5 35.5 Q27 79 27 128 L27 149 Q27 163 33 169.5 Q39 176 54 176 L146 176 Q161 176 167 169.5 Q173 163 173 149 L173 135 Q173 115 193.5 109 Q214 103 236 103 Q258 103 279 109 Q300 115 300 135 L300 146 Q300 156 292 163 Q284 170 261 177 L120 224 Q92 233 66.5 264.5 Q41 296 41 333 L41 366 Q41 415 84.5 461.5 Q128 508 241 508 Q354 508 397.5 461.5 Q441 415 441 366 L441 352 Q441 337 435 330.5 Q429 324 413 324 L322 324 Q307 324 301 330.5 Q295 337 295 352 Z " />
<glyph glyph-name="t" unicode="t" horiz-adv-x="381" d="M245 498 L326 498 Q342 498 349 492 Q356 486 356 470 L356 402 Q356 386 349 379.5 Q342 373 326 373 L245 373 L245 174 Q245 149 261.5 139.5 Q278 130 309 130 L333 130 Q349 130 356 123 Q363 116 363 100 L363 29 Q363 13 356 6.5 Q349 0 333 0 L283 0 Q170 0 127.5 39 Q85 78 85 156 L85 373 L41 373 Q25 373 18.5 379.5 Q12 386 12 402 L12 463 Q12 479 18.5 484.5 Q25 490 41 492 L84 498 L85 498 L85 589 Q85 605 91.5 612 Q98 619 114 619 L217 619 Q233 619 239 612 Q245 605 245 589 L245 498 Z " />
<glyph glyph-name="u" unicode="u" horiz-adv-x="547" d="M344 29 L342 45 Q323 29 287 10.5 Q251 -8 193 -8 Q125 -8 85.5 31.5 Q46 71 46 131 L46 470 Q46 486 52.5 493 Q59 500 75 500 L176 500 Q192 500 199 493 Q206 486 206 470 L206 172 Q206 149 213 139 Q220 129 244 129 Q272 129 298 143 Q324 157 338 168 L338 470 Q338 486 344 493 Q350 500 366 500 L469 500 Q485 500 491.5 493 Q498 486 498 470 L498 29 Q498 13 491.5 6.5 Q485 0 469 0 L373 0 Q357 0 351.5 6.5 Q346 13 344 29 Z " />
<glyph glyph-name="v" unicode="v" horiz-adv-x="495" d="M307 0 L189 0 Q173 0 168.5 6 Q164 12 159 27 L13 470 Q8 486 17 493 Q26 500 42 500 L148 500 Q164 500 170.5 491.5 Q177 483 181 470 L235 292 Q245 259 248.5 233 Q252 207 253 185 Q255 207 259.5 233 Q264 259 275 291 L337 470 Q341 483 347.5 491.5 Q354 500 370 500 L464 500 Q480 500 489 493 Q498 486 493 470 L337 27 Q332 12 327.5 6 Q323 0 307 0 Z " />
<glyph glyph-name="w" unicode="w" horiz-adv-x="748" d="M744 470 L617 27 Q613 12 608 6 Q603 0 587 0 L464 0 Q448 0 442.5 7 Q437 14 434 27 L393 218 Q389 235 387 247.5 Q385 260 384 274 Q382 260 379 248 Q376 236 371 218 L314 27 Q310 14 305 7 Q300 0 284 0 L164 0 Q148 0 143 6.5 Q138 13 134 27 L14 470 Q10 486 18.5 493 Q27 500 43 500 L141 500 Q157 500 163.5 491.5 Q170 483 174 470 L232 248 Q236 231 237.5 220 Q239 209 240 196 Q243 210 245.5 222 Q248 234 252 248 L314 470 Q318 483 324.5 491.5 Q331 500 347 500 L444 500 Q460 500 467 491.5 Q474 483 477 470 L525 248 Q529 232 531 220.5 Q533 209 534 196 Q535 206 537.5 217.5 Q540 229 545 248 L601 470 Q605 483 611.5 491.5 Q618 500 634 500 L715 500 Q731 500 739.5 493 Q748 486 744 470 Z " />
<glyph glyph-name="x" unicode="x" horiz-adv-x="502" d="M339 250 L485 30 Q492 19 489 9.5 Q486 0 470 0 L357 0 Q341 0 331.5 9.5 Q322 19 315 30 L242 143 L172 30 Q165 19 155.5 9.5 Q146 0 130 0 L32 0 Q16 0 13 9.5 Q10 19 17 30 L167 256 L26 470 Q18 482 21 491 Q24 500 40 500 L152 500 Q168 500 177.5 491.5 Q187 483 195 470 L265 363 L329 470 Q336 483 346 491.5 Q356 500 372 500 L470 500 Q486 500 489 491 Q492 482 484 470 L339 250 Z " />
<glyph glyph-name="y" unicode="y" horiz-adv-x="495" d="M174 470 L231 289 Q238 267 242.5 242 Q247 217 249 192 Q256 221 262.5 246.5 Q269 272 273 284 L335 470 Q339 484 345.5 492 Q352 500 368 500 L461 500 Q477 500 486 492.5 Q495 485 490 470 L273 -169 Q269 -180 262.5 -189.5 Q256 -199 240 -199 L166 -199 Q150 -199 141.5 -191.5 Q133 -184 137 -169 L180 -17 L10 470 Q5 485 14 492.5 Q23 500 39 500 L141 500 Q157 500 163.5 491.5 Q170 483 174 470 Z " />
<glyph glyph-name="z" unicode="z" horiz-adv-x="454" d="M74 500 L379 500 Q395 500 402 494 Q409 488 409 472 L409 400 Q409 394 407.5 388 Q406 382 403 378 L221 130 L399 130 Q415 130 422 124 Q429 118 429 102 L429 29 Q429 13 422 6.5 Q415 0 399 0 L56 0 Q40 0 33 6.5 Q26 13 26 29 L26 102 Q26 109 28 114 Q30 119 32 123 L212 370 L74 370 Q58 370 51 376.5 Q44 383 44 399 L44 472 Q44 488 51 494 Q58 500 74 500 Z " />
<glyph glyph-name="braceleft" unicode="&#x7b;" horiz-adv-x="389" d="M99 358 L99 552 Q99 623 156 665.5 Q213 708 326 708 L337 708 Q353 708 360 701.5 Q367 695 367 679 L367 608 Q367 592 360 585 Q353 578 337 578 L326 578 Q295 578 279.5 568.5 Q264 559 264 534 L264 341 Q264 307 250.5 284.5 Q237 262 212 249 Q237 236 250.5 213.5 Q264 191 264 157 L264 -44 Q264 -69 279.5 -78.5 Q295 -88 326 -88 L337 -88 Q353 -88 360 -95 Q367 -102 367 -118 L367 -189 Q367 -205 360 -211.5 Q353 -218 337 -218 L326 -218 Q213 -218 156 -175.5 Q99 -133 99 -62 L99 140 Q99 165 83.5 174.5 Q68 184 37 184 L36 184 Q20 184 13 191 Q6 198 6 214 L6 284 Q6 300 13 307 Q20 314 36 314 L37 314 Q68 314 83.5 323.5 Q99 333 99 358 Z " />
<glyph glyph-name="bar" unicode="&#x7c;" horiz-adv-x="275" d="M220 669 L220 -181 Q220 -197 214 -204 Q208 -211 192 -211 L84 -211 Q68 -211 61.5 -204 Q55 -197 55 -181 L55 669 Q55 685 61.5 692 Q68 699 84 699 L192 699 Q208 699 214 692 Q220 685 220 669 Z " />
<glyph glyph-name="braceright" unicode="&#x7d;" horiz-adv-x="389" d="M290 552 L290 358 Q290 333 305.5 323.5 Q321 314 352 314 L353 314 Q369 314 376 307 Q383 300 383 284 L383 214 Q383 198 376 191 Q369 184 353 184 L352 184 Q321 184 305.5 174.5 Q290 165 290 140 L290 -62 Q290 -133 233 -175.5 Q176 -218 63 -218 L52 -218 Q36 -218 29 -211.5 Q22 -205 22 -189 L22 -118 Q22 -102 29 -95 Q36 -88 52 -88 L63 -88 Q94 -88 109.5 -78.5 Q125 -69 125 -44 L125 157 Q125 191 138.5 213.5 Q152 236 177 249 Q152 262 138.5 284.5 Q125 307 125 341 L125 534 Q125 559 109.5 568.5 Q94 578 63 578 L52 578 Q36 578 29 585 Q22 592 22 608 L22 679 Q22 695 29 701.5 Q36 708 52 708 L63 708 Q176 708 233 665.5 Q290 623 290 552 Z " />
<glyph glyph-name="asciitilde" unicode="&#x7e;" horiz-adv-x="503" d="M459 333 L454 287 Q449 237 422.5 213 Q396 189 365 189 Q346 189 328 194 Q310 199 300 203 L211 244 Q200 249 193 251 Q186 253 180 253 Q167 253 162 247.5 Q157 242 157 229 L157 222 Q157 206 148 201 Q139 196 125 196 L73 196 Q58 196 53 205 Q48 214 49 230 L54 286 Q58 335 86 355 Q114 375 142 375 Q155 375 172.5 372 Q190 369 203 363 L291 324 Q304 318 313 315.5 Q322 313 330 313 Q337 313 343.5 317.5 Q350 322 350 333 L350 341 Q350 357 358.5 362 Q367 367 382 367 L434 367 Q450 367 455 358 Q460 349 459 333 Z " />
<glyph glyph-name="Adieresis" unicode="&#xc4;" horiz-adv-x="566" d="M329 256 L315 310 Q302 358 295 417.5 Q288 477 284 520 Q280 482 271 417 Q262 352 250 310 L235 256 L329 256 Z M233 680 L341 680 Q357 680 365.5 672.5 Q374 665 378 650 L559 30 Q563 16 558 8 Q553 0 537 0 L426 0 Q410 0 402.5 8 Q395 16 391 30 L365 126 L199 126 L173 30 Q169 16 161.5 8 Q154 0 138 0 L37 0 Q21 0 16 8 Q11 16 15 30 L196 650 Q200 665 208.5 672.5 Q217 680 233 680 Z M419 848 L419 756 Q419 740 413 733.5 Q407 727 391 727 L331 727 Q315 727 308.5 733.5 Q302 740 302 756 L302 848 Q302 864 308.5 871 Q315 878 331 878 L391 878 Q407 878 413 871 Q419 864 419 848 Z M264 848 L264 756 Q264 740 258 733.5 Q252 727 236 727 L176 727 Q160 727 153.5 733.5 Q147 740 147 756 L147 848 Q147 864 153.5 871 Q160 878 176 878 L236 878 Q252 878 258 871 Q264 864 264 848 Z " />
<glyph glyph-name="Aring" unicode="&#xc5;" horiz-adv-x="566" d="M329 256 L315 310 Q302 358 295 417.5 Q288 477 284 520 Q280 482 271 417 Q262 352 250 310 L235 256 L329 256 Z M233 680 L341 680 Q357 680 365.5 672.5 Q374 665 378 650 L559 30 Q563 16 558 8 Q553 0 537 0 L426 0 Q410 0 402.5 8 Q395 16 391 30 L365 126 L199 126 L173 30 Q169 16 161.5 8 Q154 0 138 0 L37 0 Q21 0 16 8 Q11 16 15 30 L196 650 Q200 665 208.5 672.5 Q217 680 233 680 Z M405 826 L405 792 Q405 761 376 736.5 Q347 712 283 712 Q219 712 190 736.5 Q161 761 161 792 L161 826 Q161 857 190 881.5 Q219 906 283 906 Q347 906 376 881.5 Q405 857 405 826 Z M321 801 L321 817 Q321 833 310 838.5 Q299 844 283 844 Q267 844 256 838.5 Q245 833 245 817 L245 801 Q245 785 256 779 Q267 773 283 773 Q299 773 310 779 Q321 785 321 801 Z " />
<glyph glyph-name="Ccedilla" unicode="&#xc7;" horiz-adv-x="577" d="M424 -123 Q424 -168 400.5 -189.5 Q377 -211 335 -211 L210 -211 Q194 -211 187 -204.5 Q180 -198 180 -182 L180 -161 Q180 -145 187 -139 Q194 -133 210 -133 L307 -133 Q313 -133 314.5 -129 Q316 -125 316 -123 Q316 -121 314.5 -117 Q313 -113 307 -113 L226 -113 Q200 -113 193 -101.5 Q186 -90 191 -73 L212 -1 Q121 15 85.5 62 Q50 109 50 163 L50 517 Q50 581 103 634.5 Q156 688 296 688 Q436 688 489 634.5 Q542 581 542 517 L542 471 Q542 455 536 448 Q530 441 514 441 L411 441 Q395 441 388.5 448 Q382 455 382 471 L382 488 Q382 522 358.5 537.5 Q335 553 298 553 Q261 553 238 537.5 Q215 522 215 488 L215 192 Q215 158 238 142.5 Q261 127 298 127 Q335 127 358.5 142.5 Q382 158 382 192 L382 224 Q382 240 388.5 247 Q395 254 411 254 L514 254 Q530 254 536 247 Q542 240 542 224 L542 163 Q542 101 493 48.5 Q444 -4 316 -8 L308 -39 L335 -39 Q377 -39 400.5 -59.5 Q424 -80 424 -123 Z " />
<glyph glyph-name="Eacute" unicode="&#xc9;" horiz-adv-x="506" d="M441 0 L89 0 Q73 0 66.5 7 Q60 14 60 30 L60 650 Q60 666 66.5 673 Q73 680 89 680 L431 680 Q447 680 454 674 Q461 668 461 652 L461 574 Q461 558 454 551.5 Q447 545 431 545 L225 545 L225 415 L415 415 Q431 415 438 409 Q445 403 445 387 L445 314 Q445 298 438 291.5 Q431 285 415 285 L225 285 L225 135 L441 135 Q457 135 464 129 Q471 123 471 107 L471 29 Q471 13 464 6.5 Q457 0 441 0 Z M398 848 L329 747 Q325 740 315.5 733.5 Q306 727 290 727 L211 727 Q198 727 193 733.5 Q188 740 195 756 L235 848 Q241 861 250.5 869.5 Q260 878 276 878 L383 878 Q399 878 403 869.5 Q407 861 398 848 Z " />
<glyph glyph-name="Ntilde" unicode="&#xd1;" horiz-adv-x="631" d="M571 650 L571 30 Q571 14 565 7 Q559 0 543 0 L445 0 Q434 0 428 3.5 Q422 7 418 14 L258 280 Q246 300 234.5 324.5 Q223 349 215 370 L215 30 Q215 14 209 7 Q203 0 187 0 L89 0 Q73 0 66.5 7 Q60 14 60 30 L60 650 Q60 666 66.5 673 Q73 680 89 680 L187 680 Q197 680 202.5 677 Q208 674 212 668 L381 385 Q390 369 399.5 348.5 Q409 328 416 310 L416 650 Q416 666 422.5 673 Q429 680 445 680 L543 680 Q559 680 565 673 Q571 666 571 650 Z M371 847 Q378 847 383.5 850.5 Q389 854 390 860 L391 864 Q395 879 401.5 884.5 Q408 890 423 890 L475 890 Q491 890 496 881 Q501 872 500 856 L496 811 Q492 773 468 754 Q444 735 412 735 Q387 735 372 738 Q357 741 343 745 L300 759 Q287 763 279 766.5 Q271 770 264 770 Q257 770 251.5 766.5 Q246 763 245 757 L244 753 Q240 737 233 732 Q226 727 212 727 L159 727 Q144 727 139 736.5 Q134 746 135 761 L141 810 Q145 845 172 865.5 Q199 886 235 886 Q252 886 267 882.5 Q282 879 293 875 L335 859 Q346 855 355 851 Q364 847 371 847 Z " />
<glyph glyph-name="Odieresis" unicode="&#xd6;" horiz-adv-x="611" d="M50 163 L50 517 Q50 581 107.5 634.5 Q165 688 305 688 Q445 688 503 634.5 Q561 581 561 517 L561 163 Q561 99 503 45.5 Q445 -8 305 -8 Q165 -8 107.5 45.5 Q50 99 50 163 Z M396 192 L396 488 Q396 522 369 537.5 Q342 553 305 553 Q268 553 241.5 537.5 Q215 522 215 488 L215 192 Q215 158 241.5 142.5 Q268 127 305 127 Q342 127 369 142.5 Q396 158 396 192 Z M441 848 L441 756 Q441 740 435 733.5 Q429 727 413 727 L353 727 Q337 727 330.5 733.5 Q324 740 324 756 L324 848 Q324 864 330.5 871 Q337 878 353 878 L413 878 Q429 878 435 871 Q441 864 441 848 Z M286 848 L286 756 Q286 740 280 733.5 Q274 727 258 727 L198 727 Q182 727 175.5 733.5 Q169 740 169 756 L169 848 Q169 864 175.5 871 Q182 878 198 878 L258 878 Q274 878 280 871 Q286 864 286 848 Z " />
<glyph glyph-name="Udieresis" unicode="&#xdc;" horiz-adv-x="625" d="M222 650 L222 192 Q222 158 248.5 142.5 Q275 127 312 127 Q349 127 376 142.5 Q403 158 403 192 L403 650 Q403 666 409.5 673 Q416 680 432 680 L540 680 Q556 680 562 673 Q568 666 568 650 L568 163 Q568 99 510 45.5 Q452 -8 312 -8 Q172 -8 114.5 45.5 Q57 99 57 163 L57 650 Q57 666 63.5 673 Q70 680 86 680 L194 680 Q210 680 216 673 Q222 666 222 650 Z M448 848 L448 756 Q448 740 442 733.5 Q436 727 420 727 L360 727 Q344 727 337.5 733.5 Q331 740 331 756 L331 848 Q331 864 337.5 871 Q344 878 360 878 L420 878 Q436 878 442 871 Q448 864 448 848 Z M293 848 L293 756 Q293 740 287 733.5 Q281 727 265 727 L205 727 Q189 727 182.5 733.5 Q176 740 176 756 L176 848 Q176 864 182.5 871 Q189 878 205 878 L265 878 Q281 878 287 871 Q293 864 293 848 Z " />
<glyph glyph-name="aacute" unicode="&#xe1;" horiz-adv-x="518" d="M223 116 Q248 116 273 128.5 Q298 141 315 153 L315 186 L223 186 Q201 186 195 176 Q189 166 189 155 L189 142 Q189 125 200.5 120.5 Q212 116 223 116 Z M49 345 L49 357 Q49 428 100 468 Q151 508 261 508 Q374 508 423 468 Q472 428 472 357 L472 30 Q472 14 465.5 7 Q459 0 443 0 L351 0 Q335 0 329.5 7 Q324 14 322 30 L320 45 Q298 27 263.5 9.5 Q229 -8 180 -8 Q105 -8 69 31.5 Q33 71 33 120 L33 163 Q33 214 74 253 Q115 292 193 292 L315 292 L315 347 Q315 370 302 381.5 Q289 393 258 393 Q227 393 212.5 384 Q198 375 198 352 L198 345 Q198 329 191.5 322.5 Q185 316 169 316 L78 316 Q62 316 55.5 322.5 Q49 329 49 345 Z M394 678 L325 577 Q321 570 311.5 563.5 Q302 557 286 557 L207 557 Q194 557 189 563.5 Q184 570 191 586 L231 678 Q237 691 246.5 699.5 Q256 708 272 708 L379 708 Q395 708 399 699.5 Q403 691 394 678 Z " />
<glyph glyph-name="agrave" unicode="&#xe0;" horiz-adv-x="518" d="M223 116 Q248 116 273 128.5 Q298 141 315 153 L315 186 L223 186 Q201 186 195 176 Q189 166 189 155 L189 142 Q189 125 200.5 120.5 Q212 116 223 116 Z M49 345 L49 357 Q49 428 100 468 Q151 508 261 508 Q374 508 423 468 Q472 428 472 357 L472 30 Q472 14 465.5 7 Q459 0 443 0 L351 0 Q335 0 329.5 7 Q324 14 322 30 L320 45 Q298 27 263.5 9.5 Q229 -8 180 -8 Q105 -8 69 31.5 Q33 71 33 120 L33 163 Q33 214 74 253 Q115 292 193 292 L315 292 L315 347 Q315 370 302 381.5 Q289 393 258 393 Q227 393 212.5 384 Q198 375 198 352 L198 345 Q198 329 191.5 322.5 Q185 316 169 316 L78 316 Q62 316 55.5 322.5 Q49 329 49 345 Z M204 577 L135 678 Q126 691 130 699.5 Q134 708 150 708 L257 708 Q273 708 282.5 699.5 Q292 691 298 678 L338 586 Q345 570 340 563.5 Q335 557 322 557 L243 557 Q227 557 217.5 563.5 Q208 570 204 577 Z " />
<glyph glyph-name="acircumflex" unicode="&#xe2;" horiz-adv-x="518" d="M223 116 Q248 116 273 128.5 Q298 141 315 153 L315 186 L223 186 Q201 186 195 176 Q189 166 189 155 L189 142 Q189 125 200.5 120.5 Q212 116 223 116 Z M49 345 L49 357 Q49 428 100 468 Q151 508 261 508 Q374 508 423 468 Q472 428 472 357 L472 30 Q472 14 465.5 7 Q459 0 443 0 L351 0 Q335 0 329.5 7 Q324 14 322 30 L320 45 Q298 27 263.5 9.5 Q229 -8 180 -8 Q105 -8 69 31.5 Q33 71 33 120 L33 163 Q33 214 74 253 Q115 292 193 292 L315 292 L315 347 Q315 370 302 381.5 Q289 393 258 393 Q227 393 212.5 384 Q198 375 198 352 L198 345 Q198 329 191.5 322.5 Q185 316 169 316 L78 316 Q62 316 55.5 322.5 Q49 329 49 345 Z M266 614 L254 586 Q250 576 239.5 566.5 Q229 557 213 557 L135 557 Q119 557 114.5 565.5 Q110 574 119 586 L190 678 Q200 691 210.5 699.5 Q221 708 237 708 L295 708 Q311 708 321.5 699.5 Q332 691 342 678 L413 586 Q422 574 417.5 565.5 Q413 557 397 557 L319 557 Q303 557 293 566 Q283 575 278 586 L266 614 Z " />
<glyph glyph-name="adieresis" unicode="&#xe4;" horiz-adv-x="518" d="M223 116 Q248 116 273 128.5 Q298 141 315 153 L315 186 L223 186 Q201 186 195 176 Q189 166 189 155 L189 142 Q189 125 200.5 120.5 Q212 116 223 116 Z M49 345 L49 357 Q49 428 100 468 Q151 508 261 508 Q374 508 423 468 Q472 428 472 357 L472 30 Q472 14 465.5 7 Q459 0 443 0 L351 0 Q335 0 329.5 7 Q324 14 322 30 L320 45 Q298 27 263.5 9.5 Q229 -8 180 -8 Q105 -8 69 31.5 Q33 71 33 120 L33 163 Q33 214 74 253 Q115 292 193 292 L315 292 L315 347 Q315 370 302 381.5 Q289 393 258 393 Q227 393 212.5 384 Q198 375 198 352 L198 345 Q198 329 191.5 322.5 Q185 316 169 316 L78 316 Q62 316 55.5 322.5 Q49 329 49 345 Z M396 678 L396 586 Q396 570 390 563.5 Q384 557 368 557 L308 557 Q292 557 285.5 563.5 Q279 570 279 586 L279 678 Q279 694 285.5 701 Q292 708 308 708 L368 708 Q384 708 390 701 Q396 694 396 678 Z M241 678 L241 586 Q241 570 235 563.5 Q229 557 213 557 L153 557 Q137 557 130.5 563.5 Q124 570 124 586 L124 678 Q124 694 130.5 701 Q137 708 153 708 L213 708 Q229 708 235 701 Q241 694 241 678 Z " />
<glyph glyph-name="atilde" unicode="&#xe3;" horiz-adv-x="518" d="M223 116 Q248 116 273 128.5 Q298 141 315 153 L315 186 L223 186 Q201 186 195 176 Q189 166 189 155 L189 142 Q189 125 200.5 120.5 Q212 116 223 116 Z M49 345 L49 357 Q49 428 100 468 Q151 508 261 508 Q374 508 423 468 Q472 428 472 357 L472 30 Q472 14 465.5 7 Q459 0 443 0 L351 0 Q335 0 329.5 7 Q324 14 322 30 L320 45 Q298 27 263.5 9.5 Q229 -8 180 -8 Q105 -8 69 31.5 Q33 71 33 120 L33 163 Q33 214 74 253 Q115 292 193 292 L315 292 L315 347 Q315 370 302 381.5 Q289 393 258 393 Q227 393 212.5 384 Q198 375 198 352 L198 345 Q198 329 191.5 322.5 Q185 316 169 316 L78 316 Q62 316 55.5 322.5 Q49 329 49 345 Z M360 555 Q335 555 320 558 Q305 561 291 565 L248 579 Q235 583 227 586.5 Q219 590 212 590 Q205 590 199.5 586.5 Q194 583 193 577 L192 573 Q188 557 181 552 Q174 547 160 547 L107 547 Q92 547 87 556.5 Q82 566 83 581 L89 630 Q93 665 120 685.5 Q147 706 183 706 Q200 706 215 702.5 Q230 699 241 695 L283 679 Q294 675 303 671 Q312 667 319 667 Q326 667 331.5 670.5 Q337 674 338 680 L339 684 Q343 699 349.5 704.5 Q356 710 371 710 L423 710 Q439 710 444 701 Q449 692 448 676 L444 631 Q440 593 416 574 Q392 555 360 555 Z " />
<glyph glyph-name="aring" unicode="&#xe5;" horiz-adv-x="518" d="M223 116 Q248 116 273 128.5 Q298 141 315 153 L315 186 L223 186 Q201 186 195 176 Q189 166 189 155 L189 142 Q189 125 200.5 120.5 Q212 116 223 116 Z M49 345 L49 357 Q49 428 100 468 Q151 508 261 508 Q374 508 423 468 Q472 428 472 357 L472 30 Q472 14 465.5 7 Q459 0 443 0 L351 0 Q335 0 329.5 7 Q324 14 322 30 L320 45 Q298 27 263.5 9.5 Q229 -8 180 -8 Q105 -8 69 31.5 Q33 71 33 120 L33 163 Q33 214 74 253 Q115 292 193 292 L315 292 L315 347 Q315 370 302 381.5 Q289 393 258 393 Q227 393 212.5 384 Q198 375 198 352 L198 345 Q198 329 191.5 322.5 Q185 316 169 316 L78 316 Q62 316 55.5 322.5 Q49 329 49 345 Z M385 654 L385 620 Q385 589 356 564.5 Q327 540 263 540 Q199 540 170 564.5 Q141 589 141 620 L141 654 Q141 685 170 709.5 Q199 734 263 734 Q327 734 356 709.5 Q385 685 385 654 Z M301 629 L301 645 Q301 661 290 666.5 Q279 672 263 672 Q247 672 236 666.5 Q225 661 225 645 L225 629 Q225 613 236 607 Q247 601 263 601 Q279 601 290 607 Q301 613 301 629 Z " />
<glyph glyph-name="ccedilla" unicode="&#xe7;" horiz-adv-x="503" d="M383 -123 Q383 -168 359.5 -189.5 Q336 -211 294 -211 L169 -211 Q153 -211 146 -204.5 Q139 -198 139 -182 L139 -161 Q139 -145 146 -139 Q153 -133 169 -133 L266 -133 Q272 -133 273.5 -129 Q275 -125 275 -123 Q275 -121 273.5 -117 Q272 -113 266 -113 L185 -113 Q159 -113 152 -101.5 Q145 -90 150 -73 L172 0 Q104 15 72.5 53.5 Q41 92 41 148 L41 352 Q41 423 93 465.5 Q145 508 258 508 Q371 508 422.5 465.5 Q474 423 474 352 L474 337 Q474 321 467.5 314.5 Q461 308 445 308 L350 308 Q334 308 327.5 314.5 Q321 321 321 337 L321 340 Q321 365 306.5 374 Q292 383 261 383 Q230 383 215.5 374 Q201 365 201 340 L201 161 Q201 136 215.5 126.5 Q230 117 261 117 Q292 117 306.5 126.5 Q321 136 321 161 L321 173 Q321 189 327.5 195.5 Q334 202 350 202 L445 202 Q461 202 467.5 195.5 Q474 189 474 173 L474 148 Q474 80 426 38 Q378 -4 275 -8 L267 -39 L294 -39 Q336 -39 359.5 -59.5 Q383 -80 383 -123 Z " />
<glyph glyph-name="eacute" unicode="&#xe9;" horiz-adv-x="507" d="M467 352 L467 241 Q467 227 460.5 220.5 Q454 214 440 214 L197 214 L197 154 Q197 132 211.5 121 Q226 110 257 110 Q288 110 303 121 Q318 132 318 154 L318 155 Q318 171 324.5 177.5 Q331 184 347 184 L433 184 Q449 184 455.5 177.5 Q462 171 462 155 L462 148 Q462 77 416 34.5 Q370 -8 257 -8 Q144 -8 92.5 34.5 Q41 77 41 148 L41 352 Q41 423 92.5 465.5 Q144 508 257 508 Q370 508 418.5 465.5 Q467 423 467 352 Z M197 345 L197 316 L318 316 L318 345 Q318 367 303 378.5 Q288 390 257 390 Q226 390 211.5 378.5 Q197 367 197 345 Z M395 678 L326 577 Q322 570 312.5 563.5 Q303 557 287 557 L208 557 Q195 557 190 563.5 Q185 570 192 586 L232 678 Q238 691 247.5 699.5 Q257 708 273 708 L380 708 Q396 708 400 699.5 Q404 691 395 678 Z " />
<glyph glyph-name="egrave" unicode="&#xe8;" horiz-adv-x="507" d="M467 352 L467 241 Q467 227 460.5 220.5 Q454 214 440 214 L197 214 L197 154 Q197 132 211.5 121 Q226 110 257 110 Q288 110 303 121 Q318 132 318 154 L318 155 Q318 171 324.5 177.5 Q331 184 347 184 L433 184 Q449 184 455.5 177.5 Q462 171 462 155 L462 148 Q462 77 416 34.5 Q370 -8 257 -8 Q144 -8 92.5 34.5 Q41 77 41 148 L41 352 Q41 423 92.5 465.5 Q144 508 257 508 Q370 508 418.5 465.5 Q467 423 467 352 Z M197 345 L197 316 L318 316 L318 345 Q318 367 303 378.5 Q288 390 257 390 Q226 390 211.5 378.5 Q197 367 197 345 Z M188 577 L119 678 Q110 691 114 699.5 Q118 708 134 708 L241 708 Q257 708 266.5 699.5 Q276 691 282 678 L322 586 Q329 570 324 563.5 Q319 557 306 557 L227 557 Q211 557 201.5 563.5 Q192 570 188 577 Z " />
<glyph glyph-name="ecircumflex" unicode="&#xea;" horiz-adv-x="507" d="M467 352 L467 241 Q467 227 460.5 220.5 Q454 214 440 214 L197 214 L197 154 Q197 132 211.5 121 Q226 110 257 110 Q288 110 303 121 Q318 132 318 154 L318 155 Q318 171 324.5 177.5 Q331 184 347 184 L433 184 Q449 184 455.5 177.5 Q462 171 462 155 L462 148 Q462 77 416 34.5 Q370 -8 257 -8 Q144 -8 92.5 34.5 Q41 77 41 148 L41 352 Q41 423 92.5 465.5 Q144 508 257 508 Q370 508 418.5 465.5 Q467 423 467 352 Z M197 345 L197 316 L318 316 L318 345 Q318 367 303 378.5 Q288 390 257 390 Q226 390 211.5 378.5 Q197 367 197 345 Z M263 614 L251 586 Q247 576 236.5 566.5 Q226 557 210 557 L132 557 Q116 557 111.5 565.5 Q107 574 116 586 L187 678 Q197 691 207.5 699.5 Q218 708 234 708 L292 708 Q308 708 318.5 699.5 Q329 691 339 678 L410 586 Q419 574 414.5 565.5 Q410 557 394 557 L316 557 Q300 557 290 566 Q280 575 275 586 L263 614 Z " />
<glyph glyph-name="edieresis" unicode="&#xeb;" horiz-adv-x="507" d="M467 352 L467 241 Q467 227 460.5 220.5 Q454 214 440 214 L197 214 L197 154 Q197 132 211.5 121 Q226 110 257 110 Q288 110 303 121 Q318 132 318 154 L318 155 Q318 171 324.5 177.5 Q331 184 347 184 L433 184 Q449 184 455.5 177.5 Q462 171 462 155 L462 148 Q462 77 416 34.5 Q370 -8 257 -8 Q144 -8 92.5 34.5 Q41 77 41 148 L41 352 Q41 423 92.5 465.5 Q144 508 257 508 Q370 508 418.5 465.5 Q467 423 467 352 Z M197 345 L197 316 L318 316 L318 345 Q318 367 303 378.5 Q288 390 257 390 Q226 390 211.5 378.5 Q197 367 197 345 Z M391 678 L391 586 Q391 570 385 563.5 Q379 557 363 557 L303 557 Q287 557 280.5 563.5 Q274 570 274 586 L274 678 Q274 694 280.5 701 Q287 708 303 708 L363 708 Q379 708 385 701 Q391 694 391 678 Z M236 678 L236 586 Q236 570 230 563.5 Q224 557 208 557 L148 557 Q132 557 125.5 563.5 Q119 570 119 586 L119 678 Q119 694 125.5 701 Q132 708 148 708 L208 708 Q224 708 230 701 Q236 694 236 678 Z " />
<glyph glyph-name="iacute" unicode="&#xed;" horiz-adv-x="258" d="M209 470 L209 30 Q209 14 203 7 Q197 0 181 0 L78 0 Q62 0 55.5 7 Q49 14 49 30 L49 470 Q49 486 55.5 493 Q62 500 78 500 L181 500 Q197 500 203 493 Q209 486 209 470 Z M277 678 L208 577 Q204 570 194.5 563.5 Q185 557 169 557 L90 557 Q77 557 72 563.5 Q67 570 74 586 L114 678 Q120 691 129.5 699.5 Q139 708 155 708 L262 708 Q278 708 282 699.5 Q286 691 277 678 Z " />
<glyph glyph-name="igrave" unicode="&#xec;" horiz-adv-x="258" d="M209 470 L209 30 Q209 14 203 7 Q197 0 181 0 L78 0 Q62 0 55.5 7 Q49 14 49 30 L49 470 Q49 486 55.5 493 Q62 500 78 500 L181 500 Q197 500 203 493 Q209 486 209 470 Z M59 577 L-10 678 Q-19 691 -15 699.5 Q-11 708 5 708 L112 708 Q128 708 137.5 699.5 Q147 691 153 678 L193 586 Q200 570 195 563.5 Q190 557 177 557 L98 557 Q82 557 72.5 563.5 Q63 570 59 577 Z " />
<glyph glyph-name="icircumflex" unicode="&#xee;" horiz-adv-x="258" d="M209 470 L209 30 Q209 14 203 7 Q197 0 181 0 L78 0 Q62 0 55.5 7 Q49 14 49 30 L49 470 Q49 486 55.5 493 Q62 500 78 500 L181 500 Q197 500 203 493 Q209 486 209 470 Z M139 614 L127 586 Q123 576 112.5 566.5 Q102 557 86 557 L8 557 Q-8 557 -12.5 565.5 Q-17 574 -8 586 L63 678 Q73 691 83.5 699.5 Q94 708 110 708 L168 708 Q184 708 194.5 699.5 Q205 691 215 678 L286 586 Q295 574 290.5 565.5 Q286 557 270 557 L192 557 Q176 557 166 566 Q156 575 151 586 L139 614 Z " />
<glyph glyph-name="idieresis" unicode="&#xef;" horiz-adv-x="258" d="M209 470 L209 30 Q209 14 203 7 Q197 0 181 0 L78 0 Q62 0 55.5 7 Q49 14 49 30 L49 470 Q49 486 55.5 493 Q62 500 78 500 L181 500 Q197 500 203 493 Q209 486 209 470 Z M266 678 L266 586 Q266 570 260 563.5 Q254 557 238 557 L178 557 Q162 557 155.5 563.5 Q149 570 149 586 L149 678 Q149 694 155.5 701 Q162 708 178 708 L238 708 Q254 708 260 701 Q266 694 266 678 Z M111 678 L111 586 Q111 570 105 563.5 Q99 557 83 557 L23 557 Q7 557 0.5 563.5 Q-6 570 -6 586 L-6 678 Q-6 694 0.5 701 Q7 708 23 708 L83 708 Q99 708 105 701 Q111 694 111 678 Z " />
<glyph glyph-name="ntilde" unicode="&#xf1;" horiz-adv-x="553" d="M78 500 L174 500 Q190 500 196 493.5 Q202 487 203 471 L205 454 Q226 471 263.5 489.5 Q301 508 360 508 Q428 508 467.5 468.5 Q507 429 507 369 L507 30 Q507 14 500.5 7 Q494 0 478 0 L377 0 Q361 0 354 7 Q347 14 347 30 L347 328 Q347 351 340 361 Q333 371 309 371 Q280 371 252 356.5 Q224 342 209 331 L209 30 Q209 14 203 7 Q197 0 181 0 L78 0 Q62 0 55.5 7 Q49 14 49 30 L49 471 Q49 487 55.5 493.5 Q62 500 78 500 Z M370 565 Q345 565 330 568 Q315 571 301 575 L258 589 Q245 593 237 596.5 Q229 600 222 600 Q215 600 209.5 596.5 Q204 593 203 587 L202 583 Q198 567 191 562 Q184 557 170 557 L117 557 Q102 557 97 566.5 Q92 576 93 591 L99 640 Q103 675 130 695.5 Q157 716 193 716 Q210 716 225 712.5 Q240 709 251 705 L293 689 Q304 685 313 681 Q322 677 329 677 Q336 677 341.5 680.5 Q347 684 348 690 L349 694 Q353 709 359.5 714.5 Q366 720 381 720 L433 720 Q449 720 454 711 Q459 702 458 686 L454 641 Q450 603 426 584 Q402 565 370 565 Z " />
<glyph glyph-name="oacute" unicode="&#xf3;" horiz-adv-x="538" d="M40 148 L40 352 Q40 423 98 465.5 Q156 508 269 508 Q382 508 440 465.5 Q498 423 498 352 L498 148 Q498 77 440 34.5 Q382 -8 269 -8 Q156 -8 98 34.5 Q40 77 40 148 Z M338 162 L338 339 Q338 364 319 373.5 Q300 383 269 383 Q238 383 219 373.5 Q200 364 200 339 L200 162 Q200 137 219 127 Q238 117 269 117 Q300 117 319 127 Q338 137 338 162 Z M414 678 L345 577 Q341 570 331.5 563.5 Q322 557 306 557 L227 557 Q214 557 209 563.5 Q204 570 211 586 L251 678 Q257 691 266.5 699.5 Q276 708 292 708 L399 708 Q415 708 419 699.5 Q423 691 414 678 Z " />
<glyph glyph-name="ograve" unicode="&#xf2;" horiz-adv-x="538" d="M40 148 L40 352 Q40 423 98 465.5 Q156 508 269 508 Q382 508 440 465.5 Q498 423 498 352 L498 148 Q498 77 440 34.5 Q382 -8 269 -8 Q156 -8 98 34.5 Q40 77 40 148 Z M338 162 L338 339 Q338 364 319 373.5 Q300 383 269 383 Q238 383 219 373.5 Q200 364 200 339 L200 162 Q200 137 219 127 Q238 117 269 117 Q300 117 319 127 Q338 137 338 162 Z M204 577 L135 678 Q126 691 130 699.5 Q134 708 150 708 L257 708 Q273 708 282.5 699.5 Q292 691 298 678 L338 586 Q345 570 340 563.5 Q335 557 322 557 L243 557 Q227 557 217.5 563.5 Q208 570 204 577 Z " />
<glyph glyph-name="ocircumflex" unicode="&#xf4;" horiz-adv-x="538" d="M40 148 L40 352 Q40 423 98 465.5 Q156 508 269 508 Q382 508 440 465.5 Q498 423 498 352 L498 148 Q498 77 440 34.5 Q382 -8 269 -8 Q156 -8 98 34.5 Q40 77 40 148 Z M338 162 L338 339 Q338 364 319 373.5 Q300 383 269 383 Q238 383 219 373.5 Q200 364 200 339 L200 162 Q200 137 219 127 Q238 117 269 117 Q300 117 319 127 Q338 137 338 162 Z M277 614 L265 586 Q261 576 250.5 566.5 Q240 557 224 557 L146 557 Q130 557 125.5 565.5 Q121 574 130 586 L201 678 Q211 691 221.5 699.5 Q232 708 248 708 L306 708 Q322 708 332.5 699.5 Q343 691 353 678 L424 586 Q433 574 428.5 565.5 Q424 557 408 557 L330 557 Q314 557 304 566 Q294 575 289 586 L277 614 Z " />
<glyph glyph-name="odieresis" unicode="&#xf6;" horiz-adv-x="538" d="M40 148 L40 352 Q40 423 98 465.5 Q156 508 269 508 Q382 508 440 465.5 Q498 423 498 352 L498 148 Q498 77 440 34.5 Q382 -8 269 -8 Q156 -8 98 34.5 Q40 77 40 148 Z M338 162 L338 339 Q338 364 319 373.5 Q300 383 269 383 Q238 383 219 373.5 Q200 364 200 339 L200 162 Q200 137 219 127 Q238 117 269 117 Q300 117 319 127 Q338 137 338 162 Z M407 678 L407 586 Q407 570 401 563.5 Q395 557 379 557 L319 557 Q303 557 296.5 563.5 Q290 570 290 586 L290 678 Q290 694 296.5 701 Q303 708 319 708 L379 708 Q395 708 401 701 Q407 694 407 678 Z M252 678 L252 586 Q252 570 246 563.5 Q240 557 224 557 L164 557 Q148 557 141.5 563.5 Q135 570 135 586 L135 678 Q135 694 141.5 701 Q148 708 164 708 L224 708 Q240 708 246 701 Q252 694 252 678 Z " />
<glyph glyph-name="otilde" unicode="&#xf5;" horiz-adv-x="538" d="M40 148 L40 352 Q40 423 98 465.5 Q156 508 269 508 Q382 508 440 465.5 Q498 423 498 352 L498 148 Q498 77 440 34.5 Q382 -8 269 -8 Q156 -8 98 34.5 Q40 77 40 148 Z M338 162 L338 339 Q338 364 319 373.5 Q300 383 269 383 Q238 383 219 373.5 Q200 364 200 339 L200 162 Q200 137 219 127 Q238 117 269 117 Q300 117 319 127 Q338 137 338 162 Z M368 555 Q343 555 328 558 Q313 561 299 565 L256 579 Q243 583 235 586.5 Q227 590 220 590 Q213 590 207.5 586.5 Q202 583 201 577 L200 573 Q196 557 189 552 Q182 547 168 547 L115 547 Q100 547 95 556.5 Q90 566 91 581 L97 630 Q101 665 128 685.5 Q155 706 191 706 Q208 706 223 702.5 Q238 699 249 695 L291 679 Q302 675 311 671 Q320 667 327 667 Q334 667 339.5 670.5 Q345 674 346 680 L347 684 Q351 699 357.5 704.5 Q364 710 379 710 L431 710 Q447 710 452 701 Q457 692 456 676 L452 631 Q448 593 424 574 Q400 555 368 555 Z " />
<glyph glyph-name="uacute" unicode="&#xfa;" horiz-adv-x="547" d="M344 29 L342 45 Q323 29 287 10.5 Q251 -8 193 -8 Q125 -8 85.5 31.5 Q46 71 46 131 L46 470 Q46 486 52.5 493 Q59 500 75 500 L176 500 Q192 500 199 493 Q206 486 206 470 L206 172 Q206 149 213 139 Q220 129 244 129 Q272 129 298 143 Q324 157 338 168 L338 470 Q338 486 344 493 Q350 500 366 500 L469 500 Q485 500 491.5 493 Q498 486 498 470 L498 29 Q498 13 491.5 6.5 Q485 0 469 0 L373 0 Q357 0 351.5 6.5 Q346 13 344 29 Z M418 678 L349 577 Q345 570 335.5 563.5 Q326 557 310 557 L231 557 Q218 557 213 563.5 Q208 570 215 586 L255 678 Q261 691 270.5 699.5 Q280 708 296 708 L403 708 Q419 708 423 699.5 Q427 691 418 678 Z " />
<glyph glyph-name="ugrave" unicode="&#xf9;" horiz-adv-x="547" d="M344 29 L342 45 Q323 29 287 10.5 Q251 -8 193 -8 Q125 -8 85.5 31.5 Q46 71 46 131 L46 470 Q46 486 52.5 493 Q59 500 75 500 L176 500 Q192 500 199 493 Q206 486 206 470 L206 172 Q206 149 213 139 Q220 129 244 129 Q272 129 298 143 Q324 157 338 168 L338 470 Q338 486 344 493 Q350 500 366 500 L469 500 Q485 500 491.5 493 Q498 486 498 470 L498 29 Q498 13 491.5 6.5 Q485 0 469 0 L373 0 Q357 0 351.5 6.5 Q346 13 344 29 Z M202 577 L133 678 Q124 691 128 699.5 Q132 708 148 708 L255 708 Q271 708 280.5 699.5 Q290 691 296 678 L336 586 Q343 570 338 563.5 Q333 557 320 557 L241 557 Q225 557 215.5 563.5 Q206 570 202 577 Z " />
<glyph glyph-name="ucircumflex" unicode="&#xfb;" horiz-adv-x="547" d="M344 29 L342 45 Q323 29 287 10.5 Q251 -8 193 -8 Q125 -8 85.5 31.5 Q46 71 46 131 L46 470 Q46 486 52.5 493 Q59 500 75 500 L176 500 Q192 500 199 493 Q206 486 206 470 L206 172 Q206 149 213 139 Q220 129 244 129 Q272 129 298 143 Q324 157 338 168 L338 470 Q338 486 344 493 Q350 500 366 500 L469 500 Q485 500 491.5 493 Q498 486 498 470 L498 29 Q498 13 491.5 6.5 Q485 0 469 0 L373 0 Q357 0 351.5 6.5 Q346 13 344 29 Z M270 614 L258 586 Q254 576 243.5 566.5 Q233 557 217 557 L139 557 Q123 557 118.5 565.5 Q114 574 123 586 L194 678 Q204 691 214.5 699.5 Q225 708 241 708 L299 708 Q315 708 325.5 699.5 Q336 691 346 678 L417 586 Q426 574 421.5 565.5 Q417 557 401 557 L323 557 Q307 557 297 566 Q287 575 282 586 L270 614 Z " />
<glyph glyph-name="udieresis" unicode="&#xfc;" horiz-adv-x="547" d="M344 29 L342 45 Q323 29 287 10.5 Q251 -8 193 -8 Q125 -8 85.5 31.5 Q46 71 46 131 L46 470 Q46 486 52.5 493 Q59 500 75 500 L176 500 Q192 500 199 493 Q206 486 206 470 L206 172 Q206 149 213 139 Q220 129 244 129 Q272 129 298 143 Q324 157 338 168 L338 470 Q338 486 344 493 Q350 500 366 500 L469 500 Q485 500 491.5 493 Q498 486 498 470 L498 29 Q498 13 491.5 6.5 Q485 0 469 0 L373 0 Q357 0 351.5 6.5 Q346 13 344 29 Z M405 678 L405 586 Q405 570 399 563.5 Q393 557 377 557 L317 557 Q301 557 294.5 563.5 Q288 570 288 586 L288 678 Q288 694 294.5 701 Q301 708 317 708 L377 708 Q393 708 399 701 Q405 694 405 678 Z M250 678 L250 586 Q250 570 244 563.5 Q238 557 222 557 L162 557 Q146 557 139.5 563.5 Q133 570 133 586 L133 678 Q133 694 139.5 701 Q146 708 162 708 L222 708 Q238 708 244 701 Q250 694 250 678 Z " />
<glyph glyph-name="dagger" unicode="&#x2020;" horiz-adv-x="650" d="M405 669 L405 30 Q405 14 399 7 Q393 0 377 0 L274 0 Q258 0 251.5 7 Q245 14 245 30 L245 669 Q245 685 251.5 692 Q258 699 274 699 L377 699 Q393 699 399 692 Q405 685 405 669 Z M465 520 L597 520 Q613 520 620 514 Q627 508 627 492 L627 419 Q627 403 620 396.5 Q613 390 597 390 L465 390 Q449 390 442 396.5 Q435 403 435 419 L435 492 Q435 508 442 514 Q449 520 465 520 Z M53 520 L185 520 Q201 520 208 514 Q215 508 215 492 L215 419 Q215 403 208 396.5 Q201 390 185 390 L53 390 Q37 390 30 396.5 Q23 403 23 419 L23 492 Q23 508 30 514 Q37 520 53 520 Z " />
<glyph glyph-name="degree" unicode="&#xb0;" horiz-adv-x="423" d="M37 475 L37 569 Q37 623 75 655.5 Q113 688 212 688 Q311 688 348.5 655.5 Q386 623 386 569 L386 475 Q386 421 348.5 388.5 Q311 356 212 356 Q113 356 75 388.5 Q37 421 37 475 Z M252 481 L252 564 Q252 577 238.5 581.5 Q225 586 211 586 Q198 586 184.5 581.5 Q171 577 171 564 L171 481 Q171 467 184.5 462.5 Q198 458 211 458 Q225 458 238.5 462.5 Q252 467 252 481 Z " />
<glyph glyph-name="cent" unicode="&#xa2;" horiz-adv-x="512" d="M348 30 Q348 14 342 7 Q336 0 320 0 L217 0 Q201 0 194.5 7 Q188 14 188 30 L188 88 Q113 101 78.5 140.5 Q44 180 44 238 L44 442 Q44 500 78.5 539.5 Q113 579 188 592 L188 650 Q188 666 194.5 673 Q201 680 217 680 L320 680 Q336 680 342 673 Q348 666 348 650 L348 590 Q414 575 445.5 536 Q477 497 477 442 L477 427 Q477 411 470.5 404.5 Q464 398 448 398 L353 398 Q337 398 330.5 404.5 Q324 411 324 427 L324 430 Q324 455 309.5 464 Q295 473 264 473 Q233 473 218.5 464 Q204 455 204 430 L204 251 Q204 226 218.5 216.5 Q233 207 264 207 Q295 207 309.5 216.5 Q324 226 324 251 L324 263 Q324 279 330.5 285.5 Q337 292 353 292 L448 292 Q464 292 470.5 285.5 Q477 279 477 263 L477 238 Q477 183 445.5 144.5 Q414 106 348 91 L348 30 Z " />
<glyph glyph-name="sterling" unicode="&#xa3;" horiz-adv-x="646" d="M285 397 L373 397 Q389 397 396 391 Q403 385 403 369 L403 296 Q403 280 396 273.5 Q389 267 373 267 L285 267 L285 130 L415 130 Q440 130 449.5 148 Q459 166 459 197 L459 208 Q459 224 466 231 Q473 238 489 238 L586 238 Q602 238 608.5 231 Q615 224 615 208 L615 197 Q615 84 572.5 42 Q530 0 459 0 L66 0 Q50 0 43 6.5 Q36 13 36 29 L36 102 Q36 118 43 124 Q50 130 66 130 L120 130 L120 267 L66 267 Q50 267 43 273.5 Q36 280 36 296 L36 369 Q36 385 43 391 Q50 397 66 397 L120 397 L120 517 Q120 581 172 634.5 Q224 688 355 688 Q486 688 538.5 634.5 Q591 581 591 517 L591 481 Q591 465 585 458 Q579 451 563 451 L463 451 Q447 451 440.5 458 Q434 465 434 481 L434 488 Q434 522 411.5 537.5 Q389 553 357 553 Q325 553 305 537.5 Q285 522 285 488 L285 397 Z " />
<glyph glyph-name="section" unicode="&#xa7;" horiz-adv-x="515" d="M457 284 L457 217 Q457 201 450.5 194.5 Q444 188 428 188 L338 188 Q322 188 315.5 194.5 Q309 201 309 217 L309 268 Q309 280 301.5 289.5 Q294 299 280 303 L140 347 Q99 360 70 391 Q41 422 41 478 L41 530 Q41 597 93 642.5 Q145 688 258 688 Q371 688 422.5 648 Q474 608 474 537 L474 530 Q474 514 467.5 507.5 Q461 501 445 501 L355 501 Q339 501 332.5 507.5 Q326 514 326 530 L326 545 Q326 570 310 578 Q294 586 263 586 Q232 586 215.5 577.5 Q199 569 199 544 L199 487 Q199 475 211.5 467 Q224 459 238 455 L360 416 Q402 403 429.5 368 Q457 333 457 284 Z M58 205 L58 272 Q58 288 64.5 294.5 Q71 301 87 301 L177 301 Q193 301 199.5 294.5 Q206 288 206 272 L206 221 Q206 209 213.5 199.5 Q221 190 235 186 L375 142 Q416 129 445 98 Q474 67 474 11 L474 -41 Q474 -108 422 -153.5 Q370 -199 257 -199 Q144 -199 92.5 -159 Q41 -119 41 -48 L41 -41 Q41 -25 47.5 -18.5 Q54 -12 70 -12 L160 -12 Q176 -12 182.5 -18.5 Q189 -25 189 -41 L189 -56 Q189 -81 205 -89 Q221 -97 252 -97 Q283 -97 299.5 -88.5 Q316 -80 316 -55 L316 2 Q316 14 303.5 22 Q291 30 277 34 L155 73 Q113 86 85.5 121 Q58 156 58 205 Z " />
<glyph glyph-name="bullet" unicode="&#x2022;" horiz-adv-x="307" d="M235 352 L235 199 Q235 183 229 176.5 Q223 170 207 170 L101 170 Q85 170 78.5 176.5 Q72 183 72 199 L72 352 Q72 368 78.5 375 Q85 382 101 382 L207 382 Q223 382 229 375 Q235 368 235 352 Z " />
<glyph glyph-name="paragraph" unicode="&#xb6;" horiz-adv-x="679" d="M620 650 L620 -169 Q620 -185 614 -192 Q608 -199 592 -199 L484 -199 Q468 -199 461.5 -192 Q455 -185 455 -169 L455 650 Q455 666 461.5 673 Q468 680 484 680 L592 680 Q608 680 614 673 Q620 666 620 650 Z M396 650 L396 -169 Q396 -185 390 -192 Q384 -199 368 -199 L260 -199 Q244 -199 237.5 -192 Q231 -185 231 -169 L231 282 L217 282 Q104 282 64 319 Q24 356 24 413 L24 549 Q24 606 64 643 Q104 680 217 680 L368 680 Q384 680 390 673 Q396 666 396 650 Z " />
<glyph glyph-name="germandbls" unicode="&#xdf;" horiz-adv-x="662" d="M253 544 L253 30 Q253 14 247 7 Q241 0 225 0 L122 0 Q106 0 99.5 7 Q93 14 93 30 L93 373 L43 373 Q27 373 20.5 379.5 Q14 386 14 402 L14 463 Q14 479 21 485 Q28 491 43 492 L92 498 L93 498 L93 552 Q93 623 155 665.5 Q217 708 337 708 Q457 708 513 665.5 Q569 623 569 552 L569 517 Q569 486 551.5 461.5 Q534 437 504 423 L435 390 Q427 386 423.5 382 Q420 378 420 373 L420 372 Q420 364 426.5 359 Q433 354 441 350 L556 294 Q587 279 615 249.5 Q643 220 643 180 L643 144 Q643 78 602 35 Q561 -8 460 -8 Q359 -8 322.5 30 Q286 68 286 137 L286 140 Q286 156 292.5 162.5 Q299 169 315 169 L385 169 Q401 169 407.5 162.5 Q414 156 414 140 L414 130 Q414 109 425.5 100 Q437 91 456 91 Q475 91 487 100.5 Q499 110 499 131 L499 154 Q499 166 490.5 173.5 Q482 181 472 185 L368 232 Q329 249 309 276.5 Q289 304 289 353 L289 373 Q289 403 304 426 Q319 449 348 463 L390 483 Q410 493 415.5 504 Q421 515 421 527 L421 544 Q421 569 401 583.5 Q381 598 337 598 Q293 598 273 583.5 Q253 569 253 544 Z " />
<glyph glyph-name="registered" unicode="&#xae;" horiz-adv-x="633" d="M585 511 L585 323 Q585 268 541 207 Q497 146 317 146 Q137 146 92.5 207 Q48 268 48 323 L48 511 Q48 566 92.5 627 Q137 688 317 688 Q497 688 541 627 Q585 566 585 511 Z M481 313 L481 521 Q481 556 447 577 Q413 598 317 598 Q221 598 186.5 576.5 Q152 555 152 520 L152 314 Q152 279 186.5 257.5 Q221 236 317 236 Q413 236 447 257 Q481 278 481 313 Z M323 480 L300 480 L300 441 L323 441 Q323 441 332.5 443.5 Q342 446 342 456 L342 464 Q342 476 333 478 Q324 480 323 480 Z M280 280 L214 280 Q204 280 199 285.5 Q194 291 194 301 L194 535 Q194 545 199 550 Q204 555 214 555 L335 555 Q408 555 428.5 527 Q449 499 449 468 L449 453 Q449 434 442.5 415.5 Q436 397 417 384 L448 301 Q451 292 445.5 286 Q440 280 428 280 L358 280 Q349 280 346 285.5 Q343 291 339 301 L314 365 L300 365 L300 301 Q300 291 295 285.5 Q290 280 280 280 Z " />
<glyph glyph-name="copyright" unicode="&#xa9;" horiz-adv-x="772" d="M727 432 L727 249 Q727 160 670.5 76 Q614 -8 386 -8 Q158 -8 101.5 76 Q45 160 45 249 L45 432 Q45 521 101.5 604.5 Q158 688 386 688 Q614 688 670.5 604.5 Q727 521 727 432 Z M612 226 L612 455 Q612 515 558.5 553.5 Q505 592 386 592 Q267 592 213.5 553 Q160 514 160 454 L160 227 Q160 167 213.5 128 Q267 89 386 89 Q505 89 558.5 127.5 Q612 166 612 226 Z M388 545 Q488 545 528.5 507.5 Q569 470 569 399 L569 393 Q569 377 562.5 370.5 Q556 364 540 364 L457 364 Q441 364 434.5 370.5 Q428 377 428 393 L428 396 Q428 421 416 430 Q404 439 388 439 Q371 439 359.5 430 Q348 421 348 396 L348 285 Q348 260 359.5 250.5 Q371 241 388 241 Q404 241 416 250.5 Q428 260 428 285 L428 294 Q428 310 434.5 316.5 Q441 323 457 323 L540 323 Q556 323 562.5 316.5 Q569 310 569 294 L569 280 Q569 209 528 171.5 Q487 134 387 134 Q288 134 247 171.5 Q206 209 206 280 L206 399 Q206 470 247.5 507.5 Q289 545 388 545 Z " />
<glyph glyph-name="trademark" unicode="&#x2122;" horiz-adv-x="894" d="M50 680 L326 680 Q339 680 345 675 Q351 670 351 657 L351 593 Q351 580 345 574.5 Q339 569 326 569 L256 569 L256 297 Q256 284 250.5 278 Q245 272 232 272 L145 272 Q132 272 126.5 278 Q121 284 121 297 L121 569 L50 569 Q37 569 31 574.5 Q25 580 25 593 L25 657 Q25 670 31 675 Q37 680 50 680 Z M838 655 L838 297 Q838 284 832.5 278 Q827 272 814 272 L733 272 Q720 272 714.5 278 Q709 284 709 297 L709 437 Q707 428 704 420 Q701 412 699 407 L677 358 Q672 347 665 340.5 Q658 334 645 334 L589 334 Q576 334 568 340.5 Q560 347 555 358 L530 409 Q526 416 523 425 Q520 434 519 444 L519 297 Q519 284 514 278 Q509 272 496 272 L419 272 Q406 272 400 278 Q394 284 394 297 L394 655 Q394 668 400 674 Q406 680 419 680 L496 680 Q504 680 509 677.5 Q514 675 517 669 L599 517 Q603 509 607.5 499.5 Q612 490 616 480 Q620 490 623.5 498.5 Q627 507 631 514 L711 669 Q713 674 718.5 677 Q724 680 733 680 L814 680 Q827 680 832.5 674 Q838 668 838 655 Z " />
<glyph glyph-name="acute" unicode="&#xb4;" horiz-adv-x="306" d="M264 678 L195 577 Q191 570 181.5 563.5 Q172 557 156 557 L77 557 Q64 557 59 563.5 Q54 570 61 586 L101 678 Q107 691 116.5 699.5 Q126 708 142 708 L249 708 Q265 708 269 699.5 Q273 691 264 678 Z " />
<glyph glyph-name="dieresis" unicode="&#xa8;" horiz-adv-x="407" d="M339 678 L339 586 Q339 570 333 563.5 Q327 557 311 557 L251 557 Q235 557 228.5 563.5 Q222 570 222 586 L222 678 Q222 694 228.5 701 Q235 708 251 708 L311 708 Q327 708 333 701 Q339 694 339 678 Z M184 678 L184 586 Q184 570 178 563.5 Q172 557 156 557 L96 557 Q80 557 73.5 563.5 Q67 570 67 586 L67 678 Q67 694 73.5 701 Q80 708 96 708 L156 708 Q172 708 178 701 Q184 694 184 678 Z " />
<glyph glyph-name="notequal" unicode="&#x2260;" horiz-adv-x="581" d="M284 95 Q278 79 270 72 Q262 65 246 65 L151 65 Q138 65 132.5 72.5 Q127 80 132 95 L150 144 L82 144 Q66 144 59 150.5 Q52 157 52 173 L52 246 Q52 262 59 268 Q66 274 82 274 L198 274 L229 360 L82 360 Q66 360 59 366.5 Q52 373 52 389 L52 462 Q52 478 59 484 Q66 490 82 490 L277 490 L295 540 Q300 555 308 562.5 Q316 570 332 570 L428 570 Q444 570 448.5 562 Q453 554 448 540 L430 490 L499 490 Q515 490 522 484 Q529 478 529 462 L529 389 Q529 373 522 366.5 Q515 360 499 360 L382 360 L350 274 L499 274 Q515 274 522 268 Q529 262 529 246 L529 173 Q529 157 522 150.5 Q515 144 499 144 L302 144 L284 95 Z " />
<glyph glyph-name="AE" unicode="&#xc6;" horiz-adv-x="818" d="M350 353 L293 256 L385 256 L385 420 Q375 400 366 382.5 Q357 365 350 353 Z M417 680 L747 680 Q763 680 770 674 Q777 668 777 652 L777 576 Q777 560 770 553.5 Q763 547 747 547 L541 547 L541 414 L731 414 Q747 414 754 408 Q761 402 761 386 L761 315 Q761 299 754 292.5 Q747 286 731 286 L541 286 L541 133 L757 133 Q773 133 780 127 Q787 121 787 105 L787 29 Q787 13 780 6.5 Q773 0 757 0 L414 0 Q398 0 391.5 7 Q385 14 385 30 L385 126 L216 126 L160 30 Q154 20 146 10 Q138 0 125 0 L24 0 Q8 0 1 8.5 Q-6 17 2 30 L375 651 Q379 658 388.5 669 Q398 680 417 680 Z " />
<glyph glyph-name="Oslash" unicode="&#xd8;" horiz-adv-x="611" d="M215 487 L215 234 L368 537 Q355 544 339 548 Q323 552 305 552 Q268 552 241.5 536.5 Q215 521 215 487 Z M305 126 Q342 126 369 141.5 Q396 157 396 191 L396 431 L248 138 Q260 132 274.5 129 Q289 126 305 126 Z M175 -8 Q167 -24 160 -31 Q153 -38 137 -38 L103 -38 Q92 -38 89.5 -29 Q87 -20 93 -8 L116 38 Q81 62 65.5 95 Q50 128 50 162 L50 516 Q50 580 107.5 633.5 Q165 687 305 687 Q344 687 376 682.5 Q408 678 434 669 L443 687 Q449 699 456.5 708 Q464 717 479 717 L515 717 Q528 717 529 707 Q530 697 525 687 L500 637 Q532 612 546.5 580.5 Q561 549 561 516 L561 162 Q561 98 503 44.5 Q445 -9 305 -9 Q268 -9 237.5 -4.5 Q207 0 182 7 L175 -8 Z " />
<glyph glyph-name="infinity" unicode="&#x221e;" horiz-adv-x="410" d="M45 349 L180 484 Q187 491 193 494 Q199 497 205 497 Q211 497 217 494 Q223 491 230 484 L365 349 Q372 342 375 336 Q378 330 378 324 Q378 318 375 312 Q372 306 365 299 L230 164 Q223 157 217 153.5 Q211 150 205 150 Q199 150 193 153.5 Q187 157 180 164 L45 299 Q38 306 34.5 312 Q31 318 31 324 Q31 330 34.5 336 Q38 342 45 349 Z M194 469 L60 335 Q57 332 55.5 329 Q54 326 54 323 Q54 321 55.5 318 Q57 315 59 313 L194 178 Q197 175 199.5 174 Q202 173 205 173 Q208 173 210.5 174 Q213 175 216 178 L351 313 Q353 315 354.5 318 Q356 321 356 323 Q356 326 354.5 329 Q353 332 350 335 L216 469 Q213 472 210.5 473 Q208 474 205 474 Q202 474 199 472.5 Q196 471 194 469 Z " />
<glyph glyph-name="plusminus" unicode="&#xb1;" horiz-adv-x="557" d="M213 237 L213 317 L83 317 Q67 317 60 323.5 Q53 330 53 346 L53 419 Q53 435 60 441 Q67 447 83 447 L213 447 L213 528 Q213 544 219 551 Q225 558 241 558 L314 558 Q330 558 336.5 551 Q343 544 343 528 L343 447 L474 447 Q490 447 497 441 Q504 435 504 419 L504 346 Q504 330 497 323.5 Q490 317 474 317 L343 317 L343 237 Q343 221 336.5 214 Q330 207 314 207 L241 207 Q225 207 219 214 Q213 221 213 237 Z M83 153 L474 153 Q490 153 497 147 Q504 141 504 125 L504 52 Q504 36 497 29.5 Q490 23 474 23 L83 23 Q67 23 60 29.5 Q53 36 53 52 L53 125 Q53 141 60 147 Q67 153 83 153 Z " />
<glyph glyph-name="lessequal" unicode="&#x2264;" horiz-adv-x="517" d="M432 493 L202 432 L432 372 Q445 368 453.5 361.5 Q462 355 462 339 L462 241 Q462 225 455 215.5 Q448 206 432 212 L74 343 Q63 347 55 353 Q47 359 47 375 L47 490 Q47 506 55 512 Q63 518 74 522 L432 653 Q447 658 454.5 649 Q462 640 462 624 L462 526 Q462 510 453.5 503.5 Q445 497 432 493 Z M77 180 L432 180 Q448 180 455 174 Q462 168 462 152 L462 79 Q462 63 455 56.5 Q448 50 432 50 L77 50 Q61 50 54 56.5 Q47 63 47 79 L47 152 Q47 168 54 174 Q61 180 77 180 Z " />
<glyph glyph-name="greaterequal" unicode="&#x2265;" horiz-adv-x="517" d="M315 432 L85 493 Q72 497 63.5 503.5 Q55 510 55 526 L55 624 Q55 640 62.5 649 Q70 658 85 653 L443 522 Q454 518 462 512 Q470 506 470 490 L470 375 Q470 359 462 353 Q454 347 443 343 L85 212 Q69 206 62 215.5 Q55 225 55 241 L55 339 Q55 355 63.5 361.5 Q72 368 85 372 L315 432 Z M85 180 L440 180 Q456 180 463 174 Q470 168 470 152 L470 79 Q470 63 463 56.5 Q456 50 440 50 L85 50 Q69 50 62 56.5 Q55 63 55 79 L55 152 Q55 168 62 174 Q69 180 85 180 Z " />
<glyph glyph-name="yen" unicode="&#xa5;" horiz-adv-x="589" d="M380 30 Q380 14 374 7 Q368 0 352 0 L244 0 Q228 0 221.5 7 Q215 14 215 30 L215 216 L87 216 Q71 216 64 222.5 Q57 229 57 245 L57 288 Q57 304 64 310 Q71 316 87 316 L178 316 L158 360 L87 360 Q71 360 64 366.5 Q57 373 57 389 L57 432 Q57 448 64 454 Q71 460 87 460 L114 460 L30 650 Q24 663 29.5 671.5 Q35 680 51 680 L173 680 Q189 680 197 671.5 Q205 663 209 650 L280 451 Q283 443 288 426.5 Q293 410 297 391 Q303 411 308 427 Q313 443 317 451 L401 650 Q406 663 413 671.5 Q420 680 436 680 L542 680 Q558 680 564.5 672 Q571 664 564 650 L476 460 L508 460 Q524 460 531 454 Q538 448 538 432 L538 389 Q538 373 531 366.5 Q524 360 508 360 L430 360 L410 316 L508 316 Q524 316 531 310 Q538 304 538 288 L538 245 Q538 229 531 222.5 Q524 216 508 216 L380 216 L380 30 Z " />
<glyph glyph-name="mu" unicode="&#xb5;" horiz-adv-x="557" d="M351 29 L349 45 Q330 29 295 10.5 Q260 -8 206 -8 L205 -8 L213 -169 Q214 -185 207.5 -192 Q201 -199 185 -199 L82 -199 Q66 -199 59.5 -192 Q53 -185 53 -169 L53 470 Q53 486 59.5 493 Q66 500 82 500 L183 500 Q199 500 206 493 Q213 486 213 470 L213 172 Q213 149 220 139 Q227 129 251 129 Q279 129 305 143 Q331 157 345 168 L345 470 Q345 486 351 493 Q357 500 373 500 L476 500 Q492 500 498.5 493 Q505 486 505 470 L505 29 Q505 13 498.5 6.5 Q492 0 476 0 L380 0 Q364 0 358.5 6.5 Q353 13 351 29 Z " />
<glyph glyph-name="partialdiff" unicode="&#x2202;" horiz-adv-x="410" d="M85 183 L85 470 Q85 483 97.5 484.5 Q110 486 122 479 L339 345 Q349 338 349 327 Q349 316 339 309 L122 175 Q110 168 97.5 168.5 Q85 169 85 183 Z " />
<glyph glyph-name="summation" unicode="&#x2211;" horiz-adv-x="410" d="M325 470 L325 183 Q325 169 312.5 168.5 Q300 168 288 175 L71 309 Q61 316 61 327 Q61 338 71 345 L288 479 Q300 486 312.5 484.5 Q325 483 325 470 Z " />
<glyph glyph-name="product" unicode="&#x220f;" horiz-adv-x="410" d="M350 192 L63 192 Q50 192 48.5 204.5 Q47 217 54 229 L188 446 Q195 456 206 456 Q217 456 224 446 L358 229 Q365 217 364.5 204.5 Q364 192 350 192 Z " />
<glyph glyph-name="pi" unicode="&#x3c0;" horiz-adv-x="348" d="M30 461 L317 461 Q330 461 331.5 448.5 Q333 436 326 424 L192 207 Q185 197 174 197 Q163 197 156 207 L22 424 Q15 436 15.5 448.5 Q16 461 30 461 Z " />
<glyph glyph-name="integral" unicode="&#x222b;" horiz-adv-x="410" d="M20 323 Q20 399 74 453.5 Q128 508 204 508 Q280 508 334.5 453.5 Q389 399 389 323 Q389 247 334.5 193 Q280 139 204 139 Q128 139 74 193 Q20 247 20 323 Z " />
<glyph glyph-name="ordfeminine" unicode="&#xaa;" horiz-adv-x="364" d="M167 459 Q175 459 185 465 Q195 471 199 475 L199 490 L165 490 Q158 490 155.5 486.5 Q153 483 153 479 L153 470 Q153 464 156.5 461.5 Q160 459 167 459 Z M46 590 L46 596 Q46 639 79.5 663.5 Q113 688 182 688 Q253 688 285 662.5 Q317 637 317 591 L317 402 Q317 392 312 386.5 Q307 381 295 381 L226 381 Q213 381 210 386 Q207 391 204 402 L203 406 Q190 396 171 386 Q152 376 126 376 Q77 376 56 400.5 Q35 425 35 455 L35 479 Q35 510 62.5 534 Q90 558 140 558 L199 558 L199 592 Q199 599 194 602.5 Q189 606 179 606 Q170 606 164.5 603.5 Q159 601 159 594 L159 590 Q159 579 153.5 574.5 Q148 570 138 570 L68 570 Q56 570 51 574.5 Q46 579 46 590 Z " />
<glyph glyph-name="ordmasculine" unicode="&#xba;" horiz-adv-x="374" d="M38 476 L38 587 Q38 633 77 660.5 Q116 688 187 688 Q257 688 296.5 660.5 Q336 633 336 587 L336 476 Q336 430 296.5 403 Q257 376 187 376 Q116 376 77 403 Q38 430 38 476 Z M214 486 L214 579 Q214 591 205 594 Q196 597 187 597 Q178 597 168.5 594 Q159 591 159 579 L159 486 Q159 473 168.5 469.5 Q178 466 187 466 Q196 466 205 469.5 Q214 473 214 486 Z " />
<glyph glyph-name="Omega" unicode="&#x2126;" horiz-adv-x="410" d="M62 323 Q62 381 104 423.5 Q146 466 204 466 Q262 466 304.5 423.5 Q347 381 347 323 Q347 265 304.5 223 Q262 181 204 181 Q146 181 104 223 Q62 265 62 323 Z M83 323 Q83 272 118 237 Q153 202 204 202 Q254 202 290 237 Q326 272 326 323 Q326 373 290 409 Q254 445 204 445 Q153 445 118 409 Q83 373 83 323 Z " />
<glyph glyph-name="ae" unicode="&#xe6;" horiz-adv-x="781" d="M741 352 L741 241 Q741 227 734.5 220.5 Q728 214 714 214 L471 214 L471 154 Q471 132 485.5 121 Q500 110 531 110 Q562 110 577 121 Q592 132 592 154 L592 155 Q592 171 598.5 177.5 Q605 184 621 184 L707 184 Q723 184 729.5 177.5 Q736 171 736 155 L736 148 Q736 77 690 34.5 Q644 -8 531 -8 Q464 -8 419 7 Q374 22 349 50 Q325 32 281 12 Q237 -8 180 -8 Q105 -8 69 31.5 Q33 71 33 120 L33 163 Q33 214 74 253 Q115 292 193 292 L315 292 L315 351 Q315 372 301.5 382.5 Q288 393 258 393 Q227 393 212.5 384 Q198 375 198 352 L198 345 Q198 329 191.5 322.5 Q185 316 169 316 L78 316 Q62 316 55.5 322.5 Q49 329 49 345 L49 357 Q49 428 100 468 Q151 508 261 508 Q308 508 340 497 Q372 486 391 468 Q414 485 448 496.5 Q482 508 531 508 Q644 508 692.5 465.5 Q741 423 741 352 Z M471 345 L471 319 L592 319 L592 345 Q592 367 577 378.5 Q562 390 531 390 Q500 390 485.5 378.5 Q471 367 471 345 Z M223 116 Q248 116 273 128.5 Q298 141 315 153 L315 186 L223 186 Q201 186 195 176 Q189 166 189 155 L189 142 Q189 125 200.5 120.5 Q212 116 223 116 Z " />
<glyph glyph-name="oslash" unicode="&#xf8;" horiz-adv-x="538" d="M200 339 L200 183 L304 379 Q297 381 288 382 Q279 383 269 383 Q238 383 219 373.5 Q200 364 200 339 Z M269 117 Q300 117 319 127 Q338 137 338 162 L338 294 L245 119 Q250 118 256 117.5 Q262 117 269 117 Z M138 -37 L106 -37 Q93 -37 93.5 -26.5 Q94 -16 99 -7 L115 24 Q78 44 59 76 Q40 108 40 148 L40 352 Q40 423 98 465.5 Q156 508 269 508 Q297 508 321.5 505 Q346 502 367 497 L373 509 Q379 520 387 529.5 Q395 539 409 539 L444 539 Q457 539 458 530 Q459 521 452 509 L432 471 Q465 451 481.5 420.5 Q498 390 498 352 L498 148 Q498 77 440 34.5 Q382 -8 269 -8 Q245 -8 223 -6 Q201 -4 182 0 L178 -7 Q170 -23 162 -30 Q154 -37 138 -37 Z " />
<glyph glyph-name="questiondown" unicode="&#xbf;" horiz-adv-x="528" d="M216 388 L216 471 Q216 487 222 493.5 Q228 500 244 500 L352 500 Q368 500 374.5 493.5 Q381 487 381 471 L381 388 Q381 372 374.5 365 Q368 358 352 358 L244 358 Q228 358 222 365 Q216 372 216 388 Z M381 281 L381 216 Q381 176 363 158.5 Q345 141 320 128 L217 76 Q205 70 195 59 Q185 48 185 23 L185 9 Q185 -25 208 -40.5 Q231 -56 266 -56 Q301 -56 323.5 -40.5 Q346 -25 346 9 L346 45 Q346 61 352 68 Q358 75 374 75 L477 75 Q493 75 499.5 68 Q506 61 506 45 L506 -17 Q506 -81 453 -134.5 Q400 -188 266 -188 Q132 -188 77 -134.5 Q22 -81 22 -17 L22 17 Q22 94 53.5 131 Q85 168 119 183 L178 209 Q201 219 208.5 228 Q216 237 216 259 L216 281 Q216 297 222 303.5 Q228 310 244 310 L352 310 Q368 310 374.5 303.5 Q381 297 381 281 Z " />
<glyph glyph-name="exclamdown" unicode="&#xa1;" horiz-adv-x="264" d="M51 388 L51 471 Q51 487 57 493.5 Q63 500 79 500 L187 500 Q203 500 209.5 493.5 Q216 487 216 471 L216 388 Q216 372 209.5 365 Q203 358 187 358 L79 358 Q63 358 57 365 Q51 372 51 388 Z M49 110 L65 280 Q66 296 71.5 303 Q77 310 93 310 L170 310 Q186 310 192 303 Q198 296 199 280 L215 110 L215 -150 Q215 -166 208.5 -173 Q202 -180 186 -180 L77 -180 Q61 -180 55 -173 Q49 -166 49 -150 L49 110 Z " />
<glyph glyph-name="logicalnot" unicode="&#xac;" horiz-adv-x="334" d="M36 323 Q36 377 74.5 416 Q113 455 167 455 Q221 455 260 416 Q299 377 299 323 Q299 269 260 230.5 Q221 192 167 192 Q113 192 74.5 230.5 Q36 269 36 323 Z " />
<glyph glyph-name="radical" unicode="&#x221a;" horiz-adv-x="410" d="M110 455 L300 455 Q319 455 327.5 446.5 Q336 438 336 419 L336 229 Q336 210 327.5 201.5 Q319 193 300 193 L110 193 Q91 193 82.5 201.5 Q74 210 74 229 L74 419 Q74 438 82.5 446.5 Q91 455 110 455 Z M300 434 L110 434 Q103 434 98.5 430 Q94 426 94 419 L94 229 Q94 222 98.5 217.5 Q103 213 110 213 L300 213 Q307 213 311 217.5 Q315 222 315 229 L315 419 Q315 426 311 430 Q307 434 300 434 Z " />
<glyph glyph-name="florin" unicode="&#x192;" horiz-adv-x="443" d="M402 578 L378 578 Q347 578 328.5 568.5 Q310 559 307 534 L297 442 L358 442 Q374 442 381 436 Q388 430 388 414 L388 346 Q388 330 381 323.5 Q374 317 358 317 L285 317 L247 -54 Q240 -125 178.5 -167.5 Q117 -210 4 -210 L-6 -210 Q-22 -210 -29 -203.5 Q-36 -197 -36 -181 L-36 -110 Q-36 -94 -29 -87 Q-22 -80 -6 -80 L17 -80 Q48 -80 67 -70.5 Q86 -61 88 -36 L124 317 L77 317 Q61 317 54.5 323.5 Q48 330 48 346 L48 413 Q48 429 54.5 435.5 Q61 442 77 442 L137 442 L148 552 Q155 623 216.5 665.5 Q278 708 391 708 L402 708 Q418 708 425 701.5 Q432 695 432 679 L432 608 Q432 592 425 585 Q418 578 402 578 Z " />
<glyph glyph-name="approxequal" unicode="&#x2248;" horiz-adv-x="506" d="M462 445 L457 399 Q452 349 425.5 325 Q399 301 368 301 Q349 301 331 306 Q313 311 303 315 L214 356 Q203 361 196 363 Q189 365 183 365 Q170 365 165 359.5 Q160 354 160 341 L160 334 Q160 318 151 313 Q142 308 128 308 L76 308 Q61 308 56 317 Q51 326 52 342 L57 398 Q61 447 89 467 Q117 487 145 487 Q158 487 175.5 484 Q193 481 206 475 L294 436 Q307 430 316 427.5 Q325 425 333 425 Q340 425 346.5 429.5 Q353 434 353 445 L353 453 Q353 469 361.5 474 Q370 479 385 479 L437 479 Q453 479 458 470 Q463 461 462 445 Z M462 243 L457 197 Q452 147 425.5 123 Q399 99 368 99 Q349 99 331 104 Q313 109 303 113 L214 154 Q203 159 196 161 Q189 163 183 163 Q170 163 165 157.5 Q160 152 160 139 L160 132 Q160 116 151 111 Q142 106 128 106 L76 106 Q61 106 56 115 Q51 124 52 140 L57 196 Q61 245 89 265 Q117 285 145 285 Q158 285 175.5 282 Q193 279 206 273 L294 234 Q307 228 316 225.5 Q325 223 333 223 Q340 223 346.5 227.5 Q353 232 353 243 L353 251 Q353 267 361.5 272 Q370 277 385 277 L437 277 Q453 277 458 268 Q463 259 462 243 Z " />
<glyph glyph-name="increment" unicode="&#x2206;" horiz-adv-x="410" d="M110 445 L300 445 Q313 445 319.5 438.5 Q326 432 326 419 L326 229 Q326 216 319.5 209.5 Q313 203 300 203 L110 203 Q97 203 90.5 209.5 Q84 216 84 229 L84 419 Q84 432 90.5 438.5 Q97 445 110 445 Z " />
<glyph glyph-name="guillemotleft" unicode="&#xab;" horiz-adv-x="581" d="M505 304 L415 245 L505 187 Q516 180 525.5 171 Q535 162 535 146 L535 46 Q535 30 525 24 Q515 18 505 25 L316 156 Q307 162 298 172 Q289 182 289 196 L289 295 Q289 309 297.5 318.5 Q306 328 316 335 L505 466 Q517 474 526 467.5 Q535 461 535 445 L535 345 Q535 329 526 320.5 Q517 312 505 304 Z M249 304 L159 245 L249 187 Q260 180 269.5 171 Q279 162 279 146 L279 46 Q279 30 269 24 Q259 18 249 25 L60 156 Q51 162 42 172 Q33 182 33 196 L33 295 Q33 309 41.5 318.5 Q50 328 60 335 L249 466 Q261 474 270 467.5 Q279 461 279 445 L279 345 Q279 329 270 320.5 Q261 312 249 304 Z " />
<glyph glyph-name="guillemotright" unicode="&#xbb;" horiz-adv-x="582" d="M333 194 L423 253 L333 311 Q322 318 312.5 327 Q303 336 303 352 L303 452 Q303 468 313 474 Q323 480 333 473 L522 342 Q531 336 540 326 Q549 316 549 302 L549 203 Q549 189 540.5 179.5 Q532 170 522 163 L333 32 Q321 24 312 30.5 Q303 37 303 53 L303 153 Q303 169 312 177.5 Q321 186 333 194 Z M77 194 L167 253 L77 311 Q66 318 56.5 327 Q47 336 47 352 L47 452 Q47 468 57 474 Q67 480 77 473 L266 342 Q275 336 284 326 Q293 316 293 302 L293 203 Q293 189 284.5 179.5 Q276 170 266 163 L77 32 Q65 24 56 30.5 Q47 37 47 53 L47 153 Q47 169 56 177.5 Q65 186 77 194 Z " />
<glyph glyph-name="ellipsis" unicode="&#x2026;" horiz-adv-x="746" d="M207 112 L207 29 Q207 13 201 6.5 Q195 0 179 0 L73 0 Q57 0 50.5 6.5 Q44 13 44 29 L44 112 Q44 128 50.5 135 Q57 142 73 142 L179 142 Q195 142 201 135 Q207 128 207 112 Z M702 112 L702 29 Q702 13 696 6.5 Q690 0 674 0 L568 0 Q552 0 545.5 6.5 Q539 13 539 29 L539 112 Q539 128 545.5 135 Q552 142 568 142 L674 142 Q690 142 696 135 Q702 128 702 112 Z M455 112 L455 29 Q455 13 449 6.5 Q443 0 427 0 L321 0 Q305 0 298.5 6.5 Q292 13 292 29 L292 112 Q292 128 298.5 135 Q305 142 321 142 L427 142 Q443 142 449 135 Q455 128 455 112 Z " />
<glyph glyph-name="Agrave" unicode="&#xc0;" horiz-adv-x="566" d="M329 256 L315 310 Q302 358 295 417.5 Q288 477 284 520 Q280 482 271 417 Q262 352 250 310 L235 256 L329 256 Z M233 680 L341 680 Q357 680 365.5 672.5 Q374 665 378 650 L559 30 Q563 16 558 8 Q553 0 537 0 L426 0 Q410 0 402.5 8 Q395 16 391 30 L365 126 L199 126 L173 30 Q169 16 161.5 8 Q154 0 138 0 L37 0 Q21 0 16 8 Q11 16 15 30 L196 650 Q200 665 208.5 672.5 Q217 680 233 680 Z M210 747 L141 848 Q132 861 136 869.5 Q140 878 156 878 L263 878 Q279 878 288.5 869.5 Q298 861 304 848 L344 756 Q351 740 346 733.5 Q341 727 328 727 L249 727 Q233 727 223.5 733.5 Q214 740 210 747 Z " />
<glyph glyph-name="Atilde" unicode="&#xc3;" horiz-adv-x="566" d="M329 256 L315 310 Q302 358 295 417.5 Q288 477 284 520 Q280 482 271 417 Q262 352 250 310 L235 256 L329 256 Z M233 680 L341 680 Q357 680 365.5 672.5 Q374 665 378 650 L559 30 Q563 16 558 8 Q553 0 537 0 L426 0 Q410 0 402.5 8 Q395 16 391 30 L365 126 L199 126 L173 30 Q169 16 161.5 8 Q154 0 138 0 L37 0 Q21 0 16 8 Q11 16 15 30 L196 650 Q200 665 208.5 672.5 Q217 680 233 680 Z M338 847 Q345 847 350.5 850.5 Q356 854 357 860 L358 864 Q362 879 368.5 884.5 Q375 890 390 890 L442 890 Q458 890 463 881 Q468 872 467 856 L463 811 Q459 773 435 754 Q411 735 379 735 Q354 735 339 738 Q324 741 310 745 L267 759 Q254 763 246 766.5 Q238 770 231 770 Q224 770 218.5 766.5 Q213 763 212 757 L211 753 Q207 737 200 732 Q193 727 179 727 L126 727 Q111 727 106 736.5 Q101 746 102 761 L108 810 Q112 845 139 865.5 Q166 886 202 886 Q219 886 234 882.5 Q249 879 260 875 L302 859 Q313 855 322 851 Q331 847 338 847 Z " />
<glyph glyph-name="Otilde" unicode="&#xd5;" horiz-adv-x="611" d="M50 163 L50 517 Q50 581 107.5 634.5 Q165 688 305 688 Q445 688 503 634.5 Q561 581 561 517 L561 163 Q561 99 503 45.5 Q445 -8 305 -8 Q165 -8 107.5 45.5 Q50 99 50 163 Z M396 192 L396 488 Q396 522 369 537.5 Q342 553 305 553 Q268 553 241.5 537.5 Q215 522 215 488 L215 192 Q215 158 241.5 142.5 Q268 127 305 127 Q342 127 369 142.5 Q396 158 396 192 Z M361 847 Q368 847 373.5 850.5 Q379 854 380 860 L381 864 Q385 879 391.5 884.5 Q398 890 413 890 L465 890 Q481 890 486 881 Q491 872 490 856 L486 811 Q482 773 458 754 Q434 735 402 735 Q377 735 362 738 Q347 741 333 745 L290 759 Q277 763 269 766.5 Q261 770 254 770 Q247 770 241.5 766.5 Q236 763 235 757 L234 753 Q230 737 223 732 Q216 727 202 727 L149 727 Q134 727 129 736.5 Q124 746 125 761 L131 810 Q135 845 162 865.5 Q189 886 225 886 Q242 886 257 882.5 Q272 879 283 875 L325 859 Q336 855 345 851 Q354 847 361 847 Z " />
<glyph glyph-name="OE" unicode="&#x152;" horiz-adv-x="842" d="M396 192 L396 488 Q396 522 369 537.5 Q342 553 305 553 Q268 553 241.5 537.5 Q215 522 215 488 L215 192 Q215 158 241.5 142.5 Q268 127 305 127 Q342 127 369 142.5 Q396 158 396 192 Z M425 0 Q416 0 410 2.5 Q404 5 401 9 Q381 1 357 -3.5 Q333 -8 305 -8 Q165 -8 107.5 45.5 Q50 99 50 163 L50 517 Q50 581 107.5 634.5 Q165 688 305 688 Q333 688 357 683.5 Q381 679 401 671 Q404 675 410 677.5 Q416 680 425 680 L767 680 Q783 680 790 674 Q797 668 797 652 L797 574 Q797 558 790 551.5 Q783 545 767 545 L561 545 L561 415 L751 415 Q767 415 774 409 Q781 403 781 387 L781 314 Q781 298 774 291.5 Q767 285 751 285 L561 285 L561 135 L777 135 Q793 135 800 129 Q807 123 807 107 L807 29 Q807 13 800 6.5 Q793 0 777 0 L425 0 Z " />
<glyph glyph-name="oe" unicode="&#x153;" horiz-adv-x="804" d="M554 -8 Q507 -8 470.5 0 Q434 8 408 22 Q385 8 350.5 0 Q316 -8 269 -8 Q156 -8 98 34.5 Q40 77 40 148 L40 352 Q40 423 98 465.5 Q156 508 269 508 Q316 508 350.5 500 Q385 492 408 478 Q434 492 470.5 500 Q507 508 554 508 Q667 508 715.5 465.5 Q764 423 764 352 L764 241 Q764 227 757.5 220.5 Q751 214 737 214 L494 214 L494 154 Q494 132 508.5 121 Q523 110 554 110 Q585 110 600 121 Q615 132 615 154 L615 155 Q615 171 621.5 177.5 Q628 184 644 184 L730 184 Q746 184 752.5 177.5 Q759 171 759 155 L759 148 Q759 77 713 34.5 Q667 -8 554 -8 Z M494 345 L494 319 L615 319 L615 345 Q615 367 600 378.5 Q585 390 554 390 Q523 390 508.5 378.5 Q494 367 494 345 Z M338 162 L338 339 Q338 364 319 373.5 Q300 383 269 383 Q238 383 219 373.5 Q200 364 200 339 L200 162 Q200 137 219 127 Q238 117 269 117 Q300 117 319 127 Q338 137 338 162 Z " />
<glyph glyph-name="endash" unicode="&#x2013;" horiz-adv-x="529" d="M81 353 L448 353 Q464 353 471 347 Q478 341 478 325 L478 252 Q478 236 471 229.5 Q464 223 448 223 L81 223 Q65 223 58 229.5 Q51 236 51 252 L51 325 Q51 341 58 347 Q65 353 81 353 Z " />
<glyph glyph-name="emdash" unicode="&#x2014;" horiz-adv-x="840" d="M81 353 L759 353 Q775 353 782 347 Q789 341 789 325 L789 252 Q789 236 782 229.5 Q775 223 759 223 L81 223 Q65 223 58 229.5 Q51 236 51 252 L51 325 Q51 341 58 347 Q65 353 81 353 Z " />
<glyph glyph-name="quotedblleft" unicode="&#x201c;" horiz-adv-x="527" d="M444 594 L444 524 Q444 508 437.5 501 Q431 494 415 494 L309 494 Q293 494 287 501 Q281 508 281 524 L281 603 Q281 663 323 703.5 Q365 744 446 763 Q461 767 469.5 763 Q478 759 483 743 L507 675 Q512 660 507 651 Q502 642 487 638 Q462 631 453 620.5 Q444 610 444 594 Z M198 594 L198 524 Q198 508 191.5 501 Q185 494 169 494 L63 494 Q47 494 41 501 Q35 508 35 524 L35 603 Q35 663 77 703.5 Q119 744 200 763 Q215 767 223.5 763 Q232 759 237 743 L261 675 Q266 660 261 651 Q256 642 241 638 Q216 631 207 620.5 Q198 610 198 594 Z " />
<glyph glyph-name="quotedblright" unicode="&#x201d;" horiz-adv-x="523" d="M90 663 L90 733 Q90 749 96.5 756 Q103 763 119 763 L225 763 Q241 763 247 756 Q253 749 253 733 L253 654 Q253 594 211 553.5 Q169 513 88 494 Q73 490 64.5 494 Q56 498 51 514 L27 582 Q22 597 27 606 Q32 615 47 619 Q72 626 81 636.5 Q90 647 90 663 Z M336 663 L336 733 Q336 749 342.5 756 Q349 763 365 763 L471 763 Q487 763 493 756 Q499 749 499 733 L499 654 Q499 594 457 553.5 Q415 513 334 494 Q319 490 310.5 494 Q302 498 297 514 L273 582 Q268 597 273 606 Q278 615 293 619 Q318 626 327 636.5 Q336 647 336 663 Z " />
<glyph glyph-name="quoteleft" unicode="&#x2018;" horiz-adv-x="281" d="M198 594 L198 524 Q198 508 191.5 501 Q185 494 169 494 L63 494 Q47 494 41 501 Q35 508 35 524 L35 603 Q35 663 77 703.5 Q119 744 200 763 Q215 767 223.5 763 Q232 759 237 743 L261 675 Q266 660 261 651 Q256 642 241 638 Q216 631 207 620.5 Q198 610 198 594 Z " />
<glyph glyph-name="quoteright" unicode="&#x2019;" horiz-adv-x="277" d="M90 663 L90 733 Q90 749 96.5 756 Q103 763 119 763 L225 763 Q241 763 247 756 Q253 749 253 733 L253 654 Q253 594 211 553.5 Q169 513 88 494 Q73 490 64.5 494 Q56 498 51 514 L27 582 Q22 597 27 606 Q32 615 47 619 Q72 626 81 636.5 Q90 647 90 663 Z " />
<glyph glyph-name="divide" unicode="&#xf7;" horiz-adv-x="535" d="M349 512 L349 429 Q349 413 343 406.5 Q337 400 321 400 L215 400 Q199 400 192.5 406.5 Q186 413 186 429 L186 512 Q186 528 192.5 535 Q199 542 215 542 L321 542 Q337 542 343 535 Q349 528 349 512 Z M59 353 L476 353 Q492 353 499 347 Q506 341 506 325 L506 252 Q506 236 499 229.5 Q492 223 476 223 L59 223 Q43 223 36 229.5 Q29 236 29 252 L29 325 Q29 341 36 347 Q43 353 59 353 Z M349 146 L349 63 Q349 47 343 40.5 Q337 34 321 34 L215 34 Q199 34 192.5 40.5 Q186 47 186 63 L186 146 Q186 162 192.5 169 Q199 176 215 176 L321 176 Q337 176 343 169 Q349 162 349 146 Z " />
<glyph glyph-name="lozenge" unicode="&#x25ca;" horiz-adv-x="410" d="M52 342 L187 477 Q191 481 196 483.5 Q201 486 205 486 Q209 486 214 483.5 Q219 481 223 477 L358 342 Q362 338 364.5 333 Q367 328 367 324 Q367 320 364.5 315 Q362 310 358 306 L223 171 Q219 167 214 164.5 Q209 162 205 162 Q201 162 196 164.5 Q191 167 187 171 L52 306 Q48 310 45.5 315 Q43 320 43 324 Q43 328 45.5 333 Q48 338 52 342 Z " />
<glyph glyph-name="ydieresis" unicode="&#xff;" horiz-adv-x="495" d="M177 470 L234 289 Q241 267 245.5 242 Q250 217 252 192 Q259 221 265.5 246.5 Q272 272 276 284 L338 470 Q342 484 348.5 492 Q355 500 371 500 L464 500 Q480 500 489 492.5 Q498 485 493 470 L276 -169 Q272 -180 265.5 -189.5 Q259 -199 243 -199 L169 -199 Q153 -199 144.5 -191.5 Q136 -184 140 -169 L183 -17 L13 470 Q8 485 17 492.5 Q26 500 42 500 L144 500 Q160 500 166.5 491.5 Q173 483 177 470 Z M385 678 L385 586 Q385 570 379 563.5 Q373 557 357 557 L297 557 Q281 557 274.5 563.5 Q268 570 268 586 L268 678 Q268 694 274.5 701 Q281 708 297 708 L357 708 Q373 708 379 701 Q385 694 385 678 Z M230 678 L230 586 Q230 570 224 563.5 Q218 557 202 557 L142 557 Q126 557 119.5 563.5 Q113 570 113 586 L113 678 Q113 694 119.5 701 Q126 708 142 708 L202 708 Q218 708 224 701 Q230 694 230 678 Z " />
<glyph glyph-name="Ydieresis" unicode="&#x178;" horiz-adv-x="556" d="M197 650 L268 451 Q271 443 276 426.5 Q281 410 285 391 Q291 411 296 427 Q301 443 305 451 L389 650 Q394 663 401 671.5 Q408 680 424 680 L530 680 Q546 680 552.5 672 Q559 664 552 650 L368 252 L368 30 Q368 14 362 7 Q356 0 340 0 L232 0 Q216 0 209.5 7 Q203 14 203 30 L203 232 L18 650 Q12 663 17.5 671.5 Q23 680 39 680 L161 680 Q177 680 185 671.5 Q193 663 197 650 Z M415 848 L415 756 Q415 740 409 733.5 Q403 727 387 727 L327 727 Q311 727 304.5 733.5 Q298 740 298 756 L298 848 Q298 864 304.5 871 Q311 878 327 878 L387 878 Q403 878 409 871 Q415 864 415 848 Z M260 848 L260 756 Q260 740 254 733.5 Q248 727 232 727 L172 727 Q156 727 149.5 733.5 Q143 740 143 756 L143 848 Q143 864 149.5 871 Q156 878 172 878 L232 878 Q248 878 254 871 Q260 864 260 848 Z " />
<glyph glyph-name="fraction" unicode="&#x2044;" horiz-adv-x="161" d="M317 658 L-18 22 Q-26 6 -35.5 -1 Q-45 -8 -61 -8 L-141 -8 Q-154 -8 -156.5 2.5 Q-159 13 -155 22 L180 658 Q186 670 196.5 679 Q207 688 223 688 L303 688 Q316 688 320 679 Q324 670 317 658 Z " />
<glyph glyph-name="currency" unicode="&#xa4;" horiz-adv-x="614" d="M368 297 L368 384 Q368 406 351.5 414 Q335 422 308 422 Q281 422 264.5 414 Q248 406 248 384 L248 297 Q248 275 264.5 266.5 Q281 258 308 258 Q335 258 351.5 266.5 Q368 275 368 297 Z M132 84 Q121 74 111.5 72.5 Q102 71 91 82 L50 122 Q39 133 40 142.5 Q41 152 51 163 L120 233 Q115 244 112 257.5 Q109 271 109 285 L109 395 Q109 409 112 422.5 Q115 436 120 447 L51 517 Q41 528 40 537.5 Q39 547 50 558 L91 598 Q102 609 111.5 607.5 Q121 606 132 596 L210 518 Q231 525 255.5 528 Q280 531 308 531 Q336 531 360.5 528 Q385 525 406 518 L484 596 Q495 606 504.5 607.5 Q514 609 525 598 L566 558 Q577 547 576 537.5 Q575 528 565 517 L496 448 Q501 436 504 422.5 Q507 409 507 395 L507 285 Q507 271 504 257.5 Q501 244 496 233 L565 163 Q575 152 576 142.5 Q577 133 566 122 L525 82 Q514 71 504.5 72.5 Q495 74 484 84 L405 162 Q385 156 360.5 153 Q336 150 308 150 Q280 150 255.5 153 Q231 156 211 162 L132 84 Z " />
<glyph glyph-name="guilsinglleft" unicode="&#x2039;" horiz-adv-x="325" d="M249 304 L159 245 L249 187 Q260 180 269.5 171 Q279 162 279 146 L279 46 Q279 30 269 24 Q259 18 249 25 L60 156 Q51 162 42 172 Q33 182 33 196 L33 295 Q33 309 41.5 318.5 Q50 328 60 335 L249 466 Q261 474 270 467.5 Q279 461 279 445 L279 345 Q279 329 270 320.5 Q261 312 249 304 Z " />
<glyph glyph-name="guilsinglright" unicode="&#x203a;" horiz-adv-x="325" d="M166 245 L76 304 Q64 312 55 320.5 Q46 329 46 345 L46 445 Q46 461 55 467.5 Q64 474 76 466 L265 335 Q275 328 283.5 318.5 Q292 309 292 295 L292 196 Q292 182 283 172 Q274 162 265 156 L76 25 Q66 18 56 24 Q46 30 46 46 L46 146 Q46 162 55.5 171 Q65 180 76 187 L166 245 Z " />
<glyph glyph-name="fi" unicode="&#xfb01;" horiz-adv-x="615" d="M566 470 L566 30 Q566 14 560 7 Q554 0 538 0 L435 0 Q419 0 412.5 7 Q406 14 406 30 L406 373 L253 373 L253 30 Q253 14 247 7 Q241 0 225 0 L122 0 Q106 0 99.5 7 Q93 14 93 30 L93 373 L43 373 Q27 373 20.5 379.5 Q14 386 14 402 L14 463 Q14 479 20.5 484.5 Q27 490 43 492 L92 498 L93 498 L93 543 Q93 614 150 656.5 Q207 699 320 699 L536 699 Q552 699 559 692.5 Q566 686 566 670 L566 599 Q566 583 559 576 Q552 569 536 569 L320 569 Q289 569 271 559.5 Q253 550 253 525 L253 498 L536 498 Q552 498 559 492 Q566 486 566 470 Z " />
<glyph glyph-name="fl" unicode="&#xfb02;" horiz-adv-x="615" d="M566 670 L566 30 Q566 14 560 7 Q554 0 538 0 L435 0 Q419 0 412.5 7 Q406 14 406 30 L406 569 L320 569 Q289 569 271 559.5 Q253 550 253 525 L253 498 L324 498 Q340 498 347 492 Q354 486 354 470 L354 402 Q354 386 347 379.5 Q340 373 324 373 L253 373 L253 30 Q253 14 247 7 Q241 0 225 0 L122 0 Q106 0 99.5 7 Q93 14 93 30 L93 373 L43 373 Q27 373 20.5 379.5 Q14 386 14 402 L14 463 Q14 479 20.5 484.5 Q27 490 43 492 L92 498 L93 498 L93 543 Q93 614 150 656.5 Q207 699 320 699 L536 699 Q552 699 559 692.5 Q566 686 566 670 Z " />
<glyph glyph-name="daggerdbl" unicode="&#x2021;" horiz-adv-x="650" d="M405 669 L405 30 Q405 14 399 7 Q393 0 377 0 L274 0 Q258 0 251.5 7 Q245 14 245 30 L245 669 Q245 685 251.5 692 Q258 699 274 699 L377 699 Q393 699 399 692 Q405 685 405 669 Z M465 520 L597 520 Q613 520 620 514 Q627 508 627 492 L627 419 Q627 403 620 396.5 Q613 390 597 390 L465 390 Q449 390 442 396.5 Q435 403 435 419 L435 492 Q435 508 442 514 Q449 520 465 520 Z M53 520 L185 520 Q201 520 208 514 Q215 508 215 492 L215 419 Q215 403 208 396.5 Q201 390 185 390 L53 390 Q37 390 30 396.5 Q23 403 23 419 L23 492 Q23 508 30 514 Q37 520 53 520 Z M465 305 L597 305 Q613 305 620 299 Q627 293 627 277 L627 204 Q627 188 620 181.5 Q613 175 597 175 L465 175 Q449 175 442 181.5 Q435 188 435 204 L435 277 Q435 293 442 299 Q449 305 465 305 Z M53 305 L185 305 Q201 305 208 299 Q215 293 215 277 L215 204 Q215 188 208 181.5 Q201 175 185 175 L53 175 Q37 175 30 181.5 Q23 188 23 204 L23 277 Q23 293 30 299 Q37 305 53 305 Z " />
<glyph glyph-name="middot" unicode="&#xb7;" horiz-adv-x="265" d="M214 323 L214 240 Q214 224 208 217.5 Q202 211 186 211 L80 211 Q64 211 57.5 217.5 Q51 224 51 240 L51 323 Q51 339 57.5 346 Q64 353 80 353 L186 353 Q202 353 208 346 Q214 339 214 323 Z " />
<glyph glyph-name="quotesinglbase" unicode="&#x201a;" horiz-adv-x="258" d="M66 42 L66 112 Q66 128 72.5 135 Q79 142 95 142 L201 142 Q217 142 223 135 Q229 128 229 112 L229 33 Q229 -27 187 -67.5 Q145 -108 64 -127 Q49 -131 40.5 -127 Q32 -123 27 -107 L3 -39 Q-2 -24 3 -15 Q8 -6 23 -2 Q48 5 57 15.5 Q66 26 66 42 Z " />
<glyph glyph-name="quotedblbase" unicode="&#x201e;" horiz-adv-x="504" d="M66 42 L66 112 Q66 128 72.5 135 Q79 142 95 142 L201 142 Q217 142 223 135 Q229 128 229 112 L229 33 Q229 -27 187 -67.5 Q145 -108 64 -127 Q49 -131 40.5 -127 Q32 -123 27 -107 L3 -39 Q-2 -24 3 -15 Q8 -6 23 -2 Q48 5 57 15.5 Q66 26 66 42 Z M312 42 L312 112 Q312 128 318.5 135 Q325 142 341 142 L447 142 Q463 142 469 135 Q475 128 475 112 L475 33 Q475 -27 433 -67.5 Q391 -108 310 -127 Q295 -131 286.5 -127 Q278 -123 273 -107 L249 -39 Q244 -24 249 -15 Q254 -6 269 -2 Q294 5 303 15.5 Q312 26 312 42 Z " />
<glyph glyph-name="perthousand" unicode="&#x2030;" horiz-adv-x="1182" d="M648 658 L313 22 Q305 6 295.5 -1 Q286 -8 270 -8 L190 -8 Q177 -8 174.5 2.5 Q172 13 176 22 L511 658 Q517 670 527.5 679 Q538 688 554 688 L634 688 Q647 688 651 679 Q655 670 648 658 Z M27 425 L27 581 Q27 618 62 651 Q97 684 179 684 Q260 684 295 651 Q330 618 330 581 L330 425 Q330 388 295 355 Q260 322 179 322 Q97 322 62 355 Q27 388 27 425 Z M213 444 L213 562 Q213 580 201.5 586 Q190 592 179 592 Q167 592 155.5 586 Q144 580 144 562 L144 444 Q144 426 155.5 420 Q167 414 179 414 Q190 414 201.5 420 Q213 426 213 444 Z M853 99 L853 255 Q853 292 888 325 Q923 358 1005 358 Q1086 358 1121 325 Q1156 292 1156 255 L1156 99 Q1156 62 1121 29 Q1086 -4 1005 -4 Q923 -4 888 29 Q853 62 853 99 Z M497 99 L497 255 Q497 292 532 325 Q567 358 649 358 Q730 358 765 325 Q800 292 800 255 L800 99 Q800 62 765 29 Q730 -4 649 -4 Q567 -4 532 29 Q497 62 497 99 Z M1039 118 L1039 236 Q1039 254 1027.5 260 Q1016 266 1005 266 Q993 266 981.5 260 Q970 254 970 236 L970 118 Q970 100 981.5 94 Q993 88 1005 88 Q1016 88 1027.5 94 Q1039 100 1039 118 Z M683 118 L683 236 Q683 254 671.5 260 Q660 266 649 266 Q637 266 625.5 260 Q614 254 614 236 L614 118 Q614 100 625.5 94 Q637 88 649 88 Q660 88 671.5 94 Q683 100 683 118 Z " />
<glyph glyph-name="Acircumflex" unicode="&#xc2;" horiz-adv-x="566" d="M329 256 L315 310 Q302 358 295 417.5 Q288 477 284 520 Q280 482 271 417 Q262 352 250 310 L235 256 L329 256 Z M233 680 L341 680 Q357 680 365.5 672.5 Q374 665 378 650 L559 30 Q563 16 558 8 Q553 0 537 0 L426 0 Q410 0 402.5 8 Q395 16 391 30 L365 126 L199 126 L173 30 Q169 16 161.5 8 Q154 0 138 0 L37 0 Q21 0 16 8 Q11 16 15 30 L196 650 Q200 665 208.5 672.5 Q217 680 233 680 Z M286 784 L274 756 Q270 746 259.5 736.5 Q249 727 233 727 L155 727 Q139 727 134.5 735.5 Q130 744 139 756 L210 848 Q220 861 230.5 869.5 Q241 878 257 878 L315 878 Q331 878 341.5 869.5 Q352 861 362 848 L433 756 Q442 744 437.5 735.5 Q433 727 417 727 L339 727 Q323 727 313 736 Q303 745 298 756 L286 784 Z " />
<glyph glyph-name="Ecircumflex" unicode="&#xca;" horiz-adv-x="506" d="M441 0 L89 0 Q73 0 66.5 7 Q60 14 60 30 L60 650 Q60 666 66.5 673 Q73 680 89 680 L431 680 Q447 680 454 674 Q461 668 461 652 L461 574 Q461 558 454 551.5 Q447 545 431 545 L225 545 L225 415 L415 415 Q431 415 438 409 Q445 403 445 387 L445 314 Q445 298 438 291.5 Q431 285 415 285 L225 285 L225 135 L441 135 Q457 135 464 129 Q471 123 471 107 L471 29 Q471 13 464 6.5 Q457 0 441 0 Z M259 784 L247 756 Q243 746 232.5 736.5 Q222 727 206 727 L128 727 Q112 727 107.5 735.5 Q103 744 112 756 L183 848 Q193 861 203.5 869.5 Q214 878 230 878 L288 878 Q304 878 314.5 869.5 Q325 861 335 848 L406 756 Q415 744 410.5 735.5 Q406 727 390 727 L312 727 Q296 727 286 736 Q276 745 271 756 L259 784 Z " />
<glyph glyph-name="Aacute" unicode="&#xc1;" horiz-adv-x="566" d="M329 256 L315 310 Q302 358 295 417.5 Q288 477 284 520 Q280 482 271 417 Q262 352 250 310 L235 256 L329 256 Z M233 680 L341 680 Q357 680 365.5 672.5 Q374 665 378 650 L559 30 Q563 16 558 8 Q553 0 537 0 L426 0 Q410 0 402.5 8 Q395 16 391 30 L365 126 L199 126 L173 30 Q169 16 161.5 8 Q154 0 138 0 L37 0 Q21 0 16 8 Q11 16 15 30 L196 650 Q200 665 208.5 672.5 Q217 680 233 680 Z M437 848 L368 747 Q364 740 354.5 733.5 Q345 727 329 727 L250 727 Q237 727 232 733.5 Q227 740 234 756 L274 848 Q280 861 289.5 869.5 Q299 878 315 878 L422 878 Q438 878 442 869.5 Q446 861 437 848 Z " />
<glyph glyph-name="Edieresis" unicode="&#xcb;" horiz-adv-x="506" d="M441 0 L89 0 Q73 0 66.5 7 Q60 14 60 30 L60 650 Q60 666 66.5 673 Q73 680 89 680 L431 680 Q447 680 454 674 Q461 668 461 652 L461 574 Q461 558 454 551.5 Q447 545 431 545 L225 545 L225 415 L415 415 Q431 415 438 409 Q445 403 445 387 L445 314 Q445 298 438 291.5 Q431 285 415 285 L225 285 L225 135 L441 135 Q457 135 464 129 Q471 123 471 107 L471 29 Q471 13 464 6.5 Q457 0 441 0 Z M393 848 L393 756 Q393 740 387 733.5 Q381 727 365 727 L305 727 Q289 727 282.5 733.5 Q276 740 276 756 L276 848 Q276 864 282.5 871 Q289 878 305 878 L365 878 Q381 878 387 871 Q393 864 393 848 Z M238 848 L238 756 Q238 740 232 733.5 Q226 727 210 727 L150 727 Q134 727 127.5 733.5 Q121 740 121 756 L121 848 Q121 864 127.5 871 Q134 878 150 878 L210 878 Q226 878 232 871 Q238 864 238 848 Z " />
<glyph glyph-name="Egrave" unicode="&#xc8;" horiz-adv-x="506" d="M441 0 L89 0 Q73 0 66.5 7 Q60 14 60 30 L60 650 Q60 666 66.5 673 Q73 680 89 680 L431 680 Q447 680 454 674 Q461 668 461 652 L461 574 Q461 558 454 551.5 Q447 545 431 545 L225 545 L225 415 L415 415 Q431 415 438 409 Q445 403 445 387 L445 314 Q445 298 438 291.5 Q431 285 415 285 L225 285 L225 135 L441 135 Q457 135 464 129 Q471 123 471 107 L471 29 Q471 13 464 6.5 Q457 0 441 0 Z M187 747 L118 848 Q109 861 113 869.5 Q117 878 133 878 L240 878 Q256 878 265.5 869.5 Q275 861 281 848 L321 756 Q328 740 323 733.5 Q318 727 305 727 L226 727 Q210 727 200.5 733.5 Q191 740 187 747 Z " />
<glyph glyph-name="Iacute" unicode="&#xcd;" horiz-adv-x="285" d="M225 650 L225 30 Q225 14 219 7 Q213 0 197 0 L89 0 Q73 0 66.5 7 Q60 14 60 30 L60 650 Q60 666 66.5 673 Q73 680 89 680 L197 680 Q213 680 219 673 Q225 666 225 650 Z M289 848 L220 747 Q216 740 206.5 733.5 Q197 727 181 727 L102 727 Q89 727 84 733.5 Q79 740 86 756 L126 848 Q132 861 141.5 869.5 Q151 878 167 878 L274 878 Q290 878 294 869.5 Q298 861 289 848 Z " />
<glyph glyph-name="Icircumflex" unicode="&#xce;" horiz-adv-x="285" d="M225 650 L225 30 Q225 14 219 7 Q213 0 197 0 L89 0 Q73 0 66.5 7 Q60 14 60 30 L60 650 Q60 666 66.5 673 Q73 680 89 680 L197 680 Q213 680 219 673 Q225 666 225 650 Z M148 784 L136 756 Q132 746 121.5 736.5 Q111 727 95 727 L17 727 Q1 727 -3.5 735.5 Q-8 744 1 756 L72 848 Q82 861 92.5 869.5 Q103 878 119 878 L177 878 Q193 878 203.5 869.5 Q214 861 224 848 L295 756 Q304 744 299.5 735.5 Q295 727 279 727 L201 727 Q185 727 175 736 Q165 745 160 756 L148 784 Z " />
<glyph glyph-name="Idieresis" unicode="&#xcf;" horiz-adv-x="285" d="M225 650 L225 30 Q225 14 219 7 Q213 0 197 0 L89 0 Q73 0 66.5 7 Q60 14 60 30 L60 650 Q60 666 66.5 673 Q73 680 89 680 L197 680 Q213 680 219 673 Q225 666 225 650 Z M278 848 L278 756 Q278 740 272 733.5 Q266 727 250 727 L190 727 Q174 727 167.5 733.5 Q161 740 161 756 L161 848 Q161 864 167.5 871 Q174 878 190 878 L250 878 Q266 878 272 871 Q278 864 278 848 Z M123 848 L123 756 Q123 740 117 733.5 Q111 727 95 727 L35 727 Q19 727 12.5 733.5 Q6 740 6 756 L6 848 Q6 864 12.5 871 Q19 878 35 878 L95 878 Q111 878 117 871 Q123 864 123 848 Z " />
<glyph glyph-name="Igrave" unicode="&#xcc;" horiz-adv-x="285" d="M225 650 L225 30 Q225 14 219 7 Q213 0 197 0 L89 0 Q73 0 66.5 7 Q60 14 60 30 L60 650 Q60 666 66.5 673 Q73 680 89 680 L197 680 Q213 680 219 673 Q225 666 225 650 Z M69 747 L0 848 Q-9 861 -5 869.5 Q-1 878 15 878 L122 878 Q138 878 147.5 869.5 Q157 861 163 848 L203 756 Q210 740 205 733.5 Q200 727 187 727 L108 727 Q92 727 82.5 733.5 Q73 740 69 747 Z " />
<glyph glyph-name="Oacute" unicode="&#xd3;" horiz-adv-x="611" d="M50 163 L50 517 Q50 581 107.5 634.5 Q165 688 305 688 Q445 688 503 634.5 Q561 581 561 517 L561 163 Q561 99 503 45.5 Q445 -8 305 -8 Q165 -8 107.5 45.5 Q50 99 50 163 Z M396 192 L396 488 Q396 522 369 537.5 Q342 553 305 553 Q268 553 241.5 537.5 Q215 522 215 488 L215 192 Q215 158 241.5 142.5 Q268 127 305 127 Q342 127 369 142.5 Q396 158 396 192 Z M443 848 L374 747 Q370 740 360.5 733.5 Q351 727 335 727 L256 727 Q243 727 238 733.5 Q233 740 240 756 L280 848 Q286 861 295.5 869.5 Q305 878 321 878 L428 878 Q444 878 448 869.5 Q452 861 443 848 Z " />
<glyph glyph-name="Ocircumflex" unicode="&#xd4;" horiz-adv-x="611" d="M50 163 L50 517 Q50 581 107.5 634.5 Q165 688 305 688 Q445 688 503 634.5 Q561 581 561 517 L561 163 Q561 99 503 45.5 Q445 -8 305 -8 Q165 -8 107.5 45.5 Q50 99 50 163 Z M396 192 L396 488 Q396 522 369 537.5 Q342 553 305 553 Q268 553 241.5 537.5 Q215 522 215 488 L215 192 Q215 158 241.5 142.5 Q268 127 305 127 Q342 127 369 142.5 Q396 158 396 192 Z M311 784 L299 756 Q295 746 284.5 736.5 Q274 727 258 727 L180 727 Q164 727 159.5 735.5 Q155 744 164 756 L235 848 Q245 861 255.5 869.5 Q266 878 282 878 L340 878 Q356 878 366.5 869.5 Q377 861 387 848 L458 756 Q467 744 462.5 735.5 Q458 727 442 727 L364 727 Q348 727 338 736 Q328 745 323 756 L311 784 Z " />
<glyph glyph-name="apple" unicode="&#xf8ff;" horiz-adv-x="1471" d="M64 529 L64 537 L1402 537 L1402 529 L64 529 Z M1208 332 L1179 330 L1179 334 Q1179 339 1181 346.5 Q1183 354 1191 354 L1208 354 L1205 384 Q1207 385 1217.5 388.5 Q1228 392 1237 392 Q1241 392 1244.5 390 Q1248 388 1248 384 L1248 355 L1295 355 L1295 352 Q1295 346 1293 338.5 Q1291 331 1283 331 L1248 331 L1248 241 Q1248 235 1251 230.5 Q1254 226 1264 226 Q1282 226 1302.5 231.5 Q1323 237 1349 237 Q1359 237 1385 232 Q1411 227 1411 213 Q1411 197 1400 191 Q1389 185 1384 185 Q1377 185 1357.5 197 Q1338 209 1313 209 Q1300 209 1281 205 Q1262 201 1237 201 Q1212 201 1211 223.5 Q1210 246 1208 332 Z M1167 258 Q1155 254 1143 253 Q1131 252 1123 252 Q1124 242 1131.5 236 Q1139 230 1149 230 Q1158 230 1166 232.5 Q1174 235 1181 239 Q1185 236 1187 231.5 Q1189 227 1189 223 Q1189 219 1181 209.5 Q1173 200 1142 200 Q1114 200 1098 215 Q1082 230 1082 253 Q1082 278 1099.5 299.5 Q1117 321 1151 321 Q1172 321 1182 310.5 Q1192 300 1192 290 Q1192 278 1186 270 Q1180 262 1167 258 Z M844 258 Q832 254 820 253 Q808 252 800 252 Q801 242 808.5 236 Q816 230 826 230 Q835 230 843 232.5 Q851 235 858 239 Q862 236 864 231.5 Q866 227 866 223 Q866 219 858 209.5 Q850 200 819 200 Q791 200 775 215 Q759 230 759 253 Q759 278 776.5 299.5 Q794 321 828 321 Q849 321 859 310.5 Q869 300 869 290 Q869 278 863 270 Q857 262 844 258 Z M145 258 Q133 254 121 253 Q109 252 101 252 Q102 242 109.5 236 Q117 230 127 230 Q136 230 144 232.5 Q152 235 159 239 Q163 236 165 231.5 Q167 227 167 223 Q167 219 159 209.5 Q151 200 120 200 Q92 200 76 215 Q60 230 60 253 Q60 278 77.5 299.5 Q95 321 129 321 Q150 321 160 310.5 Q170 300 170 290 Q170 278 164 270 Q158 262 145 258 Z M1066 289 L1066 240 L1068 208 Q1066 207 1055.5 203.5 Q1045 200 1037 200 Q1033 200 1029.5 202 Q1026 204 1026 208 L1026 275 Q1026 278 1025 284 Q1024 290 1018 290 Q1011 290 1001.5 272.5 Q992 255 992 242 L995 208 Q993 207 982.5 203.5 Q972 200 963 200 Q959 200 955.5 202 Q952 204 952 208 L952 277 L949 313 Q951 314 961.5 317.5 Q972 321 981 321 Q985 321 988.5 318.5 Q992 316 992 312 L992 272 Q996 282 1007 301.5 Q1018 321 1037 321 Q1053 321 1059.5 311.5 Q1066 302 1066 289 Z M375 289 L375 240 L378 208 Q376 207 365.5 203.5 Q355 200 347 200 Q343 200 339.5 202 Q336 204 336 208 L336 274 Q336 278 335 284 Q334 290 328 290 Q322 290 311.5 272.5 Q301 255 302 242 L304 208 Q302 207 291.5 203.5 Q281 200 273 200 Q269 200 265.5 202 Q262 204 262 208 L262 274 Q262 278 261 284 Q260 290 254 290 Q247 290 237.5 272.5 Q228 255 228 242 L231 208 Q229 207 218.5 203.5 Q208 200 199 200 Q195 200 191.5 202 Q188 204 188 208 L188 277 L185 313 Q187 314 197.5 317.5 Q208 321 217 321 Q221 321 224.5 318.5 Q228 316 228 312 L228 272 Q231 282 242.5 301.5 Q254 321 273 321 Q289 321 295.5 311.5 Q302 302 302 289 L302 272 Q305 282 316 301.5 Q327 321 347 321 Q363 321 369 311.5 Q375 302 375 289 Z M799 264 Q812 264 824 269 Q836 274 836 285 Q836 288 834 293 Q832 298 823 298 Q813 298 806.5 287 Q800 276 799 264 Z M1122 264 Q1135 264 1147 269 Q1159 274 1159 285 Q1159 288 1157 293 Q1155 298 1146 298 Q1136 298 1129.5 287 Q1123 276 1122 264 Z M100 264 Q113 264 125 269 Q137 274 137 285 Q137 288 135 293 Q133 298 124 298 Q114 298 107.5 287 Q101 276 100 264 Z M659 219 Q675 221 689.5 231.5 Q704 242 704 270 Q704 277 701 283.5 Q698 290 691 290 Q677 290 668 269.5 Q659 249 659 242 L659 219 Z M909 250 Q919 250 927 243 Q935 236 935 226 Q935 216 927 209.5 Q919 203 909 203 Q899 203 891.5 209.5 Q884 216 884 226 Q884 236 891.5 243 Q899 250 909 250 Z M706 320 Q722 320 734 307 Q746 294 746 269 Q746 240 725.5 220.5 Q705 201 659 201 L659 161 L662 129 Q660 128 649.5 124.5 Q639 121 630 121 Q626 121 622.5 123 Q619 125 619 129 L619 204 L594 201 L594 198 Q594 170 580 144.5 Q566 119 526 119 Q503 119 494 130.5 Q485 142 485 153 Q485 178 509 189.5 Q533 201 555 206 L555 248 Q551 238 540 219 Q529 200 509 200 Q493 200 487 209 Q481 218 481 231 L481 234 Q475 224 462.5 212.5 Q450 201 428 201 Q415 201 407 209.5 Q399 218 399 231 L399 332 L370 330 L370 334 Q370 339 372 346.5 Q374 354 382 354 L399 354 L396 384 Q398 385 408.5 388.5 Q419 392 428 392 Q432 392 435.5 390 Q439 388 439 384 L439 355 L486 355 L486 352 Q486 346 484 338.5 Q482 331 474 331 L439 331 L439 245 Q439 239 441.5 234 Q444 229 452 229 Q460 229 470.5 236.5 Q481 244 481 255 L481 280 L478 313 Q480 314 490.5 317.5 Q501 321 510 321 Q514 321 517.5 318.5 Q521 316 521 312 L521 246 Q521 242 522 236.5 Q523 231 528 231 Q535 231 545 248.5 Q555 266 554 279 L552 313 Q554 314 564.5 317.5 Q575 321 583 321 Q587 321 590.5 318.5 Q594 316 594 312 L594 213 L619 216 L619 277 L616 313 Q618 314 628.5 317.5 Q639 321 648 321 Q652 321 655.5 318.5 Q659 316 659 312 L659 272 Q663 282 674 301 Q685 320 706 320 Z M554 194 Q544 192 528.5 184.5 Q513 177 513 162 Q513 155 517.5 151.5 Q522 148 527 148 Q543 148 548 163.5 Q553 179 554 194 Z M64 0 L64 8 L1402 8 L1402 0 L64 0 Z " />
<glyph glyph-name="Ograve" unicode="&#xd2;" horiz-adv-x="611" d="M50 163 L50 517 Q50 581 107.5 634.5 Q165 688 305 688 Q445 688 503 634.5 Q561 581 561 517 L561 163 Q561 99 503 45.5 Q445 -8 305 -8 Q165 -8 107.5 45.5 Q50 99 50 163 Z M396 192 L396 488 Q396 522 369 537.5 Q342 553 305 553 Q268 553 241.5 537.5 Q215 522 215 488 L215 192 Q215 158 241.5 142.5 Q268 127 305 127 Q342 127 369 142.5 Q396 158 396 192 Z M232 747 L163 848 Q154 861 158 869.5 Q162 878 178 878 L285 878 Q301 878 310.5 869.5 Q320 861 326 848 L366 756 Q373 740 368 733.5 Q363 727 350 727 L271 727 Q255 727 245.5 733.5 Q236 740 232 747 Z " />
<glyph glyph-name="Uacute" unicode="&#xda;" horiz-adv-x="625" d="M222 650 L222 192 Q222 158 248.5 142.5 Q275 127 312 127 Q349 127 376 142.5 Q403 158 403 192 L403 650 Q403 666 409.5 673 Q416 680 432 680 L540 680 Q556 680 562 673 Q568 666 568 650 L568 163 Q568 99 510 45.5 Q452 -8 312 -8 Q172 -8 114.5 45.5 Q57 99 57 163 L57 650 Q57 666 63.5 673 Q70 680 86 680 L194 680 Q210 680 216 673 Q222 666 222 650 Z M462 848 L393 747 Q389 740 379.5 733.5 Q370 727 354 727 L275 727 Q262 727 257 733.5 Q252 740 259 756 L299 848 Q305 861 314.5 869.5 Q324 878 340 878 L447 878 Q463 878 467 869.5 Q471 861 462 848 Z " />
<glyph glyph-name="Ucircumflex" unicode="&#xdb;" horiz-adv-x="625" d="M222 650 L222 192 Q222 158 248.5 142.5 Q275 127 312 127 Q349 127 376 142.5 Q403 158 403 192 L403 650 Q403 666 409.5 673 Q416 680 432 680 L540 680 Q556 680 562 673 Q568 666 568 650 L568 163 Q568 99 510 45.5 Q452 -8 312 -8 Q172 -8 114.5 45.5 Q57 99 57 163 L57 650 Q57 666 63.5 673 Q70 680 86 680 L194 680 Q210 680 216 673 Q222 666 222 650 Z M318 784 L306 756 Q302 746 291.5 736.5 Q281 727 265 727 L187 727 Q171 727 166.5 735.5 Q162 744 171 756 L242 848 Q252 861 262.5 869.5 Q273 878 289 878 L347 878 Q363 878 373.5 869.5 Q384 861 394 848 L465 756 Q474 744 469.5 735.5 Q465 727 449 727 L371 727 Q355 727 345 736 Q335 745 330 756 L318 784 Z " />
<glyph glyph-name="Ugrave" unicode="&#xd9;" horiz-adv-x="625" d="M222 650 L222 192 Q222 158 248.5 142.5 Q275 127 312 127 Q349 127 376 142.5 Q403 158 403 192 L403 650 Q403 666 409.5 673 Q416 680 432 680 L540 680 Q556 680 562 673 Q568 666 568 650 L568 163 Q568 99 510 45.5 Q452 -8 312 -8 Q172 -8 114.5 45.5 Q57 99 57 163 L57 650 Q57 666 63.5 673 Q70 680 86 680 L194 680 Q210 680 216 673 Q222 666 222 650 Z M247 747 L178 848 Q169 861 173 869.5 Q177 878 193 878 L300 878 Q316 878 325.5 869.5 Q335 861 341 848 L381 756 Q388 740 383 733.5 Q378 727 365 727 L286 727 Q270 727 260.5 733.5 Q251 740 247 747 Z " />
<glyph glyph-name="dotlessi" unicode="&#x131;" horiz-adv-x="258" d="M209 470 L209 30 Q209 14 203 7 Q197 0 181 0 L78 0 Q62 0 55.5 7 Q49 14 49 30 L49 470 Q49 486 55.5 493 Q62 500 78 500 L181 500 Q197 500 203 493 Q209 486 209 470 Z " />
<glyph glyph-name="circumflex" unicode="&#x2c6;" horiz-adv-x="358" d="M182 614 L170 586 Q166 576 155.5 566.5 Q145 557 129 557 L51 557 Q35 557 30.5 565.5 Q26 574 35 586 L106 678 Q116 691 126.5 699.5 Q137 708 153 708 L211 708 Q227 708 237.5 699.5 Q248 691 258 678 L329 586 Q338 574 333.5 565.5 Q329 557 313 557 L235 557 Q219 557 209 566 Q199 575 194 586 L182 614 Z " />
<glyph glyph-name="tilde" unicode="&#x2dc;" horiz-adv-x="402" d="M295 555 Q270 555 255 558 Q240 561 226 565 L183 579 Q170 583 162 586.5 Q154 590 147 590 Q140 590 134.5 586.5 Q129 583 128 577 L127 573 Q123 557 116 552 Q109 547 95 547 L42 547 Q27 547 22 556.5 Q17 566 18 581 L24 630 Q28 665 55 685.5 Q82 706 118 706 Q135 706 150 702.5 Q165 699 176 695 L218 679 Q229 675 238 671 Q247 667 254 667 Q261 667 266.5 670.5 Q272 674 273 680 L274 684 Q278 699 284.5 704.5 Q291 710 306 710 L358 710 Q374 710 379 701 Q384 692 383 676 L379 631 Q375 593 351 574 Q327 555 295 555 Z " />
<glyph glyph-name="overscore" unicode="&#xaf;" horiz-adv-x="401" d="M90 680 L311 680 Q327 680 334 674 Q341 668 341 652 L341 589 Q341 573 334 566.5 Q327 560 311 560 L90 560 Q74 560 67 566.5 Q60 573 60 589 L60 652 Q60 668 67 674 Q74 680 90 680 Z " />
<glyph glyph-name="breve" unicode="&#x2d8;" horiz-adv-x="426" d="M178 686 L178 669 Q178 654 186 645 Q194 636 213 636 Q232 636 240 645 Q248 654 248 669 L248 686 Q248 699 254 704.5 Q260 710 274 710 L335 710 Q349 710 355 704.5 Q361 699 361 686 L361 673 Q361 610 319.5 576.5 Q278 543 209 543 Q140 543 102.5 576.5 Q65 610 65 673 L65 686 Q65 699 71 704.5 Q77 710 91 710 L152 710 Q166 710 172 704.5 Q178 699 178 686 Z " />
<glyph glyph-name="dotaccent" unicode="&#x2d9;" horiz-adv-x="253" d="M208 678 L208 595 Q208 579 202 572.5 Q196 566 180 566 L74 566 Q58 566 51.5 572.5 Q45 579 45 595 L45 678 Q45 694 51.5 701 Q58 708 74 708 L180 708 Q196 708 202 701 Q208 694 208 678 Z " />
<glyph glyph-name="ring" unicode="&#x2da;" horiz-adv-x="350" d="M297 654 L297 620 Q297 589 268 564.5 Q239 540 175 540 Q111 540 82 564.5 Q53 589 53 620 L53 654 Q53 685 82 709.5 Q111 734 175 734 Q239 734 268 709.5 Q297 685 297 654 Z M213 629 L213 645 Q213 661 202 666.5 Q191 672 175 672 Q159 672 148 666.5 Q137 661 137 645 L137 629 Q137 613 148 607 Q159 601 175 601 Q191 601 202 607 Q213 613 213 629 Z " />
<glyph glyph-name="cedilla" unicode="&#xb8;" horiz-adv-x="297" d="M154 -39 L181 -39 Q223 -39 246.5 -59.5 Q270 -80 270 -123 Q270 -168 246.5 -189.5 Q223 -211 181 -211 L56 -211 Q40 -211 33 -204.5 Q26 -198 26 -182 L26 -161 Q26 -145 33 -139 Q40 -133 56 -133 L153 -133 Q159 -133 160.5 -129 Q162 -125 162 -123 Q162 -121 160.5 -117 Q159 -113 153 -113 L72 -113 Q46 -113 39 -101.5 Q32 -90 37 -73 L64 18 Q68 31 75.5 37.5 Q83 44 99 43 L144 40 Q157 39 163.5 30.5 Q170 22 166 6 L154 -39 Z " />
<glyph glyph-name="hungarumlaut" unicode="&#x2dd;" horiz-adv-x="422" d="M214 678 L163 586 Q156 573 148 565 Q140 557 124 557 L49 557 Q33 557 28 565 Q23 573 28 586 L64 678 Q70 692 79 700 Q88 708 104 708 L194 708 Q210 708 214.5 699.5 Q219 691 214 678 Z M396 678 L330 586 Q323 576 312.5 566.5 Q302 557 286 557 L211 557 Q195 557 191.5 565 Q188 573 195 586 L246 678 Q254 692 264.5 700 Q275 708 291 708 L381 708 Q397 708 400 699.5 Q403 691 396 678 Z " />
<glyph glyph-name="ogonek" unicode="&#x2db;" horiz-adv-x="235" d="M188 -179 L120 -179 Q76 -179 46 -156.5 Q16 -134 16 -91 Q16 -60 27.5 -31.5 Q39 -3 64 34 Q71 45 81.5 52.5 Q92 60 105 59 L153 54 Q174 52 178 42 Q182 32 171 22 Q151 3 141 -18 Q131 -39 131 -57 Q131 -73 143 -77.5 Q155 -82 169 -82 L188 -82 Q204 -82 211 -88 Q218 -94 218 -110 L218 -150 Q218 -166 211 -172.5 Q204 -179 188 -179 Z " />
<glyph glyph-name="caron" unicode="&#x2c7;" horiz-adv-x="358" d="M170 679 L182 651 L194 679 Q198 689 208.5 698.5 Q219 708 235 708 L313 708 Q329 708 333.5 699.5 Q338 691 329 679 L258 587 Q248 574 237.5 565.5 Q227 557 211 557 L153 557 Q137 557 126.5 565.5 Q116 574 106 587 L35 679 Q26 691 30.5 699.5 Q35 708 51 708 L129 708 Q145 708 155.5 698.5 Q166 689 170 679 Z " />
<glyph glyph-name="uni00A0" unicode="&#xa0;" horiz-adv-x="180" d="" />
<glyph glyph-name="Amacron" unicode="&#x100;" horiz-adv-x="566" d="M329 256 L315 310 Q302 358 295 417.5 Q288 477 284 520 Q280 482 271 417 Q262 352 250 310 L235 256 L329 256 Z M233 680 L341 680 Q357 680 365.5 672.5 Q374 665 378 650 L559 30 Q563 16 558 8 Q553 0 537 0 L426 0 Q410 0 402.5 8 Q395 16 391 30 L365 126 L199 126 L173 30 Q169 16 161.5 8 Q154 0 138 0 L37 0 Q21 0 16 8 Q11 16 15 30 L196 650 Q200 665 208.5 672.5 Q217 680 233 680 Z M172 860 L393 860 Q409 860 416 854 Q423 848 423 832 L423 769 Q423 753 416 746.5 Q409 740 393 740 L172 740 Q156 740 149 746.5 Q142 753 142 769 L142 832 Q142 848 149 854 Q156 860 172 860 Z " />
<glyph glyph-name="Abreve" unicode="&#x102;" horiz-adv-x="566" d="M329 256 L315 310 Q302 358 295 417.5 Q288 477 284 520 Q280 482 271 417 Q262 352 250 310 L235 256 L329 256 Z M233 680 L341 680 Q357 680 365.5 672.5 Q374 665 378 650 L559 30 Q563 16 558 8 Q553 0 537 0 L426 0 Q410 0 402.5 8 Q395 16 391 30 L365 126 L199 126 L173 30 Q169 16 161.5 8 Q154 0 138 0 L37 0 Q21 0 16 8 Q11 16 15 30 L196 650 Q200 665 208.5 672.5 Q217 680 233 680 Z M248 857 L248 840 Q248 825 256 816 Q264 807 283 807 Q302 807 310 816 Q318 825 318 840 L318 857 Q318 870 324 875.5 Q330 881 344 881 L405 881 Q419 881 425 875.5 Q431 870 431 857 L431 844 Q431 781 389.5 747.5 Q348 714 279 714 Q210 714 172.5 747.5 Q135 781 135 844 L135 857 Q135 870 141 875.5 Q147 881 161 881 L222 881 Q236 881 242 875.5 Q248 870 248 857 Z " />
<glyph glyph-name="Aogonek" unicode="&#x104;" horiz-adv-x="566" d="M231 680 L339 680 Q355 680 363.5 672.5 Q372 665 376 650 L557 30 Q561 16 556 8 Q551 0 535 0 L487 0 Q468 0 459 -16.5 Q450 -33 450 -57 Q450 -69 457 -75.5 Q464 -82 480 -82 L503 -82 Q519 -82 526 -88 Q533 -94 533 -110 L533 -150 Q533 -166 521 -172.5 Q509 -179 493 -179 L430 -179 Q405 -179 368 -163.5 Q331 -148 331 -93 Q331 -76 339 -40 Q347 -4 386 39 L363 126 L197 126 L171 30 Q167 16 159.5 8 Q152 0 136 0 L35 0 Q19 0 14 8 Q9 16 13 30 L194 650 Q198 665 206.5 672.5 Q215 680 231 680 Z M327 256 L313 310 Q301 356 292 431 Q283 506 282 519 Q281 506 270 428 Q259 350 248 310 L233 256 L327 256 Z " />
<glyph glyph-name="Aringacute" unicode="&#x1fa;" horiz-adv-x="566" d="M285 712 Q221 712 192 736.5 Q163 761 163 792 L163 826 Q163 848 177 867.5 Q191 887 221 897 L238 934 Q244 947 253.5 955.5 Q263 964 279 964 L386 964 Q402 964 406.5 955 Q411 946 401 934 L365 890 Q387 879 397 862 Q407 845 407 826 L407 792 Q407 761 378 736.5 Q349 712 285 712 Z M323 801 L323 817 Q323 833 312 838.5 Q301 844 285 844 Q269 844 258 838.5 Q247 833 247 817 L247 801 Q247 785 258 779 Q269 773 285 773 Q301 773 312 779 Q323 785 323 801 Z M327 256 L313 310 Q300 358 293 417.5 Q286 477 282 520 Q278 482 269 417 Q260 352 248 310 L233 256 L327 256 Z M231 680 L339 680 Q355 680 363.5 672.5 Q372 665 376 650 L557 30 Q561 16 556 8 Q551 0 535 0 L424 0 Q408 0 400.5 8 Q393 16 389 30 L363 126 L197 126 L171 30 Q167 16 159.5 8 Q152 0 136 0 L35 0 Q19 0 14 8 Q9 16 13 30 L194 650 Q198 665 206.5 672.5 Q215 680 231 680 Z " />
<glyph glyph-name="Cacute" unicode="&#x106;" horiz-adv-x="576" d="M542 224 L542 163 Q542 99 489 45.5 Q436 -8 296 -8 Q156 -8 103 45.5 Q50 99 50 163 L50 517 Q50 581 103 634.5 Q156 688 296 688 Q436 688 489 634.5 Q542 581 542 517 L542 471 Q542 455 536 448 Q530 441 514 441 L411 441 Q395 441 388.5 448 Q382 455 382 471 L382 488 Q382 522 358.5 537.5 Q335 553 298 553 Q261 553 238 537.5 Q215 522 215 488 L215 192 Q215 158 238 142.5 Q261 127 298 127 Q335 127 358.5 142.5 Q382 158 382 192 L382 224 Q382 240 388.5 247 Q395 254 411 254 L514 254 Q530 254 536 247 Q542 240 542 224 Z M442 848 L373 747 Q369 740 359.5 733.5 Q350 727 334 727 L255 727 Q242 727 237 733.5 Q232 740 239 756 L279 848 Q285 861 294.5 869.5 Q304 878 320 878 L427 878 Q443 878 447 869.5 Q451 861 442 848 Z " />
<glyph glyph-name="Ccircumflex" unicode="&#x108;" horiz-adv-x="576" d="M542 224 L542 163 Q542 99 489 45.5 Q436 -8 296 -8 Q156 -8 103 45.5 Q50 99 50 163 L50 517 Q50 581 103 634.5 Q156 688 296 688 Q436 688 489 634.5 Q542 581 542 517 L542 471 Q542 455 536 448 Q530 441 514 441 L411 441 Q395 441 388.5 448 Q382 455 382 471 L382 488 Q382 522 358.5 537.5 Q335 553 298 553 Q261 553 238 537.5 Q215 522 215 488 L215 192 Q215 158 238 142.5 Q261 127 298 127 Q335 127 358.5 142.5 Q382 158 382 192 L382 224 Q382 240 388.5 247 Q395 254 411 254 L514 254 Q530 254 536 247 Q542 240 542 224 Z M300 784 L288 756 Q284 746 273.5 736.5 Q263 727 247 727 L169 727 Q153 727 148.5 735.5 Q144 744 153 756 L224 848 Q234 861 244.5 869.5 Q255 878 271 878 L329 878 Q345 878 355.5 869.5 Q366 861 376 848 L447 756 Q456 744 451.5 735.5 Q447 727 431 727 L353 727 Q337 727 327 736 Q317 745 312 756 L300 784 Z " />
<glyph glyph-name="Cdotaccent" unicode="&#x10a;" horiz-adv-x="576" d="M542 224 L542 163 Q542 99 489 45.5 Q436 -8 296 -8 Q156 -8 103 45.5 Q50 99 50 163 L50 517 Q50 581 103 634.5 Q156 688 296 688 Q436 688 489 634.5 Q542 581 542 517 L542 471 Q542 455 536 448 Q530 441 514 441 L411 441 Q395 441 388.5 448 Q382 455 382 471 L382 488 Q382 522 358.5 537.5 Q335 553 298 553 Q261 553 238 537.5 Q215 522 215 488 L215 192 Q215 158 238 142.5 Q261 127 298 127 Q335 127 358.5 142.5 Q382 158 382 192 L382 224 Q382 240 388.5 247 Q395 254 411 254 L514 254 Q530 254 536 247 Q542 240 542 224 Z M370 839 L370 756 Q370 740 364 733.5 Q358 727 342 727 L236 727 Q220 727 213.5 733.5 Q207 740 207 756 L207 839 Q207 855 213.5 862 Q220 869 236 869 L342 869 Q358 869 364 862 Q370 855 370 839 Z " />
<glyph glyph-name="Ccaron" unicode="&#x10c;" horiz-adv-x="576" d="M542 224 L542 163 Q542 99 489 45.5 Q436 -8 296 -8 Q156 -8 103 45.5 Q50 99 50 163 L50 517 Q50 581 103 634.5 Q156 688 296 688 Q436 688 489 634.5 Q542 581 542 517 L542 471 Q542 455 536 448 Q530 441 514 441 L411 441 Q395 441 388.5 448 Q382 455 382 471 L382 488 Q382 522 358.5 537.5 Q335 553 298 553 Q261 553 238 537.5 Q215 522 215 488 L215 192 Q215 158 238 142.5 Q261 127 298 127 Q335 127 358.5 142.5 Q382 158 382 192 L382 224 Q382 240 388.5 247 Q395 254 411 254 L514 254 Q530 254 536 247 Q542 240 542 224 Z M282 849 L294 821 L306 849 Q310 859 320.5 868.5 Q331 878 347 878 L425 878 Q441 878 445.5 869.5 Q450 861 441 849 L370 757 Q360 744 349.5 735.5 Q339 727 323 727 L265 727 Q249 727 238.5 735.5 Q228 744 218 757 L147 849 Q138 861 142.5 869.5 Q147 878 163 878 L241 878 Q257 878 267.5 868.5 Q278 859 282 849 Z " />
<glyph glyph-name="Dcaron" unicode="&#x10e;" horiz-adv-x="620" d="M315 0 L85 0 Q72 0 66 7.5 Q60 15 60 30 L60 650 Q60 666 66.5 673 Q73 680 89 680 L315 680 Q455 680 513 626.5 Q571 573 571 509 L571 171 Q571 107 513 53.5 Q455 0 315 0 Z M315 545 L225 545 L225 135 L315 135 Q352 135 379 150.5 Q406 166 406 200 L406 480 Q406 514 379 529.5 Q352 545 315 545 Z M302 849 L314 821 L326 849 Q330 859 340.5 868.5 Q351 878 367 878 L445 878 Q461 878 465.5 869.5 Q470 861 461 849 L390 757 Q380 744 369.5 735.5 Q359 727 343 727 L285 727 Q269 727 258.5 735.5 Q248 744 238 757 L167 849 Q158 861 162.5 869.5 Q167 878 183 878 L261 878 Q277 878 287.5 868.5 Q298 859 302 849 Z " />
<glyph glyph-name="Emacron" unicode="&#x112;" horiz-adv-x="506" d="M441 0 L89 0 Q73 0 66.5 7 Q60 14 60 30 L60 650 Q60 666 66.5 673 Q73 680 89 680 L431 680 Q447 680 454 674 Q461 668 461 652 L461 574 Q461 558 454 551.5 Q447 545 431 545 L225 545 L225 415 L415 415 Q431 415 438 409 Q445 403 445 387 L445 314 Q445 298 438 291.5 Q431 285 415 285 L225 285 L225 135 L441 135 Q457 135 464 129 Q471 123 471 107 L471 29 Q471 13 464 6.5 Q457 0 441 0 Z M147 860 L368 860 Q384 860 391 854 Q398 848 398 832 L398 769 Q398 753 391 746.5 Q384 740 368 740 L147 740 Q131 740 124 746.5 Q117 753 117 769 L117 832 Q117 848 124 854 Q131 860 147 860 Z " />
<glyph glyph-name="Ebreve" unicode="&#x114;" horiz-adv-x="506" d="M441 0 L89 0 Q73 0 66.5 7 Q60 14 60 30 L60 650 Q60 666 66.5 673 Q73 680 89 680 L431 680 Q447 680 454 674 Q461 668 461 652 L461 574 Q461 558 454 551.5 Q447 545 431 545 L225 545 L225 415 L415 415 Q431 415 438 409 Q445 403 445 387 L445 314 Q445 298 438 291.5 Q431 285 415 285 L225 285 L225 135 L441 135 Q457 135 464 129 Q471 123 471 107 L471 29 Q471 13 464 6.5 Q457 0 441 0 Z M222 857 L222 840 Q222 825 230 816 Q238 807 257 807 Q276 807 284 816 Q292 825 292 840 L292 857 Q292 870 298 875.5 Q304 881 318 881 L379 881 Q393 881 399 875.5 Q405 870 405 857 L405 844 Q405 781 363.5 747.5 Q322 714 253 714 Q184 714 146.5 747.5 Q109 781 109 844 L109 857 Q109 870 115 875.5 Q121 881 135 881 L196 881 Q210 881 216 875.5 Q222 870 222 857 Z " />
<glyph glyph-name="Edotaccent" unicode="&#x116;" horiz-adv-x="506" d="M441 0 L89 0 Q73 0 66.5 7 Q60 14 60 30 L60 650 Q60 666 66.5 673 Q73 680 89 680 L431 680 Q447 680 454 674 Q461 668 461 652 L461 574 Q461 558 454 551.5 Q447 545 431 545 L225 545 L225 415 L415 415 Q431 415 438 409 Q445 403 445 387 L445 314 Q445 298 438 291.5 Q431 285 415 285 L225 285 L225 135 L441 135 Q457 135 464 129 Q471 123 471 107 L471 29 Q471 13 464 6.5 Q457 0 441 0 Z M339 839 L339 756 Q339 740 333 733.5 Q327 727 311 727 L205 727 Q189 727 182.5 733.5 Q176 740 176 756 L176 839 Q176 855 182.5 862 Q189 869 205 869 L311 869 Q327 869 333 862 Q339 855 339 839 Z " />
<glyph glyph-name="Eogonek" unicode="&#x118;" horiz-adv-x="506" d="M441 0 L414 0 Q392 0 382.5 -16 Q373 -32 373 -57 Q373 -69 380 -75.5 Q387 -82 403 -82 L426 -82 Q442 -82 449 -88 Q456 -94 456 -110 L456 -150 Q456 -166 444 -172.5 Q432 -179 416 -179 L353 -179 Q328 -179 291 -163.5 Q254 -148 254 -93 Q254 -80 258 -55.5 Q262 -31 280 0 L89 0 Q73 0 66.5 7 Q60 14 60 30 L60 650 Q60 666 66.5 673 Q73 680 89 680 L431 680 Q447 680 454 674 Q461 668 461 652 L461 574 Q461 558 454 551.5 Q447 545 431 545 L225 545 L225 415 L415 415 Q431 415 438 409 Q445 403 445 387 L445 314 Q445 298 438 291.5 Q431 285 415 285 L225 285 L225 135 L441 135 Q457 135 464 129 Q471 123 471 107 L471 29 Q471 13 464 6.5 Q457 0 441 0 Z " />
<glyph glyph-name="Ecaron" unicode="&#x11a;" horiz-adv-x="506" d="M441 0 L89 0 Q73 0 66.5 7 Q60 14 60 30 L60 650 Q60 666 66.5 673 Q73 680 89 680 L431 680 Q447 680 454 674 Q461 668 461 652 L461 574 Q461 558 454 551.5 Q447 545 431 545 L225 545 L225 415 L415 415 Q431 415 438 409 Q445 403 445 387 L445 314 Q445 298 438 291.5 Q431 285 415 285 L225 285 L225 135 L441 135 Q457 135 464 129 Q471 123 471 107 L471 29 Q471 13 464 6.5 Q457 0 441 0 Z M247 849 L259 821 L271 849 Q275 859 285.5 868.5 Q296 878 312 878 L390 878 Q406 878 410.5 869.5 Q415 861 406 849 L335 757 Q325 744 314.5 735.5 Q304 727 288 727 L230 727 Q214 727 203.5 735.5 Q193 744 183 757 L112 849 Q103 861 107.5 869.5 Q112 878 128 878 L206 878 Q222 878 232.5 868.5 Q243 859 247 849 Z " />
<glyph glyph-name="Gcircumflex" unicode="&#x11c;" horiz-adv-x="589" d="M300 370 L512 370 Q528 370 535 364 Q542 358 542 342 L542 163 Q542 99 489 45.5 Q436 -8 296 -8 Q156 -8 103 45.5 Q50 99 50 163 L50 517 Q50 581 103 634.5 Q156 688 296 688 Q436 688 489 634.5 Q542 581 542 517 L542 481 Q542 465 536 458 Q530 451 514 451 L411 451 Q395 451 388.5 458 Q382 465 382 481 L382 488 Q382 522 358.5 537.5 Q335 553 298 553 Q261 553 238 537.5 Q215 522 215 488 L215 192 Q215 158 238 142.5 Q261 127 298 127 Q335 127 358.5 142.5 Q382 158 382 192 L382 235 L300 235 Q284 235 277 241.5 Q270 248 270 264 L270 342 Q270 358 277 364 Q284 370 300 370 Z M299 784 L287 756 Q283 746 272.5 736.5 Q262 727 246 727 L168 727 Q152 727 147.5 735.5 Q143 744 152 756 L223 848 Q233 861 243.5 869.5 Q254 878 270 878 L328 878 Q344 878 354.5 869.5 Q365 861 375 848 L446 756 Q455 744 450.5 735.5 Q446 727 430 727 L352 727 Q336 727 326 736 Q316 745 311 756 L299 784 Z " />
<glyph glyph-name="Gbreve" unicode="&#x11e;" horiz-adv-x="589" d="M300 370 L512 370 Q528 370 535 364 Q542 358 542 342 L542 163 Q542 99 489 45.5 Q436 -8 296 -8 Q156 -8 103 45.5 Q50 99 50 163 L50 517 Q50 581 103 634.5 Q156 688 296 688 Q436 688 489 634.5 Q542 581 542 517 L542 481 Q542 465 536 458 Q530 451 514 451 L411 451 Q395 451 388.5 458 Q382 465 382 481 L382 488 Q382 522 358.5 537.5 Q335 553 298 553 Q261 553 238 537.5 Q215 522 215 488 L215 192 Q215 158 238 142.5 Q261 127 298 127 Q335 127 358.5 142.5 Q382 158 382 192 L382 235 L300 235 Q284 235 277 241.5 Q270 248 270 264 L270 342 Q270 358 277 364 Q284 370 300 370 Z M258 857 L258 840 Q258 825 266 816 Q274 807 293 807 Q312 807 320 816 Q328 825 328 840 L328 857 Q328 870 334 875.5 Q340 881 354 881 L415 881 Q429 881 435 875.5 Q441 870 441 857 L441 844 Q441 781 399.5 747.5 Q358 714 289 714 Q220 714 182.5 747.5 Q145 781 145 844 L145 857 Q145 870 151 875.5 Q157 881 171 881 L232 881 Q246 881 252 875.5 Q258 870 258 857 Z " />
<glyph glyph-name="Gdotaccent" unicode="&#x120;" horiz-adv-x="589" d="M300 370 L512 370 Q528 370 535 364 Q542 358 542 342 L542 163 Q542 99 489 45.5 Q436 -8 296 -8 Q156 -8 103 45.5 Q50 99 50 163 L50 517 Q50 581 103 634.5 Q156 688 296 688 Q436 688 489 634.5 Q542 581 542 517 L542 481 Q542 465 536 458 Q530 451 514 451 L411 451 Q395 451 388.5 458 Q382 465 382 481 L382 488 Q382 522 358.5 537.5 Q335 553 298 553 Q261 553 238 537.5 Q215 522 215 488 L215 192 Q215 158 238 142.5 Q261 127 298 127 Q335 127 358.5 142.5 Q382 158 382 192 L382 235 L300 235 Q284 235 277 241.5 Q270 248 270 264 L270 342 Q270 358 277 364 Q284 370 300 370 Z M375 836 L375 753 Q375 737 369 730.5 Q363 724 347 724 L241 724 Q225 724 218.5 730.5 Q212 737 212 753 L212 836 Q212 852 218.5 859 Q225 866 241 866 L347 866 Q363 866 369 859 Q375 852 375 836 Z " />
<glyph glyph-name="Gcommaaccent" unicode="&#x122;" horiz-adv-x="589" d="M300 370 L512 370 Q528 370 535 364 Q542 358 542 342 L542 163 Q542 99 489 45.5 Q436 -8 296 -8 Q156 -8 103 45.5 Q50 99 50 163 L50 517 Q50 581 103 634.5 Q156 688 296 688 Q436 688 489 634.5 Q542 581 542 517 L542 481 Q542 465 536 458 Q530 451 514 451 L411 451 Q395 451 388.5 458 Q382 465 382 481 L382 488 Q382 522 358.5 537.5 Q335 553 298 553 Q261 553 238 537.5 Q215 522 215 488 L215 192 Q215 158 238 142.5 Q261 127 298 127 Q335 127 358.5 142.5 Q382 158 382 192 L382 235 L300 235 Q284 235 277 241.5 Q270 248 270 264 L270 342 Q270 358 277 364 Q284 370 300 370 Z M236 -112 L236 -80 Q236 -64 242.5 -57 Q249 -50 265 -50 L341 -50 Q357 -50 363 -57 Q369 -64 369 -80 L369 -121 Q369 -154 355.5 -191.5 Q342 -229 321 -261 Q313 -274 303 -276 Q293 -278 282 -276 L225 -263 Q210 -259 207 -248 Q204 -237 210 -224 Q225 -191 230.5 -174.5 Q236 -158 236 -112 Z " />
<glyph glyph-name="Hcircumflex" unicode="&#x124;" horiz-adv-x="631" d="M225 650 L225 412 L406 412 L406 650 Q406 666 412.5 673 Q419 680 435 680 L543 680 Q559 680 565 673 Q571 666 571 650 L571 30 Q571 14 565 7 Q559 0 543 0 L435 0 Q419 0 412.5 7 Q406 14 406 30 L406 277 L225 277 L225 30 Q225 14 219 7 Q213 0 197 0 L89 0 Q73 0 66.5 7 Q60 14 60 30 L60 650 Q60 666 66.5 673 Q73 680 89 680 L197 680 Q213 680 219 673 Q225 666 225 650 Z M321 784 L309 756 Q305 746 294.5 736.5 Q284 727 268 727 L190 727 Q174 727 169.5 735.5 Q165 744 174 756 L245 848 Q255 861 265.5 869.5 Q276 878 292 878 L350 878 Q366 878 376.5 869.5 Q387 861 397 848 L468 756 Q477 744 472.5 735.5 Q468 727 452 727 L374 727 Q358 727 348 736 Q338 745 333 756 L321 784 Z " />
<glyph glyph-name="Itilde" unicode="&#x128;" horiz-adv-x="285" d="M225 650 L225 30 Q225 14 219 7 Q213 0 197 0 L89 0 Q73 0 66.5 7 Q60 14 60 30 L60 650 Q60 666 66.5 673 Q73 680 89 680 L197 680 Q213 680 219 673 Q225 666 225 650 Z M198 847 Q205 847 210.5 850.5 Q216 854 217 860 L218 864 Q222 879 228.5 884.5 Q235 890 250 890 L302 890 Q318 890 323 881 Q328 872 327 856 L323 811 Q319 773 295 754 Q271 735 239 735 Q214 735 199 738 Q184 741 170 745 L127 759 Q114 763 106 766.5 Q98 770 91 770 Q84 770 78.5 766.5 Q73 763 72 757 L71 753 Q67 737 60 732 Q53 727 39 727 L-14 727 Q-29 727 -34 736.5 Q-39 746 -38 761 L-32 810 Q-28 845 -1 865.5 Q26 886 62 886 Q79 886 94 882.5 Q109 879 120 875 L162 859 Q173 855 182 851 Q191 847 198 847 Z " />
<glyph glyph-name="Imacron" unicode="&#x12a;" horiz-adv-x="285" d="M225 650 L225 30 Q225 14 219 7 Q213 0 197 0 L89 0 Q73 0 66.5 7 Q60 14 60 30 L60 650 Q60 666 66.5 673 Q73 680 89 680 L197 680 Q213 680 219 673 Q225 666 225 650 Z M32 860 L253 860 Q269 860 276 854 Q283 848 283 832 L283 769 Q283 753 276 746.5 Q269 740 253 740 L32 740 Q16 740 9 746.5 Q2 753 2 769 L2 832 Q2 848 9 854 Q16 860 32 860 Z " />
<glyph glyph-name="Ibreve" unicode="&#x12c;" horiz-adv-x="285" d="M225 650 L225 30 Q225 14 219 7 Q213 0 197 0 L89 0 Q73 0 66.5 7 Q60 14 60 30 L60 650 Q60 666 66.5 673 Q73 680 89 680 L197 680 Q213 680 219 673 Q225 666 225 650 Z M107 857 L107 840 Q107 825 115 816 Q123 807 142 807 Q161 807 169 816 Q177 825 177 840 L177 857 Q177 870 183 875.5 Q189 881 203 881 L264 881 Q278 881 284 875.5 Q290 870 290 857 L290 844 Q290 781 248.5 747.5 Q207 714 138 714 Q69 714 31.5 747.5 Q-6 781 -6 844 L-6 857 Q-6 870 0 875.5 Q6 881 20 881 L81 881 Q95 881 101 875.5 Q107 870 107 857 Z " />
<glyph glyph-name="Iogonek" unicode="&#x12e;" horiz-adv-x="287" d="M227 650 L227 30 Q227 14 221 7 Q215 0 199 0 L166 0 Q147 0 138 -16.5 Q129 -33 129 -57 Q129 -69 136 -75.5 Q143 -82 159 -82 L182 -82 Q198 -82 205 -88 Q212 -94 212 -110 L212 -150 Q212 -166 200 -172.5 Q188 -179 172 -179 L109 -179 Q84 -179 47 -163.5 Q10 -148 10 -93 Q10 -76 17.5 -41.5 Q25 -7 62 35 L62 650 Q62 666 68.5 673 Q75 680 91 680 L199 680 Q215 680 221 673 Q227 666 227 650 Z " />
<glyph glyph-name="Idot" unicode="&#x130;" horiz-adv-x="285" d="M225 650 L225 30 Q225 14 219 7 Q213 0 197 0 L89 0 Q73 0 66.5 7 Q60 14 60 30 L60 650 Q60 666 66.5 673 Q73 680 89 680 L197 680 Q213 680 219 673 Q225 666 225 650 Z M224 839 L224 756 Q224 740 218 733.5 Q212 727 196 727 L90 727 Q74 727 67.5 733.5 Q61 740 61 756 L61 839 Q61 855 67.5 862 Q74 869 90 869 L196 869 Q212 869 218 862 Q224 855 224 839 Z " />
<glyph glyph-name="Jcircumflex" unicode="&#x134;" horiz-adv-x="527" d="M174 229 L174 192 Q174 158 193.5 142.5 Q213 127 244 127 Q275 127 290 142.5 Q305 158 305 192 L305 650 Q305 666 311.5 673 Q318 680 334 680 L442 680 Q458 680 464 673 Q470 666 470 650 L470 163 Q470 99 422.5 45.5 Q375 -8 244 -8 Q113 -8 62.5 45.5 Q12 99 12 163 L12 229 Q12 245 18.5 252 Q25 259 41 259 L146 259 Q162 259 168 252 Q174 245 174 229 Z M386 784 L374 756 Q370 746 359.5 736.5 Q349 727 333 727 L255 727 Q239 727 234.5 735.5 Q230 744 239 756 L310 848 Q320 861 330.5 869.5 Q341 878 357 878 L415 878 Q431 878 441.5 869.5 Q452 861 462 848 L533 756 Q542 744 537.5 735.5 Q533 727 517 727 L439 727 Q423 727 413 736 Q403 745 398 756 L386 784 Z " />
<glyph glyph-name="Kcommaaccent" unicode="&#x136;" horiz-adv-x="595" d="M374 346 L589 30 Q596 19 593 9.5 Q590 0 574 0 L432 0 Q416 0 406.5 9.5 Q397 19 390 30 L233 275 L225 275 L225 30 Q225 14 219 7 Q213 0 197 0 L89 0 Q73 0 66.5 7 Q60 14 60 30 L60 650 Q60 666 66.5 673 Q73 680 89 680 L197 680 Q213 680 219 673 Q225 666 225 650 L225 395 L233 395 L384 650 Q391 662 403 671 Q415 680 431 680 L550 680 Q566 680 568.5 671 Q571 662 564 650 L374 346 Z M237 -112 L237 -80 Q237 -64 243.5 -57 Q250 -50 266 -50 L342 -50 Q358 -50 364 -57 Q370 -64 370 -80 L370 -121 Q370 -154 356.5 -191.5 Q343 -229 322 -261 Q314 -274 304 -276 Q294 -278 283 -276 L226 -263 Q211 -259 208 -248 Q205 -237 211 -224 Q226 -191 231.5 -174.5 Q237 -158 237 -112 Z " />
<glyph glyph-name="Lacute" unicode="&#x139;" horiz-adv-x="460" d="M225 650 L225 135 L421 135 Q437 135 444 129 Q451 123 451 107 L451 29 Q451 13 444 6.5 Q437 0 421 0 L85 0 Q72 0 66 7.5 Q60 15 60 30 L60 650 Q60 666 66.5 673 Q73 680 89 680 L197 680 Q213 680 219 673 Q225 666 225 650 Z M290 848 L221 747 Q217 740 207.5 733.5 Q198 727 182 727 L103 727 Q90 727 85 733.5 Q80 740 87 756 L127 848 Q133 861 142.5 869.5 Q152 878 168 878 L275 878 Q291 878 295 869.5 Q299 861 290 848 Z " />
<glyph glyph-name="Lcommaaccent" unicode="&#x13b;" horiz-adv-x="460" d="M225 650 L225 135 L421 135 Q437 135 444 129 Q451 123 451 107 L451 29 Q451 13 444 6.5 Q437 0 421 0 L85 0 Q72 0 66 7.5 Q60 15 60 30 L60 650 Q60 666 66.5 673 Q73 680 89 680 L197 680 Q213 680 219 673 Q225 666 225 650 Z M176 -112 L176 -80 Q176 -64 182.5 -57 Q189 -50 205 -50 L281 -50 Q297 -50 303 -57 Q309 -64 309 -80 L309 -121 Q309 -154 295.5 -191.5 Q282 -229 261 -261 Q253 -274 243 -276 Q233 -278 222 -276 L165 -263 Q150 -259 147 -248 Q144 -237 150 -224 Q165 -191 170.5 -174.5 Q176 -158 176 -112 Z " />
<glyph glyph-name="Lcaron" unicode="&#x13d;" horiz-adv-x="469" d="M225 650 L225 135 L421 135 Q437 135 444 129 Q451 123 451 107 L451 29 Q451 13 444 6.5 Q437 0 421 0 L85 0 Q72 0 66 7.5 Q60 15 60 30 L60 650 Q60 666 66.5 673 Q73 680 89 680 L197 680 Q213 680 219 673 Q225 666 225 650 Z M322 690 L322 722 Q322 738 328.5 745 Q335 752 351 752 L427 752 Q443 752 449 745 Q455 738 455 722 L455 681 Q455 648 441.5 610.5 Q428 573 407 541 Q399 528 389 526 Q379 524 368 526 L311 539 Q296 543 293 554 Q290 565 296 578 Q311 611 316.5 627.5 Q322 644 322 690 Z " />
<glyph glyph-name="Nacute" unicode="&#x143;" horiz-adv-x="631" d="M571 650 L571 30 Q571 14 565 7 Q559 0 543 0 L445 0 Q434 0 428 3.5 Q422 7 418 14 L258 280 Q246 300 234.5 324.5 Q223 349 215 370 L215 30 Q215 14 209 7 Q203 0 187 0 L89 0 Q73 0 66.5 7 Q60 14 60 30 L60 650 Q60 666 66.5 673 Q73 680 89 680 L187 680 Q197 680 202.5 677 Q208 674 212 668 L381 385 Q390 369 399.5 348.5 Q409 328 416 310 L416 650 Q416 666 422.5 673 Q429 680 445 680 L543 680 Q559 680 565 673 Q571 666 571 650 Z M467 848 L398 747 Q394 740 384.5 733.5 Q375 727 359 727 L280 727 Q267 727 262 733.5 Q257 740 264 756 L304 848 Q310 861 319.5 869.5 Q329 878 345 878 L452 878 Q468 878 472 869.5 Q476 861 467 848 Z " />
<glyph glyph-name="Ncommaaccent" unicode="&#x145;" horiz-adv-x="631" d="M571 650 L571 30 Q571 14 565 7 Q559 0 543 0 L445 0 Q434 0 428 3.5 Q422 7 418 14 L258 280 Q246 300 234.5 324.5 Q223 349 215 370 L215 30 Q215 14 209 7 Q203 0 187 0 L89 0 Q73 0 66.5 7 Q60 14 60 30 L60 650 Q60 666 66.5 673 Q73 680 89 680 L187 680 Q197 680 202.5 677 Q208 674 212 668 L381 385 Q390 369 399.5 348.5 Q409 328 416 310 L416 650 Q416 666 422.5 673 Q429 680 445 680 L543 680 Q559 680 565 673 Q571 666 571 650 Z M263 -113 L263 -81 Q263 -65 269.5 -58 Q276 -51 292 -51 L368 -51 Q384 -51 390 -58 Q396 -65 396 -81 L396 -122 Q396 -155 382.5 -192.5 Q369 -230 348 -262 Q340 -275 330 -277 Q320 -279 309 -277 L252 -264 Q237 -260 234 -249 Q231 -238 237 -225 Q252 -192 257.5 -175.5 Q263 -159 263 -113 Z " />
<glyph glyph-name="Ncaron" unicode="&#x147;" horiz-adv-x="631" d="M571 650 L571 30 Q571 14 565 7 Q559 0 543 0 L445 0 Q434 0 428 3.5 Q422 7 418 14 L258 280 Q246 300 234.5 324.5 Q223 349 215 370 L215 30 Q215 14 209 7 Q203 0 187 0 L89 0 Q73 0 66.5 7 Q60 14 60 30 L60 650 Q60 666 66.5 673 Q73 680 89 680 L187 680 Q197 680 202.5 677 Q208 674 212 668 L381 385 Q390 369 399.5 348.5 Q409 328 416 310 L416 650 Q416 666 422.5 673 Q429 680 445 680 L543 680 Q559 680 565 673 Q571 666 571 650 Z M309 849 L321 821 L333 849 Q337 859 347.5 868.5 Q358 878 374 878 L452 878 Q468 878 472.5 869.5 Q477 861 468 849 L397 757 Q387 744 376.5 735.5 Q366 727 350 727 L292 727 Q276 727 265.5 735.5 Q255 744 245 757 L174 849 Q165 861 169.5 869.5 Q174 878 190 878 L268 878 Q284 878 294.5 868.5 Q305 859 309 849 Z " />
<glyph glyph-name="Omacron" unicode="&#x14c;" horiz-adv-x="611" d="M50 163 L50 517 Q50 581 107.5 634.5 Q165 688 305 688 Q445 688 503 634.5 Q561 581 561 517 L561 163 Q561 99 503 45.5 Q445 -8 305 -8 Q165 -8 107.5 45.5 Q50 99 50 163 Z M396 192 L396 488 Q396 522 369 537.5 Q342 553 305 553 Q268 553 241.5 537.5 Q215 522 215 488 L215 192 Q215 158 241.5 142.5 Q268 127 305 127 Q342 127 369 142.5 Q396 158 396 192 Z M195 860 L416 860 Q432 860 439 854 Q446 848 446 832 L446 769 Q446 753 439 746.5 Q432 740 416 740 L195 740 Q179 740 172 746.5 Q165 753 165 769 L165 832 Q165 848 172 854 Q179 860 195 860 Z " />
<glyph glyph-name="Obreve" unicode="&#x14e;" horiz-adv-x="611" d="M50 163 L50 517 Q50 581 107.5 634.5 Q165 688 305 688 Q445 688 503 634.5 Q561 581 561 517 L561 163 Q561 99 503 45.5 Q445 -8 305 -8 Q165 -8 107.5 45.5 Q50 99 50 163 Z M396 192 L396 488 Q396 522 369 537.5 Q342 553 305 553 Q268 553 241.5 537.5 Q215 522 215 488 L215 192 Q215 158 241.5 142.5 Q268 127 305 127 Q342 127 369 142.5 Q396 158 396 192 Z M270 857 L270 840 Q270 825 278 816 Q286 807 305 807 Q324 807 332 816 Q340 825 340 840 L340 857 Q340 870 346 875.5 Q352 881 366 881 L427 881 Q441 881 447 875.5 Q453 870 453 857 L453 844 Q453 781 411.5 747.5 Q370 714 301 714 Q232 714 194.5 747.5 Q157 781 157 844 L157 857 Q157 870 163 875.5 Q169 881 183 881 L244 881 Q258 881 264 875.5 Q270 870 270 857 Z " />
<glyph glyph-name="Ohungarumlaut" unicode="&#x150;" horiz-adv-x="611" d="M50 163 L50 517 Q50 581 107.5 634.5 Q165 688 305 688 Q445 688 503 634.5 Q561 581 561 517 L561 163 Q561 99 503 45.5 Q445 -8 305 -8 Q165 -8 107.5 45.5 Q50 99 50 163 Z M396 192 L396 488 Q396 522 369 537.5 Q342 553 305 553 Q268 553 241.5 537.5 Q215 522 215 488 L215 192 Q215 158 241.5 142.5 Q268 127 305 127 Q342 127 369 142.5 Q396 158 396 192 Z M347 848 L296 756 Q289 743 281 735 Q273 727 257 727 L182 727 Q166 727 161 735 Q156 743 161 756 L197 848 Q203 862 212 870 Q221 878 237 878 L327 878 Q343 878 347.5 869.5 Q352 861 347 848 Z M529 848 L463 756 Q456 746 445.5 736.5 Q435 727 419 727 L344 727 Q328 727 324.5 735 Q321 743 328 756 L379 848 Q387 862 397.5 870 Q408 878 424 878 L514 878 Q530 878 533 869.5 Q536 861 529 848 Z " />
<glyph glyph-name="Racute" unicode="&#x154;" horiz-adv-x="598" d="M305 545 L225 545 L225 386 L305 386 Q342 386 369 401.5 Q396 417 396 451 L396 480 Q396 514 369 529.5 Q342 545 305 545 Z M197 0 L89 0 Q73 0 66.5 7 Q60 14 60 30 L60 650 Q60 666 66.5 673 Q73 680 89 680 L305 680 Q445 680 502 626.5 Q559 573 559 509 L559 422 Q559 379 535 339.5 Q511 300 455 276 L553 30 Q558 17 549.5 8.5 Q541 0 525 0 L409 0 Q396 0 389 8 Q382 16 377 30 L291 251 L225 251 L225 30 Q225 14 219 7 Q213 0 197 0 Z M418 848 L349 747 Q345 740 335.5 733.5 Q326 727 310 727 L231 727 Q218 727 213 733.5 Q208 740 215 756 L255 848 Q261 861 270.5 869.5 Q280 878 296 878 L403 878 Q419 878 423 869.5 Q427 861 418 848 Z " />
<glyph glyph-name="Rcommaaccent" unicode="&#x156;" horiz-adv-x="598" d="M305 545 L225 545 L225 386 L305 386 Q342 386 369 401.5 Q396 417 396 451 L396 480 Q396 514 369 529.5 Q342 545 305 545 Z M197 0 L89 0 Q73 0 66.5 7 Q60 14 60 30 L60 650 Q60 666 66.5 673 Q73 680 89 680 L305 680 Q445 680 502 626.5 Q559 573 559 509 L559 422 Q559 379 535 339.5 Q511 300 455 276 L553 30 Q558 17 549.5 8.5 Q541 0 525 0 L409 0 Q396 0 389 8 Q382 16 377 30 L291 251 L225 251 L225 30 Q225 14 219 7 Q213 0 197 0 Z M241 -112 L241 -80 Q241 -64 247.5 -57 Q254 -50 270 -50 L346 -50 Q362 -50 368 -57 Q374 -64 374 -80 L374 -121 Q374 -154 360.5 -191.5 Q347 -229 326 -261 Q318 -274 308 -276 Q298 -278 287 -276 L230 -263 Q215 -259 212 -248 Q209 -237 215 -224 Q230 -191 235.5 -174.5 Q241 -158 241 -112 Z " />
<glyph glyph-name="Rcaron" unicode="&#x158;" horiz-adv-x="598" d="M305 545 L225 545 L225 386 L305 386 Q342 386 369 401.5 Q396 417 396 451 L396 480 Q396 514 369 529.5 Q342 545 305 545 Z M197 0 L89 0 Q73 0 66.5 7 Q60 14 60 30 L60 650 Q60 666 66.5 673 Q73 680 89 680 L305 680 Q445 680 502 626.5 Q559 573 559 509 L559 422 Q559 379 535 339.5 Q511 300 455 276 L553 30 Q558 17 549.5 8.5 Q541 0 525 0 L409 0 Q396 0 389 8 Q382 16 377 30 L291 251 L225 251 L225 30 Q225 14 219 7 Q213 0 197 0 Z M286 849 L298 821 L310 849 Q314 859 324.5 868.5 Q335 878 351 878 L429 878 Q445 878 449.5 869.5 Q454 861 445 849 L374 757 Q364 744 353.5 735.5 Q343 727 327 727 L269 727 Q253 727 242.5 735.5 Q232 744 222 757 L151 849 Q142 861 146.5 869.5 Q151 878 167 878 L245 878 Q261 878 271.5 868.5 Q282 859 286 849 Z " />
<glyph glyph-name="Sacute" unicode="&#x15a;" horiz-adv-x="575" d="M368 480 L368 495 Q368 529 346 543.5 Q324 558 290 558 Q256 558 233.5 543.5 Q211 529 211 495 L211 485 Q211 465 223 455 Q235 445 243 442 L411 385 Q466 366 501 327.5 Q536 289 536 234 L536 163 Q536 99 481 45.5 Q426 -8 286 -8 Q146 -8 91 45.5 Q36 99 36 163 L36 230 Q36 246 42.5 253 Q49 260 65 260 L169 260 Q185 260 191 253 Q197 246 197 230 L197 185 Q197 151 222.5 136.5 Q248 122 285 122 Q322 122 348 136.5 Q374 151 374 185 L374 205 Q374 232 345 247 Q316 262 288 272 L144 326 Q106 340 78.5 378 Q51 416 51 459 L51 517 Q51 581 100.5 634.5 Q150 688 290 688 Q427 688 478 634.5 Q529 581 529 517 L529 480 Q529 464 522.5 457 Q516 450 500 450 L396 450 Q380 450 374 457 Q368 464 368 480 Z M429 848 L360 747 Q356 740 346.5 733.5 Q337 727 321 727 L242 727 Q229 727 224 733.5 Q219 740 226 756 L266 848 Q272 861 281.5 869.5 Q291 878 307 878 L414 878 Q430 878 434 869.5 Q438 861 429 848 Z " />
<glyph glyph-name="Scircumflex" unicode="&#x15c;" horiz-adv-x="575" d="M368 480 L368 495 Q368 529 346 543.5 Q324 558 290 558 Q256 558 233.5 543.5 Q211 529 211 495 L211 485 Q211 465 223 455 Q235 445 243 442 L411 385 Q466 366 501 327.5 Q536 289 536 234 L536 163 Q536 99 481 45.5 Q426 -8 286 -8 Q146 -8 91 45.5 Q36 99 36 163 L36 230 Q36 246 42.5 253 Q49 260 65 260 L169 260 Q185 260 191 253 Q197 246 197 230 L197 185 Q197 151 222.5 136.5 Q248 122 285 122 Q322 122 348 136.5 Q374 151 374 185 L374 205 Q374 232 345 247 Q316 262 288 272 L144 326 Q106 340 78.5 378 Q51 416 51 459 L51 517 Q51 581 100.5 634.5 Q150 688 290 688 Q427 688 478 634.5 Q529 581 529 517 L529 480 Q529 464 522.5 457 Q516 450 500 450 L396 450 Q380 450 374 457 Q368 464 368 480 Z M294 784 L282 756 Q278 746 267.5 736.5 Q257 727 241 727 L163 727 Q147 727 142.5 735.5 Q138 744 147 756 L218 848 Q228 861 238.5 869.5 Q249 878 265 878 L323 878 Q339 878 349.5 869.5 Q360 861 370 848 L441 756 Q450 744 445.5 735.5 Q441 727 425 727 L347 727 Q331 727 321 736 Q311 745 306 756 L294 784 Z " />
<glyph glyph-name="Scedilla" unicode="&#x15e;" horiz-adv-x="575" d="M360 -211 L235 -211 Q219 -211 212 -204.5 Q205 -198 205 -182 L205 -161 Q205 -145 212 -139 Q219 -133 235 -133 L332 -133 Q338 -133 339.5 -129 Q341 -125 341 -123 Q341 -121 339.5 -117 Q338 -113 332 -113 L251 -113 Q225 -113 218 -101.5 Q211 -90 216 -73 L236 -6 Q126 4 81 54.5 Q36 105 36 163 L36 230 Q36 246 42.5 253 Q49 260 65 260 L169 260 Q185 260 191 253 Q197 246 197 230 L197 185 Q197 151 222.5 136.5 Q248 122 285 122 Q322 122 348 136.5 Q374 151 374 185 L374 205 Q374 232 345 247 Q316 262 288 272 L144 326 Q106 340 78.5 378 Q51 416 51 459 L51 517 Q51 581 100.5 634.5 Q150 688 290 688 Q427 688 478 634.5 Q529 581 529 517 L529 480 Q529 464 522.5 457 Q516 450 500 450 L396 450 Q380 450 374 457 Q368 464 368 480 L368 495 Q368 529 346 543.5 Q324 558 290 558 Q256 558 233.5 543.5 Q211 529 211 495 L211 485 Q211 465 223 455 Q235 445 243 442 L411 385 Q466 366 501 327.5 Q536 289 536 234 L536 163 Q536 106 492.5 56 Q449 6 342 -5 L333 -39 L360 -39 Q402 -39 425.5 -59.5 Q449 -80 449 -123 Q449 -168 425.5 -189.5 Q402 -211 360 -211 Z " />
<glyph glyph-name="Scommaaccent" unicode="&#x218;" horiz-adv-x="575" d="M368 480 L368 495 Q368 529 346 543.5 Q324 558 290 558 Q256 558 233.5 543.5 Q211 529 211 495 L211 485 Q211 465 223 455 Q235 445 243 442 L411 385 Q466 366 501 327.5 Q536 289 536 234 L536 163 Q536 99 481 45.5 Q426 -8 286 -8 Q146 -8 91 45.5 Q36 99 36 163 L36 230 Q36 246 42.5 253 Q49 260 65 260 L169 260 Q185 260 191 253 Q197 246 197 230 L197 185 Q197 151 222.5 136.5 Q248 122 285 122 Q322 122 348 136.5 Q374 151 374 185 L374 205 Q374 232 345 247 Q316 262 288 272 L144 326 Q106 340 78.5 378 Q51 416 51 459 L51 517 Q51 581 100.5 634.5 Q150 688 290 688 Q427 688 478 634.5 Q529 581 529 517 L529 480 Q529 464 522.5 457 Q516 450 500 450 L396 450 Q380 450 374 457 Q368 464 368 480 Z M225 -113 L225 -81 Q225 -65 231.5 -58 Q238 -51 254 -51 L330 -51 Q346 -51 352 -58 Q358 -65 358 -81 L358 -122 Q358 -155 344.5 -192.5 Q331 -230 310 -262 Q302 -275 292 -277 Q282 -279 271 -277 L214 -264 Q199 -260 196 -249 Q193 -238 199 -225 Q214 -192 219.5 -175.5 Q225 -159 225 -113 Z " />
<glyph glyph-name="Tcommaaccent" unicode="&#x162;" horiz-adv-x="499" d="M39 680 L460 680 Q476 680 483 674 Q490 668 490 652 L490 574 Q490 558 483 551.5 Q476 545 460 545 L332 545 L332 30 Q332 14 326 7 Q320 0 304 0 L196 0 Q180 0 173.5 7 Q167 14 167 30 L167 545 L39 545 Q23 545 16 551.5 Q9 558 9 574 L9 652 Q9 668 16 674 Q23 680 39 680 Z M187 -112 L187 -80 Q187 -64 193.5 -57 Q200 -50 216 -50 L292 -50 Q308 -50 314 -57 Q320 -64 320 -80 L320 -121 Q320 -154 306.5 -191.5 Q293 -229 272 -261 Q264 -274 254 -276 Q244 -278 233 -276 L176 -263 Q161 -259 158 -248 Q155 -237 161 -224 Q176 -191 181.5 -174.5 Q187 -158 187 -112 Z " />
<glyph glyph-name="Tcaron" unicode="&#x164;" horiz-adv-x="499" d="M39 680 L460 680 Q476 680 483 674 Q490 668 490 652 L490 574 Q490 558 483 551.5 Q476 545 460 545 L332 545 L332 30 Q332 14 326 7 Q320 0 304 0 L196 0 Q180 0 173.5 7 Q167 14 167 30 L167 545 L39 545 Q23 545 16 551.5 Q9 558 9 574 L9 652 Q9 668 16 674 Q23 680 39 680 Z M243 849 L255 821 L267 849 Q271 859 281.5 868.5 Q292 878 308 878 L386 878 Q402 878 406.5 869.5 Q411 861 402 849 L331 757 Q321 744 310.5 735.5 Q300 727 284 727 L226 727 Q210 727 199.5 735.5 Q189 744 179 757 L108 849 Q99 861 103.5 869.5 Q108 878 124 878 L202 878 Q218 878 228.5 868.5 Q239 859 243 849 Z " />
<glyph glyph-name="Utilde" unicode="&#x168;" horiz-adv-x="625" d="M222 650 L222 192 Q222 158 248.5 142.5 Q275 127 312 127 Q349 127 376 142.5 Q403 158 403 192 L403 650 Q403 666 409.5 673 Q416 680 432 680 L540 680 Q556 680 562 673 Q568 666 568 650 L568 163 Q568 99 510 45.5 Q452 -8 312 -8 Q172 -8 114.5 45.5 Q57 99 57 163 L57 650 Q57 666 63.5 673 Q70 680 86 680 L194 680 Q210 680 216 673 Q222 666 222 650 Z M368 847 Q375 847 380.5 850.5 Q386 854 387 860 L388 864 Q392 879 398.5 884.5 Q405 890 420 890 L472 890 Q488 890 493 881 Q498 872 497 856 L493 811 Q489 773 465 754 Q441 735 409 735 Q384 735 369 738 Q354 741 340 745 L297 759 Q284 763 276 766.5 Q268 770 261 770 Q254 770 248.5 766.5 Q243 763 242 757 L241 753 Q237 737 230 732 Q223 727 209 727 L156 727 Q141 727 136 736.5 Q131 746 132 761 L138 810 Q142 845 169 865.5 Q196 886 232 886 Q249 886 264 882.5 Q279 879 290 875 L332 859 Q343 855 352 851 Q361 847 368 847 Z " />
<glyph glyph-name="Umacron" unicode="&#x16a;" horiz-adv-x="625" d="M222 650 L222 192 Q222 158 248.5 142.5 Q275 127 312 127 Q349 127 376 142.5 Q403 158 403 192 L403 650 Q403 666 409.5 673 Q416 680 432 680 L540 680 Q556 680 562 673 Q568 666 568 650 L568 163 Q568 99 510 45.5 Q452 -8 312 -8 Q172 -8 114.5 45.5 Q57 99 57 163 L57 650 Q57 666 63.5 673 Q70 680 86 680 L194 680 Q210 680 216 673 Q222 666 222 650 Z M202 860 L423 860 Q439 860 446 854 Q453 848 453 832 L453 769 Q453 753 446 746.5 Q439 740 423 740 L202 740 Q186 740 179 746.5 Q172 753 172 769 L172 832 Q172 848 179 854 Q186 860 202 860 Z " />
<glyph glyph-name="Ubreve" unicode="&#x16c;" horiz-adv-x="625" d="M222 650 L222 192 Q222 158 248.5 142.5 Q275 127 312 127 Q349 127 376 142.5 Q403 158 403 192 L403 650 Q403 666 409.5 673 Q416 680 432 680 L540 680 Q556 680 562 673 Q568 666 568 650 L568 163 Q568 99 510 45.5 Q452 -8 312 -8 Q172 -8 114.5 45.5 Q57 99 57 163 L57 650 Q57 666 63.5 673 Q70 680 86 680 L194 680 Q210 680 216 673 Q222 666 222 650 Z M277 857 L277 840 Q277 825 285 816 Q293 807 312 807 Q331 807 339 816 Q347 825 347 840 L347 857 Q347 870 353 875.5 Q359 881 373 881 L434 881 Q448 881 454 875.5 Q460 870 460 857 L460 844 Q460 781 418.5 747.5 Q377 714 308 714 Q239 714 201.5 747.5 Q164 781 164 844 L164 857 Q164 870 170 875.5 Q176 881 190 881 L251 881 Q265 881 271 875.5 Q277 870 277 857 Z " />
<glyph glyph-name="Uring" unicode="&#x16e;" horiz-adv-x="625" d="M222 650 L222 192 Q222 158 248.5 142.5 Q275 127 312 127 Q349 127 376 142.5 Q403 158 403 192 L403 650 Q403 666 409.5 673 Q416 680 432 680 L540 680 Q556 680 562 673 Q568 666 568 650 L568 163 Q568 99 510 45.5 Q452 -8 312 -8 Q172 -8 114.5 45.5 Q57 99 57 163 L57 650 Q57 666 63.5 673 Q70 680 86 680 L194 680 Q210 680 216 673 Q222 666 222 650 Z M434 826 L434 792 Q434 761 405 736.5 Q376 712 312 712 Q248 712 219 736.5 Q190 761 190 792 L190 826 Q190 857 219 881.5 Q248 906 312 906 Q376 906 405 881.5 Q434 857 434 826 Z M350 801 L350 817 Q350 833 339 838.5 Q328 844 312 844 Q296 844 285 838.5 Q274 833 274 817 L274 801 Q274 785 285 779 Q296 773 312 773 Q328 773 339 779 Q350 785 350 801 Z " />
<glyph glyph-name="Uhungarumlaut" unicode="&#x170;" horiz-adv-x="625" d="M222 650 L222 192 Q222 158 248.5 142.5 Q275 127 312 127 Q349 127 376 142.5 Q403 158 403 192 L403 650 Q403 666 409.5 673 Q416 680 432 680 L540 680 Q556 680 562 673 Q568 666 568 650 L568 163 Q568 99 510 45.5 Q452 -8 312 -8 Q172 -8 114.5 45.5 Q57 99 57 163 L57 650 Q57 666 63.5 673 Q70 680 86 680 L194 680 Q210 680 216 673 Q222 666 222 650 Z M358 848 L307 756 Q300 743 292 735 Q284 727 268 727 L193 727 Q177 727 172 735 Q167 743 172 756 L208 848 Q214 862 223 870 Q232 878 248 878 L338 878 Q354 878 358.5 869.5 Q363 861 358 848 Z M540 848 L474 756 Q467 746 456.5 736.5 Q446 727 430 727 L355 727 Q339 727 335.5 735 Q332 743 339 756 L390 848 Q398 862 408.5 870 Q419 878 435 878 L525 878 Q541 878 544 869.5 Q547 861 540 848 Z " />
<glyph glyph-name="Uogonek" unicode="&#x172;" horiz-adv-x="625" d="M222 650 L222 192 Q222 158 248.5 142.5 Q275 127 312 127 Q349 127 376 142.5 Q403 158 403 192 L403 650 Q403 666 409.5 673 Q416 680 432 680 L540 680 Q556 680 562 673 Q568 666 568 650 L568 163 Q568 133 557 106.5 Q546 80 526 60 Q499 33 479 7.5 Q459 -18 459 -57 Q459 -69 466 -75.5 Q473 -82 489 -82 L512 -82 Q528 -82 535 -88 Q542 -94 542 -110 L542 -150 Q542 -166 530 -172.5 Q518 -179 502 -179 L439 -179 Q414 -179 377 -163.5 Q340 -148 340 -93 Q340 -80 343.5 -57 Q347 -34 363 -5 Q351 -6 338 -7 Q325 -8 312 -8 Q172 -8 114.5 45.5 Q57 99 57 163 L57 650 Q57 666 63.5 673 Q70 680 86 680 L194 680 Q210 680 216 673 Q222 666 222 650 Z " />
<glyph glyph-name="Wcircumflex" unicode="&#x174;" horiz-adv-x="863" d="M529 650 L597 371 Q602 350 606 321 Q610 292 614 261 Q617 292 622 320 Q627 348 632 370 L702 650 Q706 664 713.5 672 Q721 680 737 680 L831 680 Q847 680 852 672 Q857 664 853 650 L697 30 Q693 14 684.5 7 Q676 0 660 0 L555 0 Q542 0 534 8 Q526 16 522 30 L450 318 Q447 330 443 358.5 Q439 387 436 421 Q432 387 428 358.5 Q424 330 421 317 L349 30 Q345 14 336.5 7 Q328 0 312 0 L207 0 Q194 0 186 8 Q178 16 174 30 L18 650 Q14 664 19 672 Q24 680 40 680 L150 680 Q166 680 173.5 672 Q181 664 185 650 L253 370 Q257 351 261 328 Q265 305 269 280 Q273 304 277.5 327 Q282 350 287 370 L358 650 Q362 664 369.5 672 Q377 680 393 680 L494 680 Q510 680 517.5 672 Q525 664 529 650 Z M440 784 L428 756 Q424 746 413.5 736.5 Q403 727 387 727 L309 727 Q293 727 288.5 735.5 Q284 744 293 756 L364 848 Q374 861 384.5 869.5 Q395 878 411 878 L469 878 Q485 878 495.5 869.5 Q506 861 516 848 L587 756 Q596 744 591.5 735.5 Q587 727 571 727 L493 727 Q477 727 467 736 Q457 745 452 756 L440 784 Z " />
<glyph glyph-name="Wgrave" unicode="&#x1e80;" horiz-adv-x="863" d="M529 650 L597 371 Q602 350 606 321 Q610 292 614 261 Q617 292 622 320 Q627 348 632 370 L702 650 Q706 664 713.5 672 Q721 680 737 680 L831 680 Q847 680 852 672 Q857 664 853 650 L697 30 Q693 14 684.5 7 Q676 0 660 0 L555 0 Q542 0 534 8 Q526 16 522 30 L450 318 Q447 330 443 358.5 Q439 387 436 421 Q432 387 428 358.5 Q424 330 421 317 L349 30 Q345 14 336.5 7 Q328 0 312 0 L207 0 Q194 0 186 8 Q178 16 174 30 L18 650 Q14 664 19 672 Q24 680 40 680 L150 680 Q166 680 173.5 672 Q181 664 185 650 L253 370 Q257 351 261 328 Q265 305 269 280 Q273 304 277.5 327 Q282 350 287 370 L358 650 Q362 664 369.5 672 Q377 680 393 680 L494 680 Q510 680 517.5 672 Q525 664 529 650 Z M365 747 L296 848 Q287 861 291 869.5 Q295 878 311 878 L418 878 Q434 878 443.5 869.5 Q453 861 459 848 L499 756 Q506 740 501 733.5 Q496 727 483 727 L404 727 Q388 727 378.5 733.5 Q369 740 365 747 Z " />
<glyph glyph-name="Wacute" unicode="&#x1e82;" horiz-adv-x="863" d="M529 650 L597 371 Q602 350 606 321 Q610 292 614 261 Q617 292 622 320 Q627 348 632 370 L702 650 Q706 664 713.5 672 Q721 680 737 680 L831 680 Q847 680 852 672 Q857 664 853 650 L697 30 Q693 14 684.5 7 Q676 0 660 0 L555 0 Q542 0 534 8 Q526 16 522 30 L450 318 Q447 330 443 358.5 Q439 387 436 421 Q432 387 428 358.5 Q424 330 421 317 L349 30 Q345 14 336.5 7 Q328 0 312 0 L207 0 Q194 0 186 8 Q178 16 174 30 L18 650 Q14 664 19 672 Q24 680 40 680 L150 680 Q166 680 173.5 672 Q181 664 185 650 L253 370 Q257 351 261 328 Q265 305 269 280 Q273 304 277.5 327 Q282 350 287 370 L358 650 Q362 664 369.5 672 Q377 680 393 680 L494 680 Q510 680 517.5 672 Q525 664 529 650 Z M589 848 L520 747 Q516 740 506.5 733.5 Q497 727 481 727 L402 727 Q389 727 384 733.5 Q379 740 386 756 L426 848 Q432 861 441.5 869.5 Q451 878 467 878 L574 878 Q590 878 594 869.5 Q598 861 589 848 Z " />
<glyph glyph-name="Wdieresis" unicode="&#x1e84;" horiz-adv-x="863" d="M529 650 L597 371 Q602 350 606 321 Q610 292 614 261 Q617 292 622 320 Q627 348 632 370 L702 650 Q706 664 713.5 672 Q721 680 737 680 L831 680 Q847 680 852 672 Q857 664 853 650 L697 30 Q693 14 684.5 7 Q676 0 660 0 L555 0 Q542 0 534 8 Q526 16 522 30 L450 318 Q447 330 443 358.5 Q439 387 436 421 Q432 387 428 358.5 Q424 330 421 317 L349 30 Q345 14 336.5 7 Q328 0 312 0 L207 0 Q194 0 186 8 Q178 16 174 30 L18 650 Q14 664 19 672 Q24 680 40 680 L150 680 Q166 680 173.5 672 Q181 664 185 650 L253 370 Q257 351 261 328 Q265 305 269 280 Q273 304 277.5 327 Q282 350 287 370 L358 650 Q362 664 369.5 672 Q377 680 393 680 L494 680 Q510 680 517.5 672 Q525 664 529 650 Z M567 848 L567 756 Q567 740 561 733.5 Q555 727 539 727 L479 727 Q463 727 456.5 733.5 Q450 740 450 756 L450 848 Q450 864 456.5 871 Q463 878 479 878 L539 878 Q555 878 561 871 Q567 864 567 848 Z M412 848 L412 756 Q412 740 406 733.5 Q400 727 384 727 L324 727 Q308 727 301.5 733.5 Q295 740 295 756 L295 848 Q295 864 301.5 871 Q308 878 324 878 L384 878 Q400 878 406 871 Q412 864 412 848 Z " />
<glyph glyph-name="Ycircumflex" unicode="&#x176;" horiz-adv-x="556" d="M197 650 L268 451 Q271 443 276 426.5 Q281 410 285 391 Q291 411 296 427 Q301 443 305 451 L389 650 Q394 663 401 671.5 Q408 680 424 680 L530 680 Q546 680 552.5 672 Q559 664 552 650 L368 252 L368 30 Q368 14 362 7 Q356 0 340 0 L232 0 Q216 0 209.5 7 Q203 14 203 30 L203 232 L18 650 Q12 663 17.5 671.5 Q23 680 39 680 L161 680 Q177 680 185 671.5 Q193 663 197 650 Z M285 784 L273 756 Q269 746 258.5 736.5 Q248 727 232 727 L154 727 Q138 727 133.5 735.5 Q129 744 138 756 L209 848 Q219 861 229.5 869.5 Q240 878 256 878 L314 878 Q330 878 340.5 869.5 Q351 861 361 848 L432 756 Q441 744 436.5 735.5 Q432 727 416 727 L338 727 Q322 727 312 736 Q302 745 297 756 L285 784 Z " />
<glyph glyph-name="Ygrave" unicode="&#x1ef2;" horiz-adv-x="556" d="M197 650 L268 451 Q271 443 276 426.5 Q281 410 285 391 Q291 411 296 427 Q301 443 305 451 L389 650 Q394 663 401 671.5 Q408 680 424 680 L530 680 Q546 680 552.5 672 Q559 664 552 650 L368 252 L368 30 Q368 14 362 7 Q356 0 340 0 L232 0 Q216 0 209.5 7 Q203 14 203 30 L203 232 L18 650 Q12 663 17.5 671.5 Q23 680 39 680 L161 680 Q177 680 185 671.5 Q193 663 197 650 Z M214 747 L145 848 Q136 861 140 869.5 Q144 878 160 878 L267 878 Q283 878 292.5 869.5 Q302 861 308 848 L348 756 Q355 740 350 733.5 Q345 727 332 727 L253 727 Q237 727 227.5 733.5 Q218 740 214 747 Z " />
<glyph glyph-name="Zacute" unicode="&#x179;" horiz-adv-x="503" d="M72 680 L431 680 Q447 680 454 674 Q461 668 461 652 L461 574 Q461 567 459 561.5 Q457 556 455 552 L223 135 L449 135 Q465 135 472 129 Q479 123 479 107 L479 29 Q479 13 472 6.5 Q465 0 449 0 L55 0 Q39 0 32 6.5 Q25 13 25 29 L25 107 Q25 114 26.5 118.5 Q28 123 30 127 L263 545 L72 545 Q56 545 49 551.5 Q42 558 42 574 L42 652 Q42 668 49 674 Q56 680 72 680 Z M403 848 L334 747 Q330 740 320.5 733.5 Q311 727 295 727 L216 727 Q203 727 198 733.5 Q193 740 200 756 L240 848 Q246 861 255.5 869.5 Q265 878 281 878 L388 878 Q404 878 408 869.5 Q412 861 403 848 Z " />
<glyph glyph-name="Zdotaccent" unicode="&#x17b;" horiz-adv-x="503" d="M72 680 L431 680 Q447 680 454 674 Q461 668 461 652 L461 574 Q461 567 459 561.5 Q457 556 455 552 L223 135 L449 135 Q465 135 472 129 Q479 123 479 107 L479 29 Q479 13 472 6.5 Q465 0 449 0 L55 0 Q39 0 32 6.5 Q25 13 25 29 L25 107 Q25 114 26.5 118.5 Q28 123 30 127 L263 545 L72 545 Q56 545 49 551.5 Q42 558 42 574 L42 652 Q42 668 49 674 Q56 680 72 680 Z M333 839 L333 756 Q333 740 327 733.5 Q321 727 305 727 L199 727 Q183 727 176.5 733.5 Q170 740 170 756 L170 839 Q170 855 176.5 862 Q183 869 199 869 L305 869 Q321 869 327 862 Q333 855 333 839 Z " />
<glyph glyph-name="AEacute" unicode="&#x1fc;" horiz-adv-x="818" d="M354 353 L297 256 L389 256 L389 420 Q379 400 370 382.5 Q361 365 354 353 Z M421 680 L751 680 Q767 680 774 674 Q781 668 781 652 L781 576 Q781 560 774 553.5 Q767 547 751 547 L545 547 L545 414 L735 414 Q751 414 758 408 Q765 402 765 386 L765 315 Q765 299 758 292.5 Q751 286 735 286 L545 286 L545 133 L761 133 Q777 133 784 127 Q791 121 791 105 L791 29 Q791 13 784 6.5 Q777 0 761 0 L418 0 Q402 0 395.5 7 Q389 14 389 30 L389 126 L220 126 L164 30 Q158 20 150 10 Q142 0 129 0 L28 0 Q12 0 5 8.5 Q-2 17 6 30 L379 651 Q383 658 392.5 669 Q402 680 421 680 Z M631 848 L562 747 Q558 740 548.5 733.5 Q539 727 523 727 L444 727 Q431 727 426 733.5 Q421 740 428 756 L468 848 Q474 861 483.5 869.5 Q493 878 509 878 L616 878 Q632 878 636 869.5 Q640 861 631 848 Z " />
<glyph glyph-name="Oslashacute" unicode="&#x1fe;" horiz-adv-x="611" d="M444 848 L375 747 Q371 740 361.5 733.5 Q352 727 336 727 L257 727 Q244 727 239 733.5 Q234 740 241 756 L281 848 Q287 861 296.5 869.5 Q306 878 322 878 L429 878 Q445 878 449 869.5 Q453 861 444 848 Z M215 487 L215 234 L368 537 Q355 544 339 548 Q323 552 305 552 Q268 552 241.5 536.5 Q215 521 215 487 Z M305 126 Q342 126 369 141.5 Q396 157 396 191 L396 431 L248 138 Q260 132 274.5 129 Q289 126 305 126 Z M175 -8 Q167 -24 160 -31 Q153 -38 137 -38 L103 -38 Q92 -38 89.5 -29 Q87 -20 93 -8 L116 38 Q81 62 65.5 95 Q50 128 50 162 L50 516 Q50 580 107.5 633.5 Q165 687 305 687 Q344 687 376 682.5 Q408 678 434 669 L443 687 Q449 699 456.5 708 Q464 717 479 717 L515 717 Q528 717 529 707 Q530 697 525 687 L500 637 Q532 612 546.5 580.5 Q561 549 561 516 L561 162 Q561 98 503 44.5 Q445 -9 305 -9 Q268 -9 237.5 -4.5 Q207 0 182 7 L175 -8 Z " />
<glyph glyph-name="Dcroat" unicode="&#x110;" horiz-adv-x="635" d="M330 0 L100 0 Q87 0 81 7.5 Q75 15 75 30 L75 281 L44 281 Q28 281 21 287.5 Q14 294 14 310 L14 373 Q14 389 21 395 Q28 401 44 401 L75 401 L75 650 Q75 666 81.5 673 Q88 680 104 680 L330 680 Q470 680 528 626.5 Q586 573 586 509 L586 171 Q586 107 528 53.5 Q470 0 330 0 Z M240 135 L330 135 Q367 135 394 150.5 Q421 166 421 200 L421 480 Q421 514 394 529.5 Q367 545 330 545 L240 545 L240 401 L311 401 Q327 401 334 395 Q341 389 341 373 L341 310 Q341 294 334 287.5 Q327 281 311 281 L240 281 L240 135 Z " />
<glyph glyph-name="Hbar" unicode="&#x126;" horiz-adv-x="659" d="M239 412 L420 412 L420 465 L239 465 L239 412 Z M239 30 Q239 14 233 7 Q227 0 211 0 L103 0 Q87 0 80.5 7 Q74 14 74 30 L74 465 L45 465 Q29 465 22 471.5 Q15 478 15 494 L15 547 Q15 563 22 569 Q29 575 45 575 L74 575 L74 650 Q74 666 80.5 673 Q87 680 103 680 L211 680 Q227 680 233 673 Q239 666 239 650 L239 575 L420 575 L420 650 Q420 666 426.5 673 Q433 680 449 680 L557 680 Q573 680 579 673 Q585 666 585 650 L585 575 L614 575 Q630 575 637 569 Q644 563 644 547 L644 494 Q644 478 637 471.5 Q630 465 614 465 L585 465 L585 30 Q585 14 579 7 Q573 0 557 0 L449 0 Q433 0 426.5 7 Q420 14 420 30 L420 277 L239 277 L239 30 Z " />
<glyph glyph-name="IJ" unicode="&#x132;" horiz-adv-x="810" d="M225 650 L225 30 Q225 14 219 7 Q213 0 197 0 L89 0 Q73 0 66.5 7 Q60 14 60 30 L60 650 Q60 666 66.5 673 Q73 680 89 680 L197 680 Q213 680 219 673 Q225 666 225 650 Z M457 229 L457 192 Q457 158 476.5 142.5 Q496 127 527 127 Q558 127 573 142.5 Q588 158 588 192 L588 650 Q588 666 594.5 673 Q601 680 617 680 L725 680 Q741 680 747 673 Q753 666 753 650 L753 163 Q753 99 705.5 45.5 Q658 -8 527 -8 Q396 -8 345.5 45.5 Q295 99 295 163 L295 229 Q295 245 301.5 252 Q308 259 324 259 L429 259 Q445 259 451 252 Q457 245 457 229 Z " />
<glyph glyph-name="Ldot" unicode="&#x13f;" horiz-adv-x="476" d="M225 650 L225 135 L421 135 Q437 135 444 129 Q451 123 451 107 L451 29 Q451 13 444 6.5 Q437 0 421 0 L85 0 Q72 0 66 7.5 Q60 15 60 30 L60 650 Q60 666 66.5 673 Q73 680 89 680 L197 680 Q213 680 219 673 Q225 666 225 650 Z M451 393 L451 310 Q451 294 445 287.5 Q439 281 423 281 L317 281 Q301 281 294.5 287.5 Q288 294 288 310 L288 393 Q288 409 294.5 416 Q301 423 317 423 L423 423 Q439 423 445 416 Q451 409 451 393 Z " />
<glyph glyph-name="Eng" unicode="&#x14a;" horiz-adv-x="631" d="M571 650 L571 -43 Q571 -114 516.5 -156.5 Q462 -199 349 -199 L338 -199 Q322 -199 315 -192.5 Q308 -186 308 -170 L308 -99 Q308 -83 315 -76 Q322 -69 338 -69 L349 -69 Q380 -69 398 -59.5 Q416 -50 416 -25 L416 17 L258 280 Q246 300 234.5 324.5 Q223 349 215 370 L215 30 Q215 14 209 7 Q203 0 187 0 L89 0 Q73 0 66.5 7 Q60 14 60 30 L60 650 Q60 666 66.5 673 Q73 680 89 680 L187 680 Q197 680 202.5 677 Q208 674 212 668 L381 385 Q390 369 399.5 348.5 Q409 328 416 310 L416 650 Q416 666 422.5 673 Q429 680 445 680 L543 680 Q559 680 565 673 Q571 666 571 650 Z " />
<glyph glyph-name="Tbar" unicode="&#x166;" horiz-adv-x="520" d="M342 30 Q342 14 336 7 Q330 0 314 0 L206 0 Q190 0 183.5 7 Q177 14 177 30 L177 302 L91 302 Q75 302 68 308.5 Q61 315 61 331 L61 384 Q61 400 68 406 Q75 412 91 412 L177 412 L177 545 L49 545 Q33 545 26 551.5 Q19 558 19 574 L19 652 Q19 668 26 674 Q33 680 49 680 L470 680 Q486 680 493 674 Q500 668 500 652 L500 574 Q500 558 493 551.5 Q486 545 470 545 L342 545 L342 412 L430 412 Q446 412 453 406 Q460 400 460 384 L460 331 Q460 315 453 308.5 Q446 302 430 302 L342 302 L342 30 Z " />
<glyph glyph-name="amacron" unicode="&#x101;" horiz-adv-x="518" d="M223 116 Q248 116 273 128.5 Q298 141 315 153 L315 186 L223 186 Q201 186 195 176 Q189 166 189 155 L189 142 Q189 125 200.5 120.5 Q212 116 223 116 Z M49 345 L49 357 Q49 428 100 468 Q151 508 261 508 Q374 508 423 468 Q472 428 472 357 L472 30 Q472 14 465.5 7 Q459 0 443 0 L351 0 Q335 0 329.5 7 Q324 14 322 30 L320 45 Q298 27 263.5 9.5 Q229 -8 180 -8 Q105 -8 69 31.5 Q33 71 33 120 L33 163 Q33 214 74 253 Q115 292 193 292 L315 292 L315 347 Q315 370 302 381.5 Q289 393 258 393 Q227 393 212.5 384 Q198 375 198 352 L198 345 Q198 329 191.5 322.5 Q185 316 169 316 L78 316 Q62 316 55.5 322.5 Q49 329 49 345 Z M145 680 L366 680 Q382 680 389 674 Q396 668 396 652 L396 589 Q396 573 389 566.5 Q382 560 366 560 L145 560 Q129 560 122 566.5 Q115 573 115 589 L115 652 Q115 668 122 674 Q129 680 145 680 Z " />
<glyph glyph-name="abreve" unicode="&#x103;" horiz-adv-x="518" d="M223 116 Q248 116 273 128.5 Q298 141 315 153 L315 186 L223 186 Q201 186 195 176 Q189 166 189 155 L189 142 Q189 125 200.5 120.5 Q212 116 223 116 Z M49 345 L49 357 Q49 428 100 468 Q151 508 261 508 Q374 508 423 468 Q472 428 472 357 L472 30 Q472 14 465.5 7 Q459 0 443 0 L351 0 Q335 0 329.5 7 Q324 14 322 30 L320 45 Q298 27 263.5 9.5 Q229 -8 180 -8 Q105 -8 69 31.5 Q33 71 33 120 L33 163 Q33 214 74 253 Q115 292 193 292 L315 292 L315 347 Q315 370 302 381.5 Q289 393 258 393 Q227 393 212.5 384 Q198 375 198 352 L198 345 Q198 329 191.5 322.5 Q185 316 169 316 L78 316 Q62 316 55.5 322.5 Q49 329 49 345 Z M226 686 L226 669 Q226 654 234 645 Q242 636 261 636 Q280 636 288 645 Q296 654 296 669 L296 686 Q296 699 302 704.5 Q308 710 322 710 L383 710 Q397 710 403 704.5 Q409 699 409 686 L409 673 Q409 610 367.5 576.5 Q326 543 257 543 Q188 543 150.5 576.5 Q113 610 113 673 L113 686 Q113 699 119 704.5 Q125 710 139 710 L200 710 Q214 710 220 704.5 Q226 699 226 686 Z " />
<glyph glyph-name="aogonek" unicode="&#x105;" horiz-adv-x="518" d="M49 345 L49 357 Q49 428 100 468 Q151 508 261 508 Q374 508 423 468 Q472 428 472 357 L472 30 Q472 14 465.5 7 Q459 0 443 0 L439 0 Q417 0 407.5 -16 Q398 -32 398 -57 Q398 -69 405 -75.5 Q412 -82 428 -82 L442 -82 Q458 -82 465 -88 Q472 -94 472 -110 L472 -150 Q472 -166 460 -172.5 Q448 -179 432 -179 L378 -179 Q353 -179 316 -163.5 Q279 -148 279 -93 Q279 -77 285.5 -45.5 Q292 -14 323 25 L320 45 Q298 27 263.5 9.5 Q229 -8 180 -8 Q105 -8 69 31.5 Q33 71 33 120 L33 163 Q33 214 74 253 Q115 292 193 292 L315 292 L315 347 Q315 370 302 381.5 Q289 393 258 393 Q227 393 212.5 384 Q198 375 198 352 L198 345 Q198 329 191.5 322.5 Q185 316 169 316 L78 316 Q62 316 55.5 322.5 Q49 329 49 345 Z M223 116 Q248 116 273 128.5 Q298 141 315 153 L315 186 L223 186 Q201 186 195 176 Q189 166 189 155 L189 142 Q189 125 200.5 120.5 Q212 116 223 116 Z " />
<glyph glyph-name="aringacute" unicode="&#x1fb;" horiz-adv-x="518" d="M263 540 Q199 540 170 564.5 Q141 589 141 620 L141 654 Q141 676 156 696 Q171 716 205 726 L234 794 Q240 807 249.5 815.5 Q259 824 275 824 L382 824 Q398 824 402 815.5 Q406 807 397 794 L344 717 Q365 706 375 689 Q385 672 385 654 L385 620 Q385 589 356 564.5 Q327 540 263 540 Z M301 629 L301 645 Q301 661 290 666.5 Q279 672 263 672 Q247 672 236 666.5 Q225 661 225 645 L225 629 Q225 613 236 607 Q247 601 263 601 Q279 601 290 607 Q301 613 301 629 Z M223 116 Q248 116 273 128.5 Q298 141 315 153 L315 186 L223 186 Q201 186 195 176 Q189 166 189 155 L189 142 Q189 125 200.5 120.5 Q212 116 223 116 Z M49 345 L49 357 Q49 428 100 468 Q151 508 261 508 Q374 508 423 468 Q472 428 472 357 L472 30 Q472 14 465.5 7 Q459 0 443 0 L351 0 Q335 0 329.5 7 Q324 14 322 30 L320 45 Q298 27 263.5 9.5 Q229 -8 180 -8 Q105 -8 69 31.5 Q33 71 33 120 L33 163 Q33 214 74 253 Q115 292 193 292 L315 292 L315 347 Q315 370 302 381.5 Q289 393 258 393 Q227 393 212.5 384 Q198 375 198 352 L198 345 Q198 329 191.5 322.5 Q185 316 169 316 L78 316 Q62 316 55.5 322.5 Q49 329 49 345 Z " />
<glyph glyph-name="cacute" unicode="&#x107;" horiz-adv-x="503" d="M258 508 Q371 508 422.5 465.5 Q474 423 474 352 L474 337 Q474 321 467.5 314.5 Q461 308 445 308 L350 308 Q334 308 327.5 314.5 Q321 321 321 337 L321 340 Q321 365 306.5 374 Q292 383 261 383 Q230 383 215.5 374 Q201 365 201 340 L201 161 Q201 136 215.5 126.5 Q230 117 261 117 Q292 117 306.5 126.5 Q321 136 321 161 L321 173 Q321 189 327.5 195.5 Q334 202 350 202 L445 202 Q461 202 467.5 195.5 Q474 189 474 173 L474 148 Q474 77 422 34.5 Q370 -8 257 -8 Q144 -8 92.5 34.5 Q41 77 41 148 L41 352 Q41 423 93 465.5 Q145 508 258 508 Z M401 678 L332 577 Q328 570 318.5 563.5 Q309 557 293 557 L214 557 Q201 557 196 563.5 Q191 570 198 586 L238 678 Q244 691 253.5 699.5 Q263 708 279 708 L386 708 Q402 708 406 699.5 Q410 691 401 678 Z " />
</font>
</svg>
