<?xml version="1.0" encoding="UTF-8"?>
<svg xmlns="http://www.w3.org/2000/svg" xmlns:xlink="http://www.w3.org/1999/xlink" version="1.2" >
<font id="Fly Sans Regular Italic">
<font-face  font-family="Fly Sans" units-per-em="1000" ascent="1000" descent="-300" font-style="normal" font-weight="400" font-stretch="normal" slope="-7" cap-height="680" x-height="500" underline-position="-125" underline-thickness="48" />
<missing-glyph  horiz-adv-x="859" d="M715 94 Q664 44 599.5 18 Q535 -8 466 -8 Q400 -8 335 18 Q270 44 220 94 Q169 144 143 209 Q117 274 117 341 Q117 407 143 472 Q169 537 220 588 Q270 638 335 664 Q400 690 466 690 Q533 690 599 664 Q665 638 715 588 Q765 538 791.5 472.5 Q818 407 818 341 Q818 273 791.5 208.5 Q765 144 715 94 Z M703 106 Q752 155 777 216.5 Q802 278 802 341 Q802 404 777 465.5 Q752 527 703 576 Q654 625 592 649.5 Q530 674 466 674 Q403 674 342 649.5 Q281 625 232 576 Q183 527 158 465.5 Q133 404 133 341 Q133 278 158 216.5 Q183 155 232 106 Q281 57 342 32.5 Q403 8 466 8 Q531 8 592.5 32.5 Q654 57 703 106 Z M585 183 L467 301 L350 184 Q345 179 340 179 Q335 179 330 184 L309 205 Q303 211 303.5 215.5 Q304 220 309 225 L426 342 L310 459 Q304 465 304 469.5 Q304 474 309 480 L329 501 Q334 506 339.5 506.5 Q345 507 350 501 L467 383 L585 500 Q591 506 596 506.5 Q601 507 606 502 L627 482 Q633 477 633 471 Q633 465 627 460 L508 342 L626 224 Q632 218 632 213.5 Q632 209 626 203 L606 183 Q601 178 595.5 178 Q590 178 585 183 Z " />
<glyph glyph-name="Eth" unicode="&#xd0;" horiz-adv-x="615" d="M289 0 L82 0 Q76 0 72.5 4 Q69 8 70 15 L107 317 L38 317 Q31 317 27.5 320.5 Q24 324 25 331 L28 357 Q29 364 33.5 367.5 Q38 371 45 371 L114 371 L150 665 Q151 672 155 676 Q159 680 166 680 L365 680 Q477 680 522.5 642.5 Q568 605 568 552 Q568 548 568 541.5 Q568 535 567 527 L520 146 Q513 86 463.5 43 Q414 0 289 0 Z M147 61 L292 61 Q372 61 408.5 87.5 Q445 114 450 157 L494 517 Q495 523 495.5 528.5 Q496 534 496 537 Q496 575 465.5 597 Q435 619 361 619 L216 619 L185 371 L313 371 Q320 371 323.5 367.5 Q327 364 326 357 L323 331 Q322 324 318 320.5 Q314 317 306 317 L179 317 L147 61 Z " />
<glyph glyph-name="eth" unicode="&#xf0;" horiz-adv-x="517" d="M316 598 L395 631 Q384 642 361.5 648.5 Q339 655 304 655 L214 655 Q208 655 204 658 Q200 661 201 668 L203 690 Q204 698 208.5 701.5 Q213 705 220 705 L310 705 Q366 705 401.5 693.5 Q437 682 455 662 L509 686 Q514 688 520 687.5 Q526 687 528 681 L532 671 Q534 666 532 660.5 Q530 655 523 652 L473 630 Q478 617 478 601 Q478 585 477 577 L421 120 Q414 63 370 27.5 Q326 -8 222 -8 Q130 -8 88 23 Q46 54 46 103 Q46 105 46 109.5 Q46 114 47 120 L78 374 Q85 431 121 466.5 Q157 502 231 502 Q293 502 334 480.5 Q375 459 395 442 L410 564 Q412 580 409 588 Q406 596 406 596 L330 565 Q324 563 318.5 563 Q313 563 311 570 L308 580 Q307 585 309 590.5 Q311 596 316 598 Z M356 125 L388 384 Q373 397 336 419.5 Q299 442 245 442 Q196 442 173 419 Q150 396 146 365 L117 125 Q116 119 116 116.5 Q116 114 116 113 Q116 83 141.5 65.5 Q167 48 227 48 Q293 48 322.5 69 Q352 90 356 125 Z " />
<glyph glyph-name="Lslash" unicode="&#x141;" horiz-adv-x="484" d="M419 0 L81 0 Q74 0 71 4 Q68 8 69 15 L104 302 L47 280 Q40 278 36 279.5 Q32 281 29 288 L24 302 Q22 309 25 313.5 Q28 318 35 321 L110 351 L149 665 Q150 672 154.5 676 Q159 680 166 680 L208 680 Q216 680 218.5 676 Q221 672 220 665 L185 380 L246 404 Q253 406 257.5 404.5 Q262 403 264 396 L269 381 Q271 375 268 370 Q265 365 258 362 L179 331 L146 61 L426 61 Q433 61 436.5 57.5 Q440 54 439 47 L435 15 Q434 7 430.5 3.5 Q427 0 419 0 Z " />
<glyph glyph-name="lslash" unicode="&#x142;" horiz-adv-x="269" d="M118 0 L77 0 Q70 0 66.5 4 Q63 8 64 15 L99 303 L40 280 Q33 278 28.5 279.5 Q24 281 22 288 L18 303 Q17 310 19 314.5 Q21 319 28 321 L105 351 L146 684 Q147 691 151.5 695 Q156 699 163 699 L204 699 Q211 699 213.5 695 Q216 691 215 684 L178 380 L239 404 Q245 406 250 404.5 Q255 403 257 396 L262 381 Q264 375 261 370 Q258 365 251 362 L172 331 L134 15 Q133 8 129.5 4 Q126 0 118 0 Z " />
<glyph glyph-name="Scaron" unicode="&#x160;" horiz-adv-x="553" d="M438 495 L442 533 Q443 540 443 543.5 Q443 547 443 550 Q443 586 415 607.5 Q387 629 316 629 Q238 629 205 603 Q172 577 167 534 L163 500 Q162 495 162 491.5 Q162 488 162 487 Q162 460 177 446.5 Q192 433 211 426 L388 355 Q431 338 455.5 309 Q480 280 480 238 Q480 234 480 229.5 Q480 225 479 218 L470 138 Q463 78 413.5 35 Q364 -8 239 -8 Q129 -8 84.5 29 Q40 66 40 118 Q40 122 40 127.5 Q40 133 41 141 L47 193 Q48 201 52 204.5 Q56 208 63 208 L104 208 Q112 208 115 204 Q118 200 117 193 L111 150 Q110 144 110 139 Q110 134 110 131 Q110 94 140.5 72.5 Q171 51 244 51 Q323 51 359 77.5 Q395 104 400 147 L408 211 Q409 218 409 220.5 Q409 223 409 224 Q409 253 386 269.5 Q363 286 335 297 L178 361 Q139 377 115 405.5 Q91 434 91 472 Q91 475 91 479.5 Q91 484 92 491 L98 542 Q105 602 151 645 Q197 688 321 688 Q429 688 471.5 651 Q514 614 514 563 Q514 559 514 554.5 Q514 550 513 542 L508 495 Q507 488 502.5 484 Q498 480 491 480 L450 480 Q443 480 440 483 Q437 486 438 495 Z M284 863 L327 781 L390 863 Q394 869 399.5 873.5 Q405 878 412 878 L445 878 Q452 878 454 873.5 Q456 869 451 863 L360 752 Q355 746 349 742 Q343 738 335 738 L310 738 Q303 738 297.5 742 Q292 746 288 753 L225 863 Q221 869 224 873.5 Q227 878 235 878 L266 878 Q273 878 277 873 Q281 868 284 863 Z " />
<glyph glyph-name="scaron" unicode="&#x161;" horiz-adv-x="472" d="M217 693 L260 611 L323 693 Q327 699 332.5 703.5 Q338 708 345 708 L378 708 Q385 708 387 703.5 Q389 699 384 693 L293 582 Q288 576 282 572 Q276 568 268 568 L243 568 Q236 568 230.5 572 Q225 576 221 583 L158 693 Q154 699 157 703.5 Q160 708 168 708 L199 708 Q206 708 210 703 Q214 698 217 693 Z M352 359 L355 380 Q356 387 356 391 Q356 395 356 398 Q356 420 331.5 435.5 Q307 451 253 451 Q197 451 169 436 Q141 421 137 391 L134 367 Q133 361 133 358.5 Q133 356 133 355 Q133 339 143 326 Q153 313 176 306 L324 257 Q361 244 380 222.5 Q399 201 399 175 Q399 171 399 166.5 Q399 162 398 154 L392 100 Q387 55 341.5 23.5 Q296 -8 198 -8 Q110 -8 69 21.5 Q28 51 28 91 Q28 94 28 97 Q28 100 29 107 L32 132 Q33 139 37 142.5 Q41 146 48 146 L85 146 Q91 146 94 143 Q97 140 96 132 L94 110 Q93 103 93 100.5 Q93 98 93 97 Q93 72 121.5 58 Q150 44 202 44 Q259 44 291.5 60 Q324 76 328 106 L333 141 Q334 148 334 151 Q334 154 334 157 Q334 173 319 184.5 Q304 196 282 203 L138 252 Q107 262 87 285 Q67 308 67 339 Q67 341 67 344.5 Q67 348 68 355 L73 392 Q79 437 119.5 469.5 Q160 502 257 502 Q343 502 381.5 471.5 Q420 441 420 401 Q420 397 420 394 Q420 391 419 383 L416 359 Q415 352 411.5 349 Q408 346 401 346 L364 346 Q357 346 354 349 Q351 352 352 359 Z " />
<glyph glyph-name="Yacute" unicode="&#xdd;" horiz-adv-x="521" d="M149 665 L260 375 Q263 368 266 357.5 Q269 347 270 337 Q273 344 278 355 Q283 366 289 375 L476 665 Q480 671 484 675.5 Q488 680 496 680 L539 680 Q547 680 549.5 676 Q552 672 548 665 L299 277 L266 15 Q265 8 262 4 Q259 0 251 0 L209 0 Q201 0 197.5 4 Q194 8 195 15 L227 269 L72 665 Q69 672 73.5 676 Q78 680 85 680 L132 680 Q140 680 143.5 676 Q147 672 149 665 Z M443 863 L351 747 Q348 744 343.5 741 Q339 738 332 738 L297 738 Q290 738 288 741.5 Q286 745 291 752 L372 864 Q376 870 381 874 Q386 878 393 878 L438 878 Q446 878 447 873.5 Q448 869 443 863 Z " />
<glyph glyph-name="yacute" unicode="&#xfd;" horiz-adv-x="446" d="M446 479 L135 -192 Q132 -198 127.5 -202.5 Q123 -207 116 -207 L84 -207 Q77 -207 73.5 -203 Q70 -199 73 -192 L157 -4 L50 479 Q49 486 53.5 490 Q58 494 65 494 L106 494 Q113 494 116.5 490 Q120 486 121 479 L193 147 Q196 134 198.5 115.5 Q201 97 201 87 Q206 103 211.5 117.5 Q217 132 223 145 L377 479 Q380 486 384.5 490 Q389 494 396 494 L434 494 Q441 494 445.5 490 Q450 486 446 479 Z M378 693 L285 577 Q283 574 278 571 Q273 568 266 568 L231 568 Q225 568 223 571.5 Q221 575 226 582 L306 694 Q310 700 315 704 Q320 708 327 708 L372 708 Q380 708 381.5 703.5 Q383 699 378 693 Z " />
<glyph glyph-name="Thorn" unicode="&#xde;" horiz-adv-x="574" d="M208 665 L188 494 L327 494 Q437 494 482.5 456.5 Q528 419 528 367 Q528 363 528 358 Q528 353 527 347 L514 246 Q507 186 457.5 143.5 Q408 101 282 101 L139 101 L128 15 Q127 8 124 4 Q121 0 113 0 L71 0 Q64 0 60 3 Q56 6 57 15 L137 665 Q138 672 142 676 Q146 680 154 680 L196 680 Q203 680 206 676 Q209 672 208 665 Z M321 434 L180 434 L146 160 L288 160 Q367 160 403.5 186.5 Q440 213 445 257 L455 337 Q456 342 456 346 Q456 350 456 352 Q456 390 425.5 412 Q395 434 321 434 Z " />
<glyph glyph-name="thorn" unicode="&#xfe;" horiz-adv-x="524" d="M269 52 Q318 52 340.5 75 Q363 98 367 129 L396 360 Q397 367 397 372 Q397 377 397 379 Q397 406 378.5 424 Q360 442 317 442 Q261 442 219.5 419.5 Q178 397 160 384 L126 109 Q141 96 176.5 74 Q212 52 269 52 Z M119 51 L89 -192 Q88 -199 84.5 -203 Q81 -207 73 -207 L33 -207 Q26 -207 22 -203.5 Q18 -200 19 -192 L128 684 Q129 691 132.5 695 Q136 699 143 699 L184 699 Q191 699 194.5 695 Q198 691 197 684 L167 442 Q191 459 235 480.5 Q279 502 342 502 Q405 502 436.5 472.5 Q468 443 468 395 Q468 391 467.5 383.5 Q467 376 466 369 L435 120 Q428 63 392.5 27.5 Q357 -8 283 -8 Q220 -8 179 13 Q138 34 119 51 Z " />
<glyph glyph-name="Zcaron" unicode="&#x17d;" horiz-adv-x="475" d="M116 680 L465 680 Q472 680 475.5 676.5 Q479 673 478 665 L474 634 Q473 630 471 626 Q469 622 468 619 L95 61 L405 61 Q412 61 415.5 57.5 Q419 54 418 47 L414 15 Q413 7 409 3.5 Q405 0 398 0 L15 0 Q8 0 4 3.5 Q0 7 1 14 L5 45 Q6 49 8 53 Q10 57 12 61 L385 619 L108 619 Q101 619 97.5 622.5 Q94 626 95 634 L99 665 Q100 673 104.5 676.5 Q109 680 116 680 Z M250 863 L293 781 L356 863 Q360 869 365.5 873.5 Q371 878 378 878 L411 878 Q418 878 420 873.5 Q422 869 417 863 L326 752 Q321 746 315 742 Q309 738 301 738 L276 738 Q269 738 263.5 742 Q258 746 254 753 L191 863 Q187 869 190 873.5 Q193 878 201 878 L232 878 Q239 878 243 873 Q247 868 250 863 Z " />
<glyph glyph-name="zcaron" unicode="&#x17e;" horiz-adv-x="427" d="M199 693 L242 611 L305 693 Q309 699 314.5 703.5 Q320 708 327 708 L360 708 Q367 708 369 703.5 Q371 699 366 693 L275 582 Q270 576 264 572 Q258 568 250 568 L225 568 Q218 568 212.5 572 Q207 576 203 583 L140 693 Q136 699 139 703.5 Q142 708 150 708 L181 708 Q188 708 192 703 Q196 698 199 693 Z M90 494 L390 494 Q398 494 401 490.5 Q404 487 403 480 L400 452 Q399 448 397 444 Q395 440 394 438 L92 58 L350 58 Q358 58 361.5 54.5 Q365 51 364 43 L360 15 Q359 7 355 3.5 Q351 0 343 0 L16 0 Q9 0 5.5 3.5 Q2 7 3 15 L7 43 Q8 47 9.5 50.5 Q11 54 13 57 L313 436 L83 436 Q76 436 72.5 439.5 Q69 443 70 451 L73 480 Q74 487 78.5 490.5 Q83 494 90 494 Z " />
<glyph glyph-name="onehalf" unicode="&#xbd;" horiz-adv-x="760" d="M499 47 L672 47 Q677 47 679 44 Q681 41 680 37 L677 10 Q676 4 673 2 Q670 0 665 0 L447 0 Q442 0 439 2 Q436 4 437 10 L449 106 Q452 132 469 148 Q486 164 509 171 L609 203 Q619 206 632 212.5 Q645 219 647 238 L653 286 Q654 292 654 293.5 Q654 295 654 296 Q654 313 640 323 Q626 333 592 333 Q552 333 538 320.5 Q524 308 521 286 L518 263 Q517 258 515 255.5 Q513 253 508 253 L472 253 Q467 253 464.5 255.5 Q462 258 463 263 L467 292 Q471 326 498 352 Q525 378 599 378 Q659 378 685 355.5 Q711 333 711 302 Q711 301 711 299.5 Q711 298 710 292 L703 235 Q699 201 677.5 185.5 Q656 170 640 165 L539 132 Q527 128 517.5 122.5 Q508 117 507 104 L499 47 Z M108 656 L239 681 Q243 682 246.5 680.5 Q250 679 249 672 L210 353 L291 353 Q297 353 299 350 Q301 347 300 343 L297 316 Q296 310 293.5 308 Q291 306 285 306 L66 306 Q61 306 58 308 Q55 310 56 316 L60 343 Q61 348 63.5 350.5 Q66 353 71 353 L153 353 L187 625 L102 609 Q98 608 95.5 610 Q93 612 94 617 L96 644 Q97 649 100 652 Q103 655 108 656 Z M624 673 L230 7 Q226 0 220.5 -4 Q215 -8 207 -8 L175 -8 Q168 -8 167 -2.5 Q166 3 169 7 L563 673 Q567 680 573 684 Q579 688 586 688 L619 688 Q626 688 627 684 Q628 680 624 673 Z " />
<glyph glyph-name="onequarter" unicode="&#xbc;" horiz-adv-x="745" d="M576 364 L482 157 L612 157 L638 364 Q639 369 641 371.5 Q643 374 649 374 L684 374 Q689 374 692 371.5 Q695 369 694 364 L650 10 Q649 5 646.5 2.5 Q644 0 639 0 L603 0 Q597 0 595 2.5 Q593 5 594 10 L607 111 L427 111 Q422 111 419 114 Q416 117 417 121 L419 137 Q420 144 421.5 148 Q423 152 424 155 L520 364 Q522 369 525 371.5 Q528 374 534 374 L569 374 Q576 374 577 371 Q578 368 576 364 Z M108 656 L239 681 Q243 682 246.5 680.5 Q250 679 249 672 L210 353 L291 353 Q297 353 299 350 Q301 347 300 343 L297 316 Q296 310 293.5 308 Q291 306 285 306 L66 306 Q61 306 58 308 Q55 310 56 316 L60 343 Q61 348 63.5 350.5 Q66 353 71 353 L153 353 L187 625 L102 609 Q98 608 95.5 610 Q93 612 94 617 L96 644 Q97 649 100 652 Q103 655 108 656 Z M625 673 L231 7 Q227 0 221.5 -4 Q216 -8 208 -8 L176 -8 Q169 -8 168 -2.5 Q167 3 170 7 L564 673 Q568 680 574 684 Q580 688 587 688 L620 688 Q627 688 628 684 Q629 680 625 673 Z " />
<glyph glyph-name="onesuperior" unicode="&#xb9;" horiz-adv-x="315" d="M121 806 L252 831 Q256 832 259.5 830.5 Q263 829 262 822 L223 503 L304 503 Q310 503 312 500 Q314 497 313 493 L310 466 Q309 460 306.5 458 Q304 456 298 456 L79 456 Q74 456 71 458 Q68 460 69 466 L73 493 Q74 498 76.5 500.5 Q79 503 84 503 L166 503 L200 775 L115 759 Q111 758 108.5 760 Q106 762 107 767 L109 794 Q110 799 113 802 Q116 805 121 806 Z " />
<glyph glyph-name="threequarters" unicode="&#xbe;" horiz-adv-x="746" d="M578 364 L484 157 L614 157 L640 364 Q641 369 643 371.5 Q645 374 651 374 L686 374 Q691 374 694 371.5 Q697 369 696 364 L652 10 Q651 5 648.5 2.5 Q646 0 641 0 L605 0 Q599 0 597 2.5 Q595 5 596 10 L609 111 L429 111 Q424 111 421 114 Q418 117 419 121 L421 137 Q422 144 423.5 148 Q425 152 426 155 L522 364 Q524 369 527 371.5 Q530 374 536 374 L571 374 Q578 374 579 371 Q580 368 578 364 Z M620 673 L226 7 Q222 0 216.5 -4 Q211 -8 203 -8 L171 -8 Q164 -8 163 -2.5 Q162 3 165 7 L559 673 Q563 680 569 684 Q575 688 582 688 L615 688 Q622 688 623 684 Q624 680 620 673 Z M154 522 L196 522 Q234 522 248.5 534.5 Q263 547 267 571 L269 585 Q270 589 270.5 595 Q271 601 271 602 Q271 621 257.5 631 Q244 641 213 641 Q175 641 161 629.5 Q147 618 144 596 L143 589 Q142 583 140 581 Q138 579 132 579 L97 579 Q91 579 89 581.5 Q87 584 88 589 L89 601 Q92 635 119.5 659.5 Q147 684 219 684 Q277 684 302 664 Q327 644 327 615 Q327 614 327 612 Q327 610 326 603 L321 563 Q318 537 306.5 523.5 Q295 510 267 502 Q291 496 301.5 481.5 Q312 467 312 451 Q312 450 312 448.5 Q312 447 311 440 L304 383 Q300 349 273 325.5 Q246 302 174 302 Q115 302 87.5 323 Q60 344 60 375 Q60 376 60 379.5 Q60 383 61 389 L62 398 Q63 404 65.5 406.5 Q68 409 72 409 L108 409 Q113 409 115.5 406.5 Q118 404 117 398 L116 391 Q115 386 115 384 Q115 382 115 381 Q115 365 129.5 355 Q144 345 177 345 Q215 345 231 357 Q247 369 249 391 L254 434 Q255 439 255 441 Q255 443 255 444 Q255 463 241 472 Q227 481 195 481 L149 481 Q144 481 141 483 Q138 485 139 491 L142 513 Q143 518 145.5 520 Q148 522 154 522 Z " />
<glyph glyph-name="threesuperior" unicode="&#xb3;" horiz-adv-x="315" d="M156 672 L198 672 Q236 672 250.5 684.5 Q265 697 269 721 L271 735 Q272 739 272.5 745 Q273 751 273 752 Q273 771 259.5 781 Q246 791 215 791 Q177 791 163 779.5 Q149 768 146 746 L145 739 Q144 733 142 731 Q140 729 134 729 L99 729 Q93 729 91 731.5 Q89 734 90 739 L91 751 Q94 785 121.5 809.5 Q149 834 221 834 Q279 834 304 814 Q329 794 329 765 Q329 764 329 762 Q329 760 328 753 L323 713 Q320 687 308.5 673.5 Q297 660 269 652 Q293 646 303.5 631.5 Q314 617 314 601 Q314 600 314 598.5 Q314 597 313 590 L306 533 Q302 499 275 475.5 Q248 452 176 452 Q117 452 89.5 473 Q62 494 62 525 Q62 526 62 529.5 Q62 533 63 539 L64 548 Q65 554 67.5 556.5 Q70 559 74 559 L110 559 Q115 559 117.5 556.5 Q120 554 119 548 L118 541 Q117 536 117 534 Q117 532 117 531 Q117 515 131.5 505 Q146 495 179 495 Q217 495 233 507 Q249 519 251 541 L256 584 Q257 589 257 591 Q257 593 257 594 Q257 613 243 622 Q229 631 197 631 L151 631 Q146 631 143 633 Q140 635 141 641 L144 663 Q145 668 147.5 670 Q150 672 156 672 Z " />
<glyph glyph-name="twosuperior" unicode="&#xb2;" horiz-adv-x="315" d="M126 503 L299 503 Q304 503 306 500 Q308 497 307 493 L304 466 Q303 460 300 458 Q297 456 292 456 L74 456 Q69 456 66 458 Q63 460 64 466 L76 562 Q79 588 96 604 Q113 620 136 627 L236 659 Q246 662 259 668.5 Q272 675 274 694 L280 742 Q281 748 281 749.5 Q281 751 281 752 Q281 769 267 779 Q253 789 219 789 Q179 789 165 776.5 Q151 764 148 742 L145 719 Q144 714 142 711.5 Q140 709 135 709 L99 709 Q94 709 91.5 711.5 Q89 714 90 719 L94 748 Q98 782 125 808 Q152 834 226 834 Q286 834 312 811.5 Q338 789 338 758 Q338 757 338 755.5 Q338 754 337 748 L330 691 Q326 657 304.5 641.5 Q283 626 267 621 L166 588 Q154 584 144.5 578.5 Q135 573 134 560 L126 503 Z " />
<glyph glyph-name="brokenbar" unicode="&#xa6;" horiz-adv-x="273" d="M164 665 L164 329 Q164 322 160.5 318 Q157 314 150 314 L110 314 Q102 314 98.5 318 Q95 322 95 329 L95 665 Q95 672 98.5 676 Q102 680 110 680 L150 680 Q157 680 160.5 676 Q164 672 164 665 Z M164 140 L164 -196 Q164 -203 160.5 -207 Q157 -211 150 -211 L110 -211 Q102 -211 98.5 -207 Q95 -203 95 -196 L95 140 Q95 147 98.5 151 Q102 155 110 155 L150 155 Q157 155 160.5 151 Q164 147 164 140 Z " />
<glyph glyph-name="minus" unicode="&#x2212;" horiz-adv-x="588" d="M132 363 L532 363 Q539 363 543 359.5 Q547 356 547 348 L547 319 Q547 311 543 307.5 Q539 304 532 304 L132 304 Q125 304 121 307.5 Q117 311 117 319 L117 348 Q117 356 121 359.5 Q125 363 132 363 Z " />
<glyph glyph-name="multiply" unicode="&#xd7;" horiz-adv-x="466" d="M195 345 L78 462 Q72 468 72 472.5 Q72 477 77 482 L98 503 Q103 508 108 508.5 Q113 509 119 503 L236 386 L354 504 Q359 509 364.5 509.5 Q370 510 375 504 L396 482 Q401 477 401 472 Q401 467 396 462 L278 344 L396 226 Q401 221 401 215.5 Q401 210 396 205 L375 184 Q370 179 365 179.5 Q360 180 355 185 L237 303 L120 185 Q115 179 109.5 179.5 Q104 180 99 185 L77 207 Q72 212 72 217 Q72 222 77 227 L195 345 Z " />
<glyph glyph-name="space" unicode="&#x20;" horiz-adv-x="224" d="" />
<glyph glyph-name="exclam" unicode="&#x21;" horiz-adv-x="229" d="M165 390 L131 177 Q130 170 125.5 166 Q121 162 114 162 L85 162 Q77 162 74 166 Q71 170 72 177 L92 390 L125 665 Q126 672 130 676 Q134 680 141 680 L185 680 Q193 680 195.5 676 Q198 672 197 665 L165 390 Z M126 93 L116 15 Q115 7 111.5 3.5 Q108 0 100 0 L59 0 Q51 0 47.5 3.5 Q44 7 45 15 L55 93 Q56 100 60.5 104 Q65 108 72 108 L114 108 Q122 108 124.5 104 Q127 100 126 93 Z " />
<glyph glyph-name="quotedbl" unicode="&#x22;" horiz-adv-x="337" d="M319 665 L292 494 Q291 487 287 483 Q283 479 276 479 L248 479 Q241 479 237.5 482.5 Q234 486 235 494 L250 665 Q251 672 255 676 Q259 680 266 680 L307 680 Q314 680 317 676 Q320 672 319 665 Z M180 665 L153 494 Q152 487 148.5 483 Q145 479 137 479 L109 479 Q102 479 98.5 482.5 Q95 486 96 494 L111 665 Q112 672 116 676 Q120 680 127 680 L168 680 Q175 680 178 676 Q181 672 180 665 Z " />
<glyph glyph-name="numbersign" unicode="&#x23;" horiz-adv-x="585" d="M247 379 L203 270 L355 270 L400 379 L247 379 Z M61 270 L143 270 L187 379 L117 379 Q110 379 106.5 383 Q103 387 104 394 L106 417 Q107 424 111.5 427.5 Q116 431 123 431 L208 431 L247 527 Q250 534 254.5 538 Q259 542 267 542 L298 542 Q305 542 306.5 537.5 Q308 533 306 527 L267 431 L420 431 L458 527 Q461 534 466.5 538 Q472 542 479 542 L509 542 Q517 542 518.5 537.5 Q520 533 518 527 L479 431 L540 431 Q548 431 551 427.5 Q554 424 553 417 L551 394 Q550 387 546 383 Q542 379 534 379 L459 379 L414 270 L479 270 Q486 270 489.5 266.5 Q493 263 492 256 L490 234 Q489 227 484.5 223 Q480 219 473 219 L394 219 L356 125 Q353 118 348.5 113.5 Q344 109 337 109 L305 109 Q298 109 295.5 113.5 Q293 118 296 125 L334 219 L182 219 L144 125 Q141 118 136.5 113.5 Q132 109 125 109 L93 109 Q86 109 83.5 113.5 Q81 118 84 125 L122 219 L55 219 Q48 219 45 223 Q42 227 43 234 L45 256 Q46 263 50 266.5 Q54 270 61 270 Z " />
<glyph glyph-name="dollar" unicode="&#x24;" horiz-adv-x="478" d="M223 0 L183 0 Q176 0 172.5 4 Q169 8 170 15 L178 86 Q109 93 76 121 Q43 149 43 184 Q43 186 43 189.5 Q43 193 44 200 L47 225 Q48 232 52 235.5 Q56 239 63 239 L100 239 Q106 239 109 236 Q112 233 111 225 L109 203 Q108 196 108 193.5 Q108 191 108 190 Q108 165 136.5 151 Q165 137 217 137 Q274 137 306.5 153 Q339 169 343 199 L348 234 Q349 241 349 244.5 Q349 248 349 250 Q349 266 334 277.5 Q319 289 297 296 L153 345 Q122 355 102 378 Q82 401 82 432 Q82 434 82 437.5 Q82 441 83 448 L88 485 Q93 526 127.5 557.5 Q162 589 241 594 L250 665 Q251 672 255 676 Q259 680 267 680 L307 680 Q314 680 317 676 Q320 672 319 665 L310 593 Q376 586 405.5 557.5 Q435 529 435 494 Q435 490 435 487 Q435 484 434 476 L431 452 Q430 445 426.5 442 Q423 439 416 439 L379 439 Q372 439 369 442 Q366 445 367 452 L370 473 Q371 480 371 484 Q371 488 371 491 Q371 513 346.5 528.5 Q322 544 268 544 Q212 544 184 529 Q156 514 152 484 L149 460 Q148 453 148 451 Q148 449 148 448 Q148 432 158 419 Q168 406 191 399 L339 350 Q376 337 395 315.5 Q414 294 414 268 Q414 264 414 259.5 Q414 255 413 247 L407 193 Q403 153 365 122.5 Q327 92 247 86 L239 15 Q238 8 234 4 Q230 0 223 0 Z " />
<glyph glyph-name="percent" unicode="&#x25;" horiz-adv-x="739" d="M601 673 L207 7 Q203 0 197.5 -4 Q192 -8 184 -8 L152 -8 Q145 -8 144 -2.5 Q143 3 146 7 L540 673 Q544 680 550 684 Q556 688 563 688 L596 688 Q603 688 604 684 Q605 680 601 673 Z M335 594 L313 414 Q309 380 282.5 353.5 Q256 327 183 327 Q120 327 93 349.5 Q66 372 66 403 Q66 404 66 406.5 Q66 409 67 414 L90 597 Q94 632 121 658 Q148 684 221 684 Q283 684 309.5 661.5 Q336 639 336 608 Q336 607 336 604 Q336 601 335 594 Z M125 430 Q124 423 124 419 Q124 415 124 414 Q124 395 137.5 384.5 Q151 374 186 374 Q221 374 237.5 387 Q254 400 257 422 L277 581 Q278 587 278.5 592.5 Q279 598 279 599 Q279 617 264 627 Q249 637 218 637 Q178 637 163 624.5 Q148 612 145 589 L125 430 Z M684 263 L662 83 Q658 49 631.5 22.5 Q605 -4 532 -4 Q469 -4 442 18.5 Q415 41 415 72 Q415 73 415 75.5 Q415 78 416 83 L439 266 Q443 301 470 327 Q497 353 570 353 Q632 353 658.5 330.5 Q685 308 685 277 Q685 276 685 273 Q685 270 684 263 Z M474 99 Q473 92 473 88 Q473 84 473 83 Q473 64 486.5 53.5 Q500 43 535 43 Q570 43 586.5 56 Q603 69 606 91 L626 250 Q627 256 627.5 261.5 Q628 267 628 268 Q628 286 613 296 Q598 306 567 306 Q527 306 512 293.5 Q497 281 494 258 L474 99 Z " />
<glyph glyph-name="ampersand" unicode="&#x26;" horiz-adv-x="649" d="M506 137 Q499 77 445.5 34.5 Q392 -8 262 -8 Q146 -8 98 28 Q50 64 50 118 Q50 120 50 125 Q50 130 51 137 L65 245 Q71 290 93.5 319 Q116 348 173 361 Q130 372 114 395 Q98 418 98 449 Q98 453 98.5 459.5 Q99 466 100 472 L109 545 Q116 605 159 646.5 Q202 688 321 688 Q402 688 454 659.5 Q506 631 506 568 Q506 567 506 564 Q506 561 505 554 L502 521 Q501 513 497 510 Q493 507 486 507 L445 507 Q437 507 434 510.5 Q431 514 432 521 L433 534 Q434 542 434.5 548 Q435 554 435 555 Q435 601 397 615 Q359 629 316 629 Q259 629 221.5 609.5 Q184 590 177 534 L171 482 Q170 475 169.5 469.5 Q169 464 169 460 Q169 426 194.5 407.5 Q220 389 289 389 L612 389 Q620 389 623 385 Q626 381 625 374 L621 344 Q620 337 616 333.5 Q612 330 605 330 L530 330 L506 137 Z M268 51 Q352 51 392.5 77 Q433 103 438 146 L461 330 L276 330 Q195 330 166.5 305.5 Q138 281 133 237 L122 146 Q121 139 121 136 Q121 133 121 131 Q121 92 159 71.5 Q197 51 268 51 Z " />
<glyph glyph-name="quotesingle" unicode="&#x27;" horiz-adv-x="199" d="M180 665 L153 494 Q152 487 148.5 483 Q145 479 137 479 L109 479 Q102 479 98.5 482.5 Q95 486 96 494 L111 665 Q112 672 116 676 Q120 680 127 680 L168 680 Q175 680 178 676 Q181 672 180 665 Z " />
<glyph glyph-name="parenleft" unicode="&#x28;" horiz-adv-x="310" d="M29 -84 L111 579 Q118 642 160 675 Q202 708 305 708 L319 708 Q325 708 329 705 Q333 702 332 693 L329 664 Q328 656 324 652.5 Q320 649 312 649 L306 649 Q240 649 213 628 Q186 607 182 572 L101 -78 Q100 -85 100 -89 Q100 -93 100 -94 Q100 -124 123.5 -141.5 Q147 -159 207 -159 L213 -159 Q220 -159 223.5 -162.5 Q227 -166 226 -174 L222 -203 Q221 -211 217 -214.5 Q213 -218 206 -218 L200 -218 Q110 -218 68.5 -186.5 Q27 -155 27 -104 Q27 -100 27.5 -94.5 Q28 -89 29 -84 Z " />
<glyph glyph-name="parenright" unicode="&#x29;" horiz-adv-x="311" d="M271 574 L189 -89 Q182 -152 140 -185 Q98 -218 -5 -218 L-19 -218 Q-25 -218 -29 -215 Q-33 -212 -32 -203 L-29 -174 Q-28 -166 -23.5 -162.5 Q-19 -159 -12 -159 L-7 -159 Q59 -159 87 -138 Q115 -117 119 -82 L199 568 Q200 575 200 579 Q200 583 200 585 Q200 615 176.5 632 Q153 649 93 649 L87 649 Q80 649 77 652.5 Q74 656 75 664 L78 693 Q79 701 83 704.5 Q87 708 94 708 L99 708 Q189 708 231 676.5 Q273 645 273 594 Q273 590 272.5 584.5 Q272 579 271 574 Z " />
<glyph glyph-name="asterisk" unicode="&#x2a;" horiz-adv-x="454" d="M211 365 L232 494 L112 421 Q105 417 100.5 418.5 Q96 420 93 427 L85 446 Q82 453 84 457.5 Q86 462 93 466 L212 527 L108 590 Q101 594 100.5 598 Q100 602 104 609 L116 628 Q120 635 125.5 636.5 Q131 638 137 634 L240 561 L252 695 Q253 703 257 706.5 Q261 710 268 710 L291 710 Q298 710 301 706 Q304 702 303 695 L281 562 L399 635 Q406 639 410.5 638 Q415 637 418 630 L428 609 Q431 603 429 598.5 Q427 594 419 590 L299 527 L404 466 Q411 462 411.5 457 Q412 452 408 446 L396 427 Q392 421 387 419 Q382 417 375 422 L273 493 L262 365 Q261 357 257 353.5 Q253 350 246 350 L224 350 Q217 350 213.5 354 Q210 358 211 365 Z " />
<glyph glyph-name="plus" unicode="&#x2b;" horiz-adv-x="512" d="M232 143 L232 309 L66 309 Q59 309 55.5 313 Q52 317 52 324 L52 354 Q52 362 55.5 365.5 Q59 369 66 369 L232 369 L232 534 Q232 542 235.5 546 Q239 550 246 550 L275 550 Q282 550 286 546 Q290 542 290 534 L290 369 L457 369 Q464 369 468 365.5 Q472 362 472 354 L472 324 Q472 317 468 313 Q464 309 457 309 L290 309 L290 143 Q290 136 286 132.5 Q282 129 275 129 L246 129 Q239 129 235.5 132.5 Q232 136 232 143 Z " />
<glyph glyph-name="comma" unicode="&#x2c;" horiz-adv-x="208" d="M39 32 L47 93 Q48 100 52 104 Q56 108 63 108 L105 108 Q112 108 115 104 Q118 100 117 93 L109 29 Q103 -18 75 -48 Q47 -78 -6 -93 Q-13 -95 -17.5 -93 Q-22 -91 -23 -84 L-30 -55 Q-31 -48 -28.5 -43.5 Q-26 -39 -18 -36 Q12 -24 24 -7.5 Q36 9 39 32 Z " />
<glyph glyph-name="hyphen" unicode="&#x2d;" horiz-adv-x="430" d="M80 318 L348 318 Q356 318 359.5 314.5 Q363 311 363 304 L363 275 Q363 267 359.5 263.5 Q356 260 348 260 L80 260 Q73 260 69 263.5 Q65 267 65 275 L65 304 Q65 311 69 314.5 Q73 318 80 318 Z " />
<glyph glyph-name="period" unicode="&#x2e;" horiz-adv-x="206" d="M116 93 L106 15 Q105 7 101.5 3.5 Q98 0 91 0 L49 0 Q42 0 39 3.5 Q36 7 37 15 L46 93 Q47 100 51 104 Q55 108 62 108 L104 108 Q111 108 114 104 Q117 100 116 93 Z " />
<glyph glyph-name="slash" unicode="&#x2f;" horiz-adv-x="357" d="M373 684 L56 -133 Q53 -140 48.5 -144 Q44 -148 37 -148 L-9 -148 Q-16 -148 -18 -144 Q-20 -140 -18 -133 L298 684 Q300 691 304.5 695 Q309 699 317 699 L363 699 Q370 699 373 695 Q376 691 373 684 Z " />
<glyph glyph-name="zero" unicode="0" horiz-adv-x="564" d="M58 141 L107 542 Q114 602 159.5 645 Q205 688 328 688 Q435 688 477.5 651.5 Q520 615 520 564 Q520 560 520 553.5 Q520 547 519 539 L470 138 Q463 78 417 35 Q371 -8 248 -8 Q141 -8 98.5 28 Q56 64 56 115 Q56 120 56.5 127.5 Q57 135 58 141 Z M400 149 L447 527 Q448 535 448 540 Q448 545 448 548 Q448 585 420.5 606 Q393 627 323 627 Q245 627 213 600.5 Q181 574 176 531 L130 155 Q129 149 128.5 142.5 Q128 136 128 132 Q128 95 155.5 74 Q183 53 253 53 Q331 53 363 79.5 Q395 106 400 149 Z " />
<glyph glyph-name="one" unicode="1" horiz-adv-x="496" d="M112 631 L334 683 Q339 684 343.5 681.5 Q348 679 347 670 L271 61 L429 61 Q437 61 440.5 57.5 Q444 54 443 47 L439 15 Q438 7 434 3.5 Q430 0 422 0 L34 0 Q27 0 24 3.5 Q21 7 22 15 L25 47 Q26 54 30 57.5 Q34 61 41 61 L200 61 L269 612 L105 570 Q98 569 94.5 572 Q91 575 92 583 L95 615 Q96 622 100.5 626 Q105 630 112 631 Z " />
<glyph glyph-name="two" unicode="2" horiz-adv-x="539" d="M119 61 L433 61 Q441 61 444 57 Q447 53 446 47 L443 15 Q442 7 437.5 3.5 Q433 0 426 0 L55 0 Q47 0 44.5 4 Q42 8 43 15 L65 194 Q72 248 107 271.5 Q142 295 164 302 L354 363 Q368 367 392 382.5 Q416 398 420 432 L433 529 Q434 536 434.5 541.5 Q435 547 435 551 Q435 586 407.5 607 Q380 628 311 628 Q232 628 202 601.5 Q172 575 166 531 L160 485 Q159 477 155 473 Q151 469 144 469 L103 469 Q96 469 93 473.5 Q90 478 91 485 L98 542 Q105 602 149 645 Q193 688 316 688 Q423 688 464.5 652 Q506 616 506 565 Q506 558 505.5 551.5 Q505 545 504 539 L491 431 Q484 370 449.5 343.5 Q415 317 387 308 L209 253 Q187 246 163 233.5 Q139 221 135 188 L119 61 Z " />
<glyph glyph-name="three" unicode="3" horiz-adv-x="538" d="M190 389 L272 389 Q351 389 379 413.5 Q407 438 413 482 L420 534 Q421 540 421.5 544.5 Q422 549 422 553 Q422 588 396 608.5 Q370 629 303 629 Q228 629 197 603 Q166 577 163 534 L162 521 Q161 514 157 510.5 Q153 507 146 507 L106 507 Q98 507 95 510.5 Q92 514 93 521 L95 543 Q100 602 144.5 645 Q189 688 310 688 Q414 688 454 653.5 Q494 619 494 568 Q494 562 493.5 555 Q493 548 492 541 L483 471 Q478 428 457 401 Q436 374 384 361 Q430 349 446.5 325 Q463 301 463 268 Q463 261 462.5 254.5 Q462 248 461 241 L448 134 Q441 74 396 33 Q351 -8 230 -8 Q123 -8 81.5 27.5 Q40 63 40 115 Q40 119 40 124 Q40 129 41 137 L43 159 Q44 166 48.5 169.5 Q53 173 60 173 L100 173 Q109 173 111 169 Q113 165 112 159 L111 146 Q110 139 110 135 Q110 131 110 127 Q110 92 137.5 71.5 Q165 51 234 51 Q311 51 343 77 Q375 103 380 146 L391 237 Q392 244 392 249.5 Q392 255 392 259 Q392 292 366.5 311 Q341 330 272 330 L182 330 Q175 330 171.5 333.5 Q168 337 169 344 L172 374 Q173 382 177.5 385.5 Q182 389 190 389 Z " />
<glyph glyph-name="four" unicode="4" horiz-adv-x="531" d="M300 665 L114 276 L378 276 L426 665 Q427 672 431 676 Q435 680 443 680 L485 680 Q492 680 495 676 Q498 672 497 665 L418 15 Q417 8 413 4 Q409 0 402 0 L360 0 Q352 0 349 4 Q346 8 347 15 L371 215 L46 215 Q39 215 35.5 218.5 Q32 222 33 229 L36 258 Q37 265 38.5 269 Q40 273 41 277 L228 665 Q232 672 236.5 676 Q241 680 248 680 L292 680 Q299 680 301 676 Q303 672 300 665 Z " />
<glyph glyph-name="five" unicode="5" horiz-adv-x="523" d="M141 680 L475 680 Q482 680 485.5 677 Q489 674 488 665 L484 634 Q483 626 479 622.5 Q475 619 468 619 L192 619 L166 415 L273 415 Q364 415 411.5 383 Q459 351 459 297 Q459 293 458.5 286 Q458 279 457 272 L441 136 Q434 76 391 33.5 Q348 -9 226 -9 Q119 -9 81 27 Q43 63 43 114 Q43 120 43 124.5 Q43 129 44 136 L47 158 Q48 166 51.5 169.5 Q55 173 62 173 L103 173 Q110 173 113.5 169.5 Q117 166 116 158 L115 146 Q114 139 114 134.5 Q114 130 114 126 Q114 92 138.5 71.5 Q163 51 232 51 Q310 51 337.5 76.5 Q365 102 370 146 L384 261 Q385 274 385.5 277.5 Q386 281 386 283 Q386 313 361 334.5 Q336 356 266 356 L102 356 Q95 356 92 360 Q89 364 90 371 L126 665 Q127 672 130.5 676 Q134 680 141 680 Z " />
<glyph glyph-name="six" unicode="6" horiz-adv-x="547" d="M58 138 L108 547 Q115 599 157 643.5 Q199 688 322 688 Q429 688 467.5 650.5 Q506 613 506 567 Q506 565 506 561 Q506 557 505 547 L503 529 Q502 522 498 518 Q494 514 487 514 L446 514 Q439 514 435.5 517.5 Q432 521 433 529 L434 538 Q435 545 435 547.5 Q435 550 435 553 Q435 584 411.5 606.5 Q388 629 317 629 Q239 629 210 602 Q181 575 177 538 L154 355 Q172 377 207.5 391 Q243 405 300 405 Q399 405 439 369 Q479 333 479 282 Q479 278 478.5 270.5 Q478 263 477 256 L463 138 Q456 78 411 35 Q366 -8 244 -8 Q138 -8 97 27.5 Q56 63 56 114 Q56 120 56.5 126.5 Q57 133 58 138 Z M393 147 L405 250 Q406 257 406 262.5 Q406 268 406 270 Q406 304 379.5 325 Q353 346 284 346 Q209 346 177.5 321 Q146 296 142 258 L129 151 Q128 144 127.5 138.5 Q127 133 127 128 Q127 93 153.5 72 Q180 51 249 51 Q328 51 358 77.5 Q388 104 393 147 Z " />
<glyph glyph-name="seven" unicode="7" horiz-adv-x="498" d="M92 680 L502 680 Q510 680 513.5 676.5 Q517 673 516 665 L512 635 Q511 631 509 626.5 Q507 622 506 619 L176 15 Q172 9 168 4.5 Q164 0 157 0 L106 0 Q99 0 96 4 Q93 8 97 15 L428 619 L86 619 Q79 619 75 622.5 Q71 626 72 634 L76 665 Q77 673 81 676.5 Q85 680 92 680 Z " />
<glyph glyph-name="eight" unicode="8" horiz-adv-x="544" d="M101 480 L109 542 Q116 602 155.5 645 Q195 688 317 688 Q422 688 460.5 653 Q499 618 499 567 Q499 562 498.5 555.5 Q498 549 497 542 L489 477 Q484 432 461.5 403.5 Q439 375 383 362 Q431 350 450 324.5 Q469 299 469 265 Q469 261 469 256 Q469 251 468 243 L455 138 Q448 78 404.5 35 Q361 -8 238 -8 Q131 -8 91 28 Q51 64 51 115 Q51 119 51 124.5 Q51 130 52 138 L65 246 Q70 290 94.5 319.5 Q119 349 176 362 Q133 372 116 397 Q99 422 99 454 Q99 459 99.5 466 Q100 473 101 480 Z M421 487 L427 533 Q428 540 428.5 544.5 Q429 549 429 554 Q429 588 404.5 608.5 Q380 629 312 629 Q234 629 208.5 602.5 Q183 576 177 533 L171 487 Q170 480 170 475 Q170 470 170 466 Q170 431 193 410.5 Q216 390 284 390 Q362 390 388.5 416.5 Q415 443 421 487 Z M386 147 L397 233 Q398 241 398 246.5 Q398 252 398 255 Q398 290 372 311 Q346 332 276 332 Q198 332 168.5 306 Q139 280 134 236 L123 147 Q122 140 122 135.5 Q122 131 122 127 Q122 93 147.5 72 Q173 51 242 51 Q321 51 351 77.5 Q381 104 386 147 Z " />
<glyph glyph-name="nine" unicode="9" horiz-adv-x="546" d="M165 533 L153 430 Q152 424 152 419.5 Q152 415 152 412 Q152 376 178.5 355 Q205 334 275 334 Q349 334 380.5 359 Q412 384 416 422 L429 529 Q430 536 430.5 542 Q431 548 431 552 Q431 587 405 608 Q379 629 310 629 Q231 629 200.5 602.5 Q170 576 165 533 Z M501 542 L452 133 Q446 81 404.5 36.5 Q363 -8 239 -8 Q132 -8 92.5 29.5 Q53 67 53 113 Q53 115 53 119 Q53 123 54 133 L56 151 Q57 158 61 162 Q65 166 72 166 L113 166 Q120 166 123 162.5 Q126 159 125 151 L124 142 Q123 135 123 131 Q123 127 123 126 Q123 95 148 73 Q173 51 243 51 Q321 51 349.5 78 Q378 105 382 142 L405 325 Q386 303 351 289 Q316 275 259 275 Q160 275 120 311 Q80 347 80 398 Q80 403 80.5 410.5 Q81 418 82 424 L96 542 Q103 602 147.5 645 Q192 688 314 688 Q420 688 461.5 652.5 Q503 617 503 566 Q503 562 502.5 555.5 Q502 549 501 542 Z " />
<glyph glyph-name="colon" unicode="&#x3a;" horiz-adv-x="219" d="M169 479 L159 400 Q158 393 154 389.5 Q150 386 143 386 L101 386 Q94 386 91 389.5 Q88 393 89 400 L98 479 Q99 486 103.5 490 Q108 494 115 494 L156 494 Q164 494 167 490 Q170 486 169 479 Z M121 93 L112 15 Q111 7 106.5 3.5 Q102 0 95 0 L54 0 Q46 0 43 3.5 Q40 7 41 15 L50 93 Q51 100 55.5 104 Q60 108 67 108 L109 108 Q116 108 119 104 Q122 100 121 93 Z " />
<glyph glyph-name="semicolon" unicode="&#x3b;" horiz-adv-x="245" d="M185 479 L176 400 Q175 393 170.5 389.5 Q166 386 159 386 L118 386 Q111 386 107.5 389.5 Q104 393 105 400 L114 479 Q115 486 119.5 490 Q124 494 131 494 L173 494 Q180 494 183 490 Q186 486 185 479 Z M60 32 L67 93 Q68 101 72 104.5 Q76 108 83 108 L126 108 Q133 108 136 104 Q139 100 138 93 L129 29 Q122 -18 94.5 -48 Q67 -78 15 -93 Q8 -95 4 -93 Q0 -91 -2 -84 L-10 -55 Q-11 -48 -8 -43.5 Q-5 -39 2 -36 Q32 -24 44.5 -7.5 Q57 9 60 32 Z " />
<glyph glyph-name="less" unicode="&#x3c;" horiz-adv-x="510" d="M418 469 L121 340 L418 211 Q425 208 429 205 Q433 202 433 195 L433 155 Q433 147 429 143 Q425 139 418 142 L66 301 Q60 304 56 307 Q52 310 52 318 L52 363 Q52 370 56 373 Q60 376 66 379 L418 538 Q425 541 429 537 Q433 533 433 525 L433 485 Q433 478 429 475 Q425 472 418 469 Z " />
<glyph glyph-name="equal" unicode="&#x3d;" horiz-adv-x="612" d="M109 450 L509 450 Q516 450 519.5 446.5 Q523 443 523 436 L523 406 Q523 398 519.5 394.5 Q516 391 509 391 L109 391 Q102 391 98 394.5 Q94 398 94 406 L94 436 Q94 443 98 446.5 Q102 450 109 450 Z M109 271 L509 271 Q516 271 519.5 267.5 Q523 264 523 257 L523 227 Q523 220 519.5 216.5 Q516 213 509 213 L109 213 Q102 213 98 216.5 Q94 220 94 227 L94 257 Q94 264 98 267.5 Q102 271 109 271 Z " />
<glyph glyph-name="greater" unicode="&#x3e;" horiz-adv-x="498" d="M390 340 L92 468 Q85 471 81.5 474.5 Q78 478 78 485 L78 526 Q78 534 81.5 538 Q85 542 92 539 L445 380 Q451 377 454.5 373.5 Q458 370 458 363 L458 317 Q458 309 454.5 306 Q451 303 445 300 L92 141 Q85 138 81.5 142 Q78 146 78 154 L78 195 Q78 203 81.5 206 Q85 209 92 212 L390 340 Z " />
<glyph glyph-name="question" unicode="&#x3f;" horiz-adv-x="506" d="M188 177 L198 255 Q204 300 230.5 320.5 Q257 341 276 351 L350 387 Q363 394 384.5 412 Q406 430 410 464 L419 531 Q420 538 420 542.5 Q420 547 420 551 Q420 585 391.5 606.5 Q363 628 292 628 Q214 628 181 601.5 Q148 575 142 531 L136 485 Q135 477 131 473 Q127 469 120 469 L79 469 Q72 469 69 473 Q66 477 67 485 L74 542 Q81 602 127.5 645 Q174 688 297 688 Q405 688 448 650 Q491 612 491 561 Q491 558 491 552 Q491 546 490 539 L481 463 Q474 403 440.5 375.5 Q407 348 382 336 L326 310 Q308 302 290 286 Q272 270 268 239 L259 177 Q258 170 254.5 166 Q251 162 243 162 L201 162 Q193 162 190 166 Q187 170 188 177 Z M249 93 L240 15 Q239 7 235 3.5 Q231 0 223 0 L181 0 Q174 0 171 3 Q168 6 169 15 L178 92 Q179 100 183 104 Q187 108 194 108 L237 108 Q245 108 247.5 104 Q250 100 249 93 Z " />
<glyph glyph-name="at" unicode="&#x40;" horiz-adv-x="819" d="M542 -122 L360 -122 Q172 -122 107.5 -76.5 Q43 -31 43 31 Q43 40 44 50.5 Q45 61 46 68 L93 449 Q101 518 169.5 571 Q238 624 448 624 Q637 624 701.5 579 Q766 534 766 472 Q766 466 765.5 459 Q765 452 764 445 L729 165 Q722 107 690 70 Q658 33 585 33 Q539 33 512.5 50.5 Q486 68 479 97 Q457 81 413 57 Q369 33 312 33 Q257 33 231 57.5 Q205 82 205 122 Q205 131 206 141 Q207 151 209 161 L247 330 Q260 388 293.5 423 Q327 458 397 458 Q443 458 479 438 Q515 418 534 402 L543 436 Q545 443 549 446.5 Q553 450 560 450 L595 450 Q602 450 605 446 Q608 442 607 436 L548 177 Q546 167 544.5 156.5 Q543 146 543 138 Q543 114 555.5 100 Q568 86 593 86 Q627 86 643 111 Q659 136 663 173 L696 442 Q697 447 697 452.5 Q697 458 697 461 Q697 508 644 537.5 Q591 567 443 567 Q283 567 225 533.5 Q167 500 160 446 L113 67 Q112 62 111.5 55.5 Q111 49 111 42 Q111 -7 164 -35.5 Q217 -64 366 -64 L549 -64 Q558 -64 560.5 -68 Q563 -72 562 -78 L559 -107 Q558 -114 553.5 -118 Q549 -122 542 -122 Z M312 318 L280 172 Q279 166 277.5 157.5 Q276 149 276 143 Q276 120 291.5 108 Q307 96 344 96 Q385 96 420.5 114 Q456 132 475 145 Q475 147 476 152 Q477 157 478 163 L519 345 Q506 358 479.5 377 Q453 396 410 396 Q361 396 340 372.5 Q319 349 312 318 Z " />
<glyph glyph-name="A" unicode="A" horiz-adv-x="532" d="M359 250 L315 484 Q309 515 307 550.5 Q305 586 304 607 Q301 596 288 553 Q275 510 265 486 L162 250 L359 250 Z M293 680 L336 680 Q343 680 347 676 Q351 672 352 665 L472 15 Q473 8 470 4 Q467 0 460 0 L417 0 Q409 0 405 4 Q401 8 400 15 L368 193 L139 193 L62 15 Q59 8 55 4 Q51 0 44 0 L3 0 Q-5 0 -7.5 4 Q-10 8 -7 15 L272 665 Q275 672 280 676 Q285 680 293 680 Z " />
<glyph glyph-name="B" unicode="B" horiz-adv-x="581" d="M272 0 L71 0 Q65 0 60.5 3 Q56 6 57 15 L137 665 Q138 672 142.5 676 Q147 680 154 680 L324 680 Q434 680 479.5 644.5 Q525 609 525 556 Q525 552 525 547.5 Q525 543 524 534 L517 472 Q513 429 488 400 Q463 371 412 356 Q465 343 490.5 313.5 Q516 284 516 247 Q516 243 516 238.5 Q516 234 515 227 L505 141 Q498 82 447.5 41 Q397 0 272 0 Z M320 621 L203 621 L173 378 L299 378 Q371 378 406.5 404 Q442 430 447 473 L453 525 Q454 532 454 535.5 Q454 539 454 543 Q454 580 423 600.5 Q392 621 320 621 Z M310 322 L166 322 L134 59 L277 59 Q356 59 393 84.5 Q430 110 435 153 L444 223 Q445 230 445 233.5 Q445 237 445 241 Q445 276 415 299 Q385 322 310 322 Z " />
<glyph glyph-name="C" unicode="C" horiz-adv-x="553" d="M490 202 L482 138 Q475 78 427 35 Q379 -8 254 -8 Q144 -8 101 28.5 Q58 65 58 117 Q58 122 58.5 128.5 Q59 135 60 141 L109 542 Q116 602 163.5 645 Q211 688 336 688 Q446 688 489 651.5 Q532 615 532 563 Q532 558 532 553 Q532 548 531 539 L525 491 Q524 483 520.5 479 Q517 475 509 475 L468 475 Q461 475 458 479.5 Q455 484 456 491 L461 528 Q462 535 462 539 Q462 543 462 547 Q462 584 432.5 605.5 Q403 627 331 627 Q252 627 218 600.5 Q184 574 179 531 L133 153 Q132 148 132 142.5 Q132 137 132 133 Q132 96 160.5 74.5 Q189 53 261 53 Q340 53 374.5 79.5 Q409 106 414 149 L420 202 Q421 209 425 213 Q429 217 437 217 L477 217 Q485 217 488 213 Q491 209 490 202 Z " />
<glyph glyph-name="D" unicode="D" horiz-adv-x="602" d="M276 0 L69 0 Q63 0 59.5 4 Q56 8 57 15 L137 665 Q138 672 142 676 Q146 680 153 680 L352 680 Q464 680 509.5 642.5 Q555 605 555 552 Q555 548 555 541.5 Q555 535 554 527 L507 146 Q500 86 450.5 43 Q401 0 276 0 Z M348 619 L203 619 L134 61 L279 61 Q359 61 395.5 87.5 Q432 114 437 157 L481 517 Q482 523 482.5 528.5 Q483 534 483 537 Q483 575 452.5 597 Q422 619 348 619 Z " />
<glyph glyph-name="E" unicode="E" horiz-adv-x="521" d="M424 0 L70 0 Q63 0 59.5 4 Q56 8 57 15 L137 665 Q138 672 142.5 676 Q147 680 154 680 L495 680 Q502 680 505.5 676.5 Q509 673 508 665 L504 634 Q503 626 499 622.5 Q495 619 488 619 L203 619 L175 386 L442 386 Q449 386 452 382.5 Q455 379 454 371 L451 342 Q450 334 445.5 330.5 Q441 327 434 327 L167 327 L134 61 L430 61 Q438 61 441.5 57.5 Q445 54 444 47 L440 15 Q439 7 435.5 3.5 Q432 0 424 0 Z " />
<glyph glyph-name="F" unicode="F" horiz-adv-x="532" d="M154 680 L521 680 Q528 680 531.5 676.5 Q535 673 534 665 L530 634 Q529 626 525 622.5 Q521 619 514 619 L203 619 L174 385 L466 385 Q473 385 476.5 381 Q480 377 479 370 L475 338 Q474 331 470 327 Q466 323 459 323 L167 323 L128 15 Q127 8 124 4 Q121 0 113 0 L71 0 Q64 0 60 4 Q56 8 57 15 L137 665 Q138 672 142.5 676 Q147 680 154 680 Z " />
<glyph glyph-name="G" unicode="G" horiz-adv-x="571" d="M302 327 L490 327 Q499 327 501.5 323.5 Q504 320 503 313 L482 138 Q475 78 427 35 Q379 -8 254 -8 Q144 -8 101 28.5 Q58 65 58 117 Q58 122 58.5 128.5 Q59 135 60 141 L109 542 Q116 602 163.5 645 Q211 688 336 688 Q446 688 489 651 Q532 614 532 561 Q532 557 532 551.5 Q532 546 531 538 L526 494 Q525 487 521 483.5 Q517 480 509 480 L469 480 Q462 480 458.5 483.5 Q455 487 456 494 L461 531 Q462 538 462 541.5 Q462 545 462 548 Q462 584 433 605.5 Q404 627 332 627 Q254 627 219 600.5 Q184 574 179 531 L133 153 Q132 148 131.5 142.5 Q131 137 131 133 Q131 96 159.5 74.5 Q188 53 260 53 Q340 53 374 79 Q408 105 413 148 L428 266 L295 266 Q288 266 284.5 270 Q281 274 282 281 L286 313 Q287 320 291 323.5 Q295 327 302 327 Z " />
<glyph glyph-name="H" unicode="H" horiz-adv-x="614" d="M208 665 L175 390 L465 390 L499 665 Q500 672 504 676 Q508 680 516 680 L558 680 Q565 680 568 676 Q571 672 570 665 L490 15 Q489 8 485.5 4 Q482 0 475 0 L433 0 Q425 0 421.5 4 Q418 8 419 15 L458 330 L168 330 L128 15 Q127 8 124 4 Q121 0 113 0 L71 0 Q64 0 60 4 Q56 8 57 15 L137 665 Q138 672 142.5 676 Q147 680 154 680 L196 680 Q204 680 206.5 676 Q209 672 208 665 Z " />
<glyph glyph-name="I" unicode="I" horiz-adv-x="252" d="M208 665 L128 15 Q127 8 124 4 Q121 0 113 0 L71 0 Q64 0 60 4 Q56 8 57 15 L137 665 Q138 672 142.5 676 Q147 680 154 680 L196 680 Q204 680 206.5 676 Q209 672 208 665 Z " />
<glyph glyph-name="J" unicode="J" horiz-adv-x="497" d="M84 183 L80 151 Q79 145 78.5 139 Q78 133 78 129 Q78 95 102.5 74 Q127 53 190 53 Q261 53 288 79.5 Q315 106 320 149 L384 665 Q385 672 388.5 676 Q392 680 400 680 L443 680 Q450 680 453 676 Q456 672 455 665 L391 138 Q384 78 342.5 35 Q301 -8 185 -8 Q86 -8 46.5 28 Q7 64 7 115 Q7 121 7.5 129 Q8 137 9 144 L14 183 Q15 191 19 195 Q23 199 31 199 L72 199 Q80 199 82.5 194.5 Q85 190 84 183 Z " />
<glyph glyph-name="K" unicode="K" horiz-adv-x="548" d="M260 345 L496 15 Q500 10 497.5 5 Q495 0 488 0 L435 0 Q427 0 421.5 4.5 Q416 9 412 15 L198 313 L165 313 L128 15 Q127 8 124 4 Q121 0 113 0 L71 0 Q63 0 59.5 3.5 Q56 7 57 15 L137 665 Q138 673 142 676.5 Q146 680 154 680 L196 680 Q204 680 206.5 676 Q209 672 208 665 L172 367 L201 367 L469 666 Q474 671 480.5 675.5 Q487 680 495 680 L543 680 Q550 680 551.5 675 Q553 670 548 665 L260 345 Z " />
<glyph glyph-name="L" unicode="L" horiz-adv-x="473" d="M208 665 L134 61 L414 61 Q421 61 424.5 57.5 Q428 54 427 47 L423 15 Q422 7 418.5 3.5 Q415 0 407 0 L69 0 Q62 0 59 4 Q56 8 57 15 L137 665 Q138 672 142.5 676 Q147 680 154 680 L196 680 Q204 680 206.5 676 Q209 672 208 665 Z " />
<glyph glyph-name="M" unicode="M" horiz-adv-x="725" d="M682 665 L602 15 Q601 8 597.5 4 Q594 0 587 0 L546 0 Q539 0 535.5 4 Q532 8 533 15 L597 531 Q592 518 584 500 Q576 482 569 469 L381 119 Q377 112 371.5 108 Q366 104 359 104 L324 104 Q315 104 311 108 Q307 112 305 119 L198 478 Q196 485 192.5 499.5 Q189 514 187 530 L124 15 Q123 8 119.5 4 Q116 0 109 0 L70 0 Q63 0 59.5 4 Q56 8 57 15 L137 665 Q138 672 141.5 676 Q145 680 153 680 L190 680 Q195 680 198.5 678 Q202 676 203 672 L336 230 Q339 220 343.5 205 Q348 190 350 178 Q353 186 360 201.5 Q367 217 374 229 L614 672 Q616 676 619.5 678 Q623 680 628 680 L670 680 Q677 680 680 676 Q683 672 682 665 Z " />
<glyph glyph-name="N" unicode="N" horiz-adv-x="611" d="M567 665 L487 15 Q486 8 483 4 Q480 0 472 0 L436 0 Q430 0 426.5 1.5 Q423 3 422 7 L214 477 Q208 491 200.5 510.5 Q193 530 189 543 L124 15 Q123 8 119.5 4 Q116 0 109 0 L70 0 Q63 0 59.5 4 Q56 8 57 15 L137 665 Q138 672 142 676 Q146 680 153 680 L189 680 Q194 680 197 678.5 Q200 677 201 674 L413 197 Q418 186 426.5 165 Q435 144 436 137 L500 665 Q501 672 505.5 676 Q510 680 517 680 L555 680 Q563 680 565.5 676 Q568 672 567 665 Z " />
<glyph glyph-name="O" unicode="O" horiz-adv-x="591" d="M60 141 L109 542 Q116 602 166 645 Q216 688 341 688 Q451 688 497 650.5 Q543 613 543 561 Q543 557 543 552 Q543 547 542 539 L493 138 Q486 78 435.5 35 Q385 -8 260 -8 Q150 -8 104 29 Q58 66 58 118 Q58 123 58.5 129 Q59 135 60 141 Z M422 149 L469 527 Q470 534 470 538 Q470 542 470 545 Q470 584 439.5 605.5 Q409 627 336 627 Q258 627 221 600.5 Q184 574 179 531 L133 153 Q132 148 131.5 143 Q131 138 131 135 Q131 97 162 75 Q193 53 266 53 Q345 53 381 79.5 Q417 106 422 149 Z " />
<glyph glyph-name="P" unicode="P" horiz-adv-x="569" d="M302 262 L159 262 L128 15 Q127 8 124 4 Q121 0 113 0 L71 0 Q64 0 60 4 Q56 8 57 15 L137 665 Q138 672 142 676 Q146 680 153 680 L349 680 Q460 680 504.5 641.5 Q549 603 549 548 Q549 544 549 538 Q549 532 548 524 L535 405 Q528 342 477.5 302 Q427 262 302 262 Z M345 619 L203 619 L167 323 L308 323 Q388 323 423.5 347.5 Q459 372 465 415 L478 515 Q479 522 479 526.5 Q479 531 479 534 Q479 574 449.5 596.5 Q420 619 345 619 Z " />
<glyph glyph-name="Q" unicode="Q" horiz-adv-x="591" d="M420 -170 Q415 -174 409 -175 Q403 -176 399 -171 L243 -8 Q142 -5 100 31.5 Q58 68 58 118 Q58 123 58.5 128.5 Q59 134 60 141 L109 542 Q116 602 166 645 Q216 688 341 688 Q451 688 497 650.5 Q543 613 543 561 Q543 557 543 552 Q543 547 542 539 L493 138 Q486 87 449.5 47 Q413 7 326 -4 L445 -126 Q450 -132 450 -136.5 Q450 -141 444 -147 L420 -170 Z M422 149 L469 527 Q470 532 470.5 537 Q471 542 471 545 Q471 583 440 605 Q409 627 336 627 Q258 627 221 600.5 Q184 574 179 531 L133 153 Q132 148 131.5 143 Q131 138 131 135 Q131 97 162 75 Q193 53 266 53 Q345 53 381 79.5 Q417 106 422 149 Z " />
<glyph glyph-name="R" unicode="R" horiz-adv-x="586" d="M345 619 L203 619 L168 337 L309 337 Q389 337 425.5 361.5 Q462 386 467 429 L478 515 Q479 522 479 526 Q479 530 479 533 Q479 573 448.5 596 Q418 619 345 619 Z M128 15 Q127 8 124 4 Q121 0 113 0 L71 0 Q64 0 60 3 Q56 6 57 15 L137 665 Q138 672 142 676 Q146 680 153 680 L348 680 Q458 680 504 640.5 Q550 601 550 547 Q550 545 550 539 Q550 533 549 526 L537 418 Q532 372 500.5 335.5 Q469 299 397 285 L492 15 Q494 8 490 4 Q486 0 478 0 L435 0 Q427 0 423 4.5 Q419 9 417 15 L325 277 L161 277 L128 15 Z " />
<glyph glyph-name="S" unicode="S" horiz-adv-x="551" d="M438 495 L442 533 Q443 540 443 543.5 Q443 547 443 550 Q443 586 415 607.5 Q387 629 316 629 Q238 629 205 603 Q172 577 167 534 L163 500 Q162 495 162 491.5 Q162 488 162 487 Q162 460 177 446.5 Q192 433 211 426 L388 355 Q431 338 455.5 309 Q480 280 480 238 Q480 234 480 229.5 Q480 225 479 218 L470 138 Q463 78 413.5 35 Q364 -8 239 -8 Q129 -8 84.5 29 Q40 66 40 118 Q40 122 40 127.5 Q40 133 41 141 L47 193 Q48 201 52 204.5 Q56 208 63 208 L104 208 Q112 208 115 204 Q118 200 117 193 L111 150 Q110 144 110 139 Q110 134 110 131 Q110 94 140.5 72.5 Q171 51 244 51 Q323 51 359 77.5 Q395 104 400 147 L408 211 Q409 218 409 220.5 Q409 223 409 224 Q409 253 386 269.5 Q363 286 335 297 L178 361 Q139 377 115 405.5 Q91 434 91 472 Q91 475 91 479.5 Q91 484 92 491 L98 542 Q105 602 151 645 Q197 688 321 688 Q429 688 471.5 651 Q514 614 514 563 Q514 559 514 554.5 Q514 550 513 542 L508 495 Q507 488 502.5 484 Q498 480 491 480 L450 480 Q443 480 440 483 Q437 486 438 495 Z " />
<glyph glyph-name="T" unicode="T" horiz-adv-x="488" d="M83 680 L500 680 Q507 680 510.5 676.5 Q514 673 513 665 L510 634 Q509 626 504.5 622.5 Q500 619 493 619 L321 619 L246 15 Q245 8 241.5 4 Q238 0 230 0 L188 0 Q181 0 177 4 Q173 8 174 15 L249 619 L77 619 Q70 619 66.5 622.5 Q63 626 64 634 L67 665 Q68 673 72 676.5 Q76 680 83 680 Z " />
<glyph glyph-name="U" unicode="U" horiz-adv-x="607" d="M204 665 L141 159 Q140 149 139.5 144.5 Q139 140 139 135 Q139 97 170.5 75 Q202 53 274 53 Q353 53 389.5 79.5 Q426 106 431 149 L495 665 Q496 672 499.5 676 Q503 680 510 680 L553 680 Q559 680 563 676.5 Q567 673 566 665 L501 138 Q494 78 444.5 35 Q395 -8 269 -8 Q159 -8 113 29 Q67 66 67 120 Q67 124 67.5 131 Q68 138 69 144 L133 665 Q134 672 137.5 676 Q141 680 149 680 L191 680 Q197 680 201 676.5 Q205 673 204 665 Z " />
<glyph glyph-name="V" unicode="V" horiz-adv-x="532" d="M210 0 Q202 0 197.5 4 Q193 8 192 15 L73 665 Q72 672 75.5 676 Q79 680 86 680 L131 680 Q139 680 142.5 676 Q146 672 147 665 L232 196 Q236 170 238.5 136.5 Q241 103 242 90 Q245 100 257.5 137 Q270 174 278 194 L479 665 Q482 672 486.5 676 Q491 680 499 680 L543 680 Q550 680 552.5 676 Q555 672 552 665 L273 15 Q270 8 265 4 Q260 0 253 0 L210 0 Z " />
<glyph glyph-name="W" unicode="W" horiz-adv-x="816" d="M495 665 L556 195 Q558 176 560 151.5 Q562 127 562 115 Q564 127 572.5 151.5 Q581 176 588 195 L765 665 Q768 672 772.5 676 Q777 680 785 680 L823 680 Q830 680 832.5 676 Q835 672 832 665 L588 15 Q585 8 580 4 Q575 0 568 0 L526 0 Q519 0 515 4 Q511 8 510 15 L448 493 Q447 506 444.5 528.5 Q442 551 443 564 Q440 551 433.5 529 Q427 507 421 492 L240 15 Q237 8 232.5 4 Q228 0 220 0 L178 0 Q171 0 167 4 Q163 8 162 15 L77 665 Q76 672 79.5 676 Q83 680 91 680 L133 680 Q141 680 144.5 676 Q148 672 149 665 L210 195 Q212 180 214 155.5 Q216 131 217 121 Q219 130 227.5 154.5 Q236 179 242 195 L420 665 Q423 672 427.5 676 Q432 680 439 680 L479 680 Q487 680 490.5 676 Q494 672 495 665 Z " />
<glyph glyph-name="X" unicode="X" horiz-adv-x="530" d="M312 345 L466 15 Q469 9 467 4.5 Q465 0 457 0 L409 0 Q401 0 396 4.5 Q391 9 388 15 L262 283 L76 15 Q72 9 66.5 4.5 Q61 0 53 0 L6 0 Q-1 0 -2.5 5.5 Q-4 11 0 17 L233 347 L85 664 Q82 670 84 675 Q86 680 93 680 L142 680 Q149 680 154 675.5 Q159 671 162 665 L284 407 L462 665 Q466 672 472 676 Q478 680 485 680 L533 680 Q540 680 541 676 Q542 672 538 665 L312 345 Z " />
<glyph glyph-name="Y" unicode="Y" horiz-adv-x="521" d="M147 665 L258 375 Q261 368 264 357.5 Q267 347 268 337 Q271 344 276 355 Q281 366 287 375 L474 665 Q478 671 482 675.5 Q486 680 494 680 L537 680 Q545 680 547.5 676 Q550 672 546 665 L297 277 L264 15 Q263 8 260 4 Q257 0 249 0 L207 0 Q199 0 195.5 4 Q192 8 193 15 L225 269 L70 665 Q67 672 71.5 676 Q76 680 83 680 L130 680 Q138 680 141.5 676 Q145 672 147 665 Z " />
<glyph glyph-name="Z" unicode="Z" horiz-adv-x="480" d="M115 680 L464 680 Q471 680 474.5 676.5 Q478 673 477 665 L473 634 Q472 630 470 626 Q468 622 467 619 L94 61 L404 61 Q411 61 414.5 57.5 Q418 54 417 47 L413 15 Q412 7 408 3.5 Q404 0 397 0 L14 0 Q7 0 3 3.5 Q-1 7 0 14 L4 45 Q5 49 7 53 Q9 57 11 61 L384 619 L107 619 Q100 619 96.5 622.5 Q93 626 94 634 L98 665 Q99 673 103.5 676.5 Q108 680 115 680 Z " />
<glyph glyph-name="bracketleft" unicode="&#x5b;" horiz-adv-x="321" d="M19 -196 L128 684 Q129 692 133 695.5 Q137 699 144 699 L330 699 Q337 699 340.5 695.5 Q344 692 343 684 L339 653 Q338 645 334.5 641.5 Q331 638 323 638 L194 638 L95 -150 L225 -150 Q232 -150 235.5 -153.5 Q239 -157 238 -165 L235 -196 Q234 -204 230 -207.5 Q226 -211 219 -211 L33 -211 Q26 -211 22 -207.5 Q18 -204 19 -196 Z " />
<glyph glyph-name="backslash" unicode="&#x5c;" horiz-adv-x="355" d="M198 -133 L83 684 Q82 691 85 695 Q88 699 96 699 L139 699 Q146 699 150 695.5 Q154 692 155 684 L270 -132 Q271 -139 267.5 -143.5 Q264 -148 257 -148 L214 -148 Q206 -148 202.5 -144 Q199 -140 198 -133 Z " />
<glyph glyph-name="bracketright" unicode="&#x5d;" horiz-adv-x="320" d="M291 684 L182 -196 Q181 -204 177.5 -207.5 Q174 -211 167 -211 L-19 -211 Q-26 -211 -29.5 -207.5 Q-33 -204 -32 -196 L-28 -165 Q-27 -157 -23.5 -153.5 Q-20 -150 -13 -150 L117 -150 L215 638 L85 638 Q78 638 74.5 641.5 Q71 645 72 653 L76 684 Q77 692 81 695.5 Q85 699 92 699 L278 699 Q285 699 288.5 695.5 Q292 692 291 684 Z " />
<glyph glyph-name="asciicircum" unicode="&#x5e;" horiz-adv-x="492" d="M383 314 L254 610 L126 314 Q123 307 119.5 302.5 Q116 298 109 298 L69 298 Q62 298 58 302.5 Q54 307 57 314 L215 666 Q218 672 221.5 676 Q225 680 232 680 L277 680 Q284 680 287 676 Q290 672 293 666 L452 314 Q455 307 451 302.5 Q447 298 440 298 L400 298 Q393 298 389.5 302.5 Q386 307 383 314 Z " />
<glyph glyph-name="underscore" unicode="&#x5f;" horiz-adv-x="392" d="M-33 -85 L325 -85 Q332 -85 336 -88.5 Q340 -92 340 -99 L340 -129 Q340 -136 336 -139.5 Q332 -143 325 -143 L-33 -143 Q-40 -143 -44 -139.5 Q-48 -136 -48 -129 L-48 -99 Q-48 -92 -44 -88.5 Q-40 -85 -33 -85 Z " />
<glyph glyph-name="grave" unicode="&#x60;" horiz-adv-x="331" d="M244 577 L179 693 Q176 699 178.5 703.5 Q181 708 189 708 L231 708 Q239 708 242.5 704 Q246 700 249 694 L302 582 Q305 575 302.5 571.5 Q300 568 293 568 L261 568 Q254 568 250 570.5 Q246 573 244 577 Z " />
<glyph glyph-name="a" unicode="a" horiz-adv-x="524" d="M147 364 L117 130 Q116 124 116 121.5 Q116 119 116 116 Q116 89 135 71.5 Q154 54 197 54 Q251 54 293.5 75.5 Q336 97 354 110 L388 383 Q373 396 336.5 418 Q300 440 245 440 Q197 440 174 417.5 Q151 395 147 364 Z M349 52 Q325 35 280.5 13.5 Q236 -8 172 -8 Q109 -8 78 21 Q47 50 47 99 Q47 102 47 107.5 Q47 113 48 120 L79 374 Q86 431 122 466.5 Q158 502 232 502 Q294 502 336 480 Q378 458 397 441 L404 479 Q405 486 408.5 490 Q412 494 420 494 L457 494 Q463 494 466.5 490.5 Q470 487 469 479 L412 15 Q411 8 407 4 Q403 0 396 0 L359 0 Q352 0 348.5 3.5 Q345 7 346 15 L349 52 Z " />
<glyph glyph-name="b" unicode="b" horiz-adv-x="524" d="M94 0 L57 0 Q50 0 46.5 4 Q43 8 44 15 L126 684 Q127 692 131.5 695.5 Q136 699 143 699 L184 699 Q192 699 194 694.5 Q196 690 195 684 L166 443 Q190 459 234 480.5 Q278 502 341 502 Q403 502 435 472.5 Q467 443 467 393 Q467 389 467 385 Q467 381 466 374 L435 120 Q428 63 390.5 27.5 Q353 -8 281 -8 Q218 -8 177 13.5 Q136 35 116 52 L110 15 Q109 8 105 4 Q101 0 94 0 Z M366 130 L396 364 Q397 370 397 372.5 Q397 375 397 378 Q397 405 378.5 422.5 Q360 440 317 440 Q262 440 219.5 418 Q177 396 159 383 L125 110 Q140 97 176.5 75.5 Q213 54 268 54 Q317 54 339.5 76.5 Q362 99 366 130 Z " />
<glyph glyph-name="c" unicode="c" horiz-adv-x="481" d="M275 502 Q368 502 405.5 471.5 Q443 441 443 392 Q443 389 443 384.5 Q443 380 442 372 L440 354 Q439 347 435 343 Q431 339 424 339 L386 339 Q379 339 375.5 343 Q372 347 373 354 L375 369 Q376 375 376 378 Q376 381 376 384 Q376 412 353.5 428.5 Q331 445 271 445 Q205 445 178.5 424 Q152 403 148 369 L118 132 Q117 127 116.5 121.5 Q116 116 116 112 Q116 83 139 66 Q162 49 222 49 Q288 49 313.5 70 Q339 91 345 126 L349 148 Q350 156 353.5 159.5 Q357 163 365 163 L402 163 Q411 163 413.5 159 Q416 155 415 148 L411 121 Q403 65 362 28.5 Q321 -8 215 -8 Q124 -8 85.5 22.5 Q47 53 47 102 Q47 106 47 110 Q47 114 48 121 L79 373 Q86 430 128.5 466 Q171 502 275 502 Z " />
<glyph glyph-name="d" unicode="d" horiz-adv-x="524" d="M147 364 L118 132 Q117 125 117 122 Q117 119 117 116 Q117 88 135.5 71 Q154 54 197 54 Q251 54 293.5 75.5 Q336 97 354 110 L388 383 Q373 396 336 418 Q299 440 245 440 Q196 440 173.5 417.5 Q151 395 147 364 Z M348 52 Q324 35 280.5 13.5 Q237 -8 172 -8 Q109 -8 78 21 Q47 50 47 99 Q47 103 47 107.5 Q47 112 48 120 L79 374 Q86 431 122 466.5 Q158 502 232 502 Q292 502 334 480.5 Q376 459 395 443 L424 684 Q425 691 429 695 Q433 699 441 699 L482 699 Q489 699 492 695 Q495 691 494 684 L412 15 Q411 8 407 4 Q403 0 396 0 L359 0 Q352 0 348.5 4 Q345 8 346 15 L348 52 Z " />
<glyph glyph-name="e" unicode="e" horiz-adv-x="496" d="M444 373 L429 250 Q428 243 424 239.5 Q420 236 413 236 L129 236 L116 130 Q115 125 114.5 119.5 Q114 114 114 111 Q114 82 138 64.5 Q162 47 222 47 Q288 47 315.5 68 Q343 89 347 121 L350 142 Q351 149 355.5 152.5 Q360 156 367 156 L402 156 Q409 156 412 152.5 Q415 149 414 142 L412 121 Q407 64 364.5 28 Q322 -8 217 -8 Q125 -8 85.5 22.5 Q46 53 46 102 Q46 107 46 110.5 Q46 114 47 121 L78 373 Q85 430 128.5 466 Q172 502 276 502 Q366 502 405.5 471.5 Q445 441 445 392 Q445 388 445 384 Q445 380 444 373 Z M146 371 L136 289 L368 289 L378 367 Q379 374 379 377 Q379 380 379 383 Q379 411 355 429 Q331 447 271 447 Q205 447 177.5 425.5 Q150 404 146 371 Z " />
<glyph glyph-name="f" unicode="f" horiz-adv-x="315" d="M127 492 L138 574 Q145 631 190 667 Q235 703 339 703 L347 703 Q354 703 357.5 699.5 Q361 696 360 688 L356 659 Q355 651 350.5 647.5 Q346 644 339 644 L333 644 Q267 644 238.5 623 Q210 602 206 567 L196 492 L305 492 Q313 492 316.5 488.5 Q320 485 319 478 L316 450 Q315 443 311 439 Q307 435 300 435 L191 435 L113 -191 Q112 -199 108 -202.5 Q104 -206 97 -206 L56 -206 Q49 -206 46 -202.5 Q43 -199 44 -191 L122 435 L59 435 Q51 435 48 439 Q45 443 46 450 L48 474 Q49 481 53 484.5 Q57 488 65 489 L119 492 L127 492 Z " />
<glyph glyph-name="g" unicode="g" horiz-adv-x="524" d="M173 -8 Q110 -8 78.5 21.5 Q47 51 47 100 Q47 104 47 108.5 Q47 113 48 120 L79 374 Q86 431 122 466.5 Q158 502 232 502 Q295 502 336.5 480 Q378 458 397 441 L404 479 Q405 487 409 490.5 Q413 494 420 494 L457 494 Q465 494 467.5 490 Q470 486 469 479 L401 -77 Q394 -134 350 -170 Q306 -206 199 -206 L63 -206 Q56 -206 52 -202.5 Q48 -199 49 -192 L52 -162 Q53 -155 57.5 -151.5 Q62 -148 69 -148 L205 -148 Q272 -148 300 -126.5 Q328 -105 332 -71 L347 50 Q323 34 279.5 13 Q236 -8 173 -8 Z M147 364 L118 134 Q117 127 117 123.5 Q117 120 117 117 Q117 89 135.5 71.5 Q154 54 197 54 Q251 54 293.5 75.5 Q336 97 355 110 L388 383 Q373 396 336 418 Q299 440 245 440 Q197 440 174 417.5 Q151 395 147 364 Z " />
<glyph glyph-name="h" unicode="h" horiz-adv-x="530" d="M195 684 L166 443 Q189 461 234 481.5 Q279 502 341 502 Q402 502 434.5 472 Q467 442 467 396 Q467 393 467 389.5 Q467 386 466 379 L422 15 Q421 8 417 4 Q413 0 405 0 L365 0 Q359 0 355.5 3.5 Q352 7 353 15 L395 364 Q396 370 396 372.5 Q396 375 396 378 Q396 406 377 423 Q358 440 316 440 Q262 440 219.5 418.5 Q177 397 159 384 L114 15 Q113 8 109 4 Q105 0 98 0 L57 0 Q50 0 46.5 3.5 Q43 7 44 15 L126 684 Q127 691 131.5 695 Q136 699 143 699 L184 699 Q191 699 193.5 695 Q196 691 195 684 Z " />
<glyph glyph-name="i" unicode="i" horiz-adv-x="225" d="M195 684 L184 591 Q183 584 179 580 Q175 576 168 576 L127 576 Q120 576 117 580 Q114 584 115 591 L126 684 Q127 691 131.5 695 Q136 699 143 699 L184 699 Q191 699 193.5 695.5 Q196 692 195 684 Z M171 479 L114 15 Q113 8 109 4 Q105 0 98 0 L57 0 Q50 0 46.5 3.5 Q43 7 44 15 L102 479 Q103 486 106.5 490 Q110 494 117 494 L158 494 Q165 494 168.5 490 Q172 486 171 479 Z " />
<glyph glyph-name="j" unicode="j" horiz-adv-x="225" d="M196 684 L185 591 Q184 584 180.5 580 Q177 576 169 576 L129 576 Q121 576 118 580 Q115 584 116 591 L127 684 Q128 691 132 695 Q136 699 143 699 L184 699 Q191 699 194 695 Q197 691 196 684 Z M171 479 L102 -77 Q95 -137 50.5 -171.5 Q6 -206 -96 -206 L-105 -206 Q-112 -206 -115.5 -202.5 Q-119 -199 -118 -192 L-114 -162 Q-113 -155 -109 -151.5 Q-105 -148 -98 -148 L-92 -148 Q-27 -148 1.5 -127 Q30 -106 34 -71 L102 479 Q103 486 106.5 490 Q110 494 118 494 L159 494 Q166 494 169 490 Q172 486 171 479 Z " />
<glyph glyph-name="k" unicode="k" horiz-adv-x="465" d="M98 0 L57 0 Q49 0 46.5 4 Q44 8 45 15 L127 684 Q128 691 132 695 Q136 699 143 699 L184 699 Q192 699 194.5 695 Q197 691 196 684 L149 304 L180 304 L369 479 Q376 486 382 490 Q388 494 396 494 L444 494 Q453 494 454 489 Q455 484 450 479 L236 281 L416 15 Q420 10 417 5 Q414 0 407 0 L360 0 Q352 0 347 4 Q342 8 338 15 L177 251 L143 251 L114 15 Q113 8 109 4 Q105 0 98 0 Z " />
<glyph glyph-name="l" unicode="l" horiz-adv-x="225" d="M195 684 L114 15 Q113 8 109.5 4 Q106 0 98 0 L57 0 Q50 0 46.5 4 Q43 8 44 15 L126 684 Q127 691 131.5 695 Q136 699 143 699 L184 699 Q191 699 193.5 695 Q196 691 195 684 Z " />
<glyph glyph-name="m" unicode="m" horiz-adv-x="826" d="M44 15 L102 479 Q103 486 106.5 490 Q110 494 117 494 L154 494 Q161 494 164.5 490 Q168 486 167 479 L164 442 Q186 459 228.5 480.5 Q271 502 335 502 Q383 502 414.5 483.5 Q446 465 456 434 Q477 450 520.5 476 Q564 502 636 502 Q697 502 730.5 473 Q764 444 764 398 Q764 394 764 389 Q764 384 763 379 L718 15 Q717 8 713 4 Q709 0 702 0 L661 0 Q655 0 651.5 3.5 Q648 7 649 15 L691 360 Q692 367 692 370.5 Q692 374 692 377 Q692 405 673 422.5 Q654 440 613 440 Q556 440 516 417.5 Q476 395 460 382 Q460 379 460 376 Q460 373 459 364 L416 15 Q415 8 411 4 Q407 0 400 0 L359 0 Q353 0 349.5 3.5 Q346 7 347 15 L389 359 Q390 367 390 370.5 Q390 374 390 377 Q390 405 371 422.5 Q352 440 311 440 Q257 440 216.5 418.5 Q176 397 159 384 L114 15 Q113 8 109.5 4 Q106 0 98 0 L57 0 Q50 0 46.5 3.5 Q43 7 44 15 Z " />
<glyph glyph-name="n" unicode="n" horiz-adv-x="530" d="M117 494 L154 494 Q161 494 165 490 Q169 486 168 479 L165 441 Q188 459 233 480.5 Q278 502 341 502 Q402 502 434.5 472 Q467 442 467 396 Q467 392 467 388 Q467 384 466 376 L422 15 Q421 8 417 4 Q413 0 405 0 L365 0 Q359 0 355.5 3 Q352 6 353 15 L395 360 Q396 367 396 370.5 Q396 374 396 377 Q396 406 378 423 Q360 440 317 440 Q262 440 219.5 418.5 Q177 397 159 384 L114 15 Q113 8 109 4 Q105 0 98 0 L57 0 Q50 0 46.5 3 Q43 6 44 15 L102 479 Q103 486 106.5 490 Q110 494 117 494 Z " />
<glyph glyph-name="o" unicode="o" horiz-adv-x="512" d="M47 121 L78 373 Q85 430 130.5 466 Q176 502 281 502 Q372 502 414 471.5 Q456 441 456 391 Q456 387 456 383.5 Q456 380 455 373 L424 121 Q417 64 371.5 28 Q326 -8 221 -8 Q129 -8 87.5 23 Q46 54 46 103 Q46 107 46 111 Q46 115 47 121 Z M355 126 L383 352 Q384 357 385 367 Q386 377 386 379 Q386 410 360 427.5 Q334 445 275 445 Q209 445 180 424 Q151 403 147 368 L116 126 Q115 121 115 118.5 Q115 116 115 114 Q115 83 140.5 66 Q166 49 226 49 Q292 49 321.5 70 Q351 91 355 126 Z " />
<glyph glyph-name="p" unicode="p" horiz-adv-x="524" d="M366 130 L395 362 Q396 369 396 371.5 Q396 374 396 378 Q396 405 377.5 422.5 Q359 440 316 440 Q262 440 219.5 418 Q177 396 159 383 L125 110 Q140 97 176.5 75.5 Q213 54 268 54 Q317 54 339.5 76.5 Q362 99 366 130 Z M117 494 L154 494 Q161 494 164.5 490.5 Q168 487 167 479 L164 441 Q188 458 233 480 Q278 502 341 502 Q404 502 435.5 472.5 Q467 443 467 394 Q467 390 467 385.5 Q467 381 466 374 L434 120 Q427 63 391.5 27.5 Q356 -8 282 -8 Q222 -8 179.5 13 Q137 34 118 50 L89 -191 Q88 -199 84 -202.5 Q80 -206 72 -206 L32 -206 Q26 -206 22 -203 Q18 -200 19 -191 L102 479 Q103 486 106.5 490 Q110 494 117 494 Z " />
<glyph glyph-name="q" unicode="q" horiz-adv-x="524" d="M420 494 L457 494 Q465 494 467.5 490 Q470 486 469 479 L387 -191 Q386 -199 382 -202.5 Q378 -206 371 -206 L330 -206 Q321 -206 319 -201.5 Q317 -197 318 -191 L347 50 Q323 34 279.5 13 Q236 -8 173 -8 Q110 -8 78.5 21.5 Q47 51 47 100 Q47 105 47 109 Q47 113 48 120 L79 374 Q86 431 122 466.5 Q158 502 232 502 Q295 502 336 480 Q377 458 396 441 L403 479 Q404 486 408.5 490 Q413 494 420 494 Z M147 364 L118 134 Q117 127 117 123.5 Q117 120 117 117 Q117 89 135.5 71.5 Q154 54 197 54 Q251 54 293.5 75.5 Q336 97 355 110 L388 383 Q373 396 337 418 Q301 440 245 440 Q197 440 174 417.5 Q151 395 147 364 Z " />
<glyph glyph-name="r" unicode="r" horiz-adv-x="344" d="M336 501 Q343 501 347 497.5 Q351 494 350 486 L346 453 Q345 445 340.5 442.5 Q336 440 328 439 Q274 437 226 412 Q178 387 158 372 L114 15 Q113 8 109.5 4 Q106 0 98 0 L57 0 Q50 0 46.5 3.5 Q43 7 44 15 L102 479 Q103 486 106.5 490 Q110 494 117 494 L154 494 Q161 494 165 490 Q169 486 168 479 L164 430 Q188 449 233.5 475 Q279 501 336 501 Z " />
<glyph glyph-name="s" unicode="s" horiz-adv-x="471" d="M352 359 L355 380 Q356 387 356 391 Q356 395 356 398 Q356 420 331.5 435.5 Q307 451 253 451 Q197 451 169 436 Q141 421 137 391 L134 367 Q133 361 133 358.5 Q133 356 133 355 Q133 339 143 326 Q153 313 176 306 L324 257 Q361 244 380 222.5 Q399 201 399 175 Q399 171 399 166.5 Q399 162 398 154 L392 100 Q387 55 341.5 23.5 Q296 -8 198 -8 Q110 -8 69 21.5 Q28 51 28 91 Q28 94 28 97 Q28 100 29 107 L32 132 Q33 139 37 142.5 Q41 146 48 146 L85 146 Q91 146 94 143 Q97 140 96 132 L94 110 Q93 103 93 100.5 Q93 98 93 97 Q93 72 121.5 58 Q150 44 202 44 Q259 44 291.5 60 Q324 76 328 106 L333 141 Q334 148 334 151 Q334 154 334 157 Q334 173 319 184.5 Q304 196 282 203 L138 252 Q107 262 87 285 Q67 308 67 339 Q67 341 67 344.5 Q67 348 68 355 L73 392 Q79 437 119.5 469.5 Q160 502 257 502 Q343 502 381.5 471.5 Q420 441 420 401 Q420 397 420 394 Q420 391 419 383 L416 359 Q415 352 411.5 349 Q408 346 401 346 L364 346 Q357 346 354 349 Q351 352 352 359 Z " />
<glyph glyph-name="t" unicode="t" horiz-adv-x="331" d="M186 435 L149 139 Q148 132 148 128.5 Q148 125 148 122 Q148 92 169.5 75.5 Q191 59 253 59 L272 59 Q280 59 283 55 Q286 51 285 44 L283 15 Q282 7 277.5 3.5 Q273 0 266 0 L239 0 Q149 0 113.5 28 Q78 56 78 105 Q78 111 78 116 Q78 121 79 129 L116 435 L56 435 Q48 435 45.5 439 Q43 443 44 450 L46 474 Q47 481 51.5 484.5 Q56 488 63 489 L122 492 L123 492 L137 598 Q138 605 141.5 609 Q145 613 153 613 L193 613 Q201 613 204 609 Q207 605 206 598 L192 492 L305 492 Q313 492 316 488.5 Q319 485 318 478 L315 449 Q314 442 310 438.5 Q306 435 298 435 L186 435 Z " />
<glyph glyph-name="u" unicode="u" horiz-adv-x="524" d="M346 15 L349 51 Q327 34 284.5 13 Q242 -8 179 -8 Q117 -8 84.5 21.5 Q52 51 52 97 Q52 101 52 104.5 Q52 108 53 114 L98 479 Q99 486 103 490 Q107 494 114 494 L155 494 Q160 494 164 491 Q168 488 167 479 L124 130 Q123 124 123 121.5 Q123 119 123 115 Q123 87 141.5 70.5 Q160 54 203 54 Q257 54 297 75 Q337 96 355 109 L400 479 Q401 486 405 490 Q409 494 416 494 L457 494 Q465 494 468 490 Q471 486 470 479 L412 15 Q411 7 407.5 3.5 Q404 0 396 0 L360 0 Q352 0 348.5 3.5 Q345 7 346 15 Z " />
<glyph glyph-name="v" unicode="v" horiz-adv-x="447" d="M211 0 L165 0 Q158 0 155 3.5 Q152 7 151 14 L50 478 Q49 485 52.5 489.5 Q56 494 64 494 L106 494 Q113 494 116 490 Q119 486 120 479 L191 148 Q195 132 196.5 113.5 Q198 95 199 85 Q200 90 207 110.5 Q214 131 221 147 L375 479 Q378 486 382.5 490 Q387 494 394 494 L433 494 Q441 494 444.5 490 Q448 486 445 479 L228 14 Q224 7 221 3.5 Q218 0 211 0 Z " />
<glyph glyph-name="w" unicode="w" horiz-adv-x="673" d="M625 494 L659 494 Q666 494 670 490 Q674 486 671 479 L483 14 Q480 7 476.5 3.5 Q473 0 466 0 L418 0 Q411 0 408 3.5 Q405 7 404 14 L357 352 Q356 364 354.5 379.5 Q353 395 353 400 Q351 393 345 377 Q339 361 335 351 L198 14 Q195 7 191 3.5 Q187 0 180 0 L133 0 Q126 0 123.5 3.5 Q121 7 120 14 L52 479 Q51 486 55 490 Q59 494 67 494 L106 494 Q113 494 116.5 490 Q120 486 121 479 L171 131 Q172 121 173.5 109 Q175 97 175 90 Q176 95 180.5 108.5 Q185 122 189 131 L328 479 Q331 486 335 490 Q339 494 346 494 L390 494 Q397 494 400.5 490 Q404 486 405 479 L451 131 Q452 121 453.5 109.5 Q455 98 456 91 Q457 97 461 109 Q465 121 469 131 L606 479 Q609 486 613 490 Q617 494 625 494 Z " />
<glyph glyph-name="x" unicode="x" horiz-adv-x="462" d="M116 494 Q124 494 128 489.5 Q132 485 136 479 L238 300 L376 479 Q380 485 386.5 489.5 Q393 494 400 494 L443 494 Q450 494 450.5 489 Q451 484 447 479 L264 249 L396 16 Q399 10 397 5 Q395 0 387 0 L342 0 Q334 0 329.5 5 Q325 10 322 15 L217 201 L69 15 Q65 10 59 5 Q53 0 45 0 L4 0 Q-3 0 -4.5 5 Q-6 10 -2 15 L189 252 L62 479 Q59 484 60.5 489 Q62 494 71 494 L116 494 Z " />
<glyph glyph-name="y" unicode="y" horiz-adv-x="446" d="M445 479 L134 -192 Q131 -198 126.5 -202.5 Q122 -207 115 -207 L83 -207 Q76 -207 72.5 -203 Q69 -199 72 -192 L156 -4 L49 479 Q48 486 52.5 490 Q57 494 64 494 L105 494 Q112 494 115.5 490 Q119 486 120 479 L192 147 Q195 134 197.5 115.5 Q200 97 200 87 Q205 103 210.5 117.5 Q216 132 222 145 L376 479 Q379 486 383.5 490 Q388 494 395 494 L433 494 Q440 494 444.5 490 Q449 486 445 479 Z " />
<glyph glyph-name="z" unicode="z" horiz-adv-x="427" d="M89 494 L389 494 Q397 494 400 490.5 Q403 487 402 480 L399 452 Q398 448 396 444 Q394 440 393 438 L91 58 L349 58 Q357 58 360.5 54.5 Q364 51 363 43 L359 15 Q358 7 354 3.5 Q350 0 342 0 L15 0 Q8 0 4.5 3.5 Q1 7 2 15 L6 43 Q7 47 8.5 50.5 Q10 54 12 57 L312 436 L82 436 Q75 436 71.5 439.5 Q68 443 69 451 L72 480 Q73 487 77.5 490.5 Q82 494 89 494 Z " />
<glyph glyph-name="braceleft" unicode="&#x7b;" horiz-adv-x="371" d="M146 355 L173 579 Q180 636 224 672 Q268 708 372 708 L381 708 Q390 708 392.5 704 Q395 700 394 693 L391 664 Q390 656 386 652.5 Q382 649 375 649 L369 649 Q303 649 275.5 628 Q248 607 244 572 L216 348 Q211 305 188 282 Q165 259 123 249 Q159 239 176 217 Q193 195 193 166 Q193 162 192.5 154.5 Q192 147 191 140 L164 -72 Q163 -78 162.5 -85 Q162 -92 162 -96 Q162 -124 185.5 -141.5 Q209 -159 269 -159 L276 -159 Q284 -159 286.5 -163.5 Q289 -168 288 -174 L284 -203 Q283 -211 279.5 -214.5 Q276 -218 268 -218 L264 -218 Q174 -218 132 -187.5 Q90 -157 90 -105 Q90 -101 90.5 -91.5 Q91 -82 92 -78 L119 134 Q120 140 120.5 145 Q121 150 121 157 Q121 185 98.5 202 Q76 219 21 219 L20 219 Q12 219 9 223 Q6 227 7 234 L11 263 Q12 271 16 274.5 Q20 278 27 278 L29 278 Q89 278 115.5 299 Q142 320 146 355 Z " />
<glyph glyph-name="bar" unicode="&#x7c;" horiz-adv-x="271" d="M165 684 L165 -196 Q165 -203 161.5 -207 Q158 -211 151 -211 L108 -211 Q101 -211 97.5 -207 Q94 -203 94 -196 L94 684 Q94 691 97.5 695 Q101 699 108 699 L151 699 Q158 699 161.5 695 Q165 691 165 684 Z " />
<glyph glyph-name="braceright" unicode="&#x7d;" horiz-adv-x="371" d="M270 570 L244 363 Q243 358 242.5 351.5 Q242 345 242 341 Q242 313 265 295.5 Q288 278 342 278 L343 278 Q350 278 353 274 Q356 270 355 263 L352 234 Q351 226 347 222.5 Q343 219 335 219 L334 219 Q274 219 247.5 198 Q221 177 217 143 L189 -89 Q182 -146 137.5 -182 Q93 -218 -10 -218 L-19 -218 Q-27 -218 -30 -214 Q-33 -210 -32 -203 L-30 -174 Q-29 -166 -24.5 -162.5 Q-20 -159 -13 -159 L-6 -159 Q60 -159 87 -138 Q114 -117 118 -82 L146 149 Q151 192 174.5 215.5 Q198 239 240 249 Q204 257 187 279 Q170 301 170 332 Q170 337 171 346 Q172 355 173 360 L198 567 Q199 574 199.5 579 Q200 584 200 587 Q200 615 176.5 632 Q153 649 93 649 L87 649 Q79 649 76 653 Q73 657 74 664 L78 693 Q79 701 82.5 704.5 Q86 708 94 708 L99 708 Q189 708 230 677 Q271 646 271 595 Q271 592 271 584.5 Q271 577 270 570 Z " />
<glyph glyph-name="asciitilde" unicode="&#x7e;" horiz-adv-x="474" d="M400 324 L398 297 Q394 248 374.5 229.5 Q355 211 330 211 Q320 211 304.5 215 Q289 219 275 226 L187 271 Q180 275 169.5 279.5 Q159 284 152 284 Q135 284 130 275 Q125 266 124 243 L123 228 Q122 221 118 218 Q114 215 107 215 L86 215 Q79 215 75.5 219.5 Q72 224 73 231 L75 259 Q78 306 99 325.5 Q120 345 146 345 Q158 345 171 340.5 Q184 336 194 331 L281 286 Q290 282 302 276.5 Q314 271 323 271 Q340 271 344 281 Q348 291 349 314 L350 328 Q351 335 354.5 338 Q358 341 365 341 L388 341 Q395 341 398 337 Q401 333 400 324 Z " />
<glyph glyph-name="Adieresis" unicode="&#xc4;" horiz-adv-x="532" d="M360 250 L316 484 Q310 515 308 550.5 Q306 586 305 607 Q302 596 289 553 Q276 510 266 486 L163 250 L360 250 Z M294 680 L337 680 Q344 680 348 676 Q352 672 353 665 L473 15 Q474 8 471 4 Q468 0 461 0 L418 0 Q410 0 406 4 Q402 8 401 15 L369 193 L140 193 L63 15 Q60 8 56 4 Q52 0 45 0 L4 0 Q-4 0 -6.5 4 Q-9 8 -6 15 L273 665 Q276 672 281 676 Q286 680 294 680 Z M409 856 L397 759 Q396 751 392 747.5 Q388 744 381 744 L356 744 Q349 744 346 747.5 Q343 751 344 759 L356 856 Q357 863 361 866.5 Q365 870 372 870 L397 870 Q404 870 407 866.5 Q410 863 409 856 Z M302 856 L290 759 Q289 751 285 747.5 Q281 744 274 744 L249 744 Q242 744 239 747.5 Q236 751 237 759 L248 856 Q249 863 253.5 866.5 Q258 870 265 870 L290 870 Q297 870 300 866.5 Q303 863 302 856 Z " />
<glyph glyph-name="Aring" unicode="&#xc5;" horiz-adv-x="532" d="M360 250 L316 484 Q310 515 308 550.5 Q306 586 305 607 Q302 596 289 553 Q276 510 266 486 L163 250 L360 250 Z M294 680 L337 680 Q344 680 348 676 Q352 672 353 665 L473 15 Q474 8 471 4 Q468 0 461 0 L418 0 Q410 0 406 4 Q402 8 401 15 L369 193 L140 193 L63 15 Q60 8 56 4 Q52 0 45 0 L4 0 Q-4 0 -6.5 4 Q-9 8 -6 15 L273 665 Q276 672 281 676 Q286 680 294 680 Z M419 813 L417 787 Q415 758 391.5 739.5 Q368 721 320 721 Q272 721 250.5 738.5 Q229 756 232 793 L234 819 Q236 848 260.5 867.5 Q285 887 334 887 Q381 887 401.5 867.5 Q422 848 419 813 Z M377 794 L378 814 Q379 829 369 839.5 Q359 850 330 850 Q302 850 288.5 839.5 Q275 829 274 813 L273 798 Q272 776 282 766.5 Q292 757 320 757 Q348 757 362 767 Q376 777 377 794 Z " />
<glyph glyph-name="Ccedilla" unicode="&#xc7;" horiz-adv-x="552" d="M344 -123 Q344 -172 315 -191.5 Q286 -211 251 -211 L135 -211 Q126 -211 124 -206.5 Q122 -202 123 -196 L125 -181 Q126 -174 129.5 -170.5 Q133 -167 140 -167 L246 -167 Q263 -167 278 -159.5 Q293 -152 293 -127 Q293 -109 280.5 -103 Q268 -97 255 -97 L194 -97 Q184 -97 178 -92.5 Q172 -88 176 -78 L205 -6 Q124 3 91 37 Q58 71 58 117 Q58 122 58.5 128.5 Q59 135 60 141 L109 542 Q116 602 163.5 645 Q211 688 336 688 Q446 688 489 651.5 Q532 615 532 563 Q532 558 532 553 Q532 548 531 539 L525 491 Q524 483 520.5 479 Q517 475 509 475 L468 475 Q461 475 458 479.5 Q455 484 456 491 L461 528 Q462 535 462 539 Q462 543 462 547 Q462 584 432.5 605.5 Q403 627 331 627 Q252 627 218 600.5 Q184 574 179 531 L133 153 Q132 148 132 142.5 Q132 137 132 133 Q132 96 160.5 74.5 Q189 53 261 53 Q340 53 374.5 79.5 Q409 106 414 149 L420 202 Q421 209 425 213 Q429 217 437 217 L477 217 Q485 217 488 213 Q491 209 490 202 L482 138 Q475 78 427 35 Q379 -8 254 -8 L252 -8 L234 -53 L270 -53 Q298 -53 321 -69.5 Q344 -86 344 -123 Z " />
<glyph glyph-name="Eacute" unicode="&#xc9;" horiz-adv-x="520" d="M425 0 L71 0 Q64 0 60.5 4 Q57 8 58 15 L138 665 Q139 672 143.5 676 Q148 680 155 680 L496 680 Q503 680 506.5 676.5 Q510 673 509 665 L505 634 Q504 626 500 622.5 Q496 619 489 619 L204 619 L176 386 L443 386 Q450 386 453 382.5 Q456 379 455 371 L452 342 Q451 334 446.5 330.5 Q442 327 435 327 L168 327 L135 61 L431 61 Q439 61 442.5 57.5 Q446 54 445 47 L441 15 Q440 7 436.5 3.5 Q433 0 425 0 Z M448 863 L356 747 Q353 744 348.5 741 Q344 738 337 738 L302 738 Q295 738 293 741.5 Q291 745 296 752 L377 864 Q381 870 386 874 Q391 878 398 878 L443 878 Q451 878 452 873.5 Q453 869 448 863 Z " />
<glyph glyph-name="Ntilde" unicode="&#xd1;" horiz-adv-x="611" d="M303 819 Q288 819 282.5 809.5 Q277 800 273 778 L270 763 Q269 756 264.5 753 Q260 750 253 750 L232 750 Q225 750 222.5 755 Q220 760 221 767 L226 791 Q235 834 255 853 Q275 872 305 872 Q318 872 332.5 867 Q347 862 360 852 L401 820 Q409 813 417.5 808.5 Q426 804 433 804 Q449 804 455.5 813.5 Q462 823 465 851 L466 860 Q467 867 471.5 870 Q476 873 483 873 L505 873 Q513 873 515 868.5 Q517 864 516 856 L513 832 Q507 787 483.5 769 Q460 751 432 751 Q415 751 402 756.5 Q389 762 376 772 L335 804 Q327 811 319 815 Q311 819 303 819 Z M568 665 L488 15 Q487 8 484 4 Q481 0 473 0 L437 0 Q431 0 427.5 1.5 Q424 3 423 7 L215 477 Q209 491 201.5 510.5 Q194 530 190 543 L125 15 Q124 8 120.5 4 Q117 0 110 0 L71 0 Q64 0 60.5 4 Q57 8 58 15 L138 665 Q139 672 143 676 Q147 680 154 680 L190 680 Q195 680 198 678.5 Q201 677 202 674 L414 197 Q419 186 427.5 165 Q436 144 437 137 L501 665 Q502 672 506.5 676 Q511 680 518 680 L556 680 Q564 680 566.5 676 Q569 672 568 665 Z " />
<glyph glyph-name="Odieresis" unicode="&#xd6;" horiz-adv-x="591" d="M60 141 L109 542 Q116 602 166 645 Q216 688 341 688 Q451 688 497 650.5 Q543 613 543 561 Q543 557 543 552 Q543 547 542 539 L493 138 Q486 78 435.5 35 Q385 -8 260 -8 Q150 -8 104 29 Q58 66 58 118 Q58 123 58.5 129 Q59 135 60 141 Z M422 149 L469 527 Q470 534 470 538 Q470 542 470 545 Q470 584 439.5 605.5 Q409 627 336 627 Q258 627 221 600.5 Q184 574 179 531 L133 153 Q132 148 131.5 143 Q131 138 131 135 Q131 97 162 75 Q193 53 266 53 Q345 53 381 79.5 Q417 106 422 149 Z M445 856 L433 759 Q432 751 428 747.5 Q424 744 417 744 L392 744 Q385 744 382 747.5 Q379 751 380 759 L392 856 Q393 863 397 866.5 Q401 870 408 870 L433 870 Q440 870 443 866.5 Q446 863 445 856 Z M338 856 L326 759 Q325 751 321 747.5 Q317 744 310 744 L285 744 Q278 744 275 747.5 Q272 751 273 759 L284 856 Q285 863 289.5 866.5 Q294 870 301 870 L326 870 Q333 870 336 866.5 Q339 863 338 856 Z " />
<glyph glyph-name="Udieresis" unicode="&#xdc;" horiz-adv-x="606" d="M204 665 L141 159 Q140 149 139.5 144.5 Q139 140 139 135 Q139 97 170.5 75 Q202 53 274 53 Q353 53 389.5 79.5 Q426 106 431 149 L495 665 Q496 672 499.5 676 Q503 680 510 680 L553 680 Q559 680 563 676.5 Q567 673 566 665 L501 138 Q494 78 444.5 35 Q395 -8 269 -8 Q159 -8 113 29 Q67 66 67 120 Q67 124 67.5 131 Q68 138 69 144 L133 665 Q134 672 137.5 676 Q141 680 149 680 L191 680 Q197 680 201 676.5 Q205 673 204 665 Z M450 856 L438 759 Q437 751 433 747.5 Q429 744 422 744 L397 744 Q390 744 387 747.5 Q384 751 385 759 L397 856 Q398 863 402 866.5 Q406 870 413 870 L438 870 Q445 870 448 866.5 Q451 863 450 856 Z M343 856 L331 759 Q330 751 326 747.5 Q322 744 315 744 L290 744 Q283 744 280 747.5 Q277 751 278 759 L289 856 Q290 863 294.5 866.5 Q299 870 306 870 L331 870 Q338 870 341 866.5 Q344 863 343 856 Z " />
<glyph glyph-name="aacute" unicode="&#xe1;" horiz-adv-x="524" d="M147 364 L117 130 Q116 124 116 121.5 Q116 119 116 116 Q116 89 135 71.5 Q154 54 197 54 Q251 54 293.5 75.5 Q336 97 354 110 L388 383 Q373 396 336.5 418 Q300 440 245 440 Q197 440 174 417.5 Q151 395 147 364 Z M349 52 Q325 35 280.5 13.5 Q236 -8 172 -8 Q109 -8 78 21 Q47 50 47 99 Q47 102 47 107.5 Q47 113 48 120 L79 374 Q86 431 122 466.5 Q158 502 232 502 Q294 502 336 480 Q378 458 397 441 L404 479 Q405 486 408.5 490 Q412 494 420 494 L457 494 Q463 494 466.5 490.5 Q470 487 469 479 L412 15 Q411 8 407 4 Q403 0 396 0 L359 0 Q352 0 348.5 3.5 Q345 7 346 15 L349 52 Z M407 693 L314 577 Q312 574 307 571 Q302 568 295 568 L260 568 Q254 568 252 571.5 Q250 575 255 582 L335 694 Q339 700 344 704 Q349 708 356 708 L401 708 Q409 708 410.5 703.5 Q412 699 407 693 Z " />
<glyph glyph-name="agrave" unicode="&#xe0;" horiz-adv-x="524" d="M147 364 L117 130 Q116 124 116 121.5 Q116 119 116 116 Q116 89 135 71.5 Q154 54 197 54 Q251 54 293.5 75.5 Q336 97 354 110 L388 383 Q373 396 336.5 418 Q300 440 245 440 Q197 440 174 417.5 Q151 395 147 364 Z M349 52 Q325 35 280.5 13.5 Q236 -8 172 -8 Q109 -8 78 21 Q47 50 47 99 Q47 102 47 107.5 Q47 113 48 120 L79 374 Q86 431 122 466.5 Q158 502 232 502 Q294 502 336 480 Q378 458 397 441 L404 479 Q405 486 408.5 490 Q412 494 420 494 L457 494 Q463 494 466.5 490.5 Q470 487 469 479 L412 15 Q411 8 407 4 Q403 0 396 0 L359 0 Q352 0 348.5 3.5 Q345 7 346 15 L349 52 Z M260 577 L195 693 Q192 699 194.5 703.5 Q197 708 205 708 L247 708 Q255 708 258.5 704 Q262 700 265 694 L318 582 Q321 575 318.5 571.5 Q316 568 309 568 L277 568 Q270 568 266 570.5 Q262 573 260 577 Z " />
<glyph glyph-name="acircumflex" unicode="&#xe2;" horiz-adv-x="524" d="M147 364 L117 130 Q116 124 116 121.5 Q116 119 116 116 Q116 89 135 71.5 Q154 54 197 54 Q251 54 293.5 75.5 Q336 97 354 110 L388 383 Q373 396 336.5 418 Q300 440 245 440 Q197 440 174 417.5 Q151 395 147 364 Z M349 52 Q325 35 280.5 13.5 Q236 -8 172 -8 Q109 -8 78 21 Q47 50 47 99 Q47 102 47 107.5 Q47 113 48 120 L79 374 Q86 431 122 466.5 Q158 502 232 502 Q294 502 336 480 Q378 458 397 441 L404 479 Q405 486 408.5 490 Q412 494 420 494 L457 494 Q463 494 466.5 490.5 Q470 487 469 479 L412 15 Q411 8 407 4 Q403 0 396 0 L359 0 Q352 0 348.5 3.5 Q345 7 346 15 L349 52 Z M295 664 L232 582 Q228 577 222.5 572.5 Q217 568 210 568 L177 568 Q170 568 168.5 572 Q167 576 171 582 L261 693 Q266 699 272.5 703.5 Q279 708 286 708 L312 708 Q320 708 324.5 704 Q329 700 333 694 L397 582 Q401 576 398 572 Q395 568 388 568 L357 568 Q350 568 345 572 Q340 576 337 582 L295 664 Z " />
<glyph glyph-name="adieresis" unicode="&#xe4;" horiz-adv-x="524" d="M147 364 L117 130 Q116 124 116 121.5 Q116 119 116 116 Q116 89 135 71.5 Q154 54 197 54 Q251 54 293.5 75.5 Q336 97 354 110 L388 383 Q373 396 336.5 418 Q300 440 245 440 Q197 440 174 417.5 Q151 395 147 364 Z M349 52 Q325 35 280.5 13.5 Q236 -8 172 -8 Q109 -8 78 21 Q47 50 47 99 Q47 102 47 107.5 Q47 113 48 120 L79 374 Q86 431 122 466.5 Q158 502 232 502 Q294 502 336 480 Q378 458 397 441 L404 479 Q405 486 408.5 490 Q412 494 420 494 L457 494 Q463 494 466.5 490.5 Q470 487 469 479 L412 15 Q411 8 407 4 Q403 0 396 0 L359 0 Q352 0 348.5 3.5 Q345 7 346 15 L349 52 Z M379 688 L368 591 Q367 584 363 580.5 Q359 577 351 577 L327 577 Q319 577 316 580.5 Q313 584 314 591 L326 688 Q327 695 331 699 Q335 703 342 703 L367 703 Q375 703 377.5 699 Q380 695 379 688 Z M272 688 L260 591 Q259 584 255.5 580.5 Q252 577 244 577 L220 577 Q212 577 209 580.5 Q206 584 207 591 L219 688 Q220 695 224 699 Q228 703 235 703 L260 703 Q267 703 270 699 Q273 695 272 688 Z " />
<glyph glyph-name="atilde" unicode="&#xe3;" horiz-adv-x="524" d="M147 364 L117 130 Q116 124 116 121.5 Q116 119 116 116 Q116 89 135 71.5 Q154 54 197 54 Q251 54 293.5 75.5 Q336 97 354 110 L388 383 Q373 396 336.5 418 Q300 440 245 440 Q197 440 174 417.5 Q151 395 147 364 Z M349 52 Q325 35 280.5 13.5 Q236 -8 172 -8 Q109 -8 78 21 Q47 50 47 99 Q47 102 47 107.5 Q47 113 48 120 L79 374 Q86 431 122 466.5 Q158 502 232 502 Q294 502 336 480 Q378 458 397 441 L404 479 Q405 486 408.5 490 Q412 494 420 494 L457 494 Q463 494 466.5 490.5 Q470 487 469 479 L412 15 Q411 8 407 4 Q403 0 396 0 L359 0 Q352 0 348.5 3.5 Q345 7 346 15 L349 52 Z M226 643 Q210 643 204.5 633.5 Q199 624 195 602 L192 588 Q191 580 186.5 577 Q182 574 175 574 L154 574 Q147 574 144.5 579 Q142 584 143 591 L148 616 Q156 659 176.5 678 Q197 697 227 697 Q240 697 254.5 692 Q269 687 282 677 L323 644 Q331 637 339.5 632.5 Q348 628 355 628 Q371 628 377.5 637.5 Q384 647 387 675 L388 684 Q389 691 393.5 694 Q398 697 405 697 L427 697 Q435 697 437.5 692.5 Q440 688 439 681 L435 656 Q428 612 405 594 Q382 576 354 576 Q337 576 323.5 581 Q310 586 298 596 L257 629 Q249 636 241 639.5 Q233 643 226 643 Z " />
<glyph glyph-name="aring" unicode="&#xe5;" horiz-adv-x="524" d="M147 364 L117 130 Q116 124 116 121.5 Q116 119 116 116 Q116 89 135 71.5 Q154 54 197 54 Q251 54 293.5 75.5 Q336 97 354 110 L388 383 Q373 396 336.5 418 Q300 440 245 440 Q197 440 174 417.5 Q151 395 147 364 Z M349 52 Q325 35 280.5 13.5 Q236 -8 172 -8 Q109 -8 78 21 Q47 50 47 99 Q47 102 47 107.5 Q47 113 48 120 L79 374 Q86 431 122 466.5 Q158 502 232 502 Q294 502 336 480 Q378 458 397 441 L404 479 Q405 486 408.5 490 Q412 494 420 494 L457 494 Q463 494 466.5 490.5 Q470 487 469 479 L412 15 Q411 8 407 4 Q403 0 396 0 L359 0 Q352 0 348.5 3.5 Q345 7 346 15 L349 52 Z M400 646 L398 620 Q396 591 372.5 572.5 Q349 554 301 554 Q253 554 231.5 571.5 Q210 589 213 626 L215 652 Q217 681 241.5 700.5 Q266 720 315 720 Q362 720 382.5 700.5 Q403 681 400 646 Z M358 627 L359 647 Q360 662 350 672.5 Q340 683 311 683 Q283 683 269.5 672.5 Q256 662 255 646 L254 631 Q253 609 263 599.5 Q273 590 301 590 Q329 590 343 600 Q357 610 358 627 Z " />
<glyph glyph-name="ccedilla" unicode="&#xe7;" horiz-adv-x="480" d="M316 -123 Q316 -172 287 -191.5 Q258 -211 223 -211 L107 -211 Q98 -211 96 -206.5 Q94 -202 95 -196 L97 -181 Q98 -174 101.5 -170.5 Q105 -167 112 -167 L218 -167 Q235 -167 250 -159.5 Q265 -152 265 -127 Q265 -109 252.5 -103 Q240 -97 227 -97 L166 -97 Q156 -97 150 -92.5 Q144 -88 148 -78 L176 -6 Q106 0 76 29 Q46 58 46 102 Q46 106 46 110 Q46 114 47 121 L78 373 Q85 430 127.5 466 Q170 502 274 502 Q367 502 404.5 471.5 Q442 441 442 392 Q442 389 442 384.5 Q442 380 441 372 L439 354 Q438 347 434 343 Q430 339 423 339 L385 339 Q378 339 374.5 343 Q371 347 372 354 L374 369 Q375 375 375 378 Q375 381 375 384 Q375 412 352.5 428.5 Q330 445 270 445 Q204 445 177.5 424 Q151 403 147 369 L117 132 Q116 127 115.5 121.5 Q115 116 115 112 Q115 83 138 66 Q161 49 221 49 Q287 49 312.5 70 Q338 91 344 126 L348 148 Q349 156 352.5 159.5 Q356 163 364 163 L401 163 Q410 163 412.5 159 Q415 155 414 148 L410 121 Q402 67 363 30.5 Q324 -6 224 -8 L206 -53 L242 -53 Q270 -53 293 -69.5 Q316 -86 316 -123 Z " />
<glyph glyph-name="eacute" unicode="&#xe9;" horiz-adv-x="496" d="M406 693 L313 577 Q311 574 306 571 Q301 568 294 568 L259 568 Q253 568 251 571.5 Q249 575 254 582 L334 694 Q338 700 343 704 Q348 708 355 708 L400 708 Q408 708 409.5 703.5 Q411 699 406 693 Z M444 373 L429 250 Q428 243 424 239.5 Q420 236 413 236 L129 236 L116 130 Q115 125 114.5 119.5 Q114 114 114 111 Q114 82 138 64.5 Q162 47 222 47 Q288 47 315.5 68 Q343 89 347 121 L350 142 Q351 149 355.5 152.5 Q360 156 367 156 L402 156 Q409 156 412 152.5 Q415 149 414 142 L412 121 Q407 64 364.5 28 Q322 -8 217 -8 Q125 -8 85.5 22.5 Q46 53 46 102 Q46 107 46 110.5 Q46 114 47 121 L78 373 Q85 430 128.5 466 Q172 502 276 502 Q366 502 405.5 471.5 Q445 441 445 392 Q445 388 445 384 Q445 380 444 373 Z M146 371 L136 289 L368 289 L378 367 Q379 374 379 377 Q379 380 379 383 Q379 411 355 429 Q331 447 271 447 Q205 447 177.5 425.5 Q150 404 146 371 Z " />
<glyph glyph-name="egrave" unicode="&#xe8;" horiz-adv-x="496" d="M444 373 L429 250 Q428 243 424 239.5 Q420 236 413 236 L129 236 L116 130 Q115 125 114.5 119.5 Q114 114 114 111 Q114 82 138 64.5 Q162 47 222 47 Q288 47 315.5 68 Q343 89 347 121 L350 142 Q351 149 355.5 152.5 Q360 156 367 156 L402 156 Q409 156 412 152.5 Q415 149 414 142 L412 121 Q407 64 364.5 28 Q322 -8 217 -8 Q125 -8 85.5 22.5 Q46 53 46 102 Q46 107 46 110.5 Q46 114 47 121 L78 373 Q85 430 128.5 466 Q172 502 276 502 Q366 502 405.5 471.5 Q445 441 445 392 Q445 388 445 384 Q445 380 444 373 Z M146 371 L136 289 L368 289 L378 367 Q379 374 379 377 Q379 380 379 383 Q379 411 355 429 Q331 447 271 447 Q205 447 177.5 425.5 Q150 404 146 371 Z M252 577 L187 693 Q184 699 186.5 703.5 Q189 708 197 708 L239 708 Q247 708 250.5 704 Q254 700 257 694 L310 582 Q313 575 310.5 571.5 Q308 568 301 568 L269 568 Q262 568 258 570.5 Q254 573 252 577 Z " />
<glyph glyph-name="ecircumflex" unicode="&#xea;" horiz-adv-x="496" d="M293 664 L230 582 Q226 577 220.5 572.5 Q215 568 208 568 L175 568 Q168 568 166.5 572 Q165 576 169 582 L259 693 Q264 699 270.5 703.5 Q277 708 284 708 L310 708 Q318 708 322.5 704 Q327 700 331 694 L395 582 Q399 576 396 572 Q393 568 386 568 L355 568 Q348 568 343 572 Q338 576 335 582 L293 664 Z M444 373 L429 250 Q428 243 424 239.5 Q420 236 413 236 L129 236 L116 130 Q115 125 114.5 119.5 Q114 114 114 111 Q114 82 138 64.5 Q162 47 222 47 Q288 47 315.5 68 Q343 89 347 121 L350 142 Q351 149 355.5 152.5 Q360 156 367 156 L402 156 Q409 156 412 152.5 Q415 149 414 142 L412 121 Q407 64 364.5 28 Q322 -8 217 -8 Q125 -8 85.5 22.5 Q46 53 46 102 Q46 107 46 110.5 Q46 114 47 121 L78 373 Q85 430 128.5 466 Q172 502 276 502 Q366 502 405.5 471.5 Q445 441 445 392 Q445 388 445 384 Q445 380 444 373 Z M146 371 L136 289 L368 289 L378 367 Q379 374 379 377 Q379 380 379 383 Q379 411 355 429 Q331 447 271 447 Q205 447 177.5 425.5 Q150 404 146 371 Z " />
<glyph glyph-name="edieresis" unicode="&#xeb;" horiz-adv-x="496" d="M372 688 L361 591 Q360 584 356 580.5 Q352 577 344 577 L320 577 Q312 577 309 580.5 Q306 584 307 591 L319 688 Q320 695 324 699 Q328 703 335 703 L360 703 Q368 703 370.5 699 Q373 695 372 688 Z M265 688 L253 591 Q252 584 248.5 580.5 Q245 577 237 577 L213 577 Q205 577 202 580.5 Q199 584 200 591 L212 688 Q213 695 217 699 Q221 703 228 703 L253 703 Q260 703 263 699 Q266 695 265 688 Z M444 373 L429 250 Q428 243 424 239.5 Q420 236 413 236 L129 236 L116 130 Q115 125 114.5 119.5 Q114 114 114 111 Q114 82 138 64.5 Q162 47 222 47 Q288 47 315.5 68 Q343 89 347 121 L350 142 Q351 149 355.5 152.5 Q360 156 367 156 L402 156 Q409 156 412 152.5 Q415 149 414 142 L412 121 Q407 64 364.5 28 Q322 -8 217 -8 Q125 -8 85.5 22.5 Q46 53 46 102 Q46 107 46 110.5 Q46 114 47 121 L78 373 Q85 430 128.5 466 Q172 502 276 502 Q366 502 405.5 471.5 Q445 441 445 392 Q445 388 445 384 Q445 380 444 373 Z M146 371 L136 289 L368 289 L378 367 Q379 374 379 377 Q379 380 379 383 Q379 411 355 429 Q331 447 271 447 Q205 447 177.5 425.5 Q150 404 146 371 Z " />
<glyph glyph-name="iacute" unicode="&#xed;" horiz-adv-x="225" d="M273 693 L180 577 Q178 574 173 571 Q168 568 161 568 L126 568 Q120 568 118 571.5 Q116 575 121 582 L201 694 Q205 700 210 704 Q215 708 222 708 L267 708 Q275 708 276.5 703.5 Q278 699 273 693 Z M172 479 L115 15 Q114 8 110 4 Q106 0 99 0 L58 0 Q51 0 48 3.5 Q45 7 46 15 L103 479 Q104 486 108 490 Q112 494 119 494 L159 494 Q167 494 170 490 Q173 486 172 479 Z " />
<glyph glyph-name="igrave" unicode="&#xec;" horiz-adv-x="224" d="M171 479 L114 15 Q113 8 109 4 Q105 0 98 0 L57 0 Q50 0 47 3.5 Q44 7 45 15 L102 479 Q103 486 107 490 Q111 494 118 494 L158 494 Q166 494 169 490 Q172 486 171 479 Z M111 577 L46 693 Q43 699 45.5 703.5 Q48 708 56 708 L98 708 Q106 708 109.5 704 Q113 700 116 694 L169 582 Q172 575 169.5 571.5 Q167 568 160 568 L128 568 Q121 568 117 570.5 Q113 573 111 577 Z " />
<glyph glyph-name="icircumflex" unicode="&#xee;" horiz-adv-x="224" d="M159 664 L96 582 Q92 577 86.5 572.5 Q81 568 74 568 L41 568 Q34 568 32.5 572 Q31 576 35 582 L125 693 Q130 699 136.5 703.5 Q143 708 150 708 L176 708 Q184 708 188.5 704 Q193 700 197 694 L261 582 Q265 576 262 572 Q259 568 252 568 L221 568 Q214 568 209 572 Q204 576 201 582 L159 664 Z M171 479 L114 15 Q113 8 109 4 Q105 0 98 0 L57 0 Q50 0 47 3.5 Q44 7 45 15 L102 479 Q103 486 107 490 Q111 494 118 494 L158 494 Q166 494 169 490 Q172 486 171 479 Z " />
<glyph glyph-name="idieresis" unicode="&#xef;" horiz-adv-x="224" d="M244 688 L233 591 Q232 584 228 580.5 Q224 577 216 577 L192 577 Q184 577 181 580.5 Q178 584 179 591 L191 688 Q192 695 196 699 Q200 703 207 703 L232 703 Q240 703 242.5 699 Q245 695 244 688 Z M137 688 L125 591 Q124 584 120.5 580.5 Q117 577 109 577 L85 577 Q77 577 74 580.5 Q71 584 72 591 L84 688 Q85 695 89 699 Q93 703 100 703 L125 703 Q132 703 135 699 Q138 695 137 688 Z M171 479 L114 15 Q113 8 109 4 Q105 0 98 0 L57 0 Q50 0 47 3.5 Q44 7 45 15 L102 479 Q103 486 107 490 Q111 494 118 494 L158 494 Q166 494 169 490 Q172 486 171 479 Z " />
<glyph glyph-name="ntilde" unicode="&#xf1;" horiz-adv-x="530" d="M118 494 L155 494 Q162 494 166 490 Q170 486 169 479 L166 441 Q189 459 234 480.5 Q279 502 342 502 Q403 502 435.5 472 Q468 442 468 396 Q468 392 468 388 Q468 384 467 376 L423 15 Q422 8 418 4 Q414 0 406 0 L366 0 Q360 0 356.5 3 Q353 6 354 15 L396 360 Q397 367 397 370.5 Q397 374 397 377 Q397 406 379 423 Q361 440 318 440 Q263 440 220.5 418.5 Q178 397 160 384 L115 15 Q114 8 110 4 Q106 0 99 0 L58 0 Q51 0 47.5 3 Q44 6 45 15 L103 479 Q104 486 107.5 490 Q111 494 118 494 Z M239 643 Q223 643 217.5 633.5 Q212 624 208 602 L205 588 Q204 580 199.5 577 Q195 574 188 574 L167 574 Q160 574 157.5 579 Q155 584 156 591 L161 616 Q169 659 189.5 678 Q210 697 240 697 Q253 697 267.5 692 Q282 687 295 677 L336 644 Q344 637 352.5 632.5 Q361 628 368 628 Q384 628 390.5 637.5 Q397 647 400 675 L401 684 Q402 691 406.5 694 Q411 697 418 697 L440 697 Q448 697 450.5 692.5 Q453 688 452 681 L448 656 Q441 612 418 594 Q395 576 367 576 Q350 576 336.5 581 Q323 586 311 596 L270 629 Q262 636 254 639.5 Q246 643 239 643 Z " />
<glyph glyph-name="oacute" unicode="&#xf3;" horiz-adv-x="512" d="M411 693 L318 577 Q316 574 311 571 Q306 568 299 568 L264 568 Q258 568 256 571.5 Q254 575 259 582 L339 694 Q343 700 348 704 Q353 708 360 708 L405 708 Q413 708 414.5 703.5 Q416 699 411 693 Z M47 121 L78 373 Q85 430 130.5 466 Q176 502 281 502 Q372 502 414 471.5 Q456 441 456 391 Q456 387 456 383.5 Q456 380 455 373 L424 121 Q417 64 371.5 28 Q326 -8 221 -8 Q129 -8 87.5 23 Q46 54 46 103 Q46 107 46 111 Q46 115 47 121 Z M355 126 L383 352 Q384 357 385 367 Q386 377 386 379 Q386 410 360 427.5 Q334 445 275 445 Q209 445 180 424 Q151 403 147 368 L116 126 Q115 121 115 118.5 Q115 116 115 114 Q115 83 140.5 66 Q166 49 226 49 Q292 49 321.5 70 Q351 91 355 126 Z " />
<glyph glyph-name="ograve" unicode="&#xf2;" horiz-adv-x="512" d="M47 121 L78 373 Q85 430 130.5 466 Q176 502 281 502 Q372 502 414 471.5 Q456 441 456 391 Q456 387 456 383.5 Q456 380 455 373 L424 121 Q417 64 371.5 28 Q326 -8 221 -8 Q129 -8 87.5 23 Q46 54 46 103 Q46 107 46 111 Q46 115 47 121 Z M355 126 L383 352 Q384 357 385 367 Q386 377 386 379 Q386 410 360 427.5 Q334 445 275 445 Q209 445 180 424 Q151 403 147 368 L116 126 Q115 121 115 118.5 Q115 116 115 114 Q115 83 140.5 66 Q166 49 226 49 Q292 49 321.5 70 Q351 91 355 126 Z M252 577 L187 693 Q184 699 186.5 703.5 Q189 708 197 708 L239 708 Q247 708 250.5 704 Q254 700 257 694 L310 582 Q313 575 310.5 571.5 Q308 568 301 568 L269 568 Q262 568 258 570.5 Q254 573 252 577 Z " />
<glyph glyph-name="ocircumflex" unicode="&#xf4;" horiz-adv-x="512" d="M302 664 L239 582 Q235 577 229.5 572.5 Q224 568 217 568 L184 568 Q177 568 175.5 572 Q174 576 178 582 L268 693 Q273 699 279.5 703.5 Q286 708 293 708 L319 708 Q327 708 331.5 704 Q336 700 340 694 L404 582 Q408 576 405 572 Q402 568 395 568 L364 568 Q357 568 352 572 Q347 576 344 582 L302 664 Z M47 121 L78 373 Q85 430 130.5 466 Q176 502 281 502 Q372 502 414 471.5 Q456 441 456 391 Q456 387 456 383.5 Q456 380 455 373 L424 121 Q417 64 371.5 28 Q326 -8 221 -8 Q129 -8 87.5 23 Q46 54 46 103 Q46 107 46 111 Q46 115 47 121 Z M355 126 L383 352 Q384 357 385 367 Q386 377 386 379 Q386 410 360 427.5 Q334 445 275 445 Q209 445 180 424 Q151 403 147 368 L116 126 Q115 121 115 118.5 Q115 116 115 114 Q115 83 140.5 66 Q166 49 226 49 Q292 49 321.5 70 Q351 91 355 126 Z " />
<glyph glyph-name="odieresis" unicode="&#xf6;" horiz-adv-x="512" d="M381 688 L370 591 Q369 584 365 580.5 Q361 577 353 577 L329 577 Q321 577 318 580.5 Q315 584 316 591 L328 688 Q329 695 333 699 Q337 703 344 703 L369 703 Q377 703 379.5 699 Q382 695 381 688 Z M274 688 L262 591 Q261 584 257.5 580.5 Q254 577 246 577 L222 577 Q214 577 211 580.5 Q208 584 209 591 L221 688 Q222 695 226 699 Q230 703 237 703 L262 703 Q269 703 272 699 Q275 695 274 688 Z M47 121 L78 373 Q85 430 130.5 466 Q176 502 281 502 Q372 502 414 471.5 Q456 441 456 391 Q456 387 456 383.5 Q456 380 455 373 L424 121 Q417 64 371.5 28 Q326 -8 221 -8 Q129 -8 87.5 23 Q46 54 46 103 Q46 107 46 111 Q46 115 47 121 Z M355 126 L383 352 Q384 357 385 367 Q386 377 386 379 Q386 410 360 427.5 Q334 445 275 445 Q209 445 180 424 Q151 403 147 368 L116 126 Q115 121 115 118.5 Q115 116 115 114 Q115 83 140.5 66 Q166 49 226 49 Q292 49 321.5 70 Q351 91 355 126 Z " />
<glyph glyph-name="otilde" unicode="&#xf5;" horiz-adv-x="512" d="M47 121 L78 373 Q85 430 130.5 466 Q176 502 281 502 Q372 502 414 471.5 Q456 441 456 391 Q456 387 456 383.5 Q456 380 455 373 L424 121 Q417 64 371.5 28 Q326 -8 221 -8 Q129 -8 87.5 23 Q46 54 46 103 Q46 107 46 111 Q46 115 47 121 Z M355 126 L383 352 Q384 357 385 367 Q386 377 386 379 Q386 410 360 427.5 Q334 445 275 445 Q209 445 180 424 Q151 403 147 368 L116 126 Q115 121 115 118.5 Q115 116 115 114 Q115 83 140.5 66 Q166 49 226 49 Q292 49 321.5 70 Q351 91 355 126 Z M222 643 Q206 643 200.5 633.5 Q195 624 191 602 L188 588 Q187 580 182.5 577 Q178 574 171 574 L150 574 Q143 574 140.5 579 Q138 584 139 591 L144 616 Q152 659 172.5 678 Q193 697 223 697 Q236 697 250.5 692 Q265 687 278 677 L319 644 Q327 637 335.5 632.5 Q344 628 351 628 Q367 628 373.5 637.5 Q380 647 383 675 L384 684 Q385 691 389.5 694 Q394 697 401 697 L423 697 Q431 697 433.5 692.5 Q436 688 435 681 L431 656 Q424 612 401 594 Q378 576 350 576 Q333 576 319.5 581 Q306 586 294 596 L253 629 Q245 636 237 639.5 Q229 643 222 643 Z " />
<glyph glyph-name="uacute" unicode="&#xfa;" horiz-adv-x="524" d="M414 693 L321 577 Q319 574 314 571 Q309 568 302 568 L267 568 Q261 568 259 571.5 Q257 575 262 582 L342 694 Q346 700 351 704 Q356 708 363 708 L408 708 Q416 708 417.5 703.5 Q419 699 414 693 Z M346 15 L349 51 Q327 34 284.5 13 Q242 -8 179 -8 Q117 -8 84.5 21.5 Q52 51 52 97 Q52 101 52 104.5 Q52 108 53 114 L98 479 Q99 486 103 490 Q107 494 114 494 L155 494 Q160 494 164 491 Q168 488 167 479 L124 130 Q123 124 123 121.5 Q123 119 123 115 Q123 87 141.5 70.5 Q160 54 203 54 Q257 54 297 75 Q337 96 355 109 L400 479 Q401 486 405 490 Q409 494 416 494 L457 494 Q465 494 468 490 Q471 486 470 479 L412 15 Q411 7 407.5 3.5 Q404 0 396 0 L360 0 Q352 0 348.5 3.5 Q345 7 346 15 Z " />
<glyph glyph-name="ugrave" unicode="&#xf9;" horiz-adv-x="524" d="M346 15 L349 51 Q327 34 284.5 13 Q242 -8 179 -8 Q117 -8 84.5 21.5 Q52 51 52 97 Q52 101 52 104.5 Q52 108 53 114 L98 479 Q99 486 103 490 Q107 494 114 494 L155 494 Q160 494 164 491 Q168 488 167 479 L124 130 Q123 124 123 121.5 Q123 119 123 115 Q123 87 141.5 70.5 Q160 54 203 54 Q257 54 297 75 Q337 96 355 109 L400 479 Q401 486 405 490 Q409 494 416 494 L457 494 Q465 494 468 490 Q471 486 470 479 L412 15 Q411 7 407.5 3.5 Q404 0 396 0 L360 0 Q352 0 348.5 3.5 Q345 7 346 15 Z M260 577 L195 693 Q192 699 194.5 703.5 Q197 708 205 708 L247 708 Q255 708 258.5 704 Q262 700 265 694 L318 582 Q321 575 318.5 571.5 Q316 568 309 568 L277 568 Q270 568 266 570.5 Q262 573 260 577 Z " />
<glyph glyph-name="ucircumflex" unicode="&#xfb;" horiz-adv-x="524" d="M302 664 L239 582 Q235 577 229.5 572.5 Q224 568 217 568 L184 568 Q177 568 175.5 572 Q174 576 178 582 L268 693 Q273 699 279.5 703.5 Q286 708 293 708 L319 708 Q327 708 331.5 704 Q336 700 340 694 L404 582 Q408 576 405 572 Q402 568 395 568 L364 568 Q357 568 352 572 Q347 576 344 582 L302 664 Z M346 15 L349 51 Q327 34 284.5 13 Q242 -8 179 -8 Q117 -8 84.5 21.5 Q52 51 52 97 Q52 101 52 104.5 Q52 108 53 114 L98 479 Q99 486 103 490 Q107 494 114 494 L155 494 Q160 494 164 491 Q168 488 167 479 L124 130 Q123 124 123 121.5 Q123 119 123 115 Q123 87 141.5 70.5 Q160 54 203 54 Q257 54 297 75 Q337 96 355 109 L400 479 Q401 486 405 490 Q409 494 416 494 L457 494 Q465 494 468 490 Q471 486 470 479 L412 15 Q411 7 407.5 3.5 Q404 0 396 0 L360 0 Q352 0 348.5 3.5 Q345 7 346 15 Z " />
<glyph glyph-name="udieresis" unicode="&#xfc;" horiz-adv-x="524" d="M388 688 L377 591 Q376 584 372 580.5 Q368 577 360 577 L336 577 Q328 577 325 580.5 Q322 584 323 591 L335 688 Q336 695 340 699 Q344 703 351 703 L376 703 Q384 703 386.5 699 Q389 695 388 688 Z M281 688 L269 591 Q268 584 264.5 580.5 Q261 577 253 577 L229 577 Q221 577 218 580.5 Q215 584 216 591 L228 688 Q229 695 233 699 Q237 703 244 703 L269 703 Q276 703 279 699 Q282 695 281 688 Z M346 15 L349 51 Q327 34 284.5 13 Q242 -8 179 -8 Q117 -8 84.5 21.5 Q52 51 52 97 Q52 101 52 104.5 Q52 108 53 114 L98 479 Q99 486 103 490 Q107 494 114 494 L155 494 Q160 494 164 491 Q168 488 167 479 L124 130 Q123 124 123 121.5 Q123 119 123 115 Q123 87 141.5 70.5 Q160 54 203 54 Q257 54 297 75 Q337 96 355 109 L400 479 Q401 486 405 490 Q409 494 416 494 L457 494 Q465 494 468 490 Q471 486 470 479 L412 15 Q411 7 407.5 3.5 Q404 0 396 0 L360 0 Q352 0 348.5 3.5 Q345 7 346 15 Z " />
<glyph glyph-name="dagger" unicode="&#x2020;" horiz-adv-x="466" d="M317 684 L235 15 Q234 8 230 4 Q226 0 219 0 L178 0 Q171 0 168 4 Q165 8 166 15 L247 684 Q248 691 252.5 695 Q257 699 264 699 L305 699 Q312 699 315 695 Q318 691 317 684 Z M329 501 L444 501 Q451 501 455 497.5 Q459 494 458 487 L454 457 Q453 450 449 446.5 Q445 443 438 443 L324 443 Q316 443 313 446.5 Q310 450 311 457 L313 487 Q314 494 318 497.5 Q322 501 329 501 Z M74 501 L188 501 Q196 501 199 497.5 Q202 494 201 487 L199 457 Q198 450 194 446.5 Q190 443 183 443 L68 443 Q61 443 57.5 446.5 Q54 450 55 457 L58 487 Q59 494 63 497.5 Q67 501 74 501 Z " />
<glyph glyph-name="degree" unicode="&#xb0;" horiz-adv-x="400" d="M86 501 L97 592 Q102 635 133 661 Q164 687 246 687 Q304 687 339.5 667.5 Q375 648 375 605 Q375 601 375 597 Q375 593 374 586 L363 495 Q358 452 327 426 Q296 400 214 400 Q144 400 114.5 422 Q85 444 85 481 Q85 484 85 490.5 Q85 497 86 501 Z M303 498 L314 584 Q315 588 315 591 Q315 594 315 595 Q315 620 293.5 629.5 Q272 639 241 639 Q198 639 179 625.5 Q160 612 157 590 L146 502 Q145 498 145 494.5 Q145 491 145 490 Q145 471 162.5 459.5 Q180 448 219 448 Q262 448 281 461.5 Q300 475 303 498 Z " />
<glyph glyph-name="cent" unicode="&#xa2;" horiz-adv-x="492" d="M252 15 Q251 8 247.5 4 Q244 0 236 0 L196 0 Q189 0 185 4 Q181 8 182 15 L192 86 Q120 92 89.5 121.5 Q59 151 59 195 Q59 199 59 203 Q59 207 60 214 L91 466 Q97 518 132.5 553 Q168 588 253 594 L262 665 Q263 672 267.5 676 Q272 680 279 680 L319 680 Q327 680 330 676 Q333 672 332 665 L323 594 Q395 587 425 557.5 Q455 528 455 485 Q455 482 455 477.5 Q455 473 454 465 L452 447 Q451 440 447 436 Q443 432 436 432 L398 432 Q391 432 387.5 436 Q384 440 385 447 L387 462 Q388 469 388 472.5 Q388 476 388 477 Q388 505 365.5 521.5 Q343 538 283 538 Q217 538 190.5 517 Q164 496 160 462 L130 225 Q129 220 128.5 214 Q128 208 128 204 Q128 175 151 158.5 Q174 142 234 142 Q300 142 325.5 163 Q351 184 357 219 L361 241 Q362 249 365.5 252.5 Q369 256 377 256 L414 256 Q423 256 425.5 252 Q428 248 427 241 L423 214 Q416 163 381.5 127.5 Q347 92 261 86 L252 15 Z " />
<glyph glyph-name="sterling" unicode="&#xa3;" horiz-adv-x="605" d="M209 370 L363 370 Q372 370 374.5 366 Q377 362 376 356 L373 326 Q372 318 367.5 314.5 Q363 311 356 311 L203 311 L171 59 L366 59 Q402 59 436.5 81 Q471 103 471 169 L471 175 Q471 183 475.5 187 Q480 191 487 191 L525 191 Q532 191 534.5 186.5 Q537 182 537 175 L537 169 Q537 66 485.5 33 Q434 0 376 0 L34 0 Q27 0 24 4 Q21 8 22 15 L25 45 Q26 52 30 55.5 Q34 59 41 59 L100 59 L132 311 L73 311 Q65 311 62 315 Q59 319 60 326 L64 356 Q65 363 69 366.5 Q73 370 80 370 L138 370 L160 548 Q167 608 209 648 Q251 688 373 688 Q478 688 518 655 Q558 622 558 572 Q558 568 557.5 561.5 Q557 555 556 548 L552 519 Q551 512 547 508 Q543 504 536 504 L497 504 Q489 504 486 508.5 Q483 513 484 520 L487 537 Q488 542 488.5 548 Q489 554 489 558 Q489 592 463 609.5 Q437 627 368 627 Q290 627 262.5 603.5 Q235 580 230 537 L209 370 Z " />
<glyph glyph-name="section" unicode="&#xa7;" horiz-adv-x="503" d="M412 173 Q411 166 407 162 Q403 158 395 158 L359 158 Q353 158 349 161.5 Q345 165 346 173 L357 258 Q358 264 358.5 269.5 Q359 275 359 278 Q359 301 341 314 Q323 327 310 331 L179 371 Q155 378 123 400.5 Q91 423 91 469 Q91 473 91.5 479.5 Q92 486 93 491 L101 561 Q107 616 151 652 Q195 688 299 688 Q392 688 431 658.5 Q470 629 470 580 Q470 579 470 574.5 Q470 570 469 561 L468 549 Q467 541 462.5 537.5 Q458 534 451 534 L415 534 Q408 534 404.5 537.5 Q401 541 402 549 L403 559 Q404 566 404 569.5 Q404 573 404 576 Q404 605 380.5 622 Q357 639 296 639 Q230 639 202 618.5 Q174 598 170 564 L161 495 Q160 489 160 486 Q160 483 160 479 Q160 451 183 439.5 Q206 428 219 424 L348 384 Q375 376 400 353.5 Q425 331 425 291 Q425 288 425 281.5 Q425 275 424 268 L412 173 Z M67 209 L79 304 Q80 312 84 315.5 Q88 319 95 319 L131 319 Q137 319 141 315.5 Q145 312 144 304 L133 219 Q132 213 132 209 Q132 205 132 200 Q132 175 149.5 162.5 Q167 150 180 146 L312 106 Q335 99 367.5 77 Q400 55 400 9 Q400 4 399.5 -1.5 Q399 -7 398 -14 L390 -83 Q383 -139 339.5 -175 Q296 -211 192 -211 Q99 -211 60 -182.5 Q21 -154 21 -105 Q21 -102 21 -97.5 Q21 -93 22 -83 L23 -71 Q24 -63 28 -59.5 Q32 -56 40 -56 L75 -56 Q82 -56 85.5 -59.5 Q89 -63 88 -72 L87 -82 Q86 -88 86 -91.5 Q86 -95 86 -98 Q86 -129 110 -146 Q134 -163 194 -163 Q260 -163 288 -142 Q316 -121 320 -86 L329 -18 Q330 -11 330 -7 Q330 -3 330 -2 Q330 26 307 38 Q284 50 271 54 L142 93 Q114 101 90 123.5 Q66 146 66 186 Q66 190 66 196.5 Q66 203 67 209 Z " />
<glyph glyph-name="bullet" unicode="&#x2022;" horiz-adv-x="264" d="M172 327 L156 198 Q155 190 151.5 186.5 Q148 183 140 183 L98 183 Q91 183 88 186.5 Q85 190 86 198 L102 327 Q103 335 107 338.5 Q111 342 118 342 L160 342 Q167 342 170 338 Q173 334 172 327 Z " />
<glyph glyph-name="paragraph" unicode="&#xb6;" horiz-adv-x="586" d="M551 665 L446 -191 Q445 -200 440.5 -203 Q436 -206 429 -206 L387 -206 Q380 -206 376.5 -203 Q373 -200 374 -191 L480 665 Q481 672 484.5 676 Q488 680 496 680 L539 680 Q546 680 549 676 Q552 672 551 665 Z M396 666 L290 -191 Q289 -199 285 -202.5 Q281 -206 274 -206 L231 -206 Q224 -206 221 -202.5 Q218 -199 219 -191 L277 282 L232 282 Q135 282 94.5 313.5 Q54 345 54 394 Q54 400 54.5 407 Q55 414 56 419 L72 549 Q79 605 121 642.5 Q163 680 281 680 L382 680 Q389 680 393 676.5 Q397 673 396 666 Z " />
<glyph glyph-name="germandbls" unicode="&#xdf;" horiz-adv-x="606" d="M365 -8 Q279 -8 247 19 Q215 46 215 92 Q215 96 215 101 Q215 106 216 113 L218 127 Q219 135 223 139 Q227 143 235 143 L263 143 Q270 143 273 138.5 Q276 134 275 127 L274 114 Q273 107 273 104 Q273 101 273 99 Q273 72 293.5 55.5 Q314 39 368 39 Q430 39 453 60 Q476 81 480 114 L485 160 Q486 167 486 171.5 Q486 176 486 180 Q486 205 464.5 216 Q443 227 431 231 L323 273 Q302 281 277 302.5 Q252 324 252 361 Q252 362 252 366 Q252 370 253 378 L254 391 Q257 434 287 451 Q317 468 340 475 L395 491 Q411 495 434 507.5 Q457 520 459 547 L461 570 Q462 578 462 583.5 Q462 589 462 590 Q462 618 436 637.5 Q410 657 344 657 Q273 657 242 634 Q211 611 207 576 L139 15 Q138 8 133.5 4 Q129 0 122 0 L81 0 Q74 0 71 3.5 Q68 7 69 15 L121 435 L58 435 Q52 435 48.5 438.5 Q45 442 46 449 L48 474 Q49 481 53.5 485 Q58 489 65 489 L126 492 L127 492 L138 579 Q145 636 193.5 672 Q242 708 349 708 Q444 708 485.5 677.5 Q527 647 527 598 Q527 595 527 588 Q527 581 526 573 L523 543 Q519 503 488.5 482.5 Q458 462 436 455 L370 435 Q357 431 335 422.5 Q313 414 313 390 L313 375 Q313 356 331 344 Q349 332 359 328 L472 282 Q493 274 522.5 253 Q552 232 552 195 Q552 193 552 188 Q552 183 551 177 L544 118 Q537 63 501.5 27.5 Q466 -8 365 -8 Z " />
<glyph glyph-name="registered" unicode="&#xae;" horiz-adv-x="592" d="M537 550 L537 371 Q537 328 499 280.5 Q461 233 317 233 Q173 233 134 280.5 Q95 328 95 371 L95 550 Q95 593 134 640.5 Q173 688 317 688 Q461 688 499 640.5 Q537 593 537 550 Z M489 366 L489 554 Q489 586 456.5 615 Q424 644 317 644 Q210 644 177 615 Q144 586 144 554 L144 367 Q144 335 177 305.5 Q210 276 317 276 Q424 276 456.5 305.5 Q489 335 489 366 Z M323 553 L268 553 L268 458 L323 458 Q350 458 363.5 469.5 Q377 481 377 496 L377 514 Q377 530 364 541.5 Q351 553 323 553 Z M268 335 Q268 330 266 327 Q264 324 258 324 L229 324 Q224 324 221.5 327 Q219 330 219 335 L219 580 Q219 585 221.5 588 Q224 591 229 591 L328 591 Q388 591 407.5 567 Q427 543 427 517 L427 494 Q427 475 417 456.5 Q407 438 379 428 L417 335 Q419 331 416.5 327.5 Q414 324 407 324 L378 324 Q373 324 370 327 Q367 330 365 335 L329 421 L268 421 L268 335 Z " />
<glyph glyph-name="copyright" unicode="&#xa9;" horiz-adv-x="712" d="M636 509 L636 171 Q636 102 586.5 47 Q537 -8 362 -8 Q187 -8 138 47 Q89 102 89 171 L89 509 Q89 578 138 633 Q187 688 362 688 Q537 688 586.5 633 Q636 578 636 509 Z M583 163 L583 518 Q583 571 536.5 606.5 Q490 642 362 642 Q235 642 188 606.5 Q141 571 141 517 L141 163 Q141 109 188 74 Q235 39 362 39 Q490 39 536.5 74 Q583 109 583 163 Z M363 550 Q450 550 478.5 516 Q507 482 507 425 L507 410 Q507 402 503.5 398.5 Q500 395 492 395 L459 395 Q451 395 447.5 398.5 Q444 402 444 410 L444 424 Q444 458 429 479 Q414 500 363 500 Q311 500 296 479 Q281 458 281 424 L281 256 Q281 221 296 200 Q311 179 363 179 Q414 179 429 200 Q444 221 444 256 L444 277 Q444 285 447.5 289 Q451 293 459 293 L492 293 Q500 293 503.5 289 Q507 285 507 277 L507 254 Q507 197 478.5 163 Q450 129 363 129 Q276 129 247 163 Q218 197 218 254 L218 425 Q218 482 247 516 Q276 550 363 550 Z " />
<glyph glyph-name="trademark" unicode="&#x2122;" horiz-adv-x="829" d="M95 680 L366 680 Q372 680 375 677.5 Q378 675 377 668 L374 642 Q373 635 369.5 632.5 Q366 630 360 630 L254 630 L211 284 Q210 278 207.5 275 Q205 272 198 272 L162 272 Q156 272 153 275 Q150 278 151 284 L194 630 L89 630 Q82 630 79 632.5 Q76 635 77 642 L80 668 Q81 675 84.5 677.5 Q88 680 95 680 Z M794 668 L747 284 Q746 278 743.5 275 Q741 272 734 272 L700 272 Q693 272 690.5 275 Q688 278 689 284 L724 567 Q723 563 718.5 554 Q714 545 711 540 L599 346 Q596 341 592 337.5 Q588 334 581 334 L556 334 Q549 334 545.5 337.5 Q542 341 541 346 L474 542 Q473 547 471 553.5 Q469 560 468 569 L433 284 Q432 278 429.5 275 Q427 272 421 272 L388 272 Q382 272 379.5 275 Q377 278 378 284 L425 668 Q426 674 429 677 Q432 680 438 680 L470 680 Q474 680 476.5 678 Q479 676 480 672 L568 426 Q570 420 572 413 Q574 406 575 399 Q577 403 581.5 411 Q586 419 590 425 L736 673 Q737 676 741 678 Q745 680 749 680 L784 680 Q791 680 793 677 Q795 674 794 668 Z " />
<glyph glyph-name="acute" unicode="&#xb4;" horiz-adv-x="331" d="M323 693 L230 577 Q228 574 223 571 Q218 568 211 568 L176 568 Q170 568 168 571.5 Q166 575 171 582 L251 694 Q255 700 260 704 Q265 708 272 708 L317 708 Q325 708 326.5 703.5 Q328 699 323 693 Z " />
<glyph glyph-name="dieresis" unicode="&#xa8;" horiz-adv-x="324" d="M326 688 L315 591 Q314 584 310 580.5 Q306 577 298 577 L274 577 Q266 577 263 580.5 Q260 584 261 591 L273 688 Q274 695 278 699 Q282 703 289 703 L314 703 Q322 703 324.5 699 Q327 695 326 688 Z M219 688 L207 591 Q206 584 202.5 580.5 Q199 577 191 577 L167 577 Q159 577 156 580.5 Q153 584 154 591 L166 688 Q167 695 171 699 Q175 703 182 703 L207 703 Q214 703 217 699 Q220 695 219 688 Z " />
<glyph glyph-name="notequal" unicode="&#x2260;" horiz-adv-x="612" d="M271 144 Q268 137 263 133 Q258 129 251 129 L213 129 Q206 129 204 133 Q202 137 204 144 L231 213 L110 213 Q103 213 99 216.5 Q95 220 95 227 L95 257 Q95 264 99 267.5 Q103 271 110 271 L253 271 L299 391 L110 391 Q103 391 99 394.5 Q95 398 95 406 L95 436 Q95 443 99 446.5 Q103 450 110 450 L322 450 L348 518 Q351 525 355.5 529.5 Q360 534 367 534 L405 534 Q412 534 415 530 Q418 526 415 518 L389 450 L510 450 Q517 450 520.5 446.5 Q524 443 524 436 L524 406 Q524 398 520.5 394.5 Q517 391 510 391 L366 391 L320 271 L510 271 Q517 271 520.5 267.5 Q524 264 524 257 L524 227 Q524 220 520.5 216.5 Q517 213 510 213 L298 213 L271 144 Z " />
<glyph glyph-name="AE" unicode="&#xc6;" horiz-adv-x="827" d="M396 502 L220 250 L398 250 L437 563 Q427 546 415.5 529.5 Q404 513 396 502 Z M-7 0 Q-14 0 -18 4 Q-22 8 -17 15 L442 665 Q445 669 451.5 674.5 Q458 680 468 680 L804 680 Q811 680 814.5 676.5 Q818 673 817 666 L813 636 Q812 629 808 625 Q804 621 796 621 L512 621 L483 385 L750 385 Q757 385 760.5 381.5 Q764 378 763 371 L759 343 Q758 335 754 331.5 Q750 328 743 328 L476 328 L442 59 L739 59 Q746 59 749.5 55.5 Q753 52 752 45 L748 15 Q747 7 743.5 3.5 Q740 0 732 0 L386 0 Q378 0 373 3 Q368 6 369 16 L391 193 L179 193 L54 15 Q50 9 45.5 4.5 Q41 0 34 0 L-7 0 Z " />
<glyph glyph-name="Oslash" unicode="&#xd8;" horiz-adv-x="591" d="M134 153 Q133 142 133 133.5 Q133 125 134 117 L435 609 Q419 618 395 622.5 Q371 627 337 627 Q259 627 222 600.5 Q185 574 180 531 L134 153 Z M267 53 Q346 53 382 79.5 Q418 106 423 149 L470 527 Q471 540 471 549 Q471 558 470 565 L168 72 Q184 63 208.5 58 Q233 53 267 53 Z M118 -10 Q111 -22 104.5 -27.5 Q98 -33 87 -33 L62 -33 Q53 -33 52 -26 Q51 -19 56 -10 L88 43 Q73 59 66 78 Q59 97 59 118 Q59 123 59.5 128.5 Q60 134 61 141 L110 542 Q117 602 167 645 Q217 688 342 688 Q383 688 415 682 Q447 676 471 666 L485 690 Q490 699 496.5 705.5 Q503 712 514 712 L540 712 Q550 712 550 704.5 Q550 697 546 690 L514 638 Q530 622 537 602.5 Q544 583 544 561 Q544 557 544 551.5 Q544 546 543 539 L494 138 Q487 78 436.5 35 Q386 -8 261 -8 Q220 -8 187.5 -2.5 Q155 3 132 13 L118 -10 Z " />
<glyph glyph-name="infinity" unicode="&#x221e;" horiz-adv-x="379" d="M53 337 L167 452 Q173 458 178.5 460.5 Q184 463 189 463 Q194 463 199.5 460.5 Q205 458 211 452 L326 337 Q332 331 334.5 325.5 Q337 320 337 315 Q337 310 334.5 304.5 Q332 299 326 293 L211 178 Q205 172 199.5 169 Q194 166 189 166 Q184 166 178 169 Q172 172 167 178 L53 293 Q47 299 43.5 304.5 Q40 310 40 315 Q40 320 43.5 325.5 Q47 331 53 337 Z M180 439 L65 324 Q63 322 61.5 319.5 Q60 317 60 315 Q60 313 61.5 310.5 Q63 308 65 306 L180 191 Q183 188 185 187 Q187 186 189 186 Q192 186 193.5 187 Q195 188 198 191 L314 306 Q315 307 316.5 310 Q318 313 318 315 Q318 317 316.5 319.5 Q315 322 313 324 L198 439 Q196 441 194 442.5 Q192 444 189 444 Q187 444 184.5 442.5 Q182 441 180 439 Z " />
<glyph glyph-name="plusminus" unicode="&#xb1;" horiz-adv-x="580" d="M255 228 L255 351 L89 351 Q81 351 77.5 354.5 Q74 358 74 366 L74 396 Q74 403 77.5 406.5 Q81 410 89 410 L255 410 L255 532 Q255 539 258.5 543 Q262 547 269 547 L298 547 Q305 547 309 543 Q313 539 313 532 L313 410 L480 410 Q487 410 491 406.5 Q495 403 495 396 L495 366 Q495 358 491 354.5 Q487 351 480 351 L313 351 L313 228 Q313 221 309 217 Q305 213 298 213 L269 213 Q262 213 258.5 217 Q255 221 255 228 Z M89 153 L480 153 Q487 153 491 149.5 Q495 146 495 138 L495 109 Q495 101 491 97.5 Q487 94 480 94 L89 94 Q81 94 77.5 97.5 Q74 101 74 109 L74 138 Q74 146 77.5 149.5 Q81 153 89 153 Z " />
<glyph glyph-name="lessequal" unicode="&#x2264;" horiz-adv-x="546" d="M445 515 L148 406 L445 298 Q452 296 456 292 Q460 288 460 281 L460 241 Q460 234 456 229.5 Q452 225 445 228 L93 368 Q87 370 83 373.5 Q79 377 79 384 L79 429 Q79 436 83 439.5 Q87 443 93 445 L445 584 Q452 587 456 583 Q460 579 460 572 L460 532 Q460 525 456 521 Q452 517 445 515 Z M95 169 L445 169 Q453 169 456.5 165.5 Q460 162 460 155 L460 126 Q460 119 456.5 115.5 Q453 112 445 112 L95 112 Q87 112 83.5 115.5 Q80 119 80 126 L80 155 Q80 162 83.5 165.5 Q87 169 95 169 Z " />
<glyph glyph-name="greaterequal" unicode="&#x2265;" horiz-adv-x="553" d="M404 406 L106 515 Q99 517 95.5 521 Q92 525 92 532 L92 573 Q92 580 95.5 584 Q99 588 106 586 L459 447 Q465 445 468.5 441 Q472 437 472 430 L472 384 Q472 376 468.5 372.5 Q465 369 459 367 L106 228 Q99 226 95.5 229.5 Q92 233 92 241 L92 282 Q92 289 95.5 293 Q99 297 106 299 L404 406 Z M106 170 L457 170 Q464 170 468 166.5 Q472 163 472 155 L472 125 Q472 118 468 114 Q464 110 457 110 L106 110 Q99 110 95.5 114 Q92 118 92 125 L92 155 Q92 163 95.5 166.5 Q99 170 106 170 Z " />
<glyph glyph-name="yen" unicode="&#xa5;" horiz-adv-x="553" d="M277 15 Q276 8 273 4 Q270 0 262 0 L220 0 Q212 0 208.5 4 Q205 8 206 15 L237 263 L85 263 Q78 263 74.5 266.5 Q71 270 72 278 L74 296 Q75 303 79 306.5 Q83 310 90 310 L222 310 L192 386 L100 386 Q93 386 89.5 390 Q86 394 87 401 L89 419 Q90 426 94 429.5 Q98 433 105 433 L174 433 L83 665 Q80 672 84.5 676 Q89 680 96 680 L143 680 Q151 680 154.5 676 Q158 672 160 665 L271 375 Q274 368 277 357.5 Q280 347 281 337 Q284 344 289 355 Q294 366 300 375 L487 665 Q491 671 495 675.5 Q499 680 507 680 L550 680 Q558 680 560.5 676 Q563 672 559 665 L410 433 L482 433 Q489 433 492.5 429.5 Q496 426 495 419 L494 401 Q493 394 488.5 390 Q484 386 477 386 L380 386 L331 310 L467 310 Q474 310 477.5 306.5 Q481 303 480 296 L478 278 Q477 270 472.5 266.5 Q468 263 461 263 L308 263 L277 15 Z " />
<glyph glyph-name="mu" unicode="&#x3bc;" horiz-adv-x="525" d="M350 15 L352 51 Q330 34 287.5 13 Q245 -8 183 -8 Q154 -8 135.5 1.5 Q117 11 110 27 L88 -192 Q87 -199 83 -203 Q79 -207 72 -207 L31 -207 Q24 -207 20.5 -203 Q17 -199 18 -192 L101 479 Q102 486 106.5 490 Q111 494 118 494 L158 494 Q164 494 167.5 491 Q171 488 170 479 L129 141 Q128 137 127.5 127.5 Q127 118 127 115 Q127 87 145.5 69.5 Q164 52 207 52 Q261 52 300.5 73.5 Q340 95 358 108 L403 479 Q404 486 408 490 Q412 494 420 494 L460 494 Q468 494 471 490 Q474 486 473 479 L415 15 Q414 7 410.5 3.5 Q407 0 399 0 L363 0 Q356 0 352.5 3.5 Q349 7 350 15 Z " />
<glyph glyph-name="partialdiff" unicode="&#x2202;" horiz-adv-x="379" d="M87 194 L87 440 Q87 451 97.5 452.5 Q108 454 118 448 L304 333 Q313 327 313 317.5 Q313 308 304 302 L118 188 Q108 182 97.5 182 Q87 182 87 194 Z " />
<glyph glyph-name="summation" unicode="&#x2211;" horiz-adv-x="379" d="M292 440 L292 194 Q292 182 281 182 Q270 182 260 188 L75 302 Q66 308 66 317.5 Q66 327 75 333 L260 448 Q270 455 281 453 Q292 451 292 440 Z " />
<glyph glyph-name="product" unicode="&#x220f;" horiz-adv-x="379" d="M313 203 L68 203 Q57 203 55.5 213.5 Q54 224 60 234 L175 420 Q181 429 190.5 429 Q200 429 206 420 L320 234 Q326 224 325.5 213.5 Q325 203 313 203 Z " />
<glyph glyph-name="pi" unicode="&#x3c0;" horiz-adv-x="357" d="M66 432 L311 432 Q323 432 324 421.5 Q325 411 319 401 L204 215 Q199 206 189 206 Q179 206 173 215 L59 401 Q53 411 53.5 421.5 Q54 432 66 432 Z " />
<glyph glyph-name="integral" unicode="&#x222b;" horiz-adv-x="379" d="M29 314 Q29 380 75.5 427.5 Q122 475 188 475 Q254 475 301.5 427.5 Q349 380 349 314 Q349 248 301.5 201.5 Q254 155 188 155 Q122 155 75.5 201.5 Q29 248 29 314 Z " />
<glyph glyph-name="ordfeminine" unicode="&#xaa;" horiz-adv-x="386" d="M160 600 L145 476 Q144 469 144 466.5 Q144 464 144 460 Q144 444 153.5 434.5 Q163 425 187 425 Q219 425 242.5 439 Q266 453 274 460 L291 608 Q285 615 265.5 628.5 Q246 642 215 642 Q187 642 174.5 630 Q162 618 160 600 Z M269 417 Q255 407 229 394 Q203 381 165 381 Q128 381 106.5 398 Q85 415 85 445 Q85 448 85 453 Q85 458 86 464 L104 610 Q108 645 132 666.5 Q156 688 201 688 Q237 688 261.5 675.5 Q286 663 298 653 L303 671 Q304 678 307 680.5 Q310 683 315 683 L349 683 Q353 683 355.5 680 Q358 677 357 673 L323 395 Q322 391 319.5 388.5 Q317 386 312 386 L276 386 Q272 386 270 388.5 Q268 391 268 395 L269 417 Z " />
<glyph glyph-name="ordmasculine" unicode="&#xba;" horiz-adv-x="371" d="M86 475 L102 606 Q106 643 135 665.5 Q164 688 230 688 Q286 688 315.5 668.5 Q345 649 345 617 Q345 614 344.5 608 Q344 602 343 597 L326 462 Q322 425 292.5 403 Q263 381 197 381 Q141 381 112 400 Q83 419 83 451 Q83 455 84 463 Q85 471 86 475 Z M268 467 L284 597 Q285 603 285 605.5 Q285 608 285 609 Q285 625 271.5 633.5 Q258 642 227 642 Q193 642 177.5 632 Q162 622 160 603 L144 477 Q143 471 142.5 467 Q142 463 142 460 Q142 444 156 435 Q170 426 201 426 Q235 426 250.5 437 Q266 448 268 467 Z " />
<glyph glyph-name="Omega" unicode="&#x3a9;" horiz-adv-x="379" d="M67 314 Q67 364 103 400 Q139 436 188 436 Q238 436 274 400 Q310 364 310 314 Q310 265 274 229 Q238 193 188 193 Q139 193 103 229 Q67 265 67 314 Z M85 314 Q85 271 115 241 Q145 211 188 211 Q231 211 262 241 Q293 271 293 314 Q293 357 262 388 Q231 419 188 419 Q145 419 115 388 Q85 357 85 314 Z " />
<glyph glyph-name="ae" unicode="&#xe6;" horiz-adv-x="784" d="M732 373 L717 250 Q716 243 712.5 239.5 Q709 236 702 236 L418 236 L404 128 Q403 121 403 117 Q403 113 403 110 Q403 81 426.5 64 Q450 47 510 47 Q577 47 604 67.5 Q631 88 635 121 L638 142 Q639 149 643.5 152.5 Q648 156 655 156 L689 156 Q696 156 699 152.5 Q702 149 701 142 L699 119 Q694 63 652 27.5 Q610 -8 506 -8 Q434 -8 395 11 Q356 30 343 62 Q320 43 275 17.5 Q230 -8 163 -8 Q109 -8 70 17 Q31 42 31 93 Q31 96 31 99.5 Q31 103 32 110 L38 159 Q43 205 79 239.5 Q115 274 182 274 L353 274 L365 365 Q366 372 366 376.5 Q366 381 366 385 Q366 413 343.5 431 Q321 449 262 449 Q196 449 169.5 428.5 Q143 408 139 374 L137 358 Q136 350 132.5 346 Q129 342 121 342 L85 342 Q78 342 74.5 345.5 Q71 349 72 358 L74 375 Q81 432 122.5 467 Q164 502 267 502 Q327 502 360.5 487 Q394 472 407 448 Q426 472 463.5 487 Q501 502 565 502 Q655 502 694 471.5 Q733 441 733 392 Q733 388 733 384 Q733 380 732 373 Z M434 371 L423 289 L656 289 L666 366 Q667 373 667 377 Q667 381 667 383 Q667 411 643 429 Q619 447 559 447 Q493 447 465.5 425.5 Q438 404 434 371 Z M179 49 Q233 49 274 73.5 Q315 98 334 112 L347 219 L187 219 Q149 219 128.5 199 Q108 179 104 149 L101 124 Q100 117 100 114.5 Q100 112 100 111 Q100 78 120.5 63.5 Q141 49 179 49 Z " />
<glyph glyph-name="oslash" unicode="&#xf8;" horiz-adv-x="512" d="M117 126 Q116 115 116.5 108 Q117 101 119 94 L348 434 Q335 439 317 442 Q299 445 276 445 Q210 445 181 424 Q152 403 148 368 L117 126 Z M227 49 Q293 49 322.5 70 Q352 91 356 126 L386 362 Q388 377 386.5 385 Q385 393 384 400 L155 59 Q168 55 186 52 Q204 49 227 49 Z M108 -11 Q101 -22 94.5 -27.5 Q88 -33 76 -33 L53 -33 Q43 -33 44 -25.5 Q45 -18 49 -11 L77 31 Q62 45 54.5 63.5 Q47 82 47 103 Q47 107 47 111 Q47 115 48 121 L79 373 Q86 430 131.5 466 Q177 502 282 502 Q313 502 338.5 498.5 Q364 495 383 488 L397 508 Q402 516 409 523 Q416 530 426 530 L451 530 Q461 530 461.5 523 Q462 516 456 508 L426 463 Q442 450 449.5 431.5 Q457 413 457 391 Q457 388 457 384 Q457 380 456 373 L425 121 Q418 64 372.5 28 Q327 -8 222 -8 Q191 -8 165 -4 Q139 0 120 7 L108 -11 Z " />
<glyph glyph-name="questiondown" unicode="&#xbf;" horiz-adv-x="500" d="M244 401 L253 479 Q254 487 258 490.5 Q262 494 270 494 L312 494 Q319 494 322 491 Q325 488 324 479 L315 402 Q314 394 310 390 Q306 386 299 386 L256 386 Q248 386 245.5 390 Q243 394 244 401 Z M305 317 L295 239 Q289 194 262.5 173.5 Q236 153 217 143 L143 107 Q130 100 108.5 82 Q87 64 83 30 L74 -37 Q73 -44 73 -48.5 Q73 -53 73 -57 Q73 -91 101.5 -112.5 Q130 -134 201 -134 Q279 -134 312 -107.5 Q345 -81 351 -37 L357 9 Q358 17 362 21 Q366 25 373 25 L414 25 Q421 25 424 21 Q427 17 426 9 L419 -48 Q412 -108 365.5 -151 Q319 -194 196 -194 Q88 -194 45 -156 Q2 -118 2 -67 Q2 -64 2 -58 Q2 -52 3 -45 L12 31 Q19 91 52.5 118.5 Q86 146 111 158 L167 184 Q185 192 203 208 Q221 224 225 255 L234 317 Q235 324 238.5 328 Q242 332 250 332 L292 332 Q300 332 303 328 Q306 324 305 317 Z " />
<glyph glyph-name="exclamdown" unicode="&#xa1;" horiz-adv-x="221" d="M90 401 L100 479 Q101 487 104.5 490.5 Q108 494 116 494 L157 494 Q165 494 168.5 490.5 Q172 487 171 479 L161 401 Q160 394 155.5 390 Q151 386 144 386 L102 386 Q94 386 91.5 390 Q89 394 90 401 Z M51 104 L85 317 Q86 324 90.5 328 Q95 332 102 332 L131 332 Q139 332 142 328 Q145 324 144 317 L124 104 L91 -171 Q90 -178 86 -182 Q82 -186 75 -186 L31 -186 Q23 -186 20.5 -182 Q18 -178 19 -171 L51 104 Z " />
<glyph glyph-name="logicalnot" unicode="&#xac;" horiz-adv-x="350" d="M64 314 Q64 360 97 393.5 Q130 427 176 427 Q223 427 256 393.5 Q289 360 289 314 Q289 268 256 235 Q223 202 176 202 Q130 202 97 235 Q64 268 64 314 Z " />
<glyph glyph-name="radical" unicode="&#x221a;" horiz-adv-x="379" d="M108 427 L270 427 Q287 427 294 420 Q301 413 301 396 L301 234 Q301 218 294 210.5 Q287 203 270 203 L108 203 Q92 203 84.5 210.5 Q77 218 77 234 L77 396 Q77 413 84.5 420 Q92 427 108 427 Z M270 409 L108 409 Q101 409 98 406 Q95 403 95 396 L95 234 Q95 227 98 224 Q101 221 108 221 L270 221 Q277 221 280.5 224 Q284 227 284 234 L284 396 Q284 403 280.5 406 Q277 409 270 409 Z " />
<glyph glyph-name="florin" unicode="&#x192;" horiz-adv-x="418" d="M64 -79 L170 359 L81 359 Q74 359 70.5 362.5 Q67 366 68 374 L71 401 Q72 409 76 412.5 Q80 416 87 416 L183 416 L222 579 Q235 636 282 672 Q329 708 431 708 L445 708 Q452 708 455.5 704.5 Q459 701 458 693 L454 664 Q453 656 449 652.5 Q445 649 438 649 L426 649 Q360 649 330 628 Q300 607 291 572 L252 416 L348 416 Q355 416 358.5 412.5 Q362 409 361 401 L358 374 Q357 366 353 362.5 Q349 359 342 359 L239 359 L132 -86 Q119 -143 71.5 -179 Q24 -215 -77 -215 L-90 -215 Q-97 -215 -100 -211.5 Q-103 -208 -102 -200 L-99 -171 Q-98 -164 -94 -160 Q-90 -156 -83 -156 L-72 -156 Q-5 -156 25.5 -135 Q56 -114 64 -79 Z " />
<glyph glyph-name="approxequal" unicode="&#x2248;" horiz-adv-x="484" d="M411 439 L409 412 Q405 363 385.5 344.5 Q366 326 341 326 Q331 326 315.5 330 Q300 334 286 341 L198 386 Q191 390 180.5 394.5 Q170 399 163 399 Q146 399 141 390 Q136 381 135 358 L134 343 Q133 336 129 333 Q125 330 118 330 L97 330 Q90 330 86.5 334.5 Q83 339 84 346 L86 374 Q89 421 110 440.5 Q131 460 157 460 Q169 460 182 455.5 Q195 451 205 446 L292 401 Q301 397 313 391.5 Q325 386 334 386 Q351 386 355 396 Q359 406 360 429 L361 443 Q362 450 365.5 453 Q369 456 376 456 L399 456 Q406 456 409 452 Q412 448 411 439 Z M411 279 L409 252 Q405 203 385.5 184.5 Q366 166 341 166 Q331 166 315.5 170 Q300 174 286 181 L198 226 Q191 230 180.5 234.5 Q170 239 163 239 Q146 239 141 230 Q136 221 135 198 L134 183 Q133 176 129 173 Q125 170 118 170 L97 170 Q90 170 86.5 174.5 Q83 179 84 186 L86 214 Q89 261 110 280.5 Q131 300 157 300 Q169 300 182 295.5 Q195 291 205 286 L292 241 Q301 237 313 231.5 Q325 226 334 226 Q351 226 355 236 Q359 246 360 269 L361 283 Q362 290 365.5 293 Q369 296 376 296 L399 296 Q406 296 409 292 Q412 288 411 279 Z " />
<glyph glyph-name="increment" unicode="&#x394;" horiz-adv-x="379" d="M108 419 L270 419 Q282 419 287.5 413.5 Q293 408 293 396 L293 234 Q293 223 287.5 217.5 Q282 212 270 212 L108 212 Q97 212 91.5 217.5 Q86 223 86 234 L86 396 Q86 408 91.5 413.5 Q97 419 108 419 Z " />
<glyph glyph-name="guillemotleft" unicode="&#xab;" horiz-adv-x="531" d="M301 244 L431 139 Q436 135 439.5 129.5 Q443 124 442 117 L437 75 Q436 67 431 65 Q426 63 421 67 L253 206 Q248 210 245 216 Q242 222 243 232 L247 260 Q248 270 252.5 276 Q257 282 264 286 L466 425 Q471 429 475.5 426.5 Q480 424 479 417 L474 372 Q473 365 467.5 359.5 Q462 354 456 350 L301 244 Z M96 244 L226 139 Q231 135 234.5 129.5 Q238 124 237 117 L232 75 Q231 67 226 65 Q221 63 216 67 L48 206 Q43 210 40 216 Q37 222 38 232 L42 260 Q43 270 47.5 276 Q52 282 59 286 L261 425 Q266 429 270.5 426.5 Q275 424 274 417 L269 372 Q268 365 262.5 359.5 Q257 354 251 350 L96 244 Z " />
<glyph glyph-name="guillemotright" unicode="&#xbb;" horiz-adv-x="540" d="M222 254 L92 359 Q87 363 83.5 368.5 Q80 374 81 381 L86 423 Q87 431 92 433 Q97 435 102 431 L270 292 Q275 288 278 282 Q281 276 280 266 L276 238 Q275 228 270.5 222 Q266 216 259 212 L57 73 Q52 69 47.5 71.5 Q43 74 44 81 L49 126 Q50 133 55.5 138.5 Q61 144 67 148 L222 254 Z M437 254 L307 359 Q302 363 298.5 368.5 Q295 374 296 381 L301 423 Q302 431 307 433 Q312 435 317 431 L485 292 Q490 288 493 282 Q496 276 495 266 L491 238 Q490 228 485.5 222 Q481 216 474 212 L272 73 Q267 69 262.5 71.5 Q258 74 259 81 L264 126 Q265 133 270.5 138.5 Q276 144 282 148 L437 254 Z " />
<glyph glyph-name="ellipsis" unicode="&#x2026;" horiz-adv-x="701" d="M117 93 L107 15 Q106 7 102.5 3.5 Q99 0 92 0 L50 0 Q43 0 40 3.5 Q37 7 38 15 L47 93 Q48 100 52 104 Q56 108 63 108 L105 108 Q112 108 115 104 Q118 100 117 93 Z M612 93 L602 15 Q601 7 597.5 3.5 Q594 0 587 0 L545 0 Q538 0 535 3.5 Q532 7 533 15 L542 93 Q543 100 547 104 Q551 108 558 108 L600 108 Q607 108 610 104 Q613 100 612 93 Z M365 93 L355 15 Q354 7 350.5 3.5 Q347 0 340 0 L298 0 Q291 0 288 3.5 Q285 7 286 15 L295 93 Q296 100 300 104 Q304 108 311 108 L353 108 Q360 108 363 104 Q366 100 365 93 Z " />
<glyph glyph-name="Agrave" unicode="&#xc0;" horiz-adv-x="532" d="M360 250 L316 484 Q310 515 308 550.5 Q306 586 305 607 Q302 596 289 553 Q276 510 266 486 L163 250 L360 250 Z M294 680 L337 680 Q344 680 348 676 Q352 672 353 665 L473 15 Q474 8 471 4 Q468 0 461 0 L418 0 Q410 0 406 4 Q402 8 401 15 L369 193 L140 193 L63 15 Q60 8 56 4 Q52 0 45 0 L4 0 Q-4 0 -6.5 4 Q-9 8 -6 15 L273 665 Q276 672 281 676 Q286 680 294 680 Z M275 747 L210 863 Q207 869 209.5 873.5 Q212 878 220 878 L262 878 Q270 878 274 874.5 Q278 871 281 865 L333 752 Q336 745 333.5 741.5 Q331 738 324 738 L292 738 Q285 738 281 740.5 Q277 743 275 747 Z " />
<glyph glyph-name="Atilde" unicode="&#xc3;" horiz-adv-x="532" d="M360 250 L316 484 Q310 515 308 550.5 Q306 586 305 607 Q302 596 289 553 Q276 510 266 486 L163 250 L360 250 Z M294 680 L337 680 Q344 680 348 676 Q352 672 353 665 L473 15 Q474 8 471 4 Q468 0 461 0 L418 0 Q410 0 406 4 Q402 8 401 15 L369 193 L140 193 L63 15 Q60 8 56 4 Q52 0 45 0 L4 0 Q-4 0 -6.5 4 Q-9 8 -6 15 L273 665 Q276 672 281 676 Q286 680 294 680 Z M244 819 Q229 819 223.5 809.5 Q218 800 214 778 L211 763 Q210 756 205.5 753 Q201 750 194 750 L173 750 Q166 750 163.5 755 Q161 760 162 767 L167 791 Q176 834 196 853 Q216 872 246 872 Q259 872 273.5 867 Q288 862 301 852 L342 820 Q350 813 358.5 808.5 Q367 804 374 804 Q390 804 396.5 813.5 Q403 823 406 851 L407 860 Q408 867 412.5 870 Q417 873 424 873 L446 873 Q454 873 456 868.5 Q458 864 457 856 L454 832 Q448 787 424.5 769 Q401 751 373 751 Q356 751 343 756.5 Q330 762 317 772 L276 804 Q268 811 260 815 Q252 819 244 819 Z " />
<glyph glyph-name="Otilde" unicode="&#xd5;" horiz-adv-x="591" d="M60 141 L109 542 Q116 602 166 645 Q216 688 341 688 Q451 688 497 650.5 Q543 613 543 561 Q543 557 543 552 Q543 547 542 539 L493 138 Q486 78 435.5 35 Q385 -8 260 -8 Q150 -8 104 29 Q58 66 58 118 Q58 123 58.5 129 Q59 135 60 141 Z M422 149 L469 527 Q470 534 470 538 Q470 542 470 545 Q470 584 439.5 605.5 Q409 627 336 627 Q258 627 221 600.5 Q184 574 179 531 L133 153 Q132 148 131.5 143 Q131 138 131 135 Q131 97 162 75 Q193 53 266 53 Q345 53 381 79.5 Q417 106 422 149 Z M291 819 Q276 819 270.5 809.5 Q265 800 261 778 L258 763 Q257 756 252.5 753 Q248 750 241 750 L220 750 Q213 750 210.5 755 Q208 760 209 767 L214 791 Q223 834 243 853 Q263 872 293 872 Q306 872 320.5 867 Q335 862 348 852 L389 820 Q397 813 405.5 808.5 Q414 804 421 804 Q437 804 443.5 813.5 Q450 823 453 851 L454 860 Q455 867 459.5 870 Q464 873 471 873 L493 873 Q501 873 503 868.5 Q505 864 504 856 L501 832 Q495 787 471.5 769 Q448 751 420 751 Q403 751 390 756.5 Q377 762 364 772 L323 804 Q315 811 307 815 Q299 819 291 819 Z " />
<glyph glyph-name="OE" unicode="&#x152;" horiz-adv-x="869" d="M422 147 L469 528 Q470 534 470 538.5 Q470 543 470 547 Q470 584 439.5 606.5 Q409 629 335 629 Q258 629 221 602 Q184 575 179 531 L132 152 Q131 147 131 142 Q131 137 131 133 Q131 96 162 73.5 Q193 51 266 51 Q345 51 381 77.5 Q417 104 422 147 Z M406 15 L408 31 Q382 13 345 2.5 Q308 -8 259 -8 Q149 -8 103.5 28.5 Q58 65 58 117 Q58 122 58.5 128 Q59 134 60 141 L109 542 Q116 601 164 644.5 Q212 688 333 688 Q382 688 420.5 678 Q459 668 484 649 L486 665 Q487 672 491 676 Q495 680 502 680 L844 680 Q851 680 854.5 676.5 Q858 673 857 666 L853 635 Q852 628 848 624.5 Q844 621 836 621 L552 621 L523 385 L789 385 Q796 385 800 382 Q804 379 803 372 L799 342 Q798 335 794 331.5 Q790 328 783 328 L516 328 L482 59 L779 59 Q786 59 789.5 56 Q793 53 792 45 L788 15 Q787 7 783.5 3.5 Q780 0 773 0 L419 0 Q412 0 408.5 4 Q405 8 406 15 Z " />
<glyph glyph-name="oe" unicode="&#x153;" horiz-adv-x="804" d="M525 -8 Q468 -8 431.5 4 Q395 16 376 38 Q355 16 318 4 Q281 -8 221 -8 Q128 -8 86.5 23 Q45 54 45 103 Q45 107 45 110.5 Q45 114 46 120 L77 373 Q84 430 128 466 Q172 502 277 502 Q337 502 373 488.5 Q409 475 426 452 Q447 474 484.5 488 Q522 502 584 502 Q674 502 713 472 Q752 442 752 393 Q752 389 752 384.5 Q752 380 751 373 L736 253 Q735 246 731.5 242.5 Q728 239 721 239 L437 239 L422 123 Q421 118 421 115.5 Q421 113 421 110 Q421 81 445 63 Q469 45 529 45 Q595 45 622 66 Q649 87 654 121 L657 141 Q658 148 662.5 152 Q667 156 674 156 L708 156 Q715 156 718.5 152.5 Q722 149 721 141 L718 119 Q711 63 670.5 27.5 Q630 -8 525 -8 Z M675 286 L685 363 Q686 371 686 375 Q686 379 686 383 Q686 412 662.5 430.5 Q639 449 579 449 Q512 449 484.5 427 Q457 405 453 371 L442 286 L675 286 Z M354 125 L384 361 Q385 368 385 371.5 Q385 375 385 380 Q385 411 359.5 428.5 Q334 446 275 446 Q209 446 179.5 424.5 Q150 403 146 369 L116 125 Q115 120 115 118 Q115 116 115 113 Q115 82 140.5 65 Q166 48 226 48 Q292 48 321 69 Q350 90 354 125 Z " />
<glyph glyph-name="endash" unicode="&#x2013;" horiz-adv-x="520" d="M80 318 L438 318 Q445 318 449 314.5 Q453 311 453 304 L453 275 Q453 267 449 263.5 Q445 260 438 260 L80 260 Q73 260 69 263.5 Q65 267 65 275 L65 304 Q65 311 69 314.5 Q73 318 80 318 Z " />
<glyph glyph-name="emdash" unicode="&#x2014;" horiz-adv-x="829" d="M80 318 L747 318 Q755 318 758.5 314.5 Q762 311 762 304 L762 275 Q762 267 758.5 263.5 Q755 260 747 260 L80 260 Q73 260 69 263.5 Q65 267 65 275 L65 304 Q65 311 69 314.5 Q73 318 80 318 Z " />
<glyph glyph-name="quotedblleft" unicode="&#x201c;" horiz-adv-x="385" d="M326 604 L318 543 Q317 536 313 532 Q309 528 302 528 L260 528 Q253 528 250 532 Q247 536 248 543 L256 607 Q262 654 290 684 Q318 714 371 729 Q378 731 382.5 729 Q387 727 388 720 L395 691 Q396 684 393.5 679.5 Q391 675 383 672 Q353 660 341 643.5 Q329 627 326 604 Z M169 604 L161 543 Q160 536 156 532 Q152 528 145 528 L103 528 Q96 528 93 532 Q90 536 91 543 L99 607 Q105 654 133 684 Q161 714 214 729 Q221 731 225.5 729 Q230 727 231 720 L238 691 Q239 684 236.5 679.5 Q234 675 226 672 Q196 660 184 643.5 Q172 627 169 604 Z " />
<glyph glyph-name="quotedblright" unicode="&#x201d;" horiz-adv-x="385" d="M148 653 L156 714 Q157 721 161 725 Q165 729 172 729 L214 729 Q221 729 224 725 Q227 721 226 714 L218 650 Q212 603 184 573 Q156 543 103 528 Q96 526 91.5 528 Q87 530 86 537 L79 566 Q78 573 80.5 577.5 Q83 582 91 585 Q121 597 133 613.5 Q145 630 148 653 Z M306 653 L314 714 Q315 721 319 725 Q323 729 330 729 L372 729 Q379 729 382 725 Q385 721 384 714 L376 650 Q370 603 342 573 Q314 543 261 528 Q254 526 249.5 528 Q245 530 244 537 L237 566 Q236 573 238.5 577.5 Q241 582 249 585 Q279 597 291 613.5 Q303 630 306 653 Z " />
<glyph glyph-name="quoteleft" unicode="&#x2018;" horiz-adv-x="227" d="M169 604 L161 543 Q160 536 156 532 Q152 528 145 528 L103 528 Q96 528 93 532 Q90 536 91 543 L99 607 Q105 654 133 684 Q161 714 214 729 Q221 731 225.5 729 Q230 727 231 720 L238 691 Q239 684 236.5 679.5 Q234 675 226 672 Q196 660 184 643.5 Q172 627 169 604 Z " />
<glyph glyph-name="quoteright" unicode="&#x2019;" horiz-adv-x="228" d="M148 653 L156 714 Q157 721 161 725 Q165 729 172 729 L214 729 Q221 729 224 725 Q227 721 226 714 L218 650 Q212 603 184 573 Q156 543 103 528 Q96 526 91.5 528 Q87 530 86 537 L79 566 Q78 573 80.5 577.5 Q83 582 91 585 Q121 597 133 613.5 Q145 630 148 653 Z " />
<glyph glyph-name="divide" unicode="&#xf7;" horiz-adv-x="557" d="M317 528 L317 450 Q317 442 313.5 438.5 Q310 435 303 435 L261 435 Q253 435 249.5 438.5 Q246 442 246 450 L246 528 Q246 535 249.5 539 Q253 543 261 543 L303 543 Q310 543 313.5 539 Q317 535 317 528 Z M80 349 L482 349 Q489 349 493 346 Q497 343 497 335 L497 305 Q497 298 493.5 294 Q490 290 482 290 L81 290 Q74 290 70.5 293.5 Q67 297 67 305 L67 335 Q67 343 70 346 Q73 349 80 349 Z M317 193 L317 115 Q317 107 313.5 103.5 Q310 100 303 100 L261 100 Q253 100 249.5 103.5 Q246 107 246 115 L246 193 Q246 200 249.5 204 Q253 208 261 208 L303 208 Q310 208 313.5 204 Q317 200 317 193 Z " />
<glyph glyph-name="lozenge" unicode="&#x25ca;" horiz-adv-x="379" d="M59 331 L174 446 Q178 450 181.5 451.5 Q185 453 189 453 Q193 453 197 451.5 Q201 450 205 446 L320 331 Q324 327 325.5 323 Q327 319 327 315 Q327 311 325.5 307.5 Q324 304 320 300 L205 185 Q201 181 197 178.5 Q193 176 189 176 Q185 176 181.5 178.5 Q178 181 174 185 L59 300 Q55 304 53 307.5 Q51 311 51 315 Q51 319 53 323 Q55 327 59 331 Z " />
<glyph glyph-name="ydieresis" unicode="&#xff;" horiz-adv-x="446" d="M446 479 L135 -192 Q132 -198 127.5 -202.5 Q123 -207 116 -207 L84 -207 Q77 -207 73.5 -203 Q70 -199 73 -192 L157 -4 L50 479 Q49 486 53.5 490 Q58 494 65 494 L106 494 Q113 494 116.5 490 Q120 486 121 479 L193 147 Q196 134 198.5 115.5 Q201 97 201 87 Q206 103 211.5 117.5 Q217 132 223 145 L377 479 Q380 486 384.5 490 Q389 494 396 494 L434 494 Q441 494 445.5 490 Q450 486 446 479 Z M343 688 L332 591 Q331 584 327 580.5 Q323 577 315 577 L291 577 Q283 577 280 580.5 Q277 584 278 591 L290 688 Q291 695 295 699 Q299 703 306 703 L331 703 Q339 703 341.5 699 Q344 695 343 688 Z M236 688 L224 591 Q223 584 219.5 580.5 Q216 577 208 577 L184 577 Q176 577 173 580.5 Q170 584 171 591 L183 688 Q184 695 188 699 Q192 703 199 703 L224 703 Q231 703 234 699 Q237 695 236 688 Z " />
<glyph glyph-name="Ydieresis" unicode="&#x178;" horiz-adv-x="521" d="M149 665 L260 375 Q263 368 266 357.5 Q269 347 270 337 Q273 344 278 355 Q283 366 289 375 L476 665 Q480 671 484 675.5 Q488 680 496 680 L539 680 Q547 680 549.5 676 Q552 672 548 665 L299 277 L266 15 Q265 8 262 4 Q259 0 251 0 L209 0 Q201 0 197.5 4 Q194 8 195 15 L227 269 L72 665 Q69 672 73.5 676 Q78 680 85 680 L132 680 Q140 680 143.5 676 Q147 672 149 665 Z M403 856 L391 759 Q390 751 386 747.5 Q382 744 375 744 L350 744 Q343 744 340 747.5 Q337 751 338 759 L350 856 Q351 863 355 866.5 Q359 870 366 870 L391 870 Q398 870 401 866.5 Q404 863 403 856 Z M296 856 L284 759 Q283 751 279 747.5 Q275 744 268 744 L243 744 Q236 744 233 747.5 Q230 751 231 759 L242 856 Q243 863 247.5 866.5 Q252 870 259 870 L284 870 Q291 870 294 866.5 Q297 863 296 856 Z " />
<glyph glyph-name="fraction" unicode="&#x2044;" horiz-adv-x="83" d="M275 673 L-119 7 Q-123 0 -128.5 -4 Q-134 -8 -142 -8 L-174 -8 Q-181 -8 -182 -2.5 Q-183 3 -180 7 L214 673 Q218 680 224 684 Q230 688 237 688 L270 688 Q277 688 278 684 Q279 680 275 673 Z " />
<glyph glyph-name="currency" unicode="&#xa4;" horiz-adv-x="630" d="M215 390 L203 290 Q199 256 221.5 235.5 Q244 215 307 215 Q370 215 397.5 235.5 Q425 256 429 290 L441 390 Q445 424 422.5 444.5 Q400 465 337 465 Q274 465 246.5 444.5 Q219 424 215 390 Z M82 94 Q76 88 70.5 88 Q65 88 61 93 L46 109 Q41 115 42 120 Q43 125 49 130 L151 222 Q144 235 141.5 251.5 Q139 268 141 286 L154 394 Q156 413 162.5 429.5 Q169 446 180 460 L101 550 Q96 556 96.5 560.5 Q97 565 104 571 L122 587 Q128 592 133 592 Q138 592 143 587 L224 494 Q246 504 275 509.5 Q304 515 341 515 Q379 515 408 509 Q437 503 456 493 L562 587 Q568 592 573 592 Q578 592 583 587 L598 571 Q602 566 601.5 561 Q601 556 594 550 L492 459 Q500 446 502.5 429.5 Q505 413 503 394 L490 286 Q488 267 481.5 250 Q475 233 464 220 L542 130 Q547 125 546.5 120 Q546 115 540 109 L522 93 Q517 88 511 88.5 Q505 89 501 94 L420 186 Q398 176 369 170.5 Q340 165 303 165 Q264 165 235 171 Q206 177 187 188 L82 94 Z " />
<glyph glyph-name="guilsinglleft" unicode="&#x2039;" horiz-adv-x="326" d="M96 244 L226 139 Q231 135 234.5 129.5 Q238 124 237 117 L232 75 Q231 67 226 65 Q221 63 216 67 L48 206 Q43 210 40 216 Q37 222 38 232 L42 260 Q43 270 47.5 276 Q52 282 59 286 L261 425 Q266 429 270.5 426.5 Q275 424 274 417 L269 372 Q268 365 262.5 359.5 Q257 354 251 350 L96 244 Z " />
<glyph glyph-name="guilsinglright" unicode="&#x203a;" horiz-adv-x="326" d="M221 247 L91 352 Q86 356 82.5 361.5 Q79 367 80 374 L85 416 Q86 424 91 426 Q96 428 101 424 L269 285 Q274 281 277 275 Q280 269 279 259 L275 231 Q274 221 269.5 215 Q265 209 258 205 L56 66 Q51 62 46.5 64.5 Q42 67 43 74 L48 119 Q49 126 54.5 131.5 Q60 137 66 141 L221 247 Z " />
<glyph glyph-name="fi" unicode="&#xfb01;" horiz-adv-x="543" d="M489 477 L432 15 Q431 8 427 4 Q423 0 416 0 L375 0 Q368 0 364.5 4 Q361 8 362 15 L414 435 L190 435 L112 -191 Q111 -199 107.5 -202.5 Q104 -206 96 -206 L56 -206 Q49 -206 45.5 -202.5 Q42 -199 43 -191 L121 435 L58 435 Q50 435 47.5 439 Q45 443 46 450 L48 474 Q49 481 52.5 484.5 Q56 488 64 489 L118 492 L127 492 L137 570 Q144 627 188 663 Q232 699 335 699 L481 699 Q489 699 492 695.5 Q495 692 494 684 L491 655 Q490 647 486 643.5 Q482 640 475 640 L332 640 Q265 640 237 619 Q209 598 205 563 L196 492 L475 492 Q483 492 486.5 488.5 Q490 485 489 477 Z " />
<glyph glyph-name="fl" unicode="&#xfb02;" horiz-adv-x="543" d="M514 684 L432 15 Q431 8 427 4 Q423 0 416 0 L375 0 Q368 0 364.5 4 Q361 8 362 15 L440 640 L332 640 Q265 640 237 619 Q209 598 205 563 L196 492 L304 492 Q312 492 315.5 488.5 Q319 485 318 478 L315 450 Q314 443 310 439 Q306 435 299 435 L190 435 L112 -191 Q111 -199 107.5 -202.5 Q104 -206 96 -206 L56 -206 Q49 -206 45.5 -202.5 Q42 -199 43 -191 L121 435 L58 435 Q50 435 47.5 439 Q45 443 46 450 L48 474 Q49 481 52.5 484.5 Q56 488 64 489 L118 492 L127 492 L137 570 Q144 627 187.5 663 Q231 699 335 699 L500 699 Q508 699 511.5 695.5 Q515 692 514 684 Z " />
<glyph glyph-name="daggerdbl" unicode="&#x2021;" horiz-adv-x="466" d="M317 684 L235 15 Q234 8 230.5 4 Q227 0 219 0 L179 0 Q172 0 168.5 4 Q165 8 166 15 L248 684 Q249 691 253 695 Q257 699 265 699 L305 699 Q313 699 315.5 695 Q318 691 317 684 Z M458 487 L455 457 Q454 450 450 446.5 Q446 443 439 443 L324 443 Q317 443 313.5 446.5 Q310 450 311 457 L314 487 Q315 494 319 497.5 Q323 501 330 501 L445 501 Q452 501 455.5 497.5 Q459 494 458 487 Z M58 487 Q59 494 63 497.5 Q67 501 74 501 L188 501 Q196 501 199.5 497.5 Q203 494 202 487 L199 457 Q198 450 194 446.5 Q190 443 183 443 L68 443 Q61 443 57.5 446.5 Q54 450 55 457 L58 487 Z M428 242 L424 212 Q423 205 419 201 Q415 197 408 197 L293 197 Q286 197 282.5 201 Q279 205 280 212 L283 242 Q284 249 288 252.5 Q292 256 300 256 L414 256 Q421 256 425 252.5 Q429 249 428 242 Z M27 242 Q28 249 32.5 252.5 Q37 256 44 256 L158 256 Q166 256 169.5 252.5 Q173 249 172 242 L168 212 Q167 205 163.5 201 Q160 197 152 197 L38 197 Q31 197 27.5 201 Q24 205 25 212 L27 242 Z " />
<glyph glyph-name="middot" unicode="&#xb7;" horiz-adv-x="218" d="M148 304 L138 226 Q137 218 133.5 214.5 Q130 211 123 211 L81 211 Q74 211 71 214.5 Q68 218 69 226 L78 304 Q79 311 83 315 Q87 319 94 319 L136 319 Q143 319 146 315 Q149 311 148 304 Z " />
<glyph glyph-name="quotesinglbase" unicode="&#x201a;" horiz-adv-x="172" d="M20 32 L28 93 Q29 100 33 104 Q37 108 44 108 L86 108 Q93 108 96 104 Q99 100 98 93 L90 29 Q84 -18 56 -48 Q28 -78 -25 -93 Q-32 -95 -36.5 -93 Q-41 -91 -42 -84 L-49 -55 Q-50 -48 -47.5 -43.5 Q-45 -39 -37 -36 Q-7 -24 5 -7.5 Q17 9 20 32 Z " />
<glyph glyph-name="quotedblbase" unicode="&#x201e;" horiz-adv-x="329" d="M20 32 L28 93 Q29 100 33 104 Q37 108 44 108 L86 108 Q93 108 96 104 Q99 100 98 93 L90 29 Q84 -18 56 -48 Q28 -78 -25 -93 Q-32 -95 -36.5 -93 Q-41 -91 -42 -84 L-49 -55 Q-50 -48 -47.5 -43.5 Q-45 -39 -37 -36 Q-7 -24 5 -7.5 Q17 9 20 32 Z M178 32 L186 93 Q187 100 191 104 Q195 108 202 108 L244 108 Q251 108 254 104 Q257 100 256 93 L248 29 Q242 -18 214 -48 Q186 -78 133 -93 Q126 -95 121.5 -93 Q117 -91 116 -84 L109 -55 Q108 -48 110.5 -43.5 Q113 -39 121 -36 Q151 -24 163 -7.5 Q175 9 178 32 Z " />
<glyph glyph-name="perthousand" unicode="&#x2030;" horiz-adv-x="1045" d="M601 673 L207 7 Q203 0 197.5 -4 Q192 -8 184 -8 L152 -8 Q145 -8 144 -2.5 Q143 3 146 7 L540 673 Q544 680 550 684 Q556 688 563 688 L596 688 Q603 688 604 684 Q605 680 601 673 Z M335 594 L313 414 Q309 380 282.5 353.5 Q256 327 183 327 Q120 327 93 349.5 Q66 372 66 403 Q66 404 66 406.5 Q66 409 67 414 L90 597 Q94 632 121 658 Q148 684 221 684 Q283 684 309.5 661.5 Q336 639 336 608 Q336 607 336 604 Q336 601 335 594 Z M125 430 Q124 423 124 419 Q124 415 124 414 Q124 395 137.5 384.5 Q151 374 186 374 Q221 374 237.5 387 Q254 400 257 422 L277 581 Q278 587 278.5 592.5 Q279 598 279 599 Q279 617 264 627 Q249 637 218 637 Q178 637 163 624.5 Q148 612 145 589 L125 430 Z M992 263 L970 83 Q966 49 939.5 22.5 Q913 -4 840 -4 Q777 -4 750 18.5 Q723 41 723 72 Q723 73 723 75.5 Q723 78 724 83 L747 266 Q751 301 778 327 Q805 353 878 353 Q940 353 966.5 330.5 Q993 308 993 277 Q993 276 993 273 Q993 270 992 263 Z M684 263 L662 83 Q658 49 631.5 22.5 Q605 -4 532 -4 Q469 -4 442 18.5 Q415 41 415 72 Q415 73 415 75.5 Q415 78 416 83 L439 266 Q443 301 470 327 Q497 353 570 353 Q632 353 658.5 330.5 Q685 308 685 277 Q685 276 685 273 Q685 270 684 263 Z M782 99 Q781 92 781 88 Q781 84 781 83 Q781 64 794.5 53.5 Q808 43 843 43 Q878 43 894.5 56 Q911 69 914 91 L934 250 Q935 256 935.5 261.5 Q936 267 936 268 Q936 286 921 296 Q906 306 875 306 Q835 306 820 293.5 Q805 281 802 258 L782 99 Z M474 99 Q473 92 473 88 Q473 84 473 83 Q473 64 486.5 53.5 Q500 43 535 43 Q570 43 586.5 56 Q603 69 606 91 L626 250 Q627 256 627.5 261.5 Q628 267 628 268 Q628 286 613 296 Q598 306 567 306 Q527 306 512 293.5 Q497 281 494 258 L474 99 Z " />
<glyph glyph-name="Acircumflex" unicode="&#xc2;" horiz-adv-x="532" d="M360 250 L316 484 Q310 515 308 550.5 Q306 586 305 607 Q302 596 289 553 Q276 510 266 486 L163 250 L360 250 Z M294 680 L337 680 Q344 680 348 676 Q352 672 353 665 L473 15 Q474 8 471 4 Q468 0 461 0 L418 0 Q410 0 406 4 Q402 8 401 15 L369 193 L140 193 L63 15 Q60 8 56 4 Q52 0 45 0 L4 0 Q-4 0 -6.5 4 Q-9 8 -6 15 L273 665 Q276 672 281 676 Q286 680 294 680 Z M326 834 L263 752 Q259 747 254 742.5 Q249 738 242 738 L209 738 Q201 738 199.5 742 Q198 746 202 752 L292 863 Q297 869 303.5 873.5 Q310 878 318 878 L343 878 Q351 878 355.5 874 Q360 870 364 864 L428 752 Q432 746 429 742 Q426 738 419 738 L388 738 Q381 738 376 742 Q371 746 368 752 L326 834 Z " />
<glyph glyph-name="Ecircumflex" unicode="&#xca;" horiz-adv-x="520" d="M340 834 L277 752 Q273 747 268 742.5 Q263 738 256 738 L223 738 Q215 738 213.5 742 Q212 746 216 752 L306 863 Q311 869 317.5 873.5 Q324 878 332 878 L357 878 Q365 878 369.5 874 Q374 870 378 864 L442 752 Q446 746 443 742 Q440 738 433 738 L402 738 Q395 738 390 742 Q385 746 382 752 L340 834 Z M425 0 L71 0 Q64 0 60.5 4 Q57 8 58 15 L138 665 Q139 672 143.5 676 Q148 680 155 680 L496 680 Q503 680 506.5 676.5 Q510 673 509 665 L505 634 Q504 626 500 622.5 Q496 619 489 619 L204 619 L176 386 L443 386 Q450 386 453 382.5 Q456 379 455 371 L452 342 Q451 334 446.5 330.5 Q442 327 435 327 L168 327 L135 61 L431 61 Q439 61 442.5 57.5 Q446 54 445 47 L441 15 Q440 7 436.5 3.5 Q433 0 425 0 Z " />
<glyph glyph-name="Aacute" unicode="&#xc1;" horiz-adv-x="532" d="M360 250 L316 484 Q310 515 308 550.5 Q306 586 305 607 Q302 596 289 553 Q276 510 266 486 L163 250 L360 250 Z M294 680 L337 680 Q344 680 348 676 Q352 672 353 665 L473 15 Q474 8 471 4 Q468 0 461 0 L418 0 Q410 0 406 4 Q402 8 401 15 L369 193 L140 193 L63 15 Q60 8 56 4 Q52 0 45 0 L4 0 Q-4 0 -6.5 4 Q-9 8 -6 15 L273 665 Q276 672 281 676 Q286 680 294 680 Z M445 863 L353 747 Q350 744 345.5 741 Q341 738 334 738 L299 738 Q292 738 290 741.5 Q288 745 293 752 L374 864 Q378 870 383 874 Q388 878 395 878 L440 878 Q448 878 449 873.5 Q450 869 445 863 Z " />
<glyph glyph-name="Edieresis" unicode="&#xcb;" horiz-adv-x="520" d="M425 0 L71 0 Q64 0 60.5 4 Q57 8 58 15 L138 665 Q139 672 143.5 676 Q148 680 155 680 L496 680 Q503 680 506.5 676.5 Q510 673 509 665 L505 634 Q504 626 500 622.5 Q496 619 489 619 L204 619 L176 386 L443 386 Q450 386 453 382.5 Q456 379 455 371 L452 342 Q451 334 446.5 330.5 Q442 327 435 327 L168 327 L135 61 L431 61 Q439 61 442.5 57.5 Q446 54 445 47 L441 15 Q440 7 436.5 3.5 Q433 0 425 0 Z M428 856 L416 759 Q415 751 411 747.5 Q407 744 400 744 L375 744 Q368 744 365 747.5 Q362 751 363 759 L375 856 Q376 863 380 866.5 Q384 870 391 870 L416 870 Q423 870 426 866.5 Q429 863 428 856 Z M321 856 L309 759 Q308 751 304 747.5 Q300 744 293 744 L268 744 Q261 744 258 747.5 Q255 751 256 759 L267 856 Q268 863 272.5 866.5 Q277 870 284 870 L309 870 Q316 870 319 866.5 Q322 863 321 856 Z " />
<glyph glyph-name="Egrave" unicode="&#xc8;" horiz-adv-x="520" d="M294 747 L229 863 Q226 869 228.5 873.5 Q231 878 239 878 L281 878 Q289 878 293 874.5 Q297 871 300 865 L352 752 Q355 745 352.5 741.5 Q350 738 343 738 L311 738 Q304 738 300 740.5 Q296 743 294 747 Z M425 0 L71 0 Q64 0 60.5 4 Q57 8 58 15 L138 665 Q139 672 143.5 676 Q148 680 155 680 L496 680 Q503 680 506.5 676.5 Q510 673 509 665 L505 634 Q504 626 500 622.5 Q496 619 489 619 L204 619 L176 386 L443 386 Q450 386 453 382.5 Q456 379 455 371 L452 342 Q451 334 446.5 330.5 Q442 327 435 327 L168 327 L135 61 L431 61 Q439 61 442.5 57.5 Q446 54 445 47 L441 15 Q440 7 436.5 3.5 Q433 0 425 0 Z " />
<glyph glyph-name="Iacute" unicode="&#xcd;" horiz-adv-x="252" d="M209 665 L129 15 Q128 8 125 4 Q122 0 114 0 L72 0 Q65 0 61 4 Q57 8 58 15 L138 665 Q139 672 143.5 676 Q148 680 155 680 L197 680 Q205 680 207.5 676 Q210 672 209 665 Z M308 863 L216 747 Q213 744 208.5 741 Q204 738 197 738 L162 738 Q155 738 153 741.5 Q151 745 156 752 L237 864 Q241 870 246 874 Q251 878 258 878 L303 878 Q311 878 312 873.5 Q313 869 308 863 Z " />
<glyph glyph-name="Icircumflex" unicode="&#xce;" horiz-adv-x="252" d="M209 665 L129 15 Q128 8 125 4 Q122 0 114 0 L72 0 Q65 0 61 4 Q57 8 58 15 L138 665 Q139 672 143.5 676 Q148 680 155 680 L197 680 Q205 680 207.5 676 Q210 672 209 665 Z M193 834 L130 752 Q126 747 121 742.5 Q116 738 109 738 L76 738 Q68 738 66.5 742 Q65 746 69 752 L159 863 Q164 869 170.5 873.5 Q177 878 185 878 L210 878 Q218 878 222.5 874 Q227 870 231 864 L295 752 Q299 746 296 742 Q293 738 286 738 L255 738 Q248 738 243 742 Q238 746 235 752 L193 834 Z " />
<glyph glyph-name="Idieresis" unicode="&#xcf;" horiz-adv-x="252" d="M209 665 L129 15 Q128 8 125 4 Q122 0 114 0 L72 0 Q65 0 61 4 Q57 8 58 15 L138 665 Q139 672 143.5 676 Q148 680 155 680 L197 680 Q205 680 207.5 676 Q210 672 209 665 Z M277 856 L265 759 Q264 751 260 747.5 Q256 744 249 744 L224 744 Q217 744 214 747.5 Q211 751 212 759 L224 856 Q225 863 229 866.5 Q233 870 240 870 L265 870 Q272 870 275 866.5 Q278 863 277 856 Z M170 856 L158 759 Q157 751 153 747.5 Q149 744 142 744 L117 744 Q110 744 107 747.5 Q104 751 105 759 L116 856 Q117 863 121.5 866.5 Q126 870 133 870 L158 870 Q165 870 168 866.5 Q171 863 170 856 Z " />
<glyph glyph-name="Igrave" unicode="&#xcc;" horiz-adv-x="252" d="M209 665 L129 15 Q128 8 125 4 Q122 0 114 0 L72 0 Q65 0 61 4 Q57 8 58 15 L138 665 Q139 672 143.5 676 Q148 680 155 680 L197 680 Q205 680 207.5 676 Q210 672 209 665 Z M147 747 L82 863 Q79 869 81.5 873.5 Q84 878 92 878 L134 878 Q142 878 146 874.5 Q150 871 153 865 L205 752 Q208 745 205.5 741.5 Q203 738 196 738 L164 738 Q157 738 153 740.5 Q149 743 147 747 Z " />
<glyph glyph-name="Oacute" unicode="&#xd3;" horiz-adv-x="591" d="M473 863 L381 747 Q378 744 373.5 741 Q369 738 362 738 L327 738 Q320 738 318 741.5 Q316 745 321 752 L402 864 Q406 870 411 874 Q416 878 423 878 L468 878 Q476 878 477 873.5 Q478 869 473 863 Z M60 141 L109 542 Q116 602 166 645 Q216 688 341 688 Q451 688 497 650.5 Q543 613 543 561 Q543 557 543 552 Q543 547 542 539 L493 138 Q486 78 435.5 35 Q385 -8 260 -8 Q150 -8 104 29 Q58 66 58 118 Q58 123 58.5 129 Q59 135 60 141 Z M422 149 L469 527 Q470 534 470 538 Q470 542 470 545 Q470 584 439.5 605.5 Q409 627 336 627 Q258 627 221 600.5 Q184 574 179 531 L133 153 Q132 148 131.5 143 Q131 138 131 135 Q131 97 162 75 Q193 53 266 53 Q345 53 381 79.5 Q417 106 422 149 Z " />
<glyph glyph-name="Ocircumflex" unicode="&#xd4;" horiz-adv-x="591" d="M360 834 L297 752 Q293 747 288 742.5 Q283 738 276 738 L243 738 Q235 738 233.5 742 Q232 746 236 752 L326 863 Q331 869 337.5 873.5 Q344 878 352 878 L377 878 Q385 878 389.5 874 Q394 870 398 864 L462 752 Q466 746 463 742 Q460 738 453 738 L422 738 Q415 738 410 742 Q405 746 402 752 L360 834 Z M60 141 L109 542 Q116 602 166 645 Q216 688 341 688 Q451 688 497 650.5 Q543 613 543 561 Q543 557 543 552 Q543 547 542 539 L493 138 Q486 78 435.5 35 Q385 -8 260 -8 Q150 -8 104 29 Q58 66 58 118 Q58 123 58.5 129 Q59 135 60 141 Z M422 149 L469 527 Q470 534 470 538 Q470 542 470 545 Q470 584 439.5 605.5 Q409 627 336 627 Q258 627 221 600.5 Q184 574 179 531 L133 153 Q132 148 131.5 143 Q131 138 131 135 Q131 97 162 75 Q193 53 266 53 Q345 53 381 79.5 Q417 106 422 149 Z " />
<glyph glyph-name="Ograve" unicode="&#xd2;" horiz-adv-x="591" d="M316 747 L251 863 Q248 869 250.5 873.5 Q253 878 261 878 L303 878 Q311 878 315 874.5 Q319 871 322 865 L374 752 Q377 745 374.5 741.5 Q372 738 365 738 L333 738 Q326 738 322 740.5 Q318 743 316 747 Z M60 141 L109 542 Q116 602 166 645 Q216 688 341 688 Q451 688 497 650.5 Q543 613 543 561 Q543 557 543 552 Q543 547 542 539 L493 138 Q486 78 435.5 35 Q385 -8 260 -8 Q150 -8 104 29 Q58 66 58 118 Q58 123 58.5 129 Q59 135 60 141 Z M422 149 L469 527 Q470 534 470 538 Q470 542 470 545 Q470 584 439.5 605.5 Q409 627 336 627 Q258 627 221 600.5 Q184 574 179 531 L133 153 Q132 148 131.5 143 Q131 138 131 135 Q131 97 162 75 Q193 53 266 53 Q345 53 381 79.5 Q417 106 422 149 Z " />
<glyph glyph-name="Uacute" unicode="&#xda;" horiz-adv-x="606" d="M204 665 L141 159 Q140 149 139.5 144.5 Q139 140 139 135 Q139 97 170.5 75 Q202 53 274 53 Q353 53 389.5 79.5 Q426 106 431 149 L495 665 Q496 672 499.5 676 Q503 680 510 680 L553 680 Q559 680 563 676.5 Q567 673 566 665 L501 138 Q494 78 444.5 35 Q395 -8 269 -8 Q159 -8 113 29 Q67 66 67 120 Q67 124 67.5 131 Q68 138 69 144 L133 665 Q134 672 137.5 676 Q141 680 149 680 L191 680 Q197 680 201 676.5 Q205 673 204 665 Z M481 863 L389 747 Q386 744 381.5 741 Q377 738 370 738 L335 738 Q328 738 326 741.5 Q324 745 329 752 L410 864 Q414 870 419 874 Q424 878 431 878 L476 878 Q484 878 485 873.5 Q486 869 481 863 Z " />
<glyph glyph-name="Ucircumflex" unicode="&#xdb;" horiz-adv-x="606" d="M368 834 L305 752 Q301 747 296 742.5 Q291 738 284 738 L251 738 Q243 738 241.5 742 Q240 746 244 752 L334 863 Q339 869 345.5 873.5 Q352 878 360 878 L385 878 Q393 878 397.5 874 Q402 870 406 864 L470 752 Q474 746 471 742 Q468 738 461 738 L430 738 Q423 738 418 742 Q413 746 410 752 L368 834 Z M204 665 L141 159 Q140 149 139.5 144.5 Q139 140 139 135 Q139 97 170.5 75 Q202 53 274 53 Q353 53 389.5 79.5 Q426 106 431 149 L495 665 Q496 672 499.5 676 Q503 680 510 680 L553 680 Q559 680 563 676.5 Q567 673 566 665 L501 138 Q494 78 444.5 35 Q395 -8 269 -8 Q159 -8 113 29 Q67 66 67 120 Q67 124 67.5 131 Q68 138 69 144 L133 665 Q134 672 137.5 676 Q141 680 149 680 L191 680 Q197 680 201 676.5 Q205 673 204 665 Z " />
<glyph glyph-name="Ugrave" unicode="&#xd9;" horiz-adv-x="606" d="M324 747 L259 863 Q256 869 258.5 873.5 Q261 878 269 878 L311 878 Q319 878 323 874.5 Q327 871 330 865 L382 752 Q385 745 382.5 741.5 Q380 738 373 738 L341 738 Q334 738 330 740.5 Q326 743 324 747 Z M204 665 L141 159 Q140 149 139.5 144.5 Q139 140 139 135 Q139 97 170.5 75 Q202 53 274 53 Q353 53 389.5 79.5 Q426 106 431 149 L495 665 Q496 672 499.5 676 Q503 680 510 680 L553 680 Q559 680 563 676.5 Q567 673 566 665 L501 138 Q494 78 444.5 35 Q395 -8 269 -8 Q159 -8 113 29 Q67 66 67 120 Q67 124 67.5 131 Q68 138 69 144 L133 665 Q134 672 137.5 676 Q141 680 149 680 L191 680 Q197 680 201 676.5 Q205 673 204 665 Z " />
<glyph glyph-name="dotlessi" unicode="&#x131;" horiz-adv-x="225" d="M171 479 L114 15 Q113 8 109 4 Q105 0 98 0 L57 0 Q50 0 47 3.5 Q44 7 45 15 L102 479 Q103 486 107 490 Q111 494 118 494 L158 494 Q166 494 169 490 Q172 486 171 479 Z " />
<glyph glyph-name="circumflex" unicode="&#x2c6;" horiz-adv-x="347" d="M255 664 L192 582 Q188 577 182.5 572.5 Q177 568 170 568 L137 568 Q130 568 128.5 572 Q127 576 131 582 L221 693 Q226 699 232.5 703.5 Q239 708 246 708 L272 708 Q280 708 284.5 704 Q289 700 293 694 L357 582 Q361 576 358 572 Q355 568 348 568 L317 568 Q310 568 305 572 Q300 576 297 582 L255 664 Z " />
<glyph glyph-name="tilde" unicode="&#x2dc;" horiz-adv-x="422" d="M222 643 Q206 643 200.5 633.5 Q195 624 191 602 L188 588 Q187 580 182.5 577 Q178 574 171 574 L150 574 Q143 574 140.5 579 Q138 584 139 591 L144 616 Q152 659 172.5 678 Q193 697 223 697 Q236 697 250.5 692 Q265 687 278 677 L319 644 Q327 637 335.5 632.5 Q344 628 351 628 Q367 628 373.5 637.5 Q380 647 383 675 L384 684 Q385 691 389.5 694 Q394 697 401 697 L423 697 Q431 697 433.5 692.5 Q436 688 435 681 L431 656 Q424 612 401 594 Q378 576 350 576 Q333 576 319.5 581 Q306 586 294 596 L253 629 Q245 636 237 639.5 Q229 643 222 643 Z " />
<glyph glyph-name="overscore" unicode="&#xaf;" horiz-adv-x="416" d="M163 651 L413 651 Q421 651 424.5 648 Q428 645 427 638 L424 612 Q423 604 418.5 600.5 Q414 597 407 597 L156 597 Q149 597 145.5 600.5 Q142 604 143 612 L146 637 Q147 644 151 647.5 Q155 651 163 651 Z " />
<glyph glyph-name="breve" unicode="&#x2d8;" horiz-adv-x="399" d="M188 683 L186 661 Q185 654 185 651 Q185 648 185 647 Q185 625 198.5 611.5 Q212 598 247 598 Q290 598 304.5 618.5 Q319 639 321 670 L322 683 Q323 690 326.5 693 Q330 696 338 696 L363 696 Q370 696 372.5 693 Q375 690 374 683 L373 671 Q369 617 341 585.5 Q313 554 244 554 Q189 554 161 577 Q133 600 133 643 Q133 647 133 650.5 Q133 654 134 662 L136 683 Q137 690 140.5 693 Q144 696 151 696 L176 696 Q183 696 186 693 Q189 690 188 683 Z " />
<glyph glyph-name="dotaccent" unicode="&#x2d9;" horiz-adv-x="240" d="M239 675 L230 598 Q229 590 225 586.5 Q221 583 214 583 L172 583 Q165 583 161.5 586.5 Q158 590 159 598 L169 675 Q170 682 173.5 686 Q177 690 185 690 L227 690 Q234 690 237 686.5 Q240 683 239 675 Z " />
<glyph glyph-name="ring" unicode="&#x2da;" horiz-adv-x="342" d="M336 646 L334 620 Q332 591 308.5 572.5 Q285 554 237 554 Q189 554 167.5 571.5 Q146 589 149 626 L151 652 Q153 681 177.5 700.5 Q202 720 251 720 Q298 720 318.5 700.5 Q339 681 336 646 Z M294 627 L295 647 Q296 662 286 672.5 Q276 683 247 683 Q219 683 205.5 672.5 Q192 662 191 646 L190 631 Q189 609 199 599.5 Q209 590 237 590 Q265 590 279 600 Q293 610 294 627 Z " />
<glyph glyph-name="cedilla" unicode="&#xb8;" horiz-adv-x="185" d="M85 -53 L121 -53 Q149 -53 172 -69.5 Q195 -86 195 -123 Q195 -172 166 -191.5 Q137 -211 102 -211 L-14 -211 Q-23 -211 -25 -206.5 Q-27 -202 -26 -196 L-24 -181 Q-23 -174 -19.5 -170.5 Q-16 -167 -9 -167 L97 -167 Q114 -167 129 -159.5 Q144 -152 144 -127 Q144 -109 131.5 -103 Q119 -97 106 -97 L45 -97 Q35 -97 29 -92.5 Q23 -88 27 -78 L60 5 Q63 12 67.5 15.5 Q72 19 78 18 L98 15 Q105 14 106 8 Q107 2 105 -3 L85 -53 Z " />
<glyph glyph-name="hungarumlaut" unicode="&#x2dd;" horiz-adv-x="367" d="M271 693 L195 582 Q191 575 186 571.5 Q181 568 174 568 L143 568 Q136 568 134 572 Q132 576 136 582 L204 693 Q208 700 213.5 704 Q219 708 226 708 L263 708 Q271 708 273 703.5 Q275 699 271 693 Z M386 693 L295 581 Q291 576 285.5 572 Q280 568 273 568 L242 568 Q235 568 234 571.5 Q233 575 237 582 L319 693 Q324 700 330.5 704 Q337 708 344 708 L381 708 Q389 708 390 703.5 Q391 699 386 693 Z " />
<glyph glyph-name="ogonek" unicode="&#x2db;" horiz-adv-x="226" d="M160 -165 L108 -165 Q73 -165 49 -147.5 Q25 -130 25 -96 Q25 -76 37.5 -43 Q50 -10 99 24 Q103 27 108.5 30 Q114 33 121 29 L142 17 Q147 14 148.5 9 Q150 4 145 0 Q107 -27 96.5 -45.5 Q86 -64 86 -81 Q86 -96 97.5 -103.5 Q109 -111 128 -111 L166 -111 Q171 -111 176 -114 Q181 -117 180 -125 L176 -150 Q175 -157 171 -161 Q167 -165 160 -165 Z " />
<glyph glyph-name="caron" unicode="&#x2c7;" horiz-adv-x="347" d="M206 693 L249 611 L312 693 Q316 699 321.5 703.5 Q327 708 334 708 L367 708 Q374 708 376 703.5 Q378 699 373 693 L282 582 Q277 576 271 572 Q265 568 257 568 L232 568 Q225 568 219.5 572 Q214 576 210 583 L147 693 Q143 699 146 703.5 Q149 708 157 708 L188 708 Q195 708 199 703 Q203 698 206 693 Z " />
<glyph glyph-name="uni00A0" unicode="&#xa0;" horiz-adv-x="224" d="" />
<glyph glyph-name="Amacron" unicode="&#x100;" horiz-adv-x="532" d="M360 250 L316 484 Q310 515 308 550.5 Q306 586 305 607 Q302 596 289 553 Q276 510 266 486 L163 250 L360 250 Z M294 680 L337 680 Q344 680 348 676 Q352 672 353 665 L473 15 Q474 8 471 4 Q468 0 461 0 L418 0 Q410 0 406 4 Q402 8 401 15 L369 193 L140 193 L63 15 Q60 8 56 4 Q52 0 45 0 L4 0 Q-4 0 -6.5 4 Q-9 8 -6 15 L273 665 Q276 672 281 676 Q286 680 294 680 Z M191 827 L442 827 Q449 827 452.5 823.5 Q456 820 455 813 L453 787 Q452 780 447.5 776.5 Q443 773 436 773 L185 773 Q178 773 174.5 776.5 Q171 780 172 787 L174 812 Q175 820 179.5 823.5 Q184 827 191 827 Z " />
<glyph glyph-name="Abreve" unicode="&#x102;" horiz-adv-x="532" d="M360 250 L316 484 Q310 515 308 550.5 Q306 586 305 607 Q302 596 289 553 Q276 510 266 486 L163 250 L360 250 Z M294 680 L337 680 Q344 680 348 676 Q352 672 353 665 L473 15 Q474 8 471 4 Q468 0 461 0 L418 0 Q410 0 406 4 Q402 8 401 15 L369 193 L140 193 L63 15 Q60 8 56 4 Q52 0 45 0 L4 0 Q-4 0 -6.5 4 Q-9 8 -6 15 L273 665 Q276 672 281 676 Q286 680 294 680 Z M255 871 L253 849 Q252 843 252 840 Q252 837 252 836 Q252 812 265.5 799 Q279 786 314 786 Q357 786 371.5 806.5 Q386 827 388 858 L389 871 Q390 878 393.5 881 Q397 884 405 884 L430 884 Q437 884 439.5 881 Q442 878 441 871 L440 859 Q436 805 408 773.5 Q380 742 311 742 Q256 742 228 765 Q200 788 200 831 Q200 835 200 838.5 Q200 842 201 850 L203 871 Q204 878 207.5 881 Q211 884 218 884 L243 884 Q250 884 253 881 Q256 878 255 871 Z " />
<glyph glyph-name="Aogonek" unicode="&#x104;" horiz-adv-x="531" d="M292 680 L335 680 Q342 680 346.5 676 Q351 672 352 665 L472 15 Q473 8 470 4 Q467 0 460 0 L444 0 Q407 -4 394 -25.5 Q381 -47 381 -67 Q381 -87 394 -96 Q407 -105 432 -105 L459 -105 Q466 -105 470 -108.5 Q474 -112 473 -119 L471 -139 Q470 -147 465 -150.5 Q460 -154 453 -154 L414 -154 Q382 -154 354.5 -138.5 Q327 -123 327 -80 Q327 -61 341 -28.5 Q355 4 397 29 L367 193 L138 193 L61 15 Q58 8 54.5 4 Q51 0 43 0 L3 0 Q-6 0 -8 4 Q-10 8 -7 15 L271 665 Q274 672 279.5 676 Q285 680 292 680 Z M358 250 L315 484 Q311 503 308 542 Q305 581 304 607 Q299 588 286 547.5 Q273 507 264 486 L162 250 L358 250 Z " />
<glyph glyph-name="Aringacute" unicode="&#x1fa;" horiz-adv-x="531" d="M314 721 Q265 721 243.5 740 Q222 759 226 793 L229 819 Q232 845 251 863.5 Q270 882 307 886 L353 951 Q357 956 361.5 960 Q366 964 374 964 L418 964 Q427 964 428 960 Q429 956 424 949 L368 881 Q394 874 404.5 857.5 Q415 841 413 813 L411 787 Q409 758 385.5 739.5 Q362 721 314 721 Z M371 794 L372 806 Q374 832 361 841 Q348 850 324 850 Q296 850 283 839.5 Q270 829 268 813 L266 800 Q263 778 274.5 767.5 Q286 757 314 757 Q342 757 356 767 Q370 777 371 794 Z M359 250 L315 484 Q309 515 307 550.5 Q305 586 304 607 Q301 596 288 553 Q275 510 265 486 L162 250 L359 250 Z M293 680 L336 680 Q343 680 347 676 Q351 672 352 665 L472 15 Q473 8 470 4 Q467 0 460 0 L417 0 Q409 0 405 4 Q401 8 400 15 L368 193 L139 193 L62 15 Q59 8 55 4 Q51 0 44 0 L3 0 Q-5 0 -7.5 4 Q-10 8 -7 15 L272 665 Q275 672 280 676 Q285 680 293 680 Z " />
<glyph glyph-name="Cacute" unicode="&#x106;" horiz-adv-x="553" d="M490 202 L482 138 Q475 78 427 35 Q379 -8 254 -8 Q144 -8 101 28.5 Q58 65 58 117 Q58 122 58.5 128.5 Q59 135 60 141 L109 542 Q116 602 163.5 645 Q211 688 336 688 Q446 688 489 651.5 Q532 615 532 563 Q532 558 532 553 Q532 548 531 539 L525 491 Q524 483 520.5 479 Q517 475 509 475 L468 475 Q461 475 458 479.5 Q455 484 456 491 L461 528 Q462 535 462 539 Q462 543 462 547 Q462 584 432.5 605.5 Q403 627 331 627 Q252 627 218 600.5 Q184 574 179 531 L133 153 Q132 148 132 142.5 Q132 137 132 133 Q132 96 160.5 74.5 Q189 53 261 53 Q340 53 374.5 79.5 Q409 106 414 149 L420 202 Q421 209 425 213 Q429 217 437 217 L477 217 Q485 217 488 213 Q491 209 490 202 Z M470 863 L378 747 Q375 744 370.5 741 Q366 738 359 738 L324 738 Q317 738 315 741.5 Q313 745 318 752 L399 864 Q403 870 408 874 Q413 878 420 878 L465 878 Q473 878 474 873.5 Q475 869 470 863 Z " />
<glyph glyph-name="Ccircumflex" unicode="&#x108;" horiz-adv-x="553" d="M490 202 L482 138 Q475 78 427 35 Q379 -8 254 -8 Q144 -8 101 28.5 Q58 65 58 117 Q58 122 58.5 128.5 Q59 135 60 141 L109 542 Q116 602 163.5 645 Q211 688 336 688 Q446 688 489 651.5 Q532 615 532 563 Q532 558 532 553 Q532 548 531 539 L525 491 Q524 483 520.5 479 Q517 475 509 475 L468 475 Q461 475 458 479.5 Q455 484 456 491 L461 528 Q462 535 462 539 Q462 543 462 547 Q462 584 432.5 605.5 Q403 627 331 627 Q252 627 218 600.5 Q184 574 179 531 L133 153 Q132 148 132 142.5 Q132 137 132 133 Q132 96 160.5 74.5 Q189 53 261 53 Q340 53 374.5 79.5 Q409 106 414 149 L420 202 Q421 209 425 213 Q429 217 437 217 L477 217 Q485 217 488 213 Q491 209 490 202 Z M353 834 L290 752 Q286 747 281 742.5 Q276 738 269 738 L236 738 Q228 738 226.5 742 Q225 746 229 752 L319 863 Q324 869 330.5 873.5 Q337 878 345 878 L370 878 Q378 878 382.5 874 Q387 870 391 864 L455 752 Q459 746 456 742 Q453 738 446 738 L415 738 Q408 738 403 742 Q398 746 395 752 L353 834 Z " />
<glyph glyph-name="Cdotaccent" unicode="&#x10a;" horiz-adv-x="553" d="M390 839 L381 760 Q380 753 376.5 749.5 Q373 746 366 746 L324 746 Q316 746 313 749 Q310 752 311 760 L320 839 Q321 846 325 849.5 Q329 853 336 853 L378 853 Q385 853 388 849.5 Q391 846 390 839 Z M490 202 L482 138 Q475 78 427 35 Q379 -8 254 -8 Q144 -8 101 28.5 Q58 65 58 117 Q58 122 58.5 128.5 Q59 135 60 141 L109 542 Q116 602 163.5 645 Q211 688 336 688 Q446 688 489 651.5 Q532 615 532 563 Q532 558 532 553 Q532 548 531 539 L525 491 Q524 483 520.5 479 Q517 475 509 475 L468 475 Q461 475 458 479.5 Q455 484 456 491 L461 528 Q462 535 462 539 Q462 543 462 547 Q462 584 432.5 605.5 Q403 627 331 627 Q252 627 218 600.5 Q184 574 179 531 L133 153 Q132 148 132 142.5 Q132 137 132 133 Q132 96 160.5 74.5 Q189 53 261 53 Q340 53 374.5 79.5 Q409 106 414 149 L420 202 Q421 209 425 213 Q429 217 437 217 L477 217 Q485 217 488 213 Q491 209 490 202 Z " />
<glyph glyph-name="Ccaron" unicode="&#x10c;" horiz-adv-x="553" d="M490 202 L482 138 Q475 78 427 35 Q379 -8 254 -8 Q144 -8 101 28.5 Q58 65 58 117 Q58 122 58.5 128.5 Q59 135 60 141 L109 542 Q116 602 163.5 645 Q211 688 336 688 Q446 688 489 651.5 Q532 615 532 563 Q532 558 532 553 Q532 548 531 539 L525 491 Q524 483 520.5 479 Q517 475 509 475 L468 475 Q461 475 458 479.5 Q455 484 456 491 L461 528 Q462 535 462 539 Q462 543 462 547 Q462 584 432.5 605.5 Q403 627 331 627 Q252 627 218 600.5 Q184 574 179 531 L133 153 Q132 148 132 142.5 Q132 137 132 133 Q132 96 160.5 74.5 Q189 53 261 53 Q340 53 374.5 79.5 Q409 106 414 149 L420 202 Q421 209 425 213 Q429 217 437 217 L477 217 Q485 217 488 213 Q491 209 490 202 Z M305 863 L348 781 L411 863 Q415 869 420.5 873.5 Q426 878 433 878 L466 878 Q473 878 475 873.5 Q477 869 472 863 L381 752 Q376 746 370 742 Q364 738 356 738 L331 738 Q324 738 318.5 742 Q313 746 309 753 L246 863 Q242 869 245 873.5 Q248 878 256 878 L287 878 Q294 878 298 873 Q302 868 305 863 Z " />
<glyph glyph-name="Dcaron" unicode="&#x10e;" horiz-adv-x="602" d="M277 0 L70 0 Q64 0 60.5 4 Q57 8 58 15 L138 665 Q139 672 143 676 Q147 680 154 680 L353 680 Q465 680 510.5 642.5 Q556 605 556 552 Q556 548 556 541.5 Q556 535 555 527 L508 146 Q501 86 451.5 43 Q402 0 277 0 Z M349 619 L204 619 L135 61 L280 61 Q360 61 396.5 87.5 Q433 114 438 157 L482 517 Q483 523 483.5 528.5 Q484 534 484 537 Q484 575 453.5 597 Q423 619 349 619 Z M305 863 L348 781 L411 863 Q415 869 420.5 873.5 Q426 878 433 878 L466 878 Q473 878 475 873.5 Q477 869 472 863 L381 752 Q376 746 370 742 Q364 738 356 738 L331 738 Q324 738 318.5 742 Q313 746 309 753 L246 863 Q242 869 245 873.5 Q248 878 256 878 L287 878 Q294 878 298 873 Q302 868 305 863 Z " />
<glyph glyph-name="Emacron" unicode="&#x112;" horiz-adv-x="520" d="M425 0 L71 0 Q64 0 60.5 4 Q57 8 58 15 L138 665 Q139 672 143.5 676 Q148 680 155 680 L496 680 Q503 680 506.5 676.5 Q510 673 509 665 L505 634 Q504 626 500 622.5 Q496 619 489 619 L204 619 L176 386 L443 386 Q450 386 453 382.5 Q456 379 455 371 L452 342 Q451 334 446.5 330.5 Q442 327 435 327 L168 327 L135 61 L431 61 Q439 61 442.5 57.5 Q446 54 445 47 L441 15 Q440 7 436.5 3.5 Q433 0 425 0 Z M207 827 L458 827 Q465 827 468.5 823.5 Q472 820 471 813 L469 787 Q468 780 463.5 776.5 Q459 773 452 773 L201 773 Q194 773 190.5 776.5 Q187 780 188 787 L190 812 Q191 820 195.5 823.5 Q200 827 207 827 Z " />
<glyph glyph-name="Ebreve" unicode="&#x114;" horiz-adv-x="520" d="M425 0 L71 0 Q64 0 60.5 4 Q57 8 58 15 L138 665 Q139 672 143.5 676 Q148 680 155 680 L496 680 Q503 680 506.5 676.5 Q510 673 509 665 L505 634 Q504 626 500 622.5 Q496 619 489 619 L204 619 L176 386 L443 386 Q450 386 453 382.5 Q456 379 455 371 L452 342 Q451 334 446.5 330.5 Q442 327 435 327 L168 327 L135 61 L431 61 Q439 61 442.5 57.5 Q446 54 445 47 L441 15 Q440 7 436.5 3.5 Q433 0 425 0 Z M267 871 L265 849 Q264 843 264 840 Q264 837 264 836 Q264 812 277.5 799 Q291 786 326 786 Q369 786 383.5 806.5 Q398 827 400 858 L401 871 Q402 878 405.5 881 Q409 884 417 884 L442 884 Q449 884 451.5 881 Q454 878 453 871 L452 859 Q448 805 420 773.5 Q392 742 323 742 Q268 742 240 765 Q212 788 212 831 Q212 835 212 838.5 Q212 842 213 850 L215 871 Q216 878 219.5 881 Q223 884 230 884 L255 884 Q262 884 265 881 Q268 878 267 871 Z " />
<glyph glyph-name="Edotaccent" unicode="&#x116;" horiz-adv-x="520" d="M373 839 L364 760 Q363 753 359.5 749.5 Q356 746 349 746 L307 746 Q299 746 296 749 Q293 752 294 760 L303 839 Q304 846 308 849.5 Q312 853 319 853 L361 853 Q368 853 371 849.5 Q374 846 373 839 Z M425 0 L71 0 Q64 0 60.5 4 Q57 8 58 15 L138 665 Q139 672 143.5 676 Q148 680 155 680 L496 680 Q503 680 506.5 676.5 Q510 673 509 665 L505 634 Q504 626 500 622.5 Q496 619 489 619 L204 619 L176 386 L443 386 Q450 386 453 382.5 Q456 379 455 371 L452 342 Q451 334 446.5 330.5 Q442 327 435 327 L168 327 L135 61 L431 61 Q439 61 442.5 57.5 Q446 54 445 47 L441 15 Q440 7 436.5 3.5 Q433 0 425 0 Z " />
<glyph glyph-name="Eogonek" unicode="&#x118;" horiz-adv-x="521" d="M424 0 L395 0 Q360 0 345.5 -21.5 Q331 -43 331 -65 Q331 -85 344.5 -95 Q358 -105 383 -105 L413 -105 Q420 -105 424.5 -108.5 Q429 -112 428 -119 L426 -139 Q425 -147 420 -150.5 Q415 -154 408 -154 L364 -154 Q333 -154 305 -138 Q277 -122 277 -79 Q277 -62 284.5 -39.5 Q292 -17 311 0 L70 0 Q63 0 59.5 4 Q56 8 57 15 L137 665 Q138 672 142.5 676 Q147 680 154 680 L495 680 Q502 680 505.5 676.5 Q509 673 508 665 L504 634 Q503 626 499 622.5 Q495 619 488 619 L203 619 L175 386 L442 386 Q449 386 452 382.5 Q455 379 454 371 L451 342 Q450 334 445.5 330.5 Q441 327 434 327 L167 327 L134 61 L430 61 Q438 61 441.5 57.5 Q445 54 444 47 L440 15 Q439 7 435.5 3.5 Q432 0 424 0 Z " />
<glyph glyph-name="Ecaron" unicode="&#x11a;" horiz-adv-x="520" d="M425 0 L71 0 Q64 0 60.5 4 Q57 8 58 15 L138 665 Q139 672 143.5 676 Q148 680 155 680 L496 680 Q503 680 506.5 676.5 Q510 673 509 665 L505 634 Q504 626 500 622.5 Q496 619 489 619 L204 619 L176 386 L443 386 Q450 386 453 382.5 Q456 379 455 371 L452 342 Q451 334 446.5 330.5 Q442 327 435 327 L168 327 L135 61 L431 61 Q439 61 442.5 57.5 Q446 54 445 47 L441 15 Q440 7 436.5 3.5 Q433 0 425 0 Z M288 863 L331 781 L394 863 Q398 869 403.5 873.5 Q409 878 416 878 L449 878 Q456 878 458 873.5 Q460 869 455 863 L364 752 Q359 746 353 742 Q347 738 339 738 L314 738 Q307 738 301.5 742 Q296 746 292 753 L229 863 Q225 869 228 873.5 Q231 878 239 878 L270 878 Q277 878 281 873 Q285 868 288 863 Z " />
<glyph glyph-name="Gcircumflex" unicode="&#x11c;" horiz-adv-x="571" d="M356 834 L293 752 Q289 747 284 742.5 Q279 738 272 738 L239 738 Q231 738 229.5 742 Q228 746 232 752 L322 863 Q327 869 333.5 873.5 Q340 878 348 878 L373 878 Q381 878 385.5 874 Q390 870 394 864 L458 752 Q462 746 459 742 Q456 738 449 738 L418 738 Q411 738 406 742 Q401 746 398 752 L356 834 Z M302 327 L490 327 Q499 327 501.5 323.5 Q504 320 503 313 L482 138 Q475 78 427 35 Q379 -8 254 -8 Q144 -8 101 28.5 Q58 65 58 117 Q58 122 58.5 128.5 Q59 135 60 141 L109 542 Q116 602 163.5 645 Q211 688 336 688 Q446 688 489 651 Q532 614 532 561 Q532 557 532 551.5 Q532 546 531 538 L526 494 Q525 487 521 483.5 Q517 480 509 480 L469 480 Q462 480 458.5 483.5 Q455 487 456 494 L461 531 Q462 538 462 541.5 Q462 545 462 548 Q462 584 433 605.5 Q404 627 332 627 Q254 627 219 600.5 Q184 574 179 531 L133 153 Q132 148 131.5 142.5 Q131 137 131 133 Q131 96 159.5 74.5 Q188 53 260 53 Q340 53 374 79 Q408 105 413 148 L428 266 L295 266 Q288 266 284.5 270 Q281 274 282 281 L286 313 Q287 320 291 323.5 Q295 327 302 327 Z " />
<glyph glyph-name="Gbreve" unicode="&#x11e;" horiz-adv-x="571" d="M302 327 L490 327 Q499 327 501.5 323.5 Q504 320 503 313 L482 138 Q475 78 427 35 Q379 -8 254 -8 Q144 -8 101 28.5 Q58 65 58 117 Q58 122 58.5 128.5 Q59 135 60 141 L109 542 Q116 602 163.5 645 Q211 688 336 688 Q446 688 489 651 Q532 614 532 561 Q532 557 532 551.5 Q532 546 531 538 L526 494 Q525 487 521 483.5 Q517 480 509 480 L469 480 Q462 480 458.5 483.5 Q455 487 456 494 L461 531 Q462 538 462 541.5 Q462 545 462 548 Q462 584 433 605.5 Q404 627 332 627 Q254 627 219 600.5 Q184 574 179 531 L133 153 Q132 148 131.5 142.5 Q131 137 131 133 Q131 96 159.5 74.5 Q188 53 260 53 Q340 53 374 79 Q408 105 413 148 L428 266 L295 266 Q288 266 284.5 270 Q281 274 282 281 L286 313 Q287 320 291 323.5 Q295 327 302 327 Z M281 871 L279 849 Q278 843 278 840 Q278 837 278 836 Q278 812 291.5 799 Q305 786 340 786 Q383 786 397.5 806.5 Q412 827 414 858 L415 871 Q416 878 419.5 881 Q423 884 431 884 L456 884 Q463 884 465.5 881 Q468 878 467 871 L466 859 Q462 805 434 773.5 Q406 742 337 742 Q282 742 254 765 Q226 788 226 831 Q226 835 226 838.5 Q226 842 227 850 L229 871 Q230 878 233.5 881 Q237 884 244 884 L269 884 Q276 884 279 881 Q282 878 281 871 Z " />
<glyph glyph-name="Gdotaccent" unicode="&#x120;" horiz-adv-x="571" d="M377 837 L368 758 Q367 751 363.5 747.5 Q360 744 353 744 L311 744 Q303 744 300 747 Q297 750 298 758 L307 837 Q308 844 312 847.5 Q316 851 323 851 L365 851 Q372 851 375 847.5 Q378 844 377 837 Z M302 327 L490 327 Q499 327 501.5 323.5 Q504 320 503 313 L482 138 Q475 78 427 35 Q379 -8 254 -8 Q144 -8 101 28.5 Q58 65 58 117 Q58 122 58.5 128.5 Q59 135 60 141 L109 542 Q116 602 163.5 645 Q211 688 336 688 Q446 688 489 651 Q532 614 532 561 Q532 557 532 551.5 Q532 546 531 538 L526 494 Q525 487 521 483.5 Q517 480 509 480 L469 480 Q462 480 458.5 483.5 Q455 487 456 494 L461 531 Q462 538 462 541.5 Q462 545 462 548 Q462 584 433 605.5 Q404 627 332 627 Q254 627 219 600.5 Q184 574 179 531 L133 153 Q132 148 131.5 142.5 Q131 137 131 133 Q131 96 159.5 74.5 Q188 53 260 53 Q340 53 374 79 Q408 105 413 148 L428 266 L295 266 Q288 266 284.5 270 Q281 274 282 281 L286 313 Q287 320 291 323.5 Q295 327 302 327 Z " />
<glyph glyph-name="Gcommaaccent" unicode="&#x122;" horiz-adv-x="571" d="M218 -92 L222 -65 Q223 -58 227.5 -54 Q232 -50 239 -50 L269 -50 Q277 -50 279.5 -54 Q282 -58 281 -65 L278 -96 Q274 -134 259 -161 Q244 -188 225 -213 Q221 -220 216 -221 Q211 -222 205 -221 L182 -215 Q175 -214 174 -208.5 Q173 -203 177 -196 Q195 -165 204 -145.5 Q213 -126 218 -92 Z M302 327 L490 327 Q499 327 501.5 323.5 Q504 320 503 313 L482 138 Q475 78 427 35 Q379 -8 254 -8 Q144 -8 101 28.5 Q58 65 58 117 Q58 122 58.5 128.5 Q59 135 60 141 L109 542 Q116 602 163.5 645 Q211 688 336 688 Q446 688 489 651 Q532 614 532 561 Q532 557 532 551.5 Q532 546 531 538 L526 494 Q525 487 521 483.5 Q517 480 509 480 L469 480 Q462 480 458.5 483.5 Q455 487 456 494 L461 531 Q462 538 462 541.5 Q462 545 462 548 Q462 584 433 605.5 Q404 627 332 627 Q254 627 219 600.5 Q184 574 179 531 L133 153 Q132 148 131.5 142.5 Q131 137 131 133 Q131 96 159.5 74.5 Q188 53 260 53 Q340 53 374 79 Q408 105 413 148 L428 266 L295 266 Q288 266 284.5 270 Q281 274 282 281 L286 313 Q287 320 291 323.5 Q295 327 302 327 Z " />
<glyph glyph-name="Hcircumflex" unicode="&#x124;" horiz-adv-x="613" d="M209 665 L176 390 L466 390 L500 665 Q501 672 505 676 Q509 680 517 680 L559 680 Q566 680 569 676 Q572 672 571 665 L491 15 Q490 8 486.5 4 Q483 0 476 0 L434 0 Q426 0 422.5 4 Q419 8 420 15 L459 330 L169 330 L129 15 Q128 8 125 4 Q122 0 114 0 L72 0 Q65 0 61 4 Q57 8 58 15 L138 665 Q139 672 143.5 676 Q148 680 155 680 L197 680 Q205 680 207.5 676 Q210 672 209 665 Z M368 834 L305 752 Q301 747 296 742.5 Q291 738 284 738 L251 738 Q243 738 241.5 742 Q240 746 244 752 L334 863 Q339 869 345.5 873.5 Q352 878 360 878 L385 878 Q393 878 397.5 874 Q402 870 406 864 L470 752 Q474 746 471 742 Q468 738 461 738 L430 738 Q423 738 418 742 Q413 746 410 752 L368 834 Z " />
<glyph glyph-name="Itilde" unicode="&#x128;" horiz-adv-x="252" d="M209 665 L129 15 Q128 8 125 4 Q122 0 114 0 L72 0 Q65 0 61 4 Q57 8 58 15 L138 665 Q139 672 143.5 676 Q148 680 155 680 L197 680 Q205 680 207.5 676 Q210 672 209 665 Z M118 819 Q103 819 97.5 809.5 Q92 800 88 778 L85 763 Q84 756 79.5 753 Q75 750 68 750 L47 750 Q40 750 37.5 755 Q35 760 36 767 L41 791 Q50 834 70 853 Q90 872 120 872 Q133 872 147.5 867 Q162 862 175 852 L216 820 Q224 813 232.5 808.5 Q241 804 248 804 Q264 804 270.5 813.5 Q277 823 280 851 L281 860 Q282 867 286.5 870 Q291 873 298 873 L320 873 Q328 873 330 868.5 Q332 864 331 856 L328 832 Q322 787 298.5 769 Q275 751 247 751 Q230 751 217 756.5 Q204 762 191 772 L150 804 Q142 811 134 815 Q126 819 118 819 Z " />
<glyph glyph-name="Imacron" unicode="&#x12a;" horiz-adv-x="252" d="M209 665 L129 15 Q128 8 125 4 Q122 0 114 0 L72 0 Q65 0 61 4 Q57 8 58 15 L138 665 Q139 672 143.5 676 Q148 680 155 680 L197 680 Q205 680 207.5 676 Q210 672 209 665 Z M65 827 L316 827 Q323 827 326.5 823.5 Q330 820 329 813 L327 787 Q326 780 321.5 776.5 Q317 773 310 773 L59 773 Q52 773 48.5 776.5 Q45 780 46 787 L48 812 Q49 820 53.5 823.5 Q58 827 65 827 Z " />
<glyph glyph-name="Ibreve" unicode="&#x12c;" horiz-adv-x="252" d="M209 665 L129 15 Q128 8 125 4 Q122 0 114 0 L72 0 Q65 0 61 4 Q57 8 58 15 L138 665 Q139 672 143.5 676 Q148 680 155 680 L197 680 Q205 680 207.5 676 Q210 672 209 665 Z M122 871 L120 849 Q119 843 119 840 Q119 837 119 836 Q119 812 132.5 799 Q146 786 181 786 Q224 786 238.5 806.5 Q253 827 255 858 L256 871 Q257 878 260.5 881 Q264 884 272 884 L297 884 Q304 884 306.5 881 Q309 878 308 871 L307 859 Q303 805 275 773.5 Q247 742 178 742 Q123 742 95 765 Q67 788 67 831 Q67 835 67 838.5 Q67 842 68 850 L70 871 Q71 878 74.5 881 Q78 884 85 884 L110 884 Q117 884 120 881 Q123 878 122 871 Z " />
<glyph glyph-name="Iogonek" unicode="&#x12e;" horiz-adv-x="254" d="M209 665 L129 15 Q128 8 124.5 4 Q121 0 113 0 L104 0 Q70 -4 54 -25.5 Q38 -47 38 -67 Q38 -87 51.5 -96 Q65 -105 90 -105 L114 -105 Q121 -105 125.5 -108.5 Q130 -112 129 -119 L127 -139 Q126 -147 121 -150.5 Q116 -154 109 -154 L72 -154 Q42 -154 13 -138.5 Q-16 -123 -16 -81 Q-16 -50 1.5 -21.5 Q19 7 59 29 L138 665 Q139 672 143 676 Q147 680 154 680 L196 680 Q204 680 207 676 Q210 672 209 665 Z " />
<glyph glyph-name="Idot" unicode="&#x130;" horiz-adv-x="252" d="M209 665 L129 15 Q128 8 125 4 Q122 0 114 0 L72 0 Q65 0 61 4 Q57 8 58 15 L138 665 Q139 672 143.5 676 Q148 680 155 680 L197 680 Q205 680 207.5 676 Q210 672 209 665 Z M230 839 L221 760 Q220 753 216.5 749.5 Q213 746 206 746 L164 746 Q156 746 153 749 Q150 752 151 760 L160 839 Q161 846 165 849.5 Q169 853 176 853 L218 853 Q225 853 228 849.5 Q231 846 230 839 Z " />
<glyph glyph-name="Jcircumflex" unicode="&#x134;" horiz-adv-x="497" d="M84 183 L80 151 Q79 145 78.5 139 Q78 133 78 129 Q78 95 102.5 74 Q127 53 190 53 Q261 53 288 79.5 Q315 106 320 149 L384 665 Q385 672 388.5 676 Q392 680 400 680 L443 680 Q450 680 453 676 Q456 672 455 665 L391 138 Q384 78 342.5 35 Q301 -8 185 -8 Q86 -8 46.5 28 Q7 64 7 115 Q7 121 7.5 129 Q8 137 9 144 L14 183 Q15 191 19 195 Q23 199 31 199 L72 199 Q80 199 82.5 194.5 Q85 190 84 183 Z M436 834 L373 752 Q369 747 364 742.5 Q359 738 352 738 L319 738 Q311 738 309.5 742 Q308 746 312 752 L402 863 Q407 869 413.5 873.5 Q420 878 428 878 L453 878 Q461 878 465.5 874 Q470 870 474 864 L538 752 Q542 746 539 742 Q536 738 529 738 L498 738 Q491 738 486 742 Q481 746 478 752 L436 834 Z " />
<glyph glyph-name="Kcommaaccent" unicode="&#x136;" horiz-adv-x="548" d="M203 -92 L207 -65 Q208 -58 212.5 -54 Q217 -50 224 -50 L254 -50 Q262 -50 264.5 -54 Q267 -58 266 -65 L263 -96 Q259 -134 244 -161 Q229 -188 210 -213 Q206 -220 201 -221 Q196 -222 190 -221 L167 -215 Q160 -214 159 -208.5 Q158 -203 162 -196 Q180 -165 189 -145.5 Q198 -126 203 -92 Z M261 345 L497 15 Q501 10 498.5 5 Q496 0 489 0 L436 0 Q428 0 422.5 4.5 Q417 9 413 15 L199 313 L166 313 L129 15 Q128 8 125 4 Q122 0 114 0 L72 0 Q64 0 60.5 3.5 Q57 7 58 15 L138 665 Q139 673 143 676.5 Q147 680 155 680 L197 680 Q205 680 207.5 676 Q210 672 209 665 L173 367 L202 367 L470 666 Q475 671 481.5 675.5 Q488 680 496 680 L544 680 Q551 680 552.5 675 Q554 670 549 665 L261 345 Z " />
<glyph glyph-name="Lacute" unicode="&#x139;" horiz-adv-x="472" d="M309 863 L217 747 Q214 744 209.5 741 Q205 738 198 738 L163 738 Q156 738 154 741.5 Q152 745 157 752 L238 864 Q242 870 247 874 Q252 878 259 878 L304 878 Q312 878 313 873.5 Q314 869 309 863 Z M209 665 L135 61 L415 61 Q422 61 425.5 57.5 Q429 54 428 47 L424 15 Q423 7 419.5 3.5 Q416 0 408 0 L70 0 Q63 0 60 4 Q57 8 58 15 L138 665 Q139 672 143.5 676 Q148 680 155 680 L197 680 Q205 680 207.5 676 Q210 672 209 665 Z " />
<glyph glyph-name="Lcommaaccent" unicode="&#x13b;" horiz-adv-x="472" d="M194 -92 L198 -65 Q199 -58 203.5 -54 Q208 -50 215 -50 L245 -50 Q253 -50 255.5 -54 Q258 -58 257 -65 L254 -96 Q250 -134 235 -161 Q220 -188 201 -213 Q197 -220 192 -221 Q187 -222 181 -221 L158 -215 Q151 -214 150 -208.5 Q149 -203 153 -196 Q171 -165 180 -145.5 Q189 -126 194 -92 Z M209 665 L135 61 L415 61 Q422 61 425.5 57.5 Q429 54 428 47 L424 15 Q423 7 419.5 3.5 Q416 0 408 0 L70 0 Q63 0 60 4 Q57 8 58 15 L138 665 Q139 672 143.5 676 Q148 680 155 680 L197 680 Q205 680 207.5 676 Q210 672 209 665 Z " />
<glyph glyph-name="Lcaron" unicode="&#x13d;" horiz-adv-x="475" d="M364 664 L368 691 Q369 698 373.5 702 Q378 706 385 706 L415 706 Q423 706 425.5 702 Q428 698 427 691 L424 660 Q420 622 405 595 Q390 568 371 543 Q367 536 362 535 Q357 534 351 535 L328 541 Q321 542 320 547.5 Q319 553 323 560 Q341 591 350 610.5 Q359 630 364 664 Z M209 665 L135 61 L415 61 Q422 61 425.5 57.5 Q429 54 428 47 L424 15 Q423 7 419.5 3.5 Q416 0 408 0 L70 0 Q63 0 60 4 Q57 8 58 15 L138 665 Q139 672 143.5 676 Q148 680 155 680 L197 680 Q205 680 207.5 676 Q210 672 209 665 Z " />
<glyph glyph-name="Nacute" unicode="&#x143;" horiz-adv-x="611" d="M485 863 L393 747 Q390 744 385.5 741 Q381 738 374 738 L339 738 Q332 738 330 741.5 Q328 745 333 752 L414 864 Q418 870 423 874 Q428 878 435 878 L480 878 Q488 878 489 873.5 Q490 869 485 863 Z M568 665 L488 15 Q487 8 484 4 Q481 0 473 0 L437 0 Q431 0 427.5 1.5 Q424 3 423 7 L215 477 Q209 491 201.5 510.5 Q194 530 190 543 L125 15 Q124 8 120.5 4 Q117 0 110 0 L71 0 Q64 0 60.5 4 Q57 8 58 15 L138 665 Q139 672 143 676 Q147 680 154 680 L190 680 Q195 680 198 678.5 Q201 677 202 674 L414 197 Q419 186 427.5 165 Q436 144 437 137 L501 665 Q502 672 506.5 676 Q511 680 518 680 L556 680 Q564 680 566.5 676 Q569 672 568 665 Z " />
<glyph glyph-name="Ncommaaccent" unicode="&#x145;" horiz-adv-x="611" d="M239 -92 L243 -65 Q244 -58 248.5 -54 Q253 -50 260 -50 L290 -50 Q298 -50 300.5 -54 Q303 -58 302 -65 L299 -96 Q295 -134 280 -161 Q265 -188 246 -213 Q242 -220 237 -221 Q232 -222 226 -221 L203 -215 Q196 -214 195 -208.5 Q194 -203 198 -196 Q216 -165 225 -145.5 Q234 -126 239 -92 Z M568 665 L488 15 Q487 8 484 4 Q481 0 473 0 L437 0 Q431 0 427.5 1.5 Q424 3 423 7 L215 477 Q209 491 201.5 510.5 Q194 530 190 543 L125 15 Q124 8 120.5 4 Q117 0 110 0 L71 0 Q64 0 60.5 4 Q57 8 58 15 L138 665 Q139 672 143 676 Q147 680 154 680 L190 680 Q195 680 198 678.5 Q201 677 202 674 L414 197 Q419 186 427.5 165 Q436 144 437 137 L501 665 Q502 672 506.5 676 Q511 680 518 680 L556 680 Q564 680 566.5 676 Q569 672 568 665 Z " />
<glyph glyph-name="Ncaron" unicode="&#x147;" horiz-adv-x="611" d="M568 665 L488 15 Q487 8 484 4 Q481 0 473 0 L437 0 Q431 0 427.5 1.5 Q424 3 423 7 L215 477 Q209 491 201.5 510.5 Q194 530 190 543 L125 15 Q124 8 120.5 4 Q117 0 110 0 L71 0 Q64 0 60.5 4 Q57 8 58 15 L138 665 Q139 672 143 676 Q147 680 154 680 L190 680 Q195 680 198 678.5 Q201 677 202 674 L414 197 Q419 186 427.5 165 Q436 144 437 137 L501 665 Q502 672 506.5 676 Q511 680 518 680 L556 680 Q564 680 566.5 676 Q569 672 568 665 Z M318 863 L361 781 L424 863 Q428 869 433.5 873.5 Q439 878 446 878 L479 878 Q486 878 488 873.5 Q490 869 485 863 L394 752 Q389 746 383 742 Q377 738 369 738 L344 738 Q337 738 331.5 742 Q326 746 322 753 L259 863 Q255 869 258 873.5 Q261 878 269 878 L300 878 Q307 878 311 873 Q315 868 318 863 Z " />
<glyph glyph-name="Omacron" unicode="&#x14c;" horiz-adv-x="591" d="M60 141 L109 542 Q116 602 166 645 Q216 688 341 688 Q451 688 497 650.5 Q543 613 543 561 Q543 557 543 552 Q543 547 542 539 L493 138 Q486 78 435.5 35 Q385 -8 260 -8 Q150 -8 104 29 Q58 66 58 118 Q58 123 58.5 129 Q59 135 60 141 Z M422 149 L469 527 Q470 534 470 538 Q470 542 470 545 Q470 584 439.5 605.5 Q409 627 336 627 Q258 627 221 600.5 Q184 574 179 531 L133 153 Q132 148 131.5 143 Q131 138 131 135 Q131 97 162 75 Q193 53 266 53 Q345 53 381 79.5 Q417 106 422 149 Z M235 827 L486 827 Q493 827 496.5 823.5 Q500 820 499 813 L497 787 Q496 780 491.5 776.5 Q487 773 480 773 L229 773 Q222 773 218.5 776.5 Q215 780 216 787 L218 812 Q219 820 223.5 823.5 Q228 827 235 827 Z " />
<glyph glyph-name="Obreve" unicode="&#x14e;" horiz-adv-x="591" d="M60 141 L109 542 Q116 602 166 645 Q216 688 341 688 Q451 688 497 650.5 Q543 613 543 561 Q543 557 543 552 Q543 547 542 539 L493 138 Q486 78 435.5 35 Q385 -8 260 -8 Q150 -8 104 29 Q58 66 58 118 Q58 123 58.5 129 Q59 135 60 141 Z M422 149 L469 527 Q470 534 470 538 Q470 542 470 545 Q470 584 439.5 605.5 Q409 627 336 627 Q258 627 221 600.5 Q184 574 179 531 L133 153 Q132 148 131.5 143 Q131 138 131 135 Q131 97 162 75 Q193 53 266 53 Q345 53 381 79.5 Q417 106 422 149 Z M300 871 L298 849 Q297 843 297 840 Q297 837 297 836 Q297 812 310.5 799 Q324 786 359 786 Q402 786 416.5 806.5 Q431 827 433 858 L434 871 Q435 878 438.5 881 Q442 884 450 884 L475 884 Q482 884 484.5 881 Q487 878 486 871 L485 859 Q481 805 453 773.5 Q425 742 356 742 Q301 742 273 765 Q245 788 245 831 Q245 835 245 838.5 Q245 842 246 850 L248 871 Q249 878 252.5 881 Q256 884 263 884 L288 884 Q295 884 298 881 Q301 878 300 871 Z " />
<glyph glyph-name="Ohungarumlaut" unicode="&#x150;" horiz-adv-x="591" d="M409 863 L333 752 Q329 745 324 741.5 Q319 738 312 738 L281 738 Q274 738 272 742 Q270 746 274 752 L342 863 Q346 870 351.5 874 Q357 878 364 878 L401 878 Q409 878 411 873.5 Q413 869 409 863 Z M524 863 L434 751 Q430 746 424 742 Q418 738 411 738 L380 738 Q373 738 372 741.5 Q371 745 375 752 L458 863 Q462 870 468.5 874 Q475 878 482 878 L519 878 Q527 878 528 873.5 Q529 869 524 863 Z M60 141 L109 542 Q116 602 166 645 Q216 688 341 688 Q451 688 497 650.5 Q543 613 543 561 Q543 557 543 552 Q543 547 542 539 L493 138 Q486 78 435.5 35 Q385 -8 260 -8 Q150 -8 104 29 Q58 66 58 118 Q58 123 58.5 129 Q59 135 60 141 Z M422 149 L469 527 Q470 534 470 538 Q470 542 470 545 Q470 584 439.5 605.5 Q409 627 336 627 Q258 627 221 600.5 Q184 574 179 531 L133 153 Q132 148 131.5 143 Q131 138 131 135 Q131 97 162 75 Q193 53 266 53 Q345 53 381 79.5 Q417 106 422 149 Z " />
<glyph glyph-name="Racute" unicode="&#x154;" horiz-adv-x="586" d="M346 619 L204 619 L169 337 L310 337 Q390 337 426.5 361.5 Q463 386 468 429 L479 515 Q480 522 480 526 Q480 530 480 533 Q480 573 449.5 596 Q419 619 346 619 Z M129 15 Q128 8 125 4 Q122 0 114 0 L72 0 Q65 0 61 3 Q57 6 58 15 L138 665 Q139 672 143 676 Q147 680 154 680 L349 680 Q459 680 505 640.5 Q551 601 551 547 Q551 545 551 539 Q551 533 550 526 L538 418 Q533 372 501.5 335.5 Q470 299 398 285 L493 15 Q495 8 491 4 Q487 0 479 0 L436 0 Q428 0 424 4.5 Q420 9 418 15 L326 277 L162 277 L129 15 Z M449 863 L357 747 Q354 744 349.5 741 Q345 738 338 738 L303 738 Q296 738 294 741.5 Q292 745 297 752 L378 864 Q382 870 387 874 Q392 878 399 878 L444 878 Q452 878 453 873.5 Q454 869 449 863 Z " />
<glyph glyph-name="Rcommaaccent" unicode="&#x156;" horiz-adv-x="586" d="M223 -92 L227 -65 Q228 -58 232.5 -54 Q237 -50 244 -50 L274 -50 Q282 -50 284.5 -54 Q287 -58 286 -65 L283 -96 Q279 -134 264 -161 Q249 -188 230 -213 Q226 -220 221 -221 Q216 -222 210 -221 L187 -215 Q180 -214 179 -208.5 Q178 -203 182 -196 Q200 -165 209 -145.5 Q218 -126 223 -92 Z M346 619 L204 619 L169 337 L310 337 Q390 337 426.5 361.5 Q463 386 468 429 L479 515 Q480 522 480 526 Q480 530 480 533 Q480 573 449.5 596 Q419 619 346 619 Z M129 15 Q128 8 125 4 Q122 0 114 0 L72 0 Q65 0 61 3 Q57 6 58 15 L138 665 Q139 672 143 676 Q147 680 154 680 L349 680 Q459 680 505 640.5 Q551 601 551 547 Q551 545 551 539 Q551 533 550 526 L538 418 Q533 372 501.5 335.5 Q470 299 398 285 L493 15 Q495 8 491 4 Q487 0 479 0 L436 0 Q428 0 424 4.5 Q420 9 418 15 L326 277 L162 277 L129 15 Z " />
<glyph glyph-name="Rcaron" unicode="&#x158;" horiz-adv-x="586" d="M346 619 L204 619 L169 337 L310 337 Q390 337 426.5 361.5 Q463 386 468 429 L479 515 Q480 522 480 526 Q480 530 480 533 Q480 573 449.5 596 Q419 619 346 619 Z M129 15 Q128 8 125 4 Q122 0 114 0 L72 0 Q65 0 61 3 Q57 6 58 15 L138 665 Q139 672 143 676 Q147 680 154 680 L349 680 Q459 680 505 640.5 Q551 601 551 547 Q551 545 551 539 Q551 533 550 526 L538 418 Q533 372 501.5 335.5 Q470 299 398 285 L493 15 Q495 8 491 4 Q487 0 479 0 L436 0 Q428 0 424 4.5 Q420 9 418 15 L326 277 L162 277 L129 15 Z M288 863 L331 781 L394 863 Q398 869 403.5 873.5 Q409 878 416 878 L449 878 Q456 878 458 873.5 Q460 869 455 863 L364 752 Q359 746 353 742 Q347 738 339 738 L314 738 Q307 738 301.5 742 Q296 746 292 753 L229 863 Q225 869 228 873.5 Q231 878 239 878 L270 878 Q277 878 281 873 Q285 868 288 863 Z " />
<glyph glyph-name="Sacute" unicode="&#x15a;" horiz-adv-x="553" d="M438 495 L442 533 Q443 540 443 543.5 Q443 547 443 550 Q443 586 415 607.5 Q387 629 316 629 Q238 629 205 603 Q172 577 167 534 L163 500 Q162 495 162 491.5 Q162 488 162 487 Q162 460 177 446.5 Q192 433 211 426 L388 355 Q431 338 455.5 309 Q480 280 480 238 Q480 234 480 229.5 Q480 225 479 218 L470 138 Q463 78 413.5 35 Q364 -8 239 -8 Q129 -8 84.5 29 Q40 66 40 118 Q40 122 40 127.5 Q40 133 41 141 L47 193 Q48 201 52 204.5 Q56 208 63 208 L104 208 Q112 208 115 204 Q118 200 117 193 L111 150 Q110 144 110 139 Q110 134 110 131 Q110 94 140.5 72.5 Q171 51 244 51 Q323 51 359 77.5 Q395 104 400 147 L408 211 Q409 218 409 220.5 Q409 223 409 224 Q409 253 386 269.5 Q363 286 335 297 L178 361 Q139 377 115 405.5 Q91 434 91 472 Q91 475 91 479.5 Q91 484 92 491 L98 542 Q105 602 151 645 Q197 688 321 688 Q429 688 471.5 651 Q514 614 514 563 Q514 559 514 554.5 Q514 550 513 542 L508 495 Q507 488 502.5 484 Q498 480 491 480 L450 480 Q443 480 440 483 Q437 486 438 495 Z M451 863 L359 747 Q356 744 351.5 741 Q347 738 340 738 L305 738 Q298 738 296 741.5 Q294 745 299 752 L380 864 Q384 870 389 874 Q394 878 401 878 L446 878 Q454 878 455 873.5 Q456 869 451 863 Z " />
<glyph glyph-name="Scircumflex" unicode="&#x15c;" horiz-adv-x="553" d="M438 495 L442 533 Q443 540 443 543.5 Q443 547 443 550 Q443 586 415 607.5 Q387 629 316 629 Q238 629 205 603 Q172 577 167 534 L163 500 Q162 495 162 491.5 Q162 488 162 487 Q162 460 177 446.5 Q192 433 211 426 L388 355 Q431 338 455.5 309 Q480 280 480 238 Q480 234 480 229.5 Q480 225 479 218 L470 138 Q463 78 413.5 35 Q364 -8 239 -8 Q129 -8 84.5 29 Q40 66 40 118 Q40 122 40 127.5 Q40 133 41 141 L47 193 Q48 201 52 204.5 Q56 208 63 208 L104 208 Q112 208 115 204 Q118 200 117 193 L111 150 Q110 144 110 139 Q110 134 110 131 Q110 94 140.5 72.5 Q171 51 244 51 Q323 51 359 77.5 Q395 104 400 147 L408 211 Q409 218 409 220.5 Q409 223 409 224 Q409 253 386 269.5 Q363 286 335 297 L178 361 Q139 377 115 405.5 Q91 434 91 472 Q91 475 91 479.5 Q91 484 92 491 L98 542 Q105 602 151 645 Q197 688 321 688 Q429 688 471.5 651 Q514 614 514 563 Q514 559 514 554.5 Q514 550 513 542 L508 495 Q507 488 502.5 484 Q498 480 491 480 L450 480 Q443 480 440 483 Q437 486 438 495 Z M336 834 L273 752 Q269 747 264 742.5 Q259 738 252 738 L219 738 Q211 738 209.5 742 Q208 746 212 752 L302 863 Q307 869 313.5 873.5 Q320 878 328 878 L353 878 Q361 878 365.5 874 Q370 870 374 864 L438 752 Q442 746 439 742 Q436 738 429 738 L398 738 Q391 738 386 742 Q381 746 378 752 L336 834 Z " />
<glyph glyph-name="Scedilla" unicode="&#x15e;" horiz-adv-x="554" d="M249 -211 L133 -211 Q124 -211 122 -206.5 Q120 -202 121 -196 L123 -181 Q124 -174 127.5 -170.5 Q131 -167 138 -167 L244 -167 Q261 -167 276 -159.5 Q291 -152 291 -127 Q291 -109 278.5 -103 Q266 -97 253 -97 L192 -97 Q182 -97 176 -92.5 Q170 -88 174 -78 L202 -7 Q112 0 76 35 Q40 70 40 118 Q40 122 40 127.5 Q40 133 41 141 L47 193 Q48 201 52 204.5 Q56 208 63 208 L104 208 Q112 208 115 204 Q118 200 117 193 L111 150 Q110 144 110 139 Q110 134 110 131 Q110 94 140.5 72.5 Q171 51 244 51 Q323 51 359 77.5 Q395 104 400 147 L408 211 Q409 218 409 220.5 Q409 223 409 224 Q409 253 386 269.5 Q363 286 335 297 L178 361 Q139 377 115 405.5 Q91 434 91 472 Q91 475 91 479.5 Q91 484 92 491 L98 542 Q105 602 151 645 Q197 688 321 688 Q429 688 471.5 651 Q514 614 514 563 Q514 559 514 554.5 Q514 550 513 542 L508 495 Q507 488 502.5 484 Q498 480 491 480 L450 480 Q443 480 440 483 Q437 486 438 495 L442 533 Q443 540 443 543.5 Q443 547 443 550 Q443 586 415 607.5 Q387 629 316 629 Q238 629 205 603 Q172 577 167 534 L163 500 Q162 495 162 491.5 Q162 488 162 487 Q162 460 177 446.5 Q192 433 211 426 L388 355 Q431 338 455.5 309 Q480 280 480 238 Q480 234 480 229.5 Q480 225 479 218 L470 138 Q463 80 415.5 37 Q368 -6 250 -8 L232 -53 L268 -53 Q296 -53 319 -69.5 Q342 -86 342 -123 Q342 -172 313 -191.5 Q284 -211 249 -211 Z " />
<glyph glyph-name="Scommaaccent" unicode="&#x218;" horiz-adv-x="551" d="M209 -92 L213 -65 Q214 -58 218.5 -54 Q223 -50 230 -50 L260 -50 Q268 -50 270.5 -54 Q273 -58 272 -65 L269 -96 Q265 -134 250 -161 Q235 -188 216 -213 Q212 -220 207 -221 Q202 -222 196 -221 L173 -215 Q166 -214 165 -208.5 Q164 -203 168 -196 Q186 -165 195 -145.5 Q204 -126 209 -92 Z M438 495 L442 533 Q443 540 443 543.5 Q443 547 443 550 Q443 586 415 607.5 Q387 629 316 629 Q238 629 205 603 Q172 577 167 534 L163 500 Q162 495 162 491.5 Q162 488 162 487 Q162 460 177 446.5 Q192 433 211 426 L388 355 Q431 338 455.5 309 Q480 280 480 238 Q480 234 480 229.5 Q480 225 479 218 L470 138 Q463 78 413.5 35 Q364 -8 239 -8 Q129 -8 84.5 29 Q40 66 40 118 Q40 122 40 127.5 Q40 133 41 141 L47 193 Q48 201 52 204.5 Q56 208 63 208 L104 208 Q112 208 115 204 Q118 200 117 193 L111 150 Q110 144 110 139 Q110 134 110 131 Q110 94 140.5 72.5 Q171 51 244 51 Q323 51 359 77.5 Q395 104 400 147 L408 211 Q409 218 409 220.5 Q409 223 409 224 Q409 253 386 269.5 Q363 286 335 297 L178 361 Q139 377 115 405.5 Q91 434 91 472 Q91 475 91 479.5 Q91 484 92 491 L98 542 Q105 602 151 645 Q197 688 321 688 Q429 688 471.5 651 Q514 614 514 563 Q514 559 514 554.5 Q514 550 513 542 L508 495 Q507 488 502.5 484 Q498 480 491 480 L450 480 Q443 480 440 483 Q437 486 438 495 Z " />
<glyph glyph-name="Tcommaaccent" unicode="&#x162;" horiz-adv-x="489" d="M166 -92 L170 -65 Q171 -58 175.5 -54 Q180 -50 187 -50 L217 -50 Q225 -50 227.5 -54 Q230 -58 229 -65 L226 -96 Q222 -134 207 -161 Q192 -188 173 -213 Q169 -220 164 -221 Q159 -222 153 -221 L130 -215 Q123 -214 122 -208.5 Q121 -203 125 -196 Q143 -165 152 -145.5 Q161 -126 166 -92 Z M84 680 L501 680 Q508 680 511.5 676.5 Q515 673 514 665 L511 634 Q510 626 505.5 622.5 Q501 619 494 619 L322 619 L247 15 Q246 8 242.5 4 Q239 0 231 0 L189 0 Q182 0 178 4 Q174 8 175 15 L250 619 L78 619 Q71 619 67.5 622.5 Q64 626 65 634 L68 665 Q69 673 73 676.5 Q77 680 84 680 Z " />
<glyph glyph-name="Tcaron" unicode="&#x164;" horiz-adv-x="489" d="M84 680 L501 680 Q508 680 511.5 676.5 Q515 673 514 665 L511 634 Q510 626 505.5 622.5 Q501 619 494 619 L322 619 L247 15 Q246 8 242.5 4 Q239 0 231 0 L189 0 Q182 0 178 4 Q174 8 175 15 L250 619 L78 619 Q71 619 67.5 622.5 Q64 626 65 634 L68 665 Q69 673 73 676.5 Q77 680 84 680 Z M258 863 L301 781 L364 863 Q368 869 373.5 873.5 Q379 878 386 878 L419 878 Q426 878 428 873.5 Q430 869 425 863 L334 752 Q329 746 323 742 Q317 738 309 738 L284 738 Q277 738 271.5 742 Q266 746 262 753 L199 863 Q195 869 198 873.5 Q201 878 209 878 L240 878 Q247 878 251 873 Q255 868 258 863 Z " />
<glyph glyph-name="Utilde" unicode="&#x168;" horiz-adv-x="606" d="M204 665 L141 159 Q140 149 139.5 144.5 Q139 140 139 135 Q139 97 170.5 75 Q202 53 274 53 Q353 53 389.5 79.5 Q426 106 431 149 L495 665 Q496 672 499.5 676 Q503 680 510 680 L553 680 Q559 680 563 676.5 Q567 673 566 665 L501 138 Q494 78 444.5 35 Q395 -8 269 -8 Q159 -8 113 29 Q67 66 67 120 Q67 124 67.5 131 Q68 138 69 144 L133 665 Q134 672 137.5 676 Q141 680 149 680 L191 680 Q197 680 201 676.5 Q205 673 204 665 Z M296 819 Q281 819 275.5 809.5 Q270 800 266 778 L263 763 Q262 756 257.5 753 Q253 750 246 750 L225 750 Q218 750 215.5 755 Q213 760 214 767 L219 791 Q228 834 248 853 Q268 872 298 872 Q311 872 325.5 867 Q340 862 353 852 L394 820 Q402 813 410.5 808.5 Q419 804 426 804 Q442 804 448.5 813.5 Q455 823 458 851 L459 860 Q460 867 464.5 870 Q469 873 476 873 L498 873 Q506 873 508 868.5 Q510 864 509 856 L506 832 Q500 787 476.5 769 Q453 751 425 751 Q408 751 395 756.5 Q382 762 369 772 L328 804 Q320 811 312 815 Q304 819 296 819 Z " />
<glyph glyph-name="Umacron" unicode="&#x16a;" horiz-adv-x="606" d="M204 665 L141 159 Q140 149 139.5 144.5 Q139 140 139 135 Q139 97 170.5 75 Q202 53 274 53 Q353 53 389.5 79.5 Q426 106 431 149 L495 665 Q496 672 499.5 676 Q503 680 510 680 L553 680 Q559 680 563 676.5 Q567 673 566 665 L501 138 Q494 78 444.5 35 Q395 -8 269 -8 Q159 -8 113 29 Q67 66 67 120 Q67 124 67.5 131 Q68 138 69 144 L133 665 Q134 672 137.5 676 Q141 680 149 680 L191 680 Q197 680 201 676.5 Q205 673 204 665 Z M241 827 L492 827 Q499 827 502.5 823.5 Q506 820 505 813 L503 787 Q502 780 497.5 776.5 Q493 773 486 773 L235 773 Q228 773 224.5 776.5 Q221 780 222 787 L224 812 Q225 820 229.5 823.5 Q234 827 241 827 Z " />
<glyph glyph-name="Ubreve" unicode="&#x16c;" horiz-adv-x="606" d="M204 665 L141 159 Q140 149 139.5 144.5 Q139 140 139 135 Q139 97 170.5 75 Q202 53 274 53 Q353 53 389.5 79.5 Q426 106 431 149 L495 665 Q496 672 499.5 676 Q503 680 510 680 L553 680 Q559 680 563 676.5 Q567 673 566 665 L501 138 Q494 78 444.5 35 Q395 -8 269 -8 Q159 -8 113 29 Q67 66 67 120 Q67 124 67.5 131 Q68 138 69 144 L133 665 Q134 672 137.5 676 Q141 680 149 680 L191 680 Q197 680 201 676.5 Q205 673 204 665 Z M301 871 L299 849 Q298 843 298 840 Q298 837 298 836 Q298 812 311.5 799 Q325 786 360 786 Q403 786 417.5 806.5 Q432 827 434 858 L435 871 Q436 878 439.5 881 Q443 884 451 884 L476 884 Q483 884 485.5 881 Q488 878 487 871 L486 859 Q482 805 454 773.5 Q426 742 357 742 Q302 742 274 765 Q246 788 246 831 Q246 835 246 838.5 Q246 842 247 850 L249 871 Q250 878 253.5 881 Q257 884 264 884 L289 884 Q296 884 299 881 Q302 878 301 871 Z " />
<glyph glyph-name="Uring" unicode="&#x16e;" horiz-adv-x="606" d="M461 813 L459 787 Q457 758 433.5 739.5 Q410 721 362 721 Q314 721 292.5 738.5 Q271 756 274 793 L276 819 Q278 848 302.5 867.5 Q327 887 376 887 Q423 887 443.5 867.5 Q464 848 461 813 Z M419 794 L420 814 Q421 829 411 839.5 Q401 850 372 850 Q344 850 330.5 839.5 Q317 829 316 813 L315 798 Q314 776 324 766.5 Q334 757 362 757 Q390 757 404 767 Q418 777 419 794 Z M204 665 L141 159 Q140 149 139.5 144.5 Q139 140 139 135 Q139 97 170.5 75 Q202 53 274 53 Q353 53 389.5 79.5 Q426 106 431 149 L495 665 Q496 672 499.5 676 Q503 680 510 680 L553 680 Q559 680 563 676.5 Q567 673 566 665 L501 138 Q494 78 444.5 35 Q395 -8 269 -8 Q159 -8 113 29 Q67 66 67 120 Q67 124 67.5 131 Q68 138 69 144 L133 665 Q134 672 137.5 676 Q141 680 149 680 L191 680 Q197 680 201 676.5 Q205 673 204 665 Z " />
<glyph glyph-name="Uhungarumlaut" unicode="&#x170;" horiz-adv-x="606" d="M414 863 L338 752 Q334 745 329 741.5 Q324 738 317 738 L286 738 Q279 738 277 742 Q275 746 279 752 L347 863 Q351 870 356.5 874 Q362 878 369 878 L406 878 Q414 878 416 873.5 Q418 869 414 863 Z M529 863 L439 751 Q435 746 429 742 Q423 738 416 738 L385 738 Q378 738 377 741.5 Q376 745 380 752 L463 863 Q467 870 473.5 874 Q480 878 487 878 L524 878 Q532 878 533 873.5 Q534 869 529 863 Z M204 665 L141 159 Q140 149 139.5 144.5 Q139 140 139 135 Q139 97 170.5 75 Q202 53 274 53 Q353 53 389.5 79.5 Q426 106 431 149 L495 665 Q496 672 499.5 676 Q503 680 510 680 L553 680 Q559 680 563 676.5 Q567 673 566 665 L501 138 Q494 78 444.5 35 Q395 -8 269 -8 Q159 -8 113 29 Q67 66 67 120 Q67 124 67.5 131 Q68 138 69 144 L133 665 Q134 672 137.5 676 Q141 680 149 680 L191 680 Q197 680 201 676.5 Q205 673 204 665 Z " />
<glyph glyph-name="Uogonek" unicode="&#x172;" horiz-adv-x="607" d="M204 665 L141 159 Q140 149 139.5 144.5 Q139 140 139 135 Q139 97 170.5 75 Q202 53 274 53 Q353 53 389.5 79.5 Q426 106 431 149 L495 665 Q496 672 499.5 676 Q503 680 510 680 L553 680 Q559 680 563 676.5 Q567 673 566 665 L501 138 Q497 109 486.5 85.5 Q476 62 458 46 Q436 27 408 2 Q380 -23 380 -65 Q380 -86 393.5 -95.5 Q407 -105 435 -105 L468 -105 Q475 -105 479.5 -108.5 Q484 -112 483 -119 L481 -139 Q480 -147 474.5 -150.5 Q469 -154 462 -154 L416 -154 Q382 -154 354.5 -137.5 Q327 -121 327 -79 Q327 -60 333 -39.5 Q339 -19 354 0 Q336 -4 315 -6 Q294 -8 269 -8 Q159 -8 113 29 Q67 66 67 120 Q67 124 67.5 131 Q68 138 69 144 L133 665 Q134 672 137.5 676 Q141 680 149 680 L191 680 Q197 680 201 676.5 Q205 673 204 665 Z " />
<glyph glyph-name="Wcircumflex" unicode="&#x174;" horiz-adv-x="816" d="M472 834 L409 752 Q405 747 400 742.5 Q395 738 388 738 L355 738 Q347 738 345.5 742 Q344 746 348 752 L438 863 Q443 869 449.5 873.5 Q456 878 464 878 L489 878 Q497 878 501.5 874 Q506 870 510 864 L574 752 Q578 746 575 742 Q572 738 565 738 L534 738 Q527 738 522 742 Q517 746 514 752 L472 834 Z M496 665 L557 195 Q559 176 561 151.5 Q563 127 563 115 Q565 127 573.5 151.5 Q582 176 589 195 L766 665 Q769 672 773.5 676 Q778 680 786 680 L824 680 Q831 680 833.5 676 Q836 672 833 665 L589 15 Q586 8 581 4 Q576 0 569 0 L527 0 Q520 0 516 4 Q512 8 511 15 L449 493 Q448 506 445.5 528.5 Q443 551 444 564 Q441 551 434.5 529 Q428 507 422 492 L241 15 Q238 8 233.5 4 Q229 0 221 0 L179 0 Q172 0 168 4 Q164 8 163 15 L78 665 Q77 672 80.5 676 Q84 680 92 680 L134 680 Q142 680 145.5 676 Q149 672 150 665 L211 195 Q213 180 215 155.5 Q217 131 218 121 Q220 130 228.5 154.5 Q237 179 243 195 L421 665 Q424 672 428.5 676 Q433 680 440 680 L480 680 Q488 680 491.5 676 Q495 672 496 665 Z " />
<glyph glyph-name="Wgrave" unicode="&#x1e80;" horiz-adv-x="818" d="M427 747 L362 863 Q359 869 361.5 873.5 Q364 878 372 878 L414 878 Q422 878 426 874.5 Q430 871 433 865 L485 752 Q488 745 485.5 741.5 Q483 738 476 738 L444 738 Q437 738 433 740.5 Q429 743 427 747 Z M496 665 L557 195 Q559 176 561 151.5 Q563 127 563 115 Q565 127 573.5 151.5 Q582 176 589 195 L766 665 Q769 672 773.5 676 Q778 680 786 680 L824 680 Q831 680 833.5 676 Q836 672 833 665 L589 15 Q586 8 581 4 Q576 0 569 0 L527 0 Q520 0 516 4 Q512 8 511 15 L449 493 Q448 506 445.5 528.5 Q443 551 444 564 Q441 551 434.5 529 Q428 507 422 492 L241 15 Q238 8 233.5 4 Q229 0 221 0 L179 0 Q172 0 168 4 Q164 8 163 15 L78 665 Q77 672 80.5 676 Q84 680 92 680 L134 680 Q142 680 145.5 676 Q149 672 150 665 L211 195 Q213 180 215 155.5 Q217 131 218 121 Q220 130 228.5 154.5 Q237 179 243 195 L421 665 Q424 672 428.5 676 Q433 680 440 680 L480 680 Q488 680 491.5 676 Q495 672 496 665 Z " />
<glyph glyph-name="Wacute" unicode="&#x1e82;" horiz-adv-x="818" d="M592 863 L500 747 Q497 744 492.5 741 Q488 738 481 738 L446 738 Q439 738 437 741.5 Q435 745 440 752 L521 864 Q525 870 530 874 Q535 878 542 878 L587 878 Q595 878 596 873.5 Q597 869 592 863 Z M496 665 L557 195 Q559 176 561 151.5 Q563 127 563 115 Q565 127 573.5 151.5 Q582 176 589 195 L766 665 Q769 672 773.5 676 Q778 680 786 680 L824 680 Q831 680 833.5 676 Q836 672 833 665 L589 15 Q586 8 581 4 Q576 0 569 0 L527 0 Q520 0 516 4 Q512 8 511 15 L449 493 Q448 506 445.5 528.5 Q443 551 444 564 Q441 551 434.5 529 Q428 507 422 492 L241 15 Q238 8 233.5 4 Q229 0 221 0 L179 0 Q172 0 168 4 Q164 8 163 15 L78 665 Q77 672 80.5 676 Q84 680 92 680 L134 680 Q142 680 145.5 676 Q149 672 150 665 L211 195 Q213 180 215 155.5 Q217 131 218 121 Q220 130 228.5 154.5 Q237 179 243 195 L421 665 Q424 672 428.5 676 Q433 680 440 680 L480 680 Q488 680 491.5 676 Q495 672 496 665 Z " />
<glyph glyph-name="Wdieresis" unicode="&#x1e84;" horiz-adv-x="818" d="M496 665 L557 195 Q559 176 561 151.5 Q563 127 563 115 Q565 127 573.5 151.5 Q582 176 589 195 L766 665 Q769 672 773.5 676 Q778 680 786 680 L824 680 Q831 680 833.5 676 Q836 672 833 665 L589 15 Q586 8 581 4 Q576 0 569 0 L527 0 Q520 0 516 4 Q512 8 511 15 L449 493 Q448 506 445.5 528.5 Q443 551 444 564 Q441 551 434.5 529 Q428 507 422 492 L241 15 Q238 8 233.5 4 Q229 0 221 0 L179 0 Q172 0 168 4 Q164 8 163 15 L78 665 Q77 672 80.5 676 Q84 680 92 680 L134 680 Q142 680 145.5 676 Q149 672 150 665 L211 195 Q213 180 215 155.5 Q217 131 218 121 Q220 130 228.5 154.5 Q237 179 243 195 L421 665 Q424 672 428.5 676 Q433 680 440 680 L480 680 Q488 680 491.5 676 Q495 672 496 665 Z M553 856 L541 759 Q540 751 536 747.5 Q532 744 525 744 L500 744 Q493 744 490 747.5 Q487 751 488 759 L500 856 Q501 863 505 866.5 Q509 870 516 870 L541 870 Q548 870 551 866.5 Q554 863 553 856 Z M446 856 L434 759 Q433 751 429 747.5 Q425 744 418 744 L393 744 Q386 744 383 747.5 Q380 751 381 759 L392 856 Q393 863 397.5 866.5 Q402 870 409 870 L434 870 Q441 870 444 866.5 Q447 863 446 856 Z " />
<glyph glyph-name="Ycircumflex" unicode="&#x176;" horiz-adv-x="521" d="M149 665 L260 375 Q263 368 266 357.5 Q269 347 270 337 Q273 344 278 355 Q283 366 289 375 L476 665 Q480 671 484 675.5 Q488 680 496 680 L539 680 Q547 680 549.5 676 Q552 672 548 665 L299 277 L266 15 Q265 8 262 4 Q259 0 251 0 L209 0 Q201 0 197.5 4 Q194 8 195 15 L227 269 L72 665 Q69 672 73.5 676 Q78 680 85 680 L132 680 Q140 680 143.5 676 Q147 672 149 665 Z M326 834 L263 752 Q259 747 254 742.5 Q249 738 242 738 L209 738 Q201 738 199.5 742 Q198 746 202 752 L292 863 Q297 869 303.5 873.5 Q310 878 318 878 L343 878 Q351 878 355.5 874 Q360 870 364 864 L428 752 Q432 746 429 742 Q426 738 419 738 L388 738 Q381 738 376 742 Q371 746 368 752 L326 834 Z " />
<glyph glyph-name="Ygrave" unicode="&#x1ef2;" horiz-adv-x="522" d="M149 665 L260 375 Q263 368 266 357.5 Q269 347 270 337 Q273 344 278 355 Q283 366 289 375 L476 665 Q480 671 484 675.5 Q488 680 496 680 L539 680 Q547 680 549.5 676 Q552 672 548 665 L299 277 L266 15 Q265 8 262 4 Q259 0 251 0 L209 0 Q201 0 197.5 4 Q194 8 195 15 L227 269 L72 665 Q69 672 73.5 676 Q78 680 85 680 L132 680 Q140 680 143.5 676 Q147 672 149 665 Z M279 747 L214 863 Q211 869 213.5 873.5 Q216 878 224 878 L266 878 Q274 878 278 874.5 Q282 871 285 865 L337 752 Q340 745 337.5 741.5 Q335 738 328 738 L296 738 Q289 738 285 740.5 Q281 743 279 747 Z " />
</font>
</svg>
