<?xml version="1.0" encoding="UTF-8"?>
<svg xmlns="http://www.w3.org/2000/svg" xmlns:xlink="http://www.w3.org/1999/xlink" version="1.2" >
<font id="Fly Sans Regular Regular">
<font-face  font-family="Fly Sans" units-per-em="1000" ascent="1000" descent="-300" font-style="normal" font-weight="400" font-stretch="normal" cap-height="680" x-height="494" underline-position="-125" underline-thickness="48" />
<missing-glyph  horiz-adv-x="859" d="M677 94 Q626 44 561.5 18 Q497 -8 428 -8 Q362 -8 297 18 Q232 44 182 94 Q131 144 105 209 Q79 274 79 341 Q79 407 105 472 Q131 537 182 588 Q232 638 297 664 Q362 690 428 690 Q495 690 561 664 Q627 638 677 588 Q727 538 753.5 472.5 Q780 407 780 341 Q780 273 753.5 208.5 Q727 144 677 94 Z M665 106 Q714 155 739 216.5 Q764 278 764 341 Q764 404 739 465.5 Q714 527 665 576 Q616 625 554 649.5 Q492 674 428 674 Q365 674 304 649.5 Q243 625 194 576 Q145 527 120 465.5 Q95 404 95 341 Q95 278 120 216.5 Q145 155 194 106 Q243 57 304 32.5 Q365 8 428 8 Q493 8 554.5 32.5 Q616 57 665 106 Z M547 183 L429 301 L312 184 Q307 179 302 178.5 Q297 178 291 184 L271 204 Q265 210 265.5 215 Q266 220 271 225 L388 342 L271 460 Q265 466 265.5 470 Q266 474 271 480 L291 501 Q297 507 302 507 Q307 507 312 501 L429 383 L548 501 Q554 507 558.5 507 Q563 507 568 502 L589 481 Q595 475 595 470 Q595 465 589 460 L470 342 L588 224 Q594 218 594 213.5 Q594 209 588 203 L568 183 Q562 177 557 177.5 Q552 178 547 183 Z " />
<glyph glyph-name="Eth" unicode="&#xd0;" horiz-adv-x="610" d="M315 0 L112 0 Q105 0 102.5 4 Q100 8 100 15 L100 317 L33 317 Q26 317 22 320.5 Q18 324 18 331 L18 357 Q18 364 22 367.5 Q26 371 33 371 L100 371 L100 665 Q100 672 103 676 Q106 680 113 680 L315 680 Q438 680 485 637 Q532 594 532 534 L532 146 Q532 86 485 43 Q438 0 315 0 Z M170 61 L315 61 Q395 61 428 87.5 Q461 114 461 157 L461 523 Q461 566 428 592.5 Q395 619 315 619 L170 619 L170 371 L302 371 Q309 371 312.5 367.5 Q316 364 316 357 L316 331 Q316 324 312.5 320.5 Q309 317 302 317 L170 317 L170 61 Z " />
<glyph glyph-name="eth" unicode="&#xf0;" horiz-adv-x="517" d="M278 598 L352 631 Q339 642 316.5 648.5 Q294 655 259 655 L169 655 Q162 655 158.5 658.5 Q155 662 155 670 L155 690 Q155 698 158.5 701.5 Q162 705 169 705 L259 705 Q315 705 352 693.5 Q389 682 409 662 L460 686 Q466 689 471.5 688 Q477 687 480 681 L485 671 Q488 665 486.5 660 Q485 655 478 652 L431 630 Q437 618 439.5 604.5 Q442 591 442 577 L442 120 Q442 63 400.5 27.5 Q359 -8 257 -8 Q155 -8 111.5 27.5 Q68 63 68 120 L68 374 Q68 431 102 466.5 Q136 502 208 502 Q269 502 312 480.5 Q355 459 377 442 L377 564 Q377 572 374.5 580.5 Q372 589 368 596 L296 565 Q289 562 285 562.5 Q281 563 277 570 L272 579 Q269 584 270.5 589.5 Q272 595 278 598 Z M377 125 L377 384 Q360 397 320.5 419.5 Q281 442 227 442 Q178 442 158 419 Q138 396 138 365 L138 125 Q138 90 164.5 69 Q191 48 257 48 Q323 48 350 69 Q377 90 377 125 Z " />
<glyph glyph-name="Lslash" unicode="&#x141;" horiz-adv-x="484" d="M452 0 L113 0 Q107 0 104 4 Q101 8 101 15 L101 301 L50 280 Q43 277 38.5 279 Q34 281 31 288 L25 303 Q23 309 24.5 313.5 Q26 318 33 321 L101 349 L101 665 Q101 672 104.5 676 Q108 680 115 680 L158 680 Q165 680 168.5 676 Q172 672 172 665 L172 378 L234 404 Q240 406 245 404.5 Q250 403 253 396 L260 381 Q263 375 260.5 370 Q258 365 251 362 L172 330 L172 61 L452 61 Q459 61 462.5 57.5 Q466 54 466 47 L466 15 Q466 7 462.5 3.5 Q459 0 452 0 Z " />
<glyph glyph-name="lslash" unicode="&#x142;" horiz-adv-x="269" d="M155 0 L114 0 Q107 0 103.5 4 Q100 8 100 15 L100 303 L43 280 Q36 277 32 279 Q28 281 24 288 L17 303 Q14 309 16.5 313.5 Q19 318 26 321 L100 352 L100 684 Q100 691 103.5 695 Q107 699 114 699 L155 699 Q162 699 165.5 695 Q169 691 169 684 L169 380 L227 404 Q232 406 237 404.5 Q242 403 245 396 L252 381 Q255 375 252.5 370 Q250 365 243 362 L169 332 L169 15 Q169 8 165.5 4 Q162 0 155 0 Z " />
<glyph glyph-name="Scaron" unicode="&#x160;" horiz-adv-x="554" d="M413 495 L413 533 Q413 576 383.5 602 Q354 628 276 628 Q198 628 168 602 Q138 576 138 533 L138 503 Q138 466 157.5 449 Q177 432 196 425 L384 354 Q424 339 456 307.5 Q488 276 488 224 L488 138 Q488 78 441.5 35 Q395 -8 274 -8 Q153 -8 106.5 35 Q60 78 60 138 L60 193 Q60 201 63.5 204.5 Q67 208 74 208 L115 208 Q122 208 125.5 204.5 Q129 201 129 193 L129 147 Q129 104 161.5 78 Q194 52 273 52 Q353 52 385.5 78 Q418 104 418 147 L418 209 Q418 248 391 267 Q364 286 335 297 L156 366 Q125 378 97 409 Q69 440 69 486 L69 542 Q69 602 112.5 645 Q156 688 275 688 Q394 688 438.5 645 Q483 602 483 542 L483 495 Q483 488 479.5 484 Q476 480 468 480 L427 480 Q420 480 416.5 484 Q413 488 413 495 Z M225 863 L278 781 L331 863 Q335 869 339.5 873.5 Q344 878 351 878 L383 878 Q391 878 393 873.5 Q395 869 391 863 L314 752 Q310 746 304 742 Q298 738 291 738 L265 738 Q258 738 252 742 Q246 746 242 753 L165 863 Q161 869 163.5 873.5 Q166 878 173 878 L205 878 Q212 878 216.5 873.5 Q221 869 225 863 Z " />
<glyph glyph-name="scaron" unicode="&#x161;" horiz-adv-x="472" d="M185 693 L238 611 L291 693 Q295 699 299.5 703.5 Q304 708 311 708 L343 708 Q350 708 352.5 703.5 Q355 699 351 693 L273 582 Q269 576 263.5 572 Q258 568 250 568 L224 568 Q217 568 211 572 Q205 576 201 583 L125 693 Q121 699 123 703.5 Q125 708 133 708 L165 708 Q172 708 176.5 703.5 Q181 699 185 693 Z M345 359 L345 388 Q345 417 317.5 433.5 Q290 450 234 450 Q179 450 152 433.5 Q125 417 125 388 L125 362 Q125 339 142 325.5 Q159 312 175 307 L329 257 Q366 245 391 221 Q416 197 416 162 L416 105 Q416 60 373 26 Q330 -8 234 -8 Q138 -8 95.5 26 Q53 60 53 105 L53 132 Q53 139 56 142.5 Q59 146 66 146 L104 146 Q111 146 114 142.5 Q117 139 117 132 L117 108 Q117 78 147 61.5 Q177 45 234 45 Q291 45 321 61.5 Q351 78 351 108 L351 145 Q351 167 334.5 180 Q318 193 293 201 L139 252 Q113 261 87 286.5 Q61 312 61 349 L61 388 Q61 433 100 467.5 Q139 502 235 502 Q329 502 368.5 467.5 Q408 433 408 388 L408 359 Q408 352 405 349 Q402 346 394 346 L358 346 Q351 346 348 349 Q345 352 345 359 Z " />
<glyph glyph-name="Yacute" unicode="&#xdd;" horiz-adv-x="522" d="M104 665 L251 375 Q254 369 258 358 Q262 347 265 337 Q267 344 271.5 354.5 Q276 365 281 375 L432 665 Q435 671 439 675.5 Q443 680 450 680 L492 680 Q499 680 503 676 Q507 672 503 665 L301 277 L301 15 Q301 8 297.5 4 Q294 0 287 0 L244 0 Q237 0 233.5 4 Q230 8 230 15 L230 269 L27 665 Q23 672 26.5 676 Q30 680 38 680 L85 680 Q93 680 97 676 Q101 672 104 665 Z M381 863 L302 747 Q300 744 295.5 741 Q291 738 283 738 L250 738 Q243 738 241 741.5 Q239 745 243 752 L310 864 Q314 870 318 874 Q322 878 329 878 L373 878 Q381 878 383 873.5 Q385 869 381 863 Z " />
<glyph glyph-name="yacute" unicode="&#xfd;" horiz-adv-x="448" d="M99 479 L212 147 Q217 131 221 114 Q225 97 226 87 Q230 102 234 117.5 Q238 133 242 145 L356 479 Q358 486 362 490 Q366 494 373 494 L411 494 Q418 494 421.5 490 Q425 486 423 479 L195 -192 Q193 -198 189 -202.5 Q185 -207 178 -207 L147 -207 Q139 -207 135.5 -203 Q132 -199 134 -192 L195 -4 L28 479 Q26 486 29.5 490 Q33 494 41 494 L82 494 Q89 494 93 490 Q97 486 99 479 Z M338 693 L259 577 Q257 574 252.5 571 Q248 568 241 568 L208 568 Q201 568 198.5 571.5 Q196 575 200 582 L267 694 Q271 700 275.5 704 Q280 708 287 708 L331 708 Q339 708 340.5 703.5 Q342 699 338 693 Z " />
<glyph glyph-name="Thorn" unicode="&#xde;" horiz-adv-x="574" d="M161 665 L161 494 L302 494 Q426 494 472.5 451 Q519 408 519 348 L519 246 Q519 187 472.5 144 Q426 101 302 101 L161 101 L161 15 Q161 8 158 4 Q155 0 147 0 L105 0 Q97 0 93.5 4 Q90 8 90 15 L90 665 Q90 672 93.5 676 Q97 680 105 680 L147 680 Q155 680 158 676 Q161 672 161 665 Z M302 434 L161 434 L161 160 L302 160 Q382 160 415 186.5 Q448 213 448 257 L448 337 Q448 381 415 407.5 Q382 434 302 434 Z " />
<glyph glyph-name="thorn" unicode="&#xfe;" horiz-adv-x="524" d="M386 129 L386 365 Q386 396 366 419 Q346 442 297 442 Q242 442 202.5 419.5 Q163 397 147 384 L147 109 Q163 96 202.5 74 Q242 52 297 52 Q346 52 366 75 Q386 98 386 129 Z M147 684 L147 442 Q169 459 211 480.5 Q253 502 316 502 Q388 502 421.5 466.5 Q455 431 455 374 L455 120 Q455 63 421.5 27.5 Q388 -8 316 -8 Q254 -8 211.5 13 Q169 34 147 51 L147 -192 Q147 -199 143.5 -203 Q140 -207 133 -207 L92 -207 Q85 -207 81.5 -203 Q78 -199 78 -192 L78 684 Q78 691 81.5 695 Q85 699 92 699 L133 699 Q140 699 143.5 695 Q147 691 147 684 Z " />
<glyph glyph-name="CR" unicode="&#xd;" d="" />
<glyph glyph-name="Zcaron" unicode="&#x17d;" horiz-adv-x="477" d="M194 876 L247 794 L300 876 Q304 882 308.5 886.5 Q313 891 320 891 L352 891 Q359 891 361.5 886.5 Q364 882 360 876 L282 765 Q278 759 272.5 755 Q267 751 259 751 L233 751 Q226 751 220 755 Q214 759 210 766 L134 876 Q130 882 132 886.5 Q134 891 142 891 L174 891 Q181 891 185.5 886.5 Q190 882 194 876 Z M67 680 L416 680 Q424 680 428 676.5 Q432 673 432 665 L432 634 Q432 630 431 627.5 Q430 625 429 623 L120 61 L432 61 Q439 61 443 57.5 Q447 54 447 47 L447 15 Q447 7 443 3.5 Q439 0 432 0 L49 0 Q42 0 38.5 3.5 Q35 7 35 15 L35 47 Q35 49 35.5 52 Q36 55 37 57 L344 619 L67 619 Q60 619 56 622.5 Q52 626 52 634 L52 665 Q52 673 56 676.5 Q60 680 67 680 Z " />
<glyph glyph-name="zcaron" unicode="&#x17e;" horiz-adv-x="430" d="M168 693 L221 611 L274 693 Q278 699 282.5 703.5 Q287 708 294 708 L326 708 Q333 708 335.5 703.5 Q338 699 334 693 L256 582 Q252 576 246.5 572 Q241 568 233 568 L207 568 Q200 568 194 572 Q188 576 184 583 L108 693 Q104 699 106 703.5 Q108 708 116 708 L148 708 Q155 708 159.5 703.5 Q164 699 168 693 Z M65 494 L365 494 Q372 494 376 490.5 Q380 487 380 480 L380 452 Q380 448 379 445 Q378 442 377 440 L122 58 L379 58 Q386 58 390 54.5 Q394 51 394 43 L394 15 Q394 7 390 3.5 Q386 0 379 0 L52 0 Q44 0 40.5 3.5 Q37 7 37 15 L37 43 Q37 47 38 50 Q39 53 40 55 L293 436 L65 436 Q57 436 53.5 439.5 Q50 443 50 451 L50 480 Q50 487 53.5 490.5 Q57 494 65 494 Z " />
<glyph glyph-name="onehalf" unicode="&#xbd;" horiz-adv-x="762" d="M528 47 L701 47 Q706 47 708 44 Q710 41 710 37 L710 10 Q710 4 708 2 Q706 0 701 0 L481 0 Q476 0 473.5 2 Q471 4 471 10 L471 106 Q471 134 488.5 149 Q506 164 524 170 L618 201 Q628 205 640 212.5 Q652 220 652 239 L652 286 Q652 308 638 320.5 Q624 333 586 333 Q548 333 534.5 320.5 Q521 308 521 286 L521 263 Q521 258 518 255.5 Q515 253 511 253 L475 253 Q470 253 468 255.5 Q466 258 466 263 L466 292 Q466 326 493 352 Q520 378 589 378 Q659 378 683.5 352 Q708 326 708 292 L708 236 Q708 203 689 187 Q670 171 654 165 L558 132 Q543 127 535.5 121.5 Q528 116 528 101 L528 47 Z M62 656 L190 681 Q194 682 197.5 680.5 Q201 679 201 672 L201 353 L282 353 Q288 353 290.5 350 Q293 347 293 343 L293 316 Q293 310 290.5 308 Q288 306 282 306 L62 306 Q57 306 54.5 308 Q52 310 52 316 L52 343 Q52 347 54.5 350 Q57 353 62 353 L144 353 L144 626 L62 609 Q58 608 55 610.5 Q52 613 52 617 L52 644 Q52 649 55 652 Q58 655 62 656 Z M574 673 L262 7 Q258 -1 253 -4.5 Q248 -8 241 -8 L209 -8 Q202 -8 201 -2.5 Q200 3 202 7 L515 673 Q518 679 523.5 683.5 Q529 688 536 688 L567 688 Q574 688 575.5 683.5 Q577 679 574 673 Z " />
<glyph glyph-name="onequarter" unicode="&#xbc;" horiz-adv-x="747" d="M566 364 L497 157 L628 157 L628 364 Q628 369 630.5 371.5 Q633 374 638 374 L674 374 Q679 374 681.5 371.5 Q684 369 684 364 L684 10 Q684 5 681.5 2.5 Q679 0 674 0 L638 0 Q633 0 630.5 2.5 Q628 5 628 10 L628 111 L449 111 Q443 111 440.5 114 Q438 117 438 122 L438 140 Q438 145 438.5 149.5 Q439 154 440 156 L511 364 Q512 369 515 371.5 Q518 374 524 374 L558 374 Q564 374 565.5 371 Q567 368 566 364 Z M62 656 L190 681 Q194 682 197.5 680.5 Q201 679 201 672 L201 353 L282 353 Q288 353 290.5 350 Q293 347 293 343 L293 316 Q293 310 290.5 308 Q288 306 282 306 L62 306 Q57 306 54.5 308 Q52 310 52 316 L52 343 Q52 347 54.5 350 Q57 353 62 353 L144 353 L144 626 L62 609 Q58 608 55 610.5 Q52 613 52 617 L52 644 Q52 649 55 652 Q58 655 62 656 Z M575 673 L263 7 Q259 -1 254 -4.5 Q249 -8 242 -8 L210 -8 Q203 -8 202 -2.5 Q201 3 203 7 L516 673 Q519 679 524.5 683.5 Q530 688 537 688 L568 688 Q575 688 576.5 683.5 Q578 679 575 673 Z " />
<glyph glyph-name="onesuperior" unicode="&#xb9;" horiz-adv-x="315" d="M55 806 L183 831 Q187 832 190.5 830.5 Q194 829 194 822 L194 503 L275 503 Q281 503 283.5 500 Q286 497 286 493 L286 466 Q286 460 283.5 458 Q281 456 275 456 L55 456 Q50 456 47.5 458 Q45 460 45 466 L45 493 Q45 497 47.5 500 Q50 503 55 503 L137 503 L137 776 L55 759 Q51 758 48 760.5 Q45 763 45 767 L45 794 Q45 799 48 802 Q51 805 55 806 Z " />
<glyph glyph-name="threequarters" unicode="&#xbe;" horiz-adv-x="746" d="M566 364 L497 157 L628 157 L628 364 Q628 369 630.5 371.5 Q633 374 638 374 L674 374 Q679 374 681.5 371.5 Q684 369 684 364 L684 10 Q684 5 681.5 2.5 Q679 0 674 0 L638 0 Q633 0 630.5 2.5 Q628 5 628 10 L628 111 L449 111 Q443 111 440.5 114 Q438 117 438 122 L438 140 Q438 145 438.5 149.5 Q439 154 440 156 L511 364 Q512 369 515 371.5 Q518 374 524 374 L558 374 Q564 374 565.5 371 Q567 368 566 364 Z M565 673 L253 7 Q249 -1 244 -4.5 Q239 -8 232 -8 L200 -8 Q193 -8 192 -2.5 Q191 3 193 7 L506 673 Q509 679 514.5 683.5 Q520 688 527 688 L558 688 Q565 688 566.5 683.5 Q568 679 565 673 Z M238 391 L238 434 Q238 457 224 469 Q210 481 173 481 L126 481 Q121 481 118.5 483 Q116 485 116 491 L116 513 Q116 517 118.5 519.5 Q121 522 126 522 L169 522 Q206 522 219.5 534.5 Q233 547 233 571 L233 595 Q233 617 220 629 Q207 641 171 641 Q134 641 120.5 629 Q107 617 107 595 L107 589 Q107 583 105 581 Q103 579 97 579 L62 579 Q56 579 54 581 Q52 583 52 589 L52 601 Q52 635 77.5 659.5 Q103 684 171 684 Q240 684 264.5 660.5 Q289 637 289 603 L289 563 Q289 541 279.5 526 Q270 511 242 502 Q272 495 283 478.5 Q294 462 294 440 L294 383 Q294 349 267 325.5 Q240 302 172 302 Q105 302 77.5 326.5 Q50 351 50 385 L50 398 Q50 404 52 406.5 Q54 409 59 409 L95 409 Q100 409 102.5 406.5 Q105 404 105 398 L105 391 Q105 369 120 357 Q135 345 172 345 Q209 345 223.5 357 Q238 369 238 391 Z " />
<glyph glyph-name="threesuperior" unicode="&#xb3;" horiz-adv-x="315" d="M221 541 L221 584 Q221 607 207 619 Q193 631 156 631 L109 631 Q104 631 101.5 633 Q99 635 99 641 L99 663 Q99 667 101.5 669.5 Q104 672 109 672 L152 672 Q189 672 202.5 684.5 Q216 697 216 721 L216 745 Q216 767 203 779 Q190 791 154 791 Q117 791 103.5 779 Q90 767 90 745 L90 739 Q90 733 88 731 Q86 729 80 729 L45 729 Q39 729 37 731 Q35 733 35 739 L35 751 Q35 785 60.5 809.5 Q86 834 154 834 Q223 834 247.5 810.5 Q272 787 272 753 L272 713 Q272 691 262.5 676 Q253 661 225 652 Q255 645 266 628.5 Q277 612 277 590 L277 533 Q277 499 250 475.5 Q223 452 155 452 Q88 452 60.5 476.5 Q33 501 33 535 L33 548 Q33 554 35 556.5 Q37 559 42 559 L78 559 Q83 559 85.5 556.5 Q88 554 88 548 L88 541 Q88 519 103 507 Q118 495 155 495 Q192 495 206.5 507 Q221 519 221 541 Z " />
<glyph glyph-name="twosuperior" unicode="&#xb2;" horiz-adv-x="315" d="M98 503 L271 503 Q276 503 278 500 Q280 497 280 493 L280 466 Q280 460 278 458 Q276 456 271 456 L51 456 Q46 456 43.5 458 Q41 460 41 466 L41 562 Q41 590 58.5 605 Q76 620 94 626 L188 657 Q198 661 210 668.5 Q222 676 222 695 L222 742 Q222 764 208 776.5 Q194 789 156 789 Q118 789 104.5 776.5 Q91 764 91 742 L91 719 Q91 714 88 711.5 Q85 709 81 709 L45 709 Q40 709 38 711.5 Q36 714 36 719 L36 748 Q36 782 63 808 Q90 834 159 834 Q229 834 253.5 808 Q278 782 278 748 L278 692 Q278 659 259 643 Q240 627 224 621 L128 588 Q113 583 105.5 577.5 Q98 572 98 557 L98 503 Z " />
<glyph glyph-name="brokenbar" unicode="&#xa6;" horiz-adv-x="237" d="M153 665 L153 329 Q153 322 149.5 318 Q146 314 139 314 L99 314 Q91 314 87.5 318 Q84 322 84 329 L84 665 Q84 672 87.5 676 Q91 680 99 680 L139 680 Q146 680 149.5 676 Q153 672 153 665 Z M153 140 L153 -196 Q153 -203 149.5 -207 Q146 -211 139 -211 L99 -211 Q91 -211 87.5 -207 Q84 -203 84 -196 L84 140 Q84 147 87.5 151 Q91 155 99 155 L139 155 Q146 155 149.5 151 Q153 147 153 140 Z " />
<glyph glyph-name="minus" unicode="&#x2212;" horiz-adv-x="588" d="M94 363 L494 363 Q501 363 505 359.5 Q509 356 509 348 L509 319 Q509 311 505 307.5 Q501 304 494 304 L94 304 Q87 304 83 307.5 Q79 311 79 319 L79 348 Q79 356 83 359.5 Q87 363 94 363 Z " />
<glyph glyph-name="multiply" unicode="&#xd7;" horiz-adv-x="459" d="M348 180 L230 297 L112 180 Q106 174 101 174 Q96 174 91 180 L71 201 Q65 207 65 212 Q65 217 71 222 L189 339 L71 457 Q66 462 65.5 466.5 Q65 471 70 476 L91 498 Q96 503 100.5 503 Q105 503 111 497 L230 380 L348 498 Q354 504 358 504 Q362 504 368 498 L389 477 Q394 472 394 467 Q394 462 388 456 L270 338 L388 221 Q394 215 394 210.5 Q394 206 388 200 L367 179 Q362 174 357.5 174.5 Q353 175 348 180 Z " />
<glyph glyph-name="space" unicode="&#x20;" horiz-adv-x="224" d="" />
<glyph glyph-name="exclam" unicode="&#x21;" horiz-adv-x="229" d="M151 390 L144 177 Q144 170 140.5 166 Q137 162 130 162 L100 162 Q93 162 89.5 166 Q86 170 86 177 L78 390 L78 665 Q78 672 81.5 676 Q85 680 93 680 L137 680 Q144 680 147.5 676 Q151 672 151 665 L151 390 Z M150 93 L150 15 Q150 7 146.5 3.5 Q143 0 136 0 L93 0 Q86 0 82.5 3.5 Q79 7 79 15 L79 93 Q79 100 82.5 104 Q86 108 93 108 L136 108 Q143 108 146.5 104 Q150 100 150 93 Z " />
<glyph glyph-name="quotedbl" unicode="&#x22;" horiz-adv-x="339" d="M268 494 Q268 486 264.5 482.5 Q261 479 253 479 L225 479 Q218 479 214.5 482.5 Q211 486 211 494 L205 665 Q205 672 208.5 676 Q212 680 219 680 L259 680 Q267 680 270.5 676 Q274 672 274 665 L268 494 Z M129 494 Q129 486 125.5 482.5 Q122 479 115 479 L86 479 Q79 479 75.5 482.5 Q72 486 72 494 L66 665 Q66 672 69.5 676 Q73 680 80 680 L121 680 Q128 680 131.5 676 Q135 672 135 665 L129 494 Z " />
<glyph glyph-name="numbersign" unicode="&#x23;" horiz-adv-x="582" d="M234 379 L203 270 L356 270 L387 379 L234 379 Z M63 270 L145 270 L175 379 L105 379 Q98 379 94 383 Q90 387 90 394 L90 417 Q90 424 94 427.5 Q98 431 105 431 L190 431 L217 527 Q218 534 223 538 Q228 542 235 542 L265 542 Q273 542 275 537.5 Q277 533 276 527 L249 431 L401 431 L428 527 Q430 534 434.5 538 Q439 542 446 542 L476 542 Q484 542 486 537.5 Q488 533 487 527 L460 431 L521 431 Q528 431 532 427.5 Q536 424 536 417 L536 394 Q536 387 532 383 Q528 379 521 379 L445 379 L415 270 L480 270 Q487 270 490.5 266.5 Q494 263 494 256 L494 234 Q494 227 490.5 223 Q487 219 480 219 L400 219 L374 125 Q372 118 368 113.5 Q364 109 357 109 L326 109 Q319 109 316 113.5 Q313 118 315 125 L342 219 L189 219 L163 125 Q161 118 156.5 113.5 Q152 109 145 109 L115 109 Q108 109 105 113.5 Q102 118 104 125 L130 219 L63 219 Q56 219 52.5 223 Q49 227 49 234 L49 256 Q49 263 52.5 266.5 Q56 270 63 270 Z " />
<glyph glyph-name="dollar" unicode="&#x24;" horiz-adv-x="477" d="M262 0 L221 0 Q214 0 210 4 Q206 8 206 15 L206 86 Q127 92 91.5 124.5 Q56 157 56 198 L56 225 Q56 232 59 235.5 Q62 239 69 239 L107 239 Q114 239 117 235.5 Q120 232 120 225 L120 201 Q120 171 150 154.5 Q180 138 237 138 Q294 138 324 154.5 Q354 171 354 201 L354 238 Q354 260 337.5 273 Q321 286 296 294 L142 345 Q116 354 90 379.5 Q64 405 64 442 L64 481 Q64 522 96 554.5 Q128 587 206 594 L206 665 Q206 672 210 676 Q214 680 221 680 L262 680 Q269 680 272.5 676 Q276 672 276 665 L276 593 Q349 586 380 553.5 Q411 521 411 481 L411 452 Q411 445 408 442 Q405 439 397 439 L361 439 Q354 439 351 442 Q348 445 348 452 L348 481 Q348 510 320.5 526.5 Q293 543 237 543 Q182 543 155 526.5 Q128 510 128 481 L128 455 Q128 432 145 418.5 Q162 405 178 400 L332 350 Q369 338 394 314 Q419 290 419 255 L419 198 Q419 158 385 126 Q351 94 276 87 L276 15 Q276 8 272.5 4 Q269 0 262 0 Z " />
<glyph glyph-name="percent" unicode="&#x25;" horiz-adv-x="741" d="M553 673 L241 7 Q237 -1 232 -4.5 Q227 -8 220 -8 L188 -8 Q181 -8 180 -2.5 Q179 3 181 7 L494 673 Q497 679 502.5 683.5 Q508 688 515 688 L546 688 Q553 688 554.5 683.5 Q556 679 553 673 Z M53 414 L53 597 Q53 632 79 658 Q105 684 176 684 Q247 684 273 658 Q299 632 299 597 L299 414 Q299 380 273 353.5 Q247 327 176 327 Q105 327 79 353.5 Q53 380 53 414 Z M242 422 L242 589 Q242 612 227.5 624.5 Q213 637 176 637 Q139 637 124 624.5 Q109 612 109 589 L109 422 Q109 400 124 387 Q139 374 176 374 Q213 374 227.5 387 Q242 400 242 422 Z M441 83 L441 266 Q441 300 467.5 326.5 Q494 353 565 353 Q636 353 662 326.5 Q688 300 688 266 L688 83 Q688 48 662 22 Q636 -4 565 -4 Q494 -4 467.5 22 Q441 48 441 83 Z M631 91 L631 258 Q631 281 616.5 293.5 Q602 306 565 306 Q528 306 513 293.5 Q498 281 498 258 L498 91 Q498 68 513 55.5 Q528 43 565 43 Q602 43 616.5 55.5 Q631 68 631 91 Z " />
<glyph glyph-name="ampersand" unicode="&#x26;" horiz-adv-x="649" d="M525 137 Q525 77 475 34.5 Q425 -8 297 -8 Q169 -8 119.5 33.5 Q70 75 70 135 L70 245 Q70 288 88.5 318 Q107 348 162 361 Q111 374 94 402 Q77 430 77 472 L77 545 Q77 605 116.5 646.5 Q156 688 274 688 Q393 688 433 645.5 Q473 603 473 543 L473 521 Q473 514 469.5 510.5 Q466 507 459 507 L418 507 Q411 507 407.5 510.5 Q404 514 404 521 L404 534 Q404 577 377 603 Q350 629 275 629 Q200 629 173.5 603 Q147 577 147 534 L147 482 Q147 438 172.5 413.5 Q198 389 277 389 L599 389 Q606 389 610 385.5 Q614 382 614 374 L614 344 Q614 337 610 333.5 Q606 330 599 330 L525 330 L525 137 Z M297 51 Q381 51 418.5 77 Q456 103 456 146 L456 330 L270 330 Q192 330 166 305.5 Q140 281 140 237 L140 146 Q140 103 177 77 Q214 51 297 51 Z " />
<glyph glyph-name="quotesingle" unicode="&#x27;" horiz-adv-x="200" d="M135 665 L129 494 Q129 486 125.5 482.5 Q122 479 115 479 L86 479 Q79 479 75.5 482.5 Q72 486 72 494 L66 665 Q66 672 69.5 676 Q73 680 80 680 L121 680 Q128 680 131.5 676 Q135 672 135 665 Z " />
<glyph glyph-name="parenleft" unicode="&#x28;" horiz-adv-x="312" d="M76 -89 L76 579 Q76 636 118 672 Q160 708 262 708 L269 708 Q276 708 280 704.5 Q284 701 284 693 L284 664 Q284 656 280 652.5 Q276 649 269 649 L262 649 Q196 649 171.5 628 Q147 607 147 572 L147 -82 Q147 -117 171.5 -138 Q196 -159 262 -159 L269 -159 Q276 -159 280 -162.5 Q284 -166 284 -174 L284 -203 Q284 -211 280 -214.5 Q276 -218 269 -218 L262 -218 Q160 -218 118 -182 Q76 -146 76 -89 Z " />
<glyph glyph-name="parenright" unicode="&#x29;" horiz-adv-x="311" d="M235 579 L235 -89 Q235 -146 193 -182 Q151 -218 48 -218 L43 -218 Q35 -218 31.5 -214.5 Q28 -211 28 -203 L28 -174 Q28 -166 31.5 -162.5 Q35 -159 43 -159 L48 -159 Q114 -159 139 -138 Q164 -117 164 -82 L164 572 Q164 607 139 628 Q114 649 48 649 L43 649 Q35 649 31.5 652.5 Q28 656 28 664 L28 693 Q28 701 31.5 704.5 Q35 708 43 708 L48 708 Q151 708 193 672 Q235 636 235 579 Z " />
<glyph glyph-name="asterisk" unicode="&#x2a;" horiz-adv-x="454" d="M217 350 Q210 350 206.5 354 Q203 358 203 365 L208 494 L96 422 Q90 418 85 419.5 Q80 421 76 428 L66 446 Q62 453 63.5 457.5 Q65 462 72 466 L184 527 L72 590 Q65 594 63.5 598 Q62 602 66 609 L76 629 Q80 636 85 637 Q90 638 96 634 L208 562 L203 695 Q203 703 206.5 706.5 Q210 710 218 710 L239 710 Q247 710 250 706 Q253 702 253 695 L248 562 L359 634 Q366 638 370.5 637 Q375 636 379 629 L389 609 Q392 603 391 598.5 Q390 594 383 590 L270 527 L383 466 Q390 462 391.5 457.5 Q393 453 389 446 L379 427 Q375 420 370.5 419 Q366 418 359 422 L248 493 L253 365 Q253 357 249.5 353.5 Q246 350 239 350 L217 350 Z " />
<glyph glyph-name="plus" unicode="&#x2b;" horiz-adv-x="512" d="M226 143 L226 309 L60 309 Q53 309 49.5 313 Q46 317 46 324 L46 354 Q46 362 49.5 365.5 Q53 369 60 369 L226 369 L226 534 Q226 542 229.5 546 Q233 550 240 550 L269 550 Q276 550 280 546 Q284 542 284 534 L284 369 L451 369 Q458 369 462 365.5 Q466 362 466 354 L466 324 Q466 317 462 313 Q458 309 451 309 L284 309 L284 143 Q284 136 280 132.5 Q276 129 269 129 L240 129 Q233 129 229.5 132.5 Q226 136 226 143 Z " />
<glyph glyph-name="comma" unicode="&#x2c;" horiz-adv-x="210" d="M71 32 L71 93 Q71 100 74.5 104 Q78 108 85 108 L128 108 Q135 108 138.5 104 Q142 100 142 93 L142 29 Q142 -15 117 -46.5 Q92 -78 41 -93 Q34 -95 30 -93 Q26 -91 23 -84 L13 -55 Q10 -48 12.5 -43.5 Q15 -39 22 -36 Q50 -24 60.5 -7.5 Q71 9 71 32 Z " />
<glyph glyph-name="hyphen" unicode="&#x2d;" horiz-adv-x="432" d="M82 318 L350 318 Q357 318 361 314.5 Q365 311 365 304 L365 275 Q365 267 361 263.5 Q357 260 350 260 L82 260 Q74 260 70.5 263.5 Q67 267 67 275 L67 304 Q67 311 70.5 314.5 Q74 318 82 318 Z " />
<glyph glyph-name="period" unicode="&#x2e;" horiz-adv-x="208" d="M139 93 L139 15 Q139 7 135.5 3.5 Q132 0 125 0 L84 0 Q76 0 72.5 3.5 Q69 7 69 15 L69 93 Q69 100 72.5 104 Q76 108 84 108 L125 108 Q132 108 135.5 104 Q139 100 139 93 Z " />
<glyph glyph-name="slash" unicode="&#x2f;" horiz-adv-x="355" d="M322 684 L107 -133 Q105 -140 101 -144 Q97 -148 89 -148 L44 -148 Q37 -148 34.5 -144 Q32 -140 33 -133 L249 684 Q251 691 255 695 Q259 699 266 699 L312 699 Q319 699 321.5 695 Q324 691 322 684 Z " />
<glyph glyph-name="zero" unicode="0" horiz-adv-x="564" d="M76 138 L76 542 Q76 602 118.5 645 Q161 688 281 688 Q402 688 445 645 Q488 602 488 542 L488 138 Q488 78 445 35 Q402 -8 281 -8 Q161 -8 118.5 35 Q76 78 76 138 Z M417 149 L417 531 Q417 574 388.5 600.5 Q360 627 281 627 Q203 627 175 600.5 Q147 574 147 531 L147 149 Q147 106 175 79.5 Q203 53 281 53 Q360 53 388.5 79.5 Q417 106 417 149 Z " />
<glyph glyph-name="one" unicode="1" horiz-adv-x="499" d="M70 631 L286 683 Q290 684 295 681.5 Q300 679 300 670 L300 61 L458 61 Q465 61 469 57.5 Q473 54 473 47 L473 15 Q473 7 469 3.5 Q465 0 458 0 L69 0 Q62 0 58 3.5 Q54 7 54 15 L54 47 Q54 54 58 57.5 Q62 61 69 61 L228 61 L228 607 L70 568 Q63 567 59 570 Q55 573 55 580 L55 614 Q55 621 59 625.5 Q63 630 70 631 Z " />
<glyph glyph-name="two" unicode="2" horiz-adv-x="540" d="M146 61 L461 61 Q468 61 471.5 57.5 Q475 54 475 47 L475 15 Q475 7 471.5 3.5 Q468 0 461 0 L90 0 Q83 0 79 3.5 Q75 7 75 15 L75 194 Q75 247 106 269.5 Q137 292 161 300 L344 360 Q358 364 380 380 Q402 396 402 430 L402 531 Q402 575 374.5 601.5 Q347 628 268 628 Q190 628 162.5 601.5 Q135 575 135 531 L135 485 Q135 477 131.5 473 Q128 469 121 469 L81 469 Q73 469 69.5 473 Q66 477 66 485 L66 542 Q66 602 106.5 645 Q147 688 268 688 Q389 688 431 645 Q473 602 473 542 L473 431 Q473 371 439.5 343 Q406 315 383 308 L213 254 Q191 247 168.5 234 Q146 221 146 188 L146 61 Z " />
<glyph glyph-name="three" unicode="3" horiz-adv-x="538" d="M177 389 L260 389 Q339 389 364.5 413.5 Q390 438 390 482 L390 534 Q390 577 364 603 Q338 629 263 629 Q187 629 160.5 603 Q134 577 134 534 L134 521 Q134 514 130 510.5 Q126 507 119 507 L79 507 Q71 507 68 510.5 Q65 514 65 521 L65 543 Q65 603 104.5 645.5 Q144 688 263 688 Q382 688 421.5 646.5 Q461 605 461 545 L461 472 Q461 430 443.5 402 Q426 374 374 361 Q430 348 448.5 318 Q467 288 467 245 L467 135 Q467 75 425 33.5 Q383 -8 264 -8 Q145 -8 102.5 34.5 Q60 77 60 137 L60 159 Q60 166 63.5 169.5 Q67 173 74 173 L115 173 Q122 173 125.5 169.5 Q129 166 129 159 L129 146 Q129 103 158 77 Q187 51 263 51 Q340 51 368.5 77 Q397 103 397 146 L397 237 Q397 281 371.5 305.5 Q346 330 267 330 L177 330 Q169 330 165.5 333.5 Q162 337 162 344 L162 374 Q162 382 165.5 385.5 Q169 389 177 389 Z " />
<glyph glyph-name="four" unicode="4" horiz-adv-x="530" d="M252 665 L112 276 L379 276 L379 665 Q379 672 382.5 676 Q386 680 394 680 L436 680 Q443 680 446.5 676 Q450 672 450 665 L450 15 Q450 8 446.5 4 Q443 0 436 0 L394 0 Q386 0 382.5 4 Q379 8 379 15 L379 215 L53 215 Q46 215 42 218.5 Q38 222 38 230 L38 259 Q38 264 39 267.5 Q40 271 41 275 L181 665 Q184 672 188 676 Q192 680 199 680 L242 680 Q249 680 251.5 676 Q254 672 252 665 Z " />
<glyph glyph-name="five" unicode="5" horiz-adv-x="523" d="M94 680 L428 680 Q435 680 439 676.5 Q443 673 443 665 L443 634 Q443 626 439 622.5 Q435 619 428 619 L151 619 L151 415 L259 415 Q360 415 410 378.5 Q460 342 460 281 L460 136 Q460 76 420.5 33.5 Q381 -9 261 -9 Q142 -9 102.5 33.5 Q63 76 63 136 L63 158 Q63 166 66.5 169.5 Q70 173 78 173 L118 173 Q125 173 129 169.5 Q133 166 133 158 L133 146 Q133 102 158 76.5 Q183 51 261 51 Q339 51 364 76.5 Q389 102 389 146 L389 272 Q389 304 362 330 Q335 356 258 356 L94 356 Q87 356 83.5 359.5 Q80 363 80 371 L80 665 Q80 672 83.5 676 Q87 680 94 680 Z " />
<glyph glyph-name="six" unicode="6" horiz-adv-x="546" d="M76 138 L76 547 Q76 599 115.5 643.5 Q155 688 276 688 Q396 688 435 643 Q474 598 474 547 L474 529 Q474 522 470 518 Q466 514 459 514 L419 514 Q411 514 407.5 518 Q404 522 404 529 L404 538 Q404 574 379 601.5 Q354 629 276 629 Q198 629 172 602 Q146 575 146 538 L146 355 Q162 377 196 391 Q230 405 286 405 Q400 405 440.5 362 Q481 319 481 259 L481 138 Q481 78 440 35 Q399 -8 278 -8 Q157 -8 116.5 35 Q76 78 76 138 Z M410 147 L410 250 Q410 293 383.5 319.5 Q357 346 278 346 Q203 346 174.5 322 Q146 298 146 258 L146 147 Q146 104 173 77.5 Q200 51 278 51 Q357 51 383.5 77.5 Q410 104 410 147 Z " />
<glyph glyph-name="seven" unicode="7" horiz-adv-x="498" d="M46 680 L456 680 Q463 680 466.5 676.5 Q470 673 470 665 L470 635 Q470 631 469 627.5 Q468 624 467 622 L211 15 Q209 9 204.5 4.5 Q200 0 193 0 L144 0 Q135 0 132.5 4 Q130 8 133 15 L389 619 L46 619 Q38 619 34 622.5 Q30 626 30 634 L30 665 Q30 673 34 676.5 Q38 680 46 680 Z " />
<glyph glyph-name="eight" unicode="8" horiz-adv-x="543" d="M78 477 L78 542 Q78 602 114.5 645 Q151 688 271 688 Q392 688 429 645 Q466 602 466 542 L466 477 Q466 435 447.5 405 Q429 375 375 362 Q431 349 452 318.5 Q473 288 473 246 L473 138 Q473 78 432.5 35 Q392 -8 271 -8 Q151 -8 110.5 35 Q70 78 70 138 L70 246 Q70 288 91 318.5 Q112 349 168 362 Q115 375 96.5 405 Q78 435 78 477 Z M396 487 L396 533 Q396 576 372.5 602.5 Q349 629 271 629 Q193 629 170 602.5 Q147 576 147 533 L147 487 Q147 443 170 416.5 Q193 390 271 390 Q349 390 372.5 416.5 Q396 443 396 487 Z M403 147 L403 236 Q403 280 376.5 306 Q350 332 271 332 Q193 332 166.5 306 Q140 280 140 236 L140 147 Q140 104 166.5 77.5 Q193 51 271 51 Q350 51 376.5 77.5 Q403 104 403 147 Z " />
<glyph glyph-name="nine" unicode="9" horiz-adv-x="546" d="M400 533 Q400 576 373.5 602.5 Q347 629 269 629 Q190 629 163 602.5 Q136 576 136 533 L136 430 Q136 387 163 360.5 Q190 334 269 334 Q344 334 372 358.5 Q400 383 400 425 L400 533 Z M471 542 L471 133 Q471 81 431.5 36.5 Q392 -8 271 -8 Q151 -8 112.5 37 Q74 82 74 133 L74 151 Q74 158 77.5 162 Q81 166 88 166 L129 166 Q136 166 139.5 162 Q143 158 143 151 L143 142 Q143 106 168 78.5 Q193 51 271 51 Q349 51 374.5 78 Q400 105 400 142 L400 324 Q384 302 350.5 288.5 Q317 275 260 275 Q147 275 106.5 318 Q66 361 66 421 L66 542 Q66 602 106.5 645 Q147 688 269 688 Q390 688 430.5 645 Q471 602 471 542 Z " />
<glyph glyph-name="colon" unicode="&#x3a;" horiz-adv-x="218" d="M144 479 L144 400 Q144 393 140.5 389.5 Q137 386 130 386 L89 386 Q82 386 78 389.5 Q74 393 74 400 L74 479 Q74 486 78 490 Q82 494 89 494 L130 494 Q137 494 140.5 490 Q144 486 144 479 Z M144 93 L144 15 Q144 7 140.5 3.5 Q137 0 130 0 L89 0 Q82 0 78 3.5 Q74 7 74 15 L74 93 Q74 100 78 104 Q82 108 89 108 L130 108 Q137 108 140.5 104 Q144 100 144 93 Z " />
<glyph glyph-name="semicolon" unicode="&#x3b;" horiz-adv-x="244" d="M163 479 L163 400 Q163 393 159.5 389.5 Q156 386 149 386 L107 386 Q99 386 95.5 389.5 Q92 393 92 400 L92 479 Q92 486 95.5 490 Q99 494 107 494 L149 494 Q156 494 159.5 490 Q163 486 163 479 Z M92 32 L92 93 Q92 100 95.5 104 Q99 108 107 108 L149 108 Q156 108 159.5 104 Q163 100 163 93 L163 29 Q163 -15 138 -46.5 Q113 -78 62 -93 Q55 -95 51 -93 Q47 -91 44 -84 L33 -55 Q30 -48 33 -43.5 Q36 -39 43 -36 Q72 -24 82 -7.5 Q92 9 92 32 Z " />
<glyph glyph-name="less" unicode="&#x3c;" horiz-adv-x="500" d="M411 469 L114 340 L411 211 Q418 208 422 205 Q426 202 426 195 L426 155 Q426 147 422 143 Q418 139 411 142 L59 301 Q53 304 49 307 Q45 310 45 318 L45 363 Q45 370 49 373 Q53 376 59 379 L411 538 Q418 541 422 537 Q426 533 426 525 L426 485 Q426 478 422 475 Q418 472 411 469 Z " />
<glyph glyph-name="equal" unicode="&#x3d;" horiz-adv-x="583" d="M92 450 L492 450 Q499 450 502.5 446.5 Q506 443 506 436 L506 406 Q506 398 502.5 394.5 Q499 391 492 391 L92 391 Q85 391 81 394.5 Q77 398 77 406 L77 436 Q77 443 81 446.5 Q85 450 92 450 Z M92 271 L492 271 Q499 271 502.5 267.5 Q506 264 506 257 L506 227 Q506 220 502.5 216.5 Q499 213 492 213 L92 213 Q85 213 81 216.5 Q77 220 77 227 L77 257 Q77 264 81 267.5 Q85 271 92 271 Z " />
<glyph glyph-name="greater" unicode="&#x3e;" horiz-adv-x="496" d="M383 340 L85 468 Q78 471 74.5 474.5 Q71 478 71 485 L71 526 Q71 534 74.5 538 Q78 542 85 539 L438 380 Q444 377 447.5 373.5 Q451 370 451 363 L451 317 Q451 309 447.5 306 Q444 303 438 300 L85 141 Q78 138 74.5 142 Q71 146 71 154 L71 195 Q71 203 74.5 206 Q78 209 85 212 L383 340 Z " />
<glyph glyph-name="question" unicode="&#x3f;" horiz-adv-x="506" d="M202 177 L202 255 Q202 300 226 321 Q250 342 267 351 L338 387 Q350 393 369 411.5 Q388 430 388 464 L388 531 Q388 575 357.5 601.5 Q327 628 249 628 Q171 628 141 601.5 Q111 575 111 531 L111 485 Q111 477 107.5 473 Q104 469 97 469 L57 469 Q49 469 45.5 473 Q42 477 42 485 L42 542 Q42 602 85.5 645 Q129 688 249 688 Q370 688 414.5 645 Q459 602 459 542 L459 466 Q459 407 429 377 Q399 347 376 336 L322 310 Q306 302 289.5 286 Q273 270 273 239 L273 177 Q273 170 269.5 166 Q266 162 259 162 L216 162 Q209 162 205.5 166 Q202 170 202 177 Z M273 93 L273 15 Q273 7 269.5 3.5 Q266 0 259 0 L216 0 Q209 0 205.5 3.5 Q202 7 202 15 L202 93 Q202 100 205.5 104 Q209 108 216 108 L259 108 Q266 108 269.5 104 Q273 100 273 93 Z " />
<glyph glyph-name="at" unicode="&#x40;" horiz-adv-x="820" d="M593 -122 L410 -122 Q202 -122 138 -68 Q74 -14 74 55 L74 449 Q74 518 138 571 Q202 624 410 624 Q617 624 681.5 571 Q746 518 746 449 L746 165 Q746 107 716.5 70 Q687 33 615 33 Q568 33 540.5 50.5 Q513 68 503 97 Q484 81 441.5 57 Q399 33 342 33 Q274 33 247 68.5 Q220 104 226 161 L243 330 Q249 388 280 423 Q311 458 379 458 Q426 458 462.5 438 Q499 418 521 402 L525 436 Q526 443 530 446.5 Q534 450 542 450 L577 450 Q584 450 587 446.5 Q590 443 589 436 L563 177 Q559 138 571 112 Q583 86 619 86 Q653 86 665.5 111 Q678 136 678 173 L678 446 Q678 500 624 533.5 Q570 567 410 567 Q250 567 195.5 533.5 Q141 500 141 446 L141 57 Q141 4 195.5 -30 Q250 -64 410 -64 L593 -64 Q600 -64 604 -67.5 Q608 -71 608 -78 L608 -107 Q608 -114 604 -118 Q600 -122 593 -122 Z M309 318 L294 171 Q290 136 307 117 Q324 98 369 98 Q409 98 443.5 116.5 Q478 135 494 145 Q494 148 493.5 152 Q493 156 494 160 L513 345 Q498 358 469 377 Q440 396 397 396 Q349 396 331 374 Q313 352 309 318 Z " />
<glyph glyph-name="A" unicode="A" horiz-adv-x="531" d="M363 250 L291 484 Q281 515 274 553.5 Q267 592 265 607 Q263 594 255 551.5 Q247 509 240 486 L166 250 L363 250 Z M245 680 L288 680 Q296 680 300.5 676 Q305 672 307 665 L506 15 Q508 8 505 4 Q502 0 495 0 L451 0 Q444 0 440 4 Q436 8 434 15 L379 193 L150 193 L96 15 Q94 8 90 4 Q86 0 78 0 L38 0 Q31 0 28 4 Q25 8 27 15 L226 665 Q228 672 233 676 Q238 680 245 680 Z " />
<glyph glyph-name="B" unicode="B" horiz-adv-x="581" d="M304 0 L105 0 Q98 0 94.5 4 Q91 8 91 15 L91 665 Q91 672 94.5 676 Q98 680 105 680 L277 680 Q400 680 446.5 639.5 Q493 599 493 540 L493 474 Q493 434 472.5 403 Q452 372 403 356 Q463 343 492 311 Q521 279 521 233 L521 144 Q521 84 474.5 42 Q428 0 304 0 Z M277 621 L161 621 L161 378 L287 378 Q359 378 391 405 Q423 432 423 475 L423 529 Q423 573 389.5 597 Q356 621 277 621 Z M304 322 L161 322 L161 59 L304 59 Q384 59 417 85.5 Q450 112 450 155 L450 229 Q450 270 417 296 Q384 322 304 322 Z " />
<glyph glyph-name="C" unicode="C" horiz-adv-x="552" d="M501 202 L501 138 Q501 78 457 35 Q413 -8 290 -8 Q167 -8 123 35 Q79 78 79 138 L79 542 Q79 602 123 645 Q167 688 290 688 Q413 688 457 645 Q501 602 501 542 L501 491 Q501 483 497.5 479 Q494 475 487 475 L447 475 Q439 475 435.5 479 Q432 483 432 491 L432 531 Q432 574 401 600.5 Q370 627 291 627 Q212 627 181 600.5 Q150 574 150 531 L150 149 Q150 106 181 79.5 Q212 53 291 53 Q370 53 401 79.5 Q432 106 432 149 L432 202 Q432 209 435.5 213 Q439 217 447 217 L487 217 Q494 217 497.5 213 Q501 209 501 202 Z " />
<glyph glyph-name="D" unicode="D" horiz-adv-x="601" d="M306 0 L103 0 Q96 0 93.5 4 Q91 8 91 15 L91 665 Q91 672 94 676 Q97 680 104 680 L306 680 Q429 680 476 637 Q523 594 523 534 L523 146 Q523 86 476 43 Q429 0 306 0 Z M306 619 L161 619 L161 61 L306 61 Q386 61 419 87.5 Q452 114 452 157 L452 523 Q452 566 419 592.5 Q386 619 306 619 Z " />
<glyph glyph-name="E" unicode="E" horiz-adv-x="521" d="M458 0 L104 0 Q97 0 94 4 Q91 8 91 15 L91 665 Q91 672 94.5 676 Q98 680 105 680 L446 680 Q453 680 457 676.5 Q461 673 461 665 L461 634 Q461 626 457 622.5 Q453 619 446 619 L161 619 L161 386 L428 386 Q436 386 439.5 382.5 Q443 379 443 371 L443 342 Q443 334 439.5 330.5 Q436 327 428 327 L161 327 L161 61 L458 61 Q465 61 469 57.5 Q473 54 473 47 L473 15 Q473 7 469 3.5 Q465 0 458 0 Z " />
<glyph glyph-name="F" unicode="F" horiz-adv-x="531" d="M105 680 L472 680 Q479 680 483 676.5 Q487 673 487 665 L487 634 Q487 626 483 622.5 Q479 619 472 619 L161 619 L161 385 L454 385 Q461 385 464.5 381 Q468 377 468 370 L468 338 Q468 331 464.5 327 Q461 323 454 323 L161 323 L161 15 Q161 8 158 4 Q155 0 147 0 L105 0 Q98 0 94.5 4 Q91 8 91 15 L91 665 Q91 672 94.5 676 Q98 680 105 680 Z " />
<glyph glyph-name="G" unicode="G" horiz-adv-x="573" d="M298 327 L486 327 Q494 327 497.5 323.5 Q501 320 501 313 L501 138 Q501 78 457 35 Q413 -8 290 -8 Q167 -8 123 35 Q79 78 79 138 L79 542 Q79 602 123 645 Q167 688 290 688 Q413 688 457 645 Q501 602 501 542 L501 494 Q501 487 497.5 483.5 Q494 480 487 480 L447 480 Q439 480 435.5 483.5 Q432 487 432 494 L432 531 Q432 574 401 600.5 Q370 627 291 627 Q212 627 181 600.5 Q150 574 150 531 L150 149 Q150 106 181 79.5 Q212 53 291 53 Q369 53 400.5 79 Q432 105 432 148 L432 266 L298 266 Q291 266 287.5 270 Q284 274 284 281 L284 313 Q284 320 287.5 323.5 Q291 327 298 327 Z " />
<glyph glyph-name="H" unicode="H" horiz-adv-x="614" d="M161 665 L161 390 L452 390 L452 665 Q452 672 455.5 676 Q459 680 466 680 L509 680 Q516 680 519.5 676 Q523 672 523 665 L523 15 Q523 8 519.5 4 Q516 0 509 0 L466 0 Q459 0 455.5 4 Q452 8 452 15 L452 330 L161 330 L161 15 Q161 8 158 4 Q155 0 147 0 L105 0 Q98 0 94.5 4 Q91 8 91 15 L91 665 Q91 672 94.5 676 Q98 680 105 680 L147 680 Q155 680 158 676 Q161 672 161 665 Z " />
<glyph glyph-name="I" unicode="I" horiz-adv-x="252" d="M161 665 L161 15 Q161 8 158 4 Q155 0 147 0 L105 0 Q98 0 94.5 4 Q91 8 91 15 L91 665 Q91 672 94.5 676 Q98 680 105 680 L147 680 Q155 680 158 676 Q161 672 161 665 Z " />
<glyph glyph-name="J" unicode="J" horiz-adv-x="498" d="M99 183 L99 149 Q99 106 124 79.5 Q149 53 220 53 Q292 53 316 79.5 Q340 106 340 149 L340 665 Q340 672 343.5 676 Q347 680 354 680 L396 680 Q404 680 407.5 676 Q411 672 411 665 L411 138 Q411 78 372 35 Q333 -8 220 -8 Q107 -8 68 35 Q29 78 29 138 L29 183 Q29 191 32.5 195 Q36 199 44 199 L85 199 Q92 199 95.5 195 Q99 191 99 183 Z " />
<glyph glyph-name="K" unicode="K" horiz-adv-x="548" d="M252 345 L529 15 Q533 10 531 5 Q529 0 522 0 L466 0 Q458 0 452.5 4.5 Q447 9 442 15 L191 313 L161 313 L161 15 Q161 8 158 4 Q155 0 147 0 L105 0 Q97 0 93.5 4 Q90 8 90 15 L90 665 Q90 672 93.5 676 Q97 680 105 680 L147 680 Q155 680 158 676 Q161 672 161 665 L161 367 L191 367 L422 666 Q426 671 432.5 675.5 Q439 680 446 680 L494 680 Q501 680 503 675.5 Q505 671 501 665 L252 345 Z " />
<glyph glyph-name="L" unicode="L" horiz-adv-x="475" d="M162 665 L162 61 L442 61 Q449 61 452.5 57.5 Q456 54 456 47 L456 15 Q456 7 452.5 3.5 Q449 0 442 0 L103 0 Q97 0 94 4 Q91 8 91 15 L91 665 Q91 672 94.5 676 Q98 680 105 680 L148 680 Q155 680 158.5 676 Q162 672 162 665 Z " />
<glyph glyph-name="M" unicode="M" horiz-adv-x="726" d="M636 665 L636 15 Q636 8 632.5 4 Q629 0 621 0 L581 0 Q573 0 569.5 4 Q566 8 566 15 L566 531 Q563 518 557 499.5 Q551 481 546 469 L401 119 Q398 112 393 108 Q388 104 381 104 L344 104 Q337 104 332.5 108 Q328 112 325 119 L174 478 Q171 485 166 499.5 Q161 514 157 530 L157 15 Q157 8 153.5 4 Q150 0 143 0 L105 0 Q97 0 93.5 4 Q90 8 90 15 L90 665 Q90 672 93.5 676 Q97 680 105 680 L143 680 Q148 680 151.5 678 Q155 676 156 672 L345 230 Q349 220 354 206.5 Q359 193 363 178 Q366 187 372 203.5 Q378 220 382 229 L567 672 Q568 676 572 678 Q576 680 581 680 L621 680 Q629 680 632.5 676 Q636 672 636 665 Z " />
<glyph glyph-name="N" unicode="N" horiz-adv-x="613" d="M522 665 L522 15 Q522 8 519 4 Q516 0 508 0 L470 0 Q465 0 461.5 1.5 Q458 3 456 7 L191 477 Q183 491 173.5 509.5 Q164 528 157 543 L157 15 Q157 8 153.5 4 Q150 0 143 0 L105 0 Q97 0 93.5 4 Q90 8 90 15 L90 665 Q90 672 93.5 676 Q97 680 105 680 L143 680 Q148 680 151 678.5 Q154 677 155 674 L426 197 Q436 180 444.5 162 Q453 144 456 137 L456 665 Q456 672 459.5 676 Q463 680 470 680 L508 680 Q516 680 519 676 Q522 672 522 665 Z " />
<glyph glyph-name="O" unicode="O" horiz-adv-x="591" d="M79 138 L79 542 Q79 602 126 645 Q173 688 295 688 Q419 688 465.5 645 Q512 602 512 542 L512 138 Q512 78 465.5 35 Q419 -8 295 -8 Q173 -8 126 35 Q79 78 79 138 Z M441 149 L441 531 Q441 574 407.5 600.5 Q374 627 295 627 Q217 627 183.5 600.5 Q150 574 150 531 L150 149 Q150 106 183.5 79.5 Q217 53 295 53 Q374 53 407.5 79.5 Q441 106 441 149 Z " />
<glyph glyph-name="P" unicode="P" horiz-adv-x="568" d="M302 262 L161 262 L161 15 Q161 8 158 4 Q155 0 147 0 L105 0 Q98 0 94.5 4 Q91 8 91 15 L91 665 Q91 672 94 676 Q97 680 104 680 L302 680 Q426 680 472.5 637 Q519 594 519 534 L519 409 Q519 349 472.5 305.5 Q426 262 302 262 Z M302 619 L161 619 L161 323 L302 323 Q382 323 415 350 Q448 377 448 420 L448 523 Q448 566 415 592.5 Q382 619 302 619 Z " />
<glyph glyph-name="Q" unicode="Q" horiz-adv-x="591" d="M477 -170 Q473 -174 467.5 -174.5 Q462 -175 457 -171 L280 -8 Q167 -5 123 37.5 Q79 80 79 138 L79 542 Q79 602 126 645 Q173 688 295 688 Q419 688 465.5 645 Q512 602 512 542 L512 138 Q512 87 479.5 47.5 Q447 8 363 -4 L497 -126 Q503 -131 503.5 -136 Q504 -141 499 -147 L477 -170 Z M441 148 L441 532 Q441 576 407.5 602.5 Q374 629 295 629 Q217 629 183.5 602.5 Q150 576 150 532 L150 148 Q150 104 183.5 77.5 Q217 51 295 51 Q374 51 407.5 77.5 Q441 104 441 148 Z " />
<glyph glyph-name="R" unicode="R" horiz-adv-x="586" d="M302 619 L161 619 L161 337 L302 337 Q382 337 415 363.5 Q448 390 448 434 L448 523 Q448 566 415 592.5 Q382 619 302 619 Z M161 15 Q161 8 158 4 Q155 0 147 0 L105 0 Q98 0 94.5 4 Q91 8 91 15 L91 665 Q91 672 94 676 Q97 680 104 680 L302 680 Q426 680 472.5 637 Q519 594 519 534 L519 422 Q519 376 491.5 339 Q464 302 395 286 L525 15 Q528 8 523.5 4 Q519 0 511 0 L465 0 Q457 0 453.5 4 Q450 8 447 15 L323 277 L161 277 L161 15 Z " />
<glyph glyph-name="S" unicode="S" horiz-adv-x="552" d="M413 495 L413 533 Q413 576 383.5 602 Q354 628 276 628 Q198 628 168 602 Q138 576 138 533 L138 503 Q138 466 157.5 449 Q177 432 196 425 L384 354 Q424 339 456 307.5 Q488 276 488 224 L488 138 Q488 78 441.5 35 Q395 -8 274 -8 Q153 -8 106.5 35 Q60 78 60 138 L60 193 Q60 201 63.5 204.5 Q67 208 74 208 L115 208 Q122 208 125.5 204.5 Q129 201 129 193 L129 147 Q129 104 161.5 78 Q194 52 273 52 Q353 52 385.5 78 Q418 104 418 147 L418 209 Q418 248 391 267 Q364 286 335 297 L156 366 Q125 378 97 409 Q69 440 69 486 L69 542 Q69 602 112.5 645 Q156 688 275 688 Q394 688 438.5 645 Q483 602 483 542 L483 495 Q483 488 479.5 484 Q476 480 468 480 L427 480 Q420 480 416.5 484 Q413 488 413 495 Z " />
<glyph glyph-name="T" unicode="T" horiz-adv-x="489" d="M36 680 L453 680 Q460 680 464 676.5 Q468 673 468 665 L468 634 Q468 626 464 622.5 Q460 619 453 619 L280 619 L280 15 Q280 8 276.5 4 Q273 0 266 0 L223 0 Q216 0 212.5 4 Q209 8 209 15 L209 619 L36 619 Q29 619 25.5 622.5 Q22 626 22 634 L22 665 Q22 673 25.5 676.5 Q29 680 36 680 Z " />
<glyph glyph-name="U" unicode="U" horiz-adv-x="607" d="M158 665 L158 149 Q158 106 191.5 79.5 Q225 53 303 53 Q382 53 415.5 79.5 Q449 106 449 149 L449 665 Q449 672 452.5 676 Q456 680 464 680 L506 680 Q514 680 517 676 Q520 672 520 665 L520 138 Q520 78 473.5 35 Q427 -8 303 -8 Q181 -8 134 35 Q87 78 87 138 L87 665 Q87 672 91 676 Q95 680 102 680 L144 680 Q151 680 154.5 676 Q158 672 158 665 Z " />
<glyph glyph-name="V" unicode="V" horiz-adv-x="531" d="M288 0 L245 0 Q238 0 233 4 Q228 8 226 15 L27 665 Q25 672 28 676 Q31 680 38 680 L85 680 Q92 680 96 676 Q100 672 102 665 L245 196 Q250 179 256.5 148.5 Q263 118 267 90 Q269 108 276.5 140.5 Q284 173 291 194 L435 665 Q437 672 441 676 Q445 680 452 680 L495 680 Q502 680 505 676 Q508 672 506 665 L307 15 Q305 8 300.5 4 Q296 0 288 0 Z " />
<glyph glyph-name="W" unicode="W" horiz-adv-x="816" d="M449 665 L568 195 Q572 176 577.5 151.5 Q583 127 584 115 Q585 127 590.5 151.5 Q596 176 600 195 L720 665 Q722 672 726 676 Q730 680 738 680 L775 680 Q782 680 785 676 Q788 672 786 665 L622 15 Q620 8 615 4 Q610 0 603 0 L561 0 Q554 0 550 4 Q546 8 544 15 L422 493 Q419 505 414.5 528 Q410 551 409 564 Q408 551 403 528 Q398 505 395 492 L274 15 Q272 8 267.5 4 Q263 0 255 0 L213 0 Q206 0 202 4 Q198 8 196 15 L31 665 Q29 672 32 676 Q35 680 43 680 L86 680 Q93 680 97 676 Q101 672 103 665 L222 195 Q226 180 231.5 155 Q237 130 238 121 Q239 130 244.5 154.5 Q250 179 254 195 L375 665 Q377 672 381 676 Q385 680 392 680 L432 680 Q439 680 443 676 Q447 672 449 665 Z " />
<glyph glyph-name="X" unicode="X" horiz-adv-x="532" d="M306 345 L502 15 Q506 9 504 4.5 Q502 0 494 0 L444 0 Q436 0 431 4.5 Q426 9 422 15 L263 283 L110 15 Q106 9 101 4.5 Q96 0 88 0 L42 0 Q35 0 33 5 Q31 10 35 17 L226 347 L39 664 Q35 670 36.5 675 Q38 680 45 680 L95 680 Q103 680 108 676 Q113 672 117 665 L271 406 L418 665 Q422 672 427 676 Q432 680 439 680 L485 680 Q493 680 494.5 676 Q496 672 492 665 L306 345 Z " />
<glyph glyph-name="Y" unicode="Y" horiz-adv-x="522" d="M102 665 L249 375 Q252 369 256 358 Q260 347 263 337 Q265 344 269.5 354.5 Q274 365 279 375 L430 665 Q433 671 437 675.5 Q441 680 448 680 L490 680 Q497 680 501 676 Q505 672 501 665 L299 277 L299 15 Q299 8 295.5 4 Q292 0 285 0 L242 0 Q235 0 231.5 4 Q228 8 228 15 L228 269 L25 665 Q21 672 24.5 676 Q28 680 36 680 L83 680 Q91 680 95 676 Q99 672 102 665 Z " />
<glyph glyph-name="Z" unicode="Z" horiz-adv-x="482" d="M67 680 L416 680 Q424 680 428 676.5 Q432 673 432 665 L432 634 Q432 630 431 627.5 Q430 625 429 623 L120 61 L432 61 Q439 61 443 57.5 Q447 54 447 47 L447 15 Q447 7 443 3.5 Q439 0 432 0 L49 0 Q42 0 38.5 3.5 Q35 7 35 15 L35 47 Q35 49 35.5 52 Q36 55 37 57 L344 619 L67 619 Q60 619 56 622.5 Q52 626 52 634 L52 665 Q52 673 56 676.5 Q60 680 67 680 Z " />
<glyph glyph-name="bracketleft" unicode="&#x5b;" horiz-adv-x="322" d="M79 -196 L79 684 Q79 692 82.5 695.5 Q86 699 93 699 L280 699 Q287 699 290.5 695.5 Q294 692 294 684 L294 653 Q294 645 290.5 641.5 Q287 638 280 638 L150 638 L150 -150 L280 -150 Q287 -150 290.5 -153.5 Q294 -157 294 -165 L294 -196 Q294 -204 290.5 -207.5 Q287 -211 280 -211 L93 -211 Q86 -211 82.5 -207.5 Q79 -204 79 -196 Z " />
<glyph glyph-name="backslash" unicode="&#x5c;" horiz-adv-x="355" d="M250 -133 L34 684 Q32 691 35 695 Q38 699 45 699 L90 699 Q98 699 102 695 Q106 691 108 684 L323 -133 Q324 -140 321.5 -144 Q319 -148 313 -148 L267 -148 Q260 -148 256 -144 Q252 -140 250 -133 Z " />
<glyph glyph-name="bracketright" unicode="&#x5d;" horiz-adv-x="321" d="M242 684 L242 -196 Q242 -204 238.5 -207.5 Q235 -211 228 -211 L42 -211 Q34 -211 30.5 -207.5 Q27 -204 27 -196 L27 -165 Q27 -157 30.5 -153.5 Q34 -150 42 -150 L171 -150 L171 638 L42 638 Q34 638 30.5 641.5 Q27 645 27 653 L27 684 Q27 692 30.5 695.5 Q34 699 42 699 L228 699 Q235 699 238.5 695.5 Q242 692 242 684 Z " />
<glyph glyph-name="asciicircum" unicode="&#x5e;" horiz-adv-x="490" d="M376 314 L246 610 L118 314 Q115 307 112 302.5 Q109 298 102 298 L61 298 Q54 298 50 302.5 Q46 307 49 314 L207 666 Q210 673 213.5 676.5 Q217 680 224 680 L269 680 Q276 680 279 676 Q282 672 285 666 L445 314 Q448 307 443.5 302.5 Q439 298 432 298 L392 298 Q385 298 382 302.5 Q379 307 376 314 Z " />
<glyph glyph-name="underscore" unicode="&#x5f;" horiz-adv-x="388" d="M15 -85 L373 -85 Q380 -85 384 -88.5 Q388 -92 388 -99 L388 -129 Q388 -136 384 -139.5 Q380 -143 373 -143 L15 -143 Q8 -143 4 -139.5 Q0 -136 0 -129 L0 -99 Q0 -92 4 -88.5 Q8 -85 15 -85 Z " />
<glyph glyph-name="grave" unicode="&#x60;" horiz-adv-x="331" d="M174 577 L95 693 Q91 699 92.5 703.5 Q94 708 102 708 L146 708 Q154 708 158 704 Q162 700 166 694 L233 582 Q237 575 234.5 571.5 Q232 568 226 568 L192 568 Q185 568 180.5 571 Q176 574 174 577 Z " />
<glyph glyph-name="a" unicode="a" horiz-adv-x="500" d="M210 50 Q264 50 302 71.5 Q340 93 357 106 L357 223 L199 223 Q158 223 140.5 203.5 Q123 184 123 151 L123 119 Q123 86 143.5 68 Q164 50 210 50 Z M65 358 L65 375 Q65 431 105 466.5 Q145 502 245 502 Q347 502 386 466.5 Q425 431 425 375 L425 15 Q425 8 421.5 4 Q418 0 411 0 L376 0 Q368 0 365 4 Q362 8 361 15 L359 51 Q337 34 295 13 Q253 -8 194 -8 Q124 -8 89.5 26.5 Q55 61 55 110 L55 160 Q55 209 88 243.5 Q121 278 185 278 L357 278 L357 368 Q357 402 334 423.5 Q311 445 244 445 Q178 445 154 424.5 Q130 404 130 370 L130 358 Q130 350 126.5 346 Q123 342 115 342 L79 342 Q72 342 68.5 346 Q65 350 65 358 Z " />
<glyph glyph-name="b" unicode="b" horiz-adv-x="524" d="M129 0 L92 0 Q85 0 81.5 4 Q78 8 78 15 L78 684 Q78 691 81.5 695 Q85 699 92 699 L133 699 Q140 699 143.5 695 Q147 691 147 684 L147 443 Q169 459 211 480.5 Q253 502 316 502 Q388 502 421.5 466.5 Q455 431 455 374 L455 120 Q455 63 421.5 27.5 Q388 -8 316 -8 Q252 -8 209.5 13.5 Q167 35 145 52 L143 15 Q142 8 139 4 Q136 0 129 0 Z M385 130 L385 364 Q385 395 365.5 417 Q346 439 297 439 Q241 439 202 417 Q163 395 147 382 L147 111 Q163 98 202 76.5 Q241 55 297 55 Q346 55 365.5 77 Q385 99 385 130 Z " />
<glyph glyph-name="c" unicode="c" horiz-adv-x="481" d="M251 502 Q353 502 392.5 466 Q432 430 432 373 L432 354 Q432 347 428.5 343 Q425 339 418 339 L381 339 Q373 339 369.5 343 Q366 347 366 354 L366 369 Q366 403 342 424 Q318 445 251 445 Q185 445 161.5 424 Q138 403 138 369 L138 126 Q138 91 161.5 70 Q185 49 251 49 Q318 49 342 70 Q366 91 366 126 L366 148 Q366 156 369.5 159.5 Q373 163 381 163 L418 163 Q425 163 428.5 159.5 Q432 156 432 148 L432 121 Q432 64 392 28 Q352 -8 250 -8 Q148 -8 108.5 28 Q69 64 69 121 L69 373 Q69 430 109 466 Q149 502 251 502 Z " />
<glyph glyph-name="d" unicode="d" horiz-adv-x="524" d="M138 364 L138 130 Q138 99 158 77 Q178 55 227 55 Q281 55 321 76.5 Q361 98 377 111 L377 382 Q361 395 321 417 Q281 439 227 439 Q178 439 158 417 Q138 395 138 364 Z M380 15 L378 52 Q356 35 313.5 13.5 Q271 -8 208 -8 Q136 -8 102.5 27.5 Q69 63 69 120 L69 374 Q69 431 102.5 466.5 Q136 502 208 502 Q270 502 312.5 480.5 Q355 459 377 443 L377 684 Q377 691 380 695 Q383 699 391 699 L432 699 Q439 699 442.5 695 Q446 691 446 684 L446 15 Q446 8 442.5 4 Q439 0 432 0 L395 0 Q388 0 384.5 4 Q381 8 380 15 Z " />
<glyph glyph-name="e" unicode="e" horiz-adv-x="496" d="M434 373 L434 250 Q434 243 430.5 239.5 Q427 236 420 236 L136 236 L136 125 Q136 91 159.5 69.5 Q183 48 252 48 Q321 48 344.5 69.5 Q368 91 368 125 L368 142 Q368 149 371.5 152.5 Q375 156 383 156 L419 156 Q426 156 430 152.5 Q434 149 434 142 L434 121 Q434 64 394 28 Q354 -8 251 -8 Q148 -8 108.5 28 Q69 64 69 121 L69 373 Q69 430 109.5 466 Q150 502 252 502 Q354 502 394 466 Q434 430 434 373 Z M136 369 L136 289 L368 289 L368 369 Q368 403 343 424.5 Q318 446 252 446 Q186 446 161 424.5 Q136 403 136 369 Z " />
<glyph glyph-name="f" unicode="f" horiz-adv-x="317" d="M96 492 L104 492 L104 578 Q104 635 146 670.5 Q188 706 291 706 L297 706 Q304 706 308 702.5 Q312 699 312 692 L312 662 Q312 655 308 651 Q304 647 297 647 L291 647 Q225 647 199.5 626 Q174 605 174 571 L174 492 L283 492 Q290 492 293.5 488.5 Q297 485 297 478 L297 450 Q297 443 293.5 439 Q290 435 283 435 L174 435 L174 15 Q174 8 170.5 4 Q167 0 159 0 L119 0 Q112 0 108 4 Q104 8 104 15 L104 435 L41 435 Q34 435 30.5 439 Q27 443 27 450 L27 474 Q27 481 30.5 484.5 Q34 488 41 489 L96 492 Z " />
<glyph glyph-name="g" unicode="g" horiz-adv-x="524" d="M208 -8 Q136 -8 102.5 27.5 Q69 63 69 120 L69 374 Q69 431 102.5 466.5 Q136 502 208 502 Q271 502 314 480 Q357 458 378 441 L380 479 Q381 486 384.5 490 Q388 494 395 494 L432 494 Q439 494 442.5 490 Q446 486 446 479 L446 -77 Q446 -134 404 -170 Q362 -206 260 -206 L124 -206 Q116 -206 112 -202.5 Q108 -199 108 -192 L108 -162 Q108 -155 112 -151.5 Q116 -148 124 -148 L260 -148 Q326 -148 351.5 -126.5 Q377 -105 377 -71 L377 50 Q355 34 312.5 13 Q270 -8 208 -8 Z M138 364 L138 130 Q138 99 158 77 Q178 55 227 55 Q281 55 321 76.5 Q361 98 377 111 L377 382 Q361 395 321 417 Q281 439 227 439 Q178 439 158 417 Q138 395 138 364 Z " />
<glyph glyph-name="h" unicode="h" horiz-adv-x="530" d="M147 684 L147 443 Q169 461 211 481.5 Q253 502 316 502 Q385 502 420 467 Q455 432 455 379 L455 15 Q455 8 451.5 4 Q448 0 441 0 L400 0 Q393 0 389 4 Q385 8 385 15 L385 364 Q385 398 365 419 Q345 440 297 440 Q242 440 202.5 418.5 Q163 397 147 384 L147 15 Q147 8 143.5 4 Q140 0 133 0 L92 0 Q85 0 81.5 4 Q78 8 78 15 L78 684 Q78 691 81.5 695 Q85 699 92 699 L133 699 Q140 699 143.5 695 Q147 691 147 684 Z " />
<glyph glyph-name="i" unicode="i" horiz-adv-x="224" d="M147 684 L147 591 Q147 584 143.5 580 Q140 576 133 576 L92 576 Q85 576 81.5 580 Q78 584 78 591 L78 684 Q78 691 81.5 695 Q85 699 92 699 L133 699 Q140 699 143.5 695 Q147 691 147 684 Z M147 479 L147 15 Q147 8 143.5 4 Q140 0 133 0 L92 0 Q85 0 81.5 4 Q78 8 78 15 L78 479 Q78 486 81.5 490 Q85 494 92 494 L133 494 Q140 494 143.5 490 Q147 486 147 479 Z " />
<glyph glyph-name="j" unicode="j" horiz-adv-x="224" d="M147 684 L147 591 Q147 584 143.5 580 Q140 576 133 576 L92 576 Q85 576 81.5 580 Q78 584 78 591 L78 684 Q78 691 81.5 695 Q85 699 92 699 L133 699 Q140 699 143.5 695 Q147 691 147 684 Z M147 479 L147 -77 Q147 -134 104.5 -170 Q62 -206 -40 -206 L-46 -206 Q-53 -206 -57 -202.5 Q-61 -199 -61 -192 L-61 -162 Q-61 -155 -57 -151.5 Q-53 -148 -46 -148 L-40 -148 Q26 -148 52 -126.5 Q78 -105 78 -71 L78 479 Q78 486 81 490 Q84 494 92 494 L132 494 Q139 494 143 490 Q147 486 147 479 Z " />
<glyph glyph-name="k" unicode="k" horiz-adv-x="466" d="M237 282 L449 15 Q453 10 451 5 Q449 0 442 0 L393 0 Q385 0 379 4.5 Q373 9 368 15 L180 251 L147 251 L147 15 Q147 8 143.5 4 Q140 0 133 0 L92 0 Q85 0 81.5 4 Q78 8 78 15 L78 684 Q78 691 81.5 695 Q85 699 92 699 L133 699 Q140 699 143.5 695 Q147 691 147 684 L147 304 L180 304 L349 479 Q354 484 360.5 489 Q367 494 374 494 L419 494 Q427 494 428.5 489 Q430 484 426 479 L237 282 Z " />
<glyph glyph-name="l" unicode="l" horiz-adv-x="224" d="M147 684 L147 15 Q147 8 143.5 4 Q140 0 133 0 L92 0 Q85 0 81.5 4 Q78 8 78 15 L78 684 Q78 691 81.5 695 Q85 699 92 699 L133 699 Q140 699 143.5 695 Q147 691 147 684 Z " />
<glyph glyph-name="m" unicode="m" horiz-adv-x="826" d="M92 494 L129 494 Q136 494 139.5 490 Q143 486 143 479 L144 442 Q165 459 206 480.5 Q247 502 310 502 Q360 502 392 483.5 Q424 465 438 434 Q456 450 498.5 476 Q541 502 612 502 Q681 502 716 467 Q751 432 751 379 L751 15 Q751 8 747.5 4 Q744 0 736 0 L697 0 Q689 0 685 4 Q681 8 681 15 L681 364 Q681 398 661 419 Q641 440 593 440 Q537 440 499.5 417.5 Q462 395 448 382 Q449 378 449 372.5 Q449 367 449 364 L449 15 Q449 8 445.5 4 Q442 0 435 0 L394 0 Q387 0 383 4 Q379 8 379 15 L379 364 Q379 398 359 419 Q339 440 291 440 Q236 440 199 418.5 Q162 397 147 384 L147 15 Q147 8 143.5 4 Q140 0 133 0 L92 0 Q85 0 81.5 4 Q78 8 78 15 L78 479 Q78 486 81.5 490 Q85 494 92 494 Z " />
<glyph glyph-name="n" unicode="n" horiz-adv-x="530" d="M92 494 L129 494 Q136 494 139 490 Q142 486 143 479 L145 441 Q167 459 210 480.5 Q253 502 316 502 Q385 502 420 467 Q455 432 455 379 L455 15 Q455 8 451.5 4 Q448 0 441 0 L400 0 Q393 0 389 4 Q385 8 385 15 L385 364 Q385 398 365 419 Q345 440 297 440 Q242 440 202.5 418.5 Q163 397 147 384 L147 15 Q147 8 143.5 4 Q140 0 133 0 L92 0 Q85 0 81.5 4 Q78 8 78 15 L78 479 Q78 486 81.5 490 Q85 494 92 494 Z " />
<glyph glyph-name="o" unicode="o" horiz-adv-x="513" d="M68 121 L68 373 Q68 430 111 466 Q154 502 256 502 Q358 502 401.5 466 Q445 430 445 373 L445 121 Q445 64 401.5 28 Q358 -8 256 -8 Q154 -8 111 28 Q68 64 68 121 Z M376 126 L376 368 Q376 403 349 424 Q322 445 256 445 Q190 445 163.5 424 Q137 403 137 368 L137 126 Q137 91 163.5 70 Q190 49 256 49 Q322 49 349 70 Q376 91 376 126 Z " />
<glyph glyph-name="p" unicode="p" horiz-adv-x="524" d="M385 130 L385 364 Q385 395 365.5 417 Q346 439 297 439 Q241 439 202 417 Q163 395 147 382 L147 111 Q163 98 202 76.5 Q241 55 297 55 Q346 55 365.5 77 Q385 99 385 130 Z M92 494 L129 494 Q136 494 139 490 Q142 486 143 479 L145 441 Q167 458 209.5 480 Q252 502 316 502 Q388 502 421.5 466.5 Q455 431 455 374 L455 120 Q455 63 421.5 27.5 Q388 -8 316 -8 Q254 -8 211.5 13 Q169 34 147 50 L147 -192 Q147 -199 143.5 -202.5 Q140 -206 133 -206 L92 -206 Q85 -206 81.5 -202.5 Q78 -199 78 -192 L78 479 Q78 486 81.5 490 Q85 494 92 494 Z " />
<glyph glyph-name="q" unicode="q" horiz-adv-x="524" d="M378 441 L380 479 Q381 486 384.5 490 Q388 494 395 494 L432 494 Q439 494 442.5 490 Q446 486 446 479 L446 -192 Q446 -199 442.5 -202.5 Q439 -206 432 -206 L391 -206 Q383 -206 380 -202.5 Q377 -199 377 -192 L377 50 Q355 34 312.5 13 Q270 -8 208 -8 Q136 -8 102.5 27.5 Q69 63 69 120 L69 374 Q69 431 102.5 466.5 Q136 502 208 502 Q271 502 313.5 480 Q356 458 378 441 Z M138 364 L138 130 Q138 99 158 77 Q178 55 227 55 Q281 55 321 76.5 Q361 98 377 111 L377 382 Q361 395 321 417 Q281 439 227 439 Q178 439 158 417 Q138 395 138 364 Z " />
<glyph glyph-name="r" unicode="r" horiz-adv-x="343" d="M310 502 Q317 502 321 498 Q325 494 325 487 L325 454 Q325 447 321 443 Q317 439 310 439 Q255 437 210 412 Q165 387 147 372 L147 15 Q147 8 143.5 4 Q140 0 133 0 L92 0 Q85 0 81.5 4 Q78 8 78 15 L78 479 Q78 486 81.5 490 Q85 494 92 494 L129 494 Q136 494 139 490 Q142 486 143 479 L146 430 Q167 449 211 475.5 Q255 502 310 502 Z " />
<glyph glyph-name="s" unicode="s" horiz-adv-x="471" d="M345 359 L345 388 Q345 417 317.5 433.5 Q290 450 234 450 Q179 450 152 433.5 Q125 417 125 388 L125 362 Q125 339 142 325.5 Q159 312 175 307 L329 257 Q366 245 391 221 Q416 197 416 162 L416 105 Q416 60 373 26 Q330 -8 234 -8 Q138 -8 95.5 26 Q53 60 53 105 L53 132 Q53 139 56 142.5 Q59 146 66 146 L104 146 Q111 146 114 142.5 Q117 139 117 132 L117 108 Q117 78 147 61.5 Q177 45 234 45 Q291 45 321 61.5 Q351 78 351 108 L351 145 Q351 167 334.5 180 Q318 193 293 201 L139 252 Q113 261 87 286.5 Q61 312 61 349 L61 388 Q61 433 100 467.5 Q139 502 235 502 Q329 502 368.5 467.5 Q408 433 408 388 L408 359 Q408 352 405 349 Q402 346 394 346 L358 346 Q351 346 348 349 Q345 352 345 359 Z " />
<glyph glyph-name="t" unicode="t" horiz-adv-x="334" d="M170 492 L282 492 Q289 492 293 488.5 Q297 485 297 478 L297 450 Q297 443 293 439 Q289 435 282 435 L170 435 L170 136 Q170 99 193 79 Q216 59 285 59 L303 59 Q310 59 314 55.5 Q318 52 318 44 L318 15 Q318 7 314 3.5 Q310 0 303 0 L276 0 Q174 0 137 34.5 Q100 69 100 129 L100 435 L40 435 Q32 435 28.5 439 Q25 443 25 450 L25 474 Q25 481 28.5 484.5 Q32 488 40 489 L92 492 L100 492 L100 598 Q100 605 104 609 Q108 613 115 613 L156 613 Q163 613 166.5 609 Q170 605 170 598 L170 492 Z " />
<glyph glyph-name="u" unicode="u" horiz-adv-x="524" d="M380 15 L378 51 Q358 34 317.5 13 Q277 -8 214 -8 Q145 -8 110 26.5 Q75 61 75 114 L75 479 Q75 486 78.5 490 Q82 494 89 494 L130 494 Q137 494 140.5 490 Q144 486 144 479 L144 130 Q144 96 164.5 75 Q185 54 233 54 Q287 54 324 75 Q361 96 377 109 L377 479 Q377 486 380.5 490 Q384 494 391 494 L432 494 Q439 494 442.5 490 Q446 486 446 479 L446 15 Q446 7 442.5 3.5 Q439 0 432 0 L395 0 Q387 0 384 3.5 Q381 7 380 15 Z " />
<glyph glyph-name="v" unicode="v" horiz-adv-x="448" d="M247 0 L201 0 Q194 0 190.5 3.5 Q187 7 185 14 L28 479 Q26 486 29.5 490 Q33 494 41 494 L84 494 Q91 494 94.5 490 Q98 486 100 479 L212 148 Q219 128 222 112.5 Q225 97 226 85 Q229 102 232 114 Q235 126 242 147 L356 479 Q358 486 361.5 490 Q365 494 372 494 L411 494 Q418 494 422 490 Q426 486 424 479 L263 14 Q260 7 257 3.5 Q254 0 247 0 Z " />
<glyph glyph-name="w" unicode="w" horiz-adv-x="676" d="M649 479 L519 14 Q517 7 514 3.5 Q511 0 504 0 L456 0 Q449 0 445 3.5 Q441 7 440 14 L352 352 Q348 366 345.5 378 Q343 390 342 400 Q341 390 337.5 377 Q334 364 330 351 L234 14 Q232 7 228.5 3.5 Q225 0 218 0 L171 0 Q164 0 161 3.5 Q158 7 156 14 L30 479 Q29 486 32.5 490 Q36 494 44 494 L84 494 Q91 494 95 490 Q99 486 100 479 L193 131 Q197 117 199 108 Q201 99 202 90 Q203 98 205.5 108 Q208 118 212 131 L308 479 Q310 486 314 490 Q318 494 325 494 L368 494 Q375 494 379 490 Q383 486 384 479 L474 131 Q477 118 479.5 109 Q482 100 483 91 Q485 101 487 109 Q489 117 493 131 L586 479 Q587 486 591.5 490 Q596 494 603 494 L637 494 Q644 494 647.5 490 Q651 486 649 479 Z " />
<glyph glyph-name="x" unicode="x" horiz-adv-x="464" d="M272 249 L433 15 Q437 9 434.5 4.5 Q432 0 425 0 L380 0 Q372 0 366.5 4.5 Q361 9 357 15 L229 201 L105 15 Q101 9 95.5 4.5 Q90 0 82 0 L43 0 Q36 0 33.5 4.5 Q31 9 35 15 L195 251 L40 479 Q36 485 38 489.5 Q40 494 47 494 L93 494 Q101 494 106 489.5 Q111 485 115 479 L239 299 L358 479 Q362 485 367 489.5 Q372 494 380 494 L420 494 Q427 494 429 489.5 Q431 485 427 479 L272 249 Z " />
<glyph glyph-name="y" unicode="y" horiz-adv-x="448" d="M98 479 L211 147 Q216 131 220 114 Q224 97 225 87 Q229 102 233 117.5 Q237 133 241 145 L355 479 Q357 486 361 490 Q365 494 372 494 L410 494 Q417 494 420.5 490 Q424 486 422 479 L194 -192 Q192 -198 188 -202.5 Q184 -207 177 -207 L146 -207 Q138 -207 134.5 -203 Q131 -199 133 -192 L194 -4 L27 479 Q25 486 28.5 490 Q32 494 40 494 L81 494 Q88 494 92 490 Q96 486 98 479 Z " />
<glyph glyph-name="z" unicode="z" horiz-adv-x="430" d="M65 494 L365 494 Q372 494 376 490.5 Q380 487 380 480 L380 452 Q380 448 379 445 Q378 442 377 440 L122 58 L379 58 Q386 58 390 54.5 Q394 51 394 43 L394 15 Q394 7 390 3.5 Q386 0 379 0 L52 0 Q44 0 40.5 3.5 Q37 7 37 15 L37 43 Q37 47 38 50 Q39 53 40 55 L293 436 L65 436 Q57 436 53.5 439.5 Q50 443 50 451 L50 480 Q50 487 53.5 490.5 Q57 494 65 494 Z " />
<glyph glyph-name="braceleft" unicode="&#x7b;" horiz-adv-x="374" d="M138 355 L138 579 Q138 636 180.5 672 Q223 708 325 708 L331 708 Q338 708 342 704.5 Q346 701 346 693 L346 664 Q346 656 342 652.5 Q338 649 331 649 L325 649 Q259 649 234 628 Q209 607 209 572 L209 348 Q209 308 189 283.5 Q169 259 128 249 Q169 239 189 214 Q209 189 209 149 L209 -82 Q209 -117 234 -138 Q259 -159 325 -159 L331 -159 Q338 -159 342 -162.5 Q346 -166 346 -174 L346 -203 Q346 -211 342 -214.5 Q338 -218 331 -218 L325 -218 Q223 -218 180.5 -182 Q138 -146 138 -89 L138 143 Q138 177 114 198 Q90 219 30 219 L29 219 Q22 219 18 222.5 Q14 226 14 234 L14 263 Q14 271 18 274.5 Q22 278 29 278 L30 278 Q90 278 114 299 Q138 320 138 355 Z " />
<glyph glyph-name="bar" unicode="&#x7c;" horiz-adv-x="228" d="M150 684 L150 -196 Q150 -203 146.5 -207 Q143 -211 136 -211 L93 -211 Q86 -211 82.5 -207 Q79 -203 79 -196 L79 684 Q79 691 82.5 695 Q86 699 93 699 L136 699 Q143 699 146.5 695 Q150 691 150 684 Z " />
<glyph glyph-name="braceright" unicode="&#x7d;" horiz-adv-x="374" d="M236 579 L236 355 Q236 320 260 299 Q284 278 344 278 L345 278 Q352 278 355.5 274.5 Q359 271 359 263 L359 234 Q359 226 355.5 222.5 Q352 219 345 219 L344 219 Q284 219 260 198 Q236 177 236 143 L236 -89 Q236 -146 193.5 -182 Q151 -218 49 -218 L43 -218 Q36 -218 32 -214.5 Q28 -211 28 -203 L28 -174 Q28 -166 32 -162.5 Q36 -159 43 -159 L49 -159 Q115 -159 139.5 -138 Q164 -117 164 -82 L164 149 Q164 189 184.5 214 Q205 239 246 249 Q205 259 184.5 283.5 Q164 308 164 348 L164 572 Q164 607 139.5 628 Q115 649 49 649 L43 649 Q36 649 32 652.5 Q28 656 28 664 L28 693 Q28 701 32 704.5 Q36 708 43 708 L49 708 Q151 708 193.5 672 Q236 636 236 579 Z " />
<glyph glyph-name="asciitilde" unicode="&#x7e;" horiz-adv-x="475" d="M403 324 L401 297 Q397 248 377.5 229.5 Q358 211 333 211 Q323 211 307.5 215 Q292 219 278 226 L190 271 Q183 275 172.5 279 Q162 283 155 283 Q138 283 133 274.5 Q128 266 127 243 L126 228 Q125 221 121 218 Q117 215 110 215 L89 215 Q82 215 78.5 219.5 Q75 224 76 231 L78 259 Q81 306 102 325.5 Q123 345 149 345 Q161 345 174 340.5 Q187 336 197 331 L284 286 Q293 282 305 277 Q317 272 326 272 Q343 272 347 281.5 Q351 291 352 314 L353 328 Q354 335 357.5 338 Q361 341 368 341 L391 341 Q398 341 401 337 Q404 333 403 324 Z " />
<glyph glyph-name="Adieresis" unicode="&#xc4;" horiz-adv-x="531" d="M364 250 L292 484 Q282 515 275 553.5 Q268 592 266 607 Q264 594 256 551.5 Q248 509 241 486 L167 250 L364 250 Z M246 680 L289 680 Q297 680 301.5 676 Q306 672 308 665 L507 15 Q509 8 506 4 Q503 0 496 0 L452 0 Q445 0 441 4 Q437 8 435 15 L380 193 L151 193 L97 15 Q95 8 91 4 Q87 0 79 0 L39 0 Q32 0 29 4 Q26 8 28 15 L227 665 Q229 672 234 676 Q239 680 246 680 Z M346 856 L346 759 Q346 751 342.5 747.5 Q339 744 331 744 L307 744 Q299 744 295.5 747.5 Q292 751 292 759 L292 856 Q292 863 295.5 866.5 Q299 870 307 870 L331 870 Q339 870 342.5 866.5 Q346 863 346 856 Z M238 856 L238 759 Q238 751 235 747.5 Q232 744 224 744 L200 744 Q192 744 188.5 747.5 Q185 751 185 759 L185 856 Q185 863 188.5 866.5 Q192 870 200 870 L224 870 Q232 870 235 866.5 Q238 863 238 856 Z " />
<glyph glyph-name="Aring" unicode="&#xc5;" horiz-adv-x="531" d="M364 250 L292 484 Q282 515 275 553.5 Q268 592 266 607 Q264 594 256 551.5 Q248 509 241 486 L167 250 L364 250 Z M246 680 L289 680 Q297 680 301.5 676 Q306 672 308 665 L507 15 Q509 8 506 4 Q503 0 496 0 L452 0 Q445 0 441 4 Q437 8 435 15 L380 193 L151 193 L97 15 Q95 8 91 4 Q87 0 79 0 L39 0 Q32 0 29 4 Q26 8 28 15 L227 665 Q229 672 234 676 Q239 680 246 680 Z M360 812 L360 795 Q360 764 337.5 742 Q315 720 265 720 Q215 720 192.5 742 Q170 764 170 795 L170 812 Q170 843 192.5 865 Q215 887 265 887 Q315 887 337.5 865 Q360 843 360 812 Z M317 800 L317 807 Q317 825 305 837 Q293 849 265 849 Q237 849 225.5 837 Q214 825 214 807 L214 800 Q214 782 225.5 770 Q237 758 265 758 Q293 758 305 770 Q317 782 317 800 Z " />
<glyph glyph-name="Ccedilla" unicode="&#xc7;" horiz-adv-x="553" d="M395 -132 Q395 -175 369 -193 Q343 -211 312 -211 L196 -211 Q189 -211 185 -207.5 Q181 -204 181 -196 L181 -181 Q181 -174 185 -170.5 Q189 -167 196 -167 L302 -167 Q315 -167 329.5 -160.5 Q344 -154 344 -132 Q344 -109 329.5 -103 Q315 -97 302 -97 L240 -97 Q227 -97 223 -92 Q219 -87 221 -78 L240 -6 Q147 4 113 44.5 Q79 85 79 138 L79 542 Q79 602 123 645 Q167 688 290 688 Q413 688 457 645 Q501 602 501 542 L501 491 Q501 483 497.5 479 Q494 475 487 475 L447 475 Q439 475 435.5 479 Q432 483 432 491 L432 531 Q432 574 401 600.5 Q370 627 291 627 Q212 627 181 600.5 Q150 574 150 531 L150 149 Q150 106 181 79.5 Q212 53 291 53 Q370 53 401 79.5 Q432 106 432 149 L432 202 Q432 209 435.5 213 Q439 217 447 217 L487 217 Q494 217 497.5 213 Q501 209 501 202 L501 138 Q501 78 457 35 Q413 -8 290 -8 L288 -8 L275 -53 L312 -53 Q343 -53 369 -71 Q395 -89 395 -132 Z " />
<glyph glyph-name="Eacute" unicode="&#xc9;" horiz-adv-x="520" d="M458 0 L104 0 Q97 0 94 4 Q91 8 91 15 L91 665 Q91 672 94.5 676 Q98 680 105 680 L446 680 Q453 680 457 676.5 Q461 673 461 665 L461 634 Q461 626 457 622.5 Q453 619 446 619 L161 619 L161 386 L428 386 Q436 386 439.5 382.5 Q443 379 443 371 L443 342 Q443 334 439.5 330.5 Q436 327 428 327 L161 327 L161 61 L458 61 Q465 61 469 57.5 Q473 54 473 47 L473 15 Q473 7 469 3.5 Q465 0 458 0 Z M381 863 L302 747 Q300 744 295.5 741 Q291 738 283 738 L250 738 Q243 738 241 741.5 Q239 745 243 752 L310 864 Q314 870 318 874 Q322 878 329 878 L373 878 Q381 878 383 873.5 Q385 869 381 863 Z " />
<glyph glyph-name="Ntilde" unicode="&#xd1;" horiz-adv-x="613" d="M373 804 Q389 804 394 814 Q399 824 399 852 L399 860 Q399 867 403.5 870 Q408 873 415 873 L437 873 Q444 873 447 868 Q450 863 450 856 L450 833 Q450 789 427.5 770 Q405 751 376 751 Q366 751 350.5 755 Q335 759 322 769 L277 801 Q268 808 257.5 813.5 Q247 819 240 819 Q223 819 218 809 Q213 799 213 771 L213 763 Q213 756 209 753 Q205 750 198 750 L175 750 Q168 750 165 754.5 Q162 759 162 767 L162 790 Q162 834 184.5 853 Q207 872 235 872 Q249 872 263.5 867.5 Q278 863 291 854 L335 822 Q345 815 355 809.5 Q365 804 373 804 Z M522 665 L522 15 Q522 8 519 4 Q516 0 508 0 L470 0 Q465 0 461.5 1.5 Q458 3 456 7 L191 477 Q183 491 173.5 509.5 Q164 528 157 543 L157 15 Q157 8 153.5 4 Q150 0 143 0 L105 0 Q97 0 93.5 4 Q90 8 90 15 L90 665 Q90 672 93.5 676 Q97 680 105 680 L143 680 Q148 680 151 678.5 Q154 677 155 674 L426 197 Q436 180 444.5 162 Q453 144 456 137 L456 665 Q456 672 459.5 676 Q463 680 470 680 L508 680 Q516 680 519 676 Q522 672 522 665 Z " />
<glyph glyph-name="Odieresis" unicode="&#xd6;" horiz-adv-x="591" d="M79 138 L79 542 Q79 602 126 645 Q173 688 295 688 Q419 688 465.5 645 Q512 602 512 542 L512 138 Q512 78 465.5 35 Q419 -8 295 -8 Q173 -8 126 35 Q79 78 79 138 Z M441 149 L441 531 Q441 574 407.5 600.5 Q374 627 295 627 Q217 627 183.5 600.5 Q150 574 150 531 L150 149 Q150 106 183.5 79.5 Q217 53 295 53 Q374 53 407.5 79.5 Q441 106 441 149 Z M376 856 L376 759 Q376 751 372.5 747.5 Q369 744 361 744 L337 744 Q329 744 325.5 747.5 Q322 751 322 759 L322 856 Q322 863 325.5 866.5 Q329 870 337 870 L361 870 Q369 870 372.5 866.5 Q376 863 376 856 Z M268 856 L268 759 Q268 751 265 747.5 Q262 744 254 744 L230 744 Q222 744 218.5 747.5 Q215 751 215 759 L215 856 Q215 863 218.5 866.5 Q222 870 230 870 L254 870 Q262 870 265 866.5 Q268 863 268 856 Z " />
<glyph glyph-name="Udieresis" unicode="&#xdc;" horiz-adv-x="606" d="M158 665 L158 149 Q158 106 191.5 79.5 Q225 53 303 53 Q382 53 415.5 79.5 Q449 106 449 149 L449 665 Q449 672 452.5 676 Q456 680 464 680 L506 680 Q514 680 517 676 Q520 672 520 665 L520 138 Q520 78 473.5 35 Q427 -8 303 -8 Q181 -8 134 35 Q87 78 87 138 L87 665 Q87 672 91 676 Q95 680 102 680 L144 680 Q151 680 154.5 676 Q158 672 158 665 Z M384 856 L384 759 Q384 751 380.5 747.5 Q377 744 369 744 L345 744 Q337 744 333.5 747.5 Q330 751 330 759 L330 856 Q330 863 333.5 866.5 Q337 870 345 870 L369 870 Q377 870 380.5 866.5 Q384 863 384 856 Z M276 856 L276 759 Q276 751 273 747.5 Q270 744 262 744 L238 744 Q230 744 226.5 747.5 Q223 751 223 759 L223 856 Q223 863 226.5 866.5 Q230 870 238 870 L262 870 Q270 870 273 866.5 Q276 863 276 856 Z " />
<glyph glyph-name="aacute" unicode="&#xe1;" horiz-adv-x="502" d="M210 50 Q264 50 302 71.5 Q340 93 357 106 L357 223 L199 223 Q158 223 140.5 203.5 Q123 184 123 151 L123 119 Q123 86 143.5 68 Q164 50 210 50 Z M65 358 L65 375 Q65 431 105 466.5 Q145 502 245 502 Q347 502 386 466.5 Q425 431 425 375 L425 15 Q425 8 421.5 4 Q418 0 411 0 L376 0 Q368 0 365 4 Q362 8 361 15 L359 51 Q337 34 295 13 Q253 -8 194 -8 Q124 -8 89.5 26.5 Q55 61 55 110 L55 160 Q55 209 88 243.5 Q121 278 185 278 L357 278 L357 368 Q357 402 334 423.5 Q311 445 244 445 Q178 445 154 424.5 Q130 404 130 370 L130 358 Q130 350 126.5 346 Q123 342 115 342 L79 342 Q72 342 68.5 346 Q65 350 65 358 Z M351 693 L272 577 Q270 574 265.5 571 Q261 568 254 568 L221 568 Q214 568 211.5 571.5 Q209 575 213 582 L280 694 Q284 700 288.5 704 Q293 708 300 708 L344 708 Q352 708 353.5 703.5 Q355 699 351 693 Z " />
<glyph glyph-name="agrave" unicode="&#xe0;" horiz-adv-x="502" d="M210 50 Q264 50 302 71.5 Q340 93 357 106 L357 223 L199 223 Q158 223 140.5 203.5 Q123 184 123 151 L123 119 Q123 86 143.5 68 Q164 50 210 50 Z M65 358 L65 375 Q65 431 105 466.5 Q145 502 245 502 Q347 502 386 466.5 Q425 431 425 375 L425 15 Q425 8 421.5 4 Q418 0 411 0 L376 0 Q368 0 365 4 Q362 8 361 15 L359 51 Q337 34 295 13 Q253 -8 194 -8 Q124 -8 89.5 26.5 Q55 61 55 110 L55 160 Q55 209 88 243.5 Q121 278 185 278 L357 278 L357 368 Q357 402 334 423.5 Q311 445 244 445 Q178 445 154 424.5 Q130 404 130 370 L130 358 Q130 350 126.5 346 Q123 342 115 342 L79 342 Q72 342 68.5 346 Q65 350 65 358 Z M217 577 L138 693 Q134 699 135.5 703.5 Q137 708 145 708 L189 708 Q197 708 201 704 Q205 700 209 694 L276 582 Q280 575 277.5 571.5 Q275 568 269 568 L235 568 Q228 568 223.5 571 Q219 574 217 577 Z " />
<glyph glyph-name="acircumflex" unicode="&#xe2;" horiz-adv-x="502" d="M210 50 Q264 50 302 71.5 Q340 93 357 106 L357 223 L199 223 Q158 223 140.5 203.5 Q123 184 123 151 L123 119 Q123 86 143.5 68 Q164 50 210 50 Z M65 358 L65 375 Q65 431 105 466.5 Q145 502 245 502 Q347 502 386 466.5 Q425 431 425 375 L425 15 Q425 8 421.5 4 Q418 0 411 0 L376 0 Q368 0 365 4 Q362 8 361 15 L359 51 Q337 34 295 13 Q253 -8 194 -8 Q124 -8 89.5 26.5 Q55 61 55 110 L55 160 Q55 209 88 243.5 Q121 278 185 278 L357 278 L357 368 Q357 402 334 423.5 Q311 445 244 445 Q178 445 154 424.5 Q130 404 130 370 L130 358 Q130 350 126.5 346 Q123 342 115 342 L79 342 Q72 342 68.5 346 Q65 350 65 358 Z M245 664 L192 582 Q189 577 184 572.5 Q179 568 172 568 L140 568 Q132 568 130 572 Q128 576 132 582 L208 693 Q212 699 218 703.5 Q224 708 231 708 L257 708 Q265 708 270.5 704 Q276 700 280 694 L358 582 Q362 576 359.5 572 Q357 568 350 568 L318 568 Q311 568 306.5 572 Q302 576 298 582 L245 664 Z " />
<glyph glyph-name="adieresis" unicode="&#xe4;" horiz-adv-x="502" d="M210 50 Q264 50 302 71.5 Q340 93 357 106 L357 223 L199 223 Q158 223 140.5 203.5 Q123 184 123 151 L123 119 Q123 86 143.5 68 Q164 50 210 50 Z M65 358 L65 375 Q65 431 105 466.5 Q145 502 245 502 Q347 502 386 466.5 Q425 431 425 375 L425 15 Q425 8 421.5 4 Q418 0 411 0 L376 0 Q368 0 365 4 Q362 8 361 15 L359 51 Q337 34 295 13 Q253 -8 194 -8 Q124 -8 89.5 26.5 Q55 61 55 110 L55 160 Q55 209 88 243.5 Q121 278 185 278 L357 278 L357 368 Q357 402 334 423.5 Q311 445 244 445 Q178 445 154 424.5 Q130 404 130 370 L130 358 Q130 350 126.5 346 Q123 342 115 342 L79 342 Q72 342 68.5 346 Q65 350 65 358 Z M328 688 L328 591 Q328 584 324.5 580.5 Q321 577 314 577 L289 577 Q282 577 278.5 580.5 Q275 584 275 591 L275 688 Q275 695 278.5 699 Q282 703 289 703 L314 703 Q321 703 324.5 699 Q328 695 328 688 Z M221 688 L221 591 Q221 584 217.5 580.5 Q214 577 207 577 L182 577 Q175 577 171 580.5 Q167 584 167 591 L167 688 Q167 695 171 699 Q175 703 182 703 L207 703 Q214 703 217.5 699 Q221 695 221 688 Z " />
<glyph glyph-name="atilde" unicode="&#xe3;" horiz-adv-x="502" d="M210 50 Q264 50 302 71.5 Q340 93 357 106 L357 223 L199 223 Q158 223 140.5 203.5 Q123 184 123 151 L123 119 Q123 86 143.5 68 Q164 50 210 50 Z M65 358 L65 375 Q65 431 105 466.5 Q145 502 245 502 Q347 502 386 466.5 Q425 431 425 375 L425 15 Q425 8 421.5 4 Q418 0 411 0 L376 0 Q368 0 365 4 Q362 8 361 15 L359 51 Q337 34 295 13 Q253 -8 194 -8 Q124 -8 89.5 26.5 Q55 61 55 110 L55 160 Q55 209 88 243.5 Q121 278 185 278 L357 278 L357 368 Q357 402 334 423.5 Q311 445 244 445 Q178 445 154 424.5 Q130 404 130 370 L130 358 Q130 350 126.5 346 Q123 342 115 342 L79 342 Q72 342 68.5 346 Q65 350 65 358 Z M315 575 Q305 575 289 579 Q273 583 260 593 L215 625 Q206 632 195.5 637.5 Q185 643 178 643 Q161 643 156 633 Q151 623 151 596 L151 588 Q151 580 147 577 Q143 574 136 574 L113 574 Q106 574 103 578.5 Q100 583 100 591 L100 615 Q100 659 122.5 678 Q145 697 174 697 Q187 697 201.5 692 Q216 687 229 678 L273 646 Q282 639 292.5 633.5 Q303 628 311 628 Q327 628 332 638 Q337 648 337 676 L337 684 Q337 691 341.5 694 Q346 697 353 697 L375 697 Q382 697 385 692.5 Q388 688 388 681 L388 656 Q388 612 366 593.5 Q344 575 315 575 Z " />
<glyph glyph-name="aring" unicode="&#xe5;" horiz-adv-x="502" d="M210 50 Q264 50 302 71.5 Q340 93 357 106 L357 223 L199 223 Q158 223 140.5 203.5 Q123 184 123 151 L123 119 Q123 86 143.5 68 Q164 50 210 50 Z M65 358 L65 375 Q65 431 105 466.5 Q145 502 245 502 Q347 502 386 466.5 Q425 431 425 375 L425 15 Q425 8 421.5 4 Q418 0 411 0 L376 0 Q368 0 365 4 Q362 8 361 15 L359 51 Q337 34 295 13 Q253 -8 194 -8 Q124 -8 89.5 26.5 Q55 61 55 110 L55 160 Q55 209 88 243.5 Q121 278 185 278 L357 278 L357 368 Q357 402 334 423.5 Q311 445 244 445 Q178 445 154 424.5 Q130 404 130 370 L130 358 Q130 350 126.5 346 Q123 342 115 342 L79 342 Q72 342 68.5 346 Q65 350 65 358 Z M343 649 L343 624 Q343 593 321 573.5 Q299 554 250 554 Q202 554 180 573.5 Q158 593 158 624 L158 649 Q158 680 180 700 Q202 720 250 720 Q299 720 321 700 Q343 680 343 649 Z M302 631 L302 642 Q302 660 290 671.5 Q278 683 250 683 Q222 683 210 671.5 Q198 660 198 642 L198 631 Q198 613 210 601.5 Q222 590 250 590 Q278 590 290 601.5 Q302 613 302 631 Z " />
<glyph glyph-name="ccedilla" unicode="&#xe7;" horiz-adv-x="482" d="M353 -132 Q353 -175 327 -193 Q301 -211 270 -211 L154 -211 Q147 -211 143 -207.5 Q139 -204 139 -196 L139 -181 Q139 -174 143 -170.5 Q147 -167 154 -167 L260 -167 Q273 -167 287.5 -160.5 Q302 -154 302 -132 Q302 -109 287.5 -103 Q273 -97 260 -97 L198 -97 Q185 -97 181 -92 Q177 -87 179 -78 L198 -5 Q126 4 97.5 38 Q69 72 69 121 L69 373 Q69 430 109 466 Q149 502 251 502 Q353 502 392.5 466 Q432 430 432 373 L432 354 Q432 347 428.5 343 Q425 339 418 339 L381 339 Q373 339 369.5 343 Q366 347 366 354 L366 369 Q366 403 342 424 Q318 445 251 445 Q185 445 161.5 424 Q138 403 138 369 L138 126 Q138 91 161.5 70 Q185 49 251 49 Q318 49 342 70 Q366 91 366 126 L366 148 Q366 156 369.5 159.5 Q373 163 381 163 L418 163 Q425 163 428.5 159.5 Q432 156 432 148 L432 121 Q432 64 392 28 Q352 -8 250 -8 L246 -8 L233 -53 L270 -53 Q301 -53 327 -71 Q353 -89 353 -132 Z " />
<glyph glyph-name="eacute" unicode="&#xe9;" horiz-adv-x="497" d="M353 693 L274 577 Q272 574 267.5 571 Q263 568 256 568 L223 568 Q216 568 213.5 571.5 Q211 575 215 582 L282 694 Q286 700 290.5 704 Q295 708 302 708 L346 708 Q354 708 355.5 703.5 Q357 699 353 693 Z M434 373 L434 250 Q434 243 430.5 239.5 Q427 236 420 236 L136 236 L136 125 Q136 91 159.5 69.5 Q183 48 252 48 Q321 48 344.5 69.5 Q368 91 368 125 L368 142 Q368 149 371.5 152.5 Q375 156 383 156 L419 156 Q426 156 430 152.5 Q434 149 434 142 L434 121 Q434 64 394 28 Q354 -8 251 -8 Q148 -8 108.5 28 Q69 64 69 121 L69 373 Q69 430 109.5 466 Q150 502 252 502 Q354 502 394 466 Q434 430 434 373 Z M136 369 L136 289 L368 289 L368 369 Q368 403 343 424.5 Q318 446 252 446 Q186 446 161 424.5 Q136 403 136 369 Z " />
<glyph glyph-name="egrave" unicode="&#xe8;" horiz-adv-x="497" d="M434 373 L434 250 Q434 243 430.5 239.5 Q427 236 420 236 L136 236 L136 125 Q136 91 159.5 69.5 Q183 48 252 48 Q321 48 344.5 69.5 Q368 91 368 125 L368 142 Q368 149 371.5 152.5 Q375 156 383 156 L419 156 Q426 156 430 152.5 Q434 149 434 142 L434 121 Q434 64 394 28 Q354 -8 251 -8 Q148 -8 108.5 28 Q69 64 69 121 L69 373 Q69 430 109.5 466 Q150 502 252 502 Q354 502 394 466 Q434 430 434 373 Z M136 369 L136 289 L368 289 L368 369 Q368 403 343 424.5 Q318 446 252 446 Q186 446 161 424.5 Q136 403 136 369 Z M226 577 L147 693 Q143 699 144.5 703.5 Q146 708 154 708 L198 708 Q206 708 210 704 Q214 700 218 694 L285 582 Q289 575 286.5 571.5 Q284 568 278 568 L244 568 Q237 568 232.5 571 Q228 574 226 577 Z " />
<glyph glyph-name="ecircumflex" unicode="&#xea;" horiz-adv-x="497" d="M254 664 L201 582 Q198 577 193 572.5 Q188 568 181 568 L149 568 Q141 568 139 572 Q137 576 141 582 L217 693 Q221 699 227 703.5 Q233 708 240 708 L266 708 Q274 708 279.5 704 Q285 700 289 694 L367 582 Q371 576 368.5 572 Q366 568 359 568 L327 568 Q320 568 315.5 572 Q311 576 307 582 L254 664 Z M434 373 L434 250 Q434 243 430.5 239.5 Q427 236 420 236 L136 236 L136 125 Q136 91 159.5 69.5 Q183 48 252 48 Q321 48 344.5 69.5 Q368 91 368 125 L368 142 Q368 149 371.5 152.5 Q375 156 383 156 L419 156 Q426 156 430 152.5 Q434 149 434 142 L434 121 Q434 64 394 28 Q354 -8 251 -8 Q148 -8 108.5 28 Q69 64 69 121 L69 373 Q69 430 109.5 466 Q150 502 252 502 Q354 502 394 466 Q434 430 434 373 Z M136 369 L136 289 L368 289 L368 369 Q368 403 343 424.5 Q318 446 252 446 Q186 446 161 424.5 Q136 403 136 369 Z " />
<glyph glyph-name="edieresis" unicode="&#xeb;" horiz-adv-x="497" d="M331 688 L331 591 Q331 584 327.5 580.5 Q324 577 317 577 L292 577 Q285 577 281.5 580.5 Q278 584 278 591 L278 688 Q278 695 281.5 699 Q285 703 292 703 L317 703 Q324 703 327.5 699 Q331 695 331 688 Z M224 688 L224 591 Q224 584 220.5 580.5 Q217 577 210 577 L185 577 Q178 577 174 580.5 Q170 584 170 591 L170 688 Q170 695 174 699 Q178 703 185 703 L210 703 Q217 703 220.5 699 Q224 695 224 688 Z M434 373 L434 250 Q434 243 430.5 239.5 Q427 236 420 236 L136 236 L136 125 Q136 91 159.5 69.5 Q183 48 252 48 Q321 48 344.5 69.5 Q368 91 368 125 L368 142 Q368 149 371.5 152.5 Q375 156 383 156 L419 156 Q426 156 430 152.5 Q434 149 434 142 L434 121 Q434 64 394 28 Q354 -8 251 -8 Q148 -8 108.5 28 Q69 64 69 121 L69 373 Q69 430 109.5 466 Q150 502 252 502 Q354 502 394 466 Q434 430 434 373 Z M136 369 L136 289 L368 289 L368 369 Q368 403 343 424.5 Q318 446 252 446 Q186 446 161 424.5 Q136 403 136 369 Z " />
<glyph glyph-name="iacute" unicode="&#xed;" horiz-adv-x="225" d="M225 693 L146 577 Q144 574 139.5 571 Q135 568 128 568 L95 568 Q88 568 85.5 571.5 Q83 575 87 582 L154 694 Q158 700 162.5 704 Q167 708 174 708 L218 708 Q226 708 227.5 703.5 Q229 699 225 693 Z M147 479 L147 15 Q147 8 143.5 4 Q140 0 133 0 L92 0 Q85 0 81.5 4 Q78 8 78 15 L78 479 Q78 486 81.5 490 Q85 494 92 494 L133 494 Q140 494 143.5 490 Q147 486 147 479 Z " />
<glyph glyph-name="igrave" unicode="&#xec;" horiz-adv-x="225" d="M147 479 L147 15 Q147 8 143.5 4 Q140 0 133 0 L92 0 Q85 0 81.5 4 Q78 8 78 15 L78 479 Q78 486 81.5 490 Q85 494 92 494 L133 494 Q140 494 143.5 490 Q147 486 147 479 Z M80 577 L1 693 Q-3 699 -1.5 703.5 Q0 708 8 708 L52 708 Q60 708 64 704 Q68 700 72 694 L139 582 Q143 575 140.5 571.5 Q138 568 132 568 L98 568 Q91 568 86.5 571 Q82 574 80 577 Z " />
<glyph glyph-name="icircumflex" unicode="&#xee;" horiz-adv-x="225" d="M116 664 L63 582 Q60 577 55 572.5 Q50 568 43 568 L11 568 Q3 568 1 572 Q-1 576 3 582 L79 693 Q83 699 89 703.5 Q95 708 102 708 L128 708 Q136 708 141.5 704 Q147 700 151 694 L229 582 Q233 576 230.5 572 Q228 568 221 568 L189 568 Q182 568 177.5 572 Q173 576 169 582 L116 664 Z M147 479 L147 15 Q147 8 143.5 4 Q140 0 133 0 L92 0 Q85 0 81.5 4 Q78 8 78 15 L78 479 Q78 486 81.5 490 Q85 494 92 494 L133 494 Q140 494 143.5 490 Q147 486 147 479 Z " />
<glyph glyph-name="idieresis" unicode="&#xef;" horiz-adv-x="225" d="M194 688 L194 591 Q194 584 190.5 580.5 Q187 577 180 577 L155 577 Q148 577 144.5 580.5 Q141 584 141 591 L141 688 Q141 695 144.5 699 Q148 703 155 703 L180 703 Q187 703 190.5 699 Q194 695 194 688 Z M87 688 L87 591 Q87 584 83.5 580.5 Q80 577 73 577 L48 577 Q41 577 37 580.5 Q33 584 33 591 L33 688 Q33 695 37 699 Q41 703 48 703 L73 703 Q80 703 83.5 699 Q87 695 87 688 Z M147 479 L147 15 Q147 8 143.5 4 Q140 0 133 0 L92 0 Q85 0 81.5 4 Q78 8 78 15 L78 479 Q78 486 81.5 490 Q85 494 92 494 L133 494 Q140 494 143.5 490 Q147 486 147 479 Z " />
<glyph glyph-name="ntilde" unicode="&#xf1;" horiz-adv-x="530" d="M92 494 L129 494 Q136 494 139 490 Q142 486 143 479 L145 441 Q167 459 210 480.5 Q253 502 316 502 Q385 502 420 467 Q455 432 455 379 L455 15 Q455 8 451.5 4 Q448 0 441 0 L400 0 Q393 0 389 4 Q385 8 385 15 L385 364 Q385 398 365 419 Q345 440 297 440 Q242 440 202.5 418.5 Q163 397 147 384 L147 15 Q147 8 143.5 4 Q140 0 133 0 L92 0 Q85 0 81.5 4 Q78 8 78 15 L78 479 Q78 486 81.5 490 Q85 494 92 494 Z M332 579 Q322 579 306 583 Q290 587 277 597 L232 629 Q223 636 212.5 641.5 Q202 647 195 647 Q178 647 173 637 Q168 627 168 600 L168 592 Q168 584 164 581 Q160 578 153 578 L130 578 Q123 578 120 582.5 Q117 587 117 595 L117 619 Q117 663 139.5 682 Q162 701 191 701 Q204 701 218.5 696 Q233 691 246 682 L290 650 Q299 643 309.5 637.5 Q320 632 328 632 Q344 632 349 642 Q354 652 354 680 L354 688 Q354 695 358.5 698 Q363 701 370 701 L392 701 Q399 701 402 696.5 Q405 692 405 685 L405 660 Q405 616 383 597.5 Q361 579 332 579 Z " />
<glyph glyph-name="oacute" unicode="&#xf3;" horiz-adv-x="513" d="M373 693 L294 577 Q292 574 287.5 571 Q283 568 276 568 L243 568 Q236 568 233.5 571.5 Q231 575 235 582 L302 694 Q306 700 310.5 704 Q315 708 322 708 L366 708 Q374 708 375.5 703.5 Q377 699 373 693 Z M68 121 L68 373 Q68 430 111 466 Q154 502 256 502 Q358 502 401.5 466 Q445 430 445 373 L445 121 Q445 64 401.5 28 Q358 -8 256 -8 Q154 -8 111 28 Q68 64 68 121 Z M376 126 L376 368 Q376 403 349 424 Q322 445 256 445 Q190 445 163.5 424 Q137 403 137 368 L137 126 Q137 91 163.5 70 Q190 49 256 49 Q322 49 349 70 Q376 91 376 126 Z " />
<glyph glyph-name="ograve" unicode="&#xf2;" horiz-adv-x="513" d="M68 121 L68 373 Q68 430 111 466 Q154 502 256 502 Q358 502 401.5 466 Q445 430 445 373 L445 121 Q445 64 401.5 28 Q358 -8 256 -8 Q154 -8 111 28 Q68 64 68 121 Z M376 126 L376 368 Q376 403 349 424 Q322 445 256 445 Q190 445 163.5 424 Q137 403 137 368 L137 126 Q137 91 163.5 70 Q190 49 256 49 Q322 49 349 70 Q376 91 376 126 Z M220 577 L141 693 Q137 699 138.5 703.5 Q140 708 148 708 L192 708 Q200 708 204 704 Q208 700 212 694 L279 582 Q283 575 280.5 571.5 Q278 568 272 568 L238 568 Q231 568 226.5 571 Q222 574 220 577 Z " />
<glyph glyph-name="ocircumflex" unicode="&#xf4;" horiz-adv-x="513" d="M257 664 L204 582 Q201 577 196 572.5 Q191 568 184 568 L152 568 Q144 568 142 572 Q140 576 144 582 L220 693 Q224 699 230 703.5 Q236 708 243 708 L269 708 Q277 708 282.5 704 Q288 700 292 694 L370 582 Q374 576 371.5 572 Q369 568 362 568 L330 568 Q323 568 318.5 572 Q314 576 310 582 L257 664 Z M68 121 L68 373 Q68 430 111 466 Q154 502 256 502 Q358 502 401.5 466 Q445 430 445 373 L445 121 Q445 64 401.5 28 Q358 -8 256 -8 Q154 -8 111 28 Q68 64 68 121 Z M376 126 L376 368 Q376 403 349 424 Q322 445 256 445 Q190 445 163.5 424 Q137 403 137 368 L137 126 Q137 91 163.5 70 Q190 49 256 49 Q322 49 349 70 Q376 91 376 126 Z " />
<glyph glyph-name="odieresis" unicode="&#xf6;" horiz-adv-x="513" d="M338 688 L338 591 Q338 584 334.5 580.5 Q331 577 324 577 L299 577 Q292 577 288.5 580.5 Q285 584 285 591 L285 688 Q285 695 288.5 699 Q292 703 299 703 L324 703 Q331 703 334.5 699 Q338 695 338 688 Z M231 688 L231 591 Q231 584 227.5 580.5 Q224 577 217 577 L192 577 Q185 577 181 580.5 Q177 584 177 591 L177 688 Q177 695 181 699 Q185 703 192 703 L217 703 Q224 703 227.5 699 Q231 695 231 688 Z M68 121 L68 373 Q68 430 111 466 Q154 502 256 502 Q358 502 401.5 466 Q445 430 445 373 L445 121 Q445 64 401.5 28 Q358 -8 256 -8 Q154 -8 111 28 Q68 64 68 121 Z M376 126 L376 368 Q376 403 349 424 Q322 445 256 445 Q190 445 163.5 424 Q137 403 137 368 L137 126 Q137 91 163.5 70 Q190 49 256 49 Q322 49 349 70 Q376 91 376 126 Z " />
<glyph glyph-name="otilde" unicode="&#xf5;" horiz-adv-x="513" d="M68 121 L68 373 Q68 430 111 466 Q154 502 256 502 Q358 502 401.5 466 Q445 430 445 373 L445 121 Q445 64 401.5 28 Q358 -8 256 -8 Q154 -8 111 28 Q68 64 68 121 Z M376 126 L376 368 Q376 403 349 424 Q322 445 256 445 Q190 445 163.5 424 Q137 403 137 368 L137 126 Q137 91 163.5 70 Q190 49 256 49 Q322 49 349 70 Q376 91 376 126 Z M325 575 Q315 575 299 579 Q283 583 270 593 L225 625 Q216 632 205.5 637.5 Q195 643 188 643 Q171 643 166 633 Q161 623 161 596 L161 588 Q161 580 157 577 Q153 574 146 574 L123 574 Q116 574 113 578.5 Q110 583 110 591 L110 615 Q110 659 132.5 678 Q155 697 184 697 Q197 697 211.5 692 Q226 687 239 678 L283 646 Q292 639 302.5 633.5 Q313 628 321 628 Q337 628 342 638 Q347 648 347 676 L347 684 Q347 691 351.5 694 Q356 697 363 697 L385 697 Q392 697 395 692.5 Q398 688 398 681 L398 656 Q398 612 376 593.5 Q354 575 325 575 Z " />
<glyph glyph-name="uacute" unicode="&#xfa;" horiz-adv-x="524" d="M368 693 L289 577 Q287 574 282.5 571 Q278 568 271 568 L238 568 Q231 568 228.5 571.5 Q226 575 230 582 L297 694 Q301 700 305.5 704 Q310 708 317 708 L361 708 Q369 708 370.5 703.5 Q372 699 368 693 Z M380 15 L378 51 Q358 34 317.5 13 Q277 -8 214 -8 Q145 -8 110 26.5 Q75 61 75 114 L75 479 Q75 486 78.5 490 Q82 494 89 494 L130 494 Q137 494 140.5 490 Q144 486 144 479 L144 130 Q144 96 164.5 75 Q185 54 233 54 Q287 54 324 75 Q361 96 377 109 L377 479 Q377 486 380.5 490 Q384 494 391 494 L432 494 Q439 494 442.5 490 Q446 486 446 479 L446 15 Q446 7 442.5 3.5 Q439 0 432 0 L395 0 Q387 0 384 3.5 Q381 7 380 15 Z " />
<glyph glyph-name="ugrave" unicode="&#xf9;" horiz-adv-x="524" d="M380 15 L378 51 Q358 34 317.5 13 Q277 -8 214 -8 Q145 -8 110 26.5 Q75 61 75 114 L75 479 Q75 486 78.5 490 Q82 494 89 494 L130 494 Q137 494 140.5 490 Q144 486 144 479 L144 130 Q144 96 164.5 75 Q185 54 233 54 Q287 54 324 75 Q361 96 377 109 L377 479 Q377 486 380.5 490 Q384 494 391 494 L432 494 Q439 494 442.5 490 Q446 486 446 479 L446 15 Q446 7 442.5 3.5 Q439 0 432 0 L395 0 Q387 0 384 3.5 Q381 7 380 15 Z M231 577 L152 693 Q148 699 149.5 703.5 Q151 708 159 708 L203 708 Q211 708 215 704 Q219 700 223 694 L290 582 Q294 575 291.5 571.5 Q289 568 283 568 L249 568 Q242 568 237.5 571 Q233 574 231 577 Z " />
<glyph glyph-name="ucircumflex" unicode="&#xfb;" horiz-adv-x="524" d="M261 664 L208 582 Q205 577 200 572.5 Q195 568 188 568 L156 568 Q148 568 146 572 Q144 576 148 582 L224 693 Q228 699 234 703.5 Q240 708 247 708 L273 708 Q281 708 286.5 704 Q292 700 296 694 L374 582 Q378 576 375.5 572 Q373 568 366 568 L334 568 Q327 568 322.5 572 Q318 576 314 582 L261 664 Z M380 15 L378 51 Q358 34 317.5 13 Q277 -8 214 -8 Q145 -8 110 26.5 Q75 61 75 114 L75 479 Q75 486 78.5 490 Q82 494 89 494 L130 494 Q137 494 140.5 490 Q144 486 144 479 L144 130 Q144 96 164.5 75 Q185 54 233 54 Q287 54 324 75 Q361 96 377 109 L377 479 Q377 486 380.5 490 Q384 494 391 494 L432 494 Q439 494 442.5 490 Q446 486 446 479 L446 15 Q446 7 442.5 3.5 Q439 0 432 0 L395 0 Q387 0 384 3.5 Q381 7 380 15 Z " />
<glyph glyph-name="udieresis" unicode="&#xfc;" horiz-adv-x="524" d="M343 688 L343 591 Q343 584 339.5 580.5 Q336 577 329 577 L304 577 Q297 577 293.5 580.5 Q290 584 290 591 L290 688 Q290 695 293.5 699 Q297 703 304 703 L329 703 Q336 703 339.5 699 Q343 695 343 688 Z M236 688 L236 591 Q236 584 232.5 580.5 Q229 577 222 577 L197 577 Q190 577 186 580.5 Q182 584 182 591 L182 688 Q182 695 186 699 Q190 703 197 703 L222 703 Q229 703 232.5 699 Q236 695 236 688 Z M380 15 L378 51 Q358 34 317.5 13 Q277 -8 214 -8 Q145 -8 110 26.5 Q75 61 75 114 L75 479 Q75 486 78.5 490 Q82 494 89 494 L130 494 Q137 494 140.5 490 Q144 486 144 479 L144 130 Q144 96 164.5 75 Q185 54 233 54 Q287 54 324 75 Q361 96 377 109 L377 479 Q377 486 380.5 490 Q384 494 391 494 L432 494 Q439 494 442.5 490 Q446 486 446 479 L446 15 Q446 7 442.5 3.5 Q439 0 432 0 L395 0 Q387 0 384 3.5 Q381 7 380 15 Z " />
<glyph glyph-name="dagger" unicode="&#x2020;" horiz-adv-x="466" d="M268 684 L268 15 Q268 8 264.5 4 Q261 0 254 0 L213 0 Q206 0 202.5 4 Q199 8 199 15 L199 684 Q199 691 202.5 695 Q206 699 213 699 L254 699 Q261 699 264.5 695 Q268 691 268 684 Z M304 501 L418 501 Q425 501 429 497.5 Q433 494 433 487 L433 457 Q433 450 429 446.5 Q425 443 418 443 L304 443 Q296 443 292 446.5 Q288 450 288 457 L288 487 Q288 494 292 497.5 Q296 501 304 501 Z M48 501 L162 501 Q169 501 173 497.5 Q177 494 177 487 L177 457 Q177 450 173 446.5 Q169 443 162 443 L48 443 Q41 443 37 446.5 Q33 450 33 457 L33 487 Q33 494 37 497.5 Q41 501 48 501 Z " />
<glyph glyph-name="degree" unicode="&#xb0;" horiz-adv-x="400" d="M62 495 L62 592 Q62 635 91.5 661 Q121 687 200 687 Q280 687 309.5 661 Q339 635 339 592 L339 495 Q339 452 309.5 426 Q280 400 200 400 Q121 400 91.5 426 Q62 452 62 495 Z M279 498 L279 590 Q279 612 261 625.5 Q243 639 200 639 Q157 639 139 625.5 Q121 612 121 590 L121 498 Q121 475 139 461.5 Q157 448 200 448 Q243 448 261 461.5 Q279 475 279 498 Z " />
<glyph glyph-name="cent" unicode="&#xa2;" horiz-adv-x="492" d="M283 15 Q283 8 279.5 4 Q276 0 269 0 L228 0 Q220 0 216.5 4 Q213 8 213 15 L213 86 Q132 93 100.5 127.5 Q69 162 69 214 L69 466 Q69 517 101 551.5 Q133 586 213 593 L213 665 Q213 672 216.5 676 Q220 680 228 680 L269 680 Q276 680 279.5 676 Q283 672 283 665 L283 594 Q367 588 399.5 553.5 Q432 519 432 466 L432 447 Q432 440 428.5 436 Q425 432 418 432 L381 432 Q373 432 369.5 436 Q366 440 366 447 L366 462 Q366 496 342 517 Q318 538 251 538 Q185 538 161.5 517 Q138 496 138 462 L138 219 Q138 184 161.5 163 Q185 142 251 142 Q318 142 342 163 Q366 184 366 219 L366 241 Q366 249 369.5 252.5 Q373 256 381 256 L418 256 Q425 256 428.5 252.5 Q432 249 432 241 L432 214 Q432 162 399 127 Q366 92 283 86 L283 15 Z " />
<glyph glyph-name="sterling" unicode="&#xa3;" horiz-adv-x="602" d="M197 370 L351 370 Q358 370 362 366.5 Q366 363 366 356 L366 326 Q366 318 362 314.5 Q358 311 351 311 L197 311 L197 59 L399 59 Q434 59 458 81 Q482 103 482 169 L482 175 Q482 183 486 187 Q490 191 497 191 L535 191 Q542 191 546 187 Q550 183 550 175 L550 169 Q550 67 511 33.5 Q472 0 415 0 L68 0 Q60 0 56.5 3.5 Q53 7 53 15 L53 45 Q53 52 56.5 55.5 Q60 59 68 59 L126 59 L126 311 L68 311 Q60 311 56.5 314.5 Q53 318 53 326 L53 356 Q53 363 56.5 366.5 Q60 370 68 370 L126 370 L126 548 Q126 608 165 648 Q204 688 323 688 Q443 688 482.5 648 Q522 608 522 548 L522 519 Q522 512 518.5 508 Q515 504 508 504 L468 504 Q461 504 457 508 Q453 512 453 519 L453 537 Q453 580 427.5 603.5 Q402 627 324 627 Q247 627 222 603.5 Q197 580 197 537 L197 370 Z " />
<glyph glyph-name="section" unicode="&#xa7;" horiz-adv-x="502" d="M425 274 L425 173 Q425 166 421.5 162 Q418 158 411 158 L375 158 Q368 158 364.5 162 Q361 166 361 173 L361 268 Q361 298 339 312.5 Q317 327 304 331 L163 373 Q138 380 102.5 404 Q67 428 67 479 L67 559 Q67 614 108 651 Q149 688 251 688 Q353 688 394 653 Q435 618 435 561 L435 549 Q435 541 431.5 537.5 Q428 534 420 534 L385 534 Q378 534 374 537.5 Q370 541 370 549 L370 564 Q370 599 344.5 619 Q319 639 253 639 Q187 639 161 618.5 Q135 598 135 564 L135 483 Q135 454 161.5 441 Q188 428 202 424 L336 384 Q363 376 394 349.5 Q425 323 425 274 Z M77 203 L77 304 Q77 312 80.5 315.5 Q84 319 91 319 L127 319 Q134 319 137.5 315.5 Q141 312 141 304 L141 209 Q141 179 163 164.5 Q185 150 198 146 L339 105 Q364 98 399.5 73.5 Q435 49 435 -2 L435 -81 Q435 -137 394 -174 Q353 -211 251 -211 Q149 -211 108 -176 Q67 -141 67 -84 L67 -71 Q67 -63 71 -59.5 Q75 -56 82 -56 L117 -56 Q125 -56 128.5 -59.5 Q132 -63 132 -71 L132 -87 Q132 -121 157.5 -142 Q183 -163 249 -163 Q315 -163 341 -142 Q367 -121 367 -86 L367 -5 Q367 24 340.5 37 Q314 50 300 54 L166 93 Q139 100 108 127 Q77 154 77 203 Z " />
<glyph glyph-name="bullet" unicode="&#x2022;" horiz-adv-x="262" d="M166 327 L166 198 Q166 190 162.5 186.5 Q159 183 152 183 L111 183 Q104 183 100 186.5 Q96 190 96 198 L96 327 Q96 335 100 338.5 Q104 342 111 342 L152 342 Q159 342 162.5 338.5 Q166 335 166 327 Z " />
<glyph glyph-name="paragraph" unicode="&#xb6;" horiz-adv-x="587" d="M506 665 L506 -191 Q506 -199 502.5 -202.5 Q499 -206 492 -206 L449 -206 Q441 -206 437.5 -202.5 Q434 -199 434 -191 L434 665 Q434 672 437.5 676 Q441 680 449 680 L492 680 Q499 680 502.5 676 Q506 672 506 665 Z M350 666 L350 -191 Q350 -199 346.5 -202.5 Q343 -206 336 -206 L294 -206 Q286 -206 282.5 -202.5 Q279 -199 279 -191 L279 282 L234 282 Q121 282 81 319 Q41 356 41 413 L41 549 Q41 606 81 643 Q121 680 234 680 L336 680 Q343 680 346.5 676.5 Q350 673 350 666 Z " />
<glyph glyph-name="germandbls" unicode="&#xdf;" horiz-adv-x="609" d="M174 574 L174 15 Q174 8 170.5 4 Q167 0 159 0 L119 0 Q112 0 108 4 Q104 8 104 15 L104 435 L41 435 Q34 435 30.5 439 Q27 443 27 450 L27 474 Q27 481 30.5 485 Q34 489 41 489 L96 492 L104 492 L104 579 Q104 635 148 671.5 Q192 708 299 708 Q406 708 449.5 672 Q493 636 493 579 L493 542 Q493 502 466 482 Q439 462 417 455 L353 435 Q341 431 321.5 422.5 Q302 414 302 391 L302 386 Q302 360 323.5 347 Q345 334 356 330 L474 284 Q496 275 531.5 251.5 Q567 228 567 183 L567 119 Q567 64 532.5 28 Q498 -8 400 -8 Q302 -8 270.5 26 Q239 60 239 117 L239 127 Q239 135 242.5 139 Q246 143 254 143 L282 143 Q289 143 293 139 Q297 135 297 127 L297 115 Q297 81 317 60.5 Q337 40 400 40 Q462 40 482.5 61 Q503 82 503 115 L503 171 Q503 200 478.5 212.5 Q454 225 441 230 L327 275 Q302 285 272 306.5 Q242 328 242 377 L242 393 Q242 433 269.5 451.5 Q297 470 318 477 L372 494 Q388 499 408.5 511.5 Q429 524 429 552 L429 574 Q429 609 401 631 Q373 653 301 653 Q230 653 202 631 Q174 609 174 574 Z " />
<glyph glyph-name="registered" unicode="&#xae;" horiz-adv-x="584" d="M513 550 L513 371 Q513 328 475 280.5 Q437 233 292 233 Q148 233 109.5 280.5 Q71 328 71 371 L71 550 Q71 593 109.5 640.5 Q148 688 292 688 Q437 688 475 640.5 Q513 593 513 550 Z M465 366 L465 554 Q465 586 432 615 Q399 644 292 644 Q186 644 152.5 615 Q119 586 119 554 L119 367 Q119 335 152.5 305.5 Q186 276 292 276 Q399 276 432 305.5 Q465 335 465 366 Z M299 553 L244 553 L244 458 L299 458 Q326 458 339.5 469.5 Q353 481 353 496 L353 514 Q353 530 340 541.5 Q327 553 299 553 Z M244 335 Q244 330 241.5 327 Q239 324 234 324 L205 324 Q200 324 197.5 327 Q195 330 195 335 L195 580 Q195 585 197.5 588 Q200 591 205 591 L304 591 Q364 591 383 567 Q402 543 402 517 L402 494 Q402 475 392 456 Q382 437 354 428 L393 335 Q394 331 391.5 327.5 Q389 324 383 324 L353 324 Q349 324 346 327 Q343 330 341 335 L305 421 L244 421 L244 335 Z " />
<glyph glyph-name="copyright" unicode="&#xa9;" horiz-adv-x="694" d="M620 509 L620 171 Q620 102 571 47 Q522 -8 347 -8 Q172 -8 123 47 Q74 102 74 171 L74 509 Q74 578 123 633 Q172 688 347 688 Q522 688 571 633 Q620 578 620 509 Z M568 163 L568 518 Q568 571 521 606.5 Q474 642 347 642 Q219 642 172.5 606.5 Q126 571 126 517 L126 163 Q126 109 172.5 74 Q219 39 347 39 Q474 39 521 74 Q568 109 568 163 Z M347 550 Q434 550 462.5 516 Q491 482 491 425 L491 410 Q491 402 487.5 398.5 Q484 395 477 395 L444 395 Q436 395 432.5 398.5 Q429 402 429 410 L429 424 Q429 458 414 479 Q399 500 347 500 Q295 500 280.5 479 Q266 458 266 424 L266 256 Q266 221 280.5 200 Q295 179 347 179 Q399 179 414 200 Q429 221 429 256 L429 277 Q429 285 432.5 289 Q436 293 444 293 L477 293 Q484 293 487.5 289 Q491 285 491 277 L491 254 Q491 197 462.5 163 Q434 129 347 129 Q260 129 231.5 163 Q203 197 203 254 L203 425 Q203 482 231.5 516 Q260 550 347 550 Z " />
<glyph glyph-name="trademark" unicode="&#x2122;" horiz-adv-x="830" d="M48 680 L320 680 Q326 680 329 677.5 Q332 675 332 668 L332 642 Q332 635 329 632.5 Q326 630 320 630 L214 630 L214 284 Q214 278 211.5 275 Q209 272 202 272 L166 272 Q159 272 156.5 275 Q154 278 154 284 L154 630 L48 630 Q41 630 38.5 632.5 Q36 635 36 642 L36 668 Q36 675 38.5 677.5 Q41 680 48 680 Z M749 668 L749 284 Q749 278 746.5 275 Q744 272 737 272 L703 272 Q697 272 694 275 Q691 278 691 284 L691 567 Q690 563 687 554 Q684 545 682 540 L594 346 Q592 341 588 337.5 Q584 334 578 334 L552 334 Q545 334 541 337.5 Q537 341 535 346 L445 542 Q444 546 440.5 553.5 Q437 561 436 569 L436 284 Q436 278 433 275 Q430 272 424 272 L392 272 Q385 272 382.5 275 Q380 278 380 284 L380 668 Q380 674 382.5 677 Q385 680 392 680 L424 680 Q428 680 431 678.5 Q434 677 435 674 L553 427 Q556 421 559 413.5 Q562 406 564 399 Q565 403 569.5 412 Q574 421 576 426 L692 674 Q693 677 696 678.5 Q699 680 703 680 L737 680 Q744 680 746.5 677 Q749 674 749 668 Z " />
<glyph glyph-name="acute" unicode="&#xb4;" horiz-adv-x="331" d="M237 693 L158 577 Q156 574 151.5 571 Q147 568 140 568 L107 568 Q100 568 97.5 571.5 Q95 575 99 582 L166 694 Q170 700 174.5 704 Q179 708 186 708 L230 708 Q238 708 239.5 703.5 Q241 699 237 693 Z " />
<glyph glyph-name="dieresis" unicode="&#xa8;" horiz-adv-x="324" d="M242 688 L242 591 Q242 584 238.5 580.5 Q235 577 228 577 L203 577 Q196 577 192.5 580.5 Q189 584 189 591 L189 688 Q189 695 192.5 699 Q196 703 203 703 L228 703 Q235 703 238.5 699 Q242 695 242 688 Z M135 688 L135 591 Q135 584 131.5 580.5 Q128 577 121 577 L96 577 Q89 577 85 580.5 Q81 584 81 591 L81 688 Q81 695 85 699 Q89 703 96 703 L121 703 Q128 703 131.5 699 Q135 695 135 688 Z " />
<glyph glyph-name="notequal" unicode="&#x2260;" horiz-adv-x="583" d="M253 144 Q250 137 245 133 Q240 129 233 129 L195 129 Q188 129 186 133 Q184 137 186 144 L213 213 L92 213 Q85 213 81 216.5 Q77 220 77 227 L77 257 Q77 264 81 267.5 Q85 271 92 271 L235 271 L281 391 L92 391 Q85 391 81 394.5 Q77 398 77 406 L77 436 Q77 443 81 446.5 Q85 450 92 450 L304 450 L330 518 Q333 525 337.5 529.5 Q342 534 349 534 L387 534 Q394 534 397 530 Q400 526 397 518 L371 450 L492 450 Q499 450 502.5 446.5 Q506 443 506 436 L506 406 Q506 398 502.5 394.5 Q499 391 492 391 L348 391 L302 271 L492 271 Q499 271 502.5 267.5 Q506 264 506 257 L506 227 Q506 220 502.5 216.5 Q499 213 492 213 L280 213 L253 144 Z " />
<glyph glyph-name="AE" unicode="&#xc6;" horiz-adv-x="824" d="M367 502 L222 250 L400 250 L400 563 Q392 546 383 530.5 Q374 515 367 502 Z M417 680 L753 680 Q760 680 763.5 676.5 Q767 673 767 666 L767 636 Q767 629 763.5 625 Q760 621 753 621 L468 621 L468 385 L735 385 Q742 385 746 381.5 Q750 378 750 371 L750 343 Q750 335 746 331.5 Q742 328 735 328 L468 328 L468 59 L764 59 Q772 59 775.5 55.5 Q779 52 779 45 L779 15 Q779 7 775.5 3.5 Q772 0 764 0 L418 0 Q410 0 405 3 Q400 6 400 15 L400 193 L188 193 L85 15 Q82 9 78.5 4.5 Q75 0 68 0 L28 0 Q20 0 16 4 Q12 8 16 15 L396 665 Q398 669 403 674.5 Q408 680 417 680 Z " />
<glyph glyph-name="Oslash" unicode="&#xd8;" horiz-adv-x="591" d="M150 149 Q150 140 151.5 131 Q153 122 156 115 L396 608 Q379 617 354 622 Q329 627 295 627 Q217 627 183.5 600 Q150 573 150 530 L150 149 Z M295 52 Q374 52 407.5 79 Q441 106 441 149 L441 530 Q441 539 439.5 548 Q438 557 435 564 L195 71 Q212 62 237 57 Q262 52 295 52 Z M155 -11 Q149 -23 143.5 -28 Q138 -33 127 -33 L102 -33 Q93 -33 91.5 -26.5 Q90 -20 94 -11 L119 40 Q97 59 88 84.5 Q79 110 79 138 L79 541 Q79 601 126 644 Q173 687 295 687 Q336 687 368.5 682 Q401 677 425 667 L436 690 Q440 699 446 705.5 Q452 712 463 712 L489 712 Q499 712 500 704.5 Q501 697 497 690 L472 639 Q494 620 503 594.5 Q512 569 512 541 L512 138 Q512 78 465.5 34.5 Q419 -9 295 -9 Q254 -9 222 -4 Q190 1 166 11 L155 -11 Z " />
<glyph glyph-name="infinity" unicode="&#x221e;" horiz-adv-x="379" d="M53 337 L167 452 Q173 458 178.5 460.5 Q184 463 189 463 Q194 463 199.5 460.5 Q205 458 211 452 L326 337 Q332 331 334.5 325.5 Q337 320 337 315 Q337 310 334.5 304.5 Q332 299 326 293 L211 178 Q205 172 199.5 169 Q194 166 189 166 Q184 166 178 169 Q172 172 167 178 L53 293 Q47 299 43.5 304.5 Q40 310 40 315 Q40 320 43.5 325.5 Q47 331 53 337 Z M180 439 L65 324 Q63 322 61.5 319.5 Q60 317 60 315 Q60 313 61.5 310.5 Q63 308 65 306 L180 191 Q183 188 185 187 Q187 186 189 186 Q192 186 193.5 187 Q195 188 198 191 L314 306 Q315 307 316.5 310 Q318 313 318 315 Q318 317 316.5 319.5 Q315 322 313 324 L198 439 Q196 441 194 442.5 Q192 444 189 444 Q187 444 184.5 442.5 Q182 441 180 439 Z " />
<glyph glyph-name="plusminus" unicode="&#xb1;" horiz-adv-x="572" d="M256 228 L256 351 L91 351 Q83 351 79.5 354.5 Q76 358 76 366 L76 396 Q76 403 79.5 406.5 Q83 410 91 410 L256 410 L256 532 Q256 539 259.5 543 Q263 547 270 547 L299 547 Q306 547 310 543 Q314 539 314 532 L314 410 L482 410 Q489 410 492.5 406.5 Q496 403 496 396 L496 366 Q496 358 492.5 354.5 Q489 351 482 351 L314 351 L314 228 Q314 221 310 217 Q306 213 299 213 L270 213 Q263 213 259.5 217 Q256 221 256 228 Z M91 153 L482 153 Q489 153 492.5 149.5 Q496 146 496 138 L496 109 Q496 101 492.5 97.5 Q489 94 482 94 L91 94 Q83 94 79.5 97.5 Q76 101 76 109 L76 138 Q76 146 79.5 149.5 Q83 153 91 153 Z " />
<glyph glyph-name="lessequal" unicode="&#x2264;" horiz-adv-x="533" d="M440 515 L143 406 L440 298 Q447 296 451 292 Q455 288 455 281 L455 241 Q455 234 451 229.5 Q447 225 440 228 L88 368 Q82 370 78 373.5 Q74 377 74 384 L74 429 Q74 436 78 439.5 Q82 443 88 445 L440 584 Q447 587 451 583 Q455 579 455 572 L455 532 Q455 525 451 521 Q447 517 440 515 Z M90 169 L440 169 Q447 169 451 165.5 Q455 162 455 155 L455 126 Q455 119 451 115.5 Q447 112 440 112 L90 112 Q82 112 78.5 115.5 Q75 119 75 126 L75 155 Q75 162 78.5 165.5 Q82 169 90 169 Z " />
<glyph glyph-name="greaterequal" unicode="&#x2265;" horiz-adv-x="533" d="M392 406 L94 515 Q87 517 83.5 521 Q80 525 80 532 L80 573 Q80 580 83.5 584 Q87 588 94 586 L447 447 Q453 445 456.5 441 Q460 437 460 430 L460 384 Q460 376 456.5 372.5 Q453 369 447 367 L94 228 Q87 225 83.5 229 Q80 233 80 241 L80 282 Q80 289 83.5 293 Q87 297 94 299 L392 406 Z M94 170 L445 170 Q452 170 456 166.5 Q460 163 460 155 L460 125 Q460 118 456 114 Q452 110 445 110 L94 110 Q87 110 83.5 114 Q80 118 80 125 L80 155 Q80 163 83.5 166.5 Q87 170 94 170 Z " />
<glyph glyph-name="yen" unicode="&#xa5;" horiz-adv-x="552" d="M314 15 Q314 8 310.5 4 Q307 0 300 0 L257 0 Q250 0 246.5 4 Q243 8 243 15 L243 263 L90 263 Q83 263 79.5 266.5 Q76 270 76 278 L76 296 Q76 303 79.5 306.5 Q83 310 90 310 L222 310 L183 386 L90 386 Q83 386 79.5 390 Q76 394 76 401 L76 419 Q76 426 79.5 429.5 Q83 433 90 433 L159 433 L40 665 Q36 672 39.5 676 Q43 680 51 680 L98 680 Q106 680 110 676 Q114 672 117 665 L264 375 Q267 369 271 358 Q275 347 278 337 Q280 344 284.5 354.5 Q289 365 294 375 L445 665 Q448 671 452 675.5 Q456 680 463 680 L505 680 Q512 680 516 676 Q520 672 516 665 L395 433 L467 433 Q475 433 478.5 429.5 Q482 426 482 419 L482 401 Q482 394 478.5 390 Q475 386 467 386 L371 386 L331 310 L467 310 Q475 310 478.5 306.5 Q482 303 482 296 L482 278 Q482 270 478.5 266.5 Q475 263 467 263 L314 263 L314 15 Z " />
<glyph glyph-name="mu" unicode="&#xb5;" horiz-adv-x="523" d="M381 15 L379 51 Q359 34 318.5 13 Q278 -8 215 -8 Q190 -8 172 -2 Q154 4 141 14 L145 -191 Q145 -199 141.5 -202.5 Q138 -206 131 -206 L90 -206 Q83 -206 79.5 -202.5 Q76 -199 76 -191 L76 479 Q76 486 79.5 490 Q83 494 90 494 L131 494 Q138 494 141.5 490 Q145 486 145 479 L145 130 Q145 96 165.5 75 Q186 54 234 54 Q288 54 325 75 Q362 96 378 109 L378 479 Q378 486 381.5 490 Q385 494 392 494 L433 494 Q440 494 443.5 490 Q447 486 447 479 L447 15 Q447 7 443.5 3.5 Q440 0 433 0 L396 0 Q389 0 385.5 3.5 Q382 7 381 15 Z " />
<glyph glyph-name="partialdiff" unicode="&#x2202;" horiz-adv-x="379" d="M87 194 L87 440 Q87 451 97.5 452.5 Q108 454 118 448 L304 333 Q313 327 313 317.5 Q313 308 304 302 L118 188 Q108 182 97.5 182 Q87 182 87 194 Z " />
<glyph glyph-name="summation" unicode="&#x2211;" horiz-adv-x="379" d="M292 440 L292 194 Q292 182 281 182 Q270 182 260 188 L75 302 Q66 308 66 317.5 Q66 327 75 333 L260 448 Q270 455 281 453 Q292 451 292 440 Z " />
<glyph glyph-name="product" unicode="&#x220f;" horiz-adv-x="379" d="M313 203 L68 203 Q57 203 55.5 213.5 Q54 224 60 234 L175 420 Q181 429 190.5 429 Q200 429 206 420 L320 234 Q326 224 325.5 213.5 Q325 203 313 203 Z " />
<glyph glyph-name="pi" unicode="&#x3c0;" horiz-adv-x="358" d="M56 432 L301 432 Q313 432 314 421.5 Q315 411 309 401 L195 215 Q189 206 179 206 Q169 206 164 215 L49 401 Q43 411 43.5 421.5 Q44 432 56 432 Z " />
<glyph glyph-name="integral" unicode="&#x222b;" horiz-adv-x="379" d="M29 314 Q29 380 75.5 427.5 Q122 475 188 475 Q254 475 301.5 427.5 Q349 380 349 314 Q349 248 301.5 201.5 Q254 155 188 155 Q122 155 75.5 201.5 Q29 248 29 314 Z " />
<glyph glyph-name="ordfeminine" unicode="&#xaa;" horiz-adv-x="368" d="M162 424 Q190 424 210.5 435.5 Q231 447 239 454 L239 516 L156 516 Q137 516 127.5 505.5 Q118 495 118 479 L118 461 Q118 444 128.5 434 Q139 424 162 424 Z M69 601 L69 610 Q69 646 95.5 667 Q122 688 182 688 Q242 688 269 666.5 Q296 645 296 608 L296 397 Q296 391 293.5 388.5 Q291 386 284 386 L254 386 Q247 386 245 388.5 Q243 391 242 397 L240 415 Q227 405 203.5 393 Q180 381 146 381 Q101 381 81 402 Q61 423 61 453 L61 482 Q61 512 82.5 533 Q104 554 146 554 L239 554 L239 607 Q239 624 227 635 Q215 646 181 646 Q148 646 135.5 635.5 Q123 625 123 609 L123 601 Q123 595 120 592.5 Q117 590 112 590 L80 590 Q73 590 71 592.5 Q69 595 69 601 Z " />
<glyph glyph-name="ordmasculine" unicode="&#xba;" horiz-adv-x="371" d="M65 462 L65 607 Q65 643 94 665.5 Q123 688 186 688 Q249 688 278 665.5 Q307 643 307 607 L307 462 Q307 425 278 403 Q249 381 186 381 Q123 381 94 403 Q65 425 65 462 Z M248 468 L248 602 Q248 621 234 631.5 Q220 642 186 642 Q153 642 138 631.5 Q123 621 123 602 L123 468 Q123 449 138 437.5 Q153 426 186 426 Q220 426 234 437.5 Q248 449 248 468 Z " />
<glyph glyph-name="Omega" unicode="&#x2126;" horiz-adv-x="379" d="M67 314 Q67 364 103 400 Q139 436 188 436 Q238 436 274 400 Q310 364 310 314 Q310 265 274 229 Q238 193 188 193 Q139 193 103 229 Q67 265 67 314 Z M85 314 Q85 271 115 241 Q145 211 188 211 Q231 211 262 241 Q293 271 293 314 Q293 357 262 388 Q231 419 188 419 Q145 419 115 388 Q85 357 85 314 Z " />
<glyph glyph-name="ae" unicode="&#xe6;" horiz-adv-x="788" d="M725 373 L725 253 Q725 246 721.5 242.5 Q718 239 711 239 L427 239 L427 120 Q427 86 452 65.5 Q477 45 543 45 Q609 45 634 67 Q659 89 659 123 L659 141 Q659 148 663 152 Q667 156 674 156 L708 156 Q716 156 719.5 152 Q723 148 723 141 L723 120 Q723 63 684 27.5 Q645 -8 543 -8 Q468 -8 428 10.5 Q388 29 374 61 Q351 42 305 17 Q259 -8 196 -8 Q124 -8 90.5 26.5 Q57 61 57 110 L57 160 Q57 209 90.5 243.5 Q124 278 187 278 L359 278 L359 377 Q359 409 334 429.5 Q309 450 246 450 Q180 450 156 429 Q132 408 132 373 L132 358 Q132 350 128.5 346.5 Q125 343 117 343 L81 343 Q74 343 70.5 346.5 Q67 350 67 358 L67 375 Q67 432 106.5 467 Q146 502 247 502 Q310 502 344 486 Q378 470 392 445 Q408 470 444 486 Q480 502 543 502 Q645 502 685 466 Q725 430 725 373 Z M427 371 L427 288 L659 288 L659 371 Q659 405 634 427 Q609 449 543 449 Q477 449 452 427 Q427 405 427 371 Z M212 47 Q265 47 303.5 72 Q342 97 359 111 L359 229 L198 229 Q160 229 142.5 208 Q125 187 125 157 L125 118 Q125 86 147 66.5 Q169 47 212 47 Z " />
<glyph glyph-name="oslash" unicode="&#xf8;" horiz-adv-x="513" d="M137 126 Q137 117 138.5 109 Q140 101 143 94 L329 435 Q316 439 297.5 442 Q279 445 256 445 Q190 445 163.5 424 Q137 403 137 368 L137 126 Z M256 49 Q322 49 349 70 Q376 91 376 126 L376 368 Q376 377 374.5 385.5 Q373 394 369 401 L183 60 Q196 55 214.5 52 Q233 49 256 49 Z M115 -33 L92 -33 Q82 -33 82 -25.5 Q82 -18 86 -11 L108 30 Q87 46 77.5 69.5 Q68 93 68 121 L68 373 Q68 430 111 466 Q154 502 256 502 Q287 502 312.5 498.5 Q338 495 358 488 L369 508 Q373 516 379.5 523 Q386 530 396 530 L421 530 Q431 530 431.5 523 Q432 516 428 508 L404 465 Q426 448 435.5 424.5 Q445 401 445 373 L445 121 Q445 64 401.5 28 Q358 -8 256 -8 Q225 -8 199 -4.5 Q173 -1 153 6 L144 -11 Q138 -22 132.5 -27.5 Q127 -33 115 -33 Z " />
<glyph glyph-name="questiondown" unicode="&#xbf;" horiz-adv-x="499" d="M230 401 L230 479 Q230 487 233.5 490.5 Q237 494 244 494 L287 494 Q294 494 297.5 490.5 Q301 487 301 479 L301 401 Q301 394 297.5 390 Q294 386 287 386 L244 386 Q237 386 233.5 390 Q230 394 230 401 Z M301 317 L301 239 Q301 194 277 173 Q253 152 236 143 L165 107 Q153 101 134 82.5 Q115 64 115 30 L115 -37 Q115 -81 145.5 -107.5 Q176 -134 254 -134 Q332 -134 362 -107.5 Q392 -81 392 -37 L392 9 Q392 17 395.5 21 Q399 25 406 25 L446 25 Q454 25 457.5 21 Q461 17 461 9 L461 -48 Q461 -108 417.5 -151 Q374 -194 254 -194 Q133 -194 88.5 -151 Q44 -108 44 -48 L44 28 Q44 87 74 117 Q104 147 127 158 L181 184 Q197 192 213.5 208 Q230 224 230 255 L230 317 Q230 324 233.5 328 Q237 332 244 332 L287 332 Q294 332 297.5 328 Q301 324 301 317 Z " />
<glyph glyph-name="exclamdown" unicode="&#xa1;" horiz-adv-x="222" d="M76 401 L76 479 Q76 487 79.5 490.5 Q83 494 90 494 L133 494 Q140 494 143.5 490.5 Q147 487 147 479 L147 401 Q147 394 143.5 390 Q140 386 133 386 L90 386 Q83 386 79.5 390 Q76 394 76 401 Z M75 104 L82 317 Q82 324 85.5 328 Q89 332 96 332 L126 332 Q133 332 136.5 328 Q140 324 140 317 L148 104 L148 -171 Q148 -178 144.5 -182 Q141 -186 133 -186 L89 -186 Q82 -186 78.5 -182 Q75 -178 75 -171 L75 104 Z " />
<glyph glyph-name="logicalnot" unicode="&#xac;" horiz-adv-x="350" d="M62 314 Q62 360 95 393.5 Q128 427 175 427 Q221 427 254.5 393.5 Q288 360 288 314 Q288 268 254.5 235 Q221 202 175 202 Q128 202 95 235 Q62 268 62 314 Z " />
<glyph glyph-name="radical" unicode="&#x221a;" horiz-adv-x="379" d="M108 427 L270 427 Q287 427 294 420 Q301 413 301 396 L301 234 Q301 218 294 210.5 Q287 203 270 203 L108 203 Q92 203 84.5 210.5 Q77 218 77 234 L77 396 Q77 413 84.5 420 Q92 427 108 427 Z M270 409 L108 409 Q101 409 98 406 Q95 403 95 396 L95 234 Q95 227 98 224 Q101 221 108 221 L270 221 Q277 221 280.5 224 Q284 227 284 234 L284 396 Q284 403 280.5 406 Q277 409 270 409 Z " />
<glyph glyph-name="florin" unicode="&#x192;" horiz-adv-x="417" d="M393 649 L381 649 Q315 649 287 628 Q259 607 255 572 L235 416 L332 416 Q339 416 343 412.5 Q347 409 347 401 L347 374 Q347 366 343 362.5 Q339 359 332 359 L230 359 L178 -86 Q171 -143 125 -179 Q79 -215 -23 -215 L-29 -215 Q-36 -215 -40 -211.5 Q-44 -208 -44 -200 L-44 -171 Q-44 -164 -40 -160 Q-36 -156 -29 -156 L-17 -156 Q49 -156 77 -135 Q105 -114 109 -79 L160 359 L71 359 Q63 359 59.5 362.5 Q56 366 56 374 L56 401 Q56 409 59.5 412.5 Q63 416 71 416 L166 416 L185 579 Q192 636 238 672 Q284 708 386 708 L393 708 Q400 708 403.5 704.5 Q407 701 407 693 L407 664 Q407 656 403.5 652.5 Q400 649 393 649 Z " />
<glyph glyph-name="approxequal" unicode="&#x2248;" horiz-adv-x="478" d="M405 439 L403 412 Q399 363 379.5 344.5 Q360 326 335 326 Q325 326 309.5 330 Q294 334 280 341 L192 386 Q185 390 174.5 394 Q164 398 157 398 Q140 398 135 389.5 Q130 381 129 358 L128 343 Q127 336 123 333 Q119 330 112 330 L91 330 Q84 330 80.5 334.5 Q77 339 78 346 L80 374 Q83 421 104 440.5 Q125 460 151 460 Q163 460 176 455.5 Q189 451 199 446 L286 401 Q295 397 307 392 Q319 387 328 387 Q345 387 349 396.5 Q353 406 354 429 L355 443 Q356 450 359.5 453 Q363 456 370 456 L393 456 Q400 456 403 452 Q406 448 405 439 Z M405 279 L403 252 Q399 203 379.5 184.5 Q360 166 335 166 Q325 166 309.5 170 Q294 174 280 181 L192 226 Q185 230 174.5 234 Q164 238 157 238 Q140 238 135 229.5 Q130 221 129 198 L128 183 Q127 176 123 173 Q119 170 112 170 L91 170 Q84 170 80.5 174.5 Q77 179 78 186 L80 214 Q83 261 104 280.5 Q125 300 151 300 Q163 300 176 295.5 Q189 291 199 286 L286 241 Q295 237 307 232 Q319 227 328 227 Q345 227 349 236.5 Q353 246 354 269 L355 283 Q356 290 359.5 293 Q363 296 370 296 L393 296 Q400 296 403 292 Q406 288 405 279 Z " />
<glyph glyph-name="increment" unicode="&#x2206;" horiz-adv-x="379" d="M108 419 L270 419 Q282 419 287.5 413.5 Q293 408 293 396 L293 234 Q293 223 287.5 217.5 Q282 212 270 212 L108 212 Q97 212 91.5 217.5 Q86 223 86 234 L86 396 Q86 408 91.5 413.5 Q97 419 108 419 Z " />
<glyph glyph-name="guillemotleft" unicode="&#xab;" horiz-adv-x="537" d="M454 351 L311 245 L454 140 Q460 136 464 130 Q468 124 468 117 L468 74 Q468 67 463 64.5 Q458 62 454 66 L269 205 Q263 209 259 214.5 Q255 220 255 228 L255 262 Q255 271 259 276 Q263 281 269 285 L454 424 Q459 428 463.5 426 Q468 424 468 416 L468 373 Q468 365 464 360 Q460 355 454 351 Z M245 351 L102 245 L245 140 Q251 136 255 130 Q259 124 259 117 L259 74 Q259 67 254 64.5 Q249 62 245 66 L60 205 Q54 209 50 214.5 Q46 220 46 228 L46 262 Q46 271 50 276 Q54 281 60 285 L245 424 Q250 428 254.5 426 Q259 424 259 416 L259 373 Q259 365 255 360 Q251 355 245 351 Z " />
<glyph glyph-name="guillemotright" unicode="&#xbb;" horiz-adv-x="536" d="M291 147 L434 253 L291 358 Q285 362 281 368 Q277 374 277 381 L277 424 Q277 431 282 433.5 Q287 436 291 432 L476 293 Q482 289 486 283.5 Q490 278 490 270 L490 236 Q490 227 486 222 Q482 217 476 213 L291 74 Q286 70 281.5 72 Q277 74 277 82 L277 125 Q277 133 281 138 Q285 143 291 147 Z M83 147 L226 253 L83 358 Q77 362 73 368 Q69 374 69 381 L69 424 Q69 431 74 433.5 Q79 436 83 432 L268 293 Q274 289 278 283.5 Q282 278 282 270 L282 236 Q282 227 278 222 Q274 217 268 213 L83 74 Q78 70 73.5 72 Q69 74 69 82 L69 125 Q69 133 73 138 Q77 143 83 147 Z " />
<glyph glyph-name="ellipsis" unicode="&#x2026;" horiz-adv-x="703" d="M139 93 L139 15 Q139 7 135.5 3.5 Q132 0 125 0 L84 0 Q76 0 72.5 3.5 Q69 7 69 15 L69 93 Q69 100 72.5 104 Q76 108 84 108 L125 108 Q132 108 135.5 104 Q139 100 139 93 Z M634 93 L634 15 Q634 7 630.5 3.5 Q627 0 620 0 L579 0 Q571 0 567.5 3.5 Q564 7 564 15 L564 93 Q564 100 567.5 104 Q571 108 579 108 L620 108 Q627 108 630.5 104 Q634 100 634 93 Z M387 93 L387 15 Q387 7 383.5 3.5 Q380 0 373 0 L332 0 Q324 0 320.5 3.5 Q317 7 317 15 L317 93 Q317 100 320.5 104 Q324 108 332 108 L373 108 Q380 108 383.5 104 Q387 100 387 93 Z " />
<glyph glyph-name="Agrave" unicode="&#xc0;" horiz-adv-x="531" d="M364 250 L292 484 Q282 515 275 553.5 Q268 592 266 607 Q264 594 256 551.5 Q248 509 241 486 L167 250 L364 250 Z M246 680 L289 680 Q297 680 301.5 676 Q306 672 308 665 L507 15 Q509 8 506 4 Q503 0 496 0 L452 0 Q445 0 441 4 Q437 8 435 15 L380 193 L151 193 L97 15 Q95 8 91 4 Q87 0 79 0 L39 0 Q32 0 29 4 Q26 8 28 15 L227 665 Q229 672 234 676 Q239 680 246 680 Z M230 747 L151 863 Q147 869 148.5 873.5 Q150 878 158 878 L202 878 Q210 878 214 874 Q218 870 222 864 L289 752 Q293 745 291 741 Q289 737 282 737 L248 737 Q241 737 236.5 740.5 Q232 744 230 747 Z " />
<glyph glyph-name="Atilde" unicode="&#xc3;" horiz-adv-x="531" d="M364 250 L292 484 Q282 515 275 553.5 Q268 592 266 607 Q264 594 256 551.5 Q248 509 241 486 L167 250 L364 250 Z M246 680 L289 680 Q297 680 301.5 676 Q306 672 308 665 L507 15 Q509 8 506 4 Q503 0 496 0 L452 0 Q445 0 441 4 Q437 8 435 15 L380 193 L151 193 L97 15 Q95 8 91 4 Q87 0 79 0 L39 0 Q32 0 29 4 Q26 8 28 15 L227 665 Q229 672 234 676 Q239 680 246 680 Z M332 804 Q348 804 353 814 Q358 824 358 852 L358 860 Q358 867 362.5 870 Q367 873 374 873 L396 873 Q403 873 406 868 Q409 863 409 856 L409 833 Q409 789 386.5 770 Q364 751 335 751 Q325 751 309.5 755 Q294 759 281 769 L236 801 Q227 808 216.5 813.5 Q206 819 199 819 Q182 819 177 809 Q172 799 172 771 L172 763 Q172 756 168 753 Q164 750 157 750 L134 750 Q127 750 124 754.5 Q121 759 121 767 L121 790 Q121 834 143.5 853 Q166 872 194 872 Q208 872 222.5 867.5 Q237 863 250 854 L294 822 Q304 815 314 809.5 Q324 804 332 804 Z " />
<glyph glyph-name="Otilde" unicode="&#xd5;" horiz-adv-x="591" d="M79 138 L79 542 Q79 602 126 645 Q173 688 295 688 Q419 688 465.5 645 Q512 602 512 542 L512 138 Q512 78 465.5 35 Q419 -8 295 -8 Q173 -8 126 35 Q79 78 79 138 Z M441 149 L441 531 Q441 574 407.5 600.5 Q374 627 295 627 Q217 627 183.5 600.5 Q150 574 150 531 L150 149 Q150 106 183.5 79.5 Q217 53 295 53 Q374 53 407.5 79.5 Q441 106 441 149 Z M362 804 Q378 804 383 814 Q388 824 388 852 L388 860 Q388 867 392.5 870 Q397 873 404 873 L426 873 Q433 873 436 868 Q439 863 439 856 L439 833 Q439 789 416.5 770 Q394 751 365 751 Q355 751 339.5 755 Q324 759 311 769 L266 801 Q257 808 246.5 813.5 Q236 819 229 819 Q212 819 207 809 Q202 799 202 771 L202 763 Q202 756 198 753 Q194 750 187 750 L164 750 Q157 750 154 754.5 Q151 759 151 767 L151 790 Q151 834 173.5 853 Q196 872 224 872 Q238 872 252.5 867.5 Q267 863 280 854 L324 822 Q334 815 344 809.5 Q354 804 362 804 Z " />
<glyph glyph-name="OE" unicode="&#x152;" horiz-adv-x="870" d="M441 149 L441 531 Q441 575 407.5 602 Q374 629 295 629 Q216 629 183 602 Q150 575 150 531 L150 149 Q150 105 183 78 Q216 51 295 51 Q374 51 407.5 78 Q441 105 441 149 Z M441 15 L441 31 Q417 14 381 3 Q345 -8 295 -8 Q172 -8 125.5 35 Q79 78 79 138 L79 542 Q79 602 125.5 645 Q172 688 295 688 Q345 688 381 677 Q417 666 441 649 L441 665 Q441 672 444.5 676 Q448 680 455 680 L797 680 Q804 680 807.5 676.5 Q811 673 811 666 L811 635 Q811 628 807.5 624.5 Q804 621 797 621 L512 621 L512 385 L779 385 Q786 385 790 382 Q794 379 794 371 L794 342 Q794 335 790 331.5 Q786 328 779 328 L512 328 L512 59 L809 59 Q816 59 819.5 56 Q823 53 823 45 L823 15 Q823 7 819.5 3.5 Q816 0 809 0 L455 0 Q448 0 444.5 4 Q441 8 441 15 Z " />
<glyph glyph-name="oe" unicode="&#x153;" horiz-adv-x="805" d="M560 -8 Q502 -8 464 4 Q426 16 406 38 Q387 16 351 4 Q315 -8 256 -8 Q154 -8 111 27.5 Q68 63 68 120 L68 373 Q68 430 111 466 Q154 502 256 502 Q315 502 351 490 Q387 478 406 456 Q426 478 464 490 Q502 502 560 502 Q662 502 701.5 466 Q741 430 741 373 L741 253 Q741 246 738 242.5 Q735 239 728 239 L444 239 L444 123 Q444 89 468.5 67 Q493 45 560 45 Q626 45 651 67 Q676 89 676 123 L676 141 Q676 148 679.5 152 Q683 156 691 156 L725 156 Q732 156 735.5 152 Q739 148 739 141 L739 120 Q739 63 700.5 27.5 Q662 -8 560 -8 Z M444 371 L444 288 L676 288 L676 371 Q676 405 651 427 Q626 449 560 449 Q493 449 468.5 427 Q444 405 444 371 Z M376 125 L376 369 Q376 403 349 424.5 Q322 446 256 446 Q190 446 163.5 424.5 Q137 403 137 369 L137 125 Q137 90 163.5 69 Q190 48 256 48 Q322 48 349 69 Q376 90 376 125 Z " />
<glyph glyph-name="endash" unicode="&#x2013;" horiz-adv-x="521" d="M82 318 L440 318 Q447 318 451 314.5 Q455 311 455 304 L455 275 Q455 267 451 263.5 Q447 260 440 260 L82 260 Q74 260 70.5 263.5 Q67 267 67 275 L67 304 Q67 311 70.5 314.5 Q74 318 82 318 Z " />
<glyph glyph-name="emdash" unicode="&#x2014;" horiz-adv-x="831" d="M82 318 L749 318 Q756 318 760 314.5 Q764 311 764 304 L764 275 Q764 267 760 263.5 Q756 260 749 260 L82 260 Q74 260 70.5 263.5 Q67 267 67 275 L67 304 Q67 311 70.5 314.5 Q74 318 82 318 Z " />
<glyph glyph-name="quotedblleft" unicode="&#x201c;" horiz-adv-x="385" d="M288 604 L288 543 Q288 536 284.5 532 Q281 528 274 528 L231 528 Q224 528 220.5 532 Q217 536 217 543 L217 607 Q217 651 242 682.5 Q267 714 318 729 Q325 731 329 729 Q333 727 336 720 L346 691 Q349 684 346.5 679.5 Q344 675 337 672 Q309 660 298.5 643.5 Q288 627 288 604 Z M130 604 L130 543 Q130 536 126.5 532 Q123 528 116 528 L73 528 Q66 528 62.5 532 Q59 536 59 543 L59 607 Q59 651 84 682.5 Q109 714 160 729 Q167 731 171 729 Q175 727 178 720 L188 691 Q191 684 188.5 679.5 Q186 675 179 672 Q151 660 140.5 643.5 Q130 627 130 604 Z " />
<glyph glyph-name="quotedblright" unicode="&#x201d;" horiz-adv-x="385" d="M107 653 L107 714 Q107 721 110.5 725 Q114 729 121 729 L164 729 Q171 729 174.5 725 Q178 721 178 714 L178 650 Q178 606 153 574.5 Q128 543 77 528 Q70 526 66 528 Q62 530 59 537 L49 566 Q46 573 48.5 577.5 Q51 582 58 585 Q86 597 96.5 613.5 Q107 630 107 653 Z M265 653 L265 714 Q265 721 268.5 725 Q272 729 279 729 L322 729 Q329 729 332.5 725 Q336 721 336 714 L336 650 Q336 606 311 574.5 Q286 543 235 528 Q228 526 224 528 Q220 530 217 537 L207 566 Q204 573 206.5 577.5 Q209 582 216 585 Q244 597 254.5 613.5 Q265 630 265 653 Z " />
<glyph glyph-name="quoteleft" unicode="&#x2018;" horiz-adv-x="227" d="M130 604 L130 543 Q130 536 126.5 532 Q123 528 116 528 L73 528 Q66 528 62.5 532 Q59 536 59 543 L59 607 Q59 651 84 682.5 Q109 714 160 729 Q167 731 171 729 Q175 727 178 720 L188 691 Q191 684 188.5 679.5 Q186 675 179 672 Q151 660 140.5 643.5 Q130 627 130 604 Z " />
<glyph glyph-name="quoteright" unicode="&#x2019;" horiz-adv-x="228" d="M107 653 L107 714 Q107 721 110.5 725 Q114 729 121 729 L164 729 Q171 729 174.5 725 Q178 721 178 714 L178 650 Q178 606 153 574.5 Q128 543 77 528 Q70 526 66 528 Q62 530 59 537 L49 566 Q46 573 48.5 577.5 Q51 582 58 585 Q86 597 96.5 613.5 Q107 630 107 653 Z " />
<glyph glyph-name="divide" unicode="&#xf7;" horiz-adv-x="555" d="M312 528 L312 450 Q312 442 308.5 438.5 Q305 435 298 435 L257 435 Q249 435 245.5 438.5 Q242 442 242 450 L242 528 Q242 535 245.5 539 Q249 543 257 543 L298 543 Q305 543 308.5 539 Q312 535 312 528 Z M76 349 L478 349 Q484 349 488 346 Q492 343 492 335 L492 305 Q492 298 489 294 Q486 290 478 290 L77 290 Q69 290 65.5 293.5 Q62 297 62 305 L62 335 Q62 343 65.5 346 Q69 349 76 349 Z M312 193 L312 115 Q312 107 308.5 103.5 Q305 100 298 100 L257 100 Q249 100 245.5 103.5 Q242 107 242 115 L242 193 Q242 200 245.5 204 Q249 208 257 208 L298 208 Q305 208 308.5 204 Q312 200 312 193 Z " />
<glyph glyph-name="lozenge" unicode="&#x25ca;" horiz-adv-x="379" d="M59 331 L174 446 Q178 450 181.5 451.5 Q185 453 189 453 Q193 453 197 451.5 Q201 450 205 446 L320 331 Q324 327 325.5 323 Q327 319 327 315 Q327 311 325.5 307.5 Q324 304 320 300 L205 185 Q201 181 197 178.5 Q193 176 189 176 Q185 176 181.5 178.5 Q178 181 174 185 L59 300 Q55 304 53 307.5 Q51 311 51 315 Q51 319 53 323 Q55 327 59 331 Z " />
<glyph glyph-name="ydieresis" unicode="&#xff;" horiz-adv-x="448" d="M99 479 L212 147 Q217 131 221 114 Q225 97 226 87 Q230 102 234 117.5 Q238 133 242 145 L356 479 Q358 486 362 490 Q366 494 373 494 L411 494 Q418 494 421.5 490 Q425 486 423 479 L195 -192 Q193 -198 189 -202.5 Q185 -207 178 -207 L147 -207 Q139 -207 135.5 -203 Q132 -199 134 -192 L195 -4 L28 479 Q26 486 29.5 490 Q33 494 41 494 L82 494 Q89 494 93 490 Q97 486 99 479 Z M308 688 L308 591 Q308 584 304.5 580.5 Q301 577 294 577 L269 577 Q262 577 258.5 580.5 Q255 584 255 591 L255 688 Q255 695 258.5 699 Q262 703 269 703 L294 703 Q301 703 304.5 699 Q308 695 308 688 Z M201 688 L201 591 Q201 584 197.5 580.5 Q194 577 187 577 L162 577 Q155 577 151 580.5 Q147 584 147 591 L147 688 Q147 695 151 699 Q155 703 162 703 L187 703 Q194 703 197.5 699 Q201 695 201 688 Z " />
<glyph glyph-name="Ydieresis" unicode="&#x178;" horiz-adv-x="522" d="M104 665 L251 375 Q254 369 258 358 Q262 347 265 337 Q267 344 271.5 354.5 Q276 365 281 375 L432 665 Q435 671 439 675.5 Q443 680 450 680 L492 680 Q499 680 503 676 Q507 672 503 665 L301 277 L301 15 Q301 8 297.5 4 Q294 0 287 0 L244 0 Q237 0 233.5 4 Q230 8 230 15 L230 269 L27 665 Q23 672 26.5 676 Q30 680 38 680 L85 680 Q93 680 97 676 Q101 672 104 665 Z M342 856 L342 759 Q342 751 338.5 747.5 Q335 744 327 744 L303 744 Q295 744 291.5 747.5 Q288 751 288 759 L288 856 Q288 863 291.5 866.5 Q295 870 303 870 L327 870 Q335 870 338.5 866.5 Q342 863 342 856 Z M234 856 L234 759 Q234 751 231 747.5 Q228 744 220 744 L196 744 Q188 744 184.5 747.5 Q181 751 181 759 L181 856 Q181 863 184.5 866.5 Q188 870 196 870 L220 870 Q228 870 231 866.5 Q234 863 234 856 Z " />
<glyph glyph-name="fraction" unicode="&#x2044;" horiz-adv-x="94" d="M233 673 L-79 7 Q-83 -1 -88 -4.5 Q-93 -8 -100 -8 L-132 -8 Q-139 -8 -140 -2.5 Q-141 3 -139 7 L174 673 Q177 679 182.5 683.5 Q188 688 195 688 L226 688 Q233 688 234.5 683.5 Q236 679 233 673 Z " />
<glyph glyph-name="currency" unicode="&#xa4;" horiz-adv-x="630" d="M428 290 L428 390 Q428 424 403 444.5 Q378 465 315 465 Q252 465 227 444.5 Q202 424 202 390 L202 290 Q202 256 227 235.5 Q252 215 315 215 Q378 215 403 235.5 Q428 256 428 290 Z M105 94 Q100 89 94.5 88.5 Q89 88 84 93 L68 109 Q62 115 62.5 120 Q63 125 68 130 L159 221 Q150 234 145.5 250.5 Q141 267 141 286 L141 394 Q141 413 145.5 429.5 Q150 446 159 460 L69 550 Q63 556 63 560.5 Q63 565 69 571 L85 587 Q90 592 95 592.5 Q100 593 106 587 L200 493 Q220 503 249 509 Q278 515 315 515 Q353 515 382 509 Q411 503 431 493 L525 587 Q531 593 536 592.5 Q541 592 546 587 L562 571 Q568 565 568 560.5 Q568 556 562 550 L471 459 Q481 446 485.5 429.5 Q490 413 490 394 L490 286 Q490 267 485.5 250.5 Q481 234 471 220 L561 130 Q566 124 567 119 Q568 114 562 109 L545 93 Q540 89 535 89 Q530 89 525 94 L432 187 Q411 177 382 171 Q353 165 315 165 Q277 165 248 171 Q219 177 198 187 L105 94 Z " />
<glyph glyph-name="guilsinglleft" unicode="&#x2039;" horiz-adv-x="328" d="M245 351 L102 245 L245 140 Q251 136 255 130 Q259 124 259 117 L259 74 Q259 67 254 64.5 Q249 62 245 66 L60 205 Q54 209 50 214.5 Q46 220 46 228 L46 262 Q46 271 50 276 Q54 281 60 285 L245 424 Q250 428 254.5 426 Q259 424 259 416 L259 373 Q259 365 255 360 Q251 355 245 351 Z " />
<glyph glyph-name="guilsinglright" unicode="&#x203a;" horiz-adv-x="328" d="M226 245 L83 351 Q77 355 73 360 Q69 365 69 373 L69 416 Q69 424 73.5 426 Q78 428 83 424 L268 285 Q274 281 278 276 Q282 271 282 262 L282 228 Q282 220 278 214.5 Q274 209 268 205 L83 66 Q79 62 74 64.5 Q69 67 69 74 L69 117 Q69 124 73 130 Q77 136 83 140 L226 245 Z " />
<glyph glyph-name="fi" unicode="&#xfb01;" horiz-adv-x="544" d="M467 477 L467 15 Q467 8 464 4 Q461 0 453 0 L412 0 Q405 0 401.5 4 Q398 8 398 15 L398 435 L173 435 L173 15 Q173 8 169.5 4 Q166 0 159 0 L118 0 Q111 0 107.5 4 Q104 8 104 15 L104 435 L41 435 Q34 435 30.5 439 Q27 443 27 450 L27 474 Q27 481 30.5 484.5 Q34 488 41 489 L95 492 L104 492 L104 570 Q104 627 146 663 Q188 699 290 699 L433 699 Q440 699 443.5 695.5 Q447 692 447 684 L447 655 Q447 647 443.5 643.5 Q440 640 433 640 L290 640 Q224 640 198.5 619 Q173 598 173 563 L173 492 L452 492 Q460 492 463.5 488.5 Q467 485 467 477 Z " />
<glyph glyph-name="fl" unicode="&#xfb02;" horiz-adv-x="544" d="M467 684 L467 15 Q467 8 464 4 Q461 0 453 0 L412 0 Q405 0 401.5 4 Q398 8 398 15 L398 640 L290 640 Q224 640 198.5 619 Q173 598 173 563 L173 492 L282 492 Q289 492 293 488.5 Q297 485 297 478 L297 450 Q297 443 293 439 Q289 435 282 435 L173 435 L173 15 Q173 8 169.5 4 Q166 0 159 0 L118 0 Q111 0 107.5 4 Q104 8 104 15 L104 435 L41 435 Q34 435 30.5 439 Q27 443 27 450 L27 474 Q27 481 30.5 484.5 Q34 488 41 489 L95 492 L104 492 L104 570 Q104 627 146 663 Q188 699 290 699 L452 699 Q460 699 463.5 695.5 Q467 692 467 684 Z " />
<glyph glyph-name="daggerdbl" unicode="&#x2021;" horiz-adv-x="466" d="M268 684 L268 15 Q268 8 264.5 4 Q261 0 254 0 L213 0 Q206 0 202.5 4 Q199 8 199 15 L199 684 Q199 691 202.5 695 Q206 699 213 699 L254 699 Q261 699 264.5 695 Q268 691 268 684 Z M304 501 L418 501 Q425 501 429 497.5 Q433 494 433 487 L433 457 Q433 450 429 446.5 Q425 443 418 443 L304 443 Q296 443 292 446.5 Q288 450 288 457 L288 487 Q288 494 292 497.5 Q296 501 304 501 Z M48 501 L162 501 Q169 501 173 497.5 Q177 494 177 487 L177 457 Q177 450 173 446.5 Q169 443 162 443 L48 443 Q41 443 37 446.5 Q33 450 33 457 L33 487 Q33 494 37 497.5 Q41 501 48 501 Z M304 256 L418 256 Q425 256 429 252.5 Q433 249 433 242 L433 212 Q433 205 429 201 Q425 197 418 197 L304 197 Q296 197 292 201 Q288 205 288 212 L288 242 Q288 249 292 252.5 Q296 256 304 256 Z M48 256 L162 256 Q169 256 173 252.5 Q177 249 177 242 L177 212 Q177 205 173 201 Q169 197 162 197 L48 197 Q41 197 37 201 Q33 205 33 212 L33 242 Q33 249 37 252.5 Q41 256 48 256 Z " />
<glyph glyph-name="middot" unicode="&#xb7;" horiz-adv-x="218" d="M144 304 L144 226 Q144 218 140.5 214.5 Q137 211 130 211 L89 211 Q81 211 77.5 214.5 Q74 218 74 226 L74 304 Q74 311 77.5 315 Q81 319 89 319 L130 319 Q137 319 140.5 315 Q144 311 144 304 Z " />
<glyph glyph-name="quotesinglbase" unicode="&#x201a;" horiz-adv-x="171" d="M54 32 L54 93 Q54 100 57.5 104 Q61 108 68 108 L111 108 Q118 108 121.5 104 Q125 100 125 93 L125 29 Q125 -15 100 -46.5 Q75 -78 24 -93 Q17 -95 13 -93 Q9 -91 6 -84 L-4 -55 Q-7 -48 -4.5 -43.5 Q-2 -39 5 -36 Q33 -24 43.5 -7.5 Q54 9 54 32 Z " />
<glyph glyph-name="quotedblbase" unicode="&#x201e;" horiz-adv-x="329" d="M54 32 L54 93 Q54 100 57.5 104 Q61 108 68 108 L111 108 Q118 108 121.5 104 Q125 100 125 93 L125 29 Q125 -15 100 -46.5 Q75 -78 24 -93 Q17 -95 13 -93 Q9 -91 6 -84 L-4 -55 Q-7 -48 -4.5 -43.5 Q-2 -39 5 -36 Q33 -24 43.5 -7.5 Q54 9 54 32 Z M212 32 L212 93 Q212 100 215.5 104 Q219 108 226 108 L269 108 Q276 108 279.5 104 Q283 100 283 93 L283 29 Q283 -15 258 -46.5 Q233 -78 182 -93 Q175 -95 171 -93 Q167 -91 164 -84 L154 -55 Q151 -48 153.5 -43.5 Q156 -39 163 -36 Q191 -24 201.5 -7.5 Q212 9 212 32 Z " />
<glyph glyph-name="perthousand" unicode="&#x2030;" horiz-adv-x="1049" d="M553 673 L241 7 Q237 -1 232 -4.5 Q227 -8 220 -8 L188 -8 Q181 -8 180 -2.5 Q179 3 181 7 L494 673 Q497 679 502.5 683.5 Q508 688 515 688 L546 688 Q553 688 554.5 683.5 Q556 679 553 673 Z M53 414 L53 597 Q53 632 79 658 Q105 684 176 684 Q247 684 273 658 Q299 632 299 597 L299 414 Q299 380 273 353.5 Q247 327 176 327 Q105 327 79 353.5 Q53 380 53 414 Z M242 422 L242 589 Q242 612 227.5 624.5 Q213 637 176 637 Q139 637 124 624.5 Q109 612 109 589 L109 422 Q109 400 124 387 Q139 374 176 374 Q213 374 227.5 387 Q242 400 242 422 Z M750 83 L750 266 Q750 300 776.5 326.5 Q803 353 874 353 Q944 353 970 326.5 Q996 300 996 266 L996 83 Q996 48 970 22 Q944 -4 874 -4 Q803 -4 776.5 22 Q750 48 750 83 Z M441 83 L441 266 Q441 300 467.5 326.5 Q494 353 565 353 Q636 353 662 326.5 Q688 300 688 266 L688 83 Q688 48 662 22 Q636 -4 565 -4 Q494 -4 467.5 22 Q441 48 441 83 Z M940 91 L940 258 Q940 281 925 293.5 Q910 306 874 306 Q836 306 821.5 293.5 Q807 281 807 258 L807 91 Q807 68 821.5 55.5 Q836 43 874 43 Q910 43 925 55.5 Q940 68 940 91 Z M631 91 L631 258 Q631 281 616.5 293.5 Q602 306 565 306 Q528 306 513 293.5 Q498 281 498 258 L498 91 Q498 68 513 55.5 Q528 43 565 43 Q602 43 616.5 55.5 Q631 68 631 91 Z " />
<glyph glyph-name="Acircumflex" unicode="&#xc2;" horiz-adv-x="531" d="M364 250 L292 484 Q282 515 275 553.5 Q268 592 266 607 Q264 594 256 551.5 Q248 509 241 486 L167 250 L364 250 Z M246 680 L289 680 Q297 680 301.5 676 Q306 672 308 665 L507 15 Q509 8 506 4 Q503 0 496 0 L452 0 Q445 0 441 4 Q437 8 435 15 L380 193 L151 193 L97 15 Q95 8 91 4 Q87 0 79 0 L39 0 Q32 0 29 4 Q26 8 28 15 L227 665 Q229 672 234 676 Q239 680 246 680 Z M267 834 L214 752 Q211 747 206 742.5 Q201 738 194 738 L162 738 Q155 738 152.5 742 Q150 746 154 752 L231 863 Q235 869 241 873.5 Q247 878 254 878 L280 878 Q287 878 293 874 Q299 870 303 864 L380 752 Q384 746 382 742 Q380 738 372 738 L340 738 Q333 738 328.5 742 Q324 746 320 752 L267 834 Z " />
<glyph glyph-name="Ecircumflex" unicode="&#xca;" horiz-adv-x="520" d="M274 834 L221 752 Q218 747 213 742.5 Q208 738 201 738 L169 738 Q162 738 159.5 742 Q157 746 161 752 L238 863 Q242 869 248 873.5 Q254 878 261 878 L287 878 Q294 878 300 874 Q306 870 310 864 L387 752 Q391 746 389 742 Q387 738 379 738 L347 738 Q340 738 335.5 742 Q331 746 327 752 L274 834 Z M458 0 L104 0 Q97 0 94 4 Q91 8 91 15 L91 665 Q91 672 94.5 676 Q98 680 105 680 L446 680 Q453 680 457 676.5 Q461 673 461 665 L461 634 Q461 626 457 622.5 Q453 619 446 619 L161 619 L161 386 L428 386 Q436 386 439.5 382.5 Q443 379 443 371 L443 342 Q443 334 439.5 330.5 Q436 327 428 327 L161 327 L161 61 L458 61 Q465 61 469 57.5 Q473 54 473 47 L473 15 Q473 7 469 3.5 Q465 0 458 0 Z " />
<glyph glyph-name="Aacute" unicode="&#xc1;" horiz-adv-x="531" d="M364 250 L292 484 Q282 515 275 553.5 Q268 592 266 607 Q264 594 256 551.5 Q248 509 241 486 L167 250 L364 250 Z M246 680 L289 680 Q297 680 301.5 676 Q306 672 308 665 L507 15 Q509 8 506 4 Q503 0 496 0 L452 0 Q445 0 441 4 Q437 8 435 15 L380 193 L151 193 L97 15 Q95 8 91 4 Q87 0 79 0 L39 0 Q32 0 29 4 Q26 8 28 15 L227 665 Q229 672 234 676 Q239 680 246 680 Z M382 863 L303 747 Q301 744 296.5 741 Q292 738 284 738 L251 738 Q244 738 242 741.5 Q240 745 244 752 L311 864 Q315 870 319 874 Q323 878 330 878 L374 878 Q382 878 384 873.5 Q386 869 382 863 Z " />
<glyph glyph-name="Edieresis" unicode="&#xcb;" horiz-adv-x="520" d="M458 0 L104 0 Q97 0 94 4 Q91 8 91 15 L91 665 Q91 672 94.5 676 Q98 680 105 680 L446 680 Q453 680 457 676.5 Q461 673 461 665 L461 634 Q461 626 457 622.5 Q453 619 446 619 L161 619 L161 386 L428 386 Q436 386 439.5 382.5 Q443 379 443 371 L443 342 Q443 334 439.5 330.5 Q436 327 428 327 L161 327 L161 61 L458 61 Q465 61 469 57.5 Q473 54 473 47 L473 15 Q473 7 469 3.5 Q465 0 458 0 Z M357 856 L357 759 Q357 751 353.5 747.5 Q350 744 342 744 L318 744 Q310 744 306.5 747.5 Q303 751 303 759 L303 856 Q303 863 306.5 866.5 Q310 870 318 870 L342 870 Q350 870 353.5 866.5 Q357 863 357 856 Z M249 856 L249 759 Q249 751 246 747.5 Q243 744 235 744 L211 744 Q203 744 199.5 747.5 Q196 751 196 759 L196 856 Q196 863 199.5 866.5 Q203 870 211 870 L235 870 Q243 870 246 866.5 Q249 863 249 856 Z " />
<glyph glyph-name="Egrave" unicode="&#xc8;" horiz-adv-x="520" d="M259 747 L180 863 Q176 869 177.5 873.5 Q179 878 187 878 L231 878 Q239 878 243 874 Q247 870 251 864 L318 752 Q322 745 320 741 Q318 737 311 737 L277 737 Q270 737 265.5 740.5 Q261 744 259 747 Z M458 0 L104 0 Q97 0 94 4 Q91 8 91 15 L91 665 Q91 672 94.5 676 Q98 680 105 680 L446 680 Q453 680 457 676.5 Q461 673 461 665 L461 634 Q461 626 457 622.5 Q453 619 446 619 L161 619 L161 386 L428 386 Q436 386 439.5 382.5 Q443 379 443 371 L443 342 Q443 334 439.5 330.5 Q436 327 428 327 L161 327 L161 61 L458 61 Q465 61 469 57.5 Q473 54 473 47 L473 15 Q473 7 469 3.5 Q465 0 458 0 Z " />
<glyph glyph-name="Iacute" unicode="&#xcd;" horiz-adv-x="252" d="M161 665 L161 15 Q161 8 158 4 Q155 0 147 0 L105 0 Q98 0 94.5 4 Q91 8 91 15 L91 665 Q91 672 94.5 676 Q98 680 105 680 L147 680 Q155 680 158 676 Q161 672 161 665 Z M239 863 L160 747 Q158 744 153.5 741 Q149 738 141 738 L108 738 Q101 738 99 741.5 Q97 745 101 752 L168 864 Q172 870 176 874 Q180 878 187 878 L231 878 Q239 878 241 873.5 Q243 869 239 863 Z " />
<glyph glyph-name="Icircumflex" unicode="&#xce;" horiz-adv-x="252" d="M161 665 L161 15 Q161 8 158 4 Q155 0 147 0 L105 0 Q98 0 94.5 4 Q91 8 91 15 L91 665 Q91 672 94.5 676 Q98 680 105 680 L147 680 Q155 680 158 676 Q161 672 161 665 Z M128 834 L75 752 Q72 747 67 742.5 Q62 738 55 738 L23 738 Q16 738 13.5 742 Q11 746 15 752 L92 863 Q96 869 102 873.5 Q108 878 115 878 L141 878 Q148 878 154 874 Q160 870 164 864 L241 752 Q245 746 243 742 Q241 738 233 738 L201 738 Q194 738 189.5 742 Q185 746 181 752 L128 834 Z " />
<glyph glyph-name="Idieresis" unicode="&#xcf;" horiz-adv-x="252" d="M161 665 L161 15 Q161 8 158 4 Q155 0 147 0 L105 0 Q98 0 94.5 4 Q91 8 91 15 L91 665 Q91 672 94.5 676 Q98 680 105 680 L147 680 Q155 680 158 676 Q161 672 161 665 Z M207 856 L207 759 Q207 751 203.5 747.5 Q200 744 192 744 L168 744 Q160 744 156.5 747.5 Q153 751 153 759 L153 856 Q153 863 156.5 866.5 Q160 870 168 870 L192 870 Q200 870 203.5 866.5 Q207 863 207 856 Z M99 856 L99 759 Q99 751 96 747.5 Q93 744 85 744 L61 744 Q53 744 49.5 747.5 Q46 751 46 759 L46 856 Q46 863 49.5 866.5 Q53 870 61 870 L85 870 Q93 870 96 866.5 Q99 863 99 856 Z " />
<glyph glyph-name="Igrave" unicode="&#xcc;" horiz-adv-x="252" d="M161 665 L161 15 Q161 8 158 4 Q155 0 147 0 L105 0 Q98 0 94.5 4 Q91 8 91 15 L91 665 Q91 672 94.5 676 Q98 680 105 680 L147 680 Q155 680 158 676 Q161 672 161 665 Z M92 747 L13 863 Q9 869 10.5 873.5 Q12 878 20 878 L64 878 Q72 878 76 874 Q80 870 84 864 L151 752 Q155 745 153 741 Q151 737 144 737 L110 737 Q103 737 98.5 740.5 Q94 744 92 747 Z " />
<glyph glyph-name="Oacute" unicode="&#xd3;" horiz-adv-x="591" d="M401 863 L322 747 Q320 744 315.5 741 Q311 738 303 738 L270 738 Q263 738 261 741.5 Q259 745 263 752 L330 864 Q334 870 338 874 Q342 878 349 878 L393 878 Q401 878 403 873.5 Q405 869 401 863 Z M79 138 L79 542 Q79 602 126 645 Q173 688 295 688 Q419 688 465.5 645 Q512 602 512 542 L512 138 Q512 78 465.5 35 Q419 -8 295 -8 Q173 -8 126 35 Q79 78 79 138 Z M441 149 L441 531 Q441 574 407.5 600.5 Q374 627 295 627 Q217 627 183.5 600.5 Q150 574 150 531 L150 149 Q150 106 183.5 79.5 Q217 53 295 53 Q374 53 407.5 79.5 Q441 106 441 149 Z " />
<glyph glyph-name="Ocircumflex" unicode="&#xd4;" horiz-adv-x="591" d="M297 834 L244 752 Q241 747 236 742.5 Q231 738 224 738 L192 738 Q185 738 182.5 742 Q180 746 184 752 L261 863 Q265 869 271 873.5 Q277 878 284 878 L310 878 Q317 878 323 874 Q329 870 333 864 L410 752 Q414 746 412 742 Q410 738 402 738 L370 738 Q363 738 358.5 742 Q354 746 350 752 L297 834 Z M79 138 L79 542 Q79 602 126 645 Q173 688 295 688 Q419 688 465.5 645 Q512 602 512 542 L512 138 Q512 78 465.5 35 Q419 -8 295 -8 Q173 -8 126 35 Q79 78 79 138 Z M441 149 L441 531 Q441 574 407.5 600.5 Q374 627 295 627 Q217 627 183.5 600.5 Q150 574 150 531 L150 149 Q150 106 183.5 79.5 Q217 53 295 53 Q374 53 407.5 79.5 Q441 106 441 149 Z " />
<glyph glyph-name="apple" unicode="&#xf8ff;" horiz-adv-x="1486" d="M72 529 L72 537 L1410 537 L1410 529 L72 529 Z M1216 332 L1187 330 L1187 334 Q1187 339 1189 346.5 Q1191 354 1199 354 L1216 354 L1213 384 Q1215 385 1225.5 388.5 Q1236 392 1245 392 Q1249 392 1252.5 390 Q1256 388 1256 384 L1256 355 L1303 355 L1303 352 Q1303 346 1301 338.5 Q1299 331 1291 331 L1256 331 L1256 241 Q1256 235 1259 230.5 Q1262 226 1272 226 Q1290 226 1310.5 231.5 Q1331 237 1357 237 Q1367 237 1393 232 Q1419 227 1419 213 Q1419 197 1408 191 Q1397 185 1392 185 Q1385 185 1365.5 197 Q1346 209 1321 209 Q1308 209 1289 205 Q1270 201 1245 201 Q1220 201 1219 223.5 Q1218 246 1216 332 Z M1175 258 Q1163 254 1151 253 Q1139 252 1131 252 Q1132 242 1139.5 236 Q1147 230 1157 230 Q1166 230 1174 232.5 Q1182 235 1189 239 Q1193 236 1195 231.5 Q1197 227 1197 223 Q1197 219 1189 209.5 Q1181 200 1150 200 Q1122 200 1106 215 Q1090 230 1090 253 Q1090 278 1107.5 299.5 Q1125 321 1159 321 Q1180 321 1190 310.5 Q1200 300 1200 290 Q1200 278 1194 270 Q1188 262 1175 258 Z M852 258 Q840 254 828 253 Q816 252 808 252 Q809 242 816.5 236 Q824 230 834 230 Q843 230 851 232.5 Q859 235 866 239 Q870 236 872 231.5 Q874 227 874 223 Q874 219 866 209.5 Q858 200 827 200 Q799 200 783 215 Q767 230 767 253 Q767 278 784.5 299.5 Q802 321 836 321 Q857 321 867 310.5 Q877 300 877 290 Q877 278 871 270 Q865 262 852 258 Z M153 258 Q141 254 129 253 Q117 252 109 252 Q110 242 117.5 236 Q125 230 135 230 Q144 230 152 232.5 Q160 235 167 239 Q171 236 173 231.5 Q175 227 175 223 Q175 219 167 209.5 Q159 200 128 200 Q100 200 84 215 Q68 230 68 253 Q68 278 85.5 299.5 Q103 321 137 321 Q158 321 168 310.5 Q178 300 178 290 Q178 278 172 270 Q166 262 153 258 Z M1074 289 L1074 240 L1076 208 Q1074 207 1063.5 203.5 Q1053 200 1045 200 Q1041 200 1037.5 202 Q1034 204 1034 208 L1034 275 Q1034 278 1033 284 Q1032 290 1026 290 Q1019 290 1009.5 272.5 Q1000 255 1000 242 L1003 208 Q1001 207 990.5 203.5 Q980 200 971 200 Q967 200 963.5 202 Q960 204 960 208 L960 277 L957 313 Q959 314 969.5 317.5 Q980 321 989 321 Q993 321 996.5 318.5 Q1000 316 1000 312 L1000 272 Q1004 282 1015 301.5 Q1026 321 1045 321 Q1061 321 1067.5 311.5 Q1074 302 1074 289 Z M383 289 L383 240 L386 208 Q384 207 373.5 203.5 Q363 200 355 200 Q351 200 347.5 202 Q344 204 344 208 L344 274 Q344 278 343 284 Q342 290 336 290 Q329 290 319 272.5 Q309 255 310 242 L312 208 Q310 207 299.5 203.5 Q289 200 281 200 Q277 200 273.5 202 Q270 204 270 208 L270 274 Q270 278 269 284 Q268 290 262 290 Q255 290 245.5 272.5 Q236 255 236 242 L239 208 Q237 207 226.5 203.5 Q216 200 207 200 Q203 200 199.5 202 Q196 204 196 208 L196 277 L193 313 Q195 314 205.5 317.5 Q216 321 225 321 Q229 321 232.5 318.5 Q236 316 236 312 L236 272 Q239 282 250.5 301.5 Q262 321 281 321 Q297 321 303.5 311.5 Q310 302 310 289 L310 272 Q313 282 324 301.5 Q335 321 355 321 Q371 321 377 311.5 Q383 302 383 289 Z M807 264 Q820 264 832 269 Q844 274 844 285 Q844 288 842 293 Q840 298 831 298 Q821 298 814.5 287 Q808 276 807 264 Z M1130 264 Q1143 264 1155 269 Q1167 274 1167 285 Q1167 288 1165 293 Q1163 298 1154 298 Q1144 298 1137.5 287 Q1131 276 1130 264 Z M108 264 Q121 264 133 269 Q145 274 145 285 Q145 288 143 293 Q141 298 132 298 Q122 298 115.5 287 Q109 276 108 264 Z M667 219 Q683 221 697.5 231.5 Q712 242 712 270 Q712 277 709 283.5 Q706 290 699 290 Q685 290 676 269.5 Q667 249 667 242 L667 219 Z M917 250 Q927 250 935 243 Q943 236 943 226 Q943 216 935 209.5 Q927 203 917 203 Q907 203 899.5 209.5 Q892 216 892 226 Q892 236 899.5 243 Q907 250 917 250 Z M714 320 Q730 320 742 307 Q754 294 754 269 Q754 240 733.5 220.5 Q713 201 667 201 L667 161 L670 129 Q668 128 657.5 124.5 Q647 121 638 121 Q634 121 630.5 123 Q627 125 627 129 L627 204 L602 201 L602 198 Q602 170 588 144.5 Q574 119 534 119 Q511 119 502 130.5 Q493 142 493 153 Q493 178 517 189.5 Q541 201 563 206 L563 248 Q559 238 548 219 Q537 200 517 200 Q501 200 495 209 Q489 218 489 231 L489 234 Q483 224 470.5 212.5 Q458 201 436 201 Q423 201 415 209.5 Q407 218 407 231 L407 332 L378 330 L378 334 Q378 339 380 346.5 Q382 354 390 354 L407 354 L404 384 Q406 385 416.5 388.5 Q427 392 436 392 Q440 392 443.5 390 Q447 388 447 384 L447 355 L494 355 L494 352 Q494 346 492 338.5 Q490 331 482 331 L447 331 L447 245 Q447 239 449.5 234 Q452 229 460 229 Q468 229 478.5 236.5 Q489 244 489 255 L489 280 L486 313 Q488 314 498.5 317.5 Q509 321 518 321 Q522 321 525.5 318.5 Q529 316 529 312 L529 246 Q529 242 530 236.5 Q531 231 536 231 Q543 231 552.5 248.5 Q562 266 562 279 L560 313 Q562 314 572.5 317.5 Q583 321 591 321 Q595 321 598.5 318.5 Q602 316 602 312 L602 213 L627 216 L627 277 L624 313 Q626 314 636.5 317.5 Q647 321 656 321 Q660 321 663.5 318.5 Q667 316 667 312 L667 272 Q671 282 682 301 Q693 320 714 320 Z M562 194 Q552 192 536.5 184.5 Q521 177 521 162 Q521 155 525.5 151.5 Q530 148 535 148 Q551 148 556 163.5 Q561 179 562 194 Z M72 0 L72 8 L1410 8 L1410 0 L72 0 Z " />
<glyph glyph-name="Ograve" unicode="&#xd2;" horiz-adv-x="591" d="M262 747 L183 863 Q179 869 180.5 873.5 Q182 878 190 878 L234 878 Q242 878 246 874 Q250 870 254 864 L321 752 Q325 745 323 741 Q321 737 314 737 L280 737 Q273 737 268.5 740.5 Q264 744 262 747 Z M79 138 L79 542 Q79 602 126 645 Q173 688 295 688 Q419 688 465.5 645 Q512 602 512 542 L512 138 Q512 78 465.5 35 Q419 -8 295 -8 Q173 -8 126 35 Q79 78 79 138 Z M441 149 L441 531 Q441 574 407.5 600.5 Q374 627 295 627 Q217 627 183.5 600.5 Q150 574 150 531 L150 149 Q150 106 183.5 79.5 Q217 53 295 53 Q374 53 407.5 79.5 Q441 106 441 149 Z " />
<glyph glyph-name="Uacute" unicode="&#xda;" horiz-adv-x="606" d="M158 665 L158 149 Q158 106 191.5 79.5 Q225 53 303 53 Q382 53 415.5 79.5 Q449 106 449 149 L449 665 Q449 672 452.5 676 Q456 680 464 680 L506 680 Q514 680 517 676 Q520 672 520 665 L520 138 Q520 78 473.5 35 Q427 -8 303 -8 Q181 -8 134 35 Q87 78 87 138 L87 665 Q87 672 91 676 Q95 680 102 680 L144 680 Q151 680 154.5 676 Q158 672 158 665 Z M415 863 L336 747 Q334 744 329.5 741 Q325 738 317 738 L284 738 Q277 738 275 741.5 Q273 745 277 752 L344 864 Q348 870 352 874 Q356 878 363 878 L407 878 Q415 878 417 873.5 Q419 869 415 863 Z " />
<glyph glyph-name="Ucircumflex" unicode="&#xdb;" horiz-adv-x="606" d="M305 834 L252 752 Q249 747 244 742.5 Q239 738 232 738 L200 738 Q193 738 190.5 742 Q188 746 192 752 L269 863 Q273 869 279 873.5 Q285 878 292 878 L318 878 Q325 878 331 874 Q337 870 341 864 L418 752 Q422 746 420 742 Q418 738 410 738 L378 738 Q371 738 366.5 742 Q362 746 358 752 L305 834 Z M158 665 L158 149 Q158 106 191.5 79.5 Q225 53 303 53 Q382 53 415.5 79.5 Q449 106 449 149 L449 665 Q449 672 452.5 676 Q456 680 464 680 L506 680 Q514 680 517 676 Q520 672 520 665 L520 138 Q520 78 473.5 35 Q427 -8 303 -8 Q181 -8 134 35 Q87 78 87 138 L87 665 Q87 672 91 676 Q95 680 102 680 L144 680 Q151 680 154.5 676 Q158 672 158 665 Z " />
<glyph glyph-name="Ugrave" unicode="&#xd9;" horiz-adv-x="606" d="M274 747 L195 863 Q191 869 192.5 873.5 Q194 878 202 878 L246 878 Q254 878 258 874 Q262 870 266 864 L333 752 Q337 745 335 741 Q333 737 326 737 L292 737 Q285 737 280.5 740.5 Q276 744 274 747 Z M158 665 L158 149 Q158 106 191.5 79.5 Q225 53 303 53 Q382 53 415.5 79.5 Q449 106 449 149 L449 665 Q449 672 452.5 676 Q456 680 464 680 L506 680 Q514 680 517 676 Q520 672 520 665 L520 138 Q520 78 473.5 35 Q427 -8 303 -8 Q181 -8 134 35 Q87 78 87 138 L87 665 Q87 672 91 676 Q95 680 102 680 L144 680 Q151 680 154.5 676 Q158 672 158 665 Z " />
<glyph glyph-name="dotlessi" unicode="&#x131;" horiz-adv-x="225" d="M147 479 L147 15 Q147 8 143.5 4 Q140 0 133 0 L92 0 Q85 0 81.5 4 Q78 8 78 15 L78 479 Q78 486 81.5 490 Q85 494 92 494 L133 494 Q140 494 143.5 490 Q147 486 147 479 Z " />
<glyph glyph-name="circumflex" unicode="&#x2c6;" horiz-adv-x="347" d="M174 664 L121 582 Q118 577 113 572.5 Q108 568 101 568 L69 568 Q61 568 59 572 Q57 576 61 582 L137 693 Q141 699 147 703.5 Q153 708 160 708 L186 708 Q194 708 199.5 704 Q205 700 209 694 L287 582 Q291 576 288.5 572 Q286 568 279 568 L247 568 Q240 568 235.5 572 Q231 576 227 582 L174 664 Z " />
<glyph glyph-name="tilde" unicode="&#x2dc;" horiz-adv-x="422" d="M281 575 Q271 575 255 579 Q239 583 226 593 L181 625 Q172 632 161.5 637.5 Q151 643 144 643 Q127 643 122 633 Q117 623 117 596 L117 588 Q117 580 113 577 Q109 574 102 574 L79 574 Q72 574 69 578.5 Q66 583 66 591 L66 615 Q66 659 88.5 678 Q111 697 140 697 Q153 697 167.5 692 Q182 687 195 678 L239 646 Q248 639 258.5 633.5 Q269 628 277 628 Q293 628 298 638 Q303 648 303 676 L303 684 Q303 691 307.5 694 Q312 697 319 697 L341 697 Q348 697 351 692.5 Q354 688 354 681 L354 656 Q354 612 332 593.5 Q310 575 281 575 Z " />
<glyph glyph-name="overscore" unicode="&#xaf;" horiz-adv-x="416" d="M82 651 L334 651 Q341 651 345 647.5 Q349 644 349 637 L349 612 Q349 604 345 600.5 Q341 597 334 597 L82 597 Q75 597 71.5 600.5 Q68 604 68 612 L68 637 Q68 644 71.5 647.5 Q75 651 82 651 Z " />
<glyph glyph-name="breve" unicode="&#x2d8;" horiz-adv-x="399" d="M132 683 L132 666 Q132 638 144.5 618.5 Q157 599 199 599 Q242 599 254 618.5 Q266 638 266 666 L266 683 Q266 690 269 693 Q272 696 280 696 L305 696 Q312 696 315 693 Q318 690 318 683 L318 667 Q318 616 291 585.5 Q264 555 198 555 Q131 555 105.5 585.5 Q80 616 80 667 L80 683 Q80 690 83.5 693 Q87 696 94 696 L119 696 Q126 696 129 693 Q132 690 132 683 Z " />
<glyph glyph-name="dotaccent" unicode="&#x2d9;" horiz-adv-x="240" d="M155 675 L155 598 Q155 590 151.5 586.5 Q148 583 141 583 L99 583 Q92 583 88.5 586.5 Q85 590 85 598 L85 675 Q85 683 88.5 686.5 Q92 690 99 690 L141 690 Q148 690 151.5 686.5 Q155 683 155 675 Z " />
<glyph glyph-name="ring" unicode="&#x2da;" horiz-adv-x="373" d="M279 649 L279 624 Q279 593 257 573.5 Q235 554 186 554 Q138 554 116 573.5 Q94 593 94 624 L94 649 Q94 680 116 700 Q138 720 186 720 Q235 720 257 700 Q279 680 279 649 Z M238 631 L238 642 Q238 660 226 671.5 Q214 683 186 683 Q158 683 146 671.5 Q134 660 134 642 L134 631 Q134 613 146 601.5 Q158 590 186 590 Q214 590 226 601.5 Q238 613 238 631 Z " />
<glyph glyph-name="cedilla" unicode="&#xb8;" horiz-adv-x="185" d="M91 -53 L128 -53 Q159 -53 185 -71 Q211 -89 211 -132 Q211 -175 185 -193 Q159 -211 128 -211 L12 -211 Q5 -211 1 -207.5 Q-3 -204 -3 -196 L-3 -181 Q-3 -174 1 -170.5 Q5 -167 12 -167 L118 -167 Q131 -167 145.5 -160.5 Q160 -154 160 -132 Q160 -109 145.5 -103 Q131 -97 118 -97 L56 -97 Q43 -97 39 -92 Q35 -87 37 -78 L59 5 Q60 11 64.5 15 Q69 19 76 18 L95 15 Q102 14 104.5 9 Q107 4 105 -3 L91 -53 Z " />
<glyph glyph-name="hungarumlaut" unicode="&#x2dd;" horiz-adv-x="367" d="M187 693 L125 582 Q121 575 117 571.5 Q113 568 105 568 L74 568 Q67 568 64.5 572 Q62 576 65 582 L120 693 Q123 700 128.5 704 Q134 708 141 708 L177 708 Q185 708 188 703.5 Q191 699 187 693 Z M302 693 L225 581 Q221 576 216 572 Q211 568 204 568 L173 568 Q166 568 164 572 Q162 576 166 582 L236 693 Q240 700 245.5 704 Q251 708 259 708 L295 708 Q303 708 304.5 703.5 Q306 699 302 693 Z " />
<glyph glyph-name="ogonek" unicode="&#x2db;" horiz-adv-x="226" d="M167 -154 L130 -154 Q87 -154 59.5 -134 Q32 -114 32 -75 Q32 -50 47.5 -24 Q63 2 97 23 Q102 27 109.5 29.5 Q117 32 127 29 L145 23 Q151 21 152.5 15.5 Q154 10 147 6 Q112 -12 99.5 -30.5 Q87 -49 87 -64 Q87 -88 104 -96.5 Q121 -105 148 -105 L167 -105 Q175 -105 178.5 -108.5 Q182 -112 182 -119 L182 -139 Q182 -147 178.5 -150.5 Q175 -154 167 -154 Z " />
<glyph glyph-name="caron" unicode="&#x2c7;" horiz-adv-x="347" d="M121 693 L174 611 L227 693 Q231 699 235.5 703.5 Q240 708 247 708 L279 708 Q286 708 288.5 703.5 Q291 699 287 693 L209 582 Q205 576 199.5 572 Q194 568 186 568 L160 568 Q153 568 147 572 Q141 576 137 583 L61 693 Q57 699 59 703.5 Q61 708 69 708 L101 708 Q108 708 112.5 703.5 Q117 699 121 693 Z " />
<glyph glyph-name="uni00A0" unicode="&#xa0;" horiz-adv-x="224" d="" />
<glyph glyph-name="Amacron" unicode="&#x100;" horiz-adv-x="531" d="M364 250 L292 484 Q282 515 275 553.5 Q268 592 266 607 Q264 594 256 551.5 Q248 509 241 486 L167 250 L364 250 Z M246 680 L289 680 Q297 680 301.5 676 Q306 672 308 665 L507 15 Q509 8 506 4 Q503 0 496 0 L452 0 Q445 0 441 4 Q437 8 435 15 L380 193 L151 193 L97 15 Q95 8 91 4 Q87 0 79 0 L39 0 Q32 0 29 4 Q26 8 28 15 L227 665 Q229 672 234 676 Q239 680 246 680 Z M140 827 L391 827 Q398 827 402 823.5 Q406 820 406 812 L406 787 Q406 780 402 776.5 Q398 773 391 773 L140 773 Q133 773 129 776.5 Q125 780 125 787 L125 812 Q125 820 129 823.5 Q133 827 140 827 Z " />
<glyph glyph-name="Abreve" unicode="&#x102;" horiz-adv-x="531" d="M364 250 L292 484 Q282 515 275 553.5 Q268 592 266 607 Q264 594 256 551.5 Q248 509 241 486 L167 250 L364 250 Z M246 680 L289 680 Q297 680 301.5 676 Q306 672 308 665 L507 15 Q509 8 506 4 Q503 0 496 0 L452 0 Q445 0 441 4 Q437 8 435 15 L380 193 L151 193 L97 15 Q95 8 91 4 Q87 0 79 0 L39 0 Q32 0 29 4 Q26 8 28 15 L227 665 Q229 672 234 676 Q239 680 246 680 Z M198 866 L198 849 Q198 821 210.5 801.5 Q223 782 265 782 Q308 782 320 801.5 Q332 821 332 849 L332 866 Q332 873 335 876 Q338 879 346 879 L371 879 Q378 879 381 876 Q384 873 384 866 L384 850 Q384 799 357 768.5 Q330 738 264 738 Q197 738 171.5 768.5 Q146 799 146 850 L146 866 Q146 873 149 876 Q152 879 159 879 L185 879 Q192 879 195 876 Q198 873 198 866 Z " />
<glyph glyph-name="Aogonek" unicode="&#x104;" horiz-adv-x="532" d="M245 680 L289 680 Q296 680 300.5 676 Q305 672 307 665 L507 15 Q509 8 506 4 Q503 0 495 0 L482 0 Q446 0 432 -21 Q418 -42 418 -63 Q418 -82 430.5 -93.5 Q443 -105 472 -105 L497 -105 Q504 -105 508 -108.5 Q512 -112 512 -119 L512 -139 Q512 -147 506.5 -150.5 Q501 -154 493 -154 L456 -154 Q421 -154 392 -136 Q363 -118 363 -74 Q363 -55 378 -24.5 Q393 6 430 27 L379 193 L150 193 L96 15 Q94 8 90 4 Q86 0 79 0 L38 0 Q31 0 28 4 Q25 8 27 15 L226 665 Q228 672 233 676 Q238 680 245 680 Z M363 250 L291 484 Q285 504 276 545 Q267 586 265 607 Q261 577 253.5 541 Q246 505 240 486 L166 250 L363 250 Z " />
<glyph glyph-name="Aringacute" unicode="&#x1fa;" horiz-adv-x="532" d="M265 720 Q215 720 192.5 742 Q170 764 170 795 L170 812 Q170 840 189 861 Q208 882 249 886 L287 951 Q291 957 295.5 960.5 Q300 964 307 964 L351 964 Q359 964 361 959.5 Q363 955 359 949 L310 880 Q336 872 348 853 Q360 834 360 812 L360 795 Q360 764 337.5 742 Q315 720 265 720 Z M317 800 L317 807 Q317 825 305 837 Q293 849 265 849 Q237 849 225.5 837 Q214 825 214 807 L214 800 Q214 782 225.5 770 Q237 758 265 758 Q293 758 305 770 Q317 782 317 800 Z M363 250 L291 484 Q281 515 274 553.5 Q267 592 265 607 Q263 594 255 551.5 Q247 509 240 486 L166 250 L363 250 Z M245 680 L288 680 Q296 680 300.5 676 Q305 672 307 665 L506 15 Q508 8 505 4 Q502 0 495 0 L451 0 Q444 0 440 4 Q436 8 434 15 L379 193 L150 193 L96 15 Q94 8 90 4 Q86 0 78 0 L38 0 Q31 0 28 4 Q25 8 27 15 L226 665 Q228 672 233 676 Q238 680 245 680 Z " />
<glyph glyph-name="Cacute" unicode="&#x106;" horiz-adv-x="553" d="M501 202 L501 138 Q501 78 457 35 Q413 -8 290 -8 Q167 -8 123 35 Q79 78 79 138 L79 542 Q79 602 123 645 Q167 688 290 688 Q413 688 457 645 Q501 602 501 542 L501 491 Q501 483 497.5 479 Q494 475 487 475 L447 475 Q439 475 435.5 479 Q432 483 432 491 L432 531 Q432 574 401 600.5 Q370 627 291 627 Q212 627 181 600.5 Q150 574 150 531 L150 149 Q150 106 181 79.5 Q212 53 291 53 Q370 53 401 79.5 Q432 106 432 149 L432 202 Q432 209 435.5 213 Q439 217 447 217 L487 217 Q494 217 497.5 213 Q501 209 501 202 Z M391 863 L312 747 Q310 744 305.5 741 Q301 738 293 738 L260 738 Q253 738 251 741.5 Q249 745 253 752 L320 864 Q324 870 328 874 Q332 878 339 878 L383 878 Q391 878 393 873.5 Q395 869 391 863 Z " />
<glyph glyph-name="Ccircumflex" unicode="&#x108;" horiz-adv-x="553" d="M501 202 L501 138 Q501 78 457 35 Q413 -8 290 -8 Q167 -8 123 35 Q79 78 79 138 L79 542 Q79 602 123 645 Q167 688 290 688 Q413 688 457 645 Q501 602 501 542 L501 491 Q501 483 497.5 479 Q494 475 487 475 L447 475 Q439 475 435.5 479 Q432 483 432 491 L432 531 Q432 574 401 600.5 Q370 627 291 627 Q212 627 181 600.5 Q150 574 150 531 L150 149 Q150 106 181 79.5 Q212 53 291 53 Q370 53 401 79.5 Q432 106 432 149 L432 202 Q432 209 435.5 213 Q439 217 447 217 L487 217 Q494 217 497.5 213 Q501 209 501 202 Z M287 834 L234 752 Q231 747 226 742.5 Q221 738 214 738 L182 738 Q175 738 172.5 742 Q170 746 174 752 L251 863 Q255 869 261 873.5 Q267 878 274 878 L300 878 Q307 878 313 874 Q319 870 323 864 L400 752 Q404 746 402 742 Q400 738 392 738 L360 738 Q353 738 348.5 742 Q344 746 340 752 L287 834 Z " />
<glyph glyph-name="Cdotaccent" unicode="&#x10a;" horiz-adv-x="553" d="M320 839 L320 760 Q320 753 317 749.5 Q314 746 306 746 L264 746 Q257 746 253.5 749.5 Q250 753 250 760 L250 839 Q250 846 253.5 849.5 Q257 853 264 853 L306 853 Q314 853 317 849.5 Q320 846 320 839 Z M501 202 L501 138 Q501 78 457 35 Q413 -8 290 -8 Q167 -8 123 35 Q79 78 79 138 L79 542 Q79 602 123 645 Q167 688 290 688 Q413 688 457 645 Q501 602 501 542 L501 491 Q501 483 497.5 479 Q494 475 487 475 L447 475 Q439 475 435.5 479 Q432 483 432 491 L432 531 Q432 574 401 600.5 Q370 627 291 627 Q212 627 181 600.5 Q150 574 150 531 L150 149 Q150 106 181 79.5 Q212 53 291 53 Q370 53 401 79.5 Q432 106 432 149 L432 202 Q432 209 435.5 213 Q439 217 447 217 L487 217 Q494 217 497.5 213 Q501 209 501 202 Z " />
<glyph glyph-name="Ccaron" unicode="&#x10c;" horiz-adv-x="553" d="M501 202 L501 138 Q501 78 457 35 Q413 -8 290 -8 Q167 -8 123 35 Q79 78 79 138 L79 542 Q79 602 123 645 Q167 688 290 688 Q413 688 457 645 Q501 602 501 542 L501 491 Q501 483 497.5 479 Q494 475 487 475 L447 475 Q439 475 435.5 479 Q432 483 432 491 L432 531 Q432 574 401 600.5 Q370 627 291 627 Q212 627 181 600.5 Q150 574 150 531 L150 149 Q150 106 181 79.5 Q212 53 291 53 Q370 53 401 79.5 Q432 106 432 149 L432 202 Q432 209 435.5 213 Q439 217 447 217 L487 217 Q494 217 497.5 213 Q501 209 501 202 Z M234 863 L287 781 L340 863 Q344 869 348.5 873.5 Q353 878 360 878 L392 878 Q400 878 402 873.5 Q404 869 400 863 L323 752 Q319 746 313 742 Q307 738 300 738 L274 738 Q267 738 261 742 Q255 746 251 753 L174 863 Q170 869 172.5 873.5 Q175 878 182 878 L214 878 Q221 878 225.5 873.5 Q230 869 234 863 Z " />
<glyph glyph-name="Dcaron" unicode="&#x10e;" horiz-adv-x="601" d="M306 0 L103 0 Q96 0 93.5 4 Q91 8 91 15 L91 665 Q91 672 94 676 Q97 680 104 680 L306 680 Q429 680 476 637 Q523 594 523 534 L523 146 Q523 86 476 43 Q429 0 306 0 Z M306 619 L161 619 L161 61 L306 61 Q386 61 419 87.5 Q452 114 452 157 L452 523 Q452 566 419 592.5 Q386 619 306 619 Z M247 863 L300 781 L353 863 Q357 869 361.5 873.5 Q366 878 373 878 L405 878 Q413 878 415 873.5 Q417 869 413 863 L336 752 Q332 746 326 742 Q320 738 313 738 L287 738 Q280 738 274 742 Q268 746 264 753 L187 863 Q183 869 185.5 873.5 Q188 878 195 878 L227 878 Q234 878 238.5 873.5 Q243 869 247 863 Z " />
<glyph glyph-name="Emacron" unicode="&#x112;" horiz-adv-x="520" d="M458 0 L104 0 Q97 0 94 4 Q91 8 91 15 L91 665 Q91 672 94.5 676 Q98 680 105 680 L446 680 Q453 680 457 676.5 Q461 673 461 665 L461 634 Q461 626 457 622.5 Q453 619 446 619 L161 619 L161 386 L428 386 Q436 386 439.5 382.5 Q443 379 443 371 L443 342 Q443 334 439.5 330.5 Q436 327 428 327 L161 327 L161 61 L458 61 Q465 61 469 57.5 Q473 54 473 47 L473 15 Q473 7 469 3.5 Q465 0 458 0 Z M144 827 L395 827 Q402 827 406 823.5 Q410 820 410 812 L410 787 Q410 780 406 776.5 Q402 773 395 773 L144 773 Q137 773 133 776.5 Q129 780 129 787 L129 812 Q129 820 133 823.5 Q137 827 144 827 Z " />
<glyph glyph-name="Ebreve" unicode="&#x114;" horiz-adv-x="520" d="M458 0 L104 0 Q97 0 94 4 Q91 8 91 15 L91 665 Q91 672 94.5 676 Q98 680 105 680 L446 680 Q453 680 457 676.5 Q461 673 461 665 L461 634 Q461 626 457 622.5 Q453 619 446 619 L161 619 L161 386 L428 386 Q436 386 439.5 382.5 Q443 379 443 371 L443 342 Q443 334 439.5 330.5 Q436 327 428 327 L161 327 L161 61 L458 61 Q465 61 469 57.5 Q473 54 473 47 L473 15 Q473 7 469 3.5 Q465 0 458 0 Z M208 866 L208 849 Q208 821 220.5 801.5 Q233 782 275 782 Q318 782 330 801.5 Q342 821 342 849 L342 866 Q342 873 345 876 Q348 879 356 879 L381 879 Q388 879 391 876 Q394 873 394 866 L394 850 Q394 799 367 768.5 Q340 738 274 738 Q207 738 181.5 768.5 Q156 799 156 850 L156 866 Q156 873 159 876 Q162 879 169 879 L195 879 Q202 879 205 876 Q208 873 208 866 Z " />
<glyph glyph-name="Edotaccent" unicode="&#x116;" horiz-adv-x="520" d="M308 839 L308 760 Q308 753 305 749.5 Q302 746 294 746 L252 746 Q245 746 241.5 749.5 Q238 753 238 760 L238 839 Q238 846 241.5 849.5 Q245 853 252 853 L294 853 Q302 853 305 849.5 Q308 846 308 839 Z M458 0 L104 0 Q97 0 94 4 Q91 8 91 15 L91 665 Q91 672 94.5 676 Q98 680 105 680 L446 680 Q453 680 457 676.5 Q461 673 461 665 L461 634 Q461 626 457 622.5 Q453 619 446 619 L161 619 L161 386 L428 386 Q436 386 439.5 382.5 Q443 379 443 371 L443 342 Q443 334 439.5 330.5 Q436 327 428 327 L161 327 L161 61 L458 61 Q465 61 469 57.5 Q473 54 473 47 L473 15 Q473 7 469 3.5 Q465 0 458 0 Z " />
<glyph glyph-name="Eogonek" unicode="&#x118;" horiz-adv-x="521" d="M458 0 L429 0 Q395 0 379.5 -19.5 Q364 -39 364 -61 Q364 -80 376.5 -92.5 Q389 -105 418 -105 L446 -105 Q453 -105 457 -108.5 Q461 -112 461 -119 L461 -139 Q461 -147 455.5 -150.5 Q450 -154 442 -154 L402 -154 Q367 -154 338 -135 Q309 -116 309 -72 Q309 -56 317 -36 Q325 -16 341 0 L104 0 Q97 0 94 4 Q91 8 91 15 L91 665 Q91 672 94.5 676 Q98 680 105 680 L446 680 Q453 680 457 676.5 Q461 673 461 665 L461 634 Q461 626 457 622.5 Q453 619 446 619 L161 619 L161 386 L428 386 Q436 386 439.5 382.5 Q443 379 443 371 L443 342 Q443 334 439.5 330.5 Q436 327 428 327 L161 327 L161 61 L458 61 Q465 61 469 57.5 Q473 54 473 47 L473 15 Q473 7 469 3.5 Q465 0 458 0 Z " />
<glyph glyph-name="Ecaron" unicode="&#x11a;" horiz-adv-x="520" d="M458 0 L104 0 Q97 0 94 4 Q91 8 91 15 L91 665 Q91 672 94.5 676 Q98 680 105 680 L446 680 Q453 680 457 676.5 Q461 673 461 665 L461 634 Q461 626 457 622.5 Q453 619 446 619 L161 619 L161 386 L428 386 Q436 386 439.5 382.5 Q443 379 443 371 L443 342 Q443 334 439.5 330.5 Q436 327 428 327 L161 327 L161 61 L458 61 Q465 61 469 57.5 Q473 54 473 47 L473 15 Q473 7 469 3.5 Q465 0 458 0 Z M221 863 L274 781 L327 863 Q331 869 335.5 873.5 Q340 878 347 878 L379 878 Q387 878 389 873.5 Q391 869 387 863 L310 752 Q306 746 300 742 Q294 738 287 738 L261 738 Q254 738 248 742 Q242 746 238 753 L161 863 Q157 869 159.5 873.5 Q162 878 169 878 L201 878 Q208 878 212.5 873.5 Q217 869 221 863 Z " />
<glyph glyph-name="Gcircumflex" unicode="&#x11c;" horiz-adv-x="573" d="M285 834 L232 752 Q229 747 224 742.5 Q219 738 212 738 L180 738 Q173 738 170.5 742 Q168 746 172 752 L249 863 Q253 869 259 873.5 Q265 878 272 878 L298 878 Q305 878 311 874 Q317 870 321 864 L398 752 Q402 746 400 742 Q398 738 390 738 L358 738 Q351 738 346.5 742 Q342 746 338 752 L285 834 Z M298 327 L486 327 Q494 327 497.5 323.5 Q501 320 501 313 L501 138 Q501 78 457 35 Q413 -8 290 -8 Q167 -8 123 35 Q79 78 79 138 L79 542 Q79 602 123 645 Q167 688 290 688 Q413 688 457 645 Q501 602 501 542 L501 494 Q501 487 497.5 483.5 Q494 480 487 480 L447 480 Q439 480 435.5 483.5 Q432 487 432 494 L432 531 Q432 574 401 600.5 Q370 627 291 627 Q212 627 181 600.5 Q150 574 150 531 L150 149 Q150 106 181 79.5 Q212 53 291 53 Q369 53 400.5 79 Q432 105 432 148 L432 266 L298 266 Q291 266 287.5 270 Q284 274 284 281 L284 313 Q284 320 287.5 323.5 Q291 327 298 327 Z " />
<glyph glyph-name="Gbreve" unicode="&#x11e;" horiz-adv-x="573" d="M298 327 L486 327 Q494 327 497.5 323.5 Q501 320 501 313 L501 138 Q501 78 457 35 Q413 -8 290 -8 Q167 -8 123 35 Q79 78 79 138 L79 542 Q79 602 123 645 Q167 688 290 688 Q413 688 457 645 Q501 602 501 542 L501 494 Q501 487 497.5 483.5 Q494 480 487 480 L447 480 Q439 480 435.5 483.5 Q432 487 432 494 L432 531 Q432 574 401 600.5 Q370 627 291 627 Q212 627 181 600.5 Q150 574 150 531 L150 149 Q150 106 181 79.5 Q212 53 291 53 Q369 53 400.5 79 Q432 105 432 148 L432 266 L298 266 Q291 266 287.5 270 Q284 274 284 281 L284 313 Q284 320 287.5 323.5 Q291 327 298 327 Z M216 866 L216 849 Q216 821 228.5 801.5 Q241 782 283 782 Q326 782 338 801.5 Q350 821 350 849 L350 866 Q350 873 353 876 Q356 879 364 879 L389 879 Q396 879 399 876 Q402 873 402 866 L402 850 Q402 799 375 768.5 Q348 738 282 738 Q215 738 189.5 768.5 Q164 799 164 850 L164 866 Q164 873 167 876 Q170 879 177 879 L203 879 Q210 879 213 876 Q216 873 216 866 Z " />
<glyph glyph-name="Gdotaccent" unicode="&#x120;" horiz-adv-x="573" d="M318 836 L318 757 Q318 750 315 746.5 Q312 743 304 743 L262 743 Q255 743 251.5 746.5 Q248 750 248 757 L248 836 Q248 843 251.5 846.5 Q255 850 262 850 L304 850 Q312 850 315 846.5 Q318 843 318 836 Z M298 327 L486 327 Q494 327 497.5 323.5 Q501 320 501 313 L501 138 Q501 78 457 35 Q413 -8 290 -8 Q167 -8 123 35 Q79 78 79 138 L79 542 Q79 602 123 645 Q167 688 290 688 Q413 688 457 645 Q501 602 501 542 L501 494 Q501 487 497.5 483.5 Q494 480 487 480 L447 480 Q439 480 435.5 483.5 Q432 487 432 494 L432 531 Q432 574 401 600.5 Q370 627 291 627 Q212 627 181 600.5 Q150 574 150 531 L150 149 Q150 106 181 79.5 Q212 53 291 53 Q369 53 400.5 79 Q432 105 432 148 L432 266 L298 266 Q291 266 287.5 270 Q284 274 284 281 L284 313 Q284 320 287.5 323.5 Q291 327 298 327 Z " />
<glyph glyph-name="Gcommaaccent" unicode="&#x122;" horiz-adv-x="573" d="M263 -92 L263 -64 Q263 -57 266.5 -53 Q270 -49 278 -49 L308 -49 Q316 -49 319.5 -53 Q323 -57 323 -64 L323 -95 Q323 -128 311.5 -158 Q300 -188 284 -213 Q280 -220 275.5 -221 Q271 -222 265 -221 L241 -215 Q234 -214 232.5 -208 Q231 -202 234 -195 Q248 -164 255.5 -146.5 Q263 -129 263 -92 Z M298 327 L486 327 Q494 327 497.5 323.5 Q501 320 501 313 L501 138 Q501 78 457 35 Q413 -8 290 -8 Q167 -8 123 35 Q79 78 79 138 L79 542 Q79 602 123 645 Q167 688 290 688 Q413 688 457 645 Q501 602 501 542 L501 494 Q501 487 497.5 483.5 Q494 480 487 480 L447 480 Q439 480 435.5 483.5 Q432 487 432 494 L432 531 Q432 574 401 600.5 Q370 627 291 627 Q212 627 181 600.5 Q150 574 150 531 L150 149 Q150 106 181 79.5 Q212 53 291 53 Q369 53 400.5 79 Q432 105 432 148 L432 266 L298 266 Q291 266 287.5 270 Q284 274 284 281 L284 313 Q284 320 287.5 323.5 Q291 327 298 327 Z " />
<glyph glyph-name="Hcircumflex" unicode="&#x124;" horiz-adv-x="613" d="M161 665 L161 390 L452 390 L452 665 Q452 672 455.5 676 Q459 680 466 680 L509 680 Q516 680 519.5 676 Q523 672 523 665 L523 15 Q523 8 519.5 4 Q516 0 509 0 L466 0 Q459 0 455.5 4 Q452 8 452 15 L452 330 L161 330 L161 15 Q161 8 158 4 Q155 0 147 0 L105 0 Q98 0 94.5 4 Q91 8 91 15 L91 665 Q91 672 94.5 676 Q98 680 105 680 L147 680 Q155 680 158 676 Q161 672 161 665 Z M308 834 L255 752 Q252 747 247 742.5 Q242 738 235 738 L203 738 Q196 738 193.5 742 Q191 746 195 752 L272 863 Q276 869 282 873.5 Q288 878 295 878 L321 878 Q328 878 334 874 Q340 870 344 864 L421 752 Q425 746 423 742 Q421 738 413 738 L381 738 Q374 738 369.5 742 Q365 746 361 752 L308 834 Z " />
<glyph glyph-name="Itilde" unicode="&#x128;" horiz-adv-x="252" d="M161 665 L161 15 Q161 8 158 4 Q155 0 147 0 L105 0 Q98 0 94.5 4 Q91 8 91 15 L91 665 Q91 672 94.5 676 Q98 680 105 680 L147 680 Q155 680 158 676 Q161 672 161 665 Z M193 804 Q209 804 214 814 Q219 824 219 852 L219 860 Q219 867 223.5 870 Q228 873 235 873 L257 873 Q264 873 267 868 Q270 863 270 856 L270 833 Q270 789 247.5 770 Q225 751 196 751 Q186 751 170.5 755 Q155 759 142 769 L97 801 Q88 808 77.5 813.5 Q67 819 60 819 Q43 819 38 809 Q33 799 33 771 L33 763 Q33 756 29 753 Q25 750 18 750 L-5 750 Q-12 750 -15 754.5 Q-18 759 -18 767 L-18 790 Q-18 834 4.5 853 Q27 872 55 872 Q69 872 83.5 867.5 Q98 863 111 854 L155 822 Q165 815 175 809.5 Q185 804 193 804 Z " />
<glyph glyph-name="Imacron" unicode="&#x12a;" horiz-adv-x="252" d="M161 665 L161 15 Q161 8 158 4 Q155 0 147 0 L105 0 Q98 0 94.5 4 Q91 8 91 15 L91 665 Q91 672 94.5 676 Q98 680 105 680 L147 680 Q155 680 158 676 Q161 672 161 665 Z M1 827 L252 827 Q259 827 263 823.5 Q267 820 267 812 L267 787 Q267 780 263 776.5 Q259 773 252 773 L1 773 Q-6 773 -10 776.5 Q-14 780 -14 787 L-14 812 Q-14 820 -10 823.5 Q-6 827 1 827 Z " />
<glyph glyph-name="Ibreve" unicode="&#x12c;" horiz-adv-x="252" d="M161 665 L161 15 Q161 8 158 4 Q155 0 147 0 L105 0 Q98 0 94.5 4 Q91 8 91 15 L91 665 Q91 672 94.5 676 Q98 680 105 680 L147 680 Q155 680 158 676 Q161 672 161 665 Z M59 866 L59 849 Q59 821 71.5 801.5 Q84 782 126 782 Q169 782 181 801.5 Q193 821 193 849 L193 866 Q193 873 196 876 Q199 879 207 879 L232 879 Q239 879 242 876 Q245 873 245 866 L245 850 Q245 799 218 768.5 Q191 738 125 738 Q58 738 32.5 768.5 Q7 799 7 850 L7 866 Q7 873 10 876 Q13 879 20 879 L46 879 Q53 879 56 876 Q59 873 59 866 Z " />
<glyph glyph-name="Iogonek" unicode="&#x12e;" horiz-adv-x="254" d="M163 665 L163 15 Q163 8 160 4 Q157 0 149 0 L135 0 Q104 0 90 -21.5 Q76 -43 76 -63 Q76 -82 88.5 -93.5 Q101 -105 130 -105 L155 -105 Q162 -105 165.5 -108.5 Q169 -112 169 -119 L169 -139 Q169 -147 163.5 -150.5 Q158 -154 151 -154 L114 -154 Q79 -154 50 -136 Q21 -118 21 -74 Q21 -51 39 -20.5 Q57 10 93 28 L93 665 Q93 672 96.5 676 Q100 680 107 680 L149 680 Q157 680 160 676 Q163 672 163 665 Z " />
<glyph glyph-name="Idot" unicode="&#x130;" horiz-adv-x="252" d="M161 665 L161 15 Q161 8 158 4 Q155 0 147 0 L105 0 Q98 0 94.5 4 Q91 8 91 15 L91 665 Q91 672 94.5 676 Q98 680 105 680 L147 680 Q155 680 158 676 Q161 672 161 665 Z M161 839 L161 760 Q161 753 158 749.5 Q155 746 147 746 L105 746 Q98 746 94.5 749.5 Q91 753 91 760 L91 839 Q91 846 94.5 849.5 Q98 853 105 853 L147 853 Q155 853 158 849.5 Q161 846 161 839 Z " />
<glyph glyph-name="Jcircumflex" unicode="&#x134;" horiz-adv-x="497" d="M99 183 L99 149 Q99 106 124 79.5 Q149 53 220 53 Q292 53 316 79.5 Q340 106 340 149 L340 665 Q340 672 343.5 676 Q347 680 354 680 L396 680 Q404 680 407.5 676 Q411 672 411 665 L411 138 Q411 78 372 35 Q333 -8 220 -8 Q107 -8 68 35 Q29 78 29 138 L29 183 Q29 191 32.5 195 Q36 199 44 199 L85 199 Q92 199 95.5 195 Q99 191 99 183 Z M374 834 L321 752 Q318 747 313 742.5 Q308 738 301 738 L269 738 Q262 738 259.5 742 Q257 746 261 752 L338 863 Q342 869 348 873.5 Q354 878 361 878 L387 878 Q394 878 400 874 Q406 870 410 864 L487 752 Q491 746 489 742 Q487 738 479 738 L447 738 Q440 738 435.5 742 Q431 746 427 752 L374 834 Z " />
<glyph glyph-name="Kcommaaccent" unicode="&#x136;" horiz-adv-x="548" d="M248 -92 L248 -64 Q248 -57 251.5 -53 Q255 -49 263 -49 L293 -49 Q301 -49 304.5 -53 Q308 -57 308 -64 L308 -95 Q308 -128 296.5 -158 Q285 -188 269 -213 Q265 -220 260.5 -221 Q256 -222 250 -221 L226 -215 Q219 -214 217.5 -208 Q216 -202 219 -195 Q233 -164 240.5 -146.5 Q248 -129 248 -92 Z M252 345 L529 15 Q533 10 531 5 Q529 0 522 0 L466 0 Q458 0 452.5 4.5 Q447 9 442 15 L191 313 L161 313 L161 15 Q161 8 158 4 Q155 0 147 0 L105 0 Q97 0 93.5 4 Q90 8 90 15 L90 665 Q90 672 93.5 676 Q97 680 105 680 L147 680 Q155 680 158 676 Q161 672 161 665 L161 367 L191 367 L422 666 Q426 671 432.5 675.5 Q439 680 446 680 L494 680 Q501 680 503 675.5 Q505 671 501 665 L252 345 Z " />
<glyph glyph-name="Lacute" unicode="&#x139;" horiz-adv-x="475" d="M239 863 L160 747 Q158 744 153.5 741 Q149 738 141 738 L108 738 Q101 738 99 741.5 Q97 745 101 752 L168 864 Q172 870 176 874 Q180 878 187 878 L231 878 Q239 878 241 873.5 Q243 869 239 863 Z M162 665 L162 61 L442 61 Q449 61 452.5 57.5 Q456 54 456 47 L456 15 Q456 7 452.5 3.5 Q449 0 442 0 L103 0 Q97 0 94 4 Q91 8 91 15 L91 665 Q91 672 94.5 676 Q98 680 105 680 L148 680 Q155 680 158.5 676 Q162 672 162 665 Z " />
<glyph glyph-name="Lcommaaccent" unicode="&#x13b;" horiz-adv-x="475" d="M235 -92 L235 -64 Q235 -57 238.5 -53 Q242 -49 250 -49 L280 -49 Q288 -49 291.5 -53 Q295 -57 295 -64 L295 -95 Q295 -128 283.5 -158 Q272 -188 256 -213 Q252 -220 247.5 -221 Q243 -222 237 -221 L213 -215 Q206 -214 204.5 -208 Q203 -202 206 -195 Q220 -164 227.5 -146.5 Q235 -129 235 -92 Z M162 665 L162 61 L442 61 Q449 61 452.5 57.5 Q456 54 456 47 L456 15 Q456 7 452.5 3.5 Q449 0 442 0 L103 0 Q97 0 94 4 Q91 8 91 15 L91 665 Q91 672 94.5 676 Q98 680 105 680 L148 680 Q155 680 158.5 676 Q162 672 162 665 Z " />
<glyph glyph-name="Lcaron" unicode="&#x13d;" horiz-adv-x="478" d="M328 664 L328 692 Q328 699 331.5 703 Q335 707 343 707 L373 707 Q381 707 384.5 703 Q388 699 388 692 L388 661 Q388 628 376.5 598 Q365 568 349 543 Q345 536 340.5 535 Q336 534 330 535 L306 541 Q299 542 297.5 548 Q296 554 299 561 Q313 592 320.5 609.5 Q328 627 328 664 Z M162 665 L162 61 L442 61 Q449 61 452.5 57.5 Q456 54 456 47 L456 15 Q456 7 452.5 3.5 Q449 0 442 0 L103 0 Q97 0 94 4 Q91 8 91 15 L91 665 Q91 672 94.5 676 Q98 680 105 680 L148 680 Q155 680 158.5 676 Q162 672 162 665 Z " />
<glyph glyph-name="Nacute" unicode="&#x143;" horiz-adv-x="613" d="M421 863 L342 747 Q340 744 335.5 741 Q331 738 323 738 L290 738 Q283 738 281 741.5 Q279 745 283 752 L350 864 Q354 870 358 874 Q362 878 369 878 L413 878 Q421 878 423 873.5 Q425 869 421 863 Z M522 665 L522 15 Q522 8 519 4 Q516 0 508 0 L470 0 Q465 0 461.5 1.5 Q458 3 456 7 L191 477 Q183 491 173.5 509.5 Q164 528 157 543 L157 15 Q157 8 153.5 4 Q150 0 143 0 L105 0 Q97 0 93.5 4 Q90 8 90 15 L90 665 Q90 672 93.5 676 Q97 680 105 680 L143 680 Q148 680 151 678.5 Q154 677 155 674 L426 197 Q436 180 444.5 162 Q453 144 456 137 L456 665 Q456 672 459.5 676 Q463 680 470 680 L508 680 Q516 680 519 676 Q522 672 522 665 Z " />
<glyph glyph-name="Ncommaaccent" unicode="&#x145;" horiz-adv-x="613" d="M282 -93 L282 -65 Q282 -58 285.5 -54 Q289 -50 297 -50 L327 -50 Q335 -50 338.5 -54 Q342 -58 342 -65 L342 -96 Q342 -129 330.5 -159 Q319 -189 303 -214 Q299 -221 294.5 -222 Q290 -223 284 -222 L260 -216 Q253 -215 251.5 -209 Q250 -203 253 -196 Q267 -165 274.5 -147.5 Q282 -130 282 -93 Z M522 665 L522 15 Q522 8 519 4 Q516 0 508 0 L470 0 Q465 0 461.5 1.5 Q458 3 456 7 L191 477 Q183 491 173.5 509.5 Q164 528 157 543 L157 15 Q157 8 153.5 4 Q150 0 143 0 L105 0 Q97 0 93.5 4 Q90 8 90 15 L90 665 Q90 672 93.5 676 Q97 680 105 680 L143 680 Q148 680 151 678.5 Q154 677 155 674 L426 197 Q436 180 444.5 162 Q453 144 456 137 L456 665 Q456 672 459.5 676 Q463 680 470 680 L508 680 Q516 680 519 676 Q522 672 522 665 Z " />
<glyph glyph-name="Ncaron" unicode="&#x147;" horiz-adv-x="613" d="M522 665 L522 15 Q522 8 519 4 Q516 0 508 0 L470 0 Q465 0 461.5 1.5 Q458 3 456 7 L191 477 Q183 491 173.5 509.5 Q164 528 157 543 L157 15 Q157 8 153.5 4 Q150 0 143 0 L105 0 Q97 0 93.5 4 Q90 8 90 15 L90 665 Q90 672 93.5 676 Q97 680 105 680 L143 680 Q148 680 151 678.5 Q154 677 155 674 L426 197 Q436 180 444.5 162 Q453 144 456 137 L456 665 Q456 672 459.5 676 Q463 680 470 680 L508 680 Q516 680 519 676 Q522 672 522 665 Z M255 863 L308 781 L361 863 Q365 869 369.5 873.5 Q374 878 381 878 L413 878 Q421 878 423 873.5 Q425 869 421 863 L344 752 Q340 746 334 742 Q328 738 321 738 L295 738 Q288 738 282 742 Q276 746 272 753 L195 863 Q191 869 193.5 873.5 Q196 878 203 878 L235 878 Q242 878 246.5 873.5 Q251 869 255 863 Z " />
<glyph glyph-name="Omacron" unicode="&#x14c;" horiz-adv-x="591" d="M79 138 L79 542 Q79 602 126 645 Q173 688 295 688 Q419 688 465.5 645 Q512 602 512 542 L512 138 Q512 78 465.5 35 Q419 -8 295 -8 Q173 -8 126 35 Q79 78 79 138 Z M441 149 L441 531 Q441 574 407.5 600.5 Q374 627 295 627 Q217 627 183.5 600.5 Q150 574 150 531 L150 149 Q150 106 183.5 79.5 Q217 53 295 53 Q374 53 407.5 79.5 Q441 106 441 149 Z M170 827 L421 827 Q428 827 432 823.5 Q436 820 436 812 L436 787 Q436 780 432 776.5 Q428 773 421 773 L170 773 Q163 773 159 776.5 Q155 780 155 787 L155 812 Q155 820 159 823.5 Q163 827 170 827 Z " />
<glyph glyph-name="Obreve" unicode="&#x14e;" horiz-adv-x="591" d="M79 138 L79 542 Q79 602 126 645 Q173 688 295 688 Q419 688 465.5 645 Q512 602 512 542 L512 138 Q512 78 465.5 35 Q419 -8 295 -8 Q173 -8 126 35 Q79 78 79 138 Z M441 149 L441 531 Q441 574 407.5 600.5 Q374 627 295 627 Q217 627 183.5 600.5 Q150 574 150 531 L150 149 Q150 106 183.5 79.5 Q217 53 295 53 Q374 53 407.5 79.5 Q441 106 441 149 Z M228 866 L228 849 Q228 821 240.5 801.5 Q253 782 295 782 Q338 782 350 801.5 Q362 821 362 849 L362 866 Q362 873 365 876 Q368 879 376 879 L401 879 Q408 879 411 876 Q414 873 414 866 L414 850 Q414 799 387 768.5 Q360 738 294 738 Q227 738 201.5 768.5 Q176 799 176 850 L176 866 Q176 873 179 876 Q182 879 189 879 L215 879 Q222 879 225 876 Q228 873 228 866 Z " />
<glyph glyph-name="Ohungarumlaut" unicode="&#x150;" horiz-adv-x="591" d="M335 863 L273 752 Q269 745 264.5 741.5 Q260 738 253 738 L222 738 Q215 738 212.5 742 Q210 746 213 752 L268 863 Q271 870 276 874 Q281 878 289 878 L325 878 Q333 878 336 873.5 Q339 869 335 863 Z M450 863 L373 751 Q369 746 364 742 Q359 738 352 738 L321 738 Q314 738 312 742 Q310 746 314 752 L383 863 Q387 870 393 874 Q399 878 406 878 L443 878 Q451 878 452.5 873.5 Q454 869 450 863 Z M79 138 L79 542 Q79 602 126 645 Q173 688 295 688 Q419 688 465.5 645 Q512 602 512 542 L512 138 Q512 78 465.5 35 Q419 -8 295 -8 Q173 -8 126 35 Q79 78 79 138 Z M441 149 L441 531 Q441 574 407.5 600.5 Q374 627 295 627 Q217 627 183.5 600.5 Q150 574 150 531 L150 149 Q150 106 183.5 79.5 Q217 53 295 53 Q374 53 407.5 79.5 Q441 106 441 149 Z " />
<glyph glyph-name="Racute" unicode="&#x154;" horiz-adv-x="585" d="M302 619 L161 619 L161 337 L302 337 Q382 337 415 363.5 Q448 390 448 434 L448 523 Q448 566 415 592.5 Q382 619 302 619 Z M161 15 Q161 8 158 4 Q155 0 147 0 L105 0 Q98 0 94.5 4 Q91 8 91 15 L91 665 Q91 672 94 676 Q97 680 104 680 L302 680 Q426 680 472.5 637 Q519 594 519 534 L519 422 Q519 376 491.5 339 Q464 302 395 286 L525 15 Q528 8 523.5 4 Q519 0 511 0 L465 0 Q457 0 453.5 4 Q450 8 447 15 L323 277 L161 277 L161 15 Z M381 863 L302 747 Q300 744 295.5 741 Q291 738 283 738 L250 738 Q243 738 241 741.5 Q239 745 243 752 L310 864 Q314 870 318 874 Q322 878 329 878 L373 878 Q381 878 383 873.5 Q385 869 381 863 Z " />
<glyph glyph-name="Rcommaaccent" unicode="&#x156;" horiz-adv-x="585" d="M265 -92 L265 -64 Q265 -57 268.5 -53 Q272 -49 280 -49 L310 -49 Q318 -49 321.5 -53 Q325 -57 325 -64 L325 -95 Q325 -128 313.5 -158 Q302 -188 286 -213 Q282 -220 277.5 -221 Q273 -222 267 -221 L243 -215 Q236 -214 234.5 -208 Q233 -202 236 -195 Q250 -164 257.5 -146.5 Q265 -129 265 -92 Z M302 619 L161 619 L161 337 L302 337 Q382 337 415 363.5 Q448 390 448 434 L448 523 Q448 566 415 592.5 Q382 619 302 619 Z M161 15 Q161 8 158 4 Q155 0 147 0 L105 0 Q98 0 94.5 4 Q91 8 91 15 L91 665 Q91 672 94 676 Q97 680 104 680 L302 680 Q426 680 472.5 637 Q519 594 519 534 L519 422 Q519 376 491.5 339 Q464 302 395 286 L525 15 Q528 8 523.5 4 Q519 0 511 0 L465 0 Q457 0 453.5 4 Q450 8 447 15 L323 277 L161 277 L161 15 Z " />
<glyph glyph-name="Rcaron" unicode="&#x158;" horiz-adv-x="585" d="M302 619 L161 619 L161 337 L302 337 Q382 337 415 363.5 Q448 390 448 434 L448 523 Q448 566 415 592.5 Q382 619 302 619 Z M161 15 Q161 8 158 4 Q155 0 147 0 L105 0 Q98 0 94.5 4 Q91 8 91 15 L91 665 Q91 672 94 676 Q97 680 104 680 L302 680 Q426 680 472.5 637 Q519 594 519 534 L519 422 Q519 376 491.5 339 Q464 302 395 286 L525 15 Q528 8 523.5 4 Q519 0 511 0 L465 0 Q457 0 453.5 4 Q450 8 447 15 L323 277 L161 277 L161 15 Z M234 863 L287 781 L340 863 Q344 869 348.5 873.5 Q353 878 360 878 L392 878 Q400 878 402 873.5 Q404 869 400 863 L323 752 Q319 746 313 742 Q307 738 300 738 L274 738 Q267 738 261 742 Q255 746 251 753 L174 863 Q170 869 172.5 873.5 Q175 878 182 878 L214 878 Q221 878 225.5 873.5 Q230 869 234 863 Z " />
<glyph glyph-name="Sacute" unicode="&#x15a;" horiz-adv-x="554" d="M413 495 L413 533 Q413 576 383.5 602 Q354 628 276 628 Q198 628 168 602 Q138 576 138 533 L138 503 Q138 466 157.5 449 Q177 432 196 425 L384 354 Q424 339 456 307.5 Q488 276 488 224 L488 138 Q488 78 441.5 35 Q395 -8 274 -8 Q153 -8 106.5 35 Q60 78 60 138 L60 193 Q60 201 63.5 204.5 Q67 208 74 208 L115 208 Q122 208 125.5 204.5 Q129 201 129 193 L129 147 Q129 104 161.5 78 Q194 52 273 52 Q353 52 385.5 78 Q418 104 418 147 L418 209 Q418 248 391 267 Q364 286 335 297 L156 366 Q125 378 97 409 Q69 440 69 486 L69 542 Q69 602 112.5 645 Q156 688 275 688 Q394 688 438.5 645 Q483 602 483 542 L483 495 Q483 488 479.5 484 Q476 480 468 480 L427 480 Q420 480 416.5 484 Q413 488 413 495 Z M388 863 L309 747 Q307 744 302.5 741 Q298 738 290 738 L257 738 Q250 738 248 741.5 Q246 745 250 752 L317 864 Q321 870 325 874 Q329 878 336 878 L380 878 Q388 878 390 873.5 Q392 869 388 863 Z " />
<glyph glyph-name="Scircumflex" unicode="&#x15c;" horiz-adv-x="554" d="M413 495 L413 533 Q413 576 383.5 602 Q354 628 276 628 Q198 628 168 602 Q138 576 138 533 L138 503 Q138 466 157.5 449 Q177 432 196 425 L384 354 Q424 339 456 307.5 Q488 276 488 224 L488 138 Q488 78 441.5 35 Q395 -8 274 -8 Q153 -8 106.5 35 Q60 78 60 138 L60 193 Q60 201 63.5 204.5 Q67 208 74 208 L115 208 Q122 208 125.5 204.5 Q129 201 129 193 L129 147 Q129 104 161.5 78 Q194 52 273 52 Q353 52 385.5 78 Q418 104 418 147 L418 209 Q418 248 391 267 Q364 286 335 297 L156 366 Q125 378 97 409 Q69 440 69 486 L69 542 Q69 602 112.5 645 Q156 688 275 688 Q394 688 438.5 645 Q483 602 483 542 L483 495 Q483 488 479.5 484 Q476 480 468 480 L427 480 Q420 480 416.5 484 Q413 488 413 495 Z M274 834 L221 752 Q218 747 213 742.5 Q208 738 201 738 L169 738 Q162 738 159.5 742 Q157 746 161 752 L238 863 Q242 869 248 873.5 Q254 878 261 878 L287 878 Q294 878 300 874 Q306 870 310 864 L387 752 Q391 746 389 742 Q387 738 379 738 L347 738 Q340 738 335.5 742 Q331 746 327 752 L274 834 Z " />
<glyph glyph-name="Scedilla" unicode="&#x15e;" horiz-adv-x="554" d="M311 -211 L195 -211 Q188 -211 184 -207.5 Q180 -204 180 -196 L180 -181 Q180 -174 184 -170.5 Q188 -167 195 -167 L301 -167 Q314 -167 328.5 -160.5 Q343 -154 343 -132 Q343 -109 328.5 -103 Q314 -97 301 -97 L239 -97 Q226 -97 222 -92 Q218 -87 220 -78 L239 -7 Q138 0 99 41.5 Q60 83 60 138 L60 193 Q60 201 63.5 204.5 Q67 208 74 208 L115 208 Q122 208 125.5 204.5 Q129 201 129 193 L129 147 Q129 104 161.5 78 Q194 52 273 52 Q353 52 385.5 78 Q418 104 418 147 L418 209 Q418 248 391 267 Q364 286 335 297 L156 366 Q125 378 97 409 Q69 440 69 486 L69 542 Q69 602 112.5 645 Q156 688 275 688 Q394 688 438.5 645 Q483 602 483 542 L483 495 Q483 488 479.5 484 Q476 480 468 480 L427 480 Q420 480 416.5 484 Q413 488 413 495 L413 533 Q413 576 383.5 602 Q354 628 276 628 Q198 628 168 602 Q138 576 138 533 L138 503 Q138 466 157.5 449 Q177 432 196 425 L384 354 Q424 339 456 307.5 Q488 276 488 224 L488 138 Q488 80 444 37.5 Q400 -5 287 -8 L274 -53 L311 -53 Q342 -53 368 -71 Q394 -89 394 -132 Q394 -175 368 -193 Q342 -211 311 -211 Z " />
<glyph glyph-name="Scommaaccent" unicode="&#x218;" horiz-adv-x="552" d="M251 -93 L251 -65 Q251 -58 254.5 -54 Q258 -50 266 -50 L296 -50 Q304 -50 307.5 -54 Q311 -58 311 -65 L311 -96 Q311 -129 299.5 -159 Q288 -189 272 -214 Q268 -221 263.5 -222 Q259 -223 253 -222 L229 -216 Q222 -215 220.5 -209 Q219 -203 222 -196 Q236 -165 243.5 -147.5 Q251 -130 251 -93 Z M413 495 L413 533 Q413 576 383.5 602 Q354 628 276 628 Q198 628 168 602 Q138 576 138 533 L138 503 Q138 466 157.5 449 Q177 432 196 425 L384 354 Q424 339 456 307.5 Q488 276 488 224 L488 138 Q488 78 441.5 35 Q395 -8 274 -8 Q153 -8 106.5 35 Q60 78 60 138 L60 193 Q60 201 63.5 204.5 Q67 208 74 208 L115 208 Q122 208 125.5 204.5 Q129 201 129 193 L129 147 Q129 104 161.5 78 Q194 52 273 52 Q353 52 385.5 78 Q418 104 418 147 L418 209 Q418 248 391 267 Q364 286 335 297 L156 366 Q125 378 97 409 Q69 440 69 486 L69 542 Q69 602 112.5 645 Q156 688 275 688 Q394 688 438.5 645 Q483 602 483 542 L483 495 Q483 488 479.5 484 Q476 480 468 480 L427 480 Q420 480 416.5 484 Q413 488 413 495 Z " />
<glyph glyph-name="Tcommaaccent" unicode="&#x162;" horiz-adv-x="490" d="M217 -92 L217 -64 Q217 -57 220.5 -53 Q224 -49 232 -49 L262 -49 Q270 -49 273.5 -53 Q277 -57 277 -64 L277 -95 Q277 -128 265.5 -158 Q254 -188 238 -213 Q234 -220 229.5 -221 Q225 -222 219 -221 L195 -215 Q188 -214 186.5 -208 Q185 -202 188 -195 Q202 -164 209.5 -146.5 Q217 -129 217 -92 Z M36 680 L453 680 Q460 680 464 676.5 Q468 673 468 665 L468 634 Q468 626 464 622.5 Q460 619 453 619 L280 619 L280 15 Q280 8 276.5 4 Q273 0 266 0 L223 0 Q216 0 212.5 4 Q209 8 209 15 L209 619 L36 619 Q29 619 25.5 622.5 Q22 626 22 634 L22 665 Q22 673 25.5 676.5 Q29 680 36 680 Z " />
<glyph glyph-name="Tcaron" unicode="&#x164;" horiz-adv-x="490" d="M36 680 L453 680 Q460 680 464 676.5 Q468 673 468 665 L468 634 Q468 626 464 622.5 Q460 619 453 619 L280 619 L280 15 Q280 8 276.5 4 Q273 0 266 0 L223 0 Q216 0 212.5 4 Q209 8 209 15 L209 619 L36 619 Q29 619 25.5 622.5 Q22 626 22 634 L22 665 Q22 673 25.5 676.5 Q29 680 36 680 Z M194 863 L247 781 L300 863 Q304 869 308.5 873.5 Q313 878 320 878 L352 878 Q360 878 362 873.5 Q364 869 360 863 L283 752 Q279 746 273 742 Q267 738 260 738 L234 738 Q227 738 221 742 Q215 746 211 753 L134 863 Q130 869 132.5 873.5 Q135 878 142 878 L174 878 Q181 878 185.5 873.5 Q190 869 194 863 Z " />
<glyph glyph-name="Utilde" unicode="&#x168;" horiz-adv-x="606" d="M158 665 L158 149 Q158 106 191.5 79.5 Q225 53 303 53 Q382 53 415.5 79.5 Q449 106 449 149 L449 665 Q449 672 452.5 676 Q456 680 464 680 L506 680 Q514 680 517 676 Q520 672 520 665 L520 138 Q520 78 473.5 35 Q427 -8 303 -8 Q181 -8 134 35 Q87 78 87 138 L87 665 Q87 672 91 676 Q95 680 102 680 L144 680 Q151 680 154.5 676 Q158 672 158 665 Z M370 804 Q386 804 391 814 Q396 824 396 852 L396 860 Q396 867 400.5 870 Q405 873 412 873 L434 873 Q441 873 444 868 Q447 863 447 856 L447 833 Q447 789 424.5 770 Q402 751 373 751 Q363 751 347.5 755 Q332 759 319 769 L274 801 Q265 808 254.5 813.5 Q244 819 237 819 Q220 819 215 809 Q210 799 210 771 L210 763 Q210 756 206 753 Q202 750 195 750 L172 750 Q165 750 162 754.5 Q159 759 159 767 L159 790 Q159 834 181.5 853 Q204 872 232 872 Q246 872 260.5 867.5 Q275 863 288 854 L332 822 Q342 815 352 809.5 Q362 804 370 804 Z " />
<glyph glyph-name="Umacron" unicode="&#x16a;" horiz-adv-x="606" d="M158 665 L158 149 Q158 106 191.5 79.5 Q225 53 303 53 Q382 53 415.5 79.5 Q449 106 449 149 L449 665 Q449 672 452.5 676 Q456 680 464 680 L506 680 Q514 680 517 676 Q520 672 520 665 L520 138 Q520 78 473.5 35 Q427 -8 303 -8 Q181 -8 134 35 Q87 78 87 138 L87 665 Q87 672 91 676 Q95 680 102 680 L144 680 Q151 680 154.5 676 Q158 672 158 665 Z M178 827 L429 827 Q436 827 440 823.5 Q444 820 444 812 L444 787 Q444 780 440 776.5 Q436 773 429 773 L178 773 Q171 773 167 776.5 Q163 780 163 787 L163 812 Q163 820 167 823.5 Q171 827 178 827 Z " />
<glyph glyph-name="Ubreve" unicode="&#x16c;" horiz-adv-x="606" d="M158 665 L158 149 Q158 106 191.5 79.5 Q225 53 303 53 Q382 53 415.5 79.5 Q449 106 449 149 L449 665 Q449 672 452.5 676 Q456 680 464 680 L506 680 Q514 680 517 676 Q520 672 520 665 L520 138 Q520 78 473.5 35 Q427 -8 303 -8 Q181 -8 134 35 Q87 78 87 138 L87 665 Q87 672 91 676 Q95 680 102 680 L144 680 Q151 680 154.5 676 Q158 672 158 665 Z M236 866 L236 849 Q236 821 248.5 801.5 Q261 782 303 782 Q346 782 358 801.5 Q370 821 370 849 L370 866 Q370 873 373 876 Q376 879 384 879 L409 879 Q416 879 419 876 Q422 873 422 866 L422 850 Q422 799 395 768.5 Q368 738 302 738 Q235 738 209.5 768.5 Q184 799 184 850 L184 866 Q184 873 187 876 Q190 879 197 879 L223 879 Q230 879 233 876 Q236 873 236 866 Z " />
<glyph glyph-name="Uring" unicode="&#x16e;" horiz-adv-x="606" d="M398 812 L398 795 Q398 764 375.5 742 Q353 720 303 720 Q253 720 230.5 742 Q208 764 208 795 L208 812 Q208 843 230.5 865 Q253 887 303 887 Q353 887 375.5 865 Q398 843 398 812 Z M355 800 L355 807 Q355 825 343 837 Q331 849 303 849 Q275 849 263.5 837 Q252 825 252 807 L252 800 Q252 782 263.5 770 Q275 758 303 758 Q331 758 343 770 Q355 782 355 800 Z M158 665 L158 149 Q158 106 191.5 79.5 Q225 53 303 53 Q382 53 415.5 79.5 Q449 106 449 149 L449 665 Q449 672 452.5 676 Q456 680 464 680 L506 680 Q514 680 517 676 Q520 672 520 665 L520 138 Q520 78 473.5 35 Q427 -8 303 -8 Q181 -8 134 35 Q87 78 87 138 L87 665 Q87 672 91 676 Q95 680 102 680 L144 680 Q151 680 154.5 676 Q158 672 158 665 Z " />
<glyph glyph-name="Uhungarumlaut" unicode="&#x170;" horiz-adv-x="606" d="M349 863 L287 752 Q283 745 278.5 741.5 Q274 738 267 738 L236 738 Q229 738 226.5 742 Q224 746 227 752 L282 863 Q285 870 290 874 Q295 878 303 878 L339 878 Q347 878 350 873.5 Q353 869 349 863 Z M464 863 L387 751 Q383 746 378 742 Q373 738 366 738 L335 738 Q328 738 326 742 Q324 746 328 752 L397 863 Q401 870 407 874 Q413 878 420 878 L457 878 Q465 878 466.5 873.5 Q468 869 464 863 Z M158 665 L158 149 Q158 106 191.5 79.5 Q225 53 303 53 Q382 53 415.5 79.5 Q449 106 449 149 L449 665 Q449 672 452.5 676 Q456 680 464 680 L506 680 Q514 680 517 676 Q520 672 520 665 L520 138 Q520 78 473.5 35 Q427 -8 303 -8 Q181 -8 134 35 Q87 78 87 138 L87 665 Q87 672 91 676 Q95 680 102 680 L144 680 Q151 680 154.5 676 Q158 672 158 665 Z " />
<glyph glyph-name="Uogonek" unicode="&#x172;" horiz-adv-x="607" d="M158 665 L158 149 Q158 106 191.5 79.5 Q225 53 303 53 Q382 53 415.5 79.5 Q449 106 449 149 L449 665 Q449 672 452.5 676 Q456 680 464 680 L506 680 Q514 680 517 676 Q520 672 520 665 L520 138 Q520 112 511.5 87 Q503 62 483 43 Q461 22 435 0.5 Q409 -21 409 -61 Q409 -81 422 -93 Q435 -105 463 -105 L495 -105 Q503 -105 507 -108.5 Q511 -112 511 -119 L511 -139 Q511 -147 505 -150.5 Q499 -154 492 -154 L444 -154 Q409 -154 382 -134.5 Q355 -115 355 -73 Q355 -54 361 -36.5 Q367 -19 380 -2 Q364 -5 344.5 -6.5 Q325 -8 303 -8 Q181 -8 134 35 Q87 78 87 138 L87 665 Q87 672 91 676 Q95 680 102 680 L144 680 Q151 680 154.5 676 Q158 672 158 665 Z " />
<glyph glyph-name="Wcircumflex" unicode="&#x174;" horiz-adv-x="816" d="M411 834 L358 752 Q355 747 350 742.5 Q345 738 338 738 L306 738 Q299 738 296.5 742 Q294 746 298 752 L375 863 Q379 869 385 873.5 Q391 878 398 878 L424 878 Q431 878 437 874 Q443 870 447 864 L524 752 Q528 746 526 742 Q524 738 516 738 L484 738 Q477 738 472.5 742 Q468 746 464 752 L411 834 Z M450 665 L569 195 Q573 176 578.5 151.5 Q584 127 585 115 Q586 127 591.5 151.5 Q597 176 601 195 L721 665 Q723 672 727 676 Q731 680 739 680 L776 680 Q783 680 786 676 Q789 672 787 665 L623 15 Q621 8 616 4 Q611 0 604 0 L562 0 Q555 0 551 4 Q547 8 545 15 L423 493 Q420 505 415.5 528 Q411 551 410 564 Q409 551 404 528 Q399 505 396 492 L275 15 Q273 8 268.5 4 Q264 0 256 0 L214 0 Q207 0 203 4 Q199 8 197 15 L32 665 Q30 672 33 676 Q36 680 44 680 L87 680 Q94 680 98 676 Q102 672 104 665 L223 195 Q227 180 232.5 155 Q238 130 239 121 Q240 130 245.5 154.5 Q251 179 255 195 L376 665 Q378 672 382 676 Q386 680 393 680 L433 680 Q440 680 444 676 Q448 672 450 665 Z " />
<glyph glyph-name="Wgrave" unicode="&#x1e80;" horiz-adv-x="818" d="M374 747 L295 863 Q291 869 292.5 873.5 Q294 878 302 878 L346 878 Q354 878 358 874 Q362 870 366 864 L433 752 Q437 745 435 741 Q433 737 426 737 L392 737 Q385 737 380.5 740.5 Q376 744 374 747 Z M450 665 L569 195 Q573 176 578.5 151.5 Q584 127 585 115 Q586 127 591.5 151.5 Q597 176 601 195 L721 665 Q723 672 727 676 Q731 680 739 680 L776 680 Q783 680 786 676 Q789 672 787 665 L623 15 Q621 8 616 4 Q611 0 604 0 L562 0 Q555 0 551 4 Q547 8 545 15 L423 493 Q420 505 415.5 528 Q411 551 410 564 Q409 551 404 528 Q399 505 396 492 L275 15 Q273 8 268.5 4 Q264 0 256 0 L214 0 Q207 0 203 4 Q199 8 197 15 L32 665 Q30 672 33 676 Q36 680 44 680 L87 680 Q94 680 98 676 Q102 672 104 665 L223 195 Q227 180 232.5 155 Q238 130 239 121 Q240 130 245.5 154.5 Q251 179 255 195 L376 665 Q378 672 382 676 Q386 680 393 680 L433 680 Q440 680 444 676 Q448 672 450 665 Z " />
<glyph glyph-name="Wacute" unicode="&#x1e82;" horiz-adv-x="818" d="M527 863 L448 747 Q446 744 441.5 741 Q437 738 429 738 L396 738 Q389 738 387 741.5 Q385 745 389 752 L456 864 Q460 870 464 874 Q468 878 475 878 L519 878 Q527 878 529 873.5 Q531 869 527 863 Z M450 665 L569 195 Q573 176 578.5 151.5 Q584 127 585 115 Q586 127 591.5 151.5 Q597 176 601 195 L721 665 Q723 672 727 676 Q731 680 739 680 L776 680 Q783 680 786 676 Q789 672 787 665 L623 15 Q621 8 616 4 Q611 0 604 0 L562 0 Q555 0 551 4 Q547 8 545 15 L423 493 Q420 505 415.5 528 Q411 551 410 564 Q409 551 404 528 Q399 505 396 492 L275 15 Q273 8 268.5 4 Q264 0 256 0 L214 0 Q207 0 203 4 Q199 8 197 15 L32 665 Q30 672 33 676 Q36 680 44 680 L87 680 Q94 680 98 676 Q102 672 104 665 L223 195 Q227 180 232.5 155 Q238 130 239 121 Q240 130 245.5 154.5 Q251 179 255 195 L376 665 Q378 672 382 676 Q386 680 393 680 L433 680 Q440 680 444 676 Q448 672 450 665 Z " />
<glyph glyph-name="Wdieresis" unicode="&#x1e84;" horiz-adv-x="818" d="M450 665 L569 195 Q573 176 578.5 151.5 Q584 127 585 115 Q586 127 591.5 151.5 Q597 176 601 195 L721 665 Q723 672 727 676 Q731 680 739 680 L776 680 Q783 680 786 676 Q789 672 787 665 L623 15 Q621 8 616 4 Q611 0 604 0 L562 0 Q555 0 551 4 Q547 8 545 15 L423 493 Q420 505 415.5 528 Q411 551 410 564 Q409 551 404 528 Q399 505 396 492 L275 15 Q273 8 268.5 4 Q264 0 256 0 L214 0 Q207 0 203 4 Q199 8 197 15 L32 665 Q30 672 33 676 Q36 680 44 680 L87 680 Q94 680 98 676 Q102 672 104 665 L223 195 Q227 180 232.5 155 Q238 130 239 121 Q240 130 245.5 154.5 Q251 179 255 195 L376 665 Q378 672 382 676 Q386 680 393 680 L433 680 Q440 680 444 676 Q448 672 450 665 Z M489 856 L489 759 Q489 751 485.5 747.5 Q482 744 474 744 L450 744 Q442 744 438.5 747.5 Q435 751 435 759 L435 856 Q435 863 438.5 866.5 Q442 870 450 870 L474 870 Q482 870 485.5 866.5 Q489 863 489 856 Z M381 856 L381 759 Q381 751 378 747.5 Q375 744 367 744 L343 744 Q335 744 331.5 747.5 Q328 751 328 759 L328 856 Q328 863 331.5 866.5 Q335 870 343 870 L367 870 Q375 870 378 866.5 Q381 863 381 856 Z " />
<glyph glyph-name="Ycircumflex" unicode="&#x176;" horiz-adv-x="522" d="M104 665 L251 375 Q254 369 258 358 Q262 347 265 337 Q267 344 271.5 354.5 Q276 365 281 375 L432 665 Q435 671 439 675.5 Q443 680 450 680 L492 680 Q499 680 503 676 Q507 672 503 665 L301 277 L301 15 Q301 8 297.5 4 Q294 0 287 0 L244 0 Q237 0 233.5 4 Q230 8 230 15 L230 269 L27 665 Q23 672 26.5 676 Q30 680 38 680 L85 680 Q93 680 97 676 Q101 672 104 665 Z M263 834 L210 752 Q207 747 202 742.5 Q197 738 190 738 L158 738 Q151 738 148.5 742 Q146 746 150 752 L227 863 Q231 869 237 873.5 Q243 878 250 878 L276 878 Q283 878 289 874 Q295 870 299 864 L376 752 Q380 746 378 742 Q376 738 368 738 L336 738 Q329 738 324.5 742 Q320 746 316 752 L263 834 Z " />
<glyph glyph-name="Ygrave" unicode="&#x1ef2;" horiz-adv-x="522" d="M104 665 L251 375 Q254 369 258 358 Q262 347 265 337 Q267 344 271.5 354.5 Q276 365 281 375 L432 665 Q435 671 439 675.5 Q443 680 450 680 L492 680 Q499 680 503 676 Q507 672 503 665 L301 277 L301 15 Q301 8 297.5 4 Q294 0 287 0 L244 0 Q237 0 233.5 4 Q230 8 230 15 L230 269 L27 665 Q23 672 26.5 676 Q30 680 38 680 L85 680 Q93 680 97 676 Q101 672 104 665 Z M228 747 L149 863 Q145 869 146.5 873.5 Q148 878 156 878 L200 878 Q208 878 212 874 Q216 870 220 864 L287 752 Q291 745 289 741 Q287 737 280 737 L246 737 Q239 737 234.5 740.5 Q230 744 228 747 Z " />
<glyph glyph-name="Zacute" unicode="&#x179;" horiz-adv-x="477" d="M67 680 L416 680 Q424 680 428 676.5 Q432 673 432 665 L432 634 Q432 630 431 627.5 Q430 625 429 623 L120 61 L432 61 Q439 61 443 57.5 Q447 54 447 47 L447 15 Q447 7 443 3.5 Q439 0 432 0 L49 0 Q42 0 38.5 3.5 Q35 7 35 15 L35 47 Q35 49 35.5 52 Q36 55 37 57 L344 619 L67 619 Q60 619 56 622.5 Q52 626 52 634 L52 665 Q52 673 56 676.5 Q60 680 67 680 Z M353 863 L274 747 Q272 744 267.5 741 Q263 738 255 738 L222 738 Q215 738 213 741.5 Q211 745 215 752 L282 864 Q286 870 290 874 Q294 878 301 878 L345 878 Q353 878 355 873.5 Q357 869 353 863 Z " />
<glyph glyph-name="Zdotaccent" unicode="&#x17b;" horiz-adv-x="477" d="M267 839 L267 760 Q267 753 264 749.5 Q261 746 253 746 L211 746 Q204 746 200.5 749.5 Q197 753 197 760 L197 839 Q197 846 200.5 849.5 Q204 853 211 853 L253 853 Q261 853 264 849.5 Q267 846 267 839 Z M67 680 L416 680 Q424 680 428 676.5 Q432 673 432 665 L432 634 Q432 630 431 627.5 Q430 625 429 623 L120 61 L432 61 Q439 61 443 57.5 Q447 54 447 47 L447 15 Q447 7 443 3.5 Q439 0 432 0 L49 0 Q42 0 38.5 3.5 Q35 7 35 15 L35 47 Q35 49 35.5 52 Q36 55 37 57 L344 619 L67 619 Q60 619 56 622.5 Q52 626 52 634 L52 665 Q52 673 56 676.5 Q60 680 67 680 Z " />
<glyph glyph-name="AEacute" unicode="&#x1fc;" horiz-adv-x="824" d="M369 502 L224 250 L402 250 L402 563 Q394 546 385 530.5 Q376 515 369 502 Z M419 680 L755 680 Q762 680 765.5 676.5 Q769 673 769 666 L769 636 Q769 629 765.5 625 Q762 621 755 621 L470 621 L470 385 L737 385 Q744 385 748 381.5 Q752 378 752 371 L752 343 Q752 335 748 331.5 Q744 328 737 328 L470 328 L470 59 L766 59 Q774 59 777.5 55.5 Q781 52 781 45 L781 15 Q781 7 777.5 3.5 Q774 0 766 0 L420 0 Q412 0 407 3 Q402 6 402 15 L402 193 L190 193 L87 15 Q84 9 80.5 4.5 Q77 0 70 0 L30 0 Q22 0 18 4 Q14 8 18 15 L398 665 Q400 669 405 674.5 Q410 680 419 680 Z M572 863 L493 747 Q491 744 486.5 741 Q482 738 474 738 L441 738 Q434 738 432 741.5 Q430 745 434 752 L501 864 Q505 870 509 874 Q513 878 520 878 L564 878 Q572 878 574 873.5 Q576 869 572 863 Z " />
<glyph glyph-name="Oslashacute" unicode="&#x1fe;" horiz-adv-x="591" d="M402 863 L323 747 Q321 744 316.5 741 Q312 738 304 738 L271 738 Q264 738 262 741.5 Q260 745 264 752 L331 864 Q335 870 339 874 Q343 878 350 878 L394 878 Q402 878 404 873.5 Q406 869 402 863 Z M150 149 Q150 140 151.5 131 Q153 122 156 115 L396 608 Q379 617 354 622 Q329 627 295 627 Q217 627 183.5 600 Q150 573 150 530 L150 149 Z M295 52 Q374 52 407.5 79 Q441 106 441 149 L441 530 Q441 539 439.5 548 Q438 557 435 564 L195 71 Q212 62 237 57 Q262 52 295 52 Z M155 -11 Q149 -23 143.5 -28 Q138 -33 127 -33 L102 -33 Q93 -33 91.5 -26.5 Q90 -20 94 -11 L119 40 Q97 59 88 84.5 Q79 110 79 138 L79 541 Q79 601 126 644 Q173 687 295 687 Q336 687 368.5 682 Q401 677 425 667 L436 690 Q440 699 446 705.5 Q452 712 463 712 L489 712 Q499 712 500 704.5 Q501 697 497 690 L472 639 Q494 620 503 594.5 Q512 569 512 541 L512 138 Q512 78 465.5 34.5 Q419 -9 295 -9 Q254 -9 222 -4 Q190 1 166 11 L155 -11 Z " />
<glyph glyph-name="Dcroat" unicode="&#x110;" horiz-adv-x="610" d="M315 0 L112 0 Q105 0 102.5 4 Q100 8 100 15 L100 317 L33 317 Q26 317 22 320.5 Q18 324 18 331 L18 357 Q18 364 22 367.5 Q26 371 33 371 L100 371 L100 665 Q100 672 103 676 Q106 680 113 680 L315 680 Q438 680 485 637 Q532 594 532 534 L532 146 Q532 86 485 43 Q438 0 315 0 Z M170 61 L315 61 Q395 61 428 87.5 Q461 114 461 157 L461 523 Q461 566 428 592.5 Q395 619 315 619 L170 619 L170 371 L302 371 Q309 371 312.5 367.5 Q316 364 316 357 L316 331 Q316 324 312.5 320.5 Q309 317 302 317 L170 317 L170 61 Z " />
<glyph glyph-name="Hbar" unicode="&#x126;" horiz-adv-x="624" d="M166 390 L457 390 L457 495 L166 495 L166 390 Z M166 15 Q166 8 163 4 Q160 0 152 0 L110 0 Q103 0 99.5 4 Q96 8 96 15 L96 495 L59 495 Q52 495 48 498.5 Q44 502 44 510 L44 531 Q44 539 48 542 Q52 545 59 545 L96 545 L96 665 Q96 672 99.5 676 Q103 680 110 680 L152 680 Q160 680 163 676 Q166 672 166 665 L166 545 L457 545 L457 665 Q457 672 460.5 676 Q464 680 471 680 L514 680 Q521 680 524.5 676 Q528 672 528 665 L528 545 L565 545 Q572 545 576 542 Q580 539 580 531 L580 510 Q580 502 576 498.5 Q572 495 565 495 L528 495 L528 15 Q528 8 524.5 4 Q521 0 514 0 L471 0 Q464 0 460.5 4 Q457 8 457 15 L457 330 L166 330 L166 15 Z " />
<glyph glyph-name="IJ" unicode="&#x132;" horiz-adv-x="750" d="M161 665 L161 15 Q161 8 158 4 Q155 0 147 0 L105 0 Q98 0 94.5 4 Q91 8 91 15 L91 665 Q91 672 94.5 676 Q98 680 105 680 L147 680 Q155 680 158 676 Q161 672 161 665 Z M352 183 L352 149 Q352 106 377 79.5 Q402 53 473 53 Q545 53 569 79.5 Q593 106 593 149 L593 665 Q593 672 596.5 676 Q600 680 607 680 L649 680 Q657 680 660.5 676 Q664 672 664 665 L664 138 Q664 78 625 35 Q586 -8 473 -8 Q360 -8 321 35 Q282 78 282 138 L282 183 Q282 191 285.5 195 Q289 199 297 199 L338 199 Q345 199 348.5 195 Q352 191 352 183 Z " />
<glyph glyph-name="Ldot" unicode="&#x13f;" horiz-adv-x="482" d="M162 665 L162 61 L442 61 Q449 61 452.5 57.5 Q456 54 456 47 L456 15 Q456 7 452.5 3.5 Q449 0 442 0 L103 0 Q97 0 94 4 Q91 8 91 15 L91 665 Q91 672 94.5 676 Q98 680 105 680 L148 680 Q155 680 158.5 676 Q162 672 162 665 Z M406 393 L406 315 Q406 307 402.5 303.5 Q399 300 392 300 L351 300 Q343 300 339.5 303.5 Q336 307 336 315 L336 393 Q336 400 339.5 404 Q343 408 351 408 L392 408 Q399 408 402.5 404 Q406 400 406 393 Z " />
<glyph glyph-name="Eng" unicode="&#x14a;" horiz-adv-x="613" d="M522 665 L522 -78 Q522 -135 481 -171 Q440 -207 338 -207 L332 -207 Q324 -207 320.5 -203 Q317 -199 317 -192 L317 -164 Q317 -157 320.5 -153 Q324 -149 332 -149 L338 -149 Q404 -149 430 -127.5 Q456 -106 456 -72 L456 8 L191 477 Q183 491 173.5 509.5 Q164 528 157 543 L157 15 Q157 8 153.5 4 Q150 0 143 0 L105 0 Q97 0 93.5 4 Q90 8 90 15 L90 665 Q90 672 93.5 676 Q97 680 105 680 L143 680 Q148 680 151 678.5 Q154 677 155 674 L426 197 Q430 190 441 169.5 Q452 149 456 137 L456 665 Q456 672 459.5 676 Q463 680 470 680 L508 680 Q516 680 519 676 Q522 672 522 665 Z " />
<glyph glyph-name="Tbar" unicode="&#x166;" horiz-adv-x="523" d="M296 15 Q296 8 292.5 4 Q289 0 282 0 L239 0 Q232 0 228.5 4 Q225 8 225 15 L225 397 L83 397 Q76 397 72.5 400.5 Q69 404 69 412 L69 433 Q69 440 72.5 443.5 Q76 447 83 447 L225 447 L225 619 L52 619 Q45 619 41.5 622.5 Q38 626 38 634 L38 665 Q38 673 41.5 676.5 Q45 680 52 680 L469 680 Q476 680 480 676.5 Q484 673 484 665 L484 634 Q484 626 480 622.5 Q476 619 469 619 L296 619 L296 447 L441 447 Q449 447 452.5 443.5 Q456 440 456 433 L456 412 Q456 404 452.5 400.5 Q449 397 441 397 L296 397 L296 15 Z " />
<glyph glyph-name="amacron" unicode="&#x101;" horiz-adv-x="502" d="M210 50 Q264 50 302 71.5 Q340 93 357 106 L357 223 L199 223 Q158 223 140.5 203.5 Q123 184 123 151 L123 119 Q123 86 143.5 68 Q164 50 210 50 Z M65 358 L65 375 Q65 431 105 466.5 Q145 502 245 502 Q347 502 386 466.5 Q425 431 425 375 L425 15 Q425 8 421.5 4 Q418 0 411 0 L376 0 Q368 0 365 4 Q362 8 361 15 L359 51 Q337 34 295 13 Q253 -8 194 -8 Q124 -8 89.5 26.5 Q55 61 55 110 L55 160 Q55 209 88 243.5 Q121 278 185 278 L357 278 L357 368 Q357 402 334 423.5 Q311 445 244 445 Q178 445 154 424.5 Q130 404 130 370 L130 358 Q130 350 126.5 346 Q123 342 115 342 L79 342 Q72 342 68.5 346 Q65 350 65 358 Z M122 651 L374 651 Q381 651 385 647.5 Q389 644 389 637 L389 612 Q389 604 385 600.5 Q381 597 374 597 L122 597 Q115 597 111.5 600.5 Q108 604 108 612 L108 637 Q108 644 111.5 647.5 Q115 651 122 651 Z " />
<glyph glyph-name="abreve" unicode="&#x103;" horiz-adv-x="502" d="M210 50 Q264 50 302 71.5 Q340 93 357 106 L357 223 L199 223 Q158 223 140.5 203.5 Q123 184 123 151 L123 119 Q123 86 143.5 68 Q164 50 210 50 Z M65 358 L65 375 Q65 431 105 466.5 Q145 502 245 502 Q347 502 386 466.5 Q425 431 425 375 L425 15 Q425 8 421.5 4 Q418 0 411 0 L376 0 Q368 0 365 4 Q362 8 361 15 L359 51 Q337 34 295 13 Q253 -8 194 -8 Q124 -8 89.5 26.5 Q55 61 55 110 L55 160 Q55 209 88 243.5 Q121 278 185 278 L357 278 L357 368 Q357 402 334 423.5 Q311 445 244 445 Q178 445 154 424.5 Q130 404 130 370 L130 358 Q130 350 126.5 346 Q123 342 115 342 L79 342 Q72 342 68.5 346 Q65 350 65 358 Z M186 683 L186 666 Q186 638 198.5 618.5 Q211 599 253 599 Q296 599 308 618.5 Q320 638 320 666 L320 683 Q320 690 323 693 Q326 696 334 696 L359 696 Q366 696 369 693 Q372 690 372 683 L372 667 Q372 616 345 585.5 Q318 555 252 555 Q185 555 159.5 585.5 Q134 616 134 667 L134 683 Q134 690 137.5 693 Q141 696 148 696 L173 696 Q180 696 183 693 Q186 690 186 683 Z " />
<glyph glyph-name="aogonek" unicode="&#x105;" horiz-adv-x="500" d="M65 358 L65 375 Q65 431 105 466.5 Q145 502 245 502 Q347 502 386 466.5 Q425 431 425 375 L425 15 Q425 8 421.5 4 Q418 0 411 0 L405 0 Q373 0 359 -22 Q345 -44 345 -64 Q345 -83 358 -94 Q371 -105 399 -105 L414 -105 Q421 -105 425 -108.5 Q429 -112 429 -119 L429 -139 Q429 -147 423.5 -150.5 Q418 -154 411 -154 L380 -154 Q345 -154 317.5 -134.5 Q290 -115 290 -74 Q290 -50 306.5 -23.5 Q323 3 360 24 L359 51 Q337 34 295 13 Q253 -8 194 -8 Q124 -8 89.5 26.5 Q55 61 55 110 L55 160 Q55 209 88 243.5 Q121 278 185 278 L357 278 L357 368 Q357 402 334 423.5 Q311 445 244 445 Q178 445 154 424.5 Q130 404 130 370 L130 358 Q130 350 126.5 346 Q123 342 115 342 L79 342 Q72 342 68.5 346 Q65 350 65 358 Z M210 50 Q264 50 302 71.5 Q340 93 357 106 L357 223 L199 223 Q158 223 140.5 203.5 Q123 184 123 151 L123 119 Q123 86 143.5 68 Q164 50 210 50 Z " />
<glyph glyph-name="aringacute" unicode="&#x1fb;" horiz-adv-x="500" d="M245 554 Q197 554 175 573.5 Q153 593 153 624 L153 649 Q153 677 171 696.5 Q189 716 229 719 L283 810 Q287 816 291.5 820 Q296 824 303 824 L347 824 Q355 824 356.5 819.5 Q358 815 354 809 L289 714 Q314 706 326 688.5 Q338 671 338 649 L338 624 Q338 593 316 573.5 Q294 554 245 554 Z M297 631 L297 642 Q297 660 285 671.5 Q273 683 245 683 Q217 683 205 671.5 Q193 660 193 642 L193 631 Q193 613 205 601.5 Q217 590 245 590 Q273 590 285 601.5 Q297 613 297 631 Z M210 50 Q264 50 302 71.5 Q340 93 357 106 L357 223 L199 223 Q158 223 140.5 203.5 Q123 184 123 151 L123 119 Q123 86 143.5 68 Q164 50 210 50 Z M65 358 L65 375 Q65 431 105 466.5 Q145 502 245 502 Q347 502 386 466.5 Q425 431 425 375 L425 15 Q425 8 421.5 4 Q418 0 411 0 L376 0 Q368 0 365 4 Q362 8 361 15 L359 51 Q337 34 295 13 Q253 -8 194 -8 Q124 -8 89.5 26.5 Q55 61 55 110 L55 160 Q55 209 88 243.5 Q121 278 185 278 L357 278 L357 368 Q357 402 334 423.5 Q311 445 244 445 Q178 445 154 424.5 Q130 404 130 370 L130 358 Q130 350 126.5 346 Q123 342 115 342 L79 342 Q72 342 68.5 346 Q65 350 65 358 Z " />
<glyph glyph-name="cacute" unicode="&#x107;" horiz-adv-x="482" d="M357 693 L278 577 Q276 574 271.5 571 Q267 568 260 568 L227 568 Q220 568 217.5 571.5 Q215 575 219 582 L286 694 Q290 700 294.5 704 Q299 708 306 708 L350 708 Q358 708 359.5 703.5 Q361 699 357 693 Z M251 502 Q353 502 392.5 466 Q432 430 432 373 L432 354 Q432 347 428.5 343 Q425 339 418 339 L381 339 Q373 339 369.5 343 Q366 347 366 354 L366 369 Q366 403 342 424 Q318 445 251 445 Q185 445 161.5 424 Q138 403 138 369 L138 126 Q138 91 161.5 70 Q185 49 251 49 Q318 49 342 70 Q366 91 366 126 L366 148 Q366 156 369.5 159.5 Q373 163 381 163 L418 163 Q425 163 428.5 159.5 Q432 156 432 148 L432 121 Q432 64 392 28 Q352 -8 250 -8 Q148 -8 108.5 28 Q69 64 69 121 L69 373 Q69 430 109 466 Q149 502 251 502 Z " />
</font>
</svg>
